<svg xmlns="http://www.w3.org/2000/svg" xmlns:xlink="http://www.w3.org/1999/xlink" width="327" height="376" viewBox="0 0 327 376">
  <defs>
    <filter id="Ellipse_12" x="0" y="0" width="327" height="327" filterUnits="userSpaceOnUse">
      <feOffset dy="5" input="SourceAlpha"/>
      <feGaussianBlur stdDeviation="3" result="blur"/>
      <feFlood flood-opacity="0.161"/>
      <feComposite operator="in" in2="blur"/>
      <feComposite in="SourceGraphic"/>
    </filter>
    <filter id="Ellipse_13" x="103" y="255" width="121" height="121" filterUnits="userSpaceOnUse">
      <feOffset dy="10" input="SourceAlpha"/>
      <feGaussianBlur stdDeviation="5" result="blur-2"/>
      <feFlood flood-opacity="0.161"/>
      <feComposite operator="in" in2="blur-2"/>
      <feComposite in="SourceGraphic"/>
    </filter>
  </defs>
  <g id="Group_1324" data-name="Group 1324" transform="translate(-46 -5149)">
    <g transform="matrix(1, 0, 0, 1, 46, 5149)" filter="url(#Ellipse_12)">
      <circle id="Ellipse_12-2" data-name="Ellipse 12" cx="154.5" cy="154.5" r="154.5" transform="translate(9 4)" fill="#fff"/>
    </g>
    <g id="Group_44" data-name="Group 44" transform="translate(101.023 5232.076)">
      <rect id="Rectangle_50" data-name="Rectangle 50" width="8.398" height="3.586" transform="translate(112.166 24.687)" fill="#0557fa"/>
      <rect id="Rectangle_51" data-name="Rectangle 51" width="8.398" height="3.586" transform="translate(95.369 82.192)" fill="#0557fa"/>
      <rect id="Rectangle_52" data-name="Rectangle 52" width="17.108" height="17.108" transform="translate(99.413 17.926)" fill="#0557fa"/>
      <rect id="Rectangle_53" data-name="Rectangle 53" width="17.108" height="17.108" transform="translate(99.413 75.431)" fill="#0557fa"/>
      <rect id="Rectangle_54" data-name="Rectangle 54" width="17.108" height="17.108" transform="translate(99.413 132.936)" fill="#0557fa"/>
      <rect id="Rectangle_55" data-name="Rectangle 55" width="8.398" height="3.586" transform="translate(145.758 24.687)" fill="#0557fa"/>
      <rect id="Rectangle_56" data-name="Rectangle 56" width="8.397" height="3.586" transform="translate(128.962 24.687)" fill="#0557fa"/>
      <rect id="Rectangle_57" data-name="Rectangle 57" width="8.398" height="3.586" transform="translate(95.369 24.687)" fill="#0557fa"/>
      <rect id="Rectangle_58" data-name="Rectangle 58" width="8.397" height="3.586" transform="translate(78.574 24.687)" fill="#0557fa"/>
      <rect id="Rectangle_59" data-name="Rectangle 59" width="8.398" height="3.586" transform="translate(61.777 24.687)" fill="#0557fa"/>
      <rect id="Rectangle_60" data-name="Rectangle 60" width="8.398" height="3.586" transform="translate(145.758 82.192)" fill="#0557fa"/>
      <rect id="Rectangle_61" data-name="Rectangle 61" width="8.397" height="3.586" transform="translate(128.962 82.192)" fill="#0557fa"/>
      <rect id="Rectangle_62" data-name="Rectangle 62" width="8.398" height="3.586" transform="translate(112.166 82.192)" fill="#0557fa"/>
      <rect id="Rectangle_63" data-name="Rectangle 63" width="8.397" height="3.586" transform="translate(78.574 82.192)" fill="#0557fa"/>
      <rect id="Rectangle_64" data-name="Rectangle 64" width="8.398" height="3.586" transform="translate(61.777 82.192)" fill="#0557fa"/>
      <rect id="Rectangle_65" data-name="Rectangle 65" width="8.398" height="3.586" transform="translate(145.758 139.697)" fill="#0557fa"/>
      <rect id="Rectangle_66" data-name="Rectangle 66" width="8.397" height="3.586" transform="translate(128.962 139.697)" fill="#0557fa"/>
      <rect id="Rectangle_67" data-name="Rectangle 67" width="8.398" height="3.586" transform="translate(112.166 139.697)" fill="#0557fa"/>
      <rect id="Rectangle_68" data-name="Rectangle 68" width="8.398" height="3.586" transform="translate(95.369 139.697)" fill="#0557fa"/>
      <rect id="Rectangle_69" data-name="Rectangle 69" width="8.397" height="3.586" transform="translate(78.574 139.697)" fill="#0557fa"/>
      <rect id="Rectangle_70" data-name="Rectangle 70" width="8.398" height="3.586" transform="translate(61.777 139.697)" fill="#0557fa"/>
      <rect id="Rectangle_71" data-name="Rectangle 71" width="3.586" height="4.483" transform="translate(106.173 26.48)" fill="#0557fa"/>
      <rect id="Rectangle_72" data-name="Rectangle 72" width="3.586" height="9.64" transform="translate(106.173 117.726)" fill="#0557fa"/>
      <rect id="Rectangle_73" data-name="Rectangle 73" width="3.586" height="9.64" transform="translate(106.173 98.445)" fill="#0557fa"/>
      <rect id="Rectangle_74" data-name="Rectangle 74" width="3.586" height="9.64" transform="translate(106.173 79.165)" fill="#0557fa"/>
      <rect id="Rectangle_75" data-name="Rectangle 75" width="3.586" height="9.64" transform="translate(106.173 59.884)" fill="#0557fa"/>
      <rect id="Rectangle_76" data-name="Rectangle 76" width="3.586" height="9.64" transform="translate(106.173 40.603)" fill="#0557fa"/>
      <rect id="Rectangle_77" data-name="Rectangle 77" width="3.586" height="4.483" transform="translate(106.173 137.007)" fill="#0557fa"/>
      <g id="Group_2" data-name="Group 2" transform="translate(19.675 15.114)">
        <path id="Path_4" data-name="Path 4" d="M3158.614,2339.217H3145.94l-.552-.085-14.573.083h-7.684l-2.371,17.5.845,3.289,20.336-.462,5.31-1.5h3.475l8.857-16.908A1.277,1.277,0,0,0,3158.614,2339.217Z" transform="translate(-3120.602 -2339.131)" fill="#fff70f"/>
        <path id="Path_5" data-name="Path 5" d="M3157.946,2584.853h-12.674l-.552-.085-14.573.083h-7.684l-2.371,17.5.844,3.289,20.336-.461,5.31-1.5h3.475l8.857-16.907A1.277,1.277,0,0,0,3157.946,2584.853Z" transform="translate(-3120.091 -2526.661)" fill="#fff70f"/>
        <path id="Path_6" data-name="Path 6" d="M3157.946,2830.73h-12.674l-.552-.085-14.573.083h-7.684l-2.371,17.5.844,3.289,20.336-.461,5.31-1.5h3.475l8.857-16.908A1.277,1.277,0,0,0,3157.946,2830.73Z" transform="translate(-3120.091 -2714.374)" fill="#fff70f"/>
        <path id="Path_7" data-name="Path 7" d="M3809.992,2584.853h-12.674l-.552-.085-14.573.083h-7.684l-2.371,17.5.845,3.289,20.336-.461,5.311-1.5h3.475l8.857-16.907A1.277,1.277,0,0,0,3809.992,2584.853Z" transform="translate(-3617.891 -2526.661)" fill="#fff70f"/>
        <path id="Path_8" data-name="Path 8" d="M3809.992,2343.15h-12.674l-.552-.086-14.573.083h-7.684l-2.371,17.5.845,3.289,20.336-.462,5.311-1.5h3.475l8.857-16.908A1.277,1.277,0,0,0,3809.992,2343.15Z" transform="translate(-3617.891 -2342.134)" fill="#fff70f"/>
        <path id="Path_9" data-name="Path 9" d="M3809.992,2830.73h-12.674l-.552-.085-14.573.083h-7.684l-2.371,17.5.845,3.289,20.336-.461,5.311-1.5h3.475l8.857-16.908A1.277,1.277,0,0,0,3809.992,2830.73Z" transform="translate(-3617.891 -2714.374)" fill="#fff70f"/>
      </g>
      <g id="Group_3" data-name="Group 3" transform="translate(0 57.75)">
        <path id="Path_10" data-name="Path 10" d="M3080.349,2528.2h-17.9a6.944,6.944,0,0,0-6.168,3.725l-11.258,21.495-8.044-31.458a2.154,2.154,0,0,1,2.209-2.6h10.7a2.245,2.245,0,0,1,2.21,1.622l.427,1.679a2.245,2.245,0,0,0,2.209,1.622h22.823a2.244,2.244,0,0,1,2.209,1.622Z" transform="translate(-3036.917 -2519.367)" fill="#0557fa"/>
        <path id="Path_11" data-name="Path 11" d="M3129.388,2569.15h-36.875a3.588,3.588,0,0,0-3.129,2.017l-13.081,24.979h41.771l12.7-24.252A1.831,1.831,0,0,0,3129.388,2569.15Zm-39.873,21.427a16.737,16.737,0,0,1,4.979-5.889c3.95-2.841,8.947-1.409,9.091-1.362-6.848.125-10.149,4.519-12.019,7.807Zm7.177-4.031c.1-.073.211-.157.323-.229.166-.1.319-.2.472-.306l1.855,1.97c-.353.261-.688.488-1.033.7Zm-.307,3.168c-.387.156-.746.291-1.089.4l-.671-1.82c.21-.232.458-.459.719-.7Zm2.68-4.523q.6-.268,1.119-.437l1.678.789c-.26.313-.53.611-.8.886Zm4.94,2.491c-4.137,5.964-10.862,3.823-11.078,3.753a11.657,11.657,0,0,0,7.463-3.085,27.607,27.607,0,0,0,4.54-5.8c.6-.94,1.256-1.948,2.022-3.052,4.137-5.964,10.86-3.811,11.064-3.743-6.386.308-9.486,4.957-12,8.877l.01.014C3105.423,2585.57,3104.758,2586.588,3104,2587.682Zm7.611-8.474c.341-.263.689-.5,1.022-.715l1.629,2.137a3.065,3.065,0,0,1-.335.227c-.155.115-.307.206-.472.306Zm.276,2.79q-.6.25-1.12.437l-1.678-.79a10.074,10.074,0,0,1,.8-.9Zm2.68-4.523a10.631,10.631,0,0,1,1.079-.417l.682,1.833c-.221.218-.456.447-.729.683Zm1.88,5.012c-3.939,2.855-8.935,1.411-9.091,1.362,6.846-.113,10.149-4.519,12.031-7.805l2.038.566A16.334,16.334,0,0,1,3116.452,2582.487Z" transform="translate(-3066.986 -2557.373)" fill="#0557fa"/>
      </g>
      <g id="Group_4" data-name="Group 4" transform="translate(153.037 57.75)">
        <path id="Path_12" data-name="Path 12" d="M3727.283,2528.2h-17.9a6.944,6.944,0,0,0-6.168,3.725l-11.258,21.495-8.044-31.458a2.154,2.154,0,0,1,2.209-2.6h10.7a2.244,2.244,0,0,1,2.209,1.622l.427,1.679a2.244,2.244,0,0,0,2.209,1.622h22.823a2.245,2.245,0,0,1,2.209,1.622Z" transform="translate(-3683.852 -2519.367)" fill="#0557fa"/>
        <path id="Path_13" data-name="Path 13" d="M3776.323,2569.15h-36.875a3.588,3.588,0,0,0-3.129,2.017l-13.081,24.979h41.77l12.7-24.252A1.831,1.831,0,0,0,3776.323,2569.15Zm-39.874,21.427a16.743,16.743,0,0,1,4.98-5.889c3.949-2.841,8.947-1.409,9.091-1.362-6.848.125-10.149,4.519-12.019,7.807Zm7.177-4.031c.1-.073.211-.157.323-.229.166-.1.319-.2.473-.306l1.854,1.97c-.353.261-.688.488-1.033.7Zm-.307,3.168c-.387.156-.746.291-1.089.4l-.672-1.82c.21-.232.457-.459.719-.7Zm2.68-4.523q.6-.268,1.119-.437l1.678.789c-.26.313-.531.611-.8.886Zm4.941,2.491c-4.137,5.964-10.862,3.823-11.078,3.753a11.656,11.656,0,0,0,7.463-3.085,27.625,27.625,0,0,0,4.54-5.8c.6-.94,1.256-1.948,2.022-3.052,4.137-5.964,10.86-3.811,11.063-3.743-6.386.308-9.486,4.957-12,8.877l.01.014C3752.358,2585.57,3751.693,2586.588,3750.94,2587.682Zm7.611-8.474c.341-.263.689-.5,1.022-.715l1.629,2.137a3.089,3.089,0,0,1-.335.227c-.155.115-.307.206-.472.306Zm.276,2.79q-.6.25-1.119.437l-1.678-.79a10.034,10.034,0,0,1,.8-.9Zm2.68-4.523a10.631,10.631,0,0,1,1.079-.417l.682,1.833c-.221.218-.455.447-.729.683Zm1.88,5.012c-3.939,2.855-8.935,1.411-9.091,1.362,6.846-.113,10.149-4.519,12.031-7.805l2.038.566A16.335,16.335,0,0,1,3763.387,2582.487Z" transform="translate(-3713.921 -2557.373)" fill="#0557fa"/>
      </g>
      <g id="Group_5" data-name="Group 5" transform="translate(0 115.602)">
        <path id="Path_14" data-name="Path 14" d="M3080.349,2772.761h-17.9a6.944,6.944,0,0,0-6.168,3.725l-11.258,21.495-8.044-31.458a2.154,2.154,0,0,1,2.209-2.6h10.7a2.245,2.245,0,0,1,2.21,1.622l.427,1.679a2.245,2.245,0,0,0,2.209,1.622h22.823a2.244,2.244,0,0,1,2.209,1.622Z" transform="translate(-3036.917 -2763.926)" fill="#0557fa"/>
        <path id="Path_15" data-name="Path 15" d="M3129.388,2813.709h-36.875a3.587,3.587,0,0,0-3.129,2.017L3076.3,2840.7h41.771l12.7-24.252A1.831,1.831,0,0,0,3129.388,2813.709Zm-39.873,21.427a16.731,16.731,0,0,1,4.979-5.889c3.95-2.841,8.947-1.409,9.091-1.363-6.848.126-10.149,4.52-12.019,7.808Zm7.177-4.031c.1-.073.211-.157.323-.228.166-.1.319-.2.472-.307l1.855,1.97c-.353.261-.688.488-1.033.7Zm-.307,3.168c-.387.156-.746.291-1.089.4l-.671-1.82c.21-.232.458-.459.719-.7Zm2.68-4.523a11.972,11.972,0,0,1,1.119-.437l1.678.789c-.26.313-.53.612-.8.886Zm4.94,2.491c-4.137,5.964-10.862,3.823-11.078,3.754a11.657,11.657,0,0,0,7.463-3.085,27.615,27.615,0,0,0,4.54-5.8c.6-.94,1.256-1.948,2.022-3.052,4.137-5.964,10.86-3.811,11.064-3.743-6.386.307-9.486,4.957-12,8.876l.01.014C3105.423,2830.129,3104.758,2831.147,3104,2832.241Zm7.611-8.474c.341-.263.689-.5,1.022-.714l1.629,2.137a3.137,3.137,0,0,1-.335.227c-.155.115-.307.206-.472.306Zm.276,2.791q-.6.25-1.12.437l-1.678-.789a10.01,10.01,0,0,1,.8-.9Zm2.68-4.523a10.747,10.747,0,0,1,1.079-.417l.682,1.834c-.221.219-.456.447-.729.683Zm1.88,5.012c-3.939,2.855-8.935,1.41-9.091,1.362,6.846-.114,10.149-4.519,12.031-7.805l2.038.566A16.338,16.338,0,0,1,3116.452,2827.046Z" transform="translate(-3066.986 -2801.932)" fill="#0557fa"/>
      </g>
      <g id="Group_6" data-name="Group 6" transform="translate(153.037 115.602)">
        <path id="Path_16" data-name="Path 16" d="M3727.283,2772.761h-17.9a6.944,6.944,0,0,0-6.168,3.725l-11.258,21.495-8.044-31.458a2.154,2.154,0,0,1,2.209-2.6h10.7a2.244,2.244,0,0,1,2.209,1.622l.427,1.679a2.244,2.244,0,0,0,2.209,1.622h22.823a2.245,2.245,0,0,1,2.209,1.622Z" transform="translate(-3683.852 -2763.926)" fill="#0557fa"/>
        <path id="Path_17" data-name="Path 17" d="M3776.323,2813.709h-36.875a3.587,3.587,0,0,0-3.129,2.017l-13.081,24.978h41.77l12.7-24.252A1.831,1.831,0,0,0,3776.323,2813.709Zm-39.874,21.427a16.736,16.736,0,0,1,4.98-5.889c3.949-2.841,8.947-1.409,9.091-1.363-6.848.126-10.149,4.52-12.019,7.808Zm7.177-4.031c.1-.073.211-.157.323-.228.166-.1.319-.2.473-.307l1.854,1.97c-.353.261-.688.488-1.033.7Zm-.307,3.168c-.387.156-.746.291-1.089.4l-.672-1.82c.21-.232.457-.459.719-.7Zm2.68-4.523a11.951,11.951,0,0,1,1.119-.437l1.678.789c-.26.313-.531.612-.8.886Zm4.941,2.491c-4.137,5.964-10.862,3.823-11.078,3.754a11.656,11.656,0,0,0,7.463-3.085,27.632,27.632,0,0,0,4.54-5.8c.6-.94,1.256-1.948,2.022-3.052,4.137-5.964,10.86-3.811,11.063-3.743-6.386.307-9.486,4.957-12,8.876l.01.014C3752.358,2830.129,3751.693,2831.147,3750.94,2832.241Zm7.611-8.474c.341-.263.689-.5,1.022-.714l1.629,2.137a3.161,3.161,0,0,1-.335.227c-.155.115-.307.206-.472.306Zm.276,2.791q-.6.25-1.119.437l-1.678-.789a9.971,9.971,0,0,1,.8-.9Zm2.68-4.523a10.747,10.747,0,0,1,1.079-.417l.682,1.834c-.221.219-.455.447-.729.683Zm1.88,5.012c-3.939,2.855-8.935,1.41-9.091,1.362,6.846-.114,10.149-4.519,12.031-7.805l2.038.566A16.339,16.339,0,0,1,3763.387,2827.046Z" transform="translate(-3713.921 -2801.932)" fill="#0557fa"/>
      </g>
      <g id="Group_7" data-name="Group 7" transform="translate(153.037 0)">
        <path id="Path_18" data-name="Path 18" d="M3727.283,2284.074h-17.9a6.945,6.945,0,0,0-6.168,3.725l-11.258,21.494-8.044-31.457a2.154,2.154,0,0,1,2.209-2.6h10.7a2.244,2.244,0,0,1,2.209,1.622l.427,1.679a2.244,2.244,0,0,0,2.209,1.622h22.823a2.245,2.245,0,0,1,2.209,1.622Z" transform="translate(-3683.852 -2275.239)" fill="#0557fa"/>
        <path id="Path_19" data-name="Path 19" d="M3776.323,2325.021h-36.875a3.588,3.588,0,0,0-3.129,2.017l-13.081,24.978h41.77l12.7-24.251A1.831,1.831,0,0,0,3776.323,2325.021Zm-39.874,21.428a16.739,16.739,0,0,1,4.98-5.889c3.949-2.841,8.947-1.408,9.091-1.362-6.848.126-10.149,4.52-12.019,7.807Zm7.177-4.031c.1-.073.211-.157.323-.228.166-.1.319-.2.473-.307l1.854,1.97c-.353.262-.688.488-1.033.7Zm-.307,3.168c-.387.156-.746.291-1.089.4l-.672-1.819c.21-.233.457-.459.719-.7Zm2.68-4.523q.6-.268,1.119-.437l1.678.789c-.26.313-.531.612-.8.886Zm4.941,2.491c-4.137,5.964-10.862,3.823-11.078,3.753a11.655,11.655,0,0,0,7.463-3.085,27.622,27.622,0,0,0,4.54-5.8c.6-.939,1.256-1.948,2.022-3.051,4.137-5.964,10.86-3.811,11.063-3.743-6.386.307-9.486,4.957-12,8.877l.01.014C3752.358,2341.441,3751.693,2342.459,3750.94,2343.553Zm7.611-8.474c.341-.263.689-.5,1.022-.715l1.629,2.137a3.2,3.2,0,0,1-.335.227c-.155.115-.307.206-.472.307Zm.276,2.79q-.6.25-1.119.437l-1.678-.789a9.934,9.934,0,0,1,.8-.9Zm2.68-4.523a10.747,10.747,0,0,1,1.079-.417l.682,1.834c-.221.219-.455.447-.729.683Zm1.88,5.012c-3.939,2.855-8.935,1.41-9.091,1.362,6.846-.114,10.149-4.52,12.031-7.806l2.038.566A16.336,16.336,0,0,1,3763.387,2338.358Z" transform="translate(-3713.921 -2313.245)" fill="#0557fa"/>
      </g>
      <g id="Group_8" data-name="Group 8" transform="translate(0 0)">
        <path id="Path_20" data-name="Path 20" d="M3080.349,2284.074h-17.9a6.945,6.945,0,0,0-6.168,3.725l-11.258,21.494-8.044-31.457a2.154,2.154,0,0,1,2.209-2.6h10.7a2.245,2.245,0,0,1,2.21,1.622l.427,1.679a2.245,2.245,0,0,0,2.209,1.622h22.823a2.244,2.244,0,0,1,2.209,1.622Z" transform="translate(-3036.917 -2275.239)" fill="#0557fa"/>
        <path id="Path_21" data-name="Path 21" d="M3129.388,2325.021h-36.875a3.588,3.588,0,0,0-3.129,2.017l-13.081,24.978h41.771l12.7-24.251A1.831,1.831,0,0,0,3129.388,2325.021Zm-39.873,21.428a16.733,16.733,0,0,1,4.979-5.889c3.95-2.841,8.947-1.408,9.091-1.362-6.848.126-10.149,4.52-12.019,7.807Zm7.177-4.031c.1-.073.211-.157.323-.228.166-.1.319-.2.472-.307l1.855,1.97c-.353.262-.688.488-1.033.7Zm-.307,3.168c-.387.156-.746.291-1.089.4l-.671-1.819c.21-.233.458-.459.719-.7Zm2.68-4.523q.6-.268,1.119-.437l1.678.789c-.26.313-.53.612-.8.886Zm4.94,2.491c-4.137,5.964-10.862,3.823-11.078,3.753a11.657,11.657,0,0,0,7.463-3.085,27.6,27.6,0,0,0,4.54-5.8c.6-.939,1.256-1.948,2.022-3.051,4.137-5.964,10.86-3.811,11.064-3.743-6.386.307-9.486,4.957-12,8.877l.01.014C3105.423,2341.441,3104.758,2342.459,3104,2343.553Zm7.611-8.474c.341-.263.689-.5,1.022-.715l1.629,2.137a3.171,3.171,0,0,1-.335.227c-.155.115-.307.206-.472.307Zm.276,2.79q-.6.25-1.12.437l-1.678-.789a9.973,9.973,0,0,1,.8-.9Zm2.68-4.523a10.747,10.747,0,0,1,1.079-.417l.682,1.834c-.221.219-.456.447-.729.683Zm1.88,5.012c-3.939,2.855-8.935,1.41-9.091,1.362,6.846-.114,10.149-4.52,12.031-7.806l2.038.566A16.334,16.334,0,0,1,3116.452,2338.358Z" transform="translate(-3066.986 -2313.245)" fill="#0557fa"/>
      </g>
    </g>
    <g transform="matrix(1, 0, 0, 1, 46, 5149)" filter="url(#Ellipse_13)">
      <circle id="Ellipse_13-2" data-name="Ellipse 13" cx="45.5" cy="45.5" r="45.5" transform="translate(118 260)" fill="#ff7051"/>
    </g>
    <text id="_2" data-name="2" transform="translate(200 5429)" font-size="37" font-family="MatrixIIOT-Bold, Matrix II OT" font-weight="700"><tspan x="0" y="36">2</tspan></text>
  </g>
</svg>
