<svg xmlns="http://www.w3.org/2000/svg" xmlns:xlink="http://www.w3.org/1999/xlink" width="325" height="375" viewBox="0 0 325 375">
  <defs>
    <filter id="Ellipse_14" x="0" y="0" width="325" height="326" filterUnits="userSpaceOnUse">
      <feOffset dy="5" input="SourceAlpha"/>
      <feGaussianBlur stdDeviation="3" result="blur"/>
      <feFlood flood-opacity="0.161"/>
      <feComposite operator="in" in2="blur"/>
      <feComposite in="SourceGraphic"/>
    </filter>
    <filter id="Ellipse_15" x="107" y="254" width="120" height="121" filterUnits="userSpaceOnUse">
      <feOffset dy="10" input="SourceAlpha"/>
      <feGaussianBlur stdDeviation="5" result="blur-2"/>
      <feFlood flood-opacity="0.161"/>
      <feComposite operator="in" in2="blur-2"/>
      <feComposite in="SourceGraphic"/>
    </filter>
  </defs>
  <g id="Group_1325" data-name="Group 1325" transform="translate(-50 -5667)">
    <g transform="matrix(1, 0, 0, 1, 50, 5667)" filter="url(#Ellipse_14)">
      <ellipse id="Ellipse_14-2" data-name="Ellipse 14" cx="153.5" cy="154" rx="153.5" ry="154" transform="translate(9 4)" fill="#fff"/>
    </g>
    <g id="Group_45" data-name="Group 45" transform="translate(138.338 5750.171)">
      <g id="Group_10" data-name="Group 10" transform="translate(0)">
        <path id="Path_22" data-name="Path 22" d="M4412.5,2247.69c.167,2.551.7,5.073.647,7.606a.856.856,0,0,1-1.2-.374c-.442-.719-.979-1.381-1.4-2.112-.354-.614-.592-1.295-.9-1.938a3.711,3.711,0,0,0-.429-.538,4.254,4.254,0,0,0-.119.763,3.014,3.014,0,0,0,1.19,2.614.625.625,0,0,1,.162.158c.325.453.65.906.967,1.365a2.508,2.508,0,0,1,.656,1.924.666.666,0,0,0,.123.42c.273.431.583.839.85,1.275.529.865,1.038,1.742,1.554,2.616.181.307.34.629.539.924a1.321,1.321,0,0,1,.112,1.329,3.527,3.527,0,0,0-.219.972c-.023.246.1.376.388.5a2.12,2.12,0,0,1,.829.862.616.616,0,0,0,.6.38c.455,0,.8.19.811.729a1.715,1.715,0,0,0,.066.672,1.566,1.566,0,0,0,.551.749c.6.3.754.473.427,1.062a1.769,1.769,0,0,0,.2,2.237.773.773,0,0,1,.09.474,1.9,1.9,0,0,0,.892,1.919c.419.248.98.515,1.061,1.173.017.135.42.192.5.355a6.279,6.279,0,0,1,.478,1.37,14.7,14.7,0,0,0,.257,1.732,4.429,4.429,0,0,0,.859,1.252c.27.324.7.543.889.9a1.608,1.608,0,0,0,1.267.924,2.142,2.142,0,0,1,1.605,1.121,6.721,6.721,0,0,0,.913,1.141.7.7,0,0,0,.517.127c.375-.04.516.129.663.456a5.631,5.631,0,0,0,.711,1.047c.146.193.363.337.5.537.374.552.649,1.126.082,1.779a3.747,3.747,0,0,1,.5.387,5.729,5.729,0,0,1,.846,1.013,1.776,1.776,0,0,0,1.94.942c.144-.033.368-.076.4-.17.222-.6.755-.434,1.178-.494a9.436,9.436,0,0,1,1.078-.012,3.045,3.045,0,0,0,1.338-.446,6.1,6.1,0,0,1,2.122-.4c.447-.046.907.058,1.359.042a2.958,2.958,0,0,0,1.764-.559,7.152,7.152,0,0,1,1.8-.806c.405-.152.648.069.711.479a2.345,2.345,0,0,1,.014.454,3.008,3.008,0,0,0,.549,2.286l-.967.547c-.049.331-.108.774-.181,1.215a5.045,5.045,0,0,1-1.2,2.206,15.569,15.569,0,0,1-1.859,2.627c-.156.136-.037.551-.12.814a7.012,7.012,0,0,1-.613,1.591,26.814,26.814,0,0,1-1.981,2.819c-.644.786-1.418,1.466-2.131,2.2-.537.55-1.049,1.125-1.607,1.651a4.158,4.158,0,0,1-1.093.794c-1.951.874-3.224,2.536-4.689,3.971a9.586,9.586,0,0,0-1.525,2.013,2.546,2.546,0,0,1-1.539,1.431.363.363,0,0,0-.219.268c0,.5-.35.569-.715.726a2.009,2.009,0,0,0-.8.7c-.311.454-.516.979-.8,1.45a8.7,8.7,0,0,0-1.187,1.9,6.876,6.876,0,0,1-.928,2.31c-.074.1.064.434.192.585a5.389,5.389,0,0,0,.764.675,1.546,1.546,0,0,1,.443,1.934,2.59,2.59,0,0,0,.234,2.746,1.619,1.619,0,0,1,.206.87,1.258,1.258,0,0,0,.731,1.276,1.035,1.035,0,0,1,.57,1.062c.008.793.078,1.586.123,2.379a.518.518,0,0,0,.027.224c.534.874.175,1.746.029,2.63a2.031,2.031,0,0,0,.3,1.88,1.13,1.13,0,0,1,.043.868,13.386,13.386,0,0,1-.534,1.425c-.02.052-.087.108-.076.147.337,1.207-.89,1.677-1.275,2.551a2.536,2.536,0,0,1-2.353,1.253,2.094,2.094,0,0,0-1.666.791c-1.019,1.038-2.168,1.947-3.244,2.931-.737.676-1.462,1.37-2.153,2.093-.472.493-.4.9.1,1.355a2.428,2.428,0,0,1,.942,1.939c0,1.7.205,3.4.292,5.1a.983.983,0,0,1-.262.723,5.154,5.154,0,0,1-2.02,1.046,16.5,16.5,0,0,0-3.147,1.344c-.418.209-.374.607.066.811.584.27.677.62.512,1.225-.323,1.186-.543,2.4-.824,3.6a5.41,5.41,0,0,1-.333.962c-.072.162-.2.371-.35.413a4.594,4.594,0,0,0-2.536,1.944,1.888,1.888,0,0,0-.375,1.1,2.743,2.743,0,0,1-.994,2.138c-1.943,2.015-3.942,3.975-5.937,5.939a1.48,1.48,0,0,1-.663.236c-1.071.267-2.172.444-3.208.81a3.153,3.153,0,0,1-2.257.029,1.914,1.914,0,0,0-1.248-.019,2.431,2.431,0,0,1-.972.01c-.587-.107-1.151-.275-1.55.388-.061.1-.291.135-.446.144a7.219,7.219,0,0,0-2.958.676,1.775,1.775,0,0,1-2.2-.549c-.764-.914-1.565-1.8-2.309-2.729a1.4,1.4,0,0,1,.091-1.907,1.584,1.584,0,0,0,.118-1.715c-.96-1.714-1.9-3.436-2.851-5.158a.877.877,0,0,1-.155-.419c.054-1.032-.677-1.56-1.336-2.142a1.6,1.6,0,0,1-.363-.424,15.581,15.581,0,0,1-1.562-3.714,15.411,15.411,0,0,1-.066-2.32,7.285,7.285,0,0,0-.318-1.411c-.118-.415-.284-.817-.42-1.228-.035-.106,0-.262-.063-.328-.569-.582-.28-1.18-.058-1.781a2.612,2.612,0,0,0-.925-2.722,1.191,1.191,0,0,1-.43-.5,6.518,6.518,0,0,1-.513-1.548,8.721,8.721,0,0,0-2.25-4.375.914.914,0,0,0-.335-.3c-.757-.276-.827-.862-.783-1.551.041-.641-.006-1.288.013-1.932a4.889,4.889,0,0,1,.785-2.63,5.031,5.031,0,0,0,.72-3.313c0-.019,0-.037-.007-.056-.063-.65-.153-1.254.5-1.759.585-.449,1-1.115,1.548-1.619a2.427,2.427,0,0,0,.6-2.362c-.06-.383-.525-.7-.792-1.056a1.131,1.131,0,0,1-.244-.468,1.363,1.363,0,0,0-.769-1.219.561.561,0,0,1-.076-.963,5.114,5.114,0,0,1,.633-.48c.478-.283.435-.65.212-1.062-.018-.033-.051-.061-.061-.1-.376-1.3-1.395-2.219-2.026-3.364a1.976,1.976,0,0,1-.19-1.176,2.163,2.163,0,0,0-.823-2.381,2.5,2.5,0,0,1-1.028-1.444,1.221,1.221,0,0,0-.7-.711,8.443,8.443,0,0,1-2.922-2.2c-.8-.745-.552-1.76-.437-2.686a4.429,4.429,0,0,1,.575-2.328c.164-.218.088-.624.1-.945.022-.662.031-1.325.04-1.987a.99.99,0,0,1,.376-.946.492.492,0,0,0,.151-.4c-.1-.758-.2-1.52-.368-2.264-.049-.216-.327-.388-.517-.56-.11-.1-.311-.129-.376-.243-.411-.722-1.09-.617-1.748-.614-1.4.007-2.8,0-4.2,0a1.772,1.772,0,0,1-1.684-1.26c-.077-.273-.139-.55-.214-.823a1.715,1.715,0,0,0-1.813-1.38,4.14,4.14,0,0,1-1.98-.369c-.214-.109-.607.1-.9.2a5.757,5.757,0,0,1-.883.377c-.557.086-1.127.079-1.7.112-.23,1.026-1.12.787-1.761.9a1.784,1.784,0,0,0-1.473.775.628.628,0,0,1-.414.273,9.314,9.314,0,0,1-3.357.242,1.287,1.287,0,0,1-.74-.506.888.888,0,0,0-.812-.445,10.208,10.208,0,0,0-4.532.8,23.052,23.052,0,0,0-2.68,1.219,1.556,1.556,0,0,1-1.6-.038c-2.327-1.443-4.661-2.879-6.943-4.391a10.424,10.424,0,0,1-3.9-4.246,9.845,9.845,0,0,0-1-1.429,3.564,3.564,0,0,1-.4-.606,5.084,5.084,0,0,0-1.673-2.1,3,3,0,0,1-.694-.948c-.354-.626-.719-1.184-1.551-1.226a.682.682,0,0,1-.685-.7.656.656,0,0,0-.078-.265,2.165,2.165,0,0,1-.1-2.045c.039-.083.094-.222.056-.269a25.162,25.162,0,0,0-1.639-1.977c-.207-.212-.628-.216-.968-.319a.885.885,0,0,1,.746-.864,10.558,10.558,0,0,0,1.814-.762c.132-.064.292-.345.249-.448-.184-.442.044-.781.149-1.177.2-.754.287-1.537.436-2.305a11.146,11.146,0,0,1,.344-1.482,1.07,1.07,0,0,0-.121-.946,3.879,3.879,0,0,1-.339-1.259c-.1-.726-.1-1.467-.23-2.187a.813.813,0,0,0-.556-.536.52.52,0,0,1-.542-.518,9.719,9.719,0,0,1-.141-1.587c.014-.612.054-1.207.851-1.455.331-.1.586-.556.8-.9a4.778,4.778,0,0,0,.713-2.179,1.871,1.871,0,0,1,.907-1.433,2.962,2.962,0,0,0,1.238-1.873,2.425,2.425,0,0,1,1.34-1.85,1.016,1.016,0,0,0,.4-.438q.768-1.291,1.5-2.6a1.459,1.459,0,0,1,1.37-.744,2.157,2.157,0,0,0,1.943-1.031,10.124,10.124,0,0,1,1.459-1.395c.538-.526,1.072-1.059,1.573-1.619a.77.77,0,0,0,.016-1.075,2,2,0,0,1-.063-2.7,3.145,3.145,0,0,0,.434-.792,9.594,9.594,0,0,1,1.972-3.064,2.108,2.108,0,0,1,1.52-.771,2.979,2.979,0,0,0,2.625-2.5,19.474,19.474,0,0,1,.528-2c.116-.393,1.037-.5,1.453-.19.467.353.922.723,1.4,1.064a.826.826,0,0,0,1.094.035.6.6,0,0,1,.367-.118c1.092.046,2.188.067,3.274.175.762.075.966,0,1.337-.663a1.828,1.828,0,0,1,1.44-.892,4.052,4.052,0,0,0,2.2-.87,4.132,4.132,0,0,1,1.859-.6c1.022-.172,2.063-.23,3.093-.364a1.223,1.223,0,0,0,.671-.273,2.612,2.612,0,0,1,2.3-.476,4.024,4.024,0,0,1,1.014.378,1.755,1.755,0,0,0,1.684-.221c.487-.346.893-.637,1.45-.2a.138.138,0,0,0,.107.03c1.278-.465,2.709.244,3.968-.557a4.78,4.78,0,0,1,1.572-.474c.65-.137.861.052,1.012.8s.472.875,1.036.367c.227-.2.531-.521.723-.159a1.411,1.411,0,0,1-.085,1.078c-.119.26-.5.39-.728.61a.826.826,0,0,0,.21,1.459,1.058,1.058,0,0,1,.109,1.9c-.667.327-.855.931-1.152,1.471-.265.483.272,1.321.922,1.552.161.057.329.089.493.135.659.181.764.343.7.906.461.254.889.448,1.27.71a1.668,1.668,0,0,0,1.854-.011,1.114,1.114,0,0,1,1.221-.179c.965.419,1.918.871,2.849,1.362a1.2,1.2,0,0,1,.53.677,2.271,2.271,0,0,0,2.457,1.733c1.567-.185,2.719.733,3.95,1.451a4.283,4.283,0,0,0,.85.437,1.057,1.057,0,0,0,1.316-.34.188.188,0,0,1,.039-.041,1.728,1.728,0,0,0,.425-2.478c-.451-.857-.245-1.329.587-1.815.309-.181.583-.428.9-.589a5.65,5.65,0,0,1,3.607-.172.3.3,0,0,1,.154.068c1.027.994,2.417,1.242,3.661,1.794a1.559,1.559,0,0,1,.606.494.992.992,0,0,0,1.321.39,1.532,1.532,0,0,1,1.925.046,1.409,1.409,0,0,0,.9.267,6.377,6.377,0,0,1,2.819.9,4.674,4.674,0,0,0,1.076.283c.125.021.359-.057.4-.149.268-.663.9-.664,1.438-.845a.829.829,0,0,0,.347-.183,2.023,2.023,0,0,1,1.934-.536,2.611,2.611,0,0,1,1.8.957.64.64,0,0,0,.442.179c.567.025,1.136.019,1.7.021S4411.885,2247.69,4412.5,2247.69Z" transform="translate(-4311.924 -2233.101)" fill="#0557fa"/>
        <path id="Path_23" data-name="Path 23" d="M4839.8,2681.318c-.112-.217-.14-.359-.221-.406a1.18,1.18,0,0,0-.584-.213c-.1,0-.239.267-.261.427-.173,1.249-.3,2.5-.493,3.749a3.628,3.628,0,0,1-.451.923c-.072.146-.129.3-.2.447a13.48,13.48,0,0,0-.556,3.322,13.268,13.268,0,0,1-.524,1.6c-.1.292-.208.58-.276.878q-.335,1.456-.641,2.919c-.169.811-.3,1.63-.488,2.437a4.283,4.283,0,0,1-.367.662c-.069.155-.056.347-.119.506a3.182,3.182,0,0,1-.437.92c-.287.334-.695.562-1.013.874a1.31,1.31,0,0,1-1.158.527,1.3,1.3,0,0,0-.833.284,1.378,1.378,0,0,1-2.115-.323,1.955,1.955,0,0,0-.337-.377,3.14,3.14,0,0,1-1.145-3.378,1.322,1.322,0,0,0-.147-.956c-.666-.971-.478-2.111-.7-3.167-.03-.146.265-.364.417-.542.225-.264.465-.514.682-.784.186-.232.345-.485.518-.728.043-.061.12-.112.133-.178a6.582,6.582,0,0,0,.226-3.439c-.081-.253-.287-.5-.276-.744.065-1.5-.168-3.071.585-4.452a3.146,3.146,0,0,1,1.324-1.07,7.957,7.957,0,0,1,1.467-.4c.628-.185,1.421-.23,1.825-.646.43-.441.909-.841,1.306-1.294a3.2,3.2,0,0,0,.49-1.568,1.549,1.549,0,0,1,1.007-1.327.959.959,0,0,0,.664-1.2c-.112-.667.513-.7.831-.96.281-.227.487.11.643.351.328.509.675,1.005.982,1.526a1.464,1.464,0,0,1,.087,1.7c-.073.111.121.422.226.623.119.23.394.442.393.661-.007.806-.091,1.612-.171,2.416C4840.085,2681.037,4839.937,2681.14,4839.8,2681.318Z" transform="translate(-4708.381 -2572.306)" fill="#0557fa"/>
      </g>
      <g id="Group_11" data-name="Group 11" transform="translate(20.269 27.885)">
        <path id="Path_24" data-name="Path 24" d="M4510.016,2355.473l-5.518-.505c-.815-.167-28.05-5.483-41.442,19.706-2.5,4.654-4.568,8.893-6.49,12.833-.615,1.262-1.243,2.544-1.886,3.836l-3.024-.165c-.567-.124-20.742-3.408-34.835,9.481-9.4,8.659-13.48,17.424-16.733,25.285l8.261,1.229,5.444.557c.887.169,28.1,5.431,41.515-19.757,2.441-4.6,4.569-8.893,6.488-12.8l-.052-.037q.883-1.811,1.8-3.666l3.09-.006h0c.639.126,20.794,3.463,34.854-9.5,9.45-8.6,13.515-17.35,16.731-25.213Z" transform="translate(-4400.088 -2354.39)" fill="#fff"/>
        <path id="Path_25" data-name="Path 25" d="M4484.772,2603.451l5.031,7.771c-1.434.778-2.774,1.469-4.06,2.073l-3.454-6.8A34.6,34.6,0,0,1,4484.772,2603.451Z" transform="translate(-4463.391 -2546.191)"/>
        <path id="Path_26" data-name="Path 26" d="M4521.119,2582.195l-7.3-7.59c.367-.328.753-.709,1.155-1.036.6-.464,1.153-.947,1.7-1.412l8.147,6.83C4523.571,2580.18,4522.361,2581.215,4521.119,2582.195Z" transform="translate(-4487.669 -2522.091)"/>
        <path id="Path_27" data-name="Path 27" d="M4559.821,2551.559l-8.377-3.91a42.335,42.335,0,0,1,4.171-2.213l6.909,2.3C4561.645,2549.08,4560.731,2550.373,4559.821,2551.559Z" transform="translate(-4516.646 -2501.514)"/>
        <path id="Path_28" data-name="Path 28" d="M4408.349,2548.85l-8.261-1.229c3.253-7.862,7.335-16.626,16.733-25.285,14.093-12.889,34.268-9.606,34.835-9.482C4424.992,2516.478,4414.133,2535.158,4408.349,2548.85Z" transform="translate(-4400.088 -2476.066)" fill="#f9a51b"/>
        <path id="Path_29" data-name="Path 29" d="M4717.321,2458.011l8.376,3.946c-1.489.847-2.885,1.573-4.172,2.23l-6.908-2.313A37.534,37.534,0,0,1,4717.321,2458.011Z" transform="translate(-4642.306 -2434.188)"/>
        <path id="Path_30" data-name="Path 30" d="M4760.592,2424.23l-8.1-6.793c1.214-1.177,2.46-2.264,3.667-3.262l7.338,7.609a11.235,11.235,0,0,1-1.209,1.035A21.535,21.535,0,0,1,4760.592,2424.23Z" transform="translate(-4671.477 -2400.43)"/>
        <path id="Path_31" data-name="Path 31" d="M4804.26,2393.644l-4.979-7.717a43.852,43.852,0,0,1,4.008-2.128l3.506,6.851C4806.035,2391.592,4805.219,2392.6,4804.26,2393.644Z" transform="translate(-4707.505 -2377.038)"/>
        <path id="Path_32" data-name="Path 32" d="M4507.655,2395.14l.052.037c-1.919,3.9-4.047,8.194-6.488,12.8-13.41,25.188-40.628,19.926-41.515,19.757a45.839,45.839,0,0,0,27.717-15.479c6.578-7.476,11.043-16.515,15.056-24.746,1.921-3.94,3.994-8.178,6.49-12.833,13.392-25.189,40.626-19.873,41.442-19.706C4525.639,2359.114,4515.681,2378.677,4507.655,2395.14Z" transform="translate(-4445.998 -2354.39)"/>
        <path id="Path_33" data-name="Path 33" d="M4741.143,2360.384c-3.217,7.863-7.281,16.61-16.73,25.213-14.061,12.962-34.215,9.625-34.854,9.5,26.681-3.588,37.542-22.3,43.377-35.995Z" transform="translate(-4623.008 -2358.019)" fill="#f9a51b"/>
      </g>
    </g>
    <g transform="matrix(1, 0, 0, 1, 50, 5667)" filter="url(#Ellipse_15)">
      <ellipse id="Ellipse_15-2" data-name="Ellipse 15" cx="45" cy="45.5" rx="45" ry="45.5" transform="translate(122 259)" fill="#ff7051"/>
    </g>
    <text id="_3" data-name="3" transform="translate(207 5943)" font-size="37" font-family="MatrixIIOT-Bold, Matrix II OT" font-weight="700"><tspan x="0" y="36">3</tspan></text>
  </g>
</svg>
