<?xml version="1.0" encoding="utf-8"?>
<!-- Generator: Adobe Illustrator 25.1.0, SVG Export Plug-In . SVG Version: 6.00 Build 0)  -->
<svg version="1.1" id="Layer_1" xmlns="http://www.w3.org/2000/svg" xmlns:xlink="http://www.w3.org/1999/xlink" x="0px" y="0px"
	 viewBox="0 0 494.5 390" style="enable-background:new 0 0 494.5 390;" xml:space="preserve">
<style type="text/css">
	.st0{enable-background:new    ;}
	.st1{fill:#FFFFFF;}
	.st2{fill:#FF7051;}
</style>
<g class="st0">
	<path class="st1" d="M71.7,323.5V306h3.5v17.5c0,6.2,3,7.7,6.6,7.7c3.6,0,6.6-1.6,6.6-7.7V306h3.5v17.5c0,8-4.1,11-10.1,11
		C75.9,334.5,71.7,331.6,71.7,323.5z"/>
	<path class="st1" d="M97.5,331l2.5-2.1c1,1.1,2.8,2.4,5,2.4c2.2,0,3.8-0.8,3.8-2.6c0-2-2.3-3-4.7-3.9c-3.8-1.4-6.3-3-6.3-6.4
		s3-5.4,6.9-5.4c3.1,0,5.4,1.3,6.9,3.1l-2.4,2c-0.9-0.9-2.3-2-4.5-2c-2.1,0-3.4,0.8-3.4,2.3c0,1.7,2,2.5,4.3,3.4
		c3.7,1.3,6.6,2.9,6.6,6.8c0,3.7-2.8,5.8-7.3,5.8C101.9,334.5,99.1,333.1,97.5,331z"/>
	<path class="st1" d="M116.5,323.8c0-6.8,3.6-10.7,9.1-10.7c4.6,0,8.4,3,8.4,9.7c0,0.6,0,1.5-0.1,2.3H120c0.3,3.8,2.5,6.2,5.6,6.2
		c1.6,0,3.1-0.6,4.4-1.8l2.1,2.4c-1.5,1.5-3.8,2.6-6.6,2.6C119.9,334.5,116.5,330,116.5,323.8z M130.5,322.2c0-4.6-2.8-6-4.9-6
		c-3,0-5.4,1.8-5.6,6H130.5z"/>
	<path class="st1" d="M147.4,323.8c0-6.7,3.3-10.7,8.6-10.7c3.4,0,6,1.6,7.2,4.8l-3.3,1.2c-0.6-1.6-1.8-2.7-3.8-2.7
		c-3.5,0-5.1,2.9-5.1,7.5c0,4.6,1.7,7.4,5,7.4c2,0,3.6-1.1,4.2-3l3.2,1.1c-1,3.4-3.7,5.2-7.5,5.2
		C150.7,334.5,147.4,330.6,147.4,323.8z"/>
	<path class="st1" d="M167.4,323.8c0-6.7,3.6-10.7,9-10.7s9,3.9,9,10.7c0,6.7-3.6,10.7-9,10.7S167.4,330.6,167.4,323.8z
		 M181.9,323.8c0-4.6-2-7.5-5.5-7.5s-5.5,2.8-5.5,7.5c0,4.6,2,7.4,5.5,7.4C179.9,331.2,181.9,328.4,181.9,323.8z"/>
	<path class="st1" d="M189.7,323.8c0-6.7,3.4-10.7,8.4-10.7c2.4,0,4,0.9,5.2,1.9v-8.2l3.5-1.6V334h-3.5v-1.6
		c-1.2,1.2-2.7,2.1-5.2,2.1C192.9,334.5,189.7,330.4,189.7,323.8z M203.3,328.5v-9.6c-0.8-1.2-2.3-2.6-4.7-2.6
		c-3.4,0-5.4,2.7-5.4,7.5c0,4.2,2,7.5,5.4,7.5C200.5,331.2,202.3,330.2,203.3,328.5z"/>
	<path class="st1" d="M212.2,323.8c0-6.8,3.6-10.7,9.1-10.7c4.6,0,8.4,3,8.4,9.7c0,0.6,0,1.5-0.1,2.3h-13.8c0.3,3.8,2.5,6.2,5.6,6.2
		c1.6,0,3.1-0.6,4.4-1.8l2.1,2.4c-1.5,1.5-3.8,2.6-6.6,2.6C215.7,334.5,212.2,330,212.2,323.8z M226.2,322.2c0-4.6-2.8-6-4.9-6
		c-3,0-5.4,1.8-5.6,6H226.2z"/>
	<path class="st1" d="M233.3,317.4c0-1.4,1.2-2.8,2.8-2.8c1.6,0,2.8,1.3,2.8,2.8c0,1.4-1.2,2.7-2.8,2.7
		C234.5,320.1,233.3,318.8,233.3,317.4z M233.3,331.8c0-1.4,1.2-2.8,2.8-2.8c1.6,0,2.8,1.3,2.8,2.8c0,1.4-1.2,2.7-2.8,2.7
		C234.5,334.5,233.3,333.2,233.3,331.8z"/>
</g>
<g class="st0">
	<path class="st2" d="M253.4,306H265c7,0,9.4,4.4,9.4,8.7c0,4-2.7,8.7-9.4,8.7h-6.8V334h-4.8V306z M269.5,314.7
		c0-1.8-0.9-4.1-4.2-4.1h-7.1v8.3h7.1C268.3,318.8,269.5,316.6,269.5,314.7z"/>
	<path class="st2" d="M279,306h4.8v28H279V306z"/>
	<path class="st2" d="M289.8,320c0-6.9,3.3-14.5,12.3-14.5c9,0,12.3,7.6,12.3,14.5c0,6.9-3.2,14.5-12.3,14.5
		C293.1,334.5,289.8,326.9,289.8,320z M309.4,320c0-4.6-1.9-9.9-7.3-9.9c-5.4,0-7.3,5.6-7.3,9.9c0,4.6,1.9,9.9,7.3,9.9
		C307.5,329.9,309.4,324.3,309.4,320z"/>
	<path class="st2" d="M337.6,334L326,316.3c-0.4-0.6-0.8-1.4-1.2-2.1c0.1,0.6,0.1,1.4,0.1,2.1V334h-4.8v-28h4.6l11.3,17.4
		c0.4,0.6,0.8,1.4,1.2,2.1c-0.1-0.7-0.1-1.5-0.1-2.1V306h4.8v28H337.6z"/>
	<path class="st2" d="M348.7,306H367v4.5h-13.4v6.8h8.3v4.5h-8.3v7.7h14.3v4.5h-19.1V306z"/>
	<path class="st2" d="M373.3,306h18.2v4.5h-13.4v6.8h8.3v4.5h-8.3v7.7h14.3v4.5h-19.1V306z"/>
	<path class="st2" d="M397.8,306h12.4c7,0,9.2,4.1,9.2,8.5c0,3.2-1.8,6.8-5.8,8l5.6,11.5h-5.4l-5.4-11h-5.8v11h-4.8V306z
		 M410.3,318.5c3.1,0,4.2-1.9,4.2-4c0-1.9-0.9-4-4.2-4h-7.7v7.9H410.3z"/>
</g>
<g class="st0">
	<path class="st1" d="M155,377.1c-1.4,1.3-3.4,2.4-5.8,2.4c-4.2,0-7.1-2.3-7.1-6.9c0-4.7,3.7-6.8,7.6-6.8c1.8,0,3.6,0.4,5.3,1.3
		v-1.4c0-3.6-1.8-4.6-4.4-4.6c-2.3,0-4.4,1-6,2l-1-2.9c1.6-1.1,4.3-2.2,7.4-2.2c3.2,0,7.3,1.1,7.3,7.4V379H155V377.1z M155,373.7
		v-3.5c-1.2-0.8-3.1-1.4-4.8-1.4c-2.6,0-4.8,1.2-4.8,3.8c0,2.3,1.6,3.8,4.4,3.8C152,376.4,153.8,375.1,155,373.7z"/>
	<path class="st1" d="M165.5,374.6v-13h-3.3v-3h3.3v-6.8l3.5-1.7v8.4h5v3h-5v11.8c0,1.6,0.3,2.8,2.1,2.8c1.2,0,2.2-0.5,3-1.1
		l-0.4,3.4c-1.1,0.6-2.3,0.9-3.9,0.9C166.8,379.5,165.5,377.5,165.5,374.6z"/>
	<path class="st1" d="M187.5,368.8c0-6.7,3.3-10.7,8.6-10.7c3.4,0,6,1.6,7.2,4.8L200,364c-0.6-1.6-1.8-2.7-3.8-2.7
		c-3.5,0-5.1,2.9-5.1,7.5c0,4.6,1.7,7.4,5,7.4c2,0,3.6-1.1,4.2-3l3.2,1.1c-1,3.4-3.7,5.2-7.5,5.2
		C190.8,379.5,187.5,375.6,187.5,368.8z"/>
	<path class="st1" d="M208.7,351.7l3.5-1.6v10.6c1.3-1.8,3.1-2.6,5.3-2.6c4.6,0,7.3,2.6,7.3,9.2V379h-3.5v-12.4
		c0-3.9-1.9-5.4-4.4-5.4c-2.7,0-4.7,1.3-4.7,5.3V379h-3.5V351.7z"/>
	<path class="st1" d="M230,368.8c0-6.8,3.6-10.7,9.1-10.7c4.6,0,8.4,3,8.4,9.7c0,0.6,0,1.5-0.1,2.3h-13.8c0.3,3.8,2.5,6.2,5.6,6.2
		c1.6,0,3.1-0.6,4.4-1.8l2.1,2.4c-1.5,1.5-3.8,2.6-6.6,2.6C233.5,379.5,230,375,230,368.8z M244,367.2c0-4.6-2.8-6-4.9-6
		c-3,0-5.4,1.8-5.6,6H244z"/>
	<path class="st1" d="M251.5,368.8c0-6.7,3.3-10.7,8.6-10.7c3.4,0,6,1.6,7.2,4.8L264,364c-0.6-1.6-1.8-2.7-3.8-2.7
		c-3.5,0-5.1,2.9-5.1,7.5c0,4.6,1.7,7.4,5,7.4c2,0,3.6-1.1,4.2-3l3.2,1.1c-1,3.4-3.7,5.2-7.5,5.2
		C254.8,379.5,251.5,375.6,251.5,368.8z"/>
	<path class="st1" d="M285.5,379l-6.3-12.4l-3,3.1v9.2h-3.5v-27.2l3.5-1.6v15.5l6.6-7h4.2l-5.4,5.6l7.7,14.9H285.5z"/>
	<path class="st1" d="M292.2,368.8c0-6.7,3.6-10.7,9-10.7c5.5,0,9,3.9,9,10.7c0,6.7-3.6,10.7-9,10.7
		C295.7,379.5,292.2,375.6,292.2,368.8z M306.7,368.8c0-4.6-2-7.5-5.5-7.5s-5.5,2.8-5.5,7.5c0,4.6,2,7.4,5.5,7.4
		C304.6,376.2,306.7,373.4,306.7,368.8z"/>
	<path class="st1" d="M328.1,377c-1.4,1.8-3,2.4-5.2,2.4c-4.8,0-7.4-2.6-7.4-9.1v-11.8h3.5v12.3c0,3.9,1.9,5.4,4.4,5.4
		c2.7,0,4.7-1.3,4.7-5.3v-12.4h3.5V379h-3.5V377z"/>
	<path class="st1" d="M339.4,374.6v-13h-3.3v-3h3.3v-6.8l3.5-1.7v8.4h5v3h-5v11.8c0,1.6,0.3,2.8,2.1,2.8c1.2,0,2.2-0.5,3-1.1
		l-0.4,3.4c-1.1,0.6-2.3,0.9-3.9,0.9C340.6,379.5,339.4,377.5,339.4,374.6z"/>
</g>
<g>
	<g class="st0">
		<path class="st1" d="M42,171.2c-2.2,0-4.6-0.2-6.9-0.6l-10.9-1.9l6.1-12l5.4,6.8c1.7,1.7,3.9,2.4,6.1,2.4c3.9,0,7.2-2.5,7.2-7
			c0-2.9-1.7-4.4-3.9-6l-10-7c-4.9-3.5-8.5-8.3-8.5-14.2c0-7.2,4.6-15.8,17.5-15.8c2.5,0,5,0.3,7.3,0.7l10.6,2l-6.1,11.3l-5.1-6.2
			c-1.3-1.2-2.7-2.1-4.9-2.1c-2.7,0-6,1.3-6,6c0,2,1.2,3.7,2.9,4.9l11,7.6c2.5,1.7,7.9,5.9,7.9,13C61.7,163.4,55.6,171.2,42,171.2z"
			/>
		<path class="st1" d="M88.2,170l6.7-6.8l-2-7.1H77.2l-2.5,7.1l6.7,6.8H60.9l6.9-6.9l16.5-46.2h10.2l16.9,46.2l6.9,6.9H88.2z
			 M85.8,132.1l-6.1,17.5H91L85.8,132.1z"/>
		<path class="st1" d="M155.1,123.8l-15,46.2h-10.2l-15.7-46.2l-6.9-6.9h29.9l-6.7,6.8l8.6,29.6l9-29.6l-6.7-6.8H162L155.1,123.8z"
			/>
		<path class="st1" d="M160.2,170l6.8-6.8v-39.4l-6.8-6.8h41.5v14.9l-8.3-8.3h-12.3v14.8h8.2l6.8-6.8v20.2l-6.8-6.8h-8.2v18.5h12.3
			l8.3-8.3V170H160.2z"/>
		<path class="st1" d="M248.1,131.7l10.1,2.7l-5.3,9.4l-4.5-4.5c-1.9-1.9-4-2.8-5.5-2.8c-2.5,0-3.6,1-3.6,2.6c0,1.1,1,1.9,2.1,2.5
			l9.7,5.7c4.4,2.4,6.9,5.7,6.9,10.9c0,6.2-3.8,11.8-13,12.7v12.2h-6.2v-12.4l-2.1-0.5l-10.9-2.7l6.1-10.3l5.3,5.3
			c1.4,1.4,3.3,2.9,5.4,2.9c2.6,0,3.8-1.6,3.8-3.5c0-1.1-0.9-2-2-2.7l-10-5.6c-3.8-2.1-6.7-5.9-6.7-10.3c0-7.4,5.2-11,11.1-12v-12.4
			h6.2v12.3C246.1,131.2,247.2,131.5,248.1,131.7z"/>
		<path class="st1" d="M267,156.2c8.8-1.9,12.7-6.9,12.7-12.4c0-3.9-2.8-5.9-6.2-5.9c-3.1,0-6.6,2-9.9,4.8l-2.5-4.4
			c4.6-4.1,11-7.3,17.6-7.3c9.4,0,15.3,4.9,15.3,11.5s-6.4,11.5-12.7,13.8c7,1.1,14.3,5.2,14.3,12.3c0,11.6-15.7,16.5-32.7,16.5
			h-1.4v-4.8h1.4c12.1,0,17.8-4,17.8-10.9c0-6.6-6.3-8.8-13.9-8.8V156.2z"/>
		<path class="st1" d="M322.6,171c-11.7,0-22-8.2-22-20c0-11.8,10.3-20,22-20c11.7,0,22,8.2,22,20C344.7,162.7,334.3,171,322.6,171z
			 M322.6,136.4c-6,0-6.1,8-6.1,14.5c0,6.5,0.1,14.5,6.1,14.5c6,0,6.1-8,6.1-14.5C328.7,144.4,328.6,136.4,322.6,136.4z"/>
		<path class="st1" d="M391.2,171c-11.7,0-22-8.2-22-20c0-11.8,10.3-20,22-20c11.7,0,22,8.2,22,20C413.3,162.7,402.9,171,391.2,171z
			 M391.2,136.4c-6,0-6.1,8-6.1,14.5c0,6.5,0.1,14.5,6.1,14.5c6,0,6.1-8,6.1-14.5C397.3,144.4,397.2,136.4,391.2,136.4z"/>
		<path class="st1" d="M446.4,170v-27.1c0-1.5-0.9-2.8-2.4-2.8c-1.2,0-2.5,1-3.8,2.3l-3.5,3.5v17.6l6.5,6.5h-27l6.5-6.5v-19.6
			l-6.3-6.3l20.4-6.7v8.8l3.2-3.2c3.5-3.5,7.1-5.6,11.5-5.6c4.3,0,9.1,3.1,9.1,8.8v23.8l6.4,6.5H446.4z"/>
	</g>
	<g class="st0">
		<path class="st1" d="M58.6,260v-4.7l-5.2,3.4c-2.3,1.5-4.3,2.2-7,2.2c-5.5,0-10.3-3.8-10.3-10.3c0-9.4,8.1-13,18.3-13h4.2v-6.8
			c0-2.5-1.6-4-4-4c-2.2,0-4.4,0.8-6.7,3.1l-8.4,8.4v-14.2c4.6-1.9,12.3-3.1,16.4-3.1c11.8,0,16.8,3.8,16.8,11.4v21.2l6.4,6.5H58.6z
			 M58.6,242h-2.3c-5.1,0-7.2,1.7-7.2,7.2c0,2.8,1.3,4,2.8,4c1,0,2-0.4,3.1-1.3l3.5-2.3V242z"/>
		<path class="st1" d="M109.5,260v-27.1c0-1.5-0.9-2.8-2.4-2.8c-1.2,0-2.5,1-3.8,2.3l-3.5,3.5v17.6l6.4,6.5h-27l6.4-6.5v-19.6
			l-6.3-6.3l20.4-6.7v8.8l3.2-3.2c3.5-3.5,7.1-5.6,11.5-5.6c4.3,0,9.1,3.1,9.1,8.8v23.8l6.5,6.5H109.5z"/>
		<path class="st1" d="M167.9,228.4l-17.5,40.3l6.4,6.4h-21.8l8.4-6.4l3.7-8.5l-14.5-31.7l-6.4-6.5h27.4l-6.4,6.4l7,15.7l6.8-15.7
			l-6.4-6.4h19.9L167.9,228.4z"/>
		<path class="st1" d="M211.7,227.8v26c3.4,0.6,5.5-0.5,7.9-2.8l3.4,3.4c-3.1,4.3-7.3,6.4-11.7,6.4c-8.5,0-13.7-4.4-13.7-12.8v-16.9
			h-6.8l20.9-20.9v11.7h10.9v5.8H211.7z"/>
		<path class="st1" d="M242.1,241.8v2.3c0,8.5,3.9,10.7,8,10.7c4.3,0,7.6-2,10.8-5.1l3.8,3.8c-5.2,5.1-11.3,7.4-18.1,7.4
			c-11.7,0-20.5-8.9-20.5-20c0-11.2,8.7-20,20.9-20c11,0,21,9.3,17.9,20.8H242.1z M242.1,235.9h8.5c1.8-2.8,0.8-9.1-3.6-9.1
			C243.8,226.8,242.1,229.7,242.1,235.9z"/>
		<path class="st1" d="M285.4,261c-2,0-4.3-0.3-6-0.8l-10.9-2.7l6.1-10.3l5.3,5.3c1.4,1.4,3.3,2.9,5.4,2.9c2.6,0,3.8-1.6,3.8-3.5
			c0-1.1-0.9-2-2-2.7l-10-5.6c-3.8-2.1-6.7-5.9-6.7-10.3c0-8.9,7.6-12.3,14.5-12.3c1.9,0,4,0.3,5.8,0.8l10.1,2.7l-5.3,9.4l-4.5-4.5
			c-1.9-1.9-4-2.8-5.5-2.8c-2.5,0-3.6,1-3.6,2.6c0,1.1,1,1.9,2.1,2.5l9.8,5.7c4.3,2.4,6.9,5.7,6.9,10.9
			C300.8,255,296.3,261,285.4,261z"/>
		<path class="st1" d="M322.5,227.8v26c3.4,0.6,5.5-0.5,7.9-2.8l3.4,3.4c-3.1,4.3-7.3,6.4-11.7,6.4c-8.5,0-13.7-4.4-13.7-12.8v-16.9
			h-6.8l20.9-20.9v11.7h10.9v5.8H322.5z"/>
		<path class="st1" d="M387.7,260v-5l-12.9-12.9v11.5l6.4,6.5h-27l6.4-6.5v-37.9l-6.3-6.3l20.4-6.3v37.6l13.5-13.5l-5.2-5.2h22.1
			l-17.2,17.2L409,260H387.7z"/>
		<path class="st1" d="M408.2,260l6.4-6.5v-19.6l-6.3-6.3l20.4-6.7v32.6l6.4,6.5H408.2z M421.4,218.4c-3.9,0-7-3.2-7-7
			c0-3.9,3.1-7,7-7s7,3.1,7,7C428.4,215.2,425.3,218.4,421.4,218.4z"/>
		<path class="st1" d="M455.5,227.8v26c3.4,0.6,5.5-0.5,8-2.8l3.4,3.4c-3.1,4.3-7.3,6.4-11.7,6.4c-8.5,0-13.7-4.4-13.7-12.8v-16.9
			h-6.8l20.9-20.9v11.7h10.9v5.8H455.5z"/>
	</g>
	<g class="st0">
		<path class="st1" d="M88,8h12.6v2.5h-10v6.4h6.6v2.5h-6.6V29H88V8z"/>
		<path class="st1" d="M110.8,8h12.5v2.5h-9.9v6.4h6.5v2.5h-6.5v7.1H124V29h-13.1V8z"/>
		<path class="st1" d="M142.2,8c5,0,6.5,2.8,6.5,5.5c0,1.9-1.1,3.5-3.1,4.4c2.4,0.8,3.8,2.6,3.8,5c0,2.8-1.7,6-6.8,6h-7.9V8H142.2z
			 M146.2,13.6c0-1.5-0.7-3.2-3.8-3.2h-5v6.5h4.3C144.7,16.9,146.2,15.6,146.2,13.6z M146.9,23.2c0-2-1-3.9-4.9-3.9h-4.6v7.3h5.6
			C146.1,26.6,146.9,24.8,146.9,23.2z"/>
		<path class="st1" d="M160.5,8h8.3c5,0,6.6,3,6.6,6c0,2.5-1.4,5.1-4.9,5.8L175,29H172l-4.3-9h-4.6v9h-2.6V8z M168.8,17.6
			c2.9,0,3.9-1.8,3.9-3.5c0-1.6-0.8-3.6-3.9-3.6h-5.7v7.1H168.8z"/>
		<path class="st1" d="M186,21.1V8h2.6v13.1c0,4.6,2.2,5.8,4.9,5.8c2.7,0,4.9-1.2,4.9-5.8V8h2.6v13.1c0,6-3.1,8.2-7.6,8.2
			C189.1,29.4,186,27.2,186,21.1z"/>
		<path class="st1" d="M223.2,23.9h-8.3l-1.8,5.1h-2.7l7.4-21h2.4l7.4,21H225L223.2,23.9z M219.7,13.8c-0.2-0.6-0.5-1.6-0.7-2.1
			c-0.1,0.5-0.5,1.5-0.7,2.1l-2.7,7.8h6.8L219.7,13.8z"/>
		<path class="st1" d="M237.6,8h8.3c5,0,6.6,3,6.6,6c0,2.5-1.4,5.1-4.9,5.8l4.5,9.2h-2.9l-4.3-9h-4.6v9h-2.6V8z M245.9,17.6
			c2.9,0,3.9-1.8,3.9-3.5c0-1.6-0.8-3.6-3.9-3.6h-5.7v7.1H245.9z"/>
		<path class="st1" d="M268.9,20.8L261.8,8h2.9l5.5,10.2L275.8,8h2.9l-7.1,12.7V29h-2.6V20.8z"/>
		<path class="st1" d="M299.8,23c0-2.6,1.5-4.6,3.6-5.5c-1.7-0.9-2.7-2.5-2.7-4.3c0-3,2.5-5.5,6.1-5.5c3.6,0,6.1,2.4,6.1,5.5
			c0,1.9-0.9,3.5-2.7,4.3c2.2,0.9,3.6,2.9,3.6,5.5c0,3.7-2.9,6.4-7.1,6.4C302.7,29.4,299.8,26.6,299.8,23z M311.2,22.8
			c0-2.2-1.8-4.2-4.4-4.2c-2.6,0-4.3,1.9-4.3,4.2c0,2.6,1.8,4.1,4.3,4.1C309.3,26.9,311.2,25.3,311.2,22.8z M310.3,13.3
			c0-2-1.5-3.2-3.5-3.2c-2,0-3.5,1.3-3.5,3.2c0,1.7,1.4,3.1,3.5,3.1C308.9,16.4,310.3,15.1,310.3,13.3z"/>
		<path class="st1" d="M324.5,18.8h7v2.5h-7V18.8z"/>
		<path class="st1" d="M344.7,12.3h-3.5v-1.8c2.1,0,3.6-0.6,4.2-2.5h1.9v21h-2.6V12.3z"/>
		<path class="st1" d="M368,23.8h-10.7v-1.6L368.2,8h2.5v13.4h3v2.3h-3V29H368V23.8z M368,11.7l-7.3,9.8h7.3V11.7z"/>
	</g>
</g>
</svg>
