<svg id="Layer_1" data-name="Layer 1" xmlns="http://www.w3.org/2000/svg" viewBox="0 0 193.7 54.82"><defs><style>.cls-1{fill:#fff;}</style></defs><path class="cls-1" d="M130,26.45c.06-.2.14-.39.21-.59a14,14,0,0,0,7.88-5.46,12.23,12.23,0,0,0,2.19-5.15c.35-2.32-1.15-5.21-3.49-5.9-2.05-.61-3.36,1.89-4.37,3.28a36.26,36.26,0,0,0-3.33,5.55,39,39,0,0,0-1.74,4.17l-.6.13c-.42.06-.53.42-.45.89A34.7,34.7,0,0,1,121.93,28a29.44,29.44,0,0,1-2.54,2l-.58.39.31-.9c.13-.14.27-.27.39-.41a1.14,1.14,0,0,0,.16-1.15l.33-.93c.4-1.15.82-2.3,1.25-3.44A12.84,12.84,0,0,0,122.38,20a3.08,3.08,0,0,0-1-2c-.29-.3-1.1-1-1.54-.63a7.33,7.33,0,0,0-1.47,2.92c-.42,1-.82,2.09-1.22,3.14s-.68,1.89-1,2.83a42.59,42.59,0,0,1-3.72,3.39c-.49.39-1,.75-1.51,1.12.21-.5.43-1,.64-1.49a23.7,23.7,0,0,0,1.83-5.5,5,5,0,0,0-2.81-5.29,7.06,7.06,0,0,0-3.13-.37,8.13,8.13,0,0,1-1.56,0l-.29-.07a5.43,5.43,0,0,0-1.12-1c-.39-.27-1-.72-1.43-.24s0,1.32.26,1.76a6.52,6.52,0,0,0,.53.87,3.81,3.81,0,0,1-.07.67,10.14,10.14,0,0,1-.59,1.79,16.73,16.73,0,0,1-1.81,3.39,13.39,13.39,0,0,1-3.3,3.46q.24-.44.45-.9a9.36,9.36,0,0,0,.89-3.6,5.93,5.93,0,0,0-2.66-4.72A4.31,4.31,0,0,0,93,18.93a12.11,12.11,0,0,0-3.36,1.8c-.4.29-.77.6-1.15.91a25.35,25.35,0,0,1,3.26-5.58c1-1.22-1.88-4.46-2.62-3.52-3.62,4.57-5.12,10-6.54,15.54-.56-.51-1.17-.79-1.6-.48L77.63,30l-1,.75c0-.29.07-.58.12-.88.21-1.33.49-2.65.78-4,.16-.71.32-1.43.49-2.15,1.6-.21,3.22-.39,4.83-.54,1.44-.12-.69-3.88-2.12-3.75-.62.05-1.23.12-1.85.19a34.74,34.74,0,0,0,.71-8.75c0-.83-2.07-4.3-3-2.77-2.76,4.44-5.59,8.94-8.76,13.14q-6.49,1.24-12.86,3.14c-1.53.46.83,4.13,2.12,3.74q3.26-1,6.55-1.76A50,50,0,0,1,53.67,35c-1.14.74,1.4,4.32,2.63,3.52a56.62,56.62,0,0,0,14-13.6q2-.36,3.9-.66c-.22,1.05-.43,2.09-.6,3.15-.44,2.68-.94,6.54,2.37,7.73,1.23.44,2.31-.21,3.3-.91l2-1.47a36.65,36.65,0,0,1-4.59,10.82c-.75,1.11,2.1,4.49,3,3.13,2.63-3.92,3.93-8.4,5.08-13a2.14,2.14,0,0,0,.92.5,11.62,11.62,0,0,0,9.47-2.21,2.78,2.78,0,0,0,.72.52c3.91,1.68,7.19-2.07,9-5.13a12.24,12.24,0,0,0,1.9-5.82l.18.07a9.35,9.35,0,0,0,2.53.16l.51,0a14.93,14.93,0,0,1-.37,1.5c-.25.72-.54,1.42-.84,2.11A45.18,45.18,0,0,0,107,30.23c-.52,1.77-.62,3.22.65,4.73,1,1.25,2.27,1.7,3.73.89a27.12,27.12,0,0,0,4.72-3.4,4.3,4.3,0,0,0,3.29,2.21c1.86.07,3.65-1.72,4.94-2.84.6-.52,1.16-1.06,1.71-1.61a5.31,5.31,0,0,0,.3.81,5.68,5.68,0,0,0,3,3,3.56,3.56,0,0,0,3.21-.66,22.64,22.64,0,0,0,5.55-5.1c.95-1.21-1.86-4.52-2.65-3.56a26.55,26.55,0,0,1-3.39,3.48c-.6.5-1.22,1-1.87,1.42a8.77,8.77,0,0,1-.92.57l-.18.07c.08-.63.18-1.29.21-1.39Q129.59,27.65,130,26.45ZM75.14,20.1l-1.47.2c.7-1,1.4-2.09,2.08-3.15C75.57,18.14,75.36,19.12,75.14,20.1Zm20.23,5a10.24,10.24,0,0,1-4.1,4.35,10.06,10.06,0,0,1-5.66,1.28c0-.17.08-.34.13-.51.4.18.77.17,1-.19a17.61,17.61,0,0,1,4.06-4.71,21.19,21.19,0,0,1,2.6-1.81,5.87,5.87,0,0,1,2.87-1.06A9.19,9.19,0,0,1,95.37,25.12Zm41.46-11.34.09-.11c-.09.35-.17.65-.2.74a12.35,12.35,0,0,1-2.11,3.52A15.12,15.12,0,0,1,133,19.57,38.24,38.24,0,0,1,136.83,13.78Z"/><path class="cls-1" d="M124.4,11a4.25,4.25,0,0,0-.92-1.41,2.55,2.55,0,0,0-1.15-.77c-.26,0-.67-.06-.75.29a28.38,28.38,0,0,1-1.51,4.68,1.84,1.84,0,0,0,.12,1.18,4.6,4.6,0,0,0,.94,1.44,2.63,2.63,0,0,0,1.17.78c.3.06.63.05.77-.29a30.16,30.16,0,0,0,1.45-4.74A1.86,1.86,0,0,0,124.4,11Z"/></svg>