<svg xmlns="http://www.w3.org/2000/svg" width="129.234" height="40.798" viewBox="0 0 129.234 40.798"><defs><style>.a{fill:#877b8d;}</style></defs><path class="a" d="M169.3,192.4H120.316c-4.461,0-7.154.607-9.357,1.952a17.108,17.108,0,0,0-4.891,4.712,20.049,20.049,0,0,0-2.246,4.079V203.1c0-5.327-3.424-9.6-8.254-10.335a40.487,40.487,0,0,0-5.012-.364H67.5V233.19H90.065c5.866,0,8.438-.679,10.639-2.693,2.02-1.834,3.056-4.712,3.056-8.071,0-.1,0-.179-.008-.272,1.684,4.78,4.671,8.241,8.559,9.627,2.749.976,6.3,1.412,11.37,1.412h9.379V222.71h-6.769c-8.14-.018-10.808.721-12.23-5.216h19v-9.208l-19.016-.013a6.634,6.634,0,0,1,6.588-5.385h18.73V233.2h11.822V202.882h14.861ZM77.509,202.91H90.292c3.164,0,3.006,2.652,3.006,2.652,0,2.773-3.018,2.656-3.018,2.656H77.509Zm15.806,17.167c0,2.774-3.012,2.663-3.012,2.663H77.534v-5.315H90.315c3.158,0,3,2.652,3,2.652m4.576-7.253a9.471,9.471,0,0,0,4.569-4.365,31.3,31.3,0,0,0-.241,4,33.177,33.177,0,0,0,.307,4.562,9.5,9.5,0,0,0-4.634-4.193" transform="translate(-67.5 -192.4)"/><path class="a" d="M354.552,208.277H338.2l-5.02-15.812-5.019,15.812H311.816l13.245,9.473-5.087,15.408L333.18,223.6l13.2,9.559-5.087-15.408ZM333.2,218.819l-5.748,4.165,2.212-6.713-5.77-4.126h7.116l2.184-7.107,2.192,7.107H342.5l-5.77,4.126,2.217,6.713Z" transform="translate(-225.318 -192.44)"/></svg>