<svg id="BLACKENTERPRISE" xmlns="http://www.w3.org/2000/svg" width="185.684" height="45.807" viewBox="0 0 185.684 45.807">
  <path id="Path_413" data-name="Path 413" d="M271.464,332.35h-6.6l-7.116,9.6v-9.6h-5.841v20.709h5.841v-9.595l7.113,9.593h6.585l-7.9-10.35Z" transform="translate(-176.178 -331.938)"/>
  <path id="Path_414" data-name="Path 414" d="M72.034,431.251h5.781V419.892l9,11.358h5.117V410.542H86.153v10.946l-8.67-10.946h-5.45Z" transform="translate(-52.35 -385.765)"/>
  <path id="Path_415" data-name="Path 415" d="M146.751,431.251h5.841V415.57h6.324v-5.028H140.43v5.028h6.321Z" transform="translate(-99.434 -385.765)"/>
  <g id="Group_46" data-name="Group 46" transform="translate(0 0.41)">
    <path id="Path_416" data-name="Path 416" d="M22.634,346.542c0,1.214-1.025,1.895-2.8,1.895H15.744v-3.814h4.028c1.957,0,2.861.738,2.861,1.859Zm-6.89-9.585h3.364c1.747,0,2.652.655,2.652,1.775v.061c0,1.211-.993,1.8-2.77,1.8H15.744Zm8.544,5.266a4.8,4.8,0,0,0,3.253-4.611v-.063a4.5,4.5,0,0,0-1.356-3.341c-1.233-1.211-3.1-1.864-5.748-1.864H8.864v4.618l1.191.161v11.149l-1.191.165v4.613H20.5c5.028,0,7.978-2.158,7.978-5.708v-.058c0-2.812-1.624-4.229-4.185-5.061" transform="translate(-8.864 -332.343)"/>
  </g>
  <path id="Path_417" data-name="Path 417" d="M26.509,426.377H15.835v-3.283h8.621v-4.529H15.835v-3.134h9.679l1.64-4.881-15.271,0v0H8.864v4.616l1.191.165v11.146l-1.191.166v4.618h3.02v0l14.625,0Z" transform="translate(-8.864 -385.77)"/>
  <path id="Path_418" data-name="Path 418" d="M76.3,353.066H88.53l1.713-5.03H82.137V332.357H76.3Z" transform="translate(-55.284 -331.943)"/>
  <g id="Group_47" data-name="Group 47" transform="translate(56.119 0)">
    <path id="Path_419" data-name="Path 419" d="M199.833,352.562c4.667,0,7.435-.27,7.435-.27l-1.666-4.96s-3.39,0-5.587,0c-2.952,0-5.03-2.428-5.03-5.534v-.058c0-3.019,2.079-5.473,5.03-5.473,2.015,0,5.594.009,5.594.009l1.647-4.849a57.876,57.876,0,0,0-7.184-.4A10.734,10.734,0,0,0,188.966,341.8v.061a10.606,10.606,0,0,0,10.867,10.706" transform="translate(-188.966 -331.026)"/>
    <path id="Path_420" data-name="Path 420" d="M273.306,420.482v-4.972h3.823c1.957,0,3.162.832,3.162,2.458v.058c0,1.509-1.144,2.456-3.132,2.456Zm-5.841,10.769h5.841v-6.272h2.561l4.243,6.272h6.743l-5.026-7.22a6.548,6.548,0,0,0,4.334-6.358v-.059a6.358,6.358,0,0,0-1.866-4.823c-1.415-1.419-3.642-2.248-6.864-2.248h-9.965Z" transform="translate(-243.005 -385.765)"/>
    <path id="Path_421" data-name="Path 421" d="M339.421,420.836v-5.473h2.74c2.109,0,3.374.948,3.374,2.721v.06c0,1.627-1.265,2.691-3.343,2.691Zm-5.841,10.415h5.841v-5.918h2.889c5.24,0,9.063-2.575,9.063-7.453v-.058c0-4.585-3.432-7.279-8.76-7.279H333.58Z" transform="translate(-288.519 -385.765)"/>
    <path id="Path_422" data-name="Path 422" d="M401.822,420.482v-4.972h3.823c1.957,0,3.162.832,3.162,2.458v.058c0,1.509-1.144,2.456-3.132,2.456Zm-5.842,10.769h5.842v-6.272h2.56l4.243,6.272h6.745l-5.028-7.22a6.548,6.548,0,0,0,4.334-6.358v-.059a6.365,6.365,0,0,0-1.864-4.823c-1.417-1.419-3.644-2.248-6.867-2.248H395.98Z" transform="translate(-331.475 -385.765)"/>
  </g>
  <rect id="Rectangle_281" data-name="Rectangle 281" width="5.869" height="20.709" transform="translate(141.192 24.777)"/>
  <path id="Path_423" data-name="Path 423" d="M221.865,426.377H211.192v-3.283h8.621v-4.529h-8.621v-3.134h9.679l1.64-4.881-15.271,0v0h-3.02v4.616l1.191.165v11.146l-1.191.166v4.618h3.02v0l14.625,0Z" transform="translate(-143.348 -385.77)"/>
  <path id="Path_424" data-name="Path 424" d="M563.722,426.377H553.047v-3.283h8.621v-4.529h-8.621v-3.134h9.679l1.64-4.881-15.268,0v0h-3.022v4.616l1.191.165v11.146l-1.191.166v4.618H549.1v0l14.625,0Z" transform="translate(-378.681 -385.77)"/>
  <g id="Group_48" data-name="Group 48" transform="translate(148.603 24.388)">
    <path id="Path_425" data-name="Path 425" d="M494.933,430.713c5.116,0,8.518-2.516,8.518-6.745v-.061c0-3.875-3.011-5.413-7.859-6.447-2.917-.65-3.642-1.065-3.642-2.013v-.058c0-.741.692-1.331,2.106-1.331,1.869,0,7.318.216,7.318.216l1.564-4.611s-5.147-.37-8.731-.37c-5.056,0-8.159,2.779-8.159,6.626v.063c0,4.257,3.462,5.5,7.948,6.505,2.863.652,3.553,1.123,3.553,1.983v.06c0,.888-.841,1.419-2.407,1.419-2.439,0-7.878-.2-7.878-.2l-1.5,4.618s5.429.34,9.164.34" transform="translate(-485.769 -409.294)"/>
  </g>
  <path id="Path_426" data-name="Path 426" d="M136.158,332.357h-8.842l-6.978,20.716h5.848l1.156-3.7h8.794l1.155,3.7h5.848Zm-7.372,12.386,2.547-8.15h.809l2.547,8.15Z" transform="translate(-85.603 -331.942)"/>
</svg>
