<svg id="BUZZFEED" xmlns="http://www.w3.org/2000/svg" width="239.488" height="42.411" viewBox="0 0 239.488 42.411">
  <path id="Path_107" data-name="Path 107" d="M67.5,217.706c6.742.009,13.487-.093,20.225.062a10.319,10.319,0,0,1,10.141,8.467c.991,5.455-1.839,10.114-6.206,11.364a1.544,1.544,0,0,0-.35.239,9.6,9.6,0,0,1,7.347,8.074c1.153,6.81-2.6,12.406-9.7,13.2a45.3,45.3,0,0,1-4.76.179c-5.565.03-11.131.028-16.7.039Zm8.963,33.676a1.224,1.224,0,0,0,.346.114c2.794,0,5.593.1,8.38-.029,2.884-.137,4.6-1.909,4.676-4.522a4.52,4.52,0,0,0-4.332-4.857,51.519,51.519,0,0,0-5.417-.141c-1.2-.017-2.395,0-3.653,0ZM76.4,234.2c2.6,0,5.077,0,7.55,0a7.414,7.414,0,0,0,1.425-.091,4.081,4.081,0,0,0,3.518-3.065,4.311,4.311,0,0,0-4.122-5.557c-1.4-.069-2.8-.019-4.2-.02-1.356,0-2.714,0-4.113,0-.028.3-.059.484-.059.667C76.4,228.763,76.4,231.4,76.4,234.2Z" transform="translate(-67.5 -217.681)"/>
  <path id="Path_108" data-name="Path 108" d="M304.741,265.69c-1.054-.2-2.119-.346-3.16-.6-8.152-1.953-12.306-8.97-11.593-16.722.6-6.492,3.869-11.238,10.1-13.434,8.7-3.067,18.793,1.074,20.282,12.652.2,1.53.187,3.086.28,4.767H298.18a7.373,7.373,0,0,0,4.468,5.917c4.076,1.729,7.894.867,11.494-1.449.213-.137.409-.3.616-.447.02-.014.06,0,.2,0l3.516,5.177c-1.159.723-2.228,1.506-3.4,2.094a18.554,18.554,0,0,1-6.859,1.852,5.362,5.362,0,0,0-.809.192Zm8.154-18.812c.157-3.738-3.4-6.593-7.914-6.415-3.751.148-7.086,3.325-6.685,6.415Z" transform="translate(-143.98 -223.279)"/>
  <path id="Path_109" data-name="Path 109" d="M353.938,265.684c-1.3-.261-2.615-.445-3.887-.8a14.72,14.72,0,0,1-10.818-13.092c-.52-5.923,1.2-10.942,5.951-14.679,7.2-5.662,21.364-4.378,24.177,9.019a20.469,20.469,0,0,1,.381,2.924c.064,1.04.014,2.088.014,3.291H347.431a6.865,6.865,0,0,0,1.923,4.134c2.47,2.548,5.551,3.028,8.88,2.444a11.871,11.871,0,0,0,5.844-2.689l3.594,5.269c-.936.626-1.783,1.288-2.714,1.8a19,19,0,0,1-7.443,2.18,7.409,7.409,0,0,0-.9.2Zm-6.453-18.817H362.1c.188-3.623-3.289-6.5-7.659-6.416C350.562,240.526,347.205,243.593,347.485,246.867Z" transform="translate(-160.91 -223.273)"/>
  <path id="Path_110" data-name="Path 110" d="M130.066,266.15c-.955-.2-1.917-.365-2.864-.591a11.534,11.534,0,0,1-9.344-11.834q-.007-8.686,0-17.37v-1.038h7.935v1.106c0,5.472.016,10.944-.007,16.416-.01,2.482.749,4.584,3.1,5.664a7.165,7.165,0,0,0,7.517-.552c1.728-1.23,2.216-3.113,2.219-5.135q.016-8.161,0-16.321v-1.2h7.849v1.073q0,8.59,0,17.179c0,6.91-4.3,11.661-11.2,12.385a9.537,9.537,0,0,0-1.01.213Z" transform="translate(-84.816 -223.74)"/>
  <path id="Path_111" data-name="Path 111" d="M250.66,259.26v-41.5h28.865v4.026c0,.891-.06,1.787.016,2.671s-.278,1.051-1.088,1.047c-5.7-.033-11.39-.018-17.086-.018h-1.8v8.738h1.075c4.3,0,8.591.025,12.886-.02.868-.009,1.072.267,1.052,1.087-.054,2.186-.018,4.375-.018,6.671H259.5v17.3Z" transform="translate(-130.483 -217.709)"/>
  <path id="Path_112" data-name="Path 112" d="M388.865,265.164V236.211c0-1.219,0-1.23,1.26-1.218,4.355.04,8.728-.146,13.06.19,6.174.478,11.005,3.258,13.293,9.352,2.325,6.193.552,13.26-4.171,17.132a15.69,15.69,0,0,1-9.584,3.531c-4.479.162-8.967.051-13.451.054A2.45,2.45,0,0,1,388.865,265.164Zm7.568-6.369H400.8c5.124,0,8.351-2.89,8.925-7.988a8.31,8.31,0,0,0-4.722-8.6c-2.777-1.138-5.679-.533-8.572-.694Z" transform="translate(-178.008 -223.629)"/>
  <path id="Path_113" data-name="Path 113" d="M178.766,242.088H165.321v-6.809h24.306c0,1.285-.065,2.576.019,3.857a4.11,4.11,0,0,1-1.029,3.022c-4.042,5.031-8.021,10.112-12.021,15.177-.215.272-.419.551-.753.993h13.945v6.941H165.247c0-1.9-.028-3.79.026-5.683.009-.325.336-.663.566-.957q6.155-7.839,12.322-15.668C178.332,242.743,178.478,242.5,178.766,242.088Z" transform="translate(-101.11 -223.733)"/>
  <path id="Path_114" data-name="Path 114" d="M205.964,242.1c0-2.149,0-4.119,0-6.089,0-.217.037-.434.062-.716H230.26c0,1.831.02,3.632-.021,5.433-.007.271-.274.557-.466.8q-6.258,7.942-12.527,15.876c-.206.261-.39.541-.711.987h1.216c3.944,0,7.889.016,11.833-.014.733-.006,1.007.174.985.955-.054,1.964-.018,3.931-.018,5.956H205.987c0-1.962-.016-3.891.02-5.819,0-.241.258-.494.431-.714q6.009-7.652,12.028-15.3c.306-.39.606-.785,1.049-1.359Z" transform="translate(-115.113 -223.739)"/>
</svg>
