<?xml version="1.0" encoding="utf-8"?>
<!-- Generator: Adobe Illustrator 24.2.1, SVG Export Plug-In . SVG Version: 6.00 Build 0)  -->
<svg version="1.1" id="Layer_1" xmlns="http://www.w3.org/2000/svg" xmlns:xlink="http://www.w3.org/1999/xlink" x="0px" y="0px"
	 viewBox="0 0 106.8 54.8" style="enable-background:new 0 0 106.8 54.8;" xml:space="preserve">
<path d="M98.4,11.3c-1.1-1.4-2.8-2.2-4.6-2.1c-1.5,0.2-2.9,0.7-4.2,1.5c-1.6,0.9-3.1,2.1-4.4,3.6c-1.2,1.4-2.8,3.3-2.8,5.2
	c0,0.8,1.3,2.4,2.2,1.8c0.7-0.6,1.3-1.3,1.7-2.1c0.5-0.7,1.1-1.4,1.7-2c1.3-1.4,2.8-2.5,4.4-3.4c0.7-0.4,1.5-0.7,2.3-1
	c0.3-0.1,0.7-0.2,1-0.2h0.2l0,0c-0.1,0.5-0.3,1-0.5,1.5c-0.4,1-0.9,1.9-1.4,2.7c-1.1,1.6-2.5,3.1-3.9,4.4c-1.5,1.5-3,3-4.5,4.4
	s-3.3,3-5,4.6c-0.8,0.8-1.7,1.5-2.5,2.3l-0.2,0.2c-0.6,0.2-1.2,0.5-1.7,0.8c-0.7,0.4-1.2,1-1.4,1.7c-0.7,0.5,1.3,2.3,2,2.2
	c1.5-0.3,2.9-0.7,4.4-1.2c1.4-0.4,2.9-0.7,4.4-0.8c2.8-0.1,5.6,0.5,8.1,1.8c0.7,0.4,2,0.6,1.9-0.6s-1.3-2.4-2.3-2.9
	c-2.9-1.6-6.2-2.4-9.6-2.3c1.2-0.9,2.3-1.9,3.5-2.9c3-2.6,6.3-5,8.9-8c1.3-1.2,2.4-2.7,3.3-4.2C100.1,14.8,99.8,12.7,98.4,11.3z"/>
<path d="M67.7,28.9c-1.5,0.5-3.1,1.1-4.5,1.7c0.6-1.4,1.2-2.9,1.8-4.3c1.1-2.7,2.6-5.4,3.2-8.2c0.2-0.7-1.3-1.7-1.7-1.4l0,0
	c-1.4,1.1-2.5,2.5-3.3,4.1c-0.8,0.9-1.6,1.8-2.4,2.6c-1.9,2-4,4-6.1,5.8c-0.3,0.3-0.6,0.5-1,0.8c0.4-1.2,0.9-2.4,1.3-3.5
	c1.1-2.8,2.5-5.5,3.4-8.3c0.2-0.7-1.5-2.4-2.1-1.8c-1.8,2.2-3.3,4.8-4.4,7.5c-0.5-0.4-1.1-0.6-1.4-0.2c-1,1.2-2.1,2.3-3.2,3.4
	c-0.9,0.9-1.9,1.7-3,2.4c0.3-0.7,0.6-1.4,0.9-2c0.7-1.6,1.4-3.2,2.1-4.8c0.3-0.7-1.7-2.6-2.3-1.9c-1.7,2.3-3.8,4.4-6.1,6.2
	c-1.2,0.9-2.5,1.5-3.8,2c0.7-2.7,2.2-5.2,4.3-7.1c1-1.1,2.2-1.9,3.5-2.5c0.6-0.3,1.3-0.5,2-0.5c0.3,0,0.6,0,0.9,0
	c0.4,0,0.2,0.1,0.2,0.1c0.1,0.5,0.5,1,1,1.2c0.3,0.2,0.8,0.3,0.8-0.2c-0.1-3.2-4.3-4.9-7-4.1c-2.9,0.8-5.5,3.4-7.1,5.9
	c-1.5,2.3-3.5,6.3-1.5,8.9c1,1.4,2.6,2.1,4.3,1.9c1.4-0.4,2.6-1.1,3.7-2c0.4-0.3,0.7-0.6,1.1-0.9c0,0.1,0,0.1,0,0.2
	c0.4,1,1.2,1.8,2.2,2.2c1.9,0.9,3.6,0,5-1.3c0.6-0.5,1.1-1,1.7-1.6c0,0.4,0.1,0.8,0.2,1.2c0.6,1.5,2,2.5,3.6,2.7
	c1.4,0.1,2.4-0.9,3.3-1.9c0.6-0.6,1.2-1.2,1.8-1.9c-0.5,1.3-1.1,2.5-1.6,3.8c-0.1,0.1-0.1,0.2-0.1,0.3c-0.9,0.5-1.8,1.1-2.7,1.7
	c-3.8,2.6-7.6,5.9-9.6,10.1c-1,2.1,1.1,3.6,3,3.7c2.3,0,4.6-0.9,6.2-2.7c3.2-3.1,5.2-7.4,7-11.5c2.7-1.4,5.6-2.5,8.6-3.2
	C71,31.4,68.8,28.5,67.7,28.9z M53.2,41.7c-0.8,1.3-1.7,2.4-2.8,3.3c-0.6,0.5-1.3,0.9-2,1.2c-0.3,0.1-0.5,0.2-0.8,0.2
	c0.9-1.5,2-2.9,3.3-4.1c1.2-1.2,2.5-2.3,3.9-3.3C54.2,40,53.7,40.8,53.2,41.7z"/>
<path d="M31.5,11.1c-1.6-4.6-6.8-6.3-11.2-4.7c-5.1,2-9.6,5.7-13.2,9.8c-1.1,1.2,2.5,4.5,3.6,3.4c2.5-2.9,5.4-5.4,8.6-7.6
	c1.6-1.3,3.4-2.2,5.3-2.9c1.3-0.4,3.5-0.9,4.3,0.6s0.5,3.4,0.2,4.9c-0.5,1.9-1.2,3.7-2.1,5.4c-1.8,3.3-4.2,6.2-7,8.6
	c-1.4,1.2-3,2.3-4.8,3c1.1-4.8,2.5-9.6,5.3-13.7c0.7-1.1-2.1-3.6-2.8-2.6c-3.4,4.9-4.7,10.7-5.9,16.5c0,0.2,0,0.5,0.1,0.7
	c-0.3,0-0.5,0-0.8,0c-0.1,0-0.3,0-0.4-0.1c-0.4-0.6-1.1-1.1-1.8-1.3c-0.6-0.1-1,0.3-0.7,1c0.9,2,2.9,3.4,5.1,3.6
	c2.1,0,4.2-0.5,6-1.7c3.9-2.3,7.2-5.6,9.5-9.6C31.3,20.5,33.1,15.5,31.5,11.1z"/>
<path d="M35.7,22.4c-0.4-0.4-0.9-0.7-1.5-0.7c-0.5,0.2-0.9,0.4-1.3,0.8c-0.3,0.2-0.7,0.5-1.1,0.7c-0.8,0.5-1.7,0.9-2.5,1.3
	c-1.8,0.8-3.5,2.1-5.5,1.8c-0.5-0.1-0.3,0.5-0.2,0.8c0.3,0.4,0.7,0.8,1.2,0.9c2.2,0.3,4.5,0,6.5-1c0.9-0.4,1.8-0.8,2.7-1.2
	c0.5-0.2,0.9-0.5,1.3-0.8s1-0.6,1.1-1.1S36,22.7,35.7,22.4z"/>
</svg>
