<svg id="Layer_1" data-name="Layer 1" xmlns="http://www.w3.org/2000/svg" viewBox="0 0 106.8 54.82"><path d="M94.28,10c-.27-.49-1.66-1.8-2.22-1.19v0a2.08,2.08,0,0,0-.4.66A15.18,15.18,0,0,1,90.18,11a24.4,24.4,0,0,1-1.82,1.7,10.17,10.17,0,0,1-4.43,2.23c-.77.17.79,1.92,1.51,1.81a11.12,11.12,0,0,0,4.69-1.92l.12-.09-.06.15c-.8,2.22-1.59,4.44-2.47,6.63a128.68,128.68,0,0,1-6,12.7c-.84,1.56,3.12,4.72,3.76,3.51A130.78,130.78,0,0,0,91.7,24.39c.9-2.26,1.76-4.54,2.47-6.87C94.93,15,95.63,12.49,94.28,10Z"/><path d="M72.41,28.91c-1.54.49-3,1.06-4.54,1.69.61-1.44,1.2-2.89,1.81-4.33,1.12-2.66,2.59-5.37,3.25-8.18.15-.67-1.33-1.73-1.67-1.4h0A12.67,12.67,0,0,0,68,20.81c-.81.88-1.62,1.75-2.44,2.62a79.51,79.51,0,0,1-6.11,5.79,6.9,6.9,0,0,1-1,.77c.38-1.19.9-2.35,1.34-3.51,1.08-2.8,2.45-5.48,3.44-8.31.23-.68-1.53-2.42-2.1-1.76a27.81,27.81,0,0,0-4.3,7.47c-.54-.39-1.11-.58-1.41-.25A38.42,38.42,0,0,1,52.07,27a18.81,18.81,0,0,1-3,2.4c.3-.69.63-1.36.94-2,.73-1.59,1.41-3.2,2.12-4.79.32-.73-1.7-2.61-2.26-1.9a30.91,30.91,0,0,1-6.08,6.17,14.63,14.63,0,0,1-3.83,2,14.9,14.9,0,0,1,4.33-7.07,11.81,11.81,0,0,1,3.53-2.54,6.79,6.79,0,0,1,2-.54,9.08,9.08,0,0,1,.91.05c.39,0,.19.07.19.07A2,2,0,0,0,52,20c.33.17.83.28.81-.24-.14-3.21-4.34-4.86-7.05-4.09-2.94.83-5.49,3.4-7.13,5.89-1.55,2.34-3.52,6.31-1.52,8.88a4.64,4.64,0,0,0,4.34,1.94,9.13,9.13,0,0,0,3.69-2c.37-.28.73-.59,1.09-.91a1.55,1.55,0,0,0,0,.21A3.94,3.94,0,0,0,48.35,32c1.87.93,3.61,0,5-1.27.58-.51,1.13-1,1.67-1.59a3.08,3.08,0,0,0,.22,1.18,4.49,4.49,0,0,0,3.56,2.73c1.4.07,2.42-.94,3.34-1.86.61-.61,1.21-1.23,1.81-1.86-.54,1.27-1.08,2.53-1.64,3.78a2.92,2.92,0,0,0-.14.31c-.93.54-1.85,1.12-2.73,1.74-3.77,2.6-7.62,5.92-9.63,10.12-1,2.06,1.12,3.57,3,3.69a8.3,8.3,0,0,0,6.18-2.65c3.18-3.13,5.17-7.41,7-11.48a41.34,41.34,0,0,1,8.59-3.23C75.73,31.36,73.57,28.54,72.41,28.91ZM57.9,41.67A13.74,13.74,0,0,1,55.1,45a7,7,0,0,1-2,1.18,8.3,8.3,0,0,1-.82.22,15.2,15.2,0,0,1,1-1.57,17.17,17.17,0,0,1,2.28-2.54,43.27,43.27,0,0,1,3.86-3.27C58.94,40,58.44,40.82,57.9,41.67Z"/><path d="M36.27,11.06c-1.66-4.6-6.81-6.31-11.16-4.65C20,8.38,15.54,12.08,12,16.18c-1.06,1.21,2.54,4.55,3.55,3.38a48.16,48.16,0,0,1,8.57-7.62,19.09,19.09,0,0,1,5.26-3c1.26-.41,3.54-.86,4.33.56s.52,3.37.18,4.88a21.33,21.33,0,0,1-2.1,5.37,31.12,31.12,0,0,1-7,8.65,18.21,18.21,0,0,1-4.76,3c1.11-4.79,2.55-9.61,5.33-13.71.73-1.08-2.13-3.58-2.78-2.64C19.1,20,17.84,25.83,16.64,31.6a1.08,1.08,0,0,0,.15.69,3.84,3.84,0,0,1-.76,0,1.63,1.63,0,0,1-.41-.1,3.17,3.17,0,0,0-1.79-1.3c-.65-.12-1,.31-.7,1a6.27,6.27,0,0,0,5.11,3.64,10.82,10.82,0,0,0,6-1.65,26.25,26.25,0,0,0,9.48-9.53C36,20.48,37.85,15.46,36.27,11.06Z"/><path d="M40.44,22.39A1.92,1.92,0,0,0,39,21.72a3.22,3.22,0,0,0-1.3.8c-.35.25-.72.48-1.09.7A26.32,26.32,0,0,1,34,24.49c-1.76.79-3.46,2.11-5.5,1.8-.49-.07-.33.53-.19.77a2,2,0,0,0,1.21.9A11.39,11.39,0,0,0,36,27c.92-.38,1.84-.78,2.72-1.25.45-.24.89-.5,1.31-.77s1-.56,1.1-1.12S40.77,22.7,40.44,22.39Z"/></svg>