<?xml version="1.0" encoding="utf-8"?>
<!-- Generator: Adobe Illustrator 24.2.1, SVG Export Plug-In . SVG Version: 6.00 Build 0)  -->
<svg version="1.1" id="Layer_1" xmlns="http://www.w3.org/2000/svg" xmlns:xlink="http://www.w3.org/1999/xlink" x="0px" y="0px"
	 viewBox="0 0 106.8 54.8" style="enable-background:new 0 0 106.8 54.8;" xml:space="preserve">
<path d="M96.8,9.6c-3.8,0.2-7.6,0.6-11.5,0.6c-0.5,0-1,0.3-0.8,0.9c0.2,1-0.5,2-0.9,3s-0.9,2-1.5,3c-1,1.7-2.1,3.4-3,5.2
	c-0.2,0.5,0.7,1.6,1.2,1.3c1.4-0.8,2.9-1.3,4.5-1.6c1.7-0.3,3.3-0.4,5-0.4c0.8,0,1.5,0.1,2.3,0.2l0,0c0,0.4,0,0.8-0.1,1.2
	c-0.2,0.7-0.6,1.4-1,2c-3.2,4.5-8.4,8.6-14.3,7.8c-1.2-0.2-0.8,1.3-0.5,1.9c0.6,1.1,1.7,1.9,3,2.2c3.8,0.5,7.6-0.5,10.6-2.9
	c1.5-1.1,2.8-2.3,3.9-3.8c1.3-1.3,2.2-2.9,2.6-4.6c0.6-4.2-3.3-7.5-7.3-7.8c-1.6-0.1-3.2,0.2-4.7,0.8l1.3-1.7
	c0.5-0.9,1.1-1.7,1.8-2.5c0.6-0.5,2.1-0.2,2.9-0.3s1.9-0.1,2.9-0.2c1.9-0.2,3.9-0.6,5.7-1.1C100.5,12.4,97.8,9.6,96.8,9.6z"/>
<path d="M68,28.9c-1.5,0.5-3,1.1-4.5,1.7c0.6-1.4,1.2-2.9,1.8-4.3c1.1-2.7,2.6-5.4,3.2-8.2c0.2-0.7-1.3-1.7-1.7-1.4l0,0
	c-1.4,1.1-2.5,2.5-3.3,4.1c-0.8,0.9-1.6,1.8-2.4,2.6c-1.9,2-4,4-6.1,5.8c-0.3,0.3-0.6,0.5-1,0.8c0.4-1.2,0.9-2.4,1.3-3.5
	c1.1-2.8,2.5-5.5,3.4-8.3c0.2-0.7-1.5-2.4-2.1-1.8c-1.8,2.3-3.3,4.8-4.3,7.5c-0.5-0.4-1.1-0.6-1.4-0.2c-1,1.2-2.2,2.3-3.4,3.4
	c-0.9,0.9-1.9,1.7-3,2.4c0.3-0.7,0.6-1.4,0.9-2c0.7-1.6,1.4-3.2,2.1-4.8c0.3-0.7-1.7-2.6-2.2-1.9c-1.7,2.3-3.8,4.4-6.1,6.2
	c-1.2,0.9-2.5,1.5-3.8,2c0.8-2.7,2.3-5.2,4.3-7.1c1-1.1,2.2-1.9,3.5-2.5c0.6-0.3,1.3-0.5,2-0.5c0.3,0,0.6,0,0.9,0
	c0.4,0,0.2,0.1,0.2,0.1c0.1,0.5,0.5,1,1,1.2c0.3,0.2,0.8,0.3,0.8-0.2c-0.2-3.2-4.3-4.9-7-4.1c-3,0.8-5.5,3.4-7.1,5.9
	c-1.5,2.3-3.5,6.3-1.5,8.9c1,1.4,2.7,2.1,4.4,1.9c1.4-0.4,2.6-1.1,3.7-2c0.4-0.3,0.7-0.6,1.1-0.9c0,0.1,0,0.1,0,0.2
	c0.4,1,1.1,1.8,2.1,2.3c1.9,0.9,3.6,0,5-1.3c0.6-0.5,1.1-1,1.7-1.6c0,0.4,0.1,0.8,0.2,1.2c0.6,1.5,2,2.5,3.6,2.7
	c1.4,0.1,2.4-0.9,3.3-1.9c0.6-0.6,1.2-1.2,1.8-1.9c-0.5,1.3-1.1,2.5-1.6,3.8c0,0.1-0.1,0.2-0.1,0.3c-0.9,0.5-1.8,1.1-2.7,1.7
	c-3.8,2.6-7.6,5.9-9.6,10.1c-1,2.1,1.1,3.6,3,3.7c2.3,0,4.6-0.9,6.2-2.7c3.2-3.1,5.2-7.4,7-11.5c2.7-1.4,5.6-2.5,8.6-3.2
	C71.3,31.4,69.1,28.5,68,28.9z M53.5,41.7c-0.8,1.3-1.7,2.4-2.8,3.3c-0.6,0.5-1.3,0.9-2,1.2c-0.3,0.1-0.5,0.2-0.8,0.2
	c0.3-0.5,0.6-1.1,1-1.6c0.7-0.9,1.4-1.8,2.3-2.5c1.2-1.1,2.5-2.2,3.9-3.2C54.5,40,54,40.8,53.5,41.7z"/>
<path d="M31.8,11.1C30.2,6.5,25,4.8,20.6,6.4c-5.1,2-9.6,5.7-13.2,9.8c-1.1,1.2,2.5,4.5,3.5,3.4c2.5-2.9,5.4-5.4,8.6-7.6
	c1.6-1.3,3.4-2.3,5.3-3c1.3-0.4,3.5-0.9,4.3,0.6s0.5,3.4,0.2,4.9c-0.5,1.9-1.2,3.7-2.1,5.4c-1.8,3.3-4.2,6.2-7,8.6
	c-1.4,1.2-3,2.3-4.8,3c1.1-4.8,2.6-9.6,5.3-13.7c0.7-1.1-2.1-3.6-2.8-2.6c-3.4,5-4.7,10.8-5.9,16.6c0,0.2,0,0.5,0.1,0.7
	c-0.3,0-0.5,0-0.8,0c-0.1,0-0.3-0.1-0.4-0.1c-0.4-0.6-1.1-1.1-1.8-1.3c-0.6-0.1-1,0.3-0.7,1c0.9,2,2.9,3.4,5.1,3.6
	c2.1,0.1,4.2-0.5,6-1.7c3.9-2.3,7.2-5.6,9.5-9.5C31.6,20.5,33.4,15.5,31.8,11.1z"/>
<path d="M36,22.4c-0.4-0.4-0.9-0.7-1.5-0.7c-0.5,0.1-0.9,0.5-1.3,0.8s-0.7,0.5-1.1,0.7c-0.8,0.5-1.7,0.9-2.5,1.3
	c-1.8,0.8-3.5,2.1-5.5,1.8c-0.5-0.1-0.3,0.5-0.2,0.8c0.3,0.5,0.7,0.8,1.2,0.9c2.2,0.3,4.5,0,6.5-1c0.9-0.4,1.8-0.8,2.7-1.2
	c0.4-0.2,0.9-0.5,1.3-0.8s1-0.6,1.1-1.1S36.3,22.7,36,22.4z"/>
</svg>
