<svg id="Layer_1" data-name="Layer 1" xmlns="http://www.w3.org/2000/svg" viewBox="0 0 106.8 54.82"><path d="M97.58,10.82a3.08,3.08,0,0,0-2.45-1.36c-3.66.32-7.24,2.62-9.72,5.23-2.83,3-4.26,6.61-5.28,10.54A27.84,27.84,0,0,0,79.27,31a6,6,0,0,0,1.35,4.34,4.44,4.44,0,0,0,4.83,1.52A17.67,17.67,0,0,0,90.14,34c3.26-2.53,5.26-6.76,6.07-10.72.32-1.53-1.83-3-3.08-3.32s-2.53.47-3.71,1.07a26.66,26.66,0,0,0-3.67,2.27c-.29.22-.57.44-.84.67A29.14,29.14,0,0,1,89.2,18.3,22.76,22.76,0,0,1,93.14,15a32.13,32.13,0,0,1,4.69-2.26C98.67,12.41,98,11.28,97.58,10.82ZM86.64,25.13a10.52,10.52,0,0,1,3.56-2,11.17,11.17,0,0,1,1.51-.32,26.82,26.82,0,0,1-3,6.14A31.71,31.71,0,0,1,86,32.7a5.82,5.82,0,0,1-1.76,1.48,4.61,4.61,0,0,1-1,.37,3.43,3.43,0,0,1-.56.08c-.16,0-.56-.12-.54,0-.57-.85-.08-2.88.13-3.71.16-.61.35-1.24.54-1.86A27.41,27.41,0,0,1,86.64,25.13Z"/><path d="M69.23,28.91c-1.53.49-3,1.06-4.53,1.69.6-1.44,1.2-2.89,1.81-4.33,1.11-2.66,2.59-5.37,3.24-8.18.16-.67-1.33-1.73-1.66-1.4h0a12.69,12.69,0,0,0-3.29,4.13c-.8.88-1.61,1.75-2.44,2.62a77.72,77.72,0,0,1-6.11,5.79,6.35,6.35,0,0,1-1,.77c.37-1.19.89-2.35,1.34-3.51C57.64,23.68,59,21,60,18.17c.24-.68-1.53-2.42-2.09-1.76a27.81,27.81,0,0,0-4.3,7.47c-.54-.39-1.12-.58-1.41-.25A38.54,38.54,0,0,1,48.89,27a19.19,19.19,0,0,1-3,2.4c.29-.69.62-1.36.93-2,.73-1.59,1.41-3.2,2.12-4.79.32-.73-1.7-2.61-2.25-1.9a31.46,31.46,0,0,1-6.08,6.17,14.54,14.54,0,0,1-3.84,2,15.05,15.05,0,0,1,4.33-7.07,11.86,11.86,0,0,1,3.54-2.54,6.65,6.65,0,0,1,2-.54,9.08,9.08,0,0,1,.91.05c.4,0,.19.07.19.07a2,2,0,0,0,1,1.24c.32.17.83.28.81-.24-.15-3.21-4.34-4.86-7-4.09-3,.83-5.49,3.4-7.13,5.89-1.55,2.34-3.53,6.31-1.53,8.88a4.65,4.65,0,0,0,4.34,1.94,9,9,0,0,0,3.69-2,13.47,13.47,0,0,0,1.09-.91,1.55,1.55,0,0,0,0,.21A4,4,0,0,0,45.17,32c1.88.93,3.61,0,5-1.27q.87-.76,1.68-1.59a2.75,2.75,0,0,0,.22,1.18,4.46,4.46,0,0,0,3.56,2.73c1.39.07,2.41-.94,3.33-1.86.62-.61,1.22-1.23,1.81-1.86-.54,1.27-1.07,2.53-1.64,3.78,0,.1-.09.2-.14.31q-1.39.81-2.73,1.74c-3.76,2.6-7.62,5.92-9.63,10.12-1,2.06,1.12,3.57,3,3.69a8.27,8.27,0,0,0,6.18-2.65c3.18-3.13,5.18-7.41,7-11.48a41.13,41.13,0,0,1,8.59-3.23C72.56,31.36,70.39,28.54,69.23,28.91ZM54.73,41.67A13.78,13.78,0,0,1,51.92,45a6.88,6.88,0,0,1-2,1.18,7,7,0,0,1-.82.22,18.1,18.1,0,0,1,3.32-4.11,46.3,46.3,0,0,1,3.86-3.27C55.77,40,55.27,40.82,54.73,41.67Z"/><path d="M33.09,11.06c-1.65-4.6-6.8-6.31-11.16-4.65-5.13,2-9.57,5.67-13.16,9.77-1.06,1.21,2.54,4.55,3.55,3.38a48.16,48.16,0,0,1,8.57-7.62,19.38,19.38,0,0,1,5.26-3c1.27-.41,3.54-.86,4.34.56s.51,3.37.17,4.88a20.93,20.93,0,0,1-2.09,5.37,31.16,31.16,0,0,1-7,8.65,18,18,0,0,1-4.76,3c1.12-4.79,2.56-9.61,5.33-13.71.74-1.08-2.12-3.58-2.77-2.64C15.93,20,14.66,25.83,13.47,31.6a1.13,1.13,0,0,0,.14.69,3.88,3.88,0,0,1-.76,0,1.78,1.78,0,0,1-.41-.1,3.14,3.14,0,0,0-1.79-1.3c-.65-.12-1,.31-.7,1a6.29,6.29,0,0,0,5.12,3.64,10.8,10.8,0,0,0,6-1.65,26.1,26.1,0,0,0,9.48-9.53C32.86,20.48,34.68,15.46,33.09,11.06Z"/><path d="M37.27,22.39a2,2,0,0,0-1.47-.67c-.51.07-.9.51-1.31.8s-.71.48-1.08.7a27.51,27.51,0,0,1-2.55,1.27c-1.76.79-3.47,2.11-5.5,1.8-.5-.07-.34.53-.19.77a1.91,1.91,0,0,0,1.2.9,11.39,11.39,0,0,0,6.49-1,29.3,29.3,0,0,0,2.73-1.25c.44-.24.88-.5,1.31-.77s1-.56,1.1-1.12S37.59,22.7,37.27,22.39Z"/></svg>