<?xml version="1.0" encoding="utf-8"?>
<!-- Generator: Adobe Illustrator 24.2.1, SVG Export Plug-In . SVG Version: 6.00 Build 0)  -->
<svg version="1.1" id="Layer_1" xmlns="http://www.w3.org/2000/svg" xmlns:xlink="http://www.w3.org/1999/xlink" x="0px" y="0px"
	 viewBox="0 0 106.8 54.8" style="enable-background:new 0 0 106.8 54.8;" xml:space="preserve">
<style type="text/css">
	.st0{fill:#FFFFFF;}
</style>
<path class="st0" d="M98.6,22.6c-0.6-1-1.6-1.7-2.7-2c-1.3-0.3-2.7-0.4-4.1-0.4c0.6-1.2,1.2-2.4,1.7-3.6s1.1-2.4,1.7-3.6
	c0.2-0.7,0.5-1.3,0.8-2c0.1-0.2,0.3-0.6,0.5-0.9c0.2-0.1,0.3-0.3,0.2-0.7c-0.5-1.2-1.6-2-2.9-2.1c-1.3,0.1-1.8,1.9-2.2,2.9
	c-1.4,2.7-2.6,5.4-3.8,8.2l-0.9,2.1h-0.2c-1.2,0.2-2.5,0.4-3.7,0.8l0.1-0.1c1-1,1.9-2,2.8-3.1c1.6-2.1,2.7-5,1.9-7.6
	c-0.3-0.7-0.8-1.2-1.4-1.6c-0.2-0.2-1.2-0.7-1.4-0.2c-0.3,0.7-0.6,1.5-0.7,2.2c-0.2,0.7-0.5,1.4-0.8,2.1c-0.8,1.3-1.7,2.6-2.8,3.6
	c-1.1,1.2-2.8,2.5-3.4,4c-0.2,0.3-0.3,0.7-0.4,1c0,0.4,0.1,0.9,0.3,1.3c0.2,0.8,0.6,1.6,1.2,2.2c1.3,1.3,2.9,0.6,4.5,0.3l2.1-0.4
	c-0.3,0.6-0.6,1.2-0.8,1.9c-0.6,1.4-1.2,2.9-1.8,4.3c-0.6,1.4-1.5,2.9-1.4,4.3c0,0.6,1.3,2.1,2,1.7c1-0.5,1.5-2,2-3s1.2-2.2,1.8-3.4
	c1.1-2.2,2.2-4.4,3.3-6.6c1-0.1,2-0.2,3.1-0.2c1.8,0,3.5,0.2,5.2,0.3C99.3,24.4,99,23.2,98.6,22.6z"/>
<path class="st0" d="M68.5,28.9c-1.5,0.5-3,1.1-4.5,1.7c0.6-1.4,1.2-2.9,1.8-4.3c1.1-2.7,2.6-5.4,3.2-8.2c0.2-0.7-1.3-1.7-1.7-1.4
	l0,0c-1.4,1.1-2.5,2.5-3.3,4.1c-0.8,0.9-1.6,1.8-2.4,2.6c-1.9,2-4,4-6.1,5.8c-0.3,0.3-0.6,0.5-1,0.8c0.4-1.2,0.9-2.4,1.3-3.5
	c1.1-2.8,2.5-5.5,3.4-8.3c0.2-0.7-1.5-2.4-2.1-1.8c-1.8,2.3-3.3,4.8-4.3,7.5c-0.5-0.4-1.1-0.6-1.4-0.2c-1,1.2-2.2,2.3-3.3,3.4
	c-0.9,0.9-1.9,1.7-3,2.4c0.3-0.7,0.6-1.4,0.9-2c0.7-1.6,1.4-3.2,2.1-4.8c0.3-0.7-1.7-2.6-2.2-1.9c-1.7,2.3-3.7,4.3-6,6.1
	c-1.2,0.9-2.5,1.5-3.8,2c0.8-2.7,2.3-5.2,4.3-7.1c1-1,2.2-1.9,3.5-2.5c0.6-0.3,1.3-0.5,2-0.5c0.3,0,0.6,0,0.9,0
	c0.4,0,0.2,0.1,0.2,0.1c0.1,0.5,0.5,1,1,1.2c0.3,0.2,0.8,0.3,0.8-0.2c-0.1-3.2-4.3-4.9-7-4.1c-2.9,0.8-5.5,3.4-7.1,5.9
	c-1.5,2.3-3.5,6.3-1.5,8.9c1,1.4,2.6,2.1,4.3,1.9c1.4-0.4,2.6-1.1,3.7-2c0.4-0.3,0.7-0.6,1.1-0.9c0,0.1,0,0.1,0,0.2
	c0.4,1,1.1,1.8,2.1,2.3c1.9,0.9,3.6,0,5-1.3c0.6-0.5,1.1-1,1.7-1.6c0,0.4,0.1,0.8,0.2,1.2c0.6,1.5,2,2.6,3.6,2.8
	c1.4,0.1,2.4-0.9,3.3-1.9c0.6-0.6,1.2-1.2,1.8-1.9c-0.5,1.3-1.1,2.5-1.6,3.8c0,0.1-0.1,0.2-0.1,0.3c-0.9,0.5-1.8,1.1-2.7,1.7
	c-3.8,2.6-7.6,5.9-9.6,10.1c-1,2.1,1.1,3.6,3,3.7c2.3,0,4.6-0.9,6.2-2.7c3.2-3.1,5.2-7.4,7-11.5c2.7-1.4,5.6-2.5,8.6-3.2
	C71.8,31.4,69.7,28.5,68.5,28.9z M54,41.7c-0.8,1.2-1.7,2.4-2.8,3.3c-0.6,0.5-1.3,0.9-2,1.2c-0.3,0.1-0.5,0.2-0.8,0.2
	c0.9-1.5,2-2.9,3.3-4.1c1.2-1.2,2.5-2.3,3.9-3.3C55.1,40,54.6,40.8,54,41.7z"/>
<path class="st0" d="M32.4,11.1c-1.6-4.6-6.8-6.3-11.2-4.7c-5.1,2-9.6,5.7-13.2,9.8c-1.1,1.2,2.5,4.5,3.5,3.4
	c2.5-2.9,5.4-5.4,8.6-7.6c1.6-1.3,3.4-2.3,5.3-3c1.3-0.4,3.5-0.9,4.3,0.6s0.5,3.4,0.2,4.9c-0.4,1.9-1.1,3.7-2.1,5.4
	c-1.8,3.3-4.2,6.2-7,8.6c-1.4,1.2-3,2.3-4.8,3c1.1-4.8,2.6-9.6,5.3-13.7c0.7-1.1-2.1-3.6-2.8-2.6c-3.4,5-4.6,10.8-5.9,16.6
	c0,0.2,0,0.5,0.1,0.7c-0.3,0-0.5,0-0.8,0c-0.1,0-0.3-0.1-0.4-0.1c-0.4-0.6-1.1-1.1-1.8-1.3c-0.6-0.1-1,0.3-0.7,1
	c0.9,2,2.9,3.4,5.1,3.6c2.1,0.1,4.2-0.5,6-1.7c3.9-2.3,7.2-5.6,9.5-9.5C32.2,20.5,34,15.5,32.4,11.1z"/>
<path class="st0" d="M36.6,22.4c-0.4-0.4-0.9-0.7-1.5-0.7c-0.5,0.1-0.9,0.5-1.3,0.8s-0.7,0.5-1.1,0.7c-0.8,0.5-1.7,0.9-2.5,1.3
	c-1.8,0.8-3.5,2.1-5.5,1.8c-0.5-0.1-0.3,0.5-0.2,0.8c0.3,0.5,0.7,0.8,1.2,0.9c2.2,0.3,4.5,0,6.5-1c0.9-0.4,1.8-0.8,2.7-1.2
	c0.4-0.2,0.9-0.5,1.3-0.8s1-0.6,1.1-1.1S36.9,22.7,36.6,22.4z"/>
</svg>
