<svg id="Layer_1" data-name="Layer 1" xmlns="http://www.w3.org/2000/svg" viewBox="0 0 193.7 54.82"><defs><style>.cls-1{fill:#fff;}</style></defs><path class="cls-1" d="M164.46,29.49a49.6,49.6,0,0,1-4.82,5.22c-.68.64-1.4,1.24-2.11,1.83.22-.46.44-.93.67-1.4.78-1.52,2-3.12,2-4.91a5.71,5.71,0,0,0-2.82-4.51,8.75,8.75,0,0,0-2.16-.85c-.3-.08-.62-.14-.92-.25a1.89,1.89,0,0,1-.21-.09,3.85,3.85,0,0,0-1.32-1.88c-.44-.33-1.49-.77-1.49.19a14.55,14.55,0,0,1-3.74,9.77c-2.06,2.3-5.89,5.16-9.21,4.36-.14,0-.28-.1-.42-.13l-.06,0c0-.14-.11-.36-.11-.44A6.2,6.2,0,0,1,138,34c2.3.43,4.48.34,6.41-1.24a10.45,10.45,0,0,0,3.5-6.19c.46-2.65-2.09-6.09-5-5-2.34.85-4.32,3.35-5.65,5.35a17,17,0,0,0-1.81,3.43,8.44,8.44,0,0,1-1-.31,3.38,3.38,0,0,0-.51-.24.33.33,0,0,1-.13-.07A1.76,1.76,0,0,1,134,30a1.69,1.69,0,0,0-.2-.34h0c-.61-.91-2.23-2.73-2.53-1.14a15.46,15.46,0,0,1-2.68,6.18c-1.15,1.59-3.12,3.88-5.25,4,0,0-.29,0-.47,0,0-.35-.09-.83-.09-.87a24.12,24.12,0,0,1,.18-3.18c.12-1,.28-2,.48-2.95a32.66,32.66,0,0,0,12.78-10.46,11.53,11.53,0,0,0,2-3.58,4.73,4.73,0,0,0-1.34-4.35c-1.86-2-4.31-1.47-6.4-.15C126,15.93,123,20.63,121.44,25.6c-.31,1-.56,1.94-.78,2.93l-.13.06c-.35.16-.33.63-.13,1.17l-.15.92c-.41-.2-.79-.2-1,.15a40.41,40.41,0,0,1-3.77,4.68c-.65.69-1.32,1.36-2,2L113,38a13.7,13.7,0,0,1,.57-2c.55-1.56,1.28-3,1.91-4.58A10.67,10.67,0,0,0,116.58,27a4.7,4.7,0,0,0-3.09-4c-1.52-.39-2.82.81-3.73,1.84a30.71,30.71,0,0,0-2.59,3.42l.18-1.26c.11-.89-1.35-3.21-2.45-2.9-3,.86-5.11,3.06-7,5.51l0,.06c.4-1.27.79-2.53,1.19-3.79a2.78,2.78,0,0,0-1-2.41c-.27-.28-1.51-1.29-1.78-.45l-2,6.29a32.26,32.26,0,0,1-7.2,7.27,12.93,12.93,0,0,1-4.8,2.08,5.24,5.24,0,0,1-2,0l-.23-.08a1.36,1.36,0,0,1,0-.29,9,9,0,0,1,.46-2.47,1.17,1.17,0,0,0,.81.25A18.09,18.09,0,0,0,92.54,29.7a3.68,3.68,0,0,0,1.15-3.17A5,5,0,0,0,91,23.22c-2-.91-4.49-.26-6.34.65-4.05,2-6.61,6.68-7.37,11a6.43,6.43,0,0,0,2.93,6.6c1.83,1.11,4,.8,5.9.1a17.15,17.15,0,0,0,5.32-3.18l-.13.41c-.34,1.07,1.84,4.23,2.79,2.9,2.06-2.89,4.09-5.8,6.19-8.66a20.1,20.1,0,0,1,3.45-3.81c-.51,3.08-1.13,6.13-1.88,9.16a2.87,2.87,0,0,0,1,2.44c.33.35,1.44,1.26,1.8.46A77.92,77.92,0,0,1,109.34,32a28.85,28.85,0,0,1,3.15-4.23c.21-.22.44-.45.67-.66-1,2.77-2.5,5.33-3.06,8.24a7.93,7.93,0,0,0,.27,4.65c.63,1.39,2.14,3,3.77,2.2a9.21,9.21,0,0,0,2.2-1.84c.69-.65,1.35-1.33,2-2s1.1-1.27,1.63-1.93a7.11,7.11,0,0,0,2.12,4.41c2.65,2.54,5.75.72,7.84-1.53a16.69,16.69,0,0,0,3.87-7,7.61,7.61,0,0,0,1.06.67,7.16,7.16,0,0,0,0,1.13,7,7,0,0,0,4.55,6.23c2.29.73,4.85-.21,6.85-1.34A16,16,0,0,0,154,27.27a7.15,7.15,0,0,0,1.62.79,12.17,12.17,0,0,0,1.58.5,2.4,2.4,0,0,1-.12.38,6.31,6.31,0,0,1-.5,1.09c-.38.74-.79,1.47-1.17,2.21a26.94,26.94,0,0,0-2.33,5.17c-.45,1.69.93,3.57,2.42,4.27s2.73-.35,3.85-1.25a48.41,48.41,0,0,0,7.6-7.61C167.86,31.68,165.17,28.6,164.46,29.49Zm-79.74-.65a9.59,9.59,0,0,1,4.69-2.4c.24,0,.47-.07.71-.09l-.38.45a17.36,17.36,0,0,1-7.43,5.07A12.38,12.38,0,0,1,84.72,28.84ZM130.79,18c1.2-1.06,2.83-2.44,4.53-2.65a7.06,7.06,0,0,1-.62,1.19,29,29,0,0,1-2.12,2.92,33.28,33.28,0,0,1-7.44,6.62A22.19,22.19,0,0,1,130.79,18ZM141,28.51a19.08,19.08,0,0,1,1.93-2,9.1,9.1,0,0,1,1.84-1.4,11.07,11.07,0,0,1-1.14,2.44,6.88,6.88,0,0,1-4.12,3.12A17,17,0,0,1,141,28.51Z"/><path class="cls-1" d="M133.82,29.7c-.07-.12-.09-.11-.06-.07h0Z"/><path class="cls-1" d="M80.14,34.05c-.33-.43-1.46-1.73-2.14-1.17a24.43,24.43,0,0,1-6.43,3.81,11.4,11.4,0,0,1-3.4.85,5.85,5.85,0,0,1-1.45,0c0-.21.07-.42.11-.62a12,12,0,0,1,.72-2.27A22.24,22.24,0,0,1,69.8,30.5a12.1,12.1,0,0,1,2.76-2.95,7.56,7.56,0,0,1,1.74-1c0,.26,0,.51-.06.77A3.55,3.55,0,0,0,75.76,30c.54.43,1.49.79,1.59-.19.22-2,.35-4-1-5.67a3.65,3.65,0,0,0-4.08-1.34c-2.6.86-4.41,3-5.84,5.23a22.6,22.6,0,0,0-2,3.85,28.67,28.67,0,0,1-3.92,3.2,19.46,19.46,0,0,1-4.62,2.49,5.91,5.91,0,0,1-2.28.34,3.81,3.81,0,0,1-.89-.19l-.22-.07,0-.14a3.21,3.21,0,0,1,0-.76,6.75,6.75,0,0,1,.18-1.34c.08-.05.16-.12.25-.17a1.19,1.19,0,0,0,1,.28A16.77,16.77,0,0,0,63,29.07a9.53,9.53,0,0,0,1.41-2.53,4.18,4.18,0,0,0-1.24-3.85,3.67,3.67,0,0,0-2.87-1.26,6.92,6.92,0,0,0-2.69,1A17.35,17.35,0,0,0,50.06,31a10.53,10.53,0,0,0-.38,1.12,14,14,0,0,1-2.11,1.08c.34-.5.66-1,1-1.51,2.31-3.79,4.12-8.81,2.54-13.21-1.66-4.6-6.81-6.31-11.16-4.64-5.14,2-9.58,5.67-13.16,9.76C25.7,24.81,29.3,28.16,30.3,27a48.22,48.22,0,0,1,8.58-7.62,19.09,19.09,0,0,1,5.26-3c1.26-.4,3.54-.85,4.33.57s.51,3.37.18,4.87a21.19,21.19,0,0,1-2.1,5.37,31.3,31.3,0,0,1-7,8.65,18.4,18.4,0,0,1-4.77,3c1.12-4.8,2.56-9.62,5.34-13.71.73-1.09-2.13-3.58-2.78-2.65C33.91,27.43,32.65,33.25,31.45,39a1.05,1.05,0,0,0,.15.68,3.84,3.84,0,0,1-.76,0,2.3,2.3,0,0,1-.41-.1,3.24,3.24,0,0,0-1.79-1.31c-.65-.12-1,.31-.71,1a6.27,6.27,0,0,0,5.12,3.64,10.85,10.85,0,0,0,6-1.64,22.91,22.91,0,0,0,4.88-3.68,1.68,1.68,0,0,0,.86.27,14.33,14.33,0,0,0,4.92-1,7.18,7.18,0,0,0,4.71,4.61c2.37.62,4.7-.44,6.72-1.6a26.7,26.7,0,0,0,2.75-1.82c1.14,2.81,4.84,3.66,7.67,3a22.11,22.11,0,0,0,9.08-4.66C81.32,35.88,80.52,34.54,80.14,34.05ZM58,27.26a15.61,15.61,0,0,1,2.75-1.92q-.3.45-.63.87a16.59,16.59,0,0,1-5.23,4.4A17.07,17.07,0,0,1,58,27.26Z"/></svg>