<svg xmlns="http://www.w3.org/2000/svg" width="145.178" height="44.081" viewBox="0 0 145.178 44.081">
  <g id="EBONY" transform="translate(0 0)">
    <path id="Path_455" data-name="Path 455" d="M1936.813,897.768h8.974l6.781,13.161,6.98-13.161h8.774L1956.755,920.3v18.945h-8.774V919.5Zm27.119,36.495h1.4c.673.013,1.372.25,1.4,1-.024.97-.89,1.058-1.6,1h-1.2v.4h1.4l1.6,2.393h.4l-1.6-2.393c.818-.058,1.422-.473,1.4-1.4.027-.876-.494-1.374-1.6-1.4h-1.994v5.185h.4v-4.786Z" transform="translate(-1824.338 -896.767)" fill="#877b8d"/>
    <path id="Path_456" data-name="Path 456" d="M140.79,915.862a4.407,4.407,0,0,1,4.387,4.387,4.292,4.292,0,0,1-4.387,4.387,4.2,4.2,0,0,1-4.387-4.387,4.31,4.31,0,0,1,4.387-4.387v.4a3.879,3.879,0,0,0-3.988,3.988,3.814,3.814,0,0,0,3.988,3.988,3.9,3.9,0,0,0,3.988-3.988,3.975,3.975,0,0,0-3.988-3.988Zm-60.422-34.3h9.772L99.911,903.1V881.56h8.174v41.48H99.111L88.744,899.112v23.93H80.368ZM0,881.56v41.48H19.543v-7.379H8.174V904.7H19.541v-7.179H8.174v-9.372H19.541V881.56Zm62.818-1c-6.257-.073-11.268,3.318-11.367,9.573v23.532c.1,6.259,5.11,9.65,11.367,9.573,6.107.077,11.118-3.314,11.168-9.573V890.134c-.05-6.252-5.061-9.643-11.168-9.571Zm2.992,32.108a2.981,2.981,0,0,1-2.992,2.992,2.808,2.808,0,0,1-2.992-2.992V891.128a2.813,2.813,0,0,1,2.992-2.992,2.981,2.981,0,0,1,2.992,2.992ZM39.885,881.56H25.128v41.48H38.488c8.174-.072,8.3-6.118,8.376-8.575v-9.372c-.076-2.628-1.635-3.558-2.194-3.59-.438-.1-.624-.659,0-.8,1.994-.859,2.116-4.971,2.194-6.182-.076-1.282-.076-4.086,0-6.182C46.789,881.028,42.364,881.464,39.885,881.56ZM33.5,887.942h2.6c1.844-.061,2.529,1,2.393,2.393v4.593c.074,2.37-2.481,2.495-4.985,2.6Zm4.985,20.545v4.587c.074,2.42-2.481,2.545-4.985,2.6V905.293h1.6a2.987,2.987,0,0,1,3.387,3.194Z" transform="translate(0 -880.561)" fill="#877b8d"/>
  </g>
</svg>
