<svg id="Layer_1" data-name="Layer 1" xmlns="http://www.w3.org/2000/svg" viewBox="0 0 193.7 54.82"><defs><style>.cls-1{fill:#fff;}</style></defs><polygon class="cls-1" points="76.04 21.84 76.04 21.84 76.04 21.84 76.04 21.84"/><path class="cls-1" d="M167,34.77c-.43-.77-1.25-1.76-2.21-1.77a34.85,34.85,0,0,0-6.38.52,74,74,0,0,0,4.06-14.83c.15-1-2.33-4.17-3-2.74a57.94,57.94,0,0,1-4.31,7.69q-1.28,1.91-2.7,3.69a14.41,14.41,0,0,1-2.79,3,3.07,3.07,0,0,1-1.08.51,30.54,30.54,0,0,1,1.22-3.76,36,36,0,0,1,4.19-7.8c.73-1-2-4.3-2.9-3a36.09,36.09,0,0,0-4.49,8.48c-1.55,1.52-3.14,3-4.8,4.36-.5.43-1,.83-1.54,1.24.2-.41.4-.83.62-1.23.85-1.63,2-3.22,2.19-5.12a6.43,6.43,0,0,0-2-4.94,5.13,5.13,0,0,0-2.46-1.36c-.5-.12-1-.12-1.52-.19l-.34-.07a4.28,4.28,0,0,0-1.22-1.49c-.54-.41-1.48-.78-1.58.2a23.27,23.27,0,0,1-3.38,9.68,22.19,22.19,0,0,1-3.19,4c-.18.19-.38.37-.57.55l.06-.17q.84-2.31,1.72-4.61c.39-1-2-4.38-2.81-3.32a45.32,45.32,0,0,1-6.3,6.76,12.78,12.78,0,0,1-3.33,2.49h0a12.35,12.35,0,0,1,.33-1.23,15.27,15.27,0,0,1,7.13-8.7,4.31,4.31,0,0,1,3.12-.73l.14,0a3.22,3.22,0,0,0,1.91,1.85c1,.17.8-.79.61-1.4a6.12,6.12,0,0,0-4.41-4.12c-1.89-.36-3.78.59-5.29,1.64A16.41,16.41,0,0,0,113.93,26c-.5-.45-1.05-.67-1.43-.38a34.37,34.37,0,0,0-4.09,4.18,14.9,14.9,0,0,1-1.82,1.64c.32-1.08.65-2.15,1-3.21.79-2.39,1.66-4.76,2.63-7.09.47-1.15-2-4.41-2.94-3A65.4,65.4,0,0,1,96.07,30.94a6,6,0,0,1-.76.56c.25-1,.62-1.93.93-2.84a65.89,65.89,0,0,1,3.4-8.09c.58-1.18-2.19-4.29-2.87-3A66,66,0,0,0,93.53,25c-.5-.4-1-.57-1.33-.27A65.33,65.33,0,0,1,87,29c-.48.36-1,.7-1.47,1,.3-.44.6-.87.88-1.32a8.19,8.19,0,0,0,1.47-4.9,7.18,7.18,0,0,0-2.66-5.14,5.63,5.63,0,0,0-1.86-.94,6.23,6.23,0,0,0-1.22-2.28c-1.52-1.77-3.54-.5-3,1.64A4.8,4.8,0,0,0,80,18.87a8.06,8.06,0,0,1-1,1.38,5.8,5.8,0,0,1-1.62,1.38,2.33,2.33,0,0,1-1.06.28,1.14,1.14,0,0,1-.37-.07,2.57,2.57,0,0,1,.43.56c-.09-.14-.25-.34-.43-.56-.13-.05-.11-.09,0,0-.64-.74-1.67-1.63-2.09-.74-1.66,3.46-3.43,7.17-6.67,9.43a8.77,8.77,0,0,1-1.21.72,10.63,10.63,0,0,1-1.37.22c0-.16,0-.34,0-.37A8.66,8.66,0,0,1,64.91,29c.18-.88.4-1.75.63-2.61a1,1,0,0,0,.18-.7c0-.15.09-.29.13-.43A27.72,27.72,0,0,0,76.77,14.82c1.28-2.25,2.31-5.4.93-7.84s-3.85-2.91-6.15-1.31c-2,1.43-3.3,3.78-4.43,5.93a54.89,54.89,0,0,0-3.44,8c-.4,1.18-.81,2.41-1.16,3.66a33,33,0,0,1-8,6.26,11.2,11.2,0,0,1-4.76,1.35,7.49,7.49,0,0,1-1.43-.24c0-.34,0-.72.06-1.05,0-.17.08-.34.12-.51a13.4,13.4,0,0,0,2.79-.36A14.51,14.51,0,0,0,58,25.29a5.31,5.31,0,0,0,1.85-3.24,5.47,5.47,0,0,0-1.64-4c-4.09-4.37-9.41.89-11.43,4.7a16.11,16.11,0,0,0-1.11,2.63,7.2,7.2,0,0,1-.8-.07,6.09,6.09,0,0,1-1.08-.27,4.76,4.76,0,0,0-1-1.64,22.13,22.13,0,0,0,4.38-3.65c1-1.12-1.78-4.5-2.65-3.56a22.36,22.36,0,0,1-7.51,5.33,62.07,62.07,0,0,1,4.27-7.85A51.67,51.67,0,0,0,58.77,8.42c1.15-.58-1.28-4.27-2.66-3.57A50.21,50.21,0,0,1,44,9.14c-.27-1.34-2.25-3.39-3-2.32S39.48,8.91,38.77,10a52.3,52.3,0,0,1-8.21.28c-.94,0-.27,1.63-.08,2A3,3,0,0,0,32.65,14q1.85.1,3.69.06a62.89,62.89,0,0,0-4.09,9,21.81,21.81,0,0,1-5.48.37c-.92-.05-.26,1.62-.07,1.95a3,3,0,0,0,2.14,1.72c.7,0,1.4.05,2.09,0-.46,1.62-.88,3.25-1.21,4.9a3.12,3.12,0,0,0,1.05,2.61c.24.24,1.74,1.42,1.93.49A61.86,61.86,0,0,1,35,26.63,23.16,23.16,0,0,0,41,24.5a5.41,5.41,0,0,0,.45,1,6.94,6.94,0,0,0,2.85,2.78,8,8,0,0,0,1,.39,5.43,5.43,0,0,0,.26,1.5,6.54,6.54,0,0,0,5.56,4.47c2.68.24,5.43-1,7.65-2.4a27.72,27.72,0,0,0,3-2.26,6.76,6.76,0,0,0,3.86,5c2.65,1,5.38-1.53,6.93-3.41A30.69,30.69,0,0,0,76.46,25a3.46,3.46,0,0,0,2.65.47C81,25,82.58,23,83.24,21.26c0-.1.06-.2.09-.3a5.69,5.69,0,0,0,.59.16l.76.18.09,0a5.85,5.85,0,0,1-.36,2.49c-1.35,3.54-6.58,7.79-2,11.3,2.06,1.57,4.25-.42,5.94-1.62,1.25-.88,2.46-1.83,3.63-2.81a4.58,4.58,0,0,0,.27,1.56c.6,1.62,2.12,3.26,3.94,3.3,1.56,0,2.71-1.23,3.75-2.22s2.12-2.1,3.14-3.19c-.12.42-.26.85-.36,1.27a4.22,4.22,0,0,0,1.22,4c2,2,4.67.31,6.33-1.27,1-.93,1.86-2,2.76-3a5.36,5.36,0,0,0,.93,2.24c1.14,1.62,2.86,2.61,4.79,1.72a14,14,0,0,0,3.6-2.67,3.11,3.11,0,0,0,0,.32,4.33,4.33,0,0,0,3.15,3.31c1.36.18,2.51-.88,3.46-1.72a24.68,24.68,0,0,0,7.7-13.79,5.28,5.28,0,0,0,2.19.67,7.1,7.1,0,0,0,1,.15,2.58,2.58,0,0,1,0,.57,6.5,6.5,0,0,1-.4,1.12c-.34.74-.77,1.44-1.17,2.16a44.57,44.57,0,0,0-2.43,5.19,4.18,4.18,0,0,0,.72,4.81,2.62,2.62,0,0,0,3.81.57,49,49,0,0,0,5.34-4.25,5.38,5.38,0,0,0,3.66,3c2.54.44,4.51-2,6-4.08-.48,1.34-1,2.72-1.49,4.09a35,35,0,0,0-3.29,1.2,34.28,34.28,0,0,0-6.39,3.53c-1.66,1.17-3.95,2.64-4.41,4.78A5.44,5.44,0,0,0,143,49.77c2,.9,4.64-.19,6.4-1.32,3.66-2.35,5.63-6.34,7.22-10.29a34.59,34.59,0,0,1,10.27-1.39C167.86,36.78,167.19,35.13,167,34.77ZM72.18,10.93a8.87,8.87,0,0,1,1.89-1.88,5.38,5.38,0,0,1,1.11-.65h0a1.66,1.66,0,0,1,0,.27,8.93,8.93,0,0,1-.46,1.41,15.12,15.12,0,0,1-1.54,2.82,27.86,27.86,0,0,1-5.05,5.68A32.6,32.6,0,0,1,72.18,10.93ZM53.65,21.26a6.19,6.19,0,0,1,2.18-1.15,4.07,4.07,0,0,1,.79-.08,3.7,3.7,0,0,1-.33.73,6.08,6.08,0,0,1-.89,1,12.13,12.13,0,0,1-2.23,1.67,13.56,13.56,0,0,1-2.74,1.26A13.72,13.72,0,0,1,53.65,21.26ZM145.78,45.5a7.73,7.73,0,0,1-2.65.83l.15-.28c1-1.57,3-2.77,4.5-3.77a32.57,32.57,0,0,1,3.39-1.94c-.33.51-.67,1-1,1.5A13,13,0,0,1,145.78,45.5Z"/></svg>