<svg xmlns="http://www.w3.org/2000/svg" width="364.224" height="81.749" viewBox="0 0 364.224 81.749">
  <g id="Logo_on_white" data-name="Logo on white" transform="translate(-35.869 -33.135)">
    <g id="Group_98" data-name="Group 98" transform="translate(35.869 33.354)">
      <path id="Path_491" data-name="Path 491" d="M58.092,93.028s9.5-3.083,12.6-11.845c4.283-12.093-1.559-19.174,2.519-26.455a71.84,71.84,0,0,1,5.544-8.819s2.611-3.706,4.562-6.077c2.61,4.247,45.072,74.431,45.072,74.431h8.566V112.4a7.025,7.025,0,0,1-6.549-2.5c-2.521-3.274-46.642-76.563-46.642-76.563l-1.682,2.043-6.8,9.321s-7.863,9.013-7.61,17.076C67.833,67.072,72.454,82.7,58.092,93.028Z" transform="translate(-34.778 -33.344)" fill="#4d4d4d"/>
      <path id="Path_492" data-name="Path 492" d="M116.712,113.909l4.685-.216L82.052,48.445,72.985,63.307A16.938,16.938,0,0,0,82.052,56Z" transform="translate(-34.047 -32.603)" fill="#fb9206"/>
      <path id="Path_493" data-name="Path 493" d="M48.486,112.772h4.785s3.027-1.261,4.032-10.581-3.777-24.946,9.072-34.773c0,0-13.1,3.78-13.1,17.637C53.271,97.426,55.039,103.7,48.486,112.772Z" transform="translate(-35.25 -31.672)" fill="#fb9206"/>
      <path id="Path_494" data-name="Path 494" d="M51.875,94.077c-13.1,4.287-16.006,17.135-16.006,17.135H40.66C41.881,100.553,51.875,94.077,51.875,94.077Z" transform="translate(-35.869 -30.363)" fill="#4d4d4d"/>
      <path id="Path_495" data-name="Path 495" d="M59.618,79.15,64.569,80.2c.14-.317.278-.635.411-.971.1-.241.176-.471.262-.706l-4.8-1.569C60.148,77.645,59.87,78.376,59.618,79.15Z" transform="translate(-34.703 -31.204)" fill="#4d4d4d"/>
      <path id="Path_496" data-name="Path 496" d="M58.395,85.323l3.426-.577a22.253,22.253,0,0,0,1.263-1.869l-4.423.213Q58.487,84.168,58.395,85.323Z" transform="translate(-34.764 -30.913)" fill="#4d4d4d"/>
      <path id="Path_497" data-name="Path 497" d="M62.2,73.565l3.864,2.147c.159-.653.287-1.274.381-1.846l-3.007-2.1C63.029,72.309,62.615,72.9,62.2,73.565Z" transform="translate(-34.577 -31.458)" fill="#4d4d4d"/>
      <path id="Path_498" data-name="Path 498" d="M44.931,103.073c-.067.107-.128.233-.192.346l3.847,4.215a21.333,21.333,0,0,0,1.2-2.1L45.694,101.9C45.44,102.276,45.186,102.66,44.931,103.073Z" transform="translate(-35.434 -29.979)" fill="#4d4d4d"/>
      <path id="Path_499" data-name="Path 499" d="M42.813,108.716l.967,1.91,2.412,0c.014-.016.026-.033.041-.048L43.5,106.262A22.4,22.4,0,0,0,42.813,108.716Z" transform="translate(-35.528 -29.765)" fill="#4d4d4d"/>
      <path id="Path_500" data-name="Path 500" d="M47.524,99.53l3.564,2.27a19.267,19.267,0,0,0,.413-2.176l-2.712-1.435C48.393,98.575,47.969,99.021,47.524,99.53Z" transform="translate(-35.297 -30.162)" fill="#4d4d4d"/>
    </g>
    <g id="Group_99" data-name="Group 99" transform="translate(150.149 33.135)">
      <path id="Path_501" data-name="Path 501" d="M178.777,66.577c-.931-.223-2.216-.839-3.893-4.812-2.83-6.728-9.911-24.778-10.967-27.214-.445-1.019-.712-1.416-1.111-1.416-.442,0-.709.49-1.238,1.77l-11.1,27.787c-.882,2.207-1.725,3.719-3.76,3.978a13.48,13.48,0,0,1-1.37.089l-.532.349c0,.363.265.446.839.446,2.3,0,4.736-.13,5.22-.13,1.373,0,3.275.13,4.691.13.485,0,.75-.083.75-.446,0-.264-.132-.349-.664-.349h-.665c-1.371,0-1.768-.579-1.768-1.377a8.553,8.553,0,0,1,.665-2.69l2.388-6.339.4-.349h9.868l.44.312,3.537,9.379a.721.721,0,0,1-.4,1.02c-.443.045-.621.13-.621.394,0,.316.532.316,1.328.363,3.541.083,6.77.083,8.359.083,1.641,0,2.037-.083,2.037-.446l-.575-.349A9.459,9.459,0,0,1,178.777,66.577ZM165.684,53.8h-8.141l-.179-.313L161.436,42.6l.264-.4.224.4L165.9,53.529Z" transform="translate(-144.803 -33.135)" fill="#333"/>
      <path id="Path_502" data-name="Path 502" d="M200.389,38.756a12.137,12.137,0,0,1-1.6.176c-.929.046-9.555,0-11.058,0-1.1,0-3.585-.092-5.575-.092-.619,0-.927.092-.927.357l.665.4a7.3,7.3,0,0,1,1.548.131c1.237.309,1.587.756,1.677,2.034.044,1.2.044,2.259.044,7.965v6.63c0,3.631,0,6.419-.175,8.017-.134,1.1-.352,1.805-1.15,1.987a5.722,5.722,0,0,1-1.369.133c-.443,0-.576.219-.576.4,0,.316.262.4.793.4,1.459,0,3.939-.13,4.958-.13s3.759.13,6.236.13c.575,0,.841-.13.841-.4,0-.177-.176-.4-.666-.4a13.733,13.733,0,0,1-1.9-.133c-1.152-.181-1.418-.888-1.551-1.987-.177-1.6-.219-4.253-.219-7.881v-3.1l.266-.3c.661,0,5.26.047,6.233.132a1.978,1.978,0,0,1,1.861,1.373,3.5,3.5,0,0,1,.268,1.143l.351.536c.4,0,.443-.536.443-.84,0-.271.043-1.994.134-2.75.131-1.187.307-2.212.307-2.428l-.221-.355-.53.4a2,2,0,0,1-1.64.658c-.572.049-1.106.049-1.768.049l-5.438.043-.266-.361V41.586c0-.441.131-.528.351-.528l6.459.133a2.671,2.671,0,0,1,2.477,1.147,2.957,2.957,0,0,1,.223,1.42c0,.44.217.616.487.616l.4-.754c.043-.439.134-2.651.176-3.05.132-.974.308-1.416.308-1.686l-.263-.349Z" transform="translate(-143.015 -32.87)" fill="#333"/>
      <path id="Path_503" data-name="Path 503" d="M235.879,66.39c-.618-.129-1.99-.316-4.161-2.486-2.344-2.343-5.085-5.742-8.536-9.991,3.8-3.051,5.4-5.528,5.4-8.316a6.58,6.58,0,0,0-2.744-5.175c-2.078-1.369-4.909-1.6-7.387-1.6-1.194,0-4.732.092-6.062.092-.8,0-3.273-.092-5.307-.092-.574,0-.883.092-.883.357s.265.4.661.4a7.286,7.286,0,0,1,1.549.131c1.239.356,1.591.756,1.683,2.034.042,1.2.042,2.259.042,7.965v6.63c0,3.457,0,6.419-.176,8.017-.134,1.1-.35,1.805-1.152,1.987a5.732,5.732,0,0,1-1.37.133c-.487,0-.619.219-.619.4,0,.269.265.4.753.4,1.546,0,4.022-.13,4.775-.13.576,0,3.806.13,6.059.13.488,0,.8-.13.8-.4l-.487-.4a14.78,14.78,0,0,1-1.9-.133c-1.195-.181-1.37-.888-1.5-1.987-.176-1.6-.222-4.522-.222-8.017v-.519l.311-.315,3.494.086.709.264c.486.581,2.119,3.1,3.67,5.132,2.169,2.913,3.629,4.688,5.31,5.525a8.356,8.356,0,0,0,4.248.758h3.711c.491,0,.756-.083.756-.4l-.487-.4A3.6,3.6,0,0,1,235.879,66.39ZM221.146,53.03c-.664.49-1.195.625-2.744.625a10.581,10.581,0,0,1-2.96-.363c-.269-.133-.357-.262-.357-.664V41.436l.357-.526a14.69,14.69,0,0,1,2.3-.135c2.3,0,5.926,1.369,5.926,6.683A6.378,6.378,0,0,1,221.146,53.03Z" transform="translate(-141.79 -32.856)" fill="#333"/>
      <path id="Path_504" data-name="Path 504" d="M249.863,66.48a14.562,14.562,0,0,1-1.987-.133c-1.152-.181-1.418-.755-1.551-1.769-.179-1.6-.179-4.6-.179-8.235v-6.63c0-5.706,0-6.765.089-7.965.09-1.326.4-1.857,1.461-2.034a5.448,5.448,0,0,1,1.151-.131c.4,0,.62-.1.62-.443,0-.221-.308-.314-.8-.314-1.5,0-4.024.092-5,.092-1.1,0-3.762-.092-5.221-.092-.619,0-.927.092-.927.314,0,.347.22.443.616.443a4.979,4.979,0,0,1,1.419.177c.842.263,1.236.71,1.325,1.988.044,1.2.044,2.259.044,7.965v6.63c0,3.631,0,6.64-.175,8.188-.135,1.109-.351,1.634-1.149,1.816a5.774,5.774,0,0,1-1.375.133c-.485,0-.619.219-.619.4,0,.269.27.4.753.4,1.547,0,4.2-.13,5.087-.13,1.061,0,3.719.13,6.283.13.44,0,.751-.13.751-.4C250.483,66.7,250.309,66.48,249.863,66.48Z" transform="translate(-140.253 -32.856)" fill="#333"/>
      <path id="Path_505" data-name="Path 505" d="M281.55,60.926a6.081,6.081,0,0,1-1.329,2.523c-1.548,1.724-3.454,1.99-6.9,1.99-5.218,0-12.118-4.244-12.118-13.186,0-3.668.707-7.29,3.583-9.767,1.771-1.508,3.935-2.125,7.344-2.125,3.587,0,6.194.926,7.52,2.208a5.324,5.324,0,0,1,1.506,3.492c0,.494.086.8.4.8.351,0,.485-.391.527-.929.049-.753.049-2.827.134-4.066.088-1.33.175-1.771.175-2.08,0-.221-.131-.4-.57-.448-1.153-.129-2.435-.393-3.9-.61a39.411,39.411,0,0,0-5.664-.4c-5.791,0-9.508,1.5-12.341,3.974a14.523,14.523,0,0,0,.31,21.416c3.542,2.958,8.052,4.074,13.359,4.074a22.635,22.635,0,0,0,7.036-.847,1.317,1.317,0,0,0,1.017-1.1,33.4,33.4,0,0,0,.841-5l-.443-.668C281.727,60.171,281.636,60.354,281.55,60.926Z" transform="translate(-139.377 -32.88)" fill="#333"/>
      <path id="Path_506" data-name="Path 506" d="M313.163,66.388c-.708-.132-1.81-.623-3.316-4.033-2.478-5.7-8.98-21.092-9.909-23.174-.4-.838-.577-1.2-1.153-1.2-.393,0-.7.443-1.15,1.5L287.458,63.155c-.794,1.9-1.455,3.052-3.225,3.321l-1.15.045-.444.4c0,.316.217.4.709.4,2.032,0,4.109-.13,4.512-.13,1.237,0,3.054.13,4.332.13.4,0,.621-.083.621-.4,0-.227-.09-.4-.573-.4h-.578c-1.195,0-1.545-.4-1.545-1.065a6.722,6.722,0,0,1,.574-2.3l2.078-5.041.356-.268h9.156l.4.268,3.01,7.567a.6.6,0,0,1-.355.84c-.4.037-.489.17-.489.4,0,.269.441.269,1.149.316,3.274.083,6.107.083,7.478.083,1.46,0,1.68-.083,1.68-.4l-.528-.4A9.43,9.43,0,0,1,313.163,66.388ZM301.444,55.766h-7.525l-.127-.261L297.551,46l.22-.359.172.354,3.672,9.558Z" transform="translate(-138.038 -32.897)" fill="#333"/>
      <path id="Path_507" data-name="Path 507" d="M347.437,38.857c-1.9,0-3.362.092-3.8.092-.844,0-2.921-.092-4.955-.092-.575,0-.968.044-.968.357,0,.226.125.4.617.4a6.639,6.639,0,0,1,2.031.217c.928.357,1.285,1.028,1.329,3.322l.4,16.716h-.173c-.578-.527-5.752-5.835-8.408-8.447-5.663-5.519-11.506-11.5-11.99-11.983-.663-.666-1.194-1.243-1.684-1.243-.393,0-.665.537-.665,1.28l-.35,22.3c-.044,3.269-.174,4.284-1.194,4.553a7.812,7.812,0,0,1-1.769.181l-.618.4c0,.35.355.4.883.4,1.992,0,3.847-.13,4.2-.13.708,0,2.52.13,5.044.13.53,0,.885-.083.885-.4,0-.227-.222-.4-.665-.4a6.652,6.652,0,0,1-2.037-.265c-.751-.265-1.237-1.153-1.326-4.067l-.442-15.355h.127c.761.666,4.869,5.218,9.121,9.282,4.065,3.95,8.934,8.59,11.369,10.844a2.27,2.27,0,0,0,1.59.8c.307,0,.619-.354.619-1.2l.443-23.707c.047-2.12.356-2.786,1.413-3.1a4.02,4.02,0,0,1,1.194-.131c.447,0,.666-.174.666-.4C348.322,38.9,347.966,38.857,347.437,38.857Z" transform="translate(-136.439 -32.887)" fill="#333"/>
    </g>
    <g id="Group_100" data-name="Group 100" transform="translate(149.283 79.974)">
      <path id="Path_508" data-name="Path 508" d="M177.949,111.225c-.928-.223-2.216-.839-3.9-4.812-2.825-6.728-9.905-24.778-10.964-27.214-.45-1.019-.711-1.416-1.107-1.416-.444,0-.707.491-1.243,1.77l-11.1,27.787c-.886,2.208-1.733,3.719-3.764,3.978a13.361,13.361,0,0,1-1.37.089l-.531.349c0,.363.265.446.836.446,2.306,0,4.74-.13,5.222-.13,1.369,0,3.275.13,4.687.13.489,0,.757-.083.757-.446,0-.264-.133-.349-.666-.349h-.664c-1.372,0-1.768-.579-1.768-1.377a8.485,8.485,0,0,1,.664-2.69L155.434,101l.4-.348H165.7l.442.311,3.537,9.379a.723.723,0,0,1-.394,1.02c-.449.045-.623.13-.623.394,0,.316.531.316,1.324.363,3.545.083,6.769.083,8.36.083,1.643,0,2.042-.083,2.042-.446l-.575-.349A9.445,9.445,0,0,1,177.949,111.225ZM164.856,98.448h-8.14l-.18-.313,4.073-10.884.266-.4.223.4,3.979,10.926Z" transform="translate(-143.977 -77.783)" fill="#333"/>
      <path id="Path_509" data-name="Path 509" d="M212.022,83.5c-1.9,0-3.359.092-3.8.092-.847,0-2.917-.092-4.959-.092-.575,0-.966.044-.966.357,0,.226.13.4.616.4a6.619,6.619,0,0,1,2.033.217c.932.357,1.286,1.028,1.328,3.322l.4,16.716h-.178c-.571-.527-5.751-5.835-8.4-8.447-5.661-5.519-11.5-11.5-11.993-11.983-.659-.666-1.194-1.243-1.679-1.243-.4,0-.664.537-.664,1.28l-.354,22.3c-.047,3.27-.171,4.284-1.195,4.553a7.742,7.742,0,0,1-1.768.181l-.616.4c0,.35.35.4.882.4,1.989,0,3.851-.13,4.2-.13.714,0,2.527.13,5.049.13.53,0,.884-.083.884-.4,0-.227-.221-.4-.666-.4a6.6,6.6,0,0,1-2.033-.265c-.751-.265-1.239-1.153-1.33-4.067l-.441-15.355h.132c.748.666,4.868,5.219,9.111,9.282,4.074,3.95,8.936,8.59,11.369,10.845a2.278,2.278,0,0,0,1.594.8c.314,0,.619-.354.619-1.2l.445-23.707c.044-2.12.351-2.786,1.413-3.1a3.989,3.989,0,0,1,1.195-.131c.443,0,.664-.174.664-.4C212.907,83.549,212.55,83.5,212.022,83.5Z" transform="translate(-142.218 -77.535)" fill="#333"/>
      <path id="Path_510" data-name="Path 510" d="M243.237,105.574a6,6,0,0,1-1.324,2.523c-1.551,1.724-3.455,1.99-6.906,1.99-5.219,0-12.115-4.244-12.115-13.186,0-3.668.7-7.29,3.577-9.767,1.769-1.508,3.938-2.124,7.349-2.124,3.583,0,6.188.925,7.52,2.207a5.32,5.32,0,0,1,1.5,3.493c0,.493.085.8.4.8.353,0,.489-.391.534-.928.043-.754.043-2.828.129-4.067.09-1.33.179-1.771.179-2.08,0-.221-.136-.4-.575-.448-1.153-.129-2.431-.393-3.9-.61a39.328,39.328,0,0,0-5.658-.4c-5.8,0-9.514,1.5-12.342,3.974a14.521,14.521,0,0,0,.312,21.416c3.536,2.958,8.05,4.074,13.354,4.074a22.674,22.674,0,0,0,7.036-.846c.663-.27.842-.44,1.016-1.1a33,33,0,0,0,.841-5l-.44-.669C243.416,104.819,243.324,105,243.237,105.574Z" transform="translate(-140.391 -77.528)" fill="#333"/>
      <path id="Path_511" data-name="Path 511" d="M268.74,106.588c-.263,1.547-.7,2.339-1.674,2.785a10.673,10.673,0,0,1-3.676.489c-3.977,0-5.177-.579-5.27-3.141-.041-1.112,0-4.3,0-5.58V98.135l.226-.4c.972,0,5.4.084,6.107.174,1.457.129,1.942.713,2.169,1.465.082.485.082.972.134,1.36l.35.314.4-.83c0-.275.088-1.778.175-2.527.22-1.905.312-2.523.312-2.741l-.312-.4-.614.487c-.362.4-.932.487-1.86.572-.885.092-5.929.092-6.816.092l-.27-.4V86.016l.27-.361c.794,0,5.446.09,6.106.185,1.949.176,2.261.71,2.57,1.368a3.605,3.605,0,0,1,.26,1.369l.308.49.445-.622c.086-.439.174-2.079.221-2.478a16.553,16.553,0,0,1,.313-2.434l-.269-.349-.624.181c-.306.04-.923.168-1.637.216-.749.046-9.376,0-10.616,0-1.106,0-3.582-.092-5.617-.092-.573,0-.879.092-.879.357s.263.4.664.4a7.253,7.253,0,0,1,1.546.131c1.235.356,1.588.756,1.677,2.034.041,1.2.041,2.259.041,7.965V101c0,3.457,0,6.419-.174,8.017-.135,1.1-.353,1.805-1.149,1.987a5.732,5.732,0,0,1-1.37.133c-.487,0-.619.219-.619.4,0,.269.262.4.752.4.8,0,1.77-.048,2.7-.083.93,0,1.77-.047,2.217-.047,1.148,0,2.608.047,4.509.082,1.9.1,4.245.135,7.168.135,1.458,0,1.81,0,2.075-.971a25.032,25.032,0,0,0,.533-4.16c0-.4-.044-.888-.351-.888C268.92,106.006,268.832,106.187,268.74,106.588Z" transform="translate(-138.824 -77.518)" fill="#333"/>
      <path id="Path_512" data-name="Path 512" d="M286.913,94.743l-1.592-.891c-3.491-1.944-4.113-3.272-4.113-4.956,0-2.563,2.523-4.018,5.31-4.018a5.232,5.232,0,0,1,4.335,1.767,4.267,4.267,0,0,1,1.018,2.474c0,.447.129.661.4.661.309,0,.485-.4.485-1.193,0-2.959.132-4.023.132-4.506l-.53-.49a23.186,23.186,0,0,0-5.529-.617c-5.4,0-9.82,2.962-9.82,7.57,0,3.308,1.5,5.835,6.1,8.533l2.259,1.321c3.454,2.035,3.849,3.673,3.849,5.308,0,2.657-2.034,4.784-5.4,4.784-2.432,0-5.35-.931-6.186-3.719a6.929,6.929,0,0,1-.359-1.952l-.4-.618c-.309,0-.484.407-.484.98-.047.617-.226,2.965-.226,5,0,.84.133,1.01.749,1.281a16.5,16.5,0,0,0,6.33.978c2.078,0,4.643-.221,6.5-1.551,2.834-1.986,3.893-4.254,3.893-7.037C293.637,100.441,292.046,97.571,286.913,94.743Z" transform="translate(-137.49 -77.528)" fill="#333"/>
      <path id="Path_513" data-name="Path 513" d="M324.366,83.239c-.131,0-.44.087-1.065.175a17.715,17.715,0,0,1-2.647.176h-15.8a37.706,37.706,0,0,1-3.887-.176c-.978-.136-1.375-.441-1.686-.441-.223,0-.351.219-.439.7-.092.305-.846,3.94-.846,4.55,0,.406.09.627.359.627l.439-.488a4.334,4.334,0,0,1,.666-1.282c.572-.842,1.506-1.11,3.759-1.151l5.794-.132v15.212c0,3.457,0,6.419-.174,8.017-.133,1.1-.355,1.805-1.15,1.987a5.507,5.507,0,0,1-1.37.133c-.493,0-.618.219-.618.4,0,.269.258.4.743.4,1.555,0,4.207-.13,5.1-.13,1.1,0,3.716.13,6.277.13.442,0,.749-.13.749-.4,0-.177-.174-.4-.617-.4a14.708,14.708,0,0,1-1.992-.133c-1.143-.181-1.367-.888-1.5-1.948-.18-1.637-.223-4.6-.223-8.056V85.8l4.913.091c3.5.041,4.512,1.192,4.6,2.167l.044.392c.047.578.135.754.444.754.222,0,.307-.217.352-.622,0-.967.091-3.758.091-4.553C324.679,83.458,324.634,83.239,324.366,83.239Z" transform="translate(-136.418 -77.528)" fill="#333"/>
      <path id="Path_514" data-name="Path 514" d="M358.087,111.038c-.619-.129-1.99-.316-4.16-2.486-2.346-2.343-5.084-5.742-8.535-9.991,3.8-3.051,5.4-5.528,5.4-8.316a6.58,6.58,0,0,0-2.745-5.175c-2.077-1.369-4.907-1.6-7.384-1.6-1.194,0-4.736.092-6.064.092-.8,0-3.273-.092-5.3-.092-.578,0-.886.092-.886.357s.265.4.663.4a7.271,7.271,0,0,1,1.547.131c1.24.356,1.595.756,1.68,2.034.044,1.2.044,2.259.044,7.965v6.63c0,3.457,0,6.419-.177,8.017-.132,1.1-.349,1.805-1.149,1.987a5.715,5.715,0,0,1-1.367.133c-.491,0-.622.219-.622.4,0,.269.268.4.754.4,1.544,0,4.022-.13,4.777-.13.577,0,3.8.13,6.056.13.489,0,.8-.13.8-.4l-.49-.4a14.847,14.847,0,0,1-1.9-.133c-1.2-.181-1.371-.888-1.506-1.987-.176-1.6-.217-4.522-.217-8.017v-.519l.308-.315,3.5.086.7.264c.488.581,2.125,3.1,3.675,5.132,2.166,2.913,3.626,4.688,5.308,5.525a8.337,8.337,0,0,0,4.246.758h3.717c.486,0,.749-.083.749-.4l-.486-.4A3.619,3.619,0,0,1,358.087,111.038Zm-14.73-13.36c-.664.49-1.2.625-2.744.625a10.607,10.607,0,0,1-2.963-.363c-.271-.133-.352-.262-.352-.664V86.084l.352-.526a14.684,14.684,0,0,1,2.3-.135c2.3,0,5.929,1.369,5.929,6.683A6.383,6.383,0,0,1,343.357,97.678Z" transform="translate(-134.926 -77.504)" fill="#333"/>
      <path id="Path_515" data-name="Path 515" d="M383.759,83.474c-.752,0-3.315.092-4.158.092-1.147,0-2.518-.092-3.8-.092-.436,0-.66.092-.66.357l.709.444c.664.133.837.483.837.843a4.886,4.886,0,0,1-.578,1.992c-.572,1.143-5.3,9.2-5.791,10.081-.666-1.059-5.753-9.866-6.457-11.013a2.982,2.982,0,0,1-.49-1.285l.532-.573c.617-.185.888-.185.888-.489l-.578-.357c-1.77,0-3.584.092-4.422.092-1.279,0-4.2-.092-4.868-.092-.487,0-.75.092-.75.357l.573.4a3.813,3.813,0,0,1,1.639.487,8.651,8.651,0,0,1,2.52,2.652c1.369,1.986,6.682,10.269,6.949,10.839a7.52,7.52,0,0,1,.879,3.935v3.1c0,.614,0,2.163-.133,3.761-.086,1.1-.4,1.805-1.191,1.987a6.038,6.038,0,0,1-1.37.133c-.445,0-.62.219-.62.4,0,.316.309.4.835.4,1.465,0,4.074-.13,5.049-.13,1.061,0,3.668.13,6.106.13.528,0,.836-.13.836-.4,0-.177-.22-.4-.662-.4a14.961,14.961,0,0,1-1.946-.133c-1.152-.181-1.506-.888-1.594-1.987-.092-1.6-.092-3.147-.092-3.761v-3.012a8.7,8.7,0,0,1,.493-3.759A124.129,124.129,0,0,1,380,86.438a5.233,5.233,0,0,1,2.033-1.767,4.8,4.8,0,0,1,1.679-.441c.447,0,.756-.174.756-.443C384.473,83.566,384.205,83.474,383.759,83.474Z" transform="translate(-133.662 -77.504)" fill="#333"/>
    </g>
  </g>
</svg>
