<svg id="Group_1714" data-name="Group 1714" xmlns="http://www.w3.org/2000/svg" width="164.796" height="43.114" viewBox="0 0 164.796 43.114">
  <path id="Path_785" data-name="Path 785" d="M217.538,227.94a6.666,6.666,0,0,0-3.234.664,10.62,10.62,0,0,0-4.917,4.908l-.425.767.054-1.362c.03-.749.081-2.149.113-3.11l.057-1.748h-.293c-.375,0-12.112,2.346-12.466,2.492-.231.095-.267.2-.267.762,0,.58.03.657.267.707.147.031.686.136,1.2.234,1.038.2,1.347.36,1.775.926.789,1.045.951,2.888.943,10.695-.007,6.383-.14,9.561-.442,10.555a2.6,2.6,0,0,1-2.178,2.056c-.371.069-.861.166-1.089.215l-.415.088-.035.819c-.025.575.011.848.118.917.084.053,4.1.085,8.921.069l8.767-.028.034-.918a2.3,2.3,0,0,0-.059-.918,17.736,17.736,0,0,1-3.1-.424c-.989-.413-1.468-1.3-1.674-3.1-.243-2.115-.386-7.373-.32-11.684.067-4.353.069-4.371.341-4.662a5.7,5.7,0,0,1,3.685-1.215,8.273,8.273,0,0,1,3.619.9,4.748,4.748,0,0,0,1.248.477c.159-.06,3.035-7.661,3.035-8.02C220.8,228.473,219.17,227.94,217.538,227.94Z" transform="translate(-137.742 -216.209)" fill="#877b8d" style="isolation: isolate"/>
  <path id="Path_786" data-name="Path 786" d="M159.966,241.2c-.62-5.258-2.848-9.106-6.528-11.272a16.468,16.468,0,0,0-14.716-.329,14.3,14.3,0,0,0-6.95,8.222,21.159,21.159,0,0,0,0,12.178,13.28,13.28,0,0,0,3.4,5.718,12.874,12.874,0,0,0,7.3,3.536,31.953,31.953,0,0,0,5.336,0,16.817,16.817,0,0,0,1.935-.423c5.207-1.509,8.763-5.51,9.983-11.239A27.689,27.689,0,0,0,159.966,241.2ZM146.78,256.951c-3.238.961-5.557-2.123-6.455-8.586a59.328,59.328,0,0,1,0-10.167c.634-5.2,2.238-7.836,4.767-7.839a3.226,3.226,0,0,1,2.662,1.174c2.121,2.136,3.127,6.215,3.11,12.627-.012,5.116-.521,8.337-1.661,10.516A4.823,4.823,0,0,1,146.78,256.951Z" transform="translate(-101.536 -216.256)" fill="#877b8d" style="isolation: isolate"/>
  <path id="Path_787" data-name="Path 787" d="M80.665,206.542h3.728c4.284,0,4.985.09,6.5.834,2.2,1.079,3.806,3.216,5.208,6.926.571,1.511.564,1.506,1.833,1.12l.843-.256L98.7,209.7c-.043-3.007-.111-5.681-.154-5.942l-.077-.474-16.346-.033c-8.99-.019-16.522,0-16.736.036l-.39.07.034.971.034.971,1.244.149c1.615.193,2.579.647,3.152,1.481,1.29,1.881,1.524,4.442,1.521,16.615,0,12.963-.273,16.11-1.519,17.745a3.436,3.436,0,0,1-2.621,1.39c-1.9.352-1.836.308-1.836,1.29,0,.546.05.841.148.881.213.086,21.122.093,21.346.006.285-.109.269-1.654-.02-1.8a10.928,10.928,0,0,0-1.57-.312,10.516,10.516,0,0,1-1.838-.411c-1.37-.6-2.131-2.244-2.418-5.227-.2-2.14-.365-6.081-.365-9v-2.674l1.273.039a17.118,17.118,0,0,1,4.681.475c1.228.543,2.22,2.057,2.736,4.172l.275,1.126.967.035.968.034V217.077l-.967.034-.968.034-.282,1.124c-.547,2.179-1.441,3.518-2.755,4.126a5.281,5.281,0,0,1-2.192.392c-.849.05-2.038.095-2.641.1l-1.1.006v-3.524c0-3.533.188-11.036.309-12.2Z" transform="translate(-65 -202.511)" fill="#877b8d" style="isolation: isolate"/>
  <path id="Path_788" data-name="Path 788" d="M406.135,245.4c-1-1.993-2.83-3.357-6.672-4.962-3.137-1.31-4.712-2.219-5.674-3.271a3.284,3.284,0,0,1-.933-2.82,3.769,3.769,0,0,1,1.1-2.669,3.838,3.838,0,0,1,3.812-1.038c2.56.541,4.2,2.315,5.617,6.061.5,1.337.564,1.379,1.47,1.043l.573-.213-.019-1.54c-.012-.847-.054-2.625-.1-3.952l-.076-2.412-.428-.181a24.475,24.475,0,0,0-9.72-1.344,11.393,11.393,0,0,0-7.6,3.288,8.729,8.729,0,0,0-2.547,6.861,7.5,7.5,0,0,0,2.144,5.206c1.267,1.295,2.329,1.909,5.378,3.1,4.92,1.921,6.224,3.06,6.212,5.43a4.185,4.185,0,0,1-3,4.148,7.823,7.823,0,0,1-3.373,0c-2.444-.645-4.317-2.763-5.913-6.692l-.408-1.007-.481.022a2.521,2.521,0,0,0-.807.179l-.328.156.031,1.717c.017.944.064,2.935.106,4.424l.075,2.706.546.235a32.618,32.618,0,0,0,6.588,1.443c.261.027,1.7.037,3.2.02a12.4,12.4,0,0,0,4.1-.388c3.861-1.008,6.36-3.16,7.468-6.427a7.343,7.343,0,0,0,.436-2.8A7.875,7.875,0,0,0,406.135,245.4Z" transform="translate(-242.117 -216.266)" fill="#877b8d" style="isolation: isolate"/>
  <path id="Path_789" data-name="Path 789" d="M341.267,229.2c-3.255-1.631-8.282-1.513-11.958.278a13.9,13.9,0,0,0-7.219,8.53,16.908,16.908,0,0,0-.847,6.459,17.289,17.289,0,0,0,.3,3.378c1.373,6.13,5.577,10.3,11.454,11.359a22.235,22.235,0,0,0,5.54.009,15.219,15.219,0,0,0,5.379-2.075c1.657-1.119,3.357-2.8,3.357-3.325,0-.319-.57-1.052-.817-1.052a4.093,4.093,0,0,0-1.023.534,9.051,9.051,0,0,1-5.328,1.479,8.47,8.47,0,0,1-6.753-2.654,7.6,7.6,0,0,1-1.619-2.143,14.725,14.725,0,0,1-1.547-6.367l-.033-1.036,8.767-.03,8.767-.031.039-.592a15.612,15.612,0,0,0-.095-1.9C347.085,234.705,344.931,231.04,341.267,229.2ZM332.435,240l-2.221.036,0-.48a14.356,14.356,0,0,1,.167-1.545c.741-4.771,2.52-7.635,4.747-7.637,2.05,0,3.312,2.818,3.574,7.981l.075,1.464-2.062.072C335.584,239.936,333.656,239.985,332.435,240Z" transform="translate(-207.107 -216.273)" fill="#877b8d" style="isolation: isolate"/>
  <path id="Path_790" data-name="Path 790" d="M268.191,213.965a10.556,10.556,0,0,0-2.69-.126,11.951,11.951,0,0,0-4.977,1.083c-.507.233-.949.425-.983.425s-.029-3.092.011-6.872c.057-5.326.041-6.872-.069-6.874-.386-.006-12.486,2.3-12.619,2.407-.1.078-.141.334-.118.722.039.673-.04.62,1.435.951a4.078,4.078,0,0,1,1.155.429,3.89,3.89,0,0,1,1.185,2.2c.224.858.253,1.472.358,7.276.106,5.925.084,12.017-.078,23.177l-.068,4.636.867.2c1.255.286,4.847.884,6.022,1a44.392,44.392,0,0,0,7.022-.041,14.343,14.343,0,0,0,11.7-9,21.876,21.876,0,0,0,1.188-4.823,28.5,28.5,0,0,0-.218-6.675C276.133,218.645,272.755,214.909,268.191,213.965Zm-8.443,27.961c-.151-.4-.332-14.285-.258-19.832l.058-4.33.785-.231a6.6,6.6,0,0,1,1.857-.231,3.184,3.184,0,0,1,1.977.447c2.037,1.007,3.432,3.508,4.083,7.312a35.047,35.047,0,0,1,.052,6.932c-.532,4.139-1.885,7.477-3.683,9.1a4.392,4.392,0,0,1-2.247,1.152,5.691,5.691,0,0,1-1.941.032C259.951,242.234,259.845,242.18,259.748,241.925Z" transform="translate(-165.794 -201.601)" fill="#877b8d" style="isolation: isolate"/>
</svg>
