<svg xmlns="http://www.w3.org/2000/svg" width="173.625" height="212.042" viewBox="0 0 173.625 212.042"><g transform="translate(-589.792 -274.858)"><g transform="translate(663.638 274.858)"><path d="M679.487,408.723c64.085-20.894,64.085-83.31,0-104.2C615.4,325.414,615.4,387.83,679.487,408.723Z" transform="translate(-629.591 -250.601)" fill="#fff"/><g transform="translate(0 104.227)"><line x2="96.141" transform="translate(1.817 1.818)" fill="#fff"/><path d="M728.375,335.831H632.234a1.818,1.818,0,1,1,0-3.636h96.142a1.818,1.818,0,0,1,0,3.636Z" transform="translate(-630.416 -332.195)" fill="#2b206a"/></g><g transform="translate(8.829 130.254)"><line x1="78.48" transform="translate(1.819 1.818)" fill="#fff"/><path d="M715.571,350.149h-78.48a1.818,1.818,0,1,1,0-3.636h78.48a1.818,1.818,0,0,1,0,3.636Z" transform="translate(-635.273 -346.513)" fill="#2b206a"/></g><g transform="translate(8.898 78.134)"><line x1="78.347" transform="translate(1.816 1.817)" fill="#fff"/><path d="M715.474,321.477H637.129a1.818,1.818,0,1,1,0-3.636h78.345a1.818,1.818,0,1,1,0,3.636Z" transform="translate(-635.311 -317.841)" fill="#2b206a"/></g><path d="M631.425,275.858c0,20.828,16.02,41.655,48.063,52.1,32.008-10.434,48.028-31.228,48.063-52.033" transform="translate(-629.591 -274.04)" fill="#fff"/><g transform="translate(8.829 26.051)"><line x1="78.48" transform="translate(1.819 1.818)" fill="#fff"/><path d="M715.571,292.825h-78.48a1.818,1.818,0,1,1,0-3.636h78.48a1.818,1.818,0,0,1,0,3.636Z" transform="translate(-635.273 -289.189)" fill="#2b206a"/></g><path d="M727.55,413.946c0-20.828-16.02-41.655-48.063-52.1-32.006,10.434-48.026,31.228-48.063,52.033" transform="translate(-629.591 -203.721)" fill="#fff"/><g transform="translate(8.849 182.356)"><line x2="78.48" transform="translate(1.818 1.818)" fill="#fff"/><path d="M715.582,378.811H637.1a1.818,1.818,0,1,1,0-3.636h78.48a1.818,1.818,0,0,1,0,3.636Z" transform="translate(-635.284 -375.175)" fill="#2b206a"/></g><g transform="translate(22.193 21.995)"><g transform="translate(34.54 78.176)"><path d="M663.219,331.558a2.028,2.028,0,0,0-.593,1.434v4.056a2.026,2.026,0,0,0,2.027,2.027h23.824a2.026,2.026,0,0,0,2.027-2.027v-4.056a2.027,2.027,0,0,0-2.027-2.029H664.653A2.022,2.022,0,0,0,663.219,331.558Z" transform="translate(-660.808 -329.146)" fill="#ff7051"/><path d="M689.295,341.711H665.471a3.85,3.85,0,0,1-3.845-3.845V333.81a3.832,3.832,0,0,1,1.122-2.716l0,0a3.82,3.82,0,0,1,2.719-1.127h23.824a3.85,3.85,0,0,1,3.845,3.846v4.056A3.849,3.849,0,0,1,689.295,341.711Zm-25.258-9.334,1.289,1.282a.215.215,0,0,0-.064.153v4.056a.21.21,0,0,0,.209.209h23.824a.21.21,0,0,0,.209-.209V333.81a.211.211,0,0,0-.209-.211H665.471Z" transform="translate(-661.626 -329.964)" fill="#2b206a"/></g><g transform="translate(9.043 104.203)"><path d="M674.45,353.393a2.026,2.026,0,0,0,2.029-2.027v-4.055a2.028,2.028,0,0,0-2.029-2.029H650.628a2.03,2.03,0,0,0-2.029,2.027v4.055a2.027,2.027,0,0,0,2.029,2.029Z" transform="translate(-646.783 -343.464)" fill="#ff7051"/><path d="M675.267,356.029H651.445a3.85,3.85,0,0,1-3.845-3.845v-4.057a3.842,3.842,0,0,1,3.845-3.845h23.822a3.851,3.851,0,0,1,3.846,3.845v4.057a3.845,3.845,0,0,1-3.846,3.845Zm-23.822-8.111-.209.209v4.057a.209.209,0,0,0,.209.209h23.822a.208.208,0,0,0,.149-.06l.062-4.206a.211.211,0,0,0-.211-.209Z" transform="translate(-647.6 -344.282)" fill="#2b206a"/></g><g transform="translate(4.997 52.082)"><path d="M672.225,324.719a2.028,2.028,0,0,0,2.029-2.027v-4.056a2.027,2.027,0,0,0-2.029-2.027H648.4a2.03,2.03,0,0,0-2.029,2.027v4.056a2.029,2.029,0,0,0,2.029,2.029Z" transform="translate(-644.556 -314.79)" fill="#ff7051"/><path d="M649.219,327.357a3.811,3.811,0,0,1-2.718-1.127,3.864,3.864,0,0,1-1.127-2.719v-4.054a3.845,3.845,0,0,1,3.845-3.846l23.824,0a3.873,3.873,0,0,1,2.723,1.131,3.817,3.817,0,0,1,1.123,2.716v4.055a3.85,3.85,0,0,1-3.846,3.845Zm23.824-9.931v1.818l-23.824,0-.209.211v4.054l.209,2.029v-1.818l23.824,0h0a.208.208,0,0,0,.211-.209v-4.055Z" transform="translate(-645.374 -315.609)" fill="#2b206a"/></g><g transform="translate(25.784)"><path d="M683.661,296.069a2.026,2.026,0,0,0,2.027-2.027v-4.055a2.027,2.027,0,0,0-2.027-2.029H659.837a2.03,2.03,0,0,0-2.029,2.029v4.055a2.028,2.028,0,0,0,2.029,2.027Z" transform="translate(-655.992 -286.14)" fill="#ff7051"/><path d="M684.478,298.7H660.654a3.849,3.849,0,0,1-3.845-3.845V290.8a3.845,3.845,0,0,1,3.845-3.845h23.824a3.851,3.851,0,0,1,3.846,3.845v4.057A3.851,3.851,0,0,1,684.478,298.7Zm-23.824-8.111-.209.209v4.057a.209.209,0,0,0,.209.209h23.824a.211.211,0,0,0,.211-.209V290.8a.211.211,0,0,0-.211-.209Z" transform="translate(-656.809 -286.958)" fill="#2b206a"/></g><g transform="translate(0 156.303)"><path d="M645.654,382.055h23.822a2.088,2.088,0,0,0,2.029-2.027v-4.055a2.028,2.028,0,0,0-2.029-2.029H645.654a2.026,2.026,0,0,0-2.029,2.027v4.056A2.028,2.028,0,0,0,645.654,382.055Z" transform="translate(-641.807 -372.124)" fill="#ff7051"/><path d="M670.294,384.691l-23.824,0a3.849,3.849,0,0,1-3.845-3.845v-4.054a3.867,3.867,0,0,1,1.131-2.723,3.81,3.81,0,0,1,2.714-1.125l23.824,0a3.851,3.851,0,0,1,3.846,3.846v4.055A3.9,3.9,0,0,1,670.294,384.691Zm-23.824-8.113-.209.213v4.054a.21.21,0,0,0,.209.209h0l23.824,0a.308.308,0,0,0,.211-.209v-4.055a.209.209,0,0,0-.211-.211Z" transform="translate(-642.625 -372.943)" fill="#2b206a"/></g></g><path d="M680.305,411.358a1.851,1.851,0,0,1-.562-.089c-30.423-9.918-49.319-30.544-49.319-53.829s18.9-43.914,49.319-53.832a1.856,1.856,0,0,1,1.125,0c30.421,9.918,49.319,30.544,49.319,53.832s-18.9,43.911-49.319,53.829A1.864,1.864,0,0,1,680.305,411.358Zm0-104.107c-28.541,9.48-46.245,28.672-46.245,50.189s17.7,40.706,46.245,50.186c28.541-9.48,46.247-28.67,46.247-50.186S708.847,316.731,680.305,307.251Z" transform="translate(-630.409 -251.417)" fill="#2b206a"/><path d="M680.305,330.6a1.846,1.846,0,0,1-.562-.087c-30.423-9.92-49.319-30.546-49.319-53.832a1.818,1.818,0,1,1,3.636,0c0,21.517,17.7,40.71,46.245,50.189,28.507-9.469,46.208-28.636,46.247-50.122a1.818,1.818,0,0,1,1.818-1.816h0a1.82,1.82,0,0,1,1.814,1.821c-.04,23.253-18.938,43.851-49.319,53.76A1.859,1.859,0,0,1,680.305,330.6Z" transform="translate(-630.409 -274.858)" fill="#2b206a"/><path d="M728.37,416.581a1.816,1.816,0,0,1-1.818-1.818c0-21.517-17.706-40.71-46.247-50.189-28.5,9.467-46.208,28.634-46.245,50.124a1.818,1.818,0,0,1-1.818,1.814h0a1.817,1.817,0,0,1-1.814-1.821c.038-23.255,18.938-43.853,49.319-53.758a1.83,1.83,0,0,1,1.125,0c30.421,9.92,49.319,30.544,49.319,53.83A1.817,1.817,0,0,1,728.37,416.581Z" transform="translate(-630.409 -204.539)" fill="#2b206a"/></g><g transform="translate(589.792 304.964)"><g transform="translate(12.499)"><path d="M652.407,373.11H605.166a7.5,7.5,0,0,1-7.5-7.5V323.539a31.119,31.119,0,1,1,62.238,0v42.073A7.5,7.5,0,0,1,652.407,373.11Zm-39.742-15h32.244V323.539a16.122,16.122,0,1,0-32.244,0Z" transform="translate(-595.85 -290.602)" fill="#cbc5ce"/><path d="M653.225,375.748H605.984a9.328,9.328,0,0,1-9.316-9.318V324.357a32.937,32.937,0,1,1,65.873,0V366.43A9.328,9.328,0,0,1,653.225,375.748ZM629.6,295.056a29.334,29.334,0,0,0-29.3,29.3V366.43a5.689,5.689,0,0,0,5.681,5.682h47.241a5.689,5.689,0,0,0,5.681-5.682V324.357A29.334,29.334,0,0,0,629.6,295.056Zm16.122,65.693H613.483a1.817,1.817,0,0,1-1.818-1.818V324.357a17.94,17.94,0,1,1,35.88,0v34.575A1.817,1.817,0,0,1,645.727,360.749ZM615.3,357.113h28.608V324.357a14.3,14.3,0,1,0-28.608,0Z" transform="translate(-596.668 -291.42)" fill="#2b206a"/></g><g transform="translate(0 45.301)"><rect width="87.236" height="87.236" rx="5.367" transform="translate(1.818 1.817)" fill="#cbc5ce"/><path d="M669.088,407.213H601.366a11.587,11.587,0,0,1-11.574-11.576V327.915a11.586,11.586,0,0,1,11.574-11.574h67.722a11.587,11.587,0,0,1,11.576,11.574v67.722A11.587,11.587,0,0,1,669.088,407.213Zm-67.722-87.236a7.947,7.947,0,0,0-7.938,7.938v67.722a7.949,7.949,0,0,0,7.938,7.94h67.722a7.95,7.95,0,0,0,7.94-7.94V327.915a7.949,7.949,0,0,0-7.94-7.938Z" transform="translate(-589.792 -316.341)" fill="#2b206a"/></g><g transform="translate(30.388 67.189)"><path d="M634.263,342.759a13.377,13.377,0,1,0-19.8,11.736v18.347h12.843V354.495A13.371,13.371,0,0,0,634.263,342.759Z" transform="translate(-605.691 -327.564)" fill="#ff7051"/><path d="M628.125,375.478H615.282a1.816,1.816,0,0,1-1.818-1.818V356.345a15.2,15.2,0,1,1,16.478,0V373.66A1.816,1.816,0,0,1,628.125,375.478ZM617.1,371.842h9.207V355.313a1.823,1.823,0,0,1,.943-1.594,11.558,11.558,0,1,0-11.094,0,1.82,1.82,0,0,1,.944,1.594Z" transform="translate(-606.509 -328.382)" fill="#2b206a"/></g></g></g></svg>