<svg xmlns="http://www.w3.org/2000/svg" width="260.198" height="260.198" viewBox="0 0 260.198 260.198"><g transform="translate(-549 -1287)"><circle cx="130.099" cy="130.099" r="130.099" transform="translate(549 1287)" fill="#f6f7fa"/><g transform="matrix(0.848, 0.53, -0.53, 0.848, 687.579, 1309.122)"><g transform="translate(0)"><g transform="translate(25.623 157.855)"><g transform="translate(10.993 4.871)"><rect width="39.655" height="10.787" transform="matrix(0.999, 0.054, -0.054, 0.999, 2.777, 2.189)" fill="#ff7051"/><path d="M41.789,17.305c-.039,0-.081,0-.12,0l-39.6-2.155A2.19,2.19,0,0,1,0,12.842L.59,2.07A2.2,2.2,0,0,1,2.9,0l39.6,2.155a2.191,2.191,0,0,1,2.069,2.306l-.587,10.77a2.192,2.192,0,0,1-2.186,2.072ZM4.495,10.893l35.224,1.916.348-6.4L4.845,4.495Z" fill="#2b206a"/></g><circle cx="10.195" cy="10.195" r="10.195" transform="translate(2.191 2.193)" fill="#fff"/><path d="M12.4,24.773c-.228,0-.458-.007-.688-.018a12.417,12.417,0,1,1,.688.018Zm-.02-20.39a8,8,0,0,0-.429,16,8,8,0,0,0,8.429-7.557h0a8.008,8.008,0,0,0-7.559-8.429C12.674,4.385,12.527,4.383,12.381,4.383Z" fill="#2b206a"/><g transform="translate(42.236 2.298)"><circle cx="10.195" cy="10.195" r="10.195" transform="translate(2.191 2.193)" fill="#fff"/><path d="M12.393,24.772c-.226,0-.451,0-.679-.018a12.4,12.4,0,1,1,.679.018Zm-.011-20.39a8.006,8.006,0,1,0,8,8.442v0a8,8,0,0,0-7.557-8.429C12.674,4.387,12.527,4.382,12.382,4.382Z" fill="#2b206a"/></g></g><g transform="translate(20.887 0)"><g transform="translate(10.734 4.94)"><rect width="39.655" height="10.787" transform="translate(3.29 2.191) rotate(5.855)" fill="#f6f7fa"/><path d="M41.639,19.156a1.985,1.985,0,0,1-.226-.011L1.965,15.1A2.189,2.189,0,0,1,.012,12.7l1.1-10.73A2.187,2.187,0,0,1,3.513.012L42.962,4.059a2.19,2.19,0,0,1,1.956,2.4l-1.1,10.73A2.19,2.19,0,0,1,41.639,19.156ZM4.591,10.968l35.093,3.6.653-6.375L5.243,4.591Z" fill="#2b206a"/></g><circle cx="10.195" cy="10.195" r="10.195" transform="translate(2.192 2.191)" fill="#fff"/><path d="M12.4,24.77a12.479,12.479,0,0,1-1.272-.063,12.395,12.395,0,1,1,1.272.063ZM12.382,4.38a8,8,0,1,0,.821.042A8.021,8.021,0,0,0,12.382,4.38Z" fill="#2b206a"/><g transform="translate(42.081 4.317)"><circle cx="10.195" cy="10.195" r="10.195" transform="translate(2.19 2.189)" fill="#fff"/><path d="M12.393,24.77A12.542,12.542,0,0,1,11.12,24.7,12.385,12.385,0,1,1,24.7,13.648h0A12.4,12.4,0,0,1,12.393,24.77ZM12.379,4.38a8,8,0,1,0,.823.042A8.015,8.015,0,0,0,12.379,4.38Z" fill="#2b206a"/></g></g><g transform="translate(25.705 131.224)"><g transform="translate(10.728 4.993)"><rect width="39.655" height="10.787" transform="translate(2.19 6.262) rotate(-5.894)" fill="#ff7051"/><path d="M3.3,19.183A2.19,2.19,0,0,1,1.12,17.216L.012,6.486a2.19,2.19,0,0,1,1.953-2.4L41.412.01a2.221,2.221,0,0,1,1.605.48,2.182,2.182,0,0,1,.8,1.474l1.108,10.73a2.193,2.193,0,0,1-1.953,2.4L3.522,19.169A1.909,1.909,0,0,1,3.3,19.183Zm1.3-10.967.659,6.373,35.089-3.622-.659-6.373Z" fill="#2b206a"/></g><g transform="translate(0 4.346)"><circle cx="10.195" cy="10.195" r="10.195" transform="translate(2.19 2.192)" fill="#fff"/><path d="M12.362,24.774a12.406,12.406,0,1,1,1.294-.068A12.286,12.286,0,0,1,12.362,24.774Zm.026-20.392a8.109,8.109,0,0,0-.826.042,8.014,8.014,0,1,0,.826-.042Z" fill="#2b206a"/></g><g transform="translate(42.074 0)"><circle cx="10.195" cy="10.195" r="10.195" transform="translate(2.191 2.194)" fill="#fff"/><path d="M12.378,24.775a12.408,12.408,0,1,1,1.281-.068A12.006,12.006,0,0,1,12.378,24.775Zm.015-20.392a7.63,7.63,0,0,0-.83.044,7.991,7.991,0,1,0,.83-.044Z" fill="#2b206a"/></g></g><g transform="translate(19.876 27.331)"><g transform="translate(10.729 4.993)"><rect width="39.655" height="10.787" transform="translate(2.191 6.26) rotate(-5.894)" fill="#f6f7fa"/><path d="M3.3,19.18a2.19,2.19,0,0,1-2.177-1.967L.011,6.486a2.19,2.19,0,0,1,1.953-2.4L41.411.01a2.222,2.222,0,0,1,1.605.48,2.182,2.182,0,0,1,.8,1.474l1.108,10.73a2.191,2.191,0,0,1-1.953,2.4L3.522,19.169C3.447,19.176,3.371,19.18,3.3,19.18Zm1.3-10.965.659,6.372L40.34,10.964l-.657-6.373Z" fill="#2b206a"/></g><g transform="translate(0 4.343)"><circle cx="10.195" cy="10.195" r="10.195" transform="translate(2.192 2.194)" fill="#fff"/><path d="M12.381,24.775A12.386,12.386,0,1,1,24.707,11.117h0A12.4,12.4,0,0,1,13.659,24.71,12.6,12.6,0,0,1,12.381,24.775Zm.013-20.392a8.214,8.214,0,0,0-.83.044,7.992,7.992,0,1,0,.83-.044Z" fill="#2b206a"/></g><g transform="translate(42.076 0)"><circle cx="10.195" cy="10.195" r="10.195" transform="translate(2.191 2.193)" fill="#fff"/><path d="M12.376,24.774A12.385,12.385,0,0,1,11.115.069a12.383,12.383,0,0,1,13.59,11.048,12.4,12.4,0,0,1-11.048,13.59A11.993,11.993,0,0,1,12.376,24.774ZM12.4,4.384a8.326,8.326,0,0,0-.839.042,8.006,8.006,0,1,0,8.786,7.141h0A8.008,8.008,0,0,0,12.4,4.384Z" fill="#2b206a"/></g></g><g transform="translate(18.573 103.384)"><g transform="translate(10.564 5.219)"><rect width="53.227" height="10.787" transform="matrix(0.991, -0.133, 0.133, 0.991, 2.191, 9.247)" fill="#ff7051"/><path d="M3.617,22.13a2.188,2.188,0,0,1-2.166-1.9L.019,9.538A2.192,2.192,0,0,1,1.9,7.076L54.657.018A2.191,2.191,0,0,1,57.118,1.9l1.43,10.693a2.189,2.189,0,0,1-1.881,2.459L3.913,22.11A2.282,2.282,0,0,1,3.617,22.13Zm1.036-11L5.5,17.478,53.917,11l-.85-6.353Z" fill="#2b206a"/></g><g transform="translate(0 7.573)"><circle cx="10.195" cy="10.195" r="10.195" transform="translate(2.192 2.19)" fill="#fff"/><path d="M12.379,24.77A12.385,12.385,0,1,1,24.662,10.744v0A12.384,12.384,0,0,1,12.379,24.77ZM12.4,4.378a8.132,8.132,0,0,0-1.077.072,8.007,8.007,0,1,0,9,6.874v0A8.006,8.006,0,0,0,12.4,4.378Z" fill="#2b206a"/></g><g transform="translate(56.605 0)"><circle cx="10.195" cy="10.195" r="10.195" transform="translate(2.19 2.191)" fill="#fff"/><path d="M12.376,24.773A12.386,12.386,0,1,1,24.661,10.745h0A12.4,12.4,0,0,1,14.027,24.663,12.769,12.769,0,0,1,12.376,24.773ZM12.4,4.381a8.145,8.145,0,0,0-1.08.072,8,8,0,1,0,9,6.872h0A8.007,8.007,0,0,0,12.4,4.381Z" fill="#2b206a"/></g></g><g transform="translate(14.683 53.752)"><g transform="translate(10.563 5.219)"><rect width="53.227" height="10.787" transform="matrix(0.991, -0.133, 0.133, 0.991, 2.191, 9.247)" fill="#ff7051"/><path d="M3.617,22.13a2.188,2.188,0,0,1-2.166-1.9L.019,9.538A2.192,2.192,0,0,1,1.9,7.076L54.657.018A2.192,2.192,0,0,1,57.118,1.9l1.43,10.693a2.189,2.189,0,0,1-1.879,2.459L3.913,22.11A2.262,2.262,0,0,1,3.617,22.13Zm1.036-11L5.5,17.478,53.917,11,53.069,4.65Z" fill="#2b206a"/></g><g transform="translate(0 7.573)"><circle cx="10.195" cy="10.195" r="10.195" transform="translate(2.192 2.19)" fill="#fff"/><path d="M12.378,24.771A12.385,12.385,0,1,1,24.663,10.745v0A12.387,12.387,0,0,1,12.378,24.771ZM12.4,4.379a8.138,8.138,0,0,0-1.077.072,8.007,8.007,0,1,0,9,6.874v0A8.007,8.007,0,0,0,12.4,4.379Z" fill="#2b206a"/></g><g transform="translate(56.604 0)"><circle cx="10.195" cy="10.195" r="10.195" transform="translate(2.19 2.191)" fill="#fff"/><path d="M12.36,24.773a12.386,12.386,0,1,1,12.3-14.031v0a12.4,12.4,0,0,1-12.3,14.028Zm.031-20.392a8.005,8.005,0,1,0,1.056,15.94,8.005,8.005,0,0,0-1.056-15.94Z" fill="#2b206a"/></g></g><g transform="translate(0 77.065)"><g transform="translate(12.416 5.442)"><rect width="81.095" height="10.787" transform="translate(2.19 14.792) rotate(-8.94)" fill="#ff7051"/><path d="M3.865,27.638A2.185,2.185,0,0,1,1.7,25.787L.026,15.133a2.191,2.191,0,0,1,1.824-2.5L81.961.028a2.194,2.194,0,0,1,2.5,1.822l1.675,10.658a2.187,2.187,0,0,1-1.822,2.5l-80.11,12.6A2.222,2.222,0,0,1,3.865,27.638Zm.828-11.022,1,6.329L81.473,11.023l-1-6.329Z" fill="#2b206a"/></g><g transform="translate(0 13.658)"><circle cx="10.195" cy="10.195" r="10.195" transform="translate(2.193 2.192)" fill="#fff"/><path d="M12.382,24.774a12.393,12.393,0,1,1,1.932-.151A12.579,12.579,0,0,1,12.382,24.774ZM12.4,4.382a8.144,8.144,0,0,0-1.259.1A8.007,8.007,0,1,0,20.3,11.144v0A8.011,8.011,0,0,0,12.4,4.382Z" fill="#2b206a"/></g><g transform="translate(86.809 0)"><circle cx="10.195" cy="10.195" r="10.195" transform="translate(2.191 2.194)" fill="#fff"/><path d="M12.38,24.776a12.389,12.389,0,1,1,1.932-.151A12.579,12.579,0,0,1,12.38,24.776ZM12.4,4.384a8.007,8.007,0,1,0,4.7,1.535A7.941,7.941,0,0,0,12.4,4.384Z" fill="#2b206a"/></g></g></g></g></g></svg>