<svg xmlns="http://www.w3.org/2000/svg" width="141.248" height="103.706" viewBox="0 0 141.248 103.706"><defs><style>.a{fill:#cbc5ce;}.b{fill:#2b206a;}.c{fill:#ff7051;}</style></defs><g transform="translate(-446.51 -360.074)"><g transform="translate(494.208 360.074)"><path class="a" d="M557.906,407.384s6.607-6.134,6.291-12.819l-.393-.55s-2.517,1.494-4.247,1.18l-1.023.628s-.864-.707-2.358.471c0,0-1.258-2.044-2.674-1.416l.944-.943s-.552-1.887-4.956-4.09a14.285,14.285,0,0,1-2.044-3.776l-1.732-1.1s-.236-1.653-.471-3.383c0,0-.943-1.259-1.965-1.337a15.027,15.027,0,0,1-.236-2.2s-.866-.079-2.124-2.831a19.548,19.548,0,0,0-1.887-2.831l-.63-1.18.316-.471s1.416,2.358,2.437,2.753c0,0,1.337-1.651-.078-4.482a4.245,4.245,0,0,1-3.538-.316,9.559,9.559,0,0,0-2.831,1.023,2.177,2.177,0,0,0-2.2-.236s.473-1.1-3.852-.866l1.258-.314-2.6-.471a.543.543,0,0,0,.078-.709c-.236-.471-3.145-.707-4.168,1.416,0,0,1.1,1.1-.63,1.73a7.816,7.816,0,0,0-3.931-1.257,2.686,2.686,0,0,1-.866-1.575,3.93,3.93,0,0,0-2.831-.314s-.864-1.416-2.123-.943c0,0-1.73-.944.393-2.046a1.429,1.429,0,0,0-.787-1.73s.709-.079.787-1.1a2.648,2.648,0,0,0-2.753.393s-1.258-.864-3.46.08a7.661,7.661,0,0,0-6.293.471h-1.416a3.878,3.878,0,0,1-5.032-.709,3.273,3.273,0,0,0-1.73,1.889,14.25,14.25,0,0,1-3.618,1.808,4.469,4.469,0,0,0-1.259,3.145,7.683,7.683,0,0,1-4.09,2.36,3.984,3.984,0,0,0-1.494,1.965s-1.494,0-2.358,2.438c0,0-2.753,2.2-3.461,4.247,0,0,1.81,3.46-2.044,8.808l.944,1.651-.709,1.887s3.224,1.1,4.325,6.842c0,0,2.753,1.965,6.212,4.4,0,0,6.371-1.887,8.415-.157,0,0,8.965-4.8,10.067.393,0,0-.079.866,4.09-.157a2.9,2.9,0,0,1,.787,4.326,3.523,3.523,0,0,1-.63,2.831,13.135,13.135,0,0,1,.393,1.494s5.662,5.348,5.584,8.886l-.55.473s1.573,2.91,1.023,4.247-2.2.393-2.281,7.392c0,0,3.619,5.111,3.619,6.841,0,0-.552,4.327,2.28,7a20.95,20.95,0,0,1,1.573,3.461,1.271,1.271,0,0,1,.314,2.044,2.709,2.709,0,0,0,2.36,2.439,8.584,8.584,0,0,1,5.505-.63c2.988.709,6.369-2.831,7.942-5.425l1.889-1.416s1.573-2.046.628-3.383a2.02,2.02,0,0,1,1.494-1.259s3.7,0,2.2-5.425c0,0-1.416-.944,1.808-2.36a3.584,3.584,0,0,0,1.337-1.494s4.4-.944,4.875-3.618c0,0-.079-3.46-.079-4.482,0,0,1.259-.864-.785-1.73a2.649,2.649,0,0,0-.787-2.122s1.573-1.73-.236-2.753a11.244,11.244,0,0,1,4.326-6.528S554.6,408.014,557.906,407.384Zm2.638,19.926s-1.876,3.5-5.425,4.209a1.77,1.77,0,0,0-1.523,1.723s.862,2.74-.609,4.261a3.706,3.706,0,0,0-.607,3.651,2.34,2.34,0,0,0,.254,2.181s.912.557.962.862a6.046,6.046,0,0,1,2.638-.862s2.13-4.666,3.651-8.57a10.47,10.47,0,0,0,1.369-3.956l.355.81s1.521-1.723-.355-4.766C561.255,426.852,560.6,426.7,560.544,427.309Z" transform="translate(-472.445 -359.288)"/><path class="b" d="M522.829,457.063c-.043,0-.088,0-.13-.005a4.423,4.423,0,0,1-4.006-4.033,1.746,1.746,0,0,0-.309-2.006,25.342,25.342,0,0,0-1.246-2.6c-2.894-2.944-2.71-7.171-2.626-8.121a25.139,25.139,0,0,0-3.286-5.773,1.785,1.785,0,0,1-.327-1.051c.063-5.525,1.068-6.867,2.274-7.946a1.579,1.579,0,0,0,.177-.166,9.34,9.34,0,0,0-.978-2.66,1.787,1.787,0,0,1,.246-2.044c-.511-1.994-3.054-5.089-4.934-6.864a1.788,1.788,0,0,1-.553-1.132c-.068-.346-.314-1.118-.318-1.13a1.785,1.785,0,0,1,.286-1.614,1.759,1.759,0,0,0,.312-1.33,1.883,1.883,0,0,1,.277-1.448,1.361,1.361,0,0,0,.336-.964,1,1,0,0,0-.175-.382c-2.476.53-3.815.436-4.661-.289a2.209,2.209,0,0,1-.655-1.135l-.011,0c-.116-.552-.332-.721-.548-.823-1.425-.653-4.972.586-6.928,1.633a1.784,1.784,0,0,1-1.994-.212c-.673-.564-3.954-.319-6.759.507a1.787,1.787,0,0,1-1.533-.252c-3.465-2.442-6.221-4.411-6.221-4.411a1.8,1.8,0,0,1-.718-1.117c-.862-4.509-3.1-5.466-3.194-5.5a1.833,1.833,0,0,1-1.05-2.3l.414-1.1-.527-.925a1.785,1.785,0,0,1,.1-1.928c3.076-4.27,1.94-6.867,1.89-6.976a1.906,1.906,0,0,1-.086-1.371,13.052,13.052,0,0,1,3.651-4.738,5.1,5.1,0,0,1,2.542-2.833,6.157,6.157,0,0,1,1.819-1.982,1.77,1.77,0,0,1,.66-.27,5.728,5.728,0,0,0,2.644-1.355,6.5,6.5,0,0,1,1.771-3.658,1.771,1.771,0,0,1,.83-.47,11.21,11.21,0,0,0,2.667-1.3,4.76,4.76,0,0,1,2.588-2.369,1.783,1.783,0,0,1,1.8.466,2.052,2.052,0,0,0,2.756.468,1.909,1.909,0,0,1,1-.3h.941a9.366,9.366,0,0,1,6.714-.575,5.831,5.831,0,0,1,3.3-.177,4.477,4.477,0,0,1,3.724-.021,1.79,1.79,0,0,1,1.018,1.751,3.578,3.578,0,0,1-.209.969,3.256,3.256,0,0,1,.12,2.3,4.012,4.012,0,0,1,.71.489,6.12,6.12,0,0,1,3.028.682,1.786,1.786,0,0,1,.909,1.376,8.354,8.354,0,0,1,2.033.534l.009-.021a5.062,5.062,0,0,1,4.593-2.747h.041a2.838,2.838,0,0,1,2.737,1.3l1.241.225a1.806,1.806,0,0,1,.714.3,4.841,4.841,0,0,1,2.349.694,4.118,4.118,0,0,1,1.382.173,13.389,13.389,0,0,1,2.515-.768,1.773,1.773,0,0,1,1.148.154,2.652,2.652,0,0,0,2.028.275,1.844,1.844,0,0,1,2.31.837c1.5,3,.662,5.384-.094,6.359a6.759,6.759,0,0,0,1.124,1.826,1.787,1.787,0,0,1,1.123,1.566c.02.389.045.718.072.987a6.153,6.153,0,0,1,1.774,1.573,1.8,1.8,0,0,1,.343.832c.13.969.262,1.915.353,2.556l1.037.659a1.784,1.784,0,0,1,.689.819,16.98,16.98,0,0,0,1.569,3.056c4.409,2.294,5.32,4.4,5.5,5a1.9,1.9,0,0,1,.061.3c.127.093.252.195.373.3a3.566,3.566,0,0,1,1.712-.17l.314-.195a1.783,1.783,0,0,1,1.257-.236,6.254,6.254,0,0,0,3.019-.96,1.786,1.786,0,0,1,2.36.5l.395.552a1.787,1.787,0,0,1,.332.955c.348,7.426-6.566,13.937-6.86,14.21a1.8,1.8,0,0,1-.88.446c-2.067.393-4,2.794-4.57,3.686a1.789,1.789,0,0,1-.439.473,9.778,9.778,0,0,0-3.376,4.5,3.033,3.033,0,0,1,.6,1.382,3.44,3.44,0,0,1-.25,1.882,4.48,4.48,0,0,1,.366,1.11,2.673,2.673,0,0,1,1.234,1.944,2.408,2.408,0,0,1-.366,1.535c.018,1.376.073,3.788.073,3.788a1.791,1.791,0,0,1-.029.35c-.525,3-3.84,4.352-5.443,4.838a5.834,5.834,0,0,1-1.592,1.485,1.653,1.653,0,0,1-.216.112,7.8,7.8,0,0,0-.769.384c.662,2.5.464,4.472-.591,5.857a4.381,4.381,0,0,1-2.8,1.646,6.022,6.022,0,0,1-1.271,3.993,1.842,1.842,0,0,1-.345.341l-1.621,1.214c-1.783,2.794-5.643,6.9-9.691,5.936a6.792,6.792,0,0,0-4.256.469A1.8,1.8,0,0,1,522.829,457.063Zm-.427-3.927a.719.719,0,0,0,.255.268,10.44,10.44,0,0,1,6.089-.493c1.669.4,4.459-2.065,6-4.613a1.787,1.787,0,0,1,.457-.505l1.66-1.244a2.437,2.437,0,0,0,.443-1.153,1.663,1.663,0,0,1-.2-1.569,3.729,3.729,0,0,1,2.926-2.428,1.975,1.975,0,0,1,.252-.016.87.87,0,0,0,.539-.309c.116-.161.434-.791.043-2.464a2.437,2.437,0,0,1-.466-1.653c.143-1.632,1.757-2.572,3.031-3.147a1.878,1.878,0,0,0,.521-.534,1.894,1.894,0,0,1,1.3-1.135c1.078-.237,3.133-1.071,3.458-2.057-.018-.789-.073-3.424-.073-4.3a1.75,1.75,0,0,1,.016-.239,1.784,1.784,0,0,1-.787-1.71v0a.9.9,0,0,0-.223-.591,1.784,1.784,0,0,1-.114-2.515.758.758,0,0,0,.066-.093,1.91,1.91,0,0,1-.741-1.751,13.035,13.035,0,0,1,4.764-7.473c.684-.994,2.954-3.981,6.164-4.868,1.071-1.093,4.515-4.89,5.268-9.12a7.716,7.716,0,0,1-2.281.38l-.523.323a1.787,1.787,0,0,1-1.737.075,1.744,1.744,0,0,0-.453.278,1.8,1.8,0,0,1-1.418.355,1.776,1.776,0,0,1-1.208-.823,2.654,2.654,0,0,0-.607-.652,1.784,1.784,0,0,1-1.915-2.842,13.637,13.637,0,0,0-3.44-2.294,1.731,1.731,0,0,1-.518-.391,14.316,14.316,0,0,1-2.153-3.772l-1.264-.8a1.791,1.791,0,0,1-.809-1.251s-.191-1.332-.4-2.858a1.7,1.7,0,0,0-.468-.344,1.712,1.712,0,0,1-1.548-1.383,13.356,13.356,0,0,1-.211-1.583,9.62,9.62,0,0,1-2.028-3.094,25.964,25.964,0,0,0-1.412-2.2,1.836,1.836,0,0,1-.428-.528l-.628-1.18a1.78,1.78,0,0,1-.154-1.284,3.872,3.872,0,0,0-.916.393,1.787,1.787,0,0,1-2.162-.046,1.153,1.153,0,0,0-.555.068,1.784,1.784,0,0,1-1.86-.5,1.744,1.744,0,0,1-.18-.236,11.127,11.127,0,0,0-2.253-.045,1.782,1.782,0,0,1-1.575-.78l-.179-.032a1.786,1.786,0,0,1-1.266-.934,1.7,1.7,0,0,0-.419.161,2.547,2.547,0,0,1-.013,1.025,2.943,2.943,0,0,1-2.09,2.107,1.79,1.79,0,0,1-1.576-.177,5.783,5.783,0,0,0-2.8-.98,1.8,1.8,0,0,1-1.364-.459,4.943,4.943,0,0,1-1.135-1.532,1.576,1.576,0,0,0-.794.018,1.783,1.783,0,0,1-2.089-.764,1.12,1.12,0,0,0-.138-.15,1.791,1.791,0,0,1-1.317-.155,2.9,2.9,0,0,1-1.594-2.494,2.562,2.562,0,0,1,.693-1.714c-.034-.043-.068-.087-.1-.132a1.776,1.776,0,0,1-1.519-.241,2,2,0,0,0-.452-.052,3.279,3.279,0,0,0-1.292.3,1.79,1.79,0,0,1-1.359.02,5.9,5.9,0,0,0-4.693.327,1.783,1.783,0,0,1-.943.27h-.935a5.591,5.591,0,0,1-5.464-.173,2.946,2.946,0,0,0-.152.3,1.8,1.8,0,0,1-.612.736,17.09,17.09,0,0,1-3.6,1.894,2.365,2.365,0,0,0-.511,1.432,1.785,1.785,0,0,1-.405,1.3,9.431,9.431,0,0,1-4.681,2.874,1.93,1.93,0,0,0-.552.769,1.783,1.783,0,0,1-1.559,1.316c-.089.039-.489.266-.843,1.259a1.776,1.776,0,0,1-.564.8,12.381,12.381,0,0,0-2.66,2.94c.405,1.487.744,4.673-1.862,8.8l.393.687a1.791,1.791,0,0,1,.121,1.512l-.191.509a11.223,11.223,0,0,1,3.738,6.544c.886.63,2.733,1.944,4.95,3.508,1.969-.509,5.686-1.228,8.122-.23,1.989-.939,6.305-2.637,9.227-1.276a4.364,4.364,0,0,1,2.187,2.222,16.084,16.084,0,0,0,2.271-.425,1.772,1.772,0,0,1,1.362.216,5.139,5.139,0,0,1,2.222,3.126,4.532,4.532,0,0,1-.525,3.117,5.3,5.3,0,0,1-.537,2.685c.034.127.066.239.089.341,1.589,1.569,5.814,6.1,5.732,9.825a1.8,1.8,0,0,1-.193.769c.566,1.326,1.11,3.187.532,4.59a3.709,3.709,0,0,1-1.064,1.409c-.344.309-.975.871-1.075,4.757,1.485,2.144,3.61,5.537,3.61,7.391a1.906,1.906,0,0,1-.014.225c0,.027-.382,3.476,1.735,5.475a1.806,1.806,0,0,1,.345.45,25.315,25.315,0,0,1,1.578,3.3,3.114,3.114,0,0,1,.918,1.773A2.821,2.821,0,0,1,522.4,453.135Zm-4.033-2.34v0Zm30.944-24.906Zm9.377-17.719h0Zm-52.644-4.013v0Zm0-.323a1.6,1.6,0,0,1,0,.32A1.593,1.593,0,0,0,506.045,403.833Zm52.149-5.839h0Zm-.005,0,0,0Zm-13.651-20.768Zm-.53-.162Zm-.005,0h0Zm-.005,0,0,0Zm-.005,0h0Zm-61.109-1.785h0Zm0,0h0Zm.005,0h0Zm0,0Zm56-.568,0,0Zm-4.663-2.938,0,0Zm-.005-.005,0,0Zm20.152,75.006a1.782,1.782,0,0,1-1.535-.875,4.272,4.272,0,0,0-.361-.252,1.758,1.758,0,0,1-.4-.339,3.83,3.83,0,0,1-.759-3.4A5.3,5.3,0,0,1,552.537,437c.487-.507.305-1.9.139-2.447a1.808,1.808,0,0,1-.077-.639,3.519,3.519,0,0,1,3.113-3.385,6.868,6.868,0,0,0,3.936-3.1,2.232,2.232,0,0,1,.812-1.151,2.5,2.5,0,0,1,1.98-.38,1.79,1.79,0,0,1,1.119.8c2.026,3.29,1.062,5.875.173,6.883a1.706,1.706,0,0,1-.377.325,13.1,13.1,0,0,1-1.076,2.428c-1.519,3.875-3.551,8.335-3.638,8.524a1.774,1.774,0,0,1-1.932,1.018,9.543,9.543,0,0,0-1.446.655A1.784,1.784,0,0,1,554.381,446.768Zm-1.76-1.487Zm0-.005v0Zm3.608-11.221c.25,1.146.546,3.7-1.173,5.475a2.135,2.135,0,0,0-.17,1.944,1.779,1.779,0,0,1-.055,1.107.884.884,0,0,0-.041.218,7.329,7.329,0,0,1,1.019-.337c.693-1.546,2.11-4.768,3.2-7.56a1.785,1.785,0,0,1,.146-.293,9.32,9.32,0,0,0,.982-2.426,9,9,0,0,1-3.883,1.873Z" transform="translate(-473.23 -360.074)"/></g><g transform="translate(446.51 409.062)"><g transform="translate(0 6.155)"><g transform="translate(4.366)"><circle class="c" cx="7.161" cy="7.161" r="7.161" transform="translate(1.785 1.786)"/><path class="b" d="M457.9,408.857a8.946,8.946,0,1,1,8.947-8.945A8.956,8.956,0,0,1,457.9,408.857Zm0-14.322a5.376,5.376,0,1,0,5.377,5.377A5.381,5.381,0,0,0,457.9,394.534Z" transform="translate(-448.956 -390.964)"/></g><g transform="translate(0 19.419)"><path class="c" d="M467.421,420.2a3.144,3.144,0,0,0,3.144-3.144v-5.83c0-5.211-5.164-8.383-11.528-8.383s-11.527,3.172-11.527,8.383v5.83a3.144,3.144,0,0,0,3.144,3.144Z" transform="translate(-445.725 -401.057)"/><path class="b" d="M468.207,422.769H451.439a4.935,4.935,0,0,1-4.929-4.929v-5.83c0-5.987,5.475-10.168,13.312-10.168s13.314,4.181,13.314,10.168v5.83A4.935,4.935,0,0,1,468.207,422.769Zm-8.385-17.357c-4.691,0-9.742,2.065-9.742,6.6v5.83a1.359,1.359,0,0,0,1.358,1.359h16.768a1.359,1.359,0,0,0,1.359-1.359v-5.83C469.565,407.478,464.515,405.412,459.822,405.412Z" transform="translate(-446.51 -401.842)"/></g></g><g transform="translate(48.304 6.155)"><g transform="translate(4.366)"><circle class="c" cx="7.161" cy="7.161" r="7.161" transform="translate(1.785 1.786)"/><path class="b" d="M484.962,408.857a8.946,8.946,0,1,1,8.947-8.945A8.956,8.956,0,0,1,484.962,408.857Zm0-14.322a5.376,5.376,0,1,0,5.377,5.377A5.383,5.383,0,0,0,484.962,394.534Z" transform="translate(-476.015 -390.964)"/></g><g transform="translate(0 19.419)"><path class="c" d="M494.48,420.2a3.144,3.144,0,0,0,3.144-3.144v-5.83c0-5.211-5.163-8.383-11.527-8.383s-11.529,3.172-11.529,8.383v5.83a3.145,3.145,0,0,0,3.144,3.144Z" transform="translate(-472.784 -401.057)"/><path class="b" d="M495.266,422.769H478.5a4.936,4.936,0,0,1-4.931-4.929v-5.83c0-5.987,5.473-10.168,13.314-10.168s13.312,4.181,13.312,10.168v5.83A4.934,4.934,0,0,1,495.266,422.769Zm-8.383-17.357c-4.693,0-9.743,2.065-9.743,6.6v5.83a1.361,1.361,0,0,0,1.36,1.359h16.766a1.359,1.359,0,0,0,1.358-1.359v-5.83C496.624,407.478,491.574,405.412,486.883,405.412Z" transform="translate(-473.569 -401.842)"/></g></g><g transform="translate(19.055)"><g transform="translate(6.296)"><circle class="c" cx="10.328" cy="10.328" r="10.328" transform="translate(1.786 1.784)"/><path class="b" d="M472.825,411.742a12.113,12.113,0,1,1,12.114-12.114A12.127,12.127,0,0,1,472.825,411.742Zm0-20.656a8.543,8.543,0,1,0,8.544,8.542A8.553,8.553,0,0,0,472.825,391.086Z" transform="translate(-460.711 -387.516)"/></g><g transform="translate(0 26.115)"><path class="c" d="M486.9,428.178a4.534,4.534,0,0,0,4.534-4.534v-8.408c0-7.515-7.446-12.091-16.625-12.091s-16.625,4.575-16.625,12.091v8.408a4.534,4.534,0,0,0,4.534,4.534Z" transform="translate(-456.399 -401.36)"/><path class="b" d="M487.685,430.748H463.5a6.326,6.326,0,0,1-6.319-6.319v-8.408c0-8.171,7.569-13.876,18.41-13.876S494,407.85,494,416.021v8.408A6.326,6.326,0,0,1,487.685,430.748Zm-12.091-25.033c-7.148,0-14.84,3.226-14.84,10.306v8.408a2.753,2.753,0,0,0,2.749,2.749h24.182a2.752,2.752,0,0,0,2.749-2.749v-8.408C490.434,408.941,482.742,405.715,475.594,405.715Z" transform="translate(-457.184 -402.145)"/></g></g></g></g></svg>