<svg xmlns="http://www.w3.org/2000/svg" width="119.3" height="122.078" viewBox="0 0 119.3 122.078"><defs><style>.a{fill:#f6f7fa;}.b{fill:#2b206a;}.c{fill:#ff7051;}.d{fill:#fff;}</style></defs><g transform="translate(-2060.263 -284.851)"><path class="a" d="M2133.83,320.768h-28.4V316.2a14.2,14.2,0,0,1,14.2-14.2h0a14.2,14.2,0,0,1,14.2,14.2Z"/><path class="b" d="M2133.83,322.268h-28.4a1.5,1.5,0,0,1-1.5-1.5V316.2a15.7,15.7,0,1,1,31.4,0v4.569A1.5,1.5,0,0,1,2133.83,322.268Zm-26.9-3h25.4V316.2a12.7,12.7,0,1,0-25.4,0Z"/><path class="a" d="M7.74,0A7.74,7.74,0,1,1,0,7.74,7.74,7.74,0,0,1,7.74,0Z" transform="translate(2111.891 286.351)"/><path class="b" d="M2119.632,303.332a9.24,9.24,0,1,1,9.24-9.24A9.25,9.25,0,0,1,2119.632,303.332Zm0-15.481a6.24,6.24,0,1,0,6.24,6.241A6.248,6.248,0,0,0,2119.632,287.851Z"/><path class="a" d="M2092.689,388.685h-28.4v-4.569a14.2,14.2,0,0,1,14.2-14.2h0a14.2,14.2,0,0,1,14.2,14.2Z"/><path class="b" d="M2092.688,390.185h-28.4a1.5,1.5,0,0,1-1.5-1.5v-4.569a15.7,15.7,0,1,1,31.4,0v4.569A1.5,1.5,0,0,1,2092.688,390.185Zm-26.9-3h25.4v-3.069a12.7,12.7,0,1,0-25.4,0Z"/><circle class="a" cx="7.74" cy="7.74" r="7.74" transform="translate(2070.75 354.268)"/><path class="b" d="M2078.49,371.249a9.24,9.24,0,1,1,9.24-9.24A9.251,9.251,0,0,1,2078.49,371.249Zm0-15.48a6.24,6.24,0,1,0,6.24,6.24A6.247,6.247,0,0,0,2078.49,355.769Z"/><path class="a" d="M2175.5,388.617h-28.4v-4.568a14.2,14.2,0,0,1,14.2-14.2h0a14.2,14.2,0,0,1,14.2,14.2Z"/><path class="b" d="M2175.5,390.117h-28.4a1.5,1.5,0,0,1-1.5-1.5v-4.568a15.7,15.7,0,1,1,31.4,0v4.568A1.5,1.5,0,0,1,2175.5,390.117Zm-26.9-3H2174v-3.068a12.7,12.7,0,1,0-25.4,0Z"/><path class="a" d="M7.74,0A7.74,7.74,0,1,1,0,7.74,7.74,7.74,0,0,1,7.74,0Z" transform="translate(2153.564 354.201)"/><path class="b" d="M2161.3,371.182a9.241,9.241,0,1,1,9.24-9.241A9.251,9.251,0,0,1,2161.3,371.182Zm0-15.481a6.241,6.241,0,1,0,6.24,6.24A6.248,6.248,0,0,0,2161.3,355.7Z"/><path class="b" d="M2119.919,405.144a54.168,54.168,0,0,1-20.49-3.98,1.5,1.5,0,0,1,1.129-2.78,51.646,51.646,0,0,0,38.718-.011,1.5,1.5,0,0,1,1.135,2.777A53.943,53.943,0,0,1,2119.919,405.144Z"/><path class="b" d="M2172.394,344.878a1.5,1.5,0,0,1-1.485-1.295,51.134,51.134,0,0,0-19.636-33.759,1.5,1.5,0,0,1,1.831-2.378,54.12,54.12,0,0,1,20.778,35.728,1.5,1.5,0,0,1-1.282,1.69A1.451,1.451,0,0,1,2172.394,344.878Z"/><path class="b" d="M2067.432,344.878a1.579,1.579,0,0,1-.206-.013,1.5,1.5,0,0,1-1.283-1.69,54.117,54.117,0,0,1,20.779-35.729,1.5,1.5,0,0,1,1.83,2.378,51.129,51.129,0,0,0-19.636,33.758A1.5,1.5,0,0,1,2067.432,344.878Z"/><circle class="c" cx="5.667" cy="5.667" r="5.667" transform="translate(2083.636 302.968)"/><path class="b" d="M2089.3,315.8a7.167,7.167,0,1,1,7.167-7.167A7.176,7.176,0,0,1,2089.3,315.8Zm0-11.334a4.167,4.167,0,1,0,4.167,4.167A4.171,4.171,0,0,0,2089.3,304.468Z"/><circle class="c" cx="5.667" cy="5.667" r="5.667" transform="translate(2094.326 394.095)"/><path class="b" d="M2099.993,406.929a7.167,7.167,0,1,1,7.167-7.167A7.176,7.176,0,0,1,2099.993,406.929Zm0-11.334a4.167,4.167,0,1,0,4.167,4.167A4.171,4.171,0,0,0,2099.993,395.6Z"/><circle class="d" cx="5.667" cy="5.667" r="5.667" transform="translate(2134.177 394.095)"/><path class="b" d="M2139.844,406.929a7.167,7.167,0,1,1,7.167-7.167A7.176,7.176,0,0,1,2139.844,406.929Zm0-11.334a4.167,4.167,0,1,0,4.167,4.167A4.171,4.171,0,0,0,2139.844,395.6Z"/><circle class="d" cx="5.667" cy="5.667" r="5.667" transform="translate(2146.521 302.968)"/><path class="b" d="M2152.188,315.8a7.167,7.167,0,1,1,7.167-7.167A7.176,7.176,0,0,1,2152.188,315.8Zm0-11.334a4.167,4.167,0,1,0,4.167,4.167A4.172,4.172,0,0,0,2152.188,304.468Z"/><circle class="d" cx="5.667" cy="5.667" r="5.667" transform="translate(2061.763 337.711)"/><path class="b" d="M2067.43,350.545a7.167,7.167,0,1,1,7.167-7.167A7.175,7.175,0,0,1,2067.43,350.545Zm0-11.334a4.167,4.167,0,1,0,4.167,4.167A4.172,4.172,0,0,0,2067.43,339.211Z"/><path class="c" d="M5.667,0A5.667,5.667,0,1,1,0,5.667,5.667,5.667,0,0,1,5.667,0Z" transform="translate(2166.728 337.711)"/><path class="b" d="M2172.4,350.545a7.167,7.167,0,1,1,7.167-7.167A7.174,7.174,0,0,1,2172.4,350.545Zm0-11.334a4.167,4.167,0,1,0,4.167,4.167A4.172,4.172,0,0,0,2172.4,339.211Z"/></g></svg>