<svg xmlns="http://www.w3.org/2000/svg" width="104.448" height="137.292" viewBox="0 0 104.448 137.292"><defs><style>.a{fill:#ff7051;}.b,.f{fill:#2b206a;}.c{fill:#fff;}.d{fill:#f6f7fa;}.e{fill:#cbc5ce;}.f{font-size:37.554px;font-family:Rubik-Bold, Rubik;font-weight:700;}</style></defs><g transform="translate(-2309.389 -82.078)"><path class="a" d="M2361.613,88.657l-50.724,41.374v59.924h101.448V130.031Z"/><path class="b" d="M2412.337,191.455H2310.889a1.5,1.5,0,0,1-1.5-1.5V130.031a1.5,1.5,0,0,1,.551-1.162L2360.665,87.5a1.5,1.5,0,0,1,1.9,0l50.723,41.374a1.5,1.5,0,0,1,.552,1.162v59.924A1.5,1.5,0,0,1,2412.337,191.455Zm-99.948-3h98.448V130.744l-49.224-40.151-49.224,40.151Z"/><rect class="c" width="71.725" height="87.506" transform="translate(2326.397 83.577)"/><path class="b" d="M2398.121,172.583H2326.4a1.5,1.5,0,0,1-1.5-1.5v-87.5a1.5,1.5,0,0,1,1.5-1.5h71.725a1.5,1.5,0,0,1,1.5,1.5v87.5A1.5,1.5,0,0,1,2398.121,172.583Zm-70.225-3h68.725v-84.5H2327.9Z"/><rect class="c" width="22.02" height="5.769" transform="translate(2336.853 126.922) rotate(-90)"/><rect class="c" width="22.02" height="5.769" transform="translate(2381.896 126.922) rotate(-90)"/><path class="c" d="M2344.508,121.382V111.338a55.339,55.339,0,0,1,3,5.022A55.2,55.2,0,0,1,2344.508,121.382Z"/><path class="c" d="M2351.188,116.36a55.339,55.339,0,0,1,3-5.022v10.044A55.2,55.2,0,0,1,2351.188,116.36Z"/><path class="c" d="M2357.418,124.909v-17.1a8.029,8.029,0,0,1,3.227-1.507v20.112a8.015,8.015,0,0,1-3.227-1.507Z"/><path class="c" d="M2363.873,126.416V106.3a8.05,8.05,0,0,1,3.227,1.507v17.1a8.023,8.023,0,0,1-3.227,1.507Z"/><path class="c" d="M2370.328,121.382V111.338a55.284,55.284,0,0,1,3,5.022A55.147,55.147,0,0,1,2370.328,121.382Z"/><path class="c" d="M2377.007,116.36a55.285,55.285,0,0,1,3-5.022v10.044A55.148,55.148,0,0,1,2377.007,116.36Z"/><path class="b" d="M2388.079,129.808a1.614,1.614,0,0,0,0-3.228,7.812,7.812,0,0,1-4.842-1.671v-17.1a7.812,7.812,0,0,1,4.842-1.671,1.614,1.614,0,0,0,0-3.228,11.58,11.58,0,0,0-8.86,4.227,33.038,33.038,0,0,0-4.05,5.889,33.016,33.016,0,0,0-4.051-5.889,11.4,11.4,0,0,0-17.718,0,33.028,33.028,0,0,0-4.051,5.889,33.038,33.038,0,0,0-4.05-5.889,11.58,11.58,0,0,0-8.86-4.227,1.614,1.614,0,0,0,0,3.228,7.81,7.81,0,0,1,4.841,1.671v17.1a7.81,7.81,0,0,1-4.841,1.671,1.614,1.614,0,0,0,0,3.228,11.58,11.58,0,0,0,8.86-4.227,32.966,32.966,0,0,0,4.05-5.889,32.905,32.905,0,0,0,4.051,5.889,11.4,11.4,0,0,0,17.718,0,32.944,32.944,0,0,0,4.051-5.889,32.966,32.966,0,0,0,4.05,5.889,11.58,11.58,0,0,0,8.86,4.227Zm-43.571-8.426V111.338a55.339,55.339,0,0,1,3,5.022A55.2,55.2,0,0,1,2344.508,121.382Zm6.68-5.022a55.339,55.339,0,0,1,3-5.022v10.044A55.2,55.2,0,0,1,2351.188,116.36Zm6.23,8.549v-17.1a8.029,8.029,0,0,1,3.227-1.507v20.112a8.015,8.015,0,0,1-3.227-1.507Zm6.455,1.507V106.3a8.05,8.05,0,0,1,3.227,1.507v17.1a8.023,8.023,0,0,1-3.227,1.507Zm6.455-5.034V111.338a55.284,55.284,0,0,1,3,5.022A55.147,55.147,0,0,1,2370.328,121.382Zm6.679-5.022a55.285,55.285,0,0,1,3-5.022v10.044A55.148,55.148,0,0,1,2377.007,116.36Z"/><path class="d" d="M2370.963,159.993l41.374-29.962v59.924Z"/><path class="b" d="M2412.337,191.455a1.5,1.5,0,0,1-.88-.286l-41.373-29.961a1.5,1.5,0,0,1,0-2.43l41.373-29.962a1.5,1.5,0,0,1,2.38,1.215v59.924a1.5,1.5,0,0,1-1.5,1.5Zm-38.816-31.462,37.316,27.023V132.97Z"/><path class="d" d="M2352.263,159.993l-41.374,29.962V130.031Z"/><path class="b" d="M2310.889,191.455a1.5,1.5,0,0,1-1.5-1.5V130.031a1.5,1.5,0,0,1,2.38-1.215l41.374,29.962a1.5,1.5,0,0,1,0,2.43l-41.374,29.962A1.5,1.5,0,0,1,2310.889,191.455Zm1.5-58.485v54.047l37.316-27.024Z"/><path class="d" d="M2361.613,148.581l50.724,41.374H2310.889Z"/><path class="b" d="M2412.337,191.455H2310.889a1.5,1.5,0,0,1-.949-2.663l50.725-41.374a1.5,1.5,0,0,1,1.9,0l50.723,41.374a1.5,1.5,0,0,1-.948,2.663Zm-97.236-3h93.024l-46.512-37.938Z"/><circle class="e" cx="23.983" cy="23.983" r="23.983" transform="translate(2339.354 171.405)"/><text class="f" transform="translate(2346.393 205.865)"><tspan x="0" y="0">@</tspan></text></g></svg>