<svg xmlns="http://www.w3.org/2000/svg" width="128.533" height="138.705" viewBox="0 0 128.533 138.705"><defs><style>.a{fill:#2b206a;}.b{fill:#fff;}.c{fill:#cbc5ce;}.d{fill:#f6f7fa;}.e{fill:#ff7051;}</style></defs><g transform="translate(-2055.646 -77.814)"><path class="a" d="M2144.857,149.537h-48.4a1.5,1.5,0,0,1,0-3h48.4a21.245,21.245,0,1,0,0-42.489h-48.4a1.5,1.5,0,0,1,0-3h48.4a24.245,24.245,0,1,1,0,48.489Z"/><path class="a" d="M2144.857,195.025h-2.5a1.5,1.5,0,0,1,0-3h2.5a1.5,1.5,0,0,1,0,3Z"/><path class="a" d="M2132.372,195.025h-4.993a1.5,1.5,0,0,1,0-3h4.993a1.5,1.5,0,0,1,0,3Zm-14.978,0H2112.4a1.5,1.5,0,0,1,0-3h4.993a1.5,1.5,0,0,1,0,3Zm-14.978,0h-4.993a1.5,1.5,0,0,1,0-3h4.993a1.5,1.5,0,0,1,0,3Zm-14.743-1.758a1.5,1.5,0,0,1-.579-.117,24.315,24.315,0,0,1-4.643-2.578,1.5,1.5,0,0,1,1.735-2.448,21.27,21.27,0,0,0,4.068,2.259,1.5,1.5,0,0,1-.581,2.884Zm-11-9.762a1.5,1.5,0,0,1-1.305-.759,24.154,24.154,0,0,1-2.1-4.878,1.5,1.5,0,1,1,2.869-.877,21.16,21.16,0,0,0,1.84,4.272,1.5,1.5,0,0,1-1.3,2.242Zm-2.729-14.449a1.56,1.56,0,0,1-.213-.015,1.5,1.5,0,0,1-1.274-1.7,24.079,24.079,0,0,1,1.322-5.147,1.5,1.5,0,1,1,2.8,1.063,21.041,21.041,0,0,0-1.156,4.505A1.5,1.5,0,0,1,2073.945,169.056Zm6.68-13.1a1.5,1.5,0,0,1-1.044-2.577,24.449,24.449,0,0,1,4.19-3.259,1.5,1.5,0,1,1,1.573,2.554,21.4,21.4,0,0,0-3.675,2.858A1.493,1.493,0,0,1,2080.625,155.955Z"/><path class="a" d="M2093.961,149.672a1.5,1.5,0,0,1-.16-2.991,24.538,24.538,0,0,1,2.659-.144,1.5,1.5,0,0,1,0,3,21.634,21.634,0,0,0-2.335.126A1.5,1.5,0,0,1,2093.961,149.672Z"/><path class="b" d="M2143.549,143.611c0,14.81-22.779,31.371-22.779,31.371s-22.779-16.561-22.779-31.371,10.2-22.261,22.779-22.261S2143.549,128.8,2143.549,143.611Z"/><path class="a" d="M2120.771,176.482a1.5,1.5,0,0,1-.882-.286c-.956-.695-23.4-17.188-23.4-32.585,0-14.434,9.531-23.76,24.281-23.76s24.279,9.326,24.279,23.76c0,15.4-22.443,31.89-23.4,32.585A1.5,1.5,0,0,1,2120.771,176.482Zm0-53.631c-15.69,0-21.281,10.724-21.281,20.76,0,12.266,17.155,26.294,21.281,29.489,4.125-3.2,21.279-17.223,21.279-29.489C2142.05,133.575,2136.46,122.851,2120.771,122.851Z"/><path class="a" d="M2124.442,161.071a.93.93,0,0,0,1.316-1.315,4.5,4.5,0,0,1-1.292-2.654l6.968-6.967a4.5,4.5,0,0,1,2.654,1.291.93.93,0,0,0,1.315-1.315,6.673,6.673,0,0,0-5.333-1.888,19.043,19.043,0,0,0-4.05.749,19.03,19.03,0,0,0,.749-4.05,6.569,6.569,0,0,0-7.221-7.221,18.981,18.981,0,0,0-4.05.75,19.051,19.051,0,0,0,.749-4.051,6.672,6.672,0,0,0-1.888-5.333.93.93,0,1,0-1.315,1.316,4.5,4.5,0,0,1,1.292,2.654L2107.368,140a4.5,4.5,0,0,1-2.654-1.292.93.93,0,1,0-1.315,1.316,6.676,6.676,0,0,0,5.332,1.888,19.056,19.056,0,0,0,4.051-.75,18.99,18.99,0,0,0-.749,4.051,6.569,6.569,0,0,0,7.22,7.221,19.053,19.053,0,0,0,4.051-.75,19.054,19.054,0,0,0-.75,4.051,6.674,6.674,0,0,0,1.888,5.332Zm-14.322-21.189,4.094-4.093a32.239,32.239,0,0,1-.823,3.27A31.709,31.709,0,0,1,2110.12,139.882Zm4.769.676a31.694,31.694,0,0,1,3.27-.823l-4.093,4.093A31.729,31.729,0,0,1,2114.889,140.558Zm-.945,6.022,6.968-6.967a4.625,4.625,0,0,1,1.929.7l-8.2,8.2a4.641,4.641,0,0,1-.7-1.93Zm2.016,3.245,8.2-8.2a4.614,4.614,0,0,1,.7,1.93l-6.967,6.967a4.629,4.629,0,0,1-1.93-.7Zm4.682.579,4.093-4.093a31.729,31.729,0,0,1-.823,3.27A31.69,31.69,0,0,1,2120.642,150.4Zm4.769.676a31.69,31.69,0,0,1,3.27-.823l-4.093,4.093A31.728,31.728,0,0,1,2125.411,151.08Z"/><circle class="c" cx="24.734" cy="24.734" r="24.734" transform="translate(2055.646 77.814)"/><path class="d" d="M2092.677,113.533h-24.595a12.3,12.3,0,0,1,12.3-12.3h0a12.3,12.3,0,0,1,12.3,12.3Z"/><path class="a" d="M2092.677,115.033h-24.595a1.5,1.5,0,0,1-1.5-1.5,13.8,13.8,0,1,1,27.595,0A1.5,1.5,0,0,1,2092.677,115.033Zm-22.991-3h21.387a10.8,10.8,0,0,0-21.387,0Z"/><circle class="d" cx="6.704" cy="6.704" r="6.704" transform="translate(2073.676 87.681)"/><path class="a" d="M2080.38,102.589a8.2,8.2,0,1,1,8.2-8.2A8.213,8.213,0,0,1,2080.38,102.589Zm0-13.408a5.2,5.2,0,1,0,5.2,5.2A5.21,5.21,0,0,0,2080.38,89.181Z"/><path class="e" d="M24.734,0A24.734,24.734,0,1,1,0,24.734,24.734,24.734,0,0,1,24.734,0Z" transform="translate(2134.711 167.051)"/><path class="a" d="M2173.43,199.671c-.765-.994-14.158-23.24-14.158-23.24l-.51.619-2.066,2.83s-2.386,2.735-2.31,5.183c.05,1.606,1.453,6.349-2.906,9.485a6.5,6.5,0,0,0,3.824-3.6c1.3-3.671-.473-5.821.765-8.03a21.8,21.8,0,0,1,1.682-2.677s.793-1.126,1.385-1.845c.792,1.289,13.682,22.594,13.682,22.594h2.6v-.565A2.132,2.132,0,0,1,2173.43,199.671Z"/><path class="a" d="M2156.222,185.75a5.139,5.139,0,0,0,2.753-2.217l10.52,17.578,1.423-.066-11.943-19.806Z"/><path class="a" d="M2153.85,187.281a5.672,5.672,0,0,0-3.977,5.354c0,3.755.536,5.66-1.453,8.414h1.453s.918-.383,1.224-3.213S2149.95,190.264,2153.85,187.281Z"/><path class="a" d="M2149.261,195.771a7.618,7.618,0,0,0-4.859,5.2h1.455C2146.227,197.737,2149.261,195.771,2149.261,195.771Z"/><path class="a" d="M2153.593,191.008c.029-.074.053-.143.08-.215l-1.457-.477c-.09.211-.174.433-.251.669l1.5.318C2153.51,191.207,2153.552,191.11,2153.593,191.008Z"/><path class="a" d="M2151.576,192.947l1.04-.176a6.459,6.459,0,0,0,.383-.567l-1.343.065C2151.621,192.486,2151.595,192.713,2151.576,192.947Z"/><path class="a" d="M2154.075,189.3l-.913-.636c-.123.163-.248.342-.375.545l1.172.652C2154.008,189.666,2154.047,189.477,2154.075,189.3Z"/><path class="a" d="M2147.517,198.264c-.077.112-.154.229-.232.354-.02.033-.038.07-.058.105L2148.4,200a6.825,6.825,0,0,0,.364-.638Z"/><path class="a" d="M2146.614,200.4l.294.58h.731l.013-.015-.83-1.309A6.8,6.8,0,0,0,2146.614,200.4Z"/><path class="a" d="M2148.114,197.487l1.082.689a5.946,5.946,0,0,0,.125-.66l-.823-.436C2148.378,197.2,2148.249,197.333,2148.114,197.487Z"/></g></svg>