<svg xmlns="http://www.w3.org/2000/svg" width="85.766" height="40.782" viewBox="0 0 85.766 40.782"><defs><style>.a{fill:#877b8d;}</style></defs><path class="a" d="M110.305,166.792a7.2,7.2,0,0,0-6.562,7.454v20.045a1.314,1.314,0,0,1-1.322,1.346H96.157c-13.554.016-12.35-17.305-.812-17.327h6.924v-5.035H95.1a13.329,13.329,0,0,0-10.3,4.273,14.173,14.173,0,0,0-3.462,9.437,13.825,13.825,0,0,0,3.488,9.415c2.353,2.552,5.911,4.273,10.786,4.273h11.807a1.457,1.457,0,0,0,1.424-1.451V174.781a2.527,2.527,0,0,1,1.628-2.521,2.392,2.392,0,0,1,2.644.994l.027.027c3.359,5.492,16.692,26.882,16.714,26.919a1,1,0,0,0,1.117.511c.317-.108.64-.451.634-1.3V174.781a2.527,2.527,0,0,1,1.628-2.521,2.364,2.364,0,0,1,2.622.993v.027h.048c3.359,5.492,16.692,26.882,16.714,26.919a.989.989,0,0,0,1.117.511c.333-.108.666-.43.661-1.274V166.919h-5.062V185.9s-3.021-5.159-8.19-14.041c-5.068-8.7-14.629-5.1-14.629,2.392V185.9s-2.967-5.159-8.142-14.041c-2.212-3.805-5.3-5.261-8.067-5.062Zm-14.322.129c-28.177,0-27.9,40.15.385,40.172h11.065c4.756,0,7.79-2.816,7.79-8.013V188.9s6.212,10.271,8.655,14.3c4.135,6.841,14.145,5.492,14.118-3.052V188.9s6.191,10.271,8.625,14.3c4.135,6.841,14.171,5.492,14.145-3.052V166.915H155.7V199.43a2.447,2.447,0,0,1-1.558,2.471,2.308,2.308,0,0,1-2.569-.967h-.028v-.048s-13.338-21.33-16.741-26.892c-.011-.011-.016.011-.027,0s.006-.027,0-.027a1.058,1.058,0,0,0-1.171-.457c-.385.118-.741.446-.737,1.274V199.4a2.528,2.528,0,0,1-1.526,2.521,2.269,2.269,0,0,1-2.542-.994V200.9h-.027s-13.35-21.373-16.741-26.919a1.058,1.058,0,0,0-1.193-.511c-.385.118-.741.446-.737,1.273v24.474a2.733,2.733,0,0,1-2.7,2.724H95.6c-5.181,0-9.109-1.865-11.7-4.68a15.11,15.11,0,0,1-3.87-10.28,15.493,15.493,0,0,1,3.821-10.3A14.681,14.681,0,0,1,95.09,172h7.174v-5.089H95.977Z" transform="translate(-75 -166.776)"/></svg>