<svg xmlns="http://www.w3.org/2000/svg" xmlns:xlink="http://www.w3.org/1999/xlink" width="332" height="420" viewBox="0 0 332 420"><defs><style>.a{fill:url(#a);}.b{fill:#fff;}</style><linearGradient id="a" x1="0.5" x2="0.5" y2="1" gradientUnits="objectBoundingBox"><stop offset="0" stop-color="#682ace"/><stop offset="1" stop-color="#2a2266"/></linearGradient></defs><g transform="translate(-794 -3694)"><g transform="translate(795.162 3693.162)"><rect class="a" width="332" height="420" transform="translate(-1.162 0.837)"/></g><g transform="translate(26 35)"><g transform="translate(817 3701.413)"><path class="b" d="M1256.27,948.343c-.4-.1-.954-.363-1.676-2.073-1.218-2.894-4.264-10.662-4.718-11.71-.193-.439-.307-.609-.48-.609-.189,0-.3.212-.53.76l-4.779,11.96c-.382.95-.745,1.6-1.619,1.71a5.84,5.84,0,0,1-.59.038l-.227.151c0,.155.114.193.359.193.991,0,2.039-.057,2.247-.057.59,0,1.407.057,2.017.057.212,0,.325-.038.325-.193,0-.113-.057-.151-.288-.151h-.284c-.59,0-.764-.246-.764-.59a3.708,3.708,0,0,1,.288-1.158l1.029-2.728.17-.151H1251l.189.132,1.525,4.037a.311.311,0,0,1-.17.439c-.193.019-.269.057-.269.17,0,.136.231.136.571.155,1.525.038,2.914.038,3.6.038.708,0,.878-.038.878-.193l-.25-.151A4.21,4.21,0,0,1,1256.27,948.343Zm-5.634-5.5h-3.5l-.08-.132,1.756-4.684.114-.174.095.174,1.71,4.7Z" transform="translate(-1227.809 -620.686)"/><path class="b" d="M1293.361,940.486a5.221,5.221,0,0,1-.687.076c-.4.02-4.112,0-4.759,0-.475,0-1.543-.04-2.4-.04-.266,0-.4.04-.4.154l.286.172a3.1,3.1,0,0,1,.666.057c.533.133.683.325.722.875.019.516.019.972.019,3.428v2.853c0,1.563,0,2.763-.075,3.45-.058.473-.152.777-.495.855a2.462,2.462,0,0,1-.59.058c-.191,0-.248.094-.248.171,0,.135.113.172.342.172.628,0,1.7-.057,2.134-.057s1.617.057,2.684.057c.247,0,.361-.057.361-.172,0-.076-.076-.171-.286-.171a5.914,5.914,0,0,1-.818-.058c-.5-.078-.611-.382-.667-.855-.076-.687-.094-1.83-.094-3.391v-1.334l.114-.13c.285,0,2.264.02,2.683.057a.851.851,0,0,1,.8.591,1.5,1.5,0,0,1,.115.492l.151.23c.172,0,.19-.23.19-.362,0-.116.018-.859.058-1.183.056-.511.132-.952.132-1.045l-.095-.152-.228.172a.858.858,0,0,1-.706.283c-.246.021-.476.021-.761.021l-2.341.019-.114-.155V941.7c0-.19.057-.227.151-.227l2.78.057a1.149,1.149,0,0,1,1.066.494,1.275,1.275,0,0,1,.1.611c0,.189.094.265.21.265l.171-.325c.018-.189.057-1.141.076-1.313.056-.419.133-.61.133-.726l-.114-.151Z" transform="translate(-1254.829 -624.69)"/><path class="b" d="M1327.677,952.6a3.128,3.128,0,0,1-1.793-1.071c-1.006-1.007-2.187-2.471-3.674-4.3,1.639-1.313,2.323-2.38,2.323-3.579a2.837,2.837,0,0,0-1.18-2.229,5.892,5.892,0,0,0-3.178-.685c-.515,0-2.036.038-2.607.038-.344,0-1.411-.038-2.285-.038-.246,0-.382.038-.382.151s.117.174.287.174a3.107,3.107,0,0,1,.666.057c.533.151.685.325.723.874.019.518.019.972.019,3.428v2.853c0,1.487,0,2.762-.076,3.451-.057.473-.151.779-.5.855a2.479,2.479,0,0,1-.59.057c-.208,0-.265.094-.265.17,0,.117.114.174.322.174.666,0,1.733-.057,2.058-.057.246,0,1.639.057,2.607.057.208,0,.344-.057.344-.174l-.212-.17a6.341,6.341,0,0,1-.817-.057c-.515-.076-.59-.382-.647-.855-.076-.689-.1-1.945-.1-3.451v-.223l.136-.136,1.5.038.307.114c.208.25.912,1.336,1.578,2.21a7.675,7.675,0,0,0,2.285,2.38,3.617,3.617,0,0,0,1.831.325h1.6c.208,0,.325-.038.325-.174l-.212-.17A1.552,1.552,0,0,1,1327.677,952.6Zm-6.341-5.747a1.693,1.693,0,0,1-1.18.268,4.48,4.48,0,0,1-1.275-.159c-.113-.057-.155-.11-.155-.284v-4.816l.155-.227a6.606,6.606,0,0,1,.991-.057,2.542,2.542,0,0,1,2.55,2.876A2.744,2.744,0,0,1,1321.336,946.854Z" transform="translate(-1273.344 -624.907)"/><path class="b" d="M1357.6,952.64a6.28,6.28,0,0,1-.855-.057c-.5-.078-.61-.325-.667-.761-.077-.687-.077-1.981-.077-3.544v-2.853c0-2.456,0-2.912.038-3.428.039-.571.173-.8.629-.875a2.335,2.335,0,0,1,.495-.057c.171,0,.267-.041.267-.191,0-.1-.132-.135-.343-.135-.646,0-1.732.04-2.151.04-.475,0-1.619-.04-2.247-.04-.266,0-.4.04-.4.135,0,.149.095.191.265.191a2.134,2.134,0,0,1,.611.076c.362.113.532.306.57.855.019.516.019.972.019,3.428v2.853c0,1.563,0,2.857-.076,3.524-.058.477-.151.7-.495.781a2.482,2.482,0,0,1-.592.057c-.208,0-.266.094-.266.171,0,.115.116.172.324.172.666,0,1.81-.056,2.19-.056.456,0,1.6.056,2.7.056.19,0,.324-.056.324-.172C1357.865,952.735,1357.789,952.64,1357.6,952.64Z" transform="translate(-1296.585 -624.906)"/><path class="b" d="M1384.84,949.869a2.613,2.613,0,0,1-.572,1.086c-.666.741-1.487.857-2.971.857a5.4,5.4,0,0,1-5.215-5.675,5.244,5.244,0,0,1,1.542-4.2,4.505,4.505,0,0,1,3.16-.915,4.739,4.739,0,0,1,3.236.95,2.289,2.289,0,0,1,.648,1.5c0,.212.037.344.171.344.152,0,.209-.168.227-.4.022-.324.022-1.217.058-1.75.038-.572.076-.762.076-.9,0-.1-.057-.172-.245-.193-.5-.055-1.048-.169-1.677-.262a16.92,16.92,0,0,0-2.438-.172,7.554,7.554,0,0,0-5.311,1.71,6.25,6.25,0,0,0,.134,9.216,8.62,8.62,0,0,0,5.749,1.753,9.75,9.75,0,0,0,3.028-.364.568.568,0,0,0,.438-.474,14.409,14.409,0,0,0,.362-2.153l-.191-.288C1384.916,949.544,1384.878,949.623,1384.84,949.869Z" transform="translate(-1309.814 -624.536)"/><path class="b" d="M1419.257,951.955c-.3-.057-.779-.269-1.426-1.733-1.067-2.456-3.863-9.08-4.264-9.974-.171-.363-.25-.518-.5-.518-.17,0-.3.193-.5.647l-4.381,10.185c-.341.821-.625,1.317-1.385,1.43l-.5.019-.193.17c0,.136.095.174.307.174.874,0,1.767-.057,1.941-.057.534,0,1.317.057,1.865.057.17,0,.269-.038.269-.174,0-.095-.042-.17-.25-.17h-.246c-.514,0-.666-.174-.666-.458a2.97,2.97,0,0,1,.246-.991l.9-2.168.151-.113h3.943l.17.113,1.294,3.258a.254.254,0,0,1-.152.359c-.174.019-.212.076-.212.17,0,.117.189.117.5.136,1.407.038,2.626.038,3.216.038.628,0,.723-.038.723-.174l-.227-.17A4.1,4.1,0,0,1,1419.257,951.955Zm-5.043-4.571h-3.239l-.053-.114,1.615-4.09.095-.155.075.151,1.582,4.113Z" transform="translate(-1330.05 -624.279)"/><path class="b" d="M1458.877,940.272c-.819,0-1.447.04-1.636.04-.363,0-1.256-.04-2.132-.04-.247,0-.417.019-.417.154,0,.1.054.172.265.172a2.86,2.86,0,0,1,.874.094c.4.154.553.442.572,1.43l.171,7.194h-.074c-.249-.227-2.475-2.511-3.619-3.635-2.437-2.375-4.952-4.949-5.16-5.157-.285-.287-.513-.535-.725-.535-.169,0-.286.231-.286.551l-.151,9.6c-.019,1.407-.075,1.844-.514,1.959a3.359,3.359,0,0,1-.761.078l-.266.171c0,.151.153.172.38.172.858,0,1.656-.057,1.809-.057.3,0,1.084.057,2.171.057.228,0,.38-.036.38-.172,0-.1-.1-.171-.286-.171a2.868,2.868,0,0,1-.877-.114c-.323-.114-.532-.5-.571-1.75l-.19-6.608h.055c.327.286,2.1,2.245,3.925,3.995,1.75,1.7,3.845,3.7,4.893,4.667a.977.977,0,0,0,.684.343c.133,0,.266-.152.266-.516l.191-10.2c.02-.913.153-1.2.608-1.332a1.72,1.72,0,0,1,.514-.057c.193,0,.286-.075.286-.172C1459.257,940.291,1459.1,940.272,1458.877,940.272Z" transform="translate(-1354.23 -624.44)"/><path class="b" d="M1515.4,948.468c-.4-.1-.961-.367-1.691-2.089-1.226-2.921-4.3-10.757-4.76-11.816-.193-.443-.307-.613-.48-.613-.189,0-.307.212-.537.768l-4.817,12.062c-.386.957-.753,1.615-1.634,1.725a5.84,5.84,0,0,1-.594.042l-.231.151c0,.155.114.193.363.193,1,0,2.054-.057,2.266-.057.594,0,1.423.057,2.036.057.212,0,.325-.038.325-.193,0-.117-.057-.151-.288-.151h-.287c-.6,0-.768-.253-.768-.6a3.666,3.666,0,0,1,.287-1.169l1.037-2.751.174-.151h4.283l.19.132,1.536,4.071a.311.311,0,0,1-.17.443c-.193.023-.268.057-.268.174,0,.136.231.136.575.155,1.536.038,2.936.038,3.628.038.712,0,.886-.038.886-.193l-.25-.151A4.326,4.326,0,0,1,1515.4,948.468Zm-5.683-5.547h-3.534l-.076-.136,1.767-4.726.114-.174.1.174,1.729,4.745Z" transform="translate(-1388.819 -620.686)"/><path class="b" d="M1557.778,940.327c-.825,0-1.458.04-1.651.04-.367,0-1.266-.04-2.153-.04-.25,0-.42.019-.42.155,0,.1.057.174.267.174a2.865,2.865,0,0,1,.882.094c.4.154.559.446.577,1.442l.173,7.256h-.078c-.247-.229-2.5-2.533-3.648-3.667-2.457-2.4-4.992-4.992-5.206-5.2-.286-.289-.518-.539-.729-.539-.172,0-.288.233-.288.555l-.154,9.68c-.02,1.419-.074,1.86-.519,1.976a3.362,3.362,0,0,1-.768.079l-.267.172c0,.152.152.173.383.173.863,0,1.671-.057,1.822-.057.31,0,1.1.057,2.192.057.23,0,.384-.036.384-.173,0-.1-.1-.172-.29-.172a2.867,2.867,0,0,1-.882-.115c-.326-.115-.539-.5-.578-1.766l-.191-6.666h.057c.325.289,2.113,2.265,3.955,4.029,1.768,1.714,3.879,3.729,4.935,4.708a.989.989,0,0,0,.692.346c.136,0,.269-.154.269-.521l.193-10.291c.019-.92.153-1.209.614-1.344a1.73,1.73,0,0,1,.518-.057c.192,0,.288-.076.288-.174C1558.162,940.346,1558.007,940.327,1557.778,940.327Z" transform="translate(-1415.637 -624.472)"/><path class="b" d="M1599.977,950.007a2.6,2.6,0,0,1-.575,1.1c-.673.748-1.5.864-3,.864a5.441,5.441,0,0,1-5.259-5.724A5.286,5.286,0,0,1,1592.7,942a4.551,4.551,0,0,1,3.19-.922,4.787,4.787,0,0,1,3.264.958,2.308,2.308,0,0,1,.652,1.516c0,.214.037.347.172.347.153,0,.212-.17.232-.4.019-.327.019-1.227.056-1.765.039-.578.078-.769.078-.9,0-.1-.059-.173-.25-.195-.5-.056-1.055-.171-1.692-.264a17.02,17.02,0,0,0-2.456-.174,7.615,7.615,0,0,0-5.358,1.725,6.3,6.3,0,0,0,.135,9.3,8.687,8.687,0,0,0,5.8,1.769,9.838,9.838,0,0,0,3.055-.367c.288-.117.366-.19.441-.478a14.289,14.289,0,0,0,.366-2.171l-.191-.291C1600.055,949.678,1600.015,949.758,1599.977,950.007Z" transform="translate(-1443.493 -624.568)"/><path class="b" d="M1635.805,950.354c-.115,0-.153.079-.194.253-.115.672-.306,1.016-.727,1.209a4.633,4.633,0,0,1-1.6.212c-1.726,0-2.247-.251-2.288-1.363-.018-.483,0-1.866,0-2.422v-1.3l.1-.172c.422,0,2.342.036,2.651.075.632.056.843.31.942.636.036.211.036.423.058.59l.152.136.172-.36c0-.12.039-.772.077-1.1.1-.827.135-1.1.135-1.19l-.135-.174-.267.212c-.156.173-.4.211-.807.248-.384.04-2.574.04-2.958.04l-.117-.172v-4.032l.117-.157c.345,0,2.363.039,2.65.08.846.077.981.308,1.115.594a1.57,1.57,0,0,1,.114.595l.134.213.193-.27c.037-.19.076-.9.1-1.076a7.189,7.189,0,0,1,.136-1.056l-.117-.152-.271.079c-.134.017-.4.073-.711.094-.325.02-4.07,0-4.608,0-.48,0-1.555-.04-2.438-.04-.249,0-.382.04-.382.155s.115.174.289.174a3.139,3.139,0,0,1,.671.057c.536.154.69.328.729.883.018.521.018.981.018,3.458v2.878c0,1.5,0,2.786-.076,3.48-.058.477-.152.784-.5.863a2.511,2.511,0,0,1-.595.058c-.211,0-.269.094-.269.172,0,.117.114.173.326.173.345,0,.768-.021,1.17-.036.4,0,.769-.02.962-.02.5,0,1.132.02,1.957.036.825.042,1.843.059,3.112.059.633,0,.786,0,.9-.421a10.86,10.86,0,0,0,.231-1.806C1635.958,950.568,1635.939,950.354,1635.805,950.354Z" transform="translate(-1467.376 -624.725)"/><path class="b" d="M1664.425,945.3l-.691-.387c-1.516-.844-1.786-1.42-1.786-2.151,0-1.112,1.095-1.744,2.305-1.744a2.271,2.271,0,0,1,1.881.767,1.854,1.854,0,0,1,.442,1.074c0,.194.056.287.173.287.135,0,.21-.174.21-.518,0-1.285.057-1.746.057-1.956l-.23-.213a10.046,10.046,0,0,0-2.4-.268c-2.342,0-4.263,1.286-4.263,3.286,0,1.436.654,2.533,2.648,3.7l.981.573c1.5.884,1.671,1.595,1.671,2.3a2.12,2.12,0,0,1-2.344,2.076,2.609,2.609,0,0,1-2.686-1.614,3.01,3.01,0,0,1-.155-.848l-.173-.268c-.135,0-.21.176-.21.425-.021.268-.1,1.287-.1,2.17,0,.365.058.438.325.556a7.156,7.156,0,0,0,2.748.425,4.919,4.919,0,0,0,2.822-.673,3.488,3.488,0,0,0,1.69-3.055C1667.344,947.779,1666.653,946.532,1664.425,945.3Z" transform="translate(-1487.721 -624.568)"/><path class="b" d="M1697.489,940.311c-.058,0-.191.038-.462.076a7.642,7.642,0,0,1-1.149.077h-6.857a16.307,16.307,0,0,1-1.688-.077c-.424-.059-.6-.191-.732-.191-.1,0-.153.1-.19.306-.04.133-.367,1.711-.367,1.975,0,.177.039.273.156.273l.19-.212a1.873,1.873,0,0,1,.289-.557c.248-.365.654-.482,1.632-.5l2.515-.057v6.6c0,1.5,0,2.786-.076,3.479-.058.478-.154.784-.5.863a2.407,2.407,0,0,1-.595.058c-.214,0-.268.094-.268.172,0,.117.112.173.322.173.675,0,1.827-.057,2.213-.057.477,0,1.613.057,2.724.057.192,0,.325-.057.325-.173,0-.077-.076-.172-.268-.172a6.458,6.458,0,0,1-.865-.058c-.5-.079-.593-.385-.651-.846-.078-.711-.1-2-.1-3.5v-6.6l2.133.04c1.518.018,1.958.517,2,.941l.019.17c.02.251.059.327.192.327.1,0,.134-.094.154-.27,0-.42.039-1.632.039-1.976C1697.624,940.406,1697.6,940.311,1697.489,940.311Z" transform="translate(-1504.061 -624.568)"/><path class="b" d="M1735.523,952.764a3.174,3.174,0,0,1-1.8-1.078c-1.018-1.018-2.206-2.493-3.7-4.336,1.65-1.324,2.342-2.4,2.342-3.609a2.854,2.854,0,0,0-1.192-2.248,5.919,5.919,0,0,0-3.2-.693c-.519,0-2.054.038-2.633.038-.344,0-1.419-.038-2.3-.038-.254,0-.386.038-.386.155s.114.174.288.174a3.167,3.167,0,0,1,.673.057c.537.151.688.325.727.882.019.522.019.98.019,3.458V948.4c0,1.5,0,2.788-.076,3.481-.057.477-.151.783-.5.863a2.469,2.469,0,0,1-.594.061c-.212,0-.269.094-.269.17,0,.117.117.174.325.174.673,0,1.748-.057,2.077-.057.25,0,1.65.057,2.626.057.212,0,.348-.057.348-.174l-.212-.17a6.52,6.52,0,0,1-.825-.061c-.522-.079-.6-.386-.655-.863-.075-.692-.094-1.964-.094-3.481v-.223l.133-.136,1.517.038.306.114c.212.253.923,1.347,1.6,2.228a7.666,7.666,0,0,0,2.3,2.4,3.641,3.641,0,0,0,1.843.329h1.615c.208,0,.325-.038.325-.174l-.212-.17A1.484,1.484,0,0,1,1735.523,952.764Zm-6.394-5.8a1.675,1.675,0,0,1-1.192.272,4.719,4.719,0,0,1-1.286-.155c-.114-.06-.151-.117-.151-.291v-4.858l.151-.227a6.16,6.16,0,0,1,1-.06,2.568,2.568,0,0,1,2.577,2.9A2.757,2.757,0,0,1,1729.129,946.964Z" transform="translate(-1526.812 -624.944)"/><path class="b" d="M1766.493,940.8c-.327,0-1.439.04-1.8.04-.5,0-1.093-.04-1.652-.04-.19,0-.287.04-.287.155l.308.193c.288.058.364.209.364.366a2.123,2.123,0,0,1-.251.865c-.248.5-2.3,3.993-2.514,4.376-.289-.46-2.5-4.283-2.8-4.781a1.3,1.3,0,0,1-.213-.558l.231-.248c.268-.08.385-.08.385-.212l-.251-.155c-.769,0-1.556.04-1.92.04-.556,0-1.824-.04-2.113-.04-.212,0-.326.04-.326.155l.249.174a1.657,1.657,0,0,1,.711.211,3.76,3.76,0,0,1,1.094,1.151c.594.862,2.9,4.458,3.016,4.706a3.261,3.261,0,0,1,.382,1.708v1.347c0,.267,0,.939-.058,1.633-.038.477-.172.784-.517.863a2.649,2.649,0,0,1-.595.058c-.193,0-.27.095-.27.172,0,.137.134.173.363.173.635,0,1.768-.057,2.191-.057.461,0,1.592.057,2.65.057.229,0,.363-.057.363-.173,0-.077-.1-.172-.287-.172a6.573,6.573,0,0,1-.845-.058c-.5-.079-.654-.386-.692-.863-.04-.694-.04-1.366-.04-1.633v-1.307a3.778,3.778,0,0,1,.214-1.631,53.816,53.816,0,0,1,3.284-5.226,2.274,2.274,0,0,1,.882-.767,2.082,2.082,0,0,1,.729-.191c.194,0,.328-.076.328-.193C1766.8,940.838,1766.686,940.8,1766.493,940.8Z" transform="translate(-1546.086 -624.943)"/><rect class="b" width="206.875" height="3.428" transform="translate(13.84 306.05)"/><path class="b" d="M1246.651,330.3l12.974-40.2,13.47,40.2h12.384l19.663-60.553,1.918-1.918,1.82,1.82v51.707l-8.948,8.944H1336.3l-8.944-8.944V297.363h18.384v23.988L1336.8,330.3h36.372l-8.945-8.944V269.644l8.945-8.944H1336.8l8.948,8.944v19.069H1327.36V269.644l8.944-8.944h-49.153l8.846,8.846L1284.2,308.373,1272.9,269.546l8.846-8.846H1243.9l8.948,8.944,2.259,6.686-9.731,32.043-11.305-38.827,8.85-8.846H1205.07l9.043,9.043,20.151,60.553Z" transform="translate(-1205.069 -202.167)"/><path class="b" d="M1252.59,479.29l9.043,9.043,17.594,30.178v21.43l-8.944,8.945h36.371l-8.944-8.945V518.708l16.22-30.473,8.944-8.944h-27.526l8.85,8.846-10.322,20.053-10.813-20.053,8.846-8.846Z" transform="translate(-1234.609 -338.051)"/><path class="b" d="M1448.183,474.17c-18.85.795-32.433,17.734-32.433,36.735,0,18.1,12.323,34.329,29.784,36.512-.855-1.521-1.744-3.137-2.664-4.888-7.582-14.419,3.689-25.562,4.048-25.914-5.573,12.055-.821,22.38,4.018,31.026,18.854-.783,32.444-17.73,32.444-36.735,0-18.1-12.323-34.329-29.781-36.512.84,1.517,1.733,3.129,2.656,4.885,7.582,14.423-3.689,25.573-4.052,25.914C1457.793,493.137,1453.026,482.823,1448.183,474.17Zm4.154,17.473-5.937,1c-.041-.3-.091-.579-.121-.893-.042-.428-.072-.84-.1-1.252l5.819-1.646C1452.156,489.819,1452.266,490.742,1452.338,491.643Zm-2.577-10.329c.36.844.681,1.688.961,2.508l-4.563,2.679a24.971,24.971,0,0,1,.3-2.679Zm-3.3,41.521,3.3-2.52q.539,1.283.961,2.52l-4.563,2.675A24.893,24.893,0,0,1,1446.458,522.835Zm-.178,7.93c-.042-.431-.072-.84-.1-1.252l5.819-1.646c.159.965.269,1.888.341,2.789l-5.937,1C1446.359,531.359,1446.31,531.075,1446.28,530.765Zm1.441,6.822c-.219-.662-.431-1.385-.62-2.168l5.274.121c-.068.942-.178,1.794-.31,2.588Zm8.536-19.3c7.582,14.419-3.689,25.573-4.052,25.914,5.607-12.1.794-22.433-4.071-31.109-1.555-2.819-3.349-5.887-5.263-9.527-7.582-14.423,3.689-25.573,4.048-25.914-5.6,12.085-.791,22.433,4.075,31.109C1452.546,511.582,1454.343,514.639,1456.257,518.291Zm-4.192-19.175-4.344-.541c-.219-.662-.431-1.385-.62-2.168l5.274.132C1452.307,497.47,1452.2,498.324,1452.065,499.115Z" transform="translate(-1336.036 -334.868)"/><path class="b" d="M1627.762,479.29H1591.39l8.944,8.944v41.09c0,15.63,14.253,21.529,28.411,21.529,11.7,0,23-7.764,23-21.529v-41.09l8.948-8.944h-27.525l8.944,8.944v41.09c0,7.669-5.111,12.387-11.4,12.387-6.387,0-11.892-4.226-11.892-12.387v-41.09Z" transform="translate(-1445.222 -338.051)"/><path class="b" d="M1433.522,701.339l10.912,10.912V692.69h-54.461l8.944,8.945v51.707l-7.469,7.473h0l-7.473-7.473-13.761-24.869c7.075-2.853,12.285-8.457,12.285-16.22,0-15.335-16.22-19.561-29.883-19.561H1318.7l8.948,8.945v51.707l-6.41,6.406h0l-6.5-6.5-22.119-60.553H1279.25l-21.627,60.553-9.043,9.043h27.03l-8.846-8.846,3.246-9.338h20.643l2.652,9.338-8.846,8.846h70.613l-8.944-8.944V731.813h6.882l14.548,30.473h76.875V742.724l-10.912,10.912H1417.4V729.357h10.715l8.944,8.944V711.759l-8.944,8.944H1417.4V701.339Zm-160.368,34.109,8.059-22.9,6.882,22.9Zm79.463-12.285h-6.489V701.339h6.489c5.6,0,9.928,4.226,9.928,10.912S1358.221,723.163,1352.617,723.163Z" transform="translate(-1232.117 -470.709)"/><path class="b" d="M1207.308,146.9A33.862,33.862,0,0,0,1220.9,131.64c.091.151.167.3.265.45,1.214,1.839,3.114,2.259,5.138,2.263-2.709,4.8-6.962,8.8-8,14.4-.208,1.109.923,3.878,2.07,4.264,1.967.658,3.568-.291,5.138-1.445,2.032-1.491,4-3.076,5.978-4.642.624-.5,1.336-1.2,2.089-1.862a10.27,10.27,0,0,0,1.01,2.331,6.806,6.806,0,0,0,7.817,3.424c4.464-1.112,8.782-4.8,12.342-7.579,1.181-.923,2.319-1.892,3.436-2.883-.083.3-.178.6-.254.9-.78,3.087.579,8.7,4.23,9.463a.226.226,0,0,0,.333-.163,68.4,68.4,0,0,1,8.558-11.252,51.149,51.149,0,0,1,4.26-4.166c.079.068.132.11.163.14a.126.126,0,0,0,.019.015l.008.008.011.008c.031.026.083.072.167.14q-3.178,5.743-6.353,11.491c-.484.874,1.952,5.021,2.418,4.559q5.233-5.193,10.454-10.4a57.149,57.149,0,0,1,4.438-4.17,21.69,21.69,0,0,1,2.357-1.68c-.219.337-.443.677-.655,1.018-1.218,1.945-2.417,3.9-3.625,5.849-.912,1.468-2.452,3.2-2.482,5.006a7.953,7.953,0,0,0,1.8,4.559c2.191,2.849,5.429.261,7.722-1.188s4.525-3.019,6.671-4.684c.677,2.913,2.5,6.394,5.471,7.4,3.258,1.112,7.045-.193,9.886-1.812,3.856-2.2,7.166-5.376,10.371-8.407.072-.064.136-.132.2-.2a10.652,10.652,0,0,0,3.511,6.939c.658,1.12,1.525,2.07,1.714,1.6.972-2.4,1.971-4.8,3.924-6.512,3.068-2.694,5.429-6.436,8.521-9.391a24.161,24.161,0,0,1,2.5-2.1q-.84,1.879-1.684,3.757-1.822,4.069-3.632,8.142c-.355.81.56,2.338.953,3.008.144.246,1.177,1.933,1.5,1.237a36.979,36.979,0,0,1,10.091-13.034,33.213,33.213,0,0,1,3.137-2.281c-1.245,2.535-2.735,4.991-4.048,7.473-1.325,2.5-2.441,4.336-1.294,7.121.923,2.247,2.293,4.385,4.854,3.019a51.48,51.48,0,0,0,10.348-7.529c-.094,2.728.92,6.1,3.33,7.238,1.975.942,4.347-.723,6.024-1.65a50.269,50.269,0,0,0,6.084-3.973,48.858,48.858,0,0,0,7.011-6.648c.095.2.178.409.284.613a8.463,8.463,0,0,0,2.823,3.133,10.243,10.243,0,0,0,.049,2.149,9.549,9.549,0,0,0,4.729,6.466c2.876,1.385,6.285.658,9.039-.662,7.2-3.454,11.657-10.3,16.409-16.394a4.482,4.482,0,0,0,.991.832,5.669,5.669,0,0,0,2.573.643c-.144.159-.287.314-.428.477q-1.464,1.686-2.827,3.458c-1.388,1.812-3.337,3.874-4.014,6.084-.6,1.975.507,4.344,1.653,5.921a3.838,3.838,0,0,0,4.3,1.563c2.3-.5,4.567-2.013,6.5-3.3a30.31,30.31,0,0,0,6.447-5.8c.742-.878-1.665-4.707-2.1-4.313a45.164,45.164,0,0,1-11.078,7.734,10.89,10.89,0,0,1-1.926.715,9.922,9.922,0,0,1,.522-.889q1.2-1.759,2.512-3.443c1.332-1.714,2.944-3.243,4.226-4.979,1.01-1.366.621-2.762-.026-4.226a6.019,6.019,0,0,0-3.159-3.5,6.98,6.98,0,0,0-2.217-.288,10.988,10.988,0,0,1-1.32-.072c-1.668-.257-.727-.893-.163,1.937-.178-.662-1.839-4.5-2.471-3.56-3.715,5.528-8.214,11.139-13.776,14.9-2.625,1.775-5.88,3.367-9.141,3.061a7.1,7.1,0,0,1-2.141-.537,4.689,4.689,0,0,1-.541-.3c0-.053.007-.091.007-.148a15.607,15.607,0,0,1,1.214-3.227c.435.931,1,1.714,1.529,1.631a20.609,20.609,0,0,0,8.918-3.553c2.187-1.57,5.191-4.215,5.971-6.928.628-2.183-1.2-5.645-3.114-6.7-2.6-1.43-6.076.855-8.184,2.3a23.065,23.065,0,0,0-6.315,6.557c-.291.458-.6.961-.893,1.483a.086.086,0,0,0-.049.023,2.97,2.97,0,0,1-1.661.708,3.567,3.567,0,0,1-1.5-.428,5.612,5.612,0,0,1,.265-.984,5.9,5.9,0,0,1,.636-1.218c.321-.4.654-.8.972-1.215.7-.916-1.54-4.438-2.157-4.438-1.044,0-1.668,1.434-1.668,2.251a49.53,49.53,0,0,1-14.48,12.1,17.331,17.331,0,0,1-4.385,2.066,2.141,2.141,0,0,1-.53.053c.14-.628.276-1.256.469-1.873a78.625,78.625,0,0,1,3.171-8.184c.216.2.405.3.53.223a66.845,66.845,0,0,0,18.846-18.135c1.938-2.811,5.12-6.421,3.7-10.015-.458-1.158-1.282-2.766-2.648-2.981-1.956-.3-4.5,1.657-5.914,2.781-6.724,5.346-11.907,13.477-15.7,21.075-1.029,2.066-2.043,4.215-2.929,6.409-.148-.121-.28-.2-.352-.132-1,.87-9.41,7.946-13.757,10.609q.749-1.43,1.5-2.86c1.132-2.164,2.312-4.317,3.371-6.515a5.575,5.575,0,0,0,.117-4.919c-.519-1.283-1.521-3.379-3.084-3.6-1.494-.212-3.428,1.669-4.521,2.509-.692.537-1.362,1.109-2.017,1.691a5.916,5.916,0,0,0-.454-1.994c-.556-1.37-1.57-3.33-3.311-3.133-1.809.2-3.666,2.039-4.9,3.246q-.391.38-.76.783a113.587,113.587,0,0,0-11.026,14.366,2.089,2.089,0,0,0-.594-.454,2.312,2.312,0,0,1-.424-.257,19.336,19.336,0,0,1,.31-2.013c1.022-3.129,3.833-5.524,4.76-8.146a7.709,7.709,0,0,1,2.9-3.243c.844-.658-1.831-4.745-2.21-4.362-4.718,4.8-9.444,9.614-14.552,14.007-4.007,3.451-9.985,8.464-15.751,6.788a14.683,14.683,0,0,1-1.547-.795c-.019-.219-.061-.45-.057-.662a9.332,9.332,0,0,1,1.426-4.408c.076-.064.152-.125.227-.193a.582.582,0,0,0,.148-.257c6.928,3.606,13.939-2.509,17.881-7.817a3.581,3.581,0,0,0,.772-3.772c-.447-1.373-1.328-3.261-2.827-3.757a6.8,6.8,0,0,0-3.946.4,27.445,27.445,0,0,0-4.934,1.986c-3.489,1.835-7.563,5.051-9.724,8.914-2.4,1.96-4.85,3.859-7.412,5.607a55.6,55.6,0,0,1-4.907,3.314c-.314-.344,0,0-.31-.344q2.344-3.774,4.673-7.563a9.261,9.261,0,0,0,1.778-3.746c.17-1.771-1.025-4.745-2.618-5.672-2.1-1.226-5.274,1.309-6.807,2.569-1.162.957-2.281,1.975-3.394,3.012a6.646,6.646,0,0,0,.56-4.287c-.2-.8-1.215-4.064-2.41-3.844-3.19.586-5.687,2.747-7.964,4.964a70,70,0,0,0-7.488,8.524c-.662.9-1.309,1.812-1.926,2.743-.242.371-.48.742-.715,1.116.185-.624.393-1.245.6-1.85a54.707,54.707,0,0,1,5.274-11.029c.586-.942-1.918-4.737-2.357-4.079-.219.329-.435.666-.647,1-.056-.03-.117-.068-.136-.042a77.624,77.624,0,0,1-11.555,10.681,79.487,79.487,0,0,1-7.117,4.7,14.154,14.154,0,0,1-6.061,2.38c-.886.061-2.452-.015-3.148-.7-.242-.238-.148-.227.174-.851a14.723,14.723,0,0,0,.6-1.585,2.546,2.546,0,0,1,.624-.095,16.087,16.087,0,0,0,5.672-1.09c4.873-1.869,13.882-9.773,8.286-15.29-2.19-2.157-6.916,1.093-8.846,2.433a23.909,23.909,0,0,0-7.181,7.889,15.984,15.984,0,0,0-.923,1.937,3.629,3.629,0,0,0-1.018.579c-1.578,1.154-3.136,2.331-4.7,3.515-1.816,1.381-3.587,2.815-5.4,4.192h0c2.705-4.487,6.837-8.256,8-13.492.235-1.052-1.15-4.737-2.486-4.684a53.088,53.088,0,0,1-5.9.238,2.217,2.217,0,0,1-.356-.011c.114-.575.159-1.245.306-1.737.265-.885-.5-2.191-.923-2.921-.113-.193-1.23-1.9-1.457-1.2a36.6,36.6,0,0,1-14.82,19.088C1204.425,143.217,1206.62,147.3,1207.308,146.9Zm193.372-11.778a22.126,22.126,0,0,1,3.787-2.41,11.369,11.369,0,0,1,1.854-.779,4.575,4.575,0,0,1,1.052-.2c-.064.117-.114.212-.136.242a18.306,18.306,0,0,1-1.918,2.338,21.094,21.094,0,0,1-3.462,2.887,20.605,20.605,0,0,1-5.657,2.637A23.228,23.228,0,0,1,1400.68,135.121Zm-16.341-18.683a30.245,30.245,0,0,1,3.916-3.772,18.438,18.438,0,0,1,2.228-1.491,4.987,4.987,0,0,1,.753-.31c-.227.352-.458.7-.681,1.048q-1.572,2.44-3.337,4.756a69.631,69.631,0,0,1-11.812,12.039A78.713,78.713,0,0,1,1384.339,116.437Zm-76.323,19.739a26.678,26.678,0,0,1,7.143-4.079c.579-.216,1.2-.458,1.828-.647-3.106,3.591-7.155,6.879-11.744,7.253A28.075,28.075,0,0,1,1308.016,136.176Zm-67.741.965a24.243,24.243,0,0,1,4.964-4.257,27.1,27.1,0,0,1,3.916-2.2,15.607,15.607,0,0,1-.878,1.32,18.029,18.029,0,0,1-2.989,3.016,18.336,18.336,0,0,1-5.838,3.125C1239.718,137.8,1239.987,137.463,1240.275,137.141Z" transform="translate(-1205.067 -105.997)"/><path class="b" d="M1680.1,255.63c-19.55,0-33.8,17.291-33.8,36.739s14.245,36.743,33.8,36.743,33.791-17.291,33.791-36.743S1699.641,255.63,1680.1,255.63Zm0,64.836c-11.691,0-12.868-15.914-12.868-28.1s1.177-28.093,12.868-28.093,12.868,15.914,12.868,28.093S1691.783,320.466,1680.1,320.466Z" transform="translate(-1479.355 -199.015)"/></g></g></g></svg>