<svg id="Group_1615" data-name="Group 1615" xmlns="http://www.w3.org/2000/svg" width="34.42" height="34.421" viewBox="0 0 34.42 34.421">
  <path id="Path_473" data-name="Path 473" d="M2359.71-5.25a17.21,17.21,0,1,0,17.21,17.21A17.21,17.21,0,0,0,2359.71-5.25Zm9.164,12.508c.01.2.01.4.01.609a13.378,13.378,0,0,1-13.469,13.468,13.191,13.191,0,0,1-7.235-2.14,8.63,8.63,0,0,0,1.129.069,9.513,9.513,0,0,0,5.88-2.022,4.725,4.725,0,0,1-4.417-3.289,4.508,4.508,0,0,0,.893.088,4.719,4.719,0,0,0,1.247-.166,4.74,4.74,0,0,1-3.8-4.643V9.172a4.654,4.654,0,0,0,2.14.589,4.733,4.733,0,0,1-1.472-6.312,13.427,13.427,0,0,0,9.758,4.948,4.326,4.326,0,0,1-.127-1.08,4.736,4.736,0,0,1,8.187-3.24,9.581,9.581,0,0,0,3-1.148,4.727,4.727,0,0,1-2.081,2.621,9.6,9.6,0,0,0,2.719-.746A9.7,9.7,0,0,1,2368.874,7.258Z" transform="translate(-2342.5 5.25)" fill="#682ace"/>
</svg>
