<svg xmlns="http://www.w3.org/2000/svg" width="120.515" height="120.476" viewBox="0 0 120.515 120.476"><defs><style>.a{fill:#cbc5ce;}.b{fill:#fff;}.c{fill:#2b206a;}.d{fill:#ff7051;}</style></defs><g transform="translate(-2313.676 -668.553)"><circle class="a" cx="37.265" cy="37.265" r="37.265" transform="translate(2352.026 714.5)"/><g transform="translate(2387.659 708.334)"><line class="b" y2="30.709" transform="translate(1.631 1.631)"/><path class="c" d="M2383.331,739.1a1.632,1.632,0,0,1-1.631-1.631V706.761a1.631,1.631,0,1,1,3.263,0V737.47A1.632,1.632,0,0,1,2383.331,739.1Z" transform="translate(-2381.7 -705.13)"/></g><g transform="translate(2359.594 732.812)"><path class="d" d="M2413.525,750.278l-27.552,14.074L2357.4,750.278l16.26-16.26a16.7,16.7,0,0,1,23.611,0Z" transform="translate(-2355.764 -727.506)"/><path class="c" d="M2386.1,766.113a1.631,1.631,0,0,1-.721-.169l-28.578-14.074a1.632,1.632,0,0,1-.432-2.617l16.259-16.26a18.351,18.351,0,0,1,25.919,0l16.259,16.26a1.631,1.631,0,0,1-.41,2.606l-27.552,14.075A1.643,1.643,0,0,1,2386.1,766.113Zm-25.812-16.163,25.8,12.707,24.827-12.682L2396.244,735.3a15.065,15.065,0,0,0-21.305,0Z" transform="translate(-2355.896 -727.636)"/></g><g transform="translate(2313.676 739.786)"><path class="b" d="M2363.078,756.74l8.846-.123a66.24,66.24,0,0,0,20.175-3.44l16.638-5.587a50.985,50.985,0,0,1,19.866-2.523h0a4.117,4.117,0,0,1,3.67,2.987h0a4.12,4.12,0,0,1-3.155,5.161l-1.605.321a45.451,45.451,0,0,0-12.7,4.585l-25.6,13.838a42.969,42.969,0,0,1-36.442,2.075h0A52.593,52.593,0,0,0,2316.7,772.9l-1.521.5V746.873h15.148a20.556,20.556,0,0,0,13.126-4.737l3.964-3.29a14.331,14.331,0,0,1,18.276-.022h0a19.688,19.688,0,0,0,12.375,4.5l4.486.036a25.412,25.412,0,0,1,9.721,2.018h0a7.305,7.305,0,0,1,4.437,6.246h0" transform="translate(-2313.545 -733.917)"/><path class="c" d="M2368.927,778.9a44.579,44.579,0,0,1-16.631-3.225,51.046,51.046,0,0,0-34.958-1.1l-1.519.5a1.632,1.632,0,0,1-2.143-1.549V747a1.632,1.632,0,0,1,1.631-1.631h15.148a18.968,18.968,0,0,0,12.084-4.36l3.964-3.29a15.977,15.977,0,0,1,20.357-.025,18.117,18.117,0,0,0,11.35,4.132l4.485.036a26.947,26.947,0,0,1,10.345,2.147,8.884,8.884,0,0,1,5.057,5.6l10.251-3.442a52.364,52.364,0,0,1,20.5-2.6,5.75,5.75,0,0,1,.718,11.374l-1.6.321a43.82,43.82,0,0,0-12.245,4.42l-25.6,13.838A44.527,44.527,0,0,1,2368.927,778.9Zm-35.621-10.151a54.226,54.226,0,0,1,20.206,3.9,41.216,41.216,0,0,0,35.058-2l25.6-13.838a47.079,47.079,0,0,1,13.157-4.75l1.605-.321a2.486,2.486,0,0,0,1.9-3.117,2.492,2.492,0,0,0-2.215-1.8,49.034,49.034,0,0,0-19.23,2.442l-11.988,4.025c-.025.01-.052.018-.079.027l-4.573,1.536a67.83,67.83,0,0,1-20.671,3.526l-8.847.122h-.022a1.631,1.631,0,0,1-.023-3.263l8.847-.122a64.554,64.554,0,0,0,19.677-3.356l3.292-1.106a5.646,5.646,0,0,0-3.234-3.64,23.668,23.668,0,0,0-9.1-1.888l-4.486-.036a21.385,21.385,0,0,1-13.4-4.879,12.708,12.708,0,0,0-16.2.02l-3.964,3.291a22.235,22.235,0,0,1-14.168,5.112h-13.517v22.642A54.252,54.252,0,0,1,2333.305,768.751Z" transform="translate(-2313.676 -734.048)"/></g><g transform="translate(2362.942 683.819)"><ellipse class="b" cx="8.348" cy="14.457" rx="8.348" ry="14.457" transform="translate(0 11.806) rotate(-45)"/><path class="c" d="M2380.726,710.836A18.319,18.319,0,0,1,2363,687.772a1.634,1.634,0,0,1,1.155-1.155,18.326,18.326,0,0,1,22.443,22.444,1.631,1.631,0,0,1-1.154,1.155A18.309,18.309,0,0,1,2380.726,710.836Zm4.3-2.2h0Zm-19.089-19.088a15.06,15.06,0,0,0,17.731,17.73,15.061,15.061,0,0,0-17.731-17.73Z" transform="translate(-2358.675 -682.291)"/></g><g transform="translate(2382.424 694.005)"><ellipse class="b" cx="16.819" cy="9.712" rx="16.819" ry="9.712" transform="translate(0 23.786) rotate(-45)"/><path class="c" d="M2388.385,724.528a20.966,20.966,0,0,1-5.422-.712,1.631,1.631,0,0,1-1.155-1.155,21.051,21.051,0,0,1,25.783-25.783,1.632,1.632,0,0,1,1.155,1.155,21.116,21.116,0,0,1-5.448,20.335h0A21.121,21.121,0,0,1,2388.385,724.528Zm-3.648-3.641a17.786,17.786,0,0,0,21.079-21.079,17.786,17.786,0,0,0-21.079,21.079Zm17.407-3.672h0Z" transform="translate(-2376.517 -691.586)"/></g><g transform="translate(2383.192 674.138)"><ellipse class="b" cx="12.695" cy="7.33" rx="12.695" ry="7.33" transform="translate(0 17.953) rotate(-45)"/><path class="c" d="M2386.3,698.7a16.187,16.187,0,0,1-4.193-.55,1.632,1.632,0,0,1-1.155-1.154,16.289,16.289,0,0,1,19.951-19.951,1.63,1.63,0,0,1,1.154,1.154,16.283,16.283,0,0,1-15.757,20.5Zm-2.41-3.488a13.026,13.026,0,0,0,15.23-15.23,13.024,13.024,0,0,0-15.23,15.23Z" transform="translate(-2377.347 -673.442)"/></g><g transform="translate(2372.151 668.553)"><ellipse class="b" cx="5.316" cy="9.206" rx="5.316" ry="9.206" transform="translate(0 7.517) rotate(-45)"/><path class="c" d="M2381.34,687.18a12.3,12.3,0,0,1-8.686-3.589h0a12.293,12.293,0,0,1-3.174-11.843,1.63,1.63,0,0,1,1.155-1.154,12.26,12.26,0,0,1,15.015,15.016,1.63,1.63,0,0,1-1.154,1.155A12.181,12.181,0,0,1,2381.34,687.18Zm-8.908-13.635a9.026,9.026,0,0,0,2.529,7.739h0a9.021,9.021,0,0,0,7.74,2.529,9,9,0,0,0-10.268-10.268Z" transform="translate(-2367.298 -668.411)"/></g></g></svg>