<svg xmlns="http://www.w3.org/2000/svg" xmlns:xlink="http://www.w3.org/1999/xlink" width="2835.91" height="489.5" viewBox="0 0 2835.91 489.5">
  <defs>
    <clipPath id="clip-path">
      <rect id="Rectangle_1579" data-name="Rectangle 1579" width="2835.91" height="489.5" transform="translate(-2836.138 449.7)" fill="none"/>
    </clipPath>
  </defs>
  <g id="Group_1713" data-name="Group 1713" transform="translate(2836.138 -449.7)">
    <g id="Group_1712" data-name="Group 1712" clip-path="url(#clip-path)">
      <g id="Group_1711" data-name="Group 1711" opacity="0.129">
        <g id="Group_1714" data-name="Group 1714">
          <g id="Group_1711-2" data-name="Group 1711">
            <path id="Path_524" data-name="Path 524" d="M-1404.274,612.438l52.533-245.058-98.433-140.608-394.86,54.643-172,207,267.988,251.024Z" fill="none" stroke="#6132c6" stroke-miterlimit="4.002" stroke-width="5"/>
          </g>
          <g id="Group_1712-2" data-name="Group 1712">
            <path id="Path_524-2" data-name="Path 524-2" d="M-1898.468,686.11l221.376-117.2,44.427-165.69L-1928.152,136l-268.978,1.278-20.049,366.438Z" fill="none" stroke="#6132c6" stroke-width="5"/>
          </g>
          <g id="Group_1713-2" data-name="Group 1713">
            <path id="Path_524-3" data-name="Path 524-3" d="M-1835.226,564.393l-30.082-248.672-138.765-100.853-355.368,180.1-95.2,251.572,334.917,150.034Z" fill="none" stroke="#6132c6" stroke-width="5"/>
          </g>
        </g>
        <g id="Group_1715" data-name="Group 1715">
          <g id="Group_1711-2-2" data-name="Group 1711-2">
            <path id="Path_524-4" data-name="Path 524-4" d="M-1231.775,612.2l-52.536-245.055,98.433-140.609,394.86,54.644,172,206.995L-887,739.2Z" fill="none" stroke="#6132c6" stroke-miterlimit="4.002" stroke-width="5"/>
          </g>
          <g id="Group_1712-2-2" data-name="Group 1712-2">
            <path id="Path_524-5" data-name="Path 524-5" d="M-737.713,686.113-959.089,568.92l-44.427-165.69L-708.03,136.005l268.978,1.274L-419,503.717Z" fill="none" stroke="#6132c6" stroke-width="5"/>
          </g>
          <g id="Group_1713-2-2" data-name="Group 1713-2">
            <path id="Path_524-6" data-name="Path 524-6" d="M-800.95,564.393l30.078-248.67L-632.107,214.87l355.368,180.1,95.2,251.571L-516.455,796.574Z" fill="none" stroke="#6132c6" stroke-width="5"/>
          </g>
        </g>
      </g>
    </g>
  </g>
</svg>
