<svg xmlns="http://www.w3.org/2000/svg" width="123.616" height="116.411" viewBox="0 0 123.616 116.411"><defs><style>.a{fill:#fff;}.b{fill:#2b206a;}.c{fill:#cbc5ce;}.d{fill:#ff7051;}</style></defs><g transform="translate(-610.191 -3803.628)"><g transform="translate(-1685.85 3518.777)"><path class="a" d="M2386.362,314.865a28.514,28.514,0,1,1-28.513-28.514A28.512,28.512,0,0,1,2386.362,314.865Z"/><path class="b" d="M2357.849,344.878a30.013,30.013,0,1,1,30.013-30.013A30.047,30.047,0,0,1,2357.849,344.878Zm0-57.027a27.013,27.013,0,1,0,27.013,27.014A27.044,27.044,0,0,0,2357.849,287.851Z"/><path class="b" d="M2367.459,296.651v5.864s-6.732-.977-6.732,3.366v4.344h6.08l-.76,6.623h-5.32v17.265h-6.733V316.848l-5.755-.108v-6.515h5.646V305.23s-.372-7.431,6.95-8.8A19.566,19.566,0,0,1,2367.459,296.651Z"/></g><g transform="translate(-1685.85 3518.777)"><rect class="c" width="120.616" height="45.493" rx="22.747" transform="translate(2297.541 354.268)"/><path class="b" d="M2395.41,401.262h-75.122a24.246,24.246,0,1,1,0-48.493h75.122a24.246,24.246,0,1,1,0,48.493Zm-75.122-45.493a21.246,21.246,0,1,0,0,42.493h75.122a21.246,21.246,0,1,0,0-42.493Z"/></g><g transform="translate(14.775)"><g transform="translate(-1685.85 3518.777)"><circle class="d" cx="13.739" cy="13.739" r="13.739" transform="translate(2309.038 363.276)"/><path class="b" d="M2322.776,392.253a15.238,15.238,0,1,1,15.24-15.238A15.256,15.256,0,0,1,2322.776,392.253Zm0-27.477a12.238,12.238,0,1,0,12.24,12.239A12.253,12.253,0,0,0,2322.776,364.776Z"/></g><g transform="translate(-1685.85 3518.777)"><path class="a" d="M2329.317,377.015a6.54,6.54,0,1,1-13.08,0Z"/><path class="b" d="M2322.776,385.055a8.049,8.049,0,0,1-8.039-8.04,1.5,1.5,0,0,1,1.5-1.5h13.079a1.5,1.5,0,0,1,1.5,1.5A8.049,8.049,0,0,1,2322.776,385.055Zm-4.811-6.54a5.041,5.041,0,0,0,9.624,0Z"/></g><g transform="translate(-1685.85 3518.777)"><circle class="b" cx="1.625" cy="1.625" r="1.625" transform="translate(2315.029 370.217)"/><circle class="b" cx="1.625" cy="1.625" r="1.625" transform="translate(2327.274 370.217)"/></g></g><g transform="translate(14.775)"><g transform="translate(-1720.924 3518.777)"><circle class="d" cx="13.739" cy="13.739" r="13.739" transform="translate(2379.183 363.276)"/><path class="b" d="M2392.921,392.253a15.238,15.238,0,1,1,15.239-15.238A15.256,15.256,0,0,1,2392.921,392.253Zm0-27.477a12.238,12.238,0,1,0,12.239,12.239A12.253,12.253,0,0,0,2392.921,364.776Z"/></g><path class="b" d="M2392.921,385.055a8.049,8.049,0,0,1-8.04-8.04,1.5,1.5,0,0,1,3,0,5.04,5.04,0,1,0,10.08,0,1.5,1.5,0,0,1,3,0A8.049,8.049,0,0,1,2392.921,385.055Z" transform="translate(-1720.924 3518.777)"/><g transform="translate(-1720.924 3518.777)"><circle class="b" cx="1.625" cy="1.625" r="1.625" transform="translate(2385.173 370.217)"/><circle class="b" cx="1.625" cy="1.625" r="1.625" transform="translate(2397.419 370.217)"/></g></g></g></svg>