<svg xmlns="http://www.w3.org/2000/svg" width="260.198" height="260.198" viewBox="0 0 260.198 260.198"><g transform="translate(-1046.809 -1958.768)"><g transform="translate(497.809 671.768)"><circle cx="130.099" cy="130.099" r="130.099" transform="translate(549 1287)" fill="#f6f7fa"/></g><g transform="translate(664.627 1586.25)"><g transform="translate(412.272 403.6)"><path d="M418.694,472.338a1.822,1.822,0,0,1-.894-3.409l25.591-14.4a1.821,1.821,0,0,1,1.784,3.174l-25.591,14.4A1.813,1.813,0,0,1,418.694,472.338Z" transform="translate(-408.497 -359.354)" fill="#2b206a"/><path d="M415.037,467.737a1.822,1.822,0,0,1-.9-3.407l32.25-18.244a1.822,1.822,0,0,1,1.792,3.172L415.931,467.5A1.8,1.8,0,0,1,415.037,467.737Z" transform="translate(-411.499 -366.287)" fill="#2b206a"/><path d="M440.281,454.07a1.821,1.821,0,0,1-.912-3.4l34.289-19.8a1.821,1.821,0,0,1,1.821,3.154l-34.289,19.8A1.806,1.806,0,0,1,440.281,454.07Z" transform="translate(-390.777 -378.782)" fill="#2b206a"/><path d="M466.643,465.406a1.822,1.822,0,0,1-.934-3.385l10.882-6.5c10.692-6.175,31.314-5.987,44.353-1.843l-25.827-44.3c-2.913,13.367-13.072,31.367-23.763,37.539l-3.685,2.52a1.821,1.821,0,1,1-2.052-3.008l3.8-2.595c11.193-6.468,22.051-27.712,22.841-39.974a1.821,1.821,0,0,1,3.39-.8l31.084,53.323a1.821,1.821,0,0,1-2.38,2.549c-11.013-5.444-34.843-6.661-45.919-.268l-10.86,6.484A1.808,1.808,0,0,1,466.643,465.406Z" transform="translate(-369.135 -402.156)" fill="#2b206a"/><path d="M440.281,460.187a1.821,1.821,0,0,1-.912-3.4l25.34-14.631a1.821,1.821,0,1,1,1.821,3.154L441.19,459.943A1.807,1.807,0,0,1,440.281,460.187Z" transform="translate(-390.777 -369.519)" fill="#2b206a"/><g transform="translate(33.965 39.517)"><path d="M445.642,452.29v34.289S479.487,465.912,479.931,466V431.715l13.715-6.857v127l-27.155-6.945-34.566,25.915V459.147Z" transform="translate(-430.104 -423.037)" fill="#fff"/><path d="M432.746,573.473a1.823,1.823,0,0,1-1.821-1.821V459.968a1.823,1.823,0,0,1,1.007-1.63l13.717-6.857a1.822,1.822,0,0,1,2.635,1.63v31.044c20.358-12.426,27.73-16.854,30.647-18.38V432.536a1.823,1.823,0,0,1,1.007-1.63l13.715-6.857a1.821,1.821,0,0,1,2.635,1.63v127a1.82,1.82,0,0,1-2.272,1.764l-26.308-6.728-33.87,25.391A1.8,1.8,0,0,1,432.746,573.473Zm1.821-112.38V568.011l31.654-23.73a1.824,1.824,0,0,1,1.542-.306l24.882,6.362V428.625l-10.073,5.037v33.166a1.822,1.822,0,0,1-1.244,1.726c-1.926.949-21.241,12.659-33.918,20.4a1.822,1.822,0,0,1-2.77-1.555V456.057Z" transform="translate(-430.925 -423.858)" fill="#2b206a"/></g><path d="M424.383,475.7a1.818,1.818,0,0,1-1.579-.91l-10.288-17.817a1.822,1.822,0,0,1,3.156-1.821l10.286,17.817a1.819,1.819,0,0,1-1.575,2.731Z" transform="translate(-412.272 -359.401)" fill="#2b206a"/><g transform="translate(48.998 109.8)"><path d="M459.307,481.313c.189-.124.384-.242.566-.375a10.794,10.794,0,0,1,17.089,7.293,10.646,10.646,0,0,1-9.72,12.058c-3.416.208-19.372.066-23.406.056a3.19,3.19,0,0,1-3.518-3.514c-.013-2.347-.091-17.277-.138-22.393a10.764,10.764,0,0,1,10.239-10.964,10.632,10.632,0,0,1,7.926,2.735,10.448,10.448,0,0,1,2.28,12.468c-.337.7-.768,1.36-1.156,2.039-.095.162-.186.326-.279.49Z" transform="translate(-438.36 -461.635)" fill="#ff7051"/><path d="M459.045,503.043c-3.74,0-7.844-.024-10.945-.04l-3.445-.018a4.971,4.971,0,0,1-5.337-5.321l0-.319c-.016-3.137-.091-17.147-.135-22.071a12.581,12.581,0,1,1,24.679,2.986,12.611,12.611,0,0,1,12.988,20.172,12.238,12.238,0,0,1-8.675,4.494C466.708,503.016,463.09,503.043,459.045,503.043ZM451.908,466.1c-.191,0-.381,0-.574.015a8.937,8.937,0,0,0-8.511,9.126c.044,4.927.118,18.948.135,22.086l0,.317c.007,1.253.453,1.7,1.7,1.7l3.46.018c5.989.033,17.131.095,19.83-.069a8.472,8.472,0,0,0,6.08-3.167,8.882,8.882,0,0,0,1.95-6.823,8.973,8.973,0,0,0-14.219-6.069c-.16.115-.326.224-.492.33a2.027,2.027,0,0,1-2.367-.082l-.082-.076a1.91,1.91,0,0,1-.393-2.274l.676-1.169c.246-.41.5-.819.7-1.249a8.591,8.591,0,0,0-1.854-10.33A8.764,8.764,0,0,0,451.908,466.1Z" transform="translate(-439.181 -462.456)" fill="#2b206a"/></g></g><g transform="translate(522.363 491.101)"><g transform="translate(3.516)"><path d="M474.852,469.461a.636.636,0,0,1-.189-.468V451.05a.707.707,0,0,1,.177-.5.633.633,0,0,1,.482-.191h7.994a7.045,7.045,0,0,1,4.811,1.417,4.944,4.944,0,0,1,1.584,3.873,4.213,4.213,0,0,1-2.345,3.888,4.6,4.6,0,0,1,1.945,1.71,4.772,4.772,0,0,1,.789,2.7,5.336,5.336,0,0,1-1.726,4.135,6.917,6.917,0,0,1-4.836,1.57h-8.214A.642.642,0,0,1,474.852,469.461Zm7.968-11.191a3.107,3.107,0,0,0,2.178-.688,2.394,2.394,0,0,0,.741-1.846A2.3,2.3,0,0,0,485,453.9a3.237,3.237,0,0,0-2.178-.648h-4.328v5.015Zm.277,8.464a3.037,3.037,0,0,0,2.229-.787,2.668,2.668,0,0,0,.8-2,2.705,2.705,0,0,0-.8-2.025,3.038,3.038,0,0,0-2.229-.787h-4.605v5.6Z" transform="translate(-474.663 -450.085)" fill="#2b206a"/><path d="M485.236,469.461a.636.636,0,0,1-.189-.468V451.021a.626.626,0,0,1,.189-.481.667.667,0,0,1,.47-.178h2.564a.645.645,0,0,1,.483.178.654.654,0,0,1,.18.481v15.354h8.737a.664.664,0,0,1,.688.69v1.928a.621.621,0,0,1-.195.483.688.688,0,0,1-.493.178H485.706A.642.642,0,0,1,485.236,469.461Z" transform="translate(-466.139 -450.085)" fill="#2b206a"/><path d="M493.035,469.489a.54.54,0,0,1-.178-.413l.053-.246,6.644-17.779a.893.893,0,0,1,.963-.688h3a.951.951,0,0,1,.967.688l6.641,17.779a.753.753,0,0,1,.029.246.556.556,0,0,1-.166.413.526.526,0,0,1-.384.166h-2.4a.815.815,0,0,1-.552-.166.747.747,0,0,1-.246-.357l-1.295-3.363h-8.189l-1.3,3.363a.8.8,0,0,1-.8.523h-2.4A.571.571,0,0,1,493.035,469.489Zm12.113-6.888-3.141-8.518-3.116,8.518Z" transform="translate(-459.728 -450.085)" fill="#2b206a"/><path d="M505.971,468.1a7.633,7.633,0,0,1-2.218-5.514q-.027-.743-.029-2.425c0-1.14.011-1.965.029-2.48a7.582,7.582,0,0,1,2.247-5.5,8.236,8.236,0,0,1,5.858-1.972,10.119,10.119,0,0,1,4.272.839,6.746,6.746,0,0,1,2.811,2.289,6.007,6.007,0,0,1,1.049,3.267v.055a.47.47,0,0,1-.18.371.606.606,0,0,1-.4.153h-2.617a.758.758,0,0,1-.5-.138,1.084,1.084,0,0,1-.275-.524,4.034,4.034,0,0,0-1.46-2.44,4.75,4.75,0,0,0-2.728-.7q-3.969,0-4.135,4.438-.03.743-.029,2.289c0,1.027.009,1.81.029,2.34q.164,4.441,4.135,4.439a4.732,4.732,0,0,0,2.742-.716,3.931,3.931,0,0,0,1.446-2.425.883.883,0,0,1,.262-.524.812.812,0,0,1,.512-.138h2.617a.611.611,0,0,1,.426.166.462.462,0,0,1,.155.413,6.007,6.007,0,0,1-1.049,3.267,6.743,6.743,0,0,1-2.811,2.287,10.092,10.092,0,0,1-4.272.841A8.273,8.273,0,0,1,505.971,468.1Z" transform="translate(-450.807 -450.21)" fill="#2b206a"/><path d="M514.647,469.461a.636.636,0,0,1-.189-.468V451.05a.707.707,0,0,1,.177-.5.636.636,0,0,1,.483-.191h2.425a.661.661,0,0,1,.69.688v6.45l6.229-6.643a1.237,1.237,0,0,1,1.073-.5h2.733a.555.555,0,0,1,.4.166.526.526,0,0,1,.18.411.505.505,0,0,1-.107.33l-7.582,8.325,8.1,9.123a.553.553,0,0,1,.138.359.538.538,0,0,1-.177.413.578.578,0,0,1-.4.166h-2.841a1.289,1.289,0,0,1-1.074-.5l-6.67-7.3v7.138a.627.627,0,0,1-.195.483.69.69,0,0,1-.5.178h-2.425A.642.642,0,0,1,514.647,469.461Z" transform="translate(-441.996 -450.085)" fill="#2b206a"/></g><g transform="translate(0 23.55)"><path d="M474.964,481.086a7.581,7.581,0,0,1-2.207-5.65q-.025-.8-.025-2.344,0-1.57.025-2.371a7.546,7.546,0,0,1,2.263-5.623,9.561,9.561,0,0,1,11.588,0,7.512,7.512,0,0,1,2.274,5.623c.035,1.067.055,1.857.055,2.371,0,.5-.02,1.277-.055,2.344a7.669,7.669,0,0,1-2.231,5.65,9.934,9.934,0,0,1-11.688,0Zm8.793-2.385a4.927,4.927,0,0,0,1.184-3.4c.038-1.1.055-1.846.055-2.232,0-.422-.016-1.167-.055-2.232a4.93,4.93,0,0,0-1.184-3.4,3.958,3.958,0,0,0-2.948-1.118,3.919,3.919,0,0,0-2.923,1.118,4.93,4.93,0,0,0-1.187,3.4q-.025.8-.026,2.232,0,1.407.026,2.232a4.985,4.985,0,0,0,1.171,3.4,3.918,3.918,0,0,0,2.939,1.118A3.958,3.958,0,0,0,483.757,478.7Z" transform="translate(-472.732 -463.143)" fill="#2b206a"/><path d="M486.5,482.368a.958.958,0,0,1-.3-.606l-3.279-17.668-.031-.22a.548.548,0,0,1,.18-.413.572.572,0,0,1,.4-.166H485.9c.459,0,.714.184.77.552l2.289,12.486,2.48-8.076a.941.941,0,0,1,.907-.69h1.49a.847.847,0,0,1,.883.69l2.507,8.046,2.289-12.457a.634.634,0,0,1,.233-.428.962.962,0,0,1,.539-.124h2.425a.517.517,0,0,1,.384.166.557.557,0,0,1,.168.413.716.716,0,0,1-.029.22l-3.279,17.668a.885.885,0,0,1-.965.827h-1.846a.986.986,0,0,1-.632-.193.906.906,0,0,1-.331-.5l-3.09-9.206L490,481.9a1,1,0,0,1-.994.688h-1.846A.974.974,0,0,1,486.5,482.368Z" transform="translate(-464.396 -463.019)" fill="#2b206a"/><path d="M496.036,482.4a.639.639,0,0,1-.189-.468V463.982a.705.705,0,0,1,.177-.5.631.631,0,0,1,.483-.193h2.125a.827.827,0,0,1,.5.124,1.529,1.529,0,0,1,.3.317l7.939,12.349v-12.1a.692.692,0,0,1,.18-.5.616.616,0,0,1,.481-.193h2.316a.668.668,0,0,1,.5.193.678.678,0,0,1,.193.5V481.9a.675.675,0,0,1-.193.5.636.636,0,0,1-.47.193h-2.147a.976.976,0,0,1-.8-.441l-7.912-12.073v11.852a.631.631,0,0,1-.191.482.7.7,0,0,1-.5.179h-2.314A.642.642,0,0,1,496.036,482.4Z" transform="translate(-453.757 -463.019)" fill="#2b206a"/><path d="M506.739,482.4a.633.633,0,0,1-.191-.468V463.982a.705.705,0,0,1,.177-.5.631.631,0,0,1,.483-.193h12.131a.671.671,0,0,1,.5.193.678.678,0,0,1,.193.5V465.8a.633.633,0,0,1-.193.484.706.706,0,0,1-.5.178h-9.072v4.878h8.465a.7.7,0,0,1,.493.18.623.623,0,0,1,.195.481v1.71a.623.623,0,0,1-.195.481.7.7,0,0,1-.493.18h-8.465v5.044h9.29a.664.664,0,0,1,.69.69v1.819a.627.627,0,0,1-.195.482.7.7,0,0,1-.5.179H507.207A.638.638,0,0,1,506.739,482.4Z" transform="translate(-444.973 -463.019)" fill="#2b206a"/><path d="M516.154,482.4a.64.64,0,0,1-.191-.468V463.982a.706.706,0,0,1,.178-.5.625.625,0,0,1,.481-.193h6.726q8.107,0,8.27,7.5.055,1.6.056,2.15,0,.522-.056,2.123-.112,3.859-2.069,5.69t-6.064,1.834h-6.865A.638.638,0,0,1,516.154,482.4Zm7.194-2.977a4.541,4.541,0,0,0,3.336-1.034,4.9,4.9,0,0,0,1.074-3.4c.036-1.1.056-1.792.056-2.067,0-.295-.02-.974-.056-2.039a3.937,3.937,0,0,0-4.549-4.41h-3.416v12.954Z" transform="translate(-437.244 -463.019)" fill="#2b206a"/></g></g><path d="M503.608,431.24a1.8,1.8,0,0,1-.5-.069,1.822,1.822,0,0,1-1.26-2.245c.015-.051,1.51-5.594-.865-9.642s-7.939-5.446-8-5.459a1.821,1.821,0,0,1,.852-3.542c.289.069,7.116,1.757,10.284,7.158s1.313,12.185,1.233,12.471A1.822,1.822,0,0,1,503.608,431.24Z" transform="translate(65.12 8.076)" fill="#cbc5ce"/><path d="M511.15,437.9a1.843,1.843,0,0,1-.493-.067,1.823,1.823,0,0,1-1.262-2.243c.027-.1,2.635-9.7-1.546-16.83s-13.841-9.538-13.939-9.562a1.821,1.821,0,0,1,.85-3.542c.457.109,11.251,2.777,16.228,11.26s2.039,19.207,1.914,19.658A1.82,1.82,0,0,1,511.15,437.9Z" transform="translate(65.872 4.275)" fill="#cbc5ce"/><path d="M519.341,445.779a1.861,1.861,0,0,1-.494-.067,1.822,1.822,0,0,1-1.26-2.245c.04-.144,3.94-14.463-2.34-25.163-6.3-10.734-20.678-14.281-20.822-14.316a1.821,1.821,0,1,1,.847-3.542c.652.157,16.042,3.957,23.116,16.015s2.886,27.346,2.7,27.993A1.823,1.823,0,0,1,519.341,445.779Z" transform="translate(66.292 0)" fill="#cbc5ce"/></g></g></svg>