<svg xmlns="http://www.w3.org/2000/svg" width="347.105" height="264.172" viewBox="0 0 347.105 264.172"><defs><style>.a{fill:#0557fa;}.b{fill:#fff;}.c{fill:#fffefe;}.d{fill:#682ace;}</style></defs><g transform="translate(-294.208 -1940.914)"><g transform="translate(-71.793 64.492)"><g transform="translate(588.216 1876.422) rotate(90)"><rect class="a" width="157.13" height="157.13" transform="translate(222.215 111.107) rotate(135)"/><path class="b" d="M9.062,98.591,98.59,9.062l89.527,89.528L98.59,188.117,9.062,98.591M0,98.591,98.59,197.18l98.589-98.589L98.59,0,0,98.591Z" transform="translate(12.517 12.517)"/><g transform="translate(50.765 88.674)"><path class="b" d="M32.16,2.752C30.786,3.812,0,22.345,0,22.345l.858.706,3.914,2.857s3.786,3.3,7.174,3.2c2.22-.07,8.787-2.01,13.125,4.023,0,0-1.294-3.989-4.976-5.292-5.077-1.8-8.055.653-11.112-1.06a29.85,29.85,0,0,1-3.7-2.328s-1.557-1.1-2.553-1.916C4.51,21.436,33.993,3.6,33.993,3.6V0H33.21A2.943,2.943,0,0,1,32.16,2.752Z"/><path class="b" d="M6.243,20.334a7.1,7.1,0,0,0-3.071-3.809L27.5,1.968,27.408,0,0,16.525Z" transform="translate(6.655 6.23)"/><path class="b" d="M0,0S1.586,5.506,7.408,5.506c5.195,0,7.831-.742,11.641,2.01V5.506S18.523,4.233,14.6,3.812,4.127,5.4,0,0Z" transform="translate(15.017 29.845)"/><path class="b" d="M0,0A10.546,10.546,0,0,0,7.2,6.724V4.711C2.719,4.2,0,0,0,0Z" transform="translate(26.763 36.197)"/><path class="b" d="M.923,2.362,1.362.284C1.232.225,1.1.168.956.11.855.071.758.037.659,0L0,2.017C.29,2.14.6,2.257.923,2.362Z" transform="translate(19.217 30.092)"/><path class="b" d="M1.028,1.969.786.531C.554.357.293.179,0,0L.09,1.859C.391,1.907.7,1.945,1.028,1.969Z" transform="translate(21.828 31.024)"/><path class="b" d="M.756,1.785l.9-1.624C1.383.094,1.122.041.881,0L0,1.264C.229,1.435.476,1.608.756,1.785Z" transform="translate(16.932 29.534)"/><path class="b" d="M1.522,0,0,1.717c.155.106.316.213.488.32.046.026.1.055.146.08L2.4.5A8.636,8.636,0,0,0,1.522,0Z" transform="translate(30.214 36.894)"/><path class="b" d="M1.834.018,1.815,0,0,1.15a10.032,10.032,0,0,0,1.032.288l.8-.406Z" transform="translate(32.131 38.424)"/><path class="b" d="M.6,0,0,1.139c.162.166.348.345.567.531l.951-1.5A7.6,7.6,0,0,0,.6,0Z" transform="translate(28.576 36.115)"/></g><g transform="translate(96.153 44.694)"><g transform="translate(0 0)"><path class="c" d="M9.371,6.829V8.067h4.265l2.012-2.012v8.177l-2.012-2.012H2.01L0,14.233v-7.4C0,3.4,1.414,0,4.685,0S9.371,3.4,9.371,6.829Zm-7.426,0V8.067H7.426V6.829c0-1.392-1.106-2.343-2.741-2.343S1.945,5.436,1.945,6.829Z" transform="translate(0.331 119.106)"/><path class="c" d="M15.647,8.84l-1.99-1.99-2.1.6v4.641l2.1.73,1.99-1.99v6.078l-2.033-2.033L0,10.012V7.006L13.613,2.033,15.647,0ZM4.464,9.568l5.15,1.814V8.022Z" transform="translate(0.331 103.109)"/><path class="c" d="M1.945,2.452V4.419h11.69l2.012-2.01v8.176l-2.012-2.01H1.945v1.967L4.4,12.994H0V0H4.4Z" transform="translate(0.331 90.54)"/><path class="c" d="M15.647,5.7,8.8,8.974V10.52h4.84l2.012-2.012v8.177l-2.012-2.012H2.01L0,16.686V9.061C0,5.99.951,2.343,4.4,2.343A3.966,3.966,0,0,1,8.044,5.106l5.592-3.094L15.647,0ZM1.945,9.061V10.52H6.85V9.061A2.247,2.247,0,0,0,4.4,6.829,2.248,2.248,0,0,0,1.945,9.061Z" transform="translate(0.331 72.178)"/><path class="c" d="M15.647,8.177,13.635,6.166H2.01L0,8.177V0L2.01,2.012H13.635L15.647,0Z" transform="translate(0.331 63.124)"/><path class="c" d="M16.31,4.84c0,4.045-3.6,7.6-8.154,7.6S0,9.1,0,4.84A8.876,8.876,0,0,1,1.148,0H5.724L2.917,2.807A2.607,2.607,0,0,0,1.945,4.84c0,2.41,2.365,2.9,6.211,2.9s6.209-.486,6.209-2.9a2.607,2.607,0,0,0-.972-2.033L10.586,0H15.16A8.679,8.679,0,0,1,16.31,4.84Z" transform="translate(0 48.849)"/><path class="c" d="M15.647,12.353l-2.012-2.01H2.01L0,12.353V4.177l2.01,2.01H13.7V2.453L11.249,0h4.4Z" transform="translate(0.331 34.158)"/><path class="c" d="M15.647,8.839,13.657,6.85l-2.1.6v4.642l2.1.728,1.99-1.988v6.077l-2.033-2.032L0,10.01v-3L13.613,2.033,15.647,0Zm-11.183.73,5.15,1.813V8.022Z" transform="translate(0.331 16.128)"/><path class="c" d="M2.01,2.012H17.26L5.547,11.073h8.089l2.012-2.012v6.188l-2.012-2.01H2.01L0,15.249V10.012L7.911,4.177H2.01L0,6.188V0Z" transform="translate(0.331)"/></g></g><g transform="translate(123.32 68.294)"><g transform="translate(0 0)"><path class="b" d="M0,6.7V3.024A2.682,2.682,0,0,1,2.8,0,2.769,2.769,0,0,1,5.6,3.024V5.341h3.56V6.7ZM2.8,1.414A1.4,1.4,0,0,0,1.308,2.946V5.341H4.293V2.946A1.406,1.406,0,0,0,2.8,1.414Z" transform="translate(0 68.217)"/><path class="b" d="M7.055,2.147v3.7L9.162,6.6V8.011L0,4.7V3.3L9.162,0V1.414ZM2.736,3.678A8.666,8.666,0,0,1,1.7,3.993c.314.078.732.209,1.034.314L5.851,5.432V2.565Z" transform="translate(0 60.703)"/><path class="b" d="M9.162,2.591V3.954H1.308V6.545H0V0H1.308V2.591Z" transform="translate(0 54.326)"/><path class="b" d="M0,5.968V.288H1.282V4.607H3.8V1.819H5.079V4.607h2.8V0H9.162V5.968Z" transform="translate(0 46.72)"/><path class="b" d="M0,6.82V2.958C0,.706,1.335,0,2.708,0A2.6,2.6,0,0,1,5.3,1.99L9.162.105V1.662L5.418,3.468v1.99H9.162V6.82ZM4.11,2.932a1.332,1.332,0,0,0-1.4-1.518,1.327,1.327,0,0,0-1.4,1.518V5.458h2.8Z" transform="translate(0 38.131)"/><path class="b" d="M9.162,1.282,2.944,5.249a6.6,6.6,0,0,1-.681.367c.21-.014.445-.04.681-.04H9.162V6.938H0V5.563L6.113,1.7c.236-.145.445-.25.706-.381a6.415,6.415,0,0,1-.693.04H0V0H9.162Z" transform="translate(0 29.293)"/><path class="b" d="M7.055,2.147v3.7L9.162,6.6V8.011L0,4.7V3.3L9.162,0V1.414ZM2.736,3.678A8.919,8.919,0,0,1,1.7,3.992c.314.079.732.21,1.034.315L5.851,5.432V2.565Z" transform="translate(0 19.946)"/><path class="b" d="M0,5.838V4.477H7.853V0H9.162V5.838Z" transform="translate(0 12.769)"/><path class="b" d="M0,5.838V4.477H7.853V0H9.162V5.838Z" transform="translate(15.711 78.579)"/><path class="b" d="M0,1.362V0H9.162V1.362Z" transform="translate(15.711 75.777)"/><path class="b" d="M9.162,1.282,2.944,5.249a6.593,6.593,0,0,1-.681.367c.21-.014.445-.04.681-.04H9.162V6.938H0V5.563L6.113,1.7c.236-.143.445-.248.706-.379a6.419,6.419,0,0,1-.693.04H0V0H9.162Z" transform="translate(15.711 66.548)"/><path class="b" d="M0,5.968V.288H1.282V4.607H3.8V1.819H5.079V4.607h2.8V0H9.162V5.968Z" transform="translate(15.711 58.353)"/><path class="b" d="M7.055,2.147v3.7L9.162,6.6V8.011L0,4.7V3.3L9.162,0V1.414ZM2.736,3.678A8.415,8.415,0,0,1,1.7,3.992c.314.079.732.21,1.034.315L5.851,5.432V2.565Z" transform="translate(15.711 49.2)"/><path class="b" d="M4.738,7.33C2.5,7.33,0,6.073,0,3.337A3.336,3.336,0,0,1,1.74.21l.706,1.23a2.2,2.2,0,0,0-1.111,1.9c0,1.99,1.885,2.579,3.4,2.579,1.754,0,3.4-.76,3.4-2.579A1.877,1.877,0,0,0,6.2,1.4H6.021v1.65H4.738V0H5.928A3.226,3.226,0,0,1,9.476,3.337C9.476,6.166,7.133,7.33,4.738,7.33Z" transform="translate(15.554 41.188)"/><path class="b" d="M0,5.968V.288H1.282V4.607H3.8V1.819H5.079V4.607h2.8V0H9.162V5.968Z" transform="translate(15.711 33.32)"/><path class="b" d="M9.162,2.593V3.954H1.308V6.545H0V0H1.308V2.593Z" transform="translate(15.711 23.107)"/><path class="b" d="M0,5.968V.288H1.282V4.607H3.8V1.819H5.079V4.607h2.8V0H9.162V5.968Z" transform="translate(15.711 15.501)"/><path class="b" d="M7.251,6.467,6.779,5.184A2.27,2.27,0,0,0,8.168,3.077c0-1-.484-1.662-1.414-1.662-1,0-1.347,1-1.728,2.069-.458,1.268-.955,2.669-2.631,2.669C1.1,6.152,0,5.092,0,3.234A2.694,2.694,0,0,1,1.819.406l.419,1.256a1.692,1.692,0,0,0-.93,1.676c0,.877.406,1.4,1.1,1.4.747,0,1.047-.851,1.388-1.845C4.28,1.571,4.843,0,6.741,0,8.5,0,9.476,1.362,9.476,3.129A3.334,3.334,0,0,1,7.251,6.467Z" transform="translate(15.554 7.789)"/><path class="b" d="M9.162,2.591V3.952H1.308V6.544H0V0H1.308V2.591Z" transform="translate(15.711)"/></g></g></g><g transform="translate(713.105 1950.804) rotate(90)"><ellipse class="d" cx="94.895" cy="94.895" rx="94.895" ry="94.895"/><path class="b" d="M6.362,87.4A81.036,81.036,0,1,1,87.4,168.435,81.127,81.127,0,0,1,6.362,87.4M0,87.4A87.4,87.4,0,1,0,87.4,0,87.5,87.5,0,0,0,0,87.4Z" transform="translate(7.427 7.492)"/><g transform="translate(44.047 72.525)"><g transform="translate(0)"><path class="b" d="M32.16,2.752C30.785,3.81,0,22.344,0,22.344l.858.706,3.914,2.857s3.786,3.3,7.174,3.2c2.22-.07,8.787-2.012,13.124,4.022,0,0-1.294-3.989-4.975-5.292-5.077-1.8-8.055.655-11.112-1.06a29.752,29.752,0,0,1-3.7-2.328s-1.556-1.1-2.553-1.915C4.51,21.435,33.993,3.6,33.993,3.6V0H33.21A2.948,2.948,0,0,1,32.16,2.752Z"/><path class="b" d="M6.243,20.336a7.1,7.1,0,0,0-3.07-3.809L27.5,1.968,27.41,0,0,16.527Z" transform="translate(6.654 6.228)"/><path class="b" d="M0,0S1.586,5.507,7.407,5.507c5.2,0,7.832-.743,11.641,2.009V5.507S18.522,4.235,14.6,3.813,4.127,5.4,0,0Z" transform="translate(15.017 29.844)"/><path class="b" d="M0,0A10.545,10.545,0,0,0,7.2,6.724V4.711C2.718,4.2,0,0,0,0Z" transform="translate(26.763 36.197)"/><path class="b" d="M.923,2.361,1.362.284C1.23.224,1.1.166.956.109.855.07.757.037.659,0L0,2.016C.29,2.138.6,2.257.923,2.361Z" transform="translate(19.217 30.092)"/><path class="b" d="M1.028,1.969.784.531A9.281,9.281,0,0,0,0,0L.089,1.857C.391,1.905.7,1.945,1.028,1.969Z" transform="translate(21.828 31.024)"/><path class="b" d="M.756,1.785l.9-1.624C1.383.093,1.122.04.881,0L0,1.264C.228,1.433.475,1.608.756,1.785Z" transform="translate(16.932 29.534)"/><path class="b" d="M1.522,0,0,1.718c.154.105.316.213.488.32.046.026.1.053.146.08L2.4.5A8.536,8.536,0,0,0,1.522,0Z" transform="translate(30.214 36.892)"/><path class="b" d="M1.833.019,1.815,0,0,1.15a9.7,9.7,0,0,0,1.032.288l.8-.406Z" transform="translate(32.131 38.422)"/><path class="b" d="M.6,0,0,1.14c.164.165.348.344.569.529l.951-1.5A7.925,7.925,0,0,0,.6,0Z" transform="translate(28.574 36.113)"/></g></g><g transform="translate(88.584 24.415)"><path class="c" d="M15.647,8.176l-2.01-2.01H4.4l8,4.442L4.376,15.05h9.26l2.01-2.012v6.189l-2.01-2.012H2.012L0,19.227V12.972l6.41-3.6L0,5.768V0L2.012,2.01H13.637L15.647,0Z" transform="translate(0.331 121.115)"/><path class="c" d="M15.647,8.84,13.658,6.85l-2.1.6v4.641l2.1.73,1.988-1.99v6.078l-2.032-2.033L0,10.012V7.006L13.615,2.033,15.647,0ZM4.465,9.57l5.148,1.812V8.022Z" transform="translate(0.331 103.109)"/><path class="c" d="M1.945,2.452V4.419H13.637l2.01-2.01v8.176l-2.01-2.01H1.945v1.967L4.4,12.994H0V0H4.4Z" transform="translate(0.331 90.54)"/><path class="c" d="M15.647,5.7,8.8,8.972v1.547h4.84l2.01-2.012v8.177l-2.01-2.012H2.012L0,16.685V9.06C0,5.988.951,2.342,4.4,2.342A3.967,3.967,0,0,1,8.045,5.1L13.637,2.01,15.647,0ZM1.945,9.06v1.459H6.852V9.06A2.247,2.247,0,0,0,4.4,6.829,2.247,2.247,0,0,0,1.945,9.06Z" transform="translate(0.331 72.179)"/><path class="c" d="M15.647,8.177l-2.01-2.012H2.012L0,8.177V0L2.012,2.012H13.637L15.647,0Z" transform="translate(0.331 63.124)"/><path class="c" d="M16.31,4.84c0,4.045-3.6,7.6-8.154,7.6S0,9.106,0,4.84A8.868,8.868,0,0,1,1.15,0H5.724L2.917,2.807A2.607,2.607,0,0,0,1.945,4.84c0,2.41,2.365,2.9,6.211,2.9s6.209-.486,6.209-2.9a2.607,2.607,0,0,0-.972-2.033L10.586,0h4.576A8.692,8.692,0,0,1,16.31,4.84Z" transform="translate(0 48.849)"/><path class="c" d="M15.647,12.353l-2.01-2.01H2.012L0,12.353V4.177l2.012,2.01H13.7V2.453L11.25,0h4.4Z" transform="translate(0.331 34.158)"/><path class="c" d="M15.647,8.84,13.658,6.85l-2.1.6v4.641l2.1.73,1.988-1.99v6.078l-2.032-2.035L0,10.01v-3L13.615,2.033,15.647,0ZM4.465,9.57l5.148,1.811V8.022Z" transform="translate(0.331 16.128)"/><path class="c" d="M2.012,2.012H17.26L5.548,11.073h8.089l2.01-2.012V15.25l-2.01-2.012H2.012L0,15.25V10.012L7.911,4.177h-5.9L0,6.188V0Z" transform="translate(0.331)"/></g><g transform="translate(115.782 52.146)"><path class="b" d="M9.162,1.361H4.149c-.458,0-1.191-.026-1.478-.065.431.145,1.086.379,1.518.563L9.319,4.071,4.149,6.3c-.419.184-1.047.432-1.478.577.288-.04,1.02-.065,1.478-.065H9.162V8.168H0V6.793l5.72-2.46c.222-.091.5-.184.72-.25a7.507,7.507,0,0,1-.72-.262L0,1.373V0H9.162Z" transform="translate(0 66.897)"/><path class="b" d="M7.055,2.145V5.851L9.162,6.6V8.01L0,4.7V3.3L9.162,0V1.413ZM2.736,3.677A8.608,8.608,0,0,1,1.7,3.992c.315.079.734.209,1.035.314L5.851,5.432V2.565Z" transform="translate(0 57.55)"/><path class="b" d="M9.162,2.593V3.954H1.308V6.545H0V0H1.308V2.593Z" transform="translate(0 51.171)"/><path class="b" d="M0,5.969V.288H1.282V4.608H3.8V1.819H5.077V4.608h2.8V0H9.162V5.969Z" transform="translate(0 43.565)"/><path class="b" d="M0,6.82V2.958C0,.706,1.335,0,2.708,0A2.6,2.6,0,0,1,5.3,1.99L9.162.105V1.662L5.418,3.47v1.99H9.162V6.82ZM4.11,2.932a1.332,1.332,0,0,0-1.4-1.518,1.327,1.327,0,0,0-1.4,1.518V5.459h2.8Z" transform="translate(0 34.976)"/><path class="b" d="M9.162,1.283,2.944,5.249a6.338,6.338,0,0,1-.681.367c.21-.014.445-.04.681-.04H9.162V6.938H0V5.564L6.113,1.7c.236-.143.445-.248.706-.379a6.765,6.765,0,0,1-.693.038H0V0H9.162Z" transform="translate(0 26.139)"/><path class="b" d="M7.055,2.147v3.7L9.162,6.6V8.011L0,4.7V3.3L9.162,0V1.414ZM2.736,3.678A8.613,8.613,0,0,1,1.7,3.993c.315.078.734.209,1.035.314L5.851,5.432V2.565Z" transform="translate(0 16.791)"/><path class="b" d="M0,5.837V4.476H7.853V0H9.162V5.837Z" transform="translate(0 9.616)"/><path class="b" d="M0,5.838V4.477H7.853V0H9.162V5.838Z" transform="translate(15.711 78.581)"/><path class="b" d="M0,1.361V0H9.162V1.361Z" transform="translate(15.711 75.778)"/><path class="b" d="M9.162,1.282,2.945,5.248a6.106,6.106,0,0,1-.681.367c.21-.012.445-.038.681-.038H9.162V6.938H0V5.563L6.113,1.7c.236-.143.445-.248.706-.379a6.422,6.422,0,0,1-.693.04H0V0H9.162Z" transform="translate(15.711 66.549)"/><path class="b" d="M0,5.968V.286H1.282V4.607H3.8V1.818H5.077V4.607h2.8V0H9.162V5.968Z" transform="translate(15.711 58.354)"/><path class="b" d="M7.055,2.147v3.7L9.162,6.6V8.011L0,4.7V3.3L9.162,0V1.414ZM2.736,3.678A8.855,8.855,0,0,1,1.7,3.992c.315.079.734.21,1.035.315L5.851,5.432V2.565Z" transform="translate(15.711 49.202)"/><path class="b" d="M4.738,7.33C2.5,7.33,0,6.073,0,3.337A3.338,3.338,0,0,1,1.74.209L2.447,1.44a2.2,2.2,0,0,0-1.112,1.9c0,1.99,1.883,2.579,3.4,2.579,1.754,0,3.4-.76,3.4-2.579A1.877,1.877,0,0,0,6.2,1.4H6.021V3.049H4.738V0H5.928A3.226,3.226,0,0,1,9.476,3.337C9.476,6.166,7.133,7.33,4.738,7.33Z" transform="translate(15.554 41.19)"/><path class="b" d="M0,5.968V.286H1.282V4.607H3.8V1.819H5.077V4.607h2.8V0H9.162V5.968Z" transform="translate(15.711 33.322)"/><path class="b" d="M9.162,2.593V3.954H1.308V6.545H0V0H1.308V2.593Z" transform="translate(15.711 23.108)"/><path class="b" d="M0,5.968V.288H1.282V4.607H3.8V1.819H5.077V4.607h2.8V0H9.162V5.968Z" transform="translate(15.711 15.502)"/><path class="b" d="M7.251,6.467,6.779,5.184A2.271,2.271,0,0,0,8.166,3.077c0-1-.484-1.662-1.413-1.662-.994,0-1.349.994-1.728,2.069C4.567,4.751,4.07,6.152,2.395,6.152,1.1,6.152,0,5.092,0,3.234A2.694,2.694,0,0,1,1.819.406l.419,1.256a1.692,1.692,0,0,0-.93,1.676c0,.877.406,1.4,1.1,1.4.746,0,1.046-.851,1.387-1.847C4.28,1.571,4.843,0,6.74,0,8.5,0,9.476,1.361,9.476,3.129A3.334,3.334,0,0,1,7.251,6.467Z" transform="translate(15.554 7.79)"/><path class="b" d="M9.162,2.593V3.954H1.308V6.545H0V0H1.308V2.593Z" transform="translate(15.711 0)"/></g></g></g></g></svg>