<svg xmlns="http://www.w3.org/2000/svg" xmlns:xlink="http://www.w3.org/1999/xlink" width="260.198" height="260.198" viewBox="0 0 260.198 260.198"><defs><linearGradient id="a" x1="1.266" y1="-0.799" x2="-0.694" y2="1" gradientUnits="objectBoundingBox"><stop offset="0" stop-color="#cbc5ce"/><stop offset="1" stop-color="#2a2266"/></linearGradient></defs><g transform="translate(-1460.809 -2007.768)"><g transform="translate(911.809 720.768)"><circle cx="130.099" cy="130.099" r="130.099" transform="translate(549 1287)" fill="#f6f7fa"/></g><g transform="translate(892.711 1648.395)"><path d="M606.538,443.22V432.664a14.212,14.212,0,0,1,14.213-14.211H743.919a14.212,14.212,0,0,1,14.211,14.211V443.22" transform="translate(1.217 9.16)" fill="#fff"/><g transform="translate(605.224 408.563)"><g transform="translate(90.574 58.503)"><path d="M703.869,512.311a1.958,1.958,0,0,1-.784-.168C687.14,505.038,676,485.495,676,464.617a1.926,1.926,0,1,1,3.852,0c0,19.406,10.2,37.5,24.8,44.007a1.927,1.927,0,0,1-.786,3.687Z" transform="translate(-630.245 -416.935)" fill="url(#a)"/><path d="M675.814,532.866a1.927,1.927,0,0,1-1.6-.846,92.2,92.2,0,0,1-15.773-51.141,35.748,35.748,0,0,1,71.5,0c0,8.067,3.783,12.194,9.465,15.91a1.926,1.926,0,1,1-2.107,3.224c-5.825-3.808-11.21-8.76-11.21-19.134a31.9,31.9,0,0,0-63.79,0,88.3,88.3,0,0,0,15.111,48.982,1.926,1.926,0,0,1-1.593,3Z" transform="translate(-646.508 -433.197)" fill="url(#a)"/><path d="M688.451,530.78a1.921,1.921,0,0,1-1.36-.561c-14.057-14.013-22.449-34.6-22.449-55.08a23.809,23.809,0,1,1,47.618,0c0,15.055,8.685,22.282,17.179,27.365a1.926,1.926,0,1,1-1.978,3.305c-8.872-5.309-19.053-13.591-19.053-30.67a19.957,19.957,0,1,0-39.914,0c0,19.477,7.968,39.047,21.317,52.351a1.926,1.926,0,0,1-1.36,3.29Z" transform="translate(-640.767 -427.457)" fill="url(#a)"/><path d="M698.108,522.562a1.929,1.929,0,0,1-1.071-.326c-15.914-10.669-26.2-31.408-26.2-52.836a11.873,11.873,0,1,1,23.746,0c0,24.027,15.92,33.552,21.914,37.138l.507.3a1.927,1.927,0,0,1-1.992,3.3l-.493-.3c-5.885-3.519-23.788-14.234-23.788-40.443a8.021,8.021,0,1,0-16.041,0c0,20.18,9.614,39.663,24.491,49.635a1.926,1.926,0,0,1-1.075,3.527Z" transform="translate(-635.028 -421.718)" fill="url(#a)"/><path d="M658.151,513.576a1.927,1.927,0,0,1-1.789-1.215,59.476,59.476,0,0,1-4.114-21.764c0-25.674,16.38-51.661,47.684-51.661,30.53,0,46.116,24.649,47.68,47.553a1.927,1.927,0,0,1-3.845.26c-1.445-21.172-15.779-43.961-43.835-43.961-28.777,0-43.832,24.05-43.832,47.809a55.6,55.6,0,0,0,3.843,20.34,1.928,1.928,0,0,1-1.791,2.639Z" transform="translate(-652.247 -438.936)" fill="url(#a)"/></g><g transform="translate(19.244 61.604)"><path d="M637.19,472.389a15.922,15.922,0,1,1,15.922-15.922A15.939,15.939,0,0,1,637.19,472.389Zm0-27.991a12.069,12.069,0,1,0,12.069,12.069A12.08,12.08,0,0,0,637.19,444.4Z" transform="translate(-609.607 -440.546)" fill="#2b206a"/><path d="M661.458,488.13H624.139a8.933,8.933,0,0,1-8.924-8.922v-2.333c0-12.121,11.343-20.587,27.583-20.587s27.585,8.465,27.585,20.587v2.333A8.934,8.934,0,0,1,661.458,488.13ZM642.8,460.141c-13.972,0-23.73,6.88-23.73,16.734v2.333a5.076,5.076,0,0,0,5.072,5.07h37.319a5.077,5.077,0,0,0,5.072-5.07v-2.333C666.53,467.022,656.772,460.141,642.8,460.141Z" transform="translate(-615.215 -425.966)" fill="#2b206a"/></g><path d="M741.854,434.71H607.15a1.926,1.926,0,1,1,0-3.852h134.7a1.926,1.926,0,1,1,0,3.852Z" transform="translate(-605.224 -387.914)" fill="#2b206a"/><path d="M613.806,428.041a1.975,1.975,0,0,1-1.926-1.926,1.959,1.959,0,0,1,.578-1.368,1.992,1.992,0,0,1,2.716,0,1.939,1.939,0,0,1,.559,1.368,1.862,1.862,0,0,1-.559,1.348A1.932,1.932,0,0,1,613.806,428.041Z" transform="translate(-599.06 -394.069)" fill="#cbc5ce"/><path d="M620.485,428.041a1.974,1.974,0,0,1-1.945-1.926,1.916,1.916,0,0,1,.578-1.368,1.992,1.992,0,0,1,2.716,0,1.932,1.932,0,0,1,.578,1.368,1.889,1.889,0,0,1-.578,1.348,3.671,3.671,0,0,1-.289.25,1.762,1.762,0,0,1-.327.173,2.666,2.666,0,0,1-.366.116A2.382,2.382,0,0,1,620.485,428.041Z" transform="translate(-592.891 -394.069)" fill="#cbc5ce"/><path d="M627.146,428.041a1.974,1.974,0,0,1-1.945-1.926,1.924,1.924,0,0,1,.578-1.368,1.992,1.992,0,0,1,2.716,0,1.906,1.906,0,0,1,.559,1.368,1.863,1.863,0,0,1-.559,1.348A1.884,1.884,0,0,1,627.146,428.041Z" transform="translate(-586.723 -394.069)" fill="#cbc5ce"/><path d="M687.332,543.265H619.978a14.771,14.771,0,0,1-14.754-14.756V432.291a14.772,14.772,0,0,1,14.754-14.754H741.854a14.772,14.772,0,0,1,14.754,14.754v22.451a1.926,1.926,0,0,1-3.852,0V432.291a10.914,10.914,0,0,0-10.9-10.9H619.978a10.914,10.914,0,0,0-10.9,10.9v96.217a10.916,10.916,0,0,0,10.9,10.9h67.354a1.926,1.926,0,0,1,0,3.852Z" transform="translate(-605.224 -400.252)" fill="#2b206a"/><g transform="translate(97.454)"><path d="M688.04,486.413s-31.221-12.693-31.221-40.987V416.769a71.236,71.236,0,0,1,62.44,0v28.657C719.259,473.719,688.04,486.413,688.04,486.413Z" transform="translate(-654.893 -407.637)" fill="#ff7051"/><path d="M688.966,489.265a1.9,1.9,0,0,1-.726-.142A64.979,64.979,0,0,1,672.1,478.916c-10.65-9.157-16.28-20.417-16.28-32.564V417.695a1.923,1.923,0,0,1,1.044-1.712,73.158,73.158,0,0,1,64.2,0,1.923,1.923,0,0,1,1.044,1.712v28.657c0,12.146-5.63,23.407-16.28,32.564a64.954,64.954,0,0,1-16.139,10.207A1.9,1.9,0,0,1,688.966,489.265Zm-29.3-70.355v27.442c0,24.287,24.707,36.772,29.3,38.881,4.588-2.109,29.293-14.595,29.293-38.881V418.91a69.309,69.309,0,0,0-58.588,0Z" transform="translate(-655.819 -408.563)" fill="#2b206a"/><path d="M676.077,445.342a1.913,1.913,0,0,1-1.362-.564l-9.6-9.606a1.926,1.926,0,0,1,2.724-2.724l8.242,8.244,17.853-17.85a1.926,1.926,0,0,1,2.724,2.724l-19.215,19.212A1.913,1.913,0,0,1,676.077,445.342Z" transform="translate(-647.736 -395.861)" fill="#2b206a"/></g></g></g></g></svg>