<svg id="Group_1614" data-name="Group 1614" xmlns="http://www.w3.org/2000/svg" width="34.458" height="34.459" viewBox="0 0 34.458 34.459">
  <path id="Path_521" data-name="Path 521" d="M3.616,0A3.616,3.616,0,1,1,0,3.616,3.616,3.616,0,0,1,3.616,0Z" transform="translate(13.612 13.613)" fill="#682ace"/>
  <path id="Path_471" data-name="Path 471" d="M1839.343,154.5a5.736,5.736,0,0,0-.356-1.92,3.427,3.427,0,0,0-1.962-1.962,5.739,5.739,0,0,0-1.92-.356c-1.091-.05-1.418-.06-4.178-.06s-3.088.011-4.178.06a5.738,5.738,0,0,0-1.92.356,3.427,3.427,0,0,0-1.962,1.962,5.741,5.741,0,0,0-.356,1.92c-.05,1.091-.06,1.418-.06,4.178s.011,3.088.06,4.178a5.741,5.741,0,0,0,.356,1.92,3.426,3.426,0,0,0,1.962,1.962,5.738,5.738,0,0,0,1.92.356c1.091.05,1.417.06,4.178.06s3.088-.011,4.178-.06a5.74,5.74,0,0,0,1.92-.356,3.427,3.427,0,0,0,1.962-1.962,5.736,5.736,0,0,0,.356-1.92c.05-1.091.06-1.418.06-4.178S1839.393,155.589,1839.343,154.5Zm-8.417,9.488a5.31,5.31,0,1,1,5.31-5.31A5.31,5.31,0,0,1,1830.927,163.986Zm5.52-9.588a1.241,1.241,0,1,1,1.24-1.241A1.241,1.241,0,0,1,1836.447,154.4Z" transform="translate(-1813.699 -141.447)" fill="#682ace"/>
  <path id="Path_472" data-name="Path 472" d="M1684.229-5.25a17.229,17.229,0,1,0,17.229,17.229A17.229,17.229,0,0,0,1684.229-5.25Zm10.277,21.492a7.591,7.591,0,0,1-.48,2.51A5.284,5.284,0,0,1,1691,21.776a7.585,7.585,0,0,1-2.51.48c-1.1.051-1.455.063-4.263.063s-3.16-.012-4.263-.063a7.587,7.587,0,0,1-2.51-.48,5.286,5.286,0,0,1-3.024-3.024,7.6,7.6,0,0,1-.48-2.51c-.051-1.1-.062-1.455-.062-4.263s.012-3.16.063-4.263a7.6,7.6,0,0,1,.48-2.51,5.286,5.286,0,0,1,3.024-3.024,7.587,7.587,0,0,1,2.51-.48c1.1-.051,1.455-.062,4.263-.062s3.16.012,4.263.062a7.585,7.585,0,0,1,2.51.48,5.284,5.284,0,0,1,3.024,3.024,7.591,7.591,0,0,1,.48,2.51c.051,1.1.063,1.455.063,4.263S1694.557,15.14,1694.506,16.242Z" transform="translate(-1667 5.25)" fill="#682ace"/>
</svg>
