<svg id="Group_1616" data-name="Group 1616" xmlns="http://www.w3.org/2000/svg" width="34.99" height="34.991" viewBox="0 0 34.99 34.991">
  <path id="Path_474" data-name="Path 474" d="M3052.495-6.88a17.5,17.5,0,1,0,17.5,17.5A17.5,17.5,0,0,0,3052.495-6.88ZM3063.488,11.5a37.86,37.86,0,0,1-.219,3.8,5.292,5.292,0,0,1-.874,2.328,3.047,3.047,0,0,1-2.2.994c-3.077.236-7.7.244-7.7.244s-5.716-.056-7.475-.236a3.594,3.594,0,0,1-2.424-1,5.274,5.274,0,0,1-.874-2.327,37.886,37.886,0,0,1-.219-3.8V9.723a37.9,37.9,0,0,1,.219-3.8A5.3,5.3,0,0,1,3042.6,3.6a3.033,3.033,0,0,1,2.2-.991c3.076-.238,7.691-.238,7.691-.238h.01s4.615,0,7.693.238a3.033,3.033,0,0,1,2.2.991,5.284,5.284,0,0,1,.874,2.329,37.86,37.86,0,0,1,.219,3.8ZM3049.75,14.74l6.873-4.124-6.873-4.123Z" transform="translate(-3035 6.88)" fill="#682ace"/>
</svg>
