<svg xmlns="http://www.w3.org/2000/svg" width="1923.9" height="790.09" viewBox="0 0 1923.9 790.09"><path d="M.5-205.74h1923V572.55L707.77,790.09.5,626.47Z" fill="#f6f7fa"/><path d="M1163.55,691.45a41.57,41.57,0,0,1,30.18,12.94l-68.37,12.06A41.66,41.66,0,0,1,1163.55,691.45Zm88.87,0a42,42,0,0,1,9.08,1L1230,698A41.52,41.52,0,0,1,1252.42,691.45Zm-41.66-50a41.66,41.66,0,1,1,41.66,41.66,41.66,41.66,0,0,1-41.66-41.66Zm-88.86,0a41.66,41.66,0,1,1,41.65,41.66,41.66,41.66,0,0,1-41.65-41.66ZM1317,640.05s22.32-31.87,49.83-31.87,49.83,31.87,49.83,31.87-22.3,31.87-49.83,31.87S1317,640.05,1317,640.05Zm100.24.49s22.31-31.87,49.83-31.87c23.38,0,43,23,48.37,29.92,5.38-6.93,25-29.92,48.37-29.92,18,0,33.68,13.55,42.45,23L1519.15,647c-1.6-1.83-2.86-3.39-3.74-4.53-1.13,1.45-2.87,3.6-5.14,6.09l-72.44,12.78A101.92,101.92,0,0,1,1417.21,640.54Zm245.39-32c9.39,0,18.18,3.72,25.68,8.61l-65.39,11.53C1632,619.62,1646.38,608.57,1662.6,608.57Zm-438.69-79.69v40.63h-24.55v-43l-76.93,60.38V403.14l76.93,60.39V419.18h24.55v44.66l75.58-59.33v183.7Zm333.75,41.51,61.46-78.32h-37.48V467h38.45l-61-77.76h188L1686,467h49.47v25.11h-51.3l61.46,78.32Zm247.08-45.57a43.82,43.82,0,1,1,43.82,43.82,43.83,43.83,0,0,1-43.82-43.82Zm-382.1,0a43.82,43.82,0,1,1,43.82,43.82h0a43.81,43.81,0,0,1-43.82-43.81Zm-96.41,0a43.83,43.83,0,1,1,43.83,43.82h0a43.82,43.82,0,0,1-43.82-43.82Zm574.92,0a43.76,43.76,0,0,1,13.12-31.28l-.81,61.73a43.67,43.67,0,0,1-12.31-30.45Zm-96.41-93.49a43.83,43.83,0,1,1,43.83,43.82,43.83,43.83,0,0,1-43.83-43.82Zm-382.1,0a43.82,43.82,0,1,1,43.82,43.82,43.84,43.84,0,0,1-43.82-43.82Zm-96.4,0a43.82,43.82,0,1,1,43.82,43.82,43.82,43.82,0,0,1-43.82-43.82h0Zm574.92,0a43.7,43.7,0,0,1,14.36-32.45l-.84,64.11a43.72,43.72,0,0,1-13.53-31.66ZM1246,381.5l-30.88-32.75-30.88,32.75h-62.7a92.65,92.65,0,0,0,0-184.34h60.82l30.88,32.76,30.88-32.76h62.7a92.65,92.65,0,0,0,0,184.34Zm96.22-165.56,76-76.61-81.84-82.5L1493.4-101.51,1663.32,69.8l-75.4,76,69.56,70.12L1499.83,374.87ZM1459,142.24l43,43.39,43-43.39-43-43.37Zm227,158.63c0-27.4,28.3-50.16,34.42-54.76-6.12-4.6-34.42-27.37-34.42-54.77,0-30.71,35.57-55.6,35.57-55.6s35.57,24.9,35.57,55.6c0,27.4-28.31,50.17-34.42,54.77,6.11,4.6,34.42,27.37,34.42,54.76,0,30.71-35.57,55.6-35.57,55.6S1686,331.58,1686,300.88Zm227.62,49v-34h-31.5v34h-75.19v-75.2h28.25v-36.6h-28.25v-75.2h75.19v35.72h31.5V162.86h5l-2.46,187ZM1246,184.33l-30.88-32.75-30.88,32.75h-62.7A92.64,92.64,0,0,0,1121.5,0h60.82l30.88,32.75L1244.08,0h62.7a92.64,92.64,0,0,0,0,184.33Zm627.31-47.89v-27h-61.18l86.18-86.18L1812.09-62.9h61.17v-34H1922L1920.67,7l-16.26,16.26,15.84,15.83L1919,136.44Zm6.86-61.95a19.29,19.29,0,1,0,19.29-19.29,19.28,19.28,0,0,0-19.29,19.29Zm0-100.29a19.29,19.29,0,0,0,19.29,19.28A19.28,19.28,0,0,0,1918.7-25.8a19.29,19.29,0,0,0-19.28-19.29,19.29,19.29,0,0,0-19.29,19.29ZM1686.52,79.48c0-27.39,28.3-50.16,34.41-54.77-6.11-4.59-34.41-27.36-34.41-54.75,0-30.72,35.57-55.61,35.57-55.61s35.57,24.9,35.57,55.61c0,27.39-28.3,50.16-34.42,54.75,6.11,4.61,34.42,27.38,34.42,54.77,0,30.71-35.57,55.61-35.57,55.61s-35.57-24.89-35.57-55.61Zm-476.3-153.7a42,42,0,0,1,42-42,42,42,0,0,1,42,42,42,42,0,0,1-42,42h0a42,42,0,0,1-42-42Zm-92.34,0a42,42,0,0,1,42-42,42,42,0,0,1,42,42,42,42,0,0,1-42,42h0a42,42,0,0,1-42-42h0Zm92.34-89.54a42,42,0,0,1,42-42,42,42,0,0,1,42,42,42,42,0,0,1-42,42h0a42,42,0,0,1-42-42Zm-92.34,0a42,42,0,0,1,42-42,42,42,0,0,1,42,42,42,42,0,0,1-42,42h0a42,42,0,0,1-42-42ZM1861.71-155H1842.8v-24.6h19.42a142.94,142.94,0,0,0,61.17-19.57l-.85,64.72a18.89,18.89,0,0,0-26.68,1.28,16.61,16.61,0,0,0-1.2,1.46,35,35,0,0,1-33-23.29Zm-116.27,16.47a35,35,0,0,1-48.86-7.39,35,35,0,0,1-4.81-9.08h-18.92v-24.6h19.42q37.37-9.51,73.9-22a34.94,34.94,0,0,1,32.44,22h24.92V-155h-24.42a35,35,0,0,1-44.59,21.29,34.73,34.73,0,0,1-9.08-4.82Zm-175.43,0a34.93,34.93,0,0,1-48.85-7.39,35,35,0,0,1-4.82-9.08h-18.91v-24.6h19.42q37.37-9.51,73.88-22a35,35,0,0,1,32.45,22h24.92V-155h-24.42a35,35,0,0,1-44.59,21.29A34.73,34.73,0,0,1,1570-138.55Zm-170,0a34.93,34.93,0,0,1-48.85-7.39,34.7,34.7,0,0,1-4.81-9.08h-18.92v-24.6h19.42q37.36-9.51,73.9-22a34.94,34.94,0,0,1,32.44,22h24.92V-155h-24.43a34.93,34.93,0,0,1-44.58,21.29,34.73,34.73,0,0,1-9.08-4.82Z" fill="#f6f7fa" opacity="0.51" style="isolation:isolate"/><path d="M314.56,647.36a37.88,37.88,0,1,1,37.88,37.88,37.87,37.87,0,0,1-37.88-37.88Zm-83.33,0a37.88,37.88,0,1,1,37.87,37.88h0A37.87,37.87,0,0,1,231.23,647.36ZM55.05,639.09l15.73-20H38.37V597.35H71.62L18.85,530.13H181.34l-52.76,67.22h42.76v21.71H127l35.17,44.82Zm259.5-72.54a37.88,37.88,0,1,1,37.89,37.88,37.89,37.89,0,0,1-37.89-37.88Zm-83.33,0a37.88,37.88,0,1,1,37.88,37.88h0a37.87,37.87,0,0,1-37.87-37.88Zm1520.21-24.36,63.44,49.8-63.44,11.35Zm66.5,13.87h21.22v31.58l-21.22,3.8Zm86.56-12.69V576l-53.77,9.63Zm-46.28-19.89-26.69-28.31-26.7,28.31h-54.19a80.08,80.08,0,0,1,72-79.67,80.09,80.09,0,0,1-72-79.67h52.58l26.69,28.31,26.7-28.31h54.19a80.09,80.09,0,0,1-72,79.67,80.09,80.09,0,0,1,72,79.67ZM128.57,453.79c0-23.69,24.46-43.37,29.74-47.34-5.28-4-29.74-23.65-29.74-47.33,0-26.55,30.74-48.07,30.74-48.07s30.75,21.52,30.75,48.07c0,23.68-24.47,43.36-29.75,47.33,5.28,4,29.75,23.65,29.75,47.34,0,26.55-30.75,48.07-30.75,48.07s-30.75-21.52-30.75-48.07Zm196.75,42.34V466.76H298.09v29.37h-65v-65h24.43V399.49H233.09v-65h65v30.87h27.23V334.49h65v65H358.9v31.64h31.41v65ZM.5,322.94l6.21-6.27L.5,310.41V144.69L109,254.05,43.8,319.76l60.12,60.61L.5,484.64Zm1857.71,30.11-26.69-28.31-26.7,28.31h-54.19a80.08,80.08,0,0,1,72-79.67,80.08,80.08,0,0,1-72-79.67h52.57L1829.9,222l26.69-28.32h54.19a80.1,80.1,0,0,1-72,79.68,80.08,80.08,0,0,1,72,79.66ZM290.45,311.65V288.34H237.57l74.5-74.5-74.5-74.5h52.88V109.93h46.68v29.41h54.75l-74.5,74.5,74.5,74.5H337.13v23.31Zm5.94-53.55a16.67,16.67,0,1,0,16.67-16.67h0a16.66,16.66,0,0,0-16.66,16.67Zm0-86.69a16.67,16.67,0,1,0,16.67-16.67h0a16.68,16.68,0,0,0-16.66,16.67ZM129,262.42c0-23.68,24.46-43.36,29.75-47.34-5.29-4-29.75-23.65-29.75-47.33,0-26.55,30.75-48.07,30.75-48.07s30.74,21.52,30.74,48.07c0,23.68-24.46,43.36-29.75,47.33,5.29,4,29.75,23.66,29.75,47.34,0,26.55-30.74,48.07-30.74,48.07S129,289,129,262.42ZM1827.32,129.56a36.28,36.28,0,1,1,36.28,36.28,36.28,36.28,0,0,1-36.28-36.28Zm-79.83,0a36.29,36.29,0,1,1,36.29,36.28,36.28,36.28,0,0,1-36.29-36.28Zm79.83-77.4a36.28,36.28,0,1,1,36.28,36.28,36.28,36.28,0,0,1-36.28-36.28Zm-79.83,0a36.29,36.29,0,1,1,36.29,36.28,36.28,36.28,0,0,1-36.29-36.28ZM326.86,74a30.21,30.21,0,0,1-46.39-14.24H264.11V38.45H280.9q32.31-8.21,63.87-19a30.17,30.17,0,0,1,28,19h21.55V59.72H373.25A30.2,30.2,0,0,1,326.86,74ZM180,74a30.2,30.2,0,0,1-42.23-6.4,29.81,29.81,0,0,1-4.16-7.84H117.21V38.45H134q32.31-8.21,63.87-19a30.17,30.17,0,0,1,28,19h21.55V59.72H226.35A30.19,30.19,0,0,1,180,74ZM28.32,74A30.26,30.26,0,0,1,.5,78.19V21.13a50.66,50.66,0,0,0,45.74-1.66,30.2,30.2,0,0,1,28,19H95.82V59.72H74.71a30.21,30.21,0,0,1-38.55,18.4A30.57,30.57,0,0,1,28.32,74Z" fill="#433e52" opacity="0.1" style="isolation:isolate"/></svg>