<svg xmlns="http://www.w3.org/2000/svg" width="415.013" height="613.482" viewBox="0 0 415.013 613.482"><g transform="translate(0 0.499)"><path d="M0-440.087H415.013V130.629L0,172.9Z" transform="translate(0 440.087)" fill="#f6f7fa"/><path d="M15647.061,12646.449a19.163,19.163,0,1,1,19.164,19.161A19.161,19.161,0,0,1,15647.061,12646.449Zm-42.153,0a19.161,19.161,0,1,1,19.161,19.161A19.158,19.158,0,0,1,15604.907,12646.449Zm-48.343,14.152a15.946,15.946,0,0,1-24.268-6.915h-11.38v-11.229h11.151a921.275,921.275,0,0,0,33.958-10.628,15.949,15.949,0,0,1,15.038,10.628h8.64v11.229h-8.868a15.95,15.95,0,0,1-24.271,6.915Zm-77.58,0a15.946,15.946,0,0,1-24.268-6.915h-11.38v-11.229h11.151a927.243,927.243,0,0,0,33.962-10.628,15.948,15.948,0,0,1,15.034,10.628h8.64v11.229h-8.868a15.95,15.95,0,0,1-24.271,6.915Zm-80.08,0a15.951,15.951,0,0,1-24.272-6.915h-11.376v-11.229h11.151a920.766,920.766,0,0,0,33.959-10.628,15.949,15.949,0,0,1,15.038,10.628h8.635v11.229h-8.863a15.95,15.95,0,0,1-24.271,6.915Zm-77.58,0a15.951,15.951,0,0,1-24.272-6.915h-11.376v-11.229h11.151a920.766,920.766,0,0,0,33.959-10.628,15.949,15.949,0,0,1,15.038,10.628h8.635v11.229h-8.863a15.95,15.95,0,0,1-24.271,6.915Zm325.736-55.033a19.163,19.163,0,1,1,19.164,19.165A19.163,19.163,0,0,1,15647.061,12605.568Zm-42.153,0a19.161,19.161,0,1,1,19.161,19.165A19.16,19.16,0,0,1,15604.907,12605.568Zm-168.521-65.743,34.423-34.7-31.753-32.013,45.884-46.256h52.167l45.879,46.256-34.687,34.975,37.356,37.659-71.693,72.28Zm54.009-33.072,19.646,19.8,19.641-19.8-19.641-19.8Zm-174.5,109.18v-15.53h-28.91l39.346-39.346-39.346-39.341h28.91V12509.4h24.654v12.313h27.926l-39.346,39.341,39.346,39.346h-27.926v15.53Zm3.91-32.466a8.8,8.8,0,1,0,8.8-8.8A8.805,8.805,0,0,0,15319.808,12583.467Zm0-45.78a8.8,8.8,0,1,0,8.8-8.8A8.8,8.8,0,0,0,15319.808,12537.687Zm73.517,47.717c0-12.506,12.924-22.9,15.711-25-2.787-2.095-15.711-12.49-15.711-25,0-14.022,16.239-25.387,16.239-25.387s16.234,11.364,16.234,25.387c0,12.506-12.919,22.9-15.711,25,2.792,2.1,15.711,12.494,15.711,25,0,14.022-16.234,25.387-16.234,25.387S15393.324,12599.426,15393.324,12585.4Zm262.639-13.715-14.1-14.947-14.1,14.947h-28.619a42.29,42.29,0,0,0,0-84.147h27.765l14.1,14.951,14.1-14.951h28.619a42.291,42.291,0,0,0,0,84.147Zm-262.391-87.349c0-12.507,12.92-22.9,15.712-25-2.792-2.1-15.712-12.49-15.712-25a20.786,20.786,0,0,1,1.474-7.485h29.527a20.785,20.785,0,0,1,1.473,7.485c0,12.506-12.919,22.9-15.711,25,2.792,2.1,15.711,12.494,15.711,25,0,14.018-16.234,25.386-16.234,25.386S15393.572,12498.357,15393.572,12484.34Zm-57.053,13v-16.306h-14.381v16.306h-34.324v-34.325h16.589v-16.711h-16.589v-19.448h34.324v.634h14.381v-.634h34.324v19.448h-12.9v16.711h12.9v34.325Zm319.443-15.656-14.1-14.951-14.1,14.951h-28.619a29.194,29.194,0,1,0,11.815-54.828h60.946a29.194,29.194,0,1,0,11.815,54.828Z" transform="translate(-15275 -12426.856)" fill="#433e52" stroke="rgba(0,0,0,0)" stroke-miterlimit="10" stroke-width="1" opacity="0.1"/></g></svg>