<svg id="HOT97" xmlns="http://www.w3.org/2000/svg" width="85.645" height="75.395" viewBox="0 0 85.645 75.395">
  <path id="Path_128" data-name="Path 128" d="M1058.611,237.533a.112.112,0,1,1-.212.071c-.048-.118.141-.189.212-.071Z" transform="translate(-1009.355 -237.473)" fill-rule="evenodd"/>
  <path id="Path_129" data-name="Path 129" d="M1064.582,237.592c-.071.024-.094-.024-.071-.095.071,0,.094.024.071.095Z" transform="translate(-1012.123 -237.484)" fill-rule="evenodd"/>
  <path id="Path_130" data-name="Path 130" d="M1060.434,238.065a.225.225,0,0,1-.141.236.239.239,0,0,1-.212-.142.2.2,0,0,1,.141-.235.183.183,0,0,1,.212.141Z" transform="translate(-1010.118 -237.675)" fill-rule="evenodd"/>
  <path id="Path_131" data-name="Path 131" d="M1066.4,238.215c-.094.071-.235-.071-.141-.141.071-.094.212.047.141.141Z" transform="translate(-1012.904 -237.731)" fill-rule="evenodd"/>
  <path id="Path_132" data-name="Path 132" d="M1062.262,238.57a.305.305,0,0,1-.236.306.287.287,0,0,1-.306-.212.276.276,0,0,1,.542-.094Z" transform="translate(-1010.863 -237.874)" fill-rule="evenodd"/>
  <path id="Path_133" data-name="Path 133" d="M1068.195,238.772a.143.143,0,0,1-.212-.188c.141-.118.33.046.212.188Z" transform="translate(-1013.687 -237.957)" fill-rule="evenodd"/>
  <path id="Path_134" data-name="Path 134" d="M1064.063,239.016c.071.189-.094.33-.212.424a.357.357,0,0,1-.424-.235c-.071-.189.071-.33.212-.424.212-.048.33.094.424.235Z" transform="translate(-1011.627 -238.061)" fill-rule="evenodd"/>
  <path id="Path_135" data-name="Path 135" d="M1070.035,239.188a.2.2,0,0,1-.141.236.183.183,0,0,1-.212-.141.224.224,0,0,1,.141-.236.239.239,0,0,1,.212.141Z" transform="translate(-1014.466 -238.186)" fill-rule="evenodd"/>
  <path id="Path_136" data-name="Path 136" d="M1071.874,239.776a.25.25,0,0,1-.212.212.207.207,0,0,1-.212-.189c0-.118.047-.165.165-.235a.3.3,0,0,1,.259.212Z" transform="translate(-1015.269 -238.42)" fill-rule="evenodd"/>
  <path id="Path_137" data-name="Path 137" d="M1073.667,240.316c0,.141-.118.212-.235.259-.141,0-.212-.118-.259-.235,0-.141.118-.212.236-.259.141,0,.212.118.259.236Z" transform="translate(-1016.049 -238.653)" fill-rule="evenodd"/>
  <path id="Path_138" data-name="Path 138" d="M1075.475,240.858c0,.118,0,.283-.142.33-.141,0-.306.024-.353-.141,0-.141,0-.283.142-.33.141-.024.306-.024.353.141Z" transform="translate(-1016.868 -238.937)" fill-rule="evenodd"/>
  <path id="Path_139" data-name="Path 139" d="M1077.288,241.5a.39.39,0,0,1-.259.283.356.356,0,0,1-.282-.259.325.325,0,0,1,.259-.282.3.3,0,0,1,.283.259Z" transform="translate(-1017.668 -239.18)" fill-rule="evenodd"/>
  <path id="Path_140" data-name="Path 140" d="M1079.092,241.987c0,.141,0,.306-.141.353-.142,0-.306,0-.353-.142,0-.141,0-.306.141-.353.142,0,.306,0,.353.141Z" transform="translate(-1018.506 -239.453)" fill-rule="evenodd"/>
  <path id="Path_141" data-name="Path 141" d="M1080.9,242.622a.339.339,0,0,1-.141.329.359.359,0,0,1-.353-.141.339.339,0,0,1,.142-.33.319.319,0,0,1,.353.142Z" transform="translate(-1019.322 -239.735)" fill-rule="evenodd"/>
  <path id="Path_142" data-name="Path 142" d="M1082.713,243.212c0,.118,0,.236-.118.306-.118,0-.236,0-.306-.118a.258.258,0,0,1,.094-.306c.118,0,.259,0,.33.118Z" transform="translate(-1020.173 -240.019)" fill-rule="evenodd"/>
  <path id="Path_143" data-name="Path 143" d="M1084.528,243.885a.248.248,0,0,1-.188.236.215.215,0,0,1-.07-.424.3.3,0,0,1,.259.188Z" transform="translate(-1020.999 -240.292)" fill-rule="evenodd"/>
  <path id="Path_144" data-name="Path 144" d="M1086.308,244.48a.2.2,0,0,1-.095.212c-.071,0-.165,0-.212-.071,0-.094,0-.188.071-.236.094,0,.188,0,.236.095Z" transform="translate(-1021.86 -240.603)" fill-rule="evenodd"/>
  <path id="Path_145" data-name="Path 145" d="M1088.108,245.078c.023.071-.048.118-.094.165-.071.024-.118-.047-.165-.071-.023-.095.047-.142.094-.189.071-.024.118.047.165.094Z" transform="translate(-1022.695 -240.873)" fill-rule="evenodd"/>
  <path id="Path_146" data-name="Path 146" d="M1089.873,245.843c-.071.095-.212-.047-.142-.141.094-.071.236.047.142.141Z" transform="translate(-1023.541 -241.19)" fill-rule="evenodd"/>
  <path id="Path_147" data-name="Path 147" d="M1091.705,246.429c-.071.024-.095,0-.071-.071q.106-.035.071.071Z" transform="translate(-1024.407 -241.493)" fill-rule="evenodd"/>
  <path id="Path_148" data-name="Path 148" d="M1091.182,247.938a.335.335,0,0,1-.283.353.359.359,0,0,1-.377-.283c0-.165.118-.353.283-.353a.326.326,0,0,1,.377.282Z" transform="translate(-1023.907 -242.083)" fill-rule="evenodd"/>
  <path id="Path_149" data-name="Path 149" d="M1092.92,248.526c.048.141-.046.235-.165.306a.269.269,0,0,1-.306-.165.274.274,0,0,1,.165-.33.262.262,0,0,1,.306.189Z" transform="translate(-1024.775 -242.388)" fill-rule="evenodd"/>
  <path id="Path_150" data-name="Path 150" d="M1094.731,249.243c-.024.095-.071.212-.165.212-.094-.024-.212-.071-.212-.165.023-.095.071-.212.165-.212.094.024.212.071.212.165Z" transform="translate(-1025.643 -242.729)" fill-rule="evenodd"/>
  <path id="Path_151" data-name="Path 151" d="M1096.517,249.86a.105.105,0,0,1-.189.094c-.047-.118.141-.188.189-.094Z" transform="translate(-1026.534 -243.063)" fill-rule="evenodd"/>
  <path id="Path_152" data-name="Path 152" d="M1098.326,250.514c0,.024-.023.024-.023.047-.048.024-.094-.071-.048-.071.048-.024.048,0,.071.024Z" transform="translate(-1027.401 -243.364)" fill-rule="evenodd"/>
  <path id="Path_153" data-name="Path 153" d="M1097.776,252.037a.291.291,0,1,1-.542.212.308.308,0,0,1,.189-.376.3.3,0,0,1,.353.165Z" transform="translate(-1026.944 -243.992)" fill-rule="evenodd"/>
  <path id="Path_154" data-name="Path 154" d="M1099.591,252.789a.312.312,0,0,1-.141.235.248.248,0,0,1-.235-.141.2.2,0,0,1,.141-.236.225.225,0,0,1,.235.142Z" transform="translate(-1027.842 -244.343)" fill-rule="evenodd"/>
  <path id="Path_155" data-name="Path 155" d="M1101.357,253.542c-.094.071-.235-.047-.141-.142s.212.048.141.142Z" transform="translate(-1028.737 -244.672)" fill-rule="evenodd"/>
  <path id="Path_156" data-name="Path 156" d="M1100.857,254.963a.4.4,0,0,1-.259.448.376.376,0,0,1-.448-.259.362.362,0,0,1,.235-.448.4.4,0,0,1,.471.259Z" transform="translate(-1028.26 -245.269)" fill-rule="evenodd"/>
  <path id="Path_157" data-name="Path 157" d="M1102.638,255.692c.047.142-.071.259-.165.33a.335.335,0,0,1-.33-.188c-.024-.142.071-.236.189-.306.141-.047.235.071.306.165Z" transform="translate(-1029.169 -245.645)" fill-rule="evenodd"/>
  <path id="Path_158" data-name="Path 158" d="M1104.429,256.441c-.047.047-.023.141-.118.141-.047-.046-.141-.023-.141-.118,0-.188.212-.141.259-.023Z" transform="translate(-1030.089 -246.017)" fill-rule="evenodd"/>
  <path id="Path_159" data-name="Path 159" d="M1106.167,257.061c.024.024,0,.047-.023.071-.047,0-.094-.071-.024-.094.024-.024.047.023.047.023Z" transform="translate(-1030.956 -246.331)" fill-rule="evenodd"/>
  <path id="Path_160" data-name="Path 160" d="M1105.631,258.639c.023.118.023.282-.141.33-.118,0-.283,0-.33-.142,0-.141,0-.306.141-.33s.306-.023.33.142Z" transform="translate(-1030.537 -246.99)" fill-rule="evenodd"/>
  <path id="Path_161" data-name="Path 161" d="M1106.89,260.934a.389.389,0,1,1-.471-.283.418.418,0,0,1,.471.283Z" transform="translate(-1030.972 -247.966)" fill-rule="evenodd"/>
  <path id="Path_162" data-name="Path 162" d="M1063.323,274.634a.44.44,0,0,0-.5.115c-.022-.071-.093-.142-.071-.235-.421-.284.213-.328.235-.613a.549.549,0,0,0-.279-.684c.186-.044.449-.071.542-.306a.472.472,0,0,0-.733-.542c-.044-.137-.137-.328-.186-.443.257-.049.356-.334.378-.542a.635.635,0,0,0-.285-.476c.049-.066.12-.022.164-.044.12-.049.285-.12.306-.284a.519.519,0,0,0-.093-.52.5.5,0,0,0-.542-.066c-.093.093-.142-.049-.142-.12-.4-.284.164-.284.192-.564a.572.572,0,0,0-.263-.706c.12-.1.284-.027.377-.17a.5.5,0,0,0,.12-.47.5.5,0,0,0-.5-.306c-.4.356-.208-.164-.492-.328.093,0,.164-.071.257-.142a.593.593,0,0,0,.142-.563.579.579,0,0,0-.613-.328c-.235.257-.186-.142-.328-.235.093-.1.257-.213.306-.356a.578.578,0,0,0-.285-.728c.093-.071.213,0,.285-.071a.5.5,0,0,0,.213-.613.526.526,0,0,0-.542-.235c-.377.378-.191-.284-.448-.356a.536.536,0,0,0,.35-.328.522.522,0,0,0-.208-.613c-.17-.12-.4-.022-.542.022a.131.131,0,0,1-.071-.115c-.355-.284.115-.306.186-.591a.568.568,0,0,0-.213-.613c-.142-.049-.35-.142-.492-.022-.192.044-.12-.263-.285-.356.071-.044.142-.093.213-.142a.611.611,0,0,0,.142-.492c-.022-.186-.164-.257-.306-.378a.569.569,0,0,0-.52.071c.022-.213-.4-.4,0-.492a.628.628,0,0,0,.142-.542c-.071-.12-.142-.284-.306-.334-.142-.022-.377-.093-.492.049,0-.191-.4-.378,0-.471a.629.629,0,0,0,.137-.569.545.545,0,0,0-.564-.328c-.306.306-.257-.213-.47-.279a1.124,1.124,0,0,0,.328-.334.553.553,0,0,0-.208-.635.479.479,0,0,0-.5,0c-.213.093-.186-.284-.35-.4a.466.466,0,0,0,.137-.87c-.186-.142-.47-.027-.613.044a.636.636,0,0,0-.35-.492.6.6,0,0,0,.47-.263.452.452,0,0,0-.213-.564.474.474,0,0,0-.563.191.463.463,0,0,0,.213.563c-.142-.022-.334.071-.47.022-.378-.257.186-.328.186-.585a.645.645,0,0,0-.213-.591.565.565,0,0,0-.613,0c-.093-.093-.142-.257-.257-.378.093-.093.257-.142.306-.284.071-.235.049-.542-.213-.635a.536.536,0,0,0-.613.142c-.044-.049,0-.12-.022-.164a.57.57,0,0,0-.328-.4c-.334-.142-.662.208-.777-.285.022-.049.066-.022.093-.022a.577.577,0,0,0,.257-.684.5.5,0,0,0-.585-.284c-.4.427-.263-.4-.662-.4.164-.022.377-.022.449-.235a.412.412,0,0,0-.164-.52.448.448,0,0,0-.542.164.478.478,0,0,0,.164.542,1.655,1.655,0,0,0-.449.1c-.049-.1-.049-.213-.164-.284a.638.638,0,0,0,.279-.284.5.5,0,0,0-.843-.52.774.774,0,0,0-.17-.4.6.6,0,0,0-.563-.208c-.235.306-.284-.142-.421-.235.137-.027.257-.191.328-.284a.5.5,0,0,0-.262-.635.476.476,0,0,0-.607.257c-.049-.186-.027-.4-.17-.542a.694.694,0,0,0-.542-.142c-.257.306-.235-.115-.4-.213-.635-.257.263-.071.235-.4a.4.4,0,0,0-.208-.52.386.386,0,0,0-.5.213.373.373,0,0,0,.192.5.517.517,0,0,1-.263.022c-.235.257-.306-.093-.47-.213a.551.551,0,0,0,.328-.279.475.475,0,0,0-.848-.427.573.573,0,0,0,.071.542c-.093,0-.186.12-.279.049-.355-.235.137-.306.137-.542a.576.576,0,0,0-.164-.569c-.164-.044-.328-.164-.492-.071-.4.5-.213-.235-.542-.328a.77.77,0,0,0-.563,0c-.17.164-.12-.164-.235-.213-.64-.306.235-.093.208-.421a.392.392,0,0,0-.186-.52.406.406,0,0,0-.52.213.378.378,0,0,0,.213.492.836.836,0,0,1-.356.027c-.279.328-.257-.213-.449-.284a.614.614,0,0,0,.377-.284.438.438,0,1,0-.821-.306.361.361,0,0,0,.115.449.315.315,0,0,1-.213.071c-.208.235-.235-.115-.4-.213.164,0,.262-.164.355-.279a.477.477,0,0,0-.848-.427.432.432,0,0,0,0,.471c.142.164-.235.093-.285.164-.093-.137-.142-.279.049-.35a.483.483,0,0,0,.115-.52.522.522,0,0,0-.563-.328.544.544,0,0,0-.356.328c-.066-.093-.022-.213-.044-.328a.53.53,0,0,0-.635-.328c-.449.678-.235-.334-.662-.306a.513.513,0,0,0-.613.186.829.829,0,0,0-.164-.4.625.625,0,0,0-.563-.142c-.449.635-.213-.328-.64-.306a.525.525,0,0,0-.613.213c-.066-.142-.066-.284-.164-.378a.525.525,0,0,0-.563-.142c-.47.684-.164-.257-.613-.306a.491.491,0,0,0-.656.257.746.746,0,0,0-.284-.542.513.513,0,0,0-.635.12c-.356.186.279.706-.285.706-.071-.164-.235-.306.022-.378a.5.5,0,0,0,.12-.449c-.071-.115-.142-.279-.284-.306a.565.565,0,0,0-.542.1.649.649,0,0,0-.093.47c.285.213-.164.164-.235.235a1.481,1.481,0,0,0-.235-.284.147.147,0,0,1,.093-.022.462.462,0,0,0,.284-.471.553.553,0,0,0-.284-.356.464.464,0,0,0-.542.213c-.142.186.049.4.022.564-.208-.071-.4.263-.47-.093-.585-.257.164-.115.191-.4a.408.408,0,0,0-.169-.52.453.453,0,0,0-.542.164.461.461,0,0,0,.192.542c-.192.027-.4,0-.542.164-.049-.044-.071-.066-.071-.115a.6.6,0,0,0-.492-.328.463.463,0,0,0-.449.208c-.071-.022-.071-.071-.071-.137a.572.572,0,0,0-.563-.334.56.56,0,0,0-.427.334c-.049-.049-.022-.142-.022-.213a.5.5,0,0,0-.284-.356.486.486,0,0,0-.591.213c-.115.164-.022.421.027.564-.377.263-.4-.142-.706-.257.044-.071.137-.022.235-.022a.43.43,0,0,0,.235-.52.406.406,0,0,0-.5-.257.417.417,0,0,0-.257.514c.47.3-.071.213-.257.284.126-.093.164-.328-.049-.356a37.185,37.185,0,0,0-16.369,3.8,36.268,36.268,0,0,0-12.342,9.848c-.728.881-1.417,1.794-2.057,2.73a36.378,36.378,0,0,0-1.959,3.168q-.681,1.231-1.231,2.484h5.329c.1-.191.2-.377.306-.564v-5.351h3.737c.728-.859,1.5-1.685,2.314-2.467a30.531,30.531,0,0,1,9.859-6.434,33.243,33.243,0,0,1,12.435-2.473.568.568,0,0,0,.235.022.478.478,0,0,1,.919.257.548.548,0,0,0,.662-.279.564.564,0,0,0-.093-.5.933.933,0,0,0,.372-.093c0,.191.476.306.027.328a.426.426,0,0,0-.191.542.514.514,0,0,0,.569.263.485.485,0,0,0,.235-.569c-.027-.093-.1-.137-.164-.208.257.235.585-.47.635.093a.639.639,0,0,0,.635.186c.071-.044.164-.093.235-.142a.641.641,0,0,0,.427.427c.35.306.678-.755.678.071a.543.543,0,0,0,.613.186c.164-.044.262-.235.334-.377.093-.235-.192-.421.186-.443,0,.071.093.115.142.164-.142.115-.306.213-.356.4a.534.534,0,0,0,.306.564.508.508,0,0,0,.542-.115.5.5,0,0,0,.093-.591c-.044-.071.12-.071.191-.115.142-.049.142.137.257.208a.6.6,0,0,0-.378.334.542.542,0,0,0,.263.564.547.547,0,0,0,.656-.213c.191-.279-.328-.613.213-.613.12,0,.142.235.257.284a.4.4,0,0,0-.35.284.474.474,0,0,0,.093.492.465.465,0,0,0,.542.071.5.5,0,0,0,.235-.564c-.022-.049-.093-.071-.093-.142.164.044.448-.306.448.071.142.115.142.093-.027.142a.48.48,0,0,0-.186.607.518.518,0,0,0,.613.213.563.563,0,0,0,.213-.635c-.213-.186.208-.093.306-.186a.351.351,0,0,0,.186.257c-.142,0-.284.186-.35.306a.5.5,0,0,0,.279.585.534.534,0,0,0,.591-.279.406.406,0,0,0-.071-.4c-.093-.142.235-.071.328-.164-.044.137.427.372.022.372a.469.469,0,0,0-.164.52.543.543,0,0,0,.356.328.566.566,0,0,0,.52-.328.517.517,0,0,0-.1-.449c.213.1.356-.279.449.071.263.12-.071.071-.093.164-.213.12-.186.4-.142.591a.545.545,0,0,0,.635.235.591.591,0,0,0,.235-.662c-.164-.137.17-.066.213-.164.071.027.093.142.192.191a.691.691,0,0,0-.356.378.529.529,0,0,0,.285.585.546.546,0,0,0,.684-.257.58.58,0,0,0,.306.635c.328.328.75-.542.678.027.049.164.235.257.377.328.263.213.591-.449.613.093a.641.641,0,0,0,.733.257c.235-.257.208.263.421.306a.635.635,0,0,0-.377.284.475.475,0,0,0,.263.564c.235.12.443-.071.563-.257a.462.462,0,0,0-.049-.4c-.186-.12.213-.093.306-.164a.712.712,0,0,0,.164.257c-.164,0-.257.213-.328.328a.51.51,0,0,0,.284.591c.35.378.777-.662.684.093a.566.566,0,0,0,.378.328c.257.191.563-.4.563.1a.683.683,0,0,0,.777.279c.186-.186.164.142.285.191a.773.773,0,0,0-.356.378.559.559,0,0,0,.285.585c.35.377.777-.706.684.142a.619.619,0,0,0,.728.284c.049-.049.093-.027.12-.071-.1.186.585.4.066.449a.333.333,0,0,0-.164.252.849.849,0,0,0,.027.334.553.553,0,0,0,.635.235c.071-.071.164-.115.213-.208a.674.674,0,0,0,.372.635.594.594,0,0,0,.52-.093,1.114,1.114,0,0,0,.235.4.465.465,0,0,0-.377.306.493.493,0,0,0,.733.564c.257-.306.093-.022.164.142a.941.941,0,0,0,.563.378,1.5,1.5,0,0,0,.334-.12c.542.377-.52.52-.142,1.012a.576.576,0,0,0,.706.284c.213-.213.142.306.377.377a.552.552,0,0,0-.427.328c-.093.284.142.47.356.591.306.213.613-.569.563.115a.74.74,0,0,0,.328.3.526.526,0,0,0,.427.011c.115-.142.142.164.213.235a.543.543,0,0,0-.285.684.7.7,0,0,0,.47.378c.213.049.449-.213.449.142.235.115-.071.164-.12.235a.6.6,0,0,0-.093.591c.12.137.213.306.377.328a.648.648,0,0,0,.427-.071,1.834,1.834,0,0,0,.186.306.75.75,0,0,0-.377.421.6.6,0,0,0,.377.613c.284.191.542-.257.613.235a1.256,1.256,0,0,0-.306.427.633.633,0,0,0,.164.542.593.593,0,0,0,.591.115c.115-.115.115.191.235.284-.213.022-.285.257-.378.427-.049.208.093.35.164.492a.615.615,0,0,0,.684.115c.044.071.044.17.115.241a.744.744,0,0,0-.257.235.478.478,0,0,0-.328-.449.526.526,0,0,0-.52.257.473.473,0,0,0,.235.591c.306.35.706-.684.591.142.47.4-.093.186-.192.563a.529.529,0,0,0,.285.662c.257.279.613-.5.563.164,0,.044.071.093.1.137a.807.807,0,0,0-.356.334.543.543,0,0,0,.164.613c.235.443.777-.334.755.35a.615.615,0,0,0-.328.4.682.682,0,0,0,.235.662c-.213-.022-.377.164-.47.328a.542.542,0,0,0,.186.542.491.491,0,0,0,.47.12c.235-.284.142.186.284.235-.191.071-.284.284-.377.47-.164.284.492.591.044.635a.525.525,0,0,0-.235.591.623.623,0,0,0,.449.377c.284-.027.356-.164.427.164.022.071-.142.115-.191.213a.675.675,0,0,0-.115.635,1.226,1.226,0,0,0,.164.235.545.545,0,0,0-.427.35.683.683,0,0,0,.12.52.71.71,0,0,0,.563.164c.12-.142.142.12.164.213-.044.049-.115.12-.186.191a.627.627,0,0,0-.4-.4.59.59,0,0,0-.52.306.529.529,0,0,0,.12.5.432.432,0,0,0,.542.071c.219-.241.071.12.142.219a.337.337,0,0,0-.427.016,32.395,32.395,0,0,1-46.092,29.346,31.69,31.69,0,0,1-3.594-1.98,30.746,30.746,0,0,1-3.146-2.259c-.367-.3-.722-.6-1.072-.908-.093-.082-.181-.159-.268-.246-.219-.191-.432-.394-.646-.6h-.186V299.5c-.328-.312-.646-.64-.952-.968q-.837-.878-1.592-1.822a32.437,32.437,0,0,1-7.085-23.607,27.141,27.141,0,0,1,.886-5.137q.32-1.215.755-2.4h-5c-.1.306-.186.618-.268.93v5.816h-1.056c-.077.771-.131,1.554-.159,2.336a36.906,36.906,0,0,0,2.56,15.384,31.235,31.235,0,0,0,3.452,6.674q.615.927,1.3,1.822c.323.416.651.832.99,1.236.356.438.728.864,1.116,1.286.137.159.279.312.421.471.7.75,1.428,1.477,2.188,2.172a34.7,34.7,0,0,0,12.627,7.632c8.266,3.179,19.383,2.686,27.278-.963a37.181,37.181,0,0,0,22.255-34.013c.022-.071.115-.093.115-.164a.51.51,0,0,0-.208-.613.52.52,0,0,0-.52.022c-.213-.235-.049-.4.142-.563.044.142.093.306.257.35a.419.419,0,0,0,.564-.186C1063.58,274.984,1063.58,274.727,1063.323,274.634ZM1028.013,240.1c-.093-.044-.071-.142-.142-.164a.491.491,0,0,0,.3-.257C1028.134,239.888,1028.38,240.145,1028.013,240.1Zm.941.191c.049-.071.12-.1.192-.164-.049.093.022.137.049.235A.2.2,0,0,1,1028.954,240.293Zm1.132.421c-.071.027-.071-.071-.093-.115.071-.027.071-.071.093.044C1030.065,240.671,1030.158,240.692,1030.087,240.714Zm4.24.284c-.093.044-.049-.093-.142-.12.055-.071.186-.115.235-.2C1034.409,240.846,1034.633,241.021,1034.327,241Zm1.039.35c-.071,0-.12-.093-.142-.137a1.291,1.291,0,0,1,.186-.213C1035.317,241.141,1035.624,241.305,1035.366,241.349Zm.985.306c-.071.027-.115-.066-.137-.093l.186-.186C1036.378,241.469,1036.564,241.655,1036.351,241.655Zm.99.306c-.071.027-.115-.044-.142-.093.049-.044.12-.115.192-.186C1037.363,241.776,1037.555,241.962,1037.341,241.962Zm.99.334c-.071.022-.12-.071-.142-.142.071-.022.12-.093.192-.164C1038.332,242.1,1038.567,242.3,1038.332,242.3Zm.919.328c-.241-.153.087-.186.137-.323C1039.349,242.5,1039.541,242.624,1039.251,242.624Zm.99.328c-.224-.164.022-.23.126-.345a.115.115,0,0,1,.038-.1.119.119,0,0,1-.038.1C1040.367,242.777,1040.585,242.99,1040.241,242.952Zm2.659,1.959c-.022-.071-.022-.049.022-.1C1042.922,244.861,1042.993,244.932,1042.9,244.91Zm1.012.306c-.022,0-.044-.027-.044-.027C1043.912,245,1044.076,245.217,1043.912,245.217Zm.875.235c.137-.142.235-.191.235.044A.184.184,0,0,1,1044.787,245.452Zm2.779,2.024a.162.162,0,0,1-.1-.022C1047.5,247.241,1047.823,247.454,1047.566,247.476Zm4.448,3.578c-.093-.022-.208.164-.235-.022C1051.872,250.89,1051.992,250.841,1052.014,251.054Zm-1.74-1.86c-.027.093.164.257-.027.257-.022-.022-.044.027-.071.027-.022-.027-.022-.071-.066-.12A.578.578,0,0,0,1050.275,249.194Zm-1.012-.115c-.027.044-.049.044-.1.044C1049.164,249.1,1049.262,249.008,1049.262,249.079Zm-.629-1.565a.175.175,0,0,1,.06-.159.175.175,0,0,1-.06.159c.027.2.345.4-.1.361C1048.25,247.684,1048.507,247.635,1048.633,247.515Zm4.984,4.951c-.049.12.071.17.071.263C1053.453,252.986,1053.311,252.515,1053.617,252.466Zm.635,1.417a.18.18,0,0,1,.027.115C1054.252,254.025,1054.181,254.025,1054.252,253.883Zm1.532,1.767c-.142-.12.12-.12.142-.235a.549.549,0,0,0,.115.257C1055.948,255.65,1055.784,255.814,1055.784,255.65Zm.755,1.34c-.071.049-.071-.049-.093-.071C1056.561,256.64,1056.752,257.012,1056.539,256.99Zm.635,1.318c-.049.071-.049-.044-.071-.071C1057.223,257.959,1057.48,258.38,1057.173,258.309Zm.706,1.3c-.044-.022-.071.071-.093,0C1057.835,259.441,1058.043,259.556,1057.879,259.605Zm.569,1.3c.066-.213.35.044.044,0C1058.492,260.924,1058.47,260.924,1058.448,260.9Zm.678,1.269c.1-.093.142-.071.17.049C1059.225,262.242,1059.126,262.291,1059.126,262.171Zm.733,1.417c-.022.044-.071-.071-.071-.12C1059.9,263.112,1060.21,263.725,1059.859,263.588Zm.563,1.176c.071-.071.192-.071.213-.191a.491.491,0,0,0,.164.29C1060.686,264.814,1060.423,265.114,1060.423,264.764Zm.4,2.424c0-.022,0-.044-.044-.071C1060.965,266.838,1061.107,267.259,1060.822,267.188Zm.427,2.265c-.142.044,0-.049.022-.071C1061.342,269.426,1061.271,269.426,1061.249,269.453Zm.35,2.21a.075.075,0,0,0,.027.049C1061.555,271.783,1061.506,271.734,1061.6,271.663Zm-.164-3.272c.224-.312.2-.011.378.126C1061.681,268.479,1061.462,268.714,1061.435,268.392Zm.449,5.7c-.071-.049.022-.049.071-.12C1062.048,274.065,1062,274.065,1061.884,274.092Zm.093-3.534c.071.044.049.186.169.235C1061.933,270.979,1061.6,270.7,1061.977,270.558Zm.355,5.651c.049.022.071.071.093.093C1062.354,276.3,1062.311,276.33,1062.332,276.209Zm-.022-3.37c.022.1.186.241.208.285C1062.261,273.315,1062.026,272.982,1062.311,272.839Z" transform="translate(-977.911 -238.04)" fill-rule="evenodd"/>
  <path id="Path_163" data-name="Path 163" d="M1062.89,246.2c-.047,0-.047.047-.094.071.047-.071-.141-.188,0-.165,0,.047.071.071.094.094Z" transform="translate(-1011.326 -241.381)" fill-rule="evenodd"/>
  <path id="Path_164" data-name="Path 164" d="M1056.985,246.366h0Z" transform="translate(-1008.718 -241.5)" fill-rule="evenodd"/>
  <path id="Path_165" data-name="Path 165" d="M1058.383,247.467a.108.108,0,0,1,.033-.077.2.2,0,0,1-.033.148c-.011.011-.016.027-.033.038A.493.493,0,0,1,1058.383,247.467Z" transform="translate(-1009.336 -241.964)" fill-rule="evenodd"/>
  <path id="Path_166" data-name="Path 166" d="M1058.567,246.709c.421.191-.022.191-.131.372C1058.425,246.9,1058.294,246.693,1058.567,246.709Z" transform="translate(-1009.357 -241.656)" fill-rule="evenodd"/>
  <path id="Path_167" data-name="Path 167" d="M1059.9,250.191a.212.212,0,0,1-.066.142.189.189,0,0,1-.142-.071C1059.644,250.141,1059.836,250.076,1059.9,250.191Z" transform="translate(-1009.941 -243.206)" fill-rule="evenodd"/>
  <path id="Path_168" data-name="Path 168" d="M1060.52,250.115c0,.071,0,.12-.049.142a.106.106,0,0,1-.142-.044C1060.257,250.093,1060.47,250.022,1060.52,250.115Z" transform="translate(-1010.226 -243.179)" fill-rule="evenodd"/>
  <path id="Path_169" data-name="Path 169" d="M1061.725,250.722a.216.216,0,0,1-.142.235.236.236,0,0,1-.208-.137.189.189,0,0,1,.137-.235A.177.177,0,0,1,1061.725,250.722Z" transform="translate(-1010.704 -243.409)" fill-rule="evenodd"/>
  <path id="Path_170" data-name="Path 170" d="M1062.327,250.864c-.071.022-.12,0-.093-.071C1062.3,250.771,1062.327,250.793,1062.327,250.864Z" transform="translate(-1011.092 -243.502)" fill-rule="evenodd"/>
  <path id="Path_171" data-name="Path 171" d="M1062.7,249.1a.356.356,0,0,1-.427-.213.338.338,0,0,1,.235-.421.332.332,0,1,1,.191.635Z" transform="translate(-1011.107 -242.442)" fill-rule="evenodd"/>
  <path id="Path_172" data-name="Path 172" d="M1063.543,251.213a.288.288,0,0,1-.192.306c-.137.049-.235-.049-.3-.164a.261.261,0,0,1,.164-.306A.282.282,0,0,1,1063.543,251.213Z" transform="translate(-1011.46 -243.615)" fill-rule="evenodd"/>
  <path id="Path_173" data-name="Path 173" d="M1064.536,249.658c-.164.022-.306-.044-.328-.186a.267.267,0,0,1,.186-.356.272.272,0,0,1,.328.213A.268.268,0,0,1,1064.536,249.658Z" transform="translate(-1011.982 -242.745)" fill-rule="evenodd"/>
  <path id="Path_174" data-name="Path 174" d="M1065.354,251.755a.311.311,0,0,1-.585.213.311.311,0,1,1,.585-.213Z" transform="translate(-1012.238 -243.851)" fill-rule="evenodd"/>
  <path id="Path_175" data-name="Path 175" d="M1065.88,250.254c.022.027,0,.027-.022.049-.049.022-.071-.071-.027-.071A.028.028,0,0,1,1065.88,250.254Z" transform="translate(-1012.714 -243.248)" fill-rule="evenodd"/>
  <path id="Path_176" data-name="Path 176" d="M1066.39,250.232a.248.248,0,0,1-.285-.142.225.225,0,0,1,.427-.142A.251.251,0,0,1,1066.39,250.232Z" transform="translate(-1012.846 -243.056)" fill-rule="evenodd"/>
  <path id="Path_177" data-name="Path 177" d="M1067.166,252.332a.418.418,0,0,1-.285.421.459.459,0,0,1-.421-.284.435.435,0,0,1,.279-.421A.39.39,0,0,1,1067.166,252.332Z" transform="translate(-1013.009 -244.073)" fill-rule="evenodd"/>
  <path id="Path_178" data-name="Path 178" d="M1067.717,250.8c0,.049-.044.049-.071.1-.044,0-.044-.049-.066-.071A.07.07,0,0,1,1067.717,250.8Z" transform="translate(-1013.517 -243.485)" fill-rule="evenodd"/>
  <path id="Path_179" data-name="Path 179" d="M1068.337,250.662c-.022.071-.071.186-.164.186-.093-.022-.213-.066-.213-.164.027-.093.071-.208.164-.186C1068.223,250.5,1068.337,250.547,1068.337,250.662Z" transform="translate(-1013.689 -243.371)" fill-rule="evenodd"/>
  <path id="Path_180" data-name="Path 180" d="M1069.516,251.336c-.022.049.022.093-.044.12-.1.044-.142-.1-.071-.142C1069.423,251.314,1069.494,251.286,1069.516,251.336Z" transform="translate(-1014.326 -243.738)" fill-rule="evenodd"/>
  <path id="Path_181" data-name="Path 181" d="M1070.141,251.216a.184.184,0,0,1-.12.186.173.173,0,0,1-.213-.115.165.165,0,0,1,.12-.191A.182.182,0,0,1,1070.141,251.216Z" transform="translate(-1014.523 -243.64)" fill-rule="evenodd"/>
  <path id="Path_182" data-name="Path 182" d="M1071.311,251.925a.139.139,0,0,1-.071.142c-.044.022-.093,0-.137-.049C1071.054,251.9,1071.24,251.832,1071.311,251.925Z" transform="translate(-1015.109 -243.999)" fill-rule="evenodd"/>
  <path id="Path_183" data-name="Path 183" d="M1071.909,251.944a.133.133,0,0,1-.191-.186A.133.133,0,0,1,1071.909,251.944Z" transform="translate(-1015.373 -243.925)" fill-rule="evenodd"/>
  <path id="Path_184" data-name="Path 184" d="M1073.118,252.518a.187.187,0,0,1-.071.137.208.208,0,0,1-.142-.071C1072.861,252.469,1073.047,252.4,1073.118,252.518Z" transform="translate(-1015.925 -244.259)" fill-rule="evenodd"/>
  <path id="Path_185" data-name="Path 185" d="M1073.741,252.416c.044.093-.027.115-.071.186-.093.027-.12-.044-.164-.093-.049-.071.022-.115.071-.164C1073.648,252.323,1073.692,252.367,1073.741,252.416Z" transform="translate(-1016.193 -244.206)" fill-rule="evenodd"/>
  <path id="Path_186" data-name="Path 186" d="M1074.928,253.078a.187.187,0,0,1-.071.137.2.2,0,0,1-.142-.071C1074.671,253.029,1074.857,252.958,1074.928,253.078Z" transform="translate(-1016.745 -244.512)" fill-rule="evenodd"/>
  <path id="Path_187" data-name="Path 187" d="M1075.551,253c.044.071-.027.12-.071.164-.1.027-.12-.044-.164-.093-.049-.071.022-.115.066-.164C1075.453,252.885,1075.5,252.956,1075.551,253Z" transform="translate(-1017.013 -244.461)" fill-rule="evenodd"/>
  <path id="Path_188" data-name="Path 188" d="M1076.737,253.679a.154.154,0,0,1-.071.142.17.17,0,0,1-.142-.049A.117.117,0,0,1,1076.737,253.679Z" transform="translate(-1017.564 -244.785)" fill-rule="evenodd"/>
  <path id="Path_189" data-name="Path 189" d="M1077.354,253.6c.049.071-.022.12-.071.17-.093.022-.115-.049-.164-.071-.044-.1.027-.142.071-.191C1077.261,253.485,1077.31,253.556,1077.354,253.6Z" transform="translate(-1017.831 -244.733)" fill-rule="evenodd"/>
  <path id="Path_190" data-name="Path 190" d="M1078.537,254.366c-.093.1-.235-.044-.142-.142C1078.466,254.158,1078.608,254.273,1078.537,254.366Z" transform="translate(-1018.401 -245.051)" fill-rule="evenodd"/>
  <path id="Path_191" data-name="Path 191" d="M1079.183,254.142a.242.242,0,0,1-.12.213.212.212,0,0,1-.208-.115.182.182,0,0,1,.115-.213A.218.218,0,0,1,1079.183,254.142Z" transform="translate(-1018.621 -244.968)" fill-rule="evenodd"/>
  <path id="Path_192" data-name="Path 192" d="M1082.39,253.379a1.037,1.037,0,0,1,.055-.109A.142.142,0,0,1,1082.39,253.379Z" transform="translate(-1020.224 -244.627)" fill-rule="evenodd"/>
  <path id="Path_193" data-name="Path 193" d="M1082.672,252.647a.5.5,0,0,0-.268.241c.011-.213-.328-.47.1-.449A.692.692,0,0,1,1082.672,252.647Z" transform="translate(-1020.178 -244.25)" fill-rule="evenodd"/>
  <path id="Path_194" data-name="Path 194" d="M1064.664,246.8c-.094.141-.141.071-.188-.071.047-.071.141,0,.188.071Z" transform="translate(-1012.111 -241.652)" fill-rule="evenodd"/>
  <path id="Path_195" data-name="Path 195" d="M1066.441,247.411c-.212.095-.235.283-.259-.047-.071-.071.071-.047.094-.094.071,0,.142.094.165.141Z" transform="translate(-1012.875 -241.91)" fill-rule="evenodd"/>
  <path id="Path_196" data-name="Path 196" d="M1084.237,253.455c.071-.165-.212-.33.094-.33.259.118-.047.188-.094.33Z" transform="translate(-1021.037 -244.562)" fill-rule="evenodd"/>
  <path id="Path_197" data-name="Path 197" d="M1086.235,253.813c-.047,0-.094.071-.141.118.024-.071-.141-.235.047-.212.094-.047.047.071.094.094Z" transform="translate(-1021.882 -244.826)" fill-rule="evenodd"/>
  <path id="Path_198" data-name="Path 198" d="M1088.083,254.392c-.048.094-.118,0-.071-.024.023,0,.071-.024.071.024Z" transform="translate(-1022.764 -245.122)" fill-rule="evenodd"/>
  <path id="Path_199" data-name="Path 199" d="M1090.857,257.592c-.047.118,0-.189-.047-.236-.189-.118.071-.118.094-.141.212.141.071.235-.047.377Z" transform="translate(-1024.007 -246.414)" fill-rule="evenodd"/>
  <path id="Path_200" data-name="Path 200" d="M1092.907,257.975c-.047,0-.094.071-.141.118,0-.071-.118-.188.024-.188a.109.109,0,0,1,.118.071Z" transform="translate(-1024.903 -246.726)" fill-rule="evenodd"/>
  <path id="Path_201" data-name="Path 201" d="M1095.865,260.961a.414.414,0,0,0-.236.212.355.355,0,0,0-.071-.306c.118-.095.236-.095.306.094Z" transform="translate(-1026.189 -248.04)" fill-rule="evenodd"/>
  <path id="Path_202" data-name="Path 202" d="M1097.724,261.5c-.047,0-.071.071-.118.095-.023-.048-.047-.095.024-.118a.141.141,0,0,1,.094.024Z" transform="translate(-1027.105 -248.344)" fill-rule="evenodd"/>
  <path id="Path_203" data-name="Path 203" d="M1098.614,264.156c.212-.141-.424-.518.118-.448.283.165-.023.259-.118.448Z" transform="translate(-1027.524 -249.351)" fill-rule="evenodd"/>
  <path id="Path_204" data-name="Path 204" d="M1100.734,264.488c-.047-.024-.071.118-.141.024-.024-.071.071-.094.118-.071,0,.023.023.023.023.047Z" transform="translate(-1028.467 -249.683)" fill-rule="evenodd"/>
  <path id="Path_205" data-name="Path 205" d="M1101.7,267.063c-.024-.188-.212-.353.118-.377.212.142-.024.236-.118.377Z" transform="translate(-1028.935 -250.704)" fill-rule="evenodd"/>
  <path id="Path_206" data-name="Path 206" d="M1103.637,267.485c-.07-.071.071,0,.071-.071.118-.023-.047.047-.071.071Z" transform="translate(-1029.838 -251.031)" fill-rule="evenodd"/>
  <path id="Path_207" data-name="Path 207" d="M1104.78,269.947c0-.095-.071-.142-.094-.212.189-.212.354.188.094.212Z" transform="translate(-1030.323 -252.057)" fill-rule="evenodd"/>
  <path id="Path_208" data-name="Path 208" d="M1105.818,272.44c.047-.142-.048-.236-.142-.33.353-.33.518.212.142.33Z" transform="translate(-1030.771 -253.113)" fill-rule="evenodd"/>
  <path id="Path_209" data-name="Path 209" d="M1062.7,249.1a.356.356,0,0,1-.427-.213.338.338,0,0,1,.235-.421.332.332,0,1,1,.191.635Z" transform="translate(-1011.107 -242.442)" fill-rule="evenodd"/>
  <path id="Path_210" data-name="Path 210" d="M1064.536,249.658c-.164.022-.306-.044-.328-.186a.267.267,0,0,1,.186-.356.272.272,0,0,1,.328.213A.268.268,0,0,1,1064.536,249.658Z" transform="translate(-1011.982 -242.745)" fill-rule="evenodd"/>
  <path id="Path_211" data-name="Path 211" d="M1058.735,249.478a.312.312,0,0,1-.141.235.249.249,0,0,1-.236-.141.208.208,0,0,1,.142-.235.259.259,0,0,1,.235.141Z" transform="translate(-1009.338 -242.846)" fill-rule="evenodd"/>
  <path id="Path_212" data-name="Path 212" d="M1066.532,249.948a.251.251,0,0,1-.142.284.248.248,0,0,1-.285-.142.225.225,0,0,1,.427-.142Z" transform="translate(-1012.846 -243.056)" fill-rule="evenodd"/>
  <path id="Path_213" data-name="Path 213" d="M1060.52,250.115c0,.071,0,.12-.049.142a.106.106,0,0,1-.142-.044C1060.257,250.093,1060.47,250.022,1060.52,250.115Z" transform="translate(-1010.226 -243.179)" fill-rule="evenodd"/>
  <path id="Path_214" data-name="Path 214" d="M1068.337,250.662c-.022.071-.071.186-.164.186-.093-.022-.213-.066-.213-.164.027-.093.071-.208.164-.186C1068.223,250.5,1068.337,250.547,1068.337,250.662Z" transform="translate(-1013.689 -243.371)" fill-rule="evenodd"/>
  <path id="Path_215" data-name="Path 215" d="M1062.327,250.864c-.071.022-.12,0-.093-.071C1062.3,250.771,1062.327,250.793,1062.327,250.864Z" transform="translate(-1011.092 -243.502)" fill-rule="evenodd"/>
  <path id="Path_216" data-name="Path 216" d="M1070.141,251.216a.184.184,0,0,1-.12.186.173.173,0,0,1-.213-.115.165.165,0,0,1,.12-.191A.182.182,0,0,1,1070.141,251.216Z" transform="translate(-1014.523 -243.64)" fill-rule="evenodd"/>
  <path id="Path_217" data-name="Path 217" d="M1071.909,251.944a.133.133,0,0,1-.191-.186A.133.133,0,0,1,1071.909,251.944Z" transform="translate(-1015.373 -243.925)" fill-rule="evenodd"/>
  <path id="Path_218" data-name="Path 218" d="M1073.67,252.6c-.093.027-.12-.044-.164-.093-.049-.071.022-.115.071-.164.071-.022.115.022.164.071C1073.785,252.509,1073.714,252.531,1073.67,252.6Z" transform="translate(-1016.193 -244.206)" fill-rule="evenodd"/>
  <path id="Path_219" data-name="Path 219" d="M1075.48,253.164c-.1.027-.12-.044-.164-.093-.049-.071.022-.115.066-.164.071-.022.12.049.17.093C1075.6,253.071,1075.524,253.12,1075.48,253.164Z" transform="translate(-1017.013 -244.461)" fill-rule="evenodd"/>
  <path id="Path_220" data-name="Path 220" d="M1077.283,253.769c-.093.022-.115-.049-.164-.071-.044-.1.027-.142.071-.191.071-.022.12.049.164.093C1077.4,253.671,1077.332,253.72,1077.283,253.769Z" transform="translate(-1017.831 -244.733)" fill-rule="evenodd"/>
  <path id="Path_221" data-name="Path 221" d="M1079.183,254.142a.242.242,0,0,1-.12.213.212.212,0,0,1-.208-.115.182.182,0,0,1,.115-.213A.218.218,0,0,1,1079.183,254.142Z" transform="translate(-1018.621 -244.968)" fill-rule="evenodd"/>
  <path id="Path_222" data-name="Path 222" d="M1081,254.687a.249.249,0,0,1-.141.236.209.209,0,0,1-.236-.142.259.259,0,0,1,.141-.235.312.312,0,0,1,.236.141Z" transform="translate(-1019.423 -245.205)" fill-rule="evenodd"/>
  <path id="Path_223" data-name="Path 223" d="M1082.8,255.278a.241.241,0,0,1-.141.283.268.268,0,0,1-.282-.142c-.024-.141.023-.259.141-.282a.219.219,0,0,1,.282.141Z" transform="translate(-1020.217 -245.466)" fill-rule="evenodd"/>
  <path id="Path_224" data-name="Path 224" d="M1084.611,255.763a.276.276,0,0,1-.519.188.287.287,0,0,1,.165-.377.293.293,0,0,1,.353.189Z" transform="translate(-1020.988 -245.668)" fill-rule="evenodd"/>
  <path id="Path_225" data-name="Path 225" d="M1086.448,256.314a.357.357,0,1,1-.4-.306.385.385,0,0,1,.4.306Z" transform="translate(-1021.741 -245.867)" fill-rule="evenodd"/>
  <path id="Path_226" data-name="Path 226" d="M1085.756,258.382c.024.047-.024.071-.047.095-.048,0-.048-.048-.095-.048.023-.071.118-.141.142-.047Z" transform="translate(-1021.685 -246.922)" fill-rule="evenodd"/>
  <path id="Path_227" data-name="Path 227" d="M1087.6,258.988c0,.047-.023.142-.094.118-.142.048-.118-.141-.095-.212.071.024.212-.024.189.094Z" transform="translate(-1022.489 -247.175)" fill-rule="evenodd"/>
  <path id="Path_228" data-name="Path 228" d="M1089.406,259.438c.024.094-.024.165-.118.235a.242.242,0,0,1-.236-.094.261.261,0,0,1,.095-.259.236.236,0,0,1,.259.118Z" transform="translate(-1023.239 -247.365)" fill-rule="evenodd"/>
  <path id="Path_229" data-name="Path 229" d="M1091.231,259.949a.3.3,0,0,1-.165.353.334.334,0,0,1-.377-.165.3.3,0,0,1,.165-.353.287.287,0,0,1,.377.165Z" transform="translate(-1023.981 -247.57)" fill-rule="evenodd"/>
  <path id="Path_230" data-name="Path 230" d="M1093.058,260.418a.443.443,0,0,1-.283.471.41.41,0,0,1-.495-.283.443.443,0,0,1,.283-.47.431.431,0,0,1,.495.282Z" transform="translate(-1024.7 -247.733)" fill-rule="evenodd"/>
  <path id="Path_231" data-name="Path 231" d="M1090.625,262.018c.024.023-.023.047-.023.071-.047,0-.094-.071-.024-.094.024,0,.024.024.047.024Z" transform="translate(-1023.917 -248.579)" fill-rule="evenodd"/>
  <path id="Path_232" data-name="Path 232" d="M1092.427,262.517a.105.105,0,0,1-.047.142c-.047.023-.095,0-.142-.047-.047-.118.142-.189.189-.095Z" transform="translate(-1024.681 -248.796)" fill-rule="evenodd"/>
  <path id="Path_233" data-name="Path 233" d="M1094.261,263.024a.226.226,0,0,1-.188.212.28.28,0,0,1-.236-.189.272.272,0,0,1,.212-.235.228.228,0,0,1,.212.212Z" transform="translate(-1025.409 -248.949)" fill-rule="evenodd"/>
  <path id="Path_234" data-name="Path 234" d="M1096.09,263.5a.337.337,0,1,1-.4-.259.414.414,0,0,1,.4.259Z" transform="translate(-1026.13 -249.144)" fill-rule="evenodd"/>
  <path id="Path_235" data-name="Path 235" d="M1095.442,265.566c0,.047-.047.071-.071.094-.024,0-.047-.047-.071-.071a.072.072,0,0,1,.141-.024Z" transform="translate(-1026.072 -250.173)" fill-rule="evenodd"/>
  <path id="Path_236" data-name="Path 236" d="M1097.211,266.195a.177.177,0,0,1-.259-.235.177.177,0,0,1,.259.235Z" transform="translate(-1026.804 -250.354)" fill-rule="evenodd"/>
  <path id="Path_237" data-name="Path 237" d="M1099.1,266.452a.363.363,0,0,1-.283.377.342.342,0,0,1-.376-.282.358.358,0,0,1,.282-.377.382.382,0,0,1,.377.282Z" transform="translate(-1027.493 -250.47)" fill-rule="evenodd"/>
  <path id="Path_238" data-name="Path 238" d="M1098.49,268.476c-.023.047.024.094-.047.118-.094.071-.142-.095-.071-.141.047.024.094-.024.118.024Z" transform="translate(-1027.448 -251.503)" fill-rule="evenodd"/>
  <path id="Path_239" data-name="Path 239" d="M1100.156,269.229a.154.154,0,0,1-.213-.142.16.16,0,0,1,.027-.159.157.157,0,0,1,.093-.055.183.183,0,0,1,.2.055.116.116,0,0,1,.033.088A.154.154,0,0,1,1100.156,269.229Z" transform="translate(-1028.17 -251.691)" fill-rule="evenodd"/>
  <path id="Path_240" data-name="Path 240" d="M1102.155,269.344a.459.459,0,0,1-.235.492.408.408,0,0,1-.23-.005.412.412,0,0,1-.241-.23.407.407,0,0,1,.208-.47.069.069,0,0,1,.033-.005A.446.446,0,0,1,1102.155,269.344Z" transform="translate(-1028.85 -251.805)" fill-rule="evenodd"/>
  <path id="Path_241" data-name="Path 241" d="M1101.42,271.6a.16.16,0,0,1-.137-.049c-.049-.142.137-.213.186-.093C1101.491,271.5,1101.469,271.552,1101.42,271.6Z" transform="translate(-1028.778 -252.838)" fill-rule="evenodd"/>
  <path id="Path_242" data-name="Path 242" d="M1103.33,271.857a.273.273,0,0,1-.212.33.276.276,0,0,1-.33-.189.28.28,0,0,1,.542-.141Z" transform="translate(-1029.461 -252.954)" fill-rule="evenodd"/>
  <path id="Path_243" data-name="Path 243" d="M1102.714,273.97c-.071,0-.094-.023-.094-.094.071,0,.094.024.094.094Z" transform="translate(-1029.387 -253.96)" fill-rule="evenodd"/>
  <path id="Path_244" data-name="Path 244" d="M1104.546,274.327c-.023.094.048.235-.094.282-.094,0-.212.047-.282-.071.024-.118-.048-.235.094-.282.094,0,.235-.047.282.071Z" transform="translate(-1030.089 -254.128)" fill-rule="evenodd"/>
  <path id="Path_245" data-name="Path 245" d="M1106.372,274.675c.094.142-.023.283-.071.4a.46.46,0,0,1-.542.047.4.4,0,0,1-.142-.448.481.481,0,0,1,.354-.282c.165.047.353.094.4.282Z" transform="translate(-1030.737 -254.194)" fill-rule="evenodd"/>
  <path id="Path_246" data-name="Path 246" d="M1105.767,276.769a.19.19,0,0,1-.071.212.285.285,0,0,1-.236-.071c0-.094,0-.188.094-.236.094,0,.165,0,.212.095Z" transform="translate(-1030.673 -255.227)" fill-rule="evenodd"/>
  <path id="Path_247" data-name="Path 247" d="M1107.621,277.092a.429.429,0,0,1-.235.495.4.4,0,0,1-.471-.235.413.413,0,0,1,.212-.471.445.445,0,0,1,.495.212Z" transform="translate(-1031.327 -255.315)" fill-rule="evenodd"/>
  <path id="Path_248" data-name="Path 248" d="M1106.934,279.318a.15.15,0,0,1-.212-.212.152.152,0,0,1,.212.212Z" transform="translate(-1031.228 -256.316)" fill-rule="evenodd"/>
  <path id="Path_249" data-name="Path 249" d="M1058.081,249.732c-.071.024-.094-.024-.071-.094.071,0,.094.024.071.094Z" transform="translate(-1009.179 -242.982)" fill-rule="evenodd"/>
  <path id="Path_250" data-name="Path 250" d="M1059.9,250.191a.212.212,0,0,1-.066.142.189.189,0,0,1-.142-.071C1059.644,250.141,1059.836,250.076,1059.9,250.191Z" transform="translate(-1009.941 -243.206)" fill-rule="evenodd"/>
  <path id="Path_251" data-name="Path 251" d="M1065.858,250.3c-.049.022-.071-.071-.027-.071a.028.028,0,0,1,.049.022C1065.9,250.282,1065.88,250.282,1065.858,250.3Z" transform="translate(-1012.714 -243.248)" fill-rule="evenodd"/>
  <path id="Path_252" data-name="Path 252" d="M1061.583,250.957a.236.236,0,0,1-.208-.137.189.189,0,0,1,.137-.235.177.177,0,0,1,.213.137A.216.216,0,0,1,1061.583,250.957Z" transform="translate(-1010.704 -243.409)" fill-rule="evenodd"/>
  <path id="Path_253" data-name="Path 253" d="M1067.717,250.8c0,.049-.044.049-.071.1-.044,0-.044-.049-.066-.071A.07.07,0,0,1,1067.717,250.8Z" transform="translate(-1013.517 -243.485)" fill-rule="evenodd"/>
  <path id="Path_254" data-name="Path 254" d="M1057.558,251.212a.343.343,0,0,1-.283.377.358.358,0,0,1-.376-.283.382.382,0,0,1,.282-.377.363.363,0,0,1,.377.283Z" transform="translate(-1008.679 -243.567)" fill-rule="evenodd"/>
  <path id="Path_255" data-name="Path 255" d="M1063.543,251.213a.288.288,0,0,1-.192.306c-.137.049-.235-.049-.3-.164a.261.261,0,0,1,.164-.306A.282.282,0,0,1,1063.543,251.213Z" transform="translate(-1011.46 -243.615)" fill-rule="evenodd"/>
  <path id="Path_256" data-name="Path 256" d="M1069.472,251.456c-.1.044-.142-.1-.071-.142.022,0,.093-.027.115.022C1069.494,251.385,1069.538,251.429,1069.472,251.456Z" transform="translate(-1014.326 -243.738)" fill-rule="evenodd"/>
  <path id="Path_257" data-name="Path 257" d="M1065.168,252.154a.312.312,0,1,1,.186-.4A.33.33,0,0,1,1065.168,252.154Z" transform="translate(-1012.238 -243.851)" fill-rule="evenodd"/>
  <path id="Path_258" data-name="Path 258" d="M1071.311,251.925a.139.139,0,0,1-.071.142c-.044.022-.093,0-.137-.049C1071.054,251.9,1071.24,251.832,1071.311,251.925Z" transform="translate(-1015.109 -243.999)" fill-rule="evenodd"/>
  <path id="Path_259" data-name="Path 259" d="M1067.166,252.332a.418.418,0,0,1-.285.421.459.459,0,0,1-.421-.284.435.435,0,0,1,.279-.421A.39.39,0,0,1,1067.166,252.332Z" transform="translate(-1013.009 -244.073)" fill-rule="evenodd"/>
  <path id="Path_260" data-name="Path 260" d="M1073.118,252.518a.187.187,0,0,1-.071.137.208.208,0,0,1-.142-.071C1072.861,252.469,1073.047,252.4,1073.118,252.518Z" transform="translate(-1015.925 -244.259)" fill-rule="evenodd"/>
  <path id="Path_261" data-name="Path 261" d="M1074.928,253.078a.187.187,0,0,1-.071.137.2.2,0,0,1-.142-.071C1074.671,253.029,1074.857,252.958,1074.928,253.078Z" transform="translate(-1016.745 -244.512)" fill-rule="evenodd"/>
  <path id="Path_262" data-name="Path 262" d="M1076.737,253.679a.154.154,0,0,1-.071.142.17.17,0,0,1-.142-.049A.117.117,0,0,1,1076.737,253.679Z" transform="translate(-1017.564 -244.785)" fill-rule="evenodd"/>
  <path id="Path_263" data-name="Path 263" d="M1078.537,254.366c-.093.1-.235-.044-.142-.142C1078.466,254.158,1078.608,254.273,1078.537,254.366Z" transform="translate(-1018.401 -245.051)" fill-rule="evenodd"/>
  <path id="Path_264" data-name="Path 264" d="M1080.365,254.9c-.023.023.024.094-.047.118-.094.047-.141-.095-.071-.142.024,0,.094-.047.118.024Z" transform="translate(-1019.239 -245.348)" fill-rule="evenodd"/>
  <path id="Path_265" data-name="Path 265" d="M1082.147,255.582c-.071,0-.094-.024-.071-.094.071-.024.094.024.071.094Z" transform="translate(-1020.078 -245.629)" fill-rule="evenodd"/>
  <path id="Path_266" data-name="Path 266" d="M1079.813,256.347a.362.362,0,0,1-.236.448.388.388,0,0,1-.471-.235.426.426,0,0,1,.259-.471.4.4,0,0,1,.448.259Z" transform="translate(-1018.733 -245.9)" fill-rule="evenodd"/>
  <path id="Path_267" data-name="Path 267" d="M1081.641,257.043a.383.383,0,0,1-.259.4.338.338,0,0,1-.142-.66.392.392,0,0,1,.4.259Z" transform="translate(-1019.595 -246.219)" fill-rule="evenodd"/>
  <path id="Path_268" data-name="Path 268" d="M1083.436,257.646c.047.165-.094.259-.212.329-.165.071-.259-.071-.33-.188-.047-.165.094-.259.188-.33.165-.071.283.071.354.189Z" transform="translate(-1020.449 -246.515)" fill-rule="evenodd"/>
  <path id="Path_269" data-name="Path 269" d="M1085.22,258.35a.257.257,0,0,1-.165.236.29.29,0,0,1-.259-.165.275.275,0,0,1,.189-.259.27.27,0,0,1,.235.188Z" transform="translate(-1021.314 -246.843)" fill-rule="evenodd"/>
  <path id="Path_270" data-name="Path 270" d="M1087.026,258.965c-.023.047.024.141-.071.189-.071-.024-.165.024-.188-.048,0-.071-.047-.165.047-.212.071.024.165-.024.212.071Z" transform="translate(-1022.202 -247.175)" fill-rule="evenodd"/>
  <path id="Path_271" data-name="Path 271" d="M1088.813,259.6c0,.047.024.094-.024.118-.118.047-.141-.094-.094-.141.047,0,.094-.023.118.024Z" transform="translate(-1023.07 -247.482)" fill-rule="evenodd"/>
  <path id="Path_272" data-name="Path 272" d="M1088.243,261.118a.376.376,0,0,1-.259.448.4.4,0,0,1-.447-.259.366.366,0,0,1,.706-.189Z" transform="translate(-1022.547 -248.056)" fill-rule="evenodd"/>
  <path id="Path_273" data-name="Path 273" d="M1090.023,261.822c.071.165-.071.282-.188.353-.165.048-.283-.094-.353-.212-.047-.165.094-.259.212-.33.165-.071.259.071.33.189Z" transform="translate(-1023.432 -248.407)" fill-rule="evenodd"/>
  <path id="Path_274" data-name="Path 274" d="M1091.818,262.487a.213.213,0,0,1-.071.236.242.242,0,0,1-.236-.094.2.2,0,0,1,.095-.212.179.179,0,0,1,.212.071Z" transform="translate(-1024.356 -248.766)" fill-rule="evenodd"/>
  <path id="Path_275" data-name="Path 275" d="M1093.635,263.167c-.023.024.024.095-.023.118-.118.048-.141-.094-.094-.141.047,0,.094-.047.118.024Z" transform="translate(-1025.254 -249.092)" fill-rule="evenodd"/>
  <path id="Path_276" data-name="Path 276" d="M1093.085,264.693a.335.335,0,1,1-.424-.212.332.332,0,0,1,.424.212Z" transform="translate(-1024.775 -249.699)" fill-rule="evenodd"/>
  <path id="Path_277" data-name="Path 277" d="M1094.907,265.5a.233.233,0,0,1-.212.236.227.227,0,0,1-.212-.189.256.256,0,0,1,.165-.235.313.313,0,0,1,.259.188Z" transform="translate(-1025.701 -250.08)" fill-rule="evenodd"/>
  <path id="Path_278" data-name="Path 278" d="M1096.669,266.134c0,.071,0,.118-.071.141-.046.024-.094,0-.141-.047-.047-.118.141-.188.212-.094Z" transform="translate(-1026.592 -250.434)" fill-rule="evenodd"/>
  <path id="Path_279" data-name="Path 279" d="M1096.084,267.644a.414.414,0,0,1-.212.471.445.445,0,0,1-.495-.212.43.43,0,0,1,.236-.5.4.4,0,0,1,.471.236Z" transform="translate(-1026.101 -251.025)" fill-rule="evenodd"/>
  <path id="Path_280" data-name="Path 280" d="M1097.873,268.372c.022.126-.011.235-.1.268a.05.05,0,0,1-.038.016.24.24,0,0,1-.153-.016.212.212,0,0,1-.131-.126.241.241,0,0,1,.142-.279A.25.25,0,0,1,1097.873,268.372Z" transform="translate(-1027.041 -251.403)" fill-rule="evenodd"/>
  <path id="Path_281" data-name="Path 281" d="M1099.641,269.278c-.12.044-.142-.093-.1-.142.049,0,.1-.022.12.022C1099.663,269.207,1099.685,269.256,1099.641,269.278Z" transform="translate(-1027.984 -251.811)" fill-rule="evenodd"/>
  <path id="Path_282" data-name="Path 282" d="M1098.9,271.123a.378.378,0,0,1-.421-.235.341.341,0,1,1,.656-.186A.341.341,0,0,1,1098.9,271.123Z" transform="translate(-1027.505 -252.409)" fill-rule="evenodd"/>
  <path id="Path_283" data-name="Path 283" d="M1100.928,271.433a.243.243,0,0,1-.093.235.179.179,0,1,1-.142-.328A.243.243,0,0,1,1100.928,271.433Z" transform="translate(-1028.472 -252.811)" fill-rule="evenodd"/>
  <path id="Path_284" data-name="Path 284" d="M1102.717,272.212c0,.024-.024.024-.024.047-.047.024-.095-.071-.047-.071.047-.023.047,0,.071.024Z" transform="translate(-1029.39 -253.192)" fill-rule="evenodd"/>
  <path id="Path_285" data-name="Path 285" d="M1101.983,274.107a.343.343,0,0,1-.208-.033.688.688,0,0,1-.148-.109.412.412,0,0,1,.142-.35h.005a.337.337,0,0,1,.345.142A.372.372,0,0,1,1101.983,274.107Z" transform="translate(-1028.936 -253.839)" fill-rule="evenodd"/>
  <path id="Path_286" data-name="Path 286" d="M1103.915,274.533c-.024.024.023.094-.048.118-.094.047-.141-.094-.071-.141.047,0,.094-.047.118.024Z" transform="translate(-1029.904 -254.24)" fill-rule="evenodd"/>
  <path id="Path_287" data-name="Path 287" d="M1103.376,276.06a.322.322,0,1,1-.424-.165.387.387,0,0,1,.424.165Z" transform="translate(-1029.46 -254.872)" fill-rule="evenodd"/>
  <path id="Path_288" data-name="Path 288" d="M1105.16,276.9c-.047.047-.024.141-.118.141-.047-.047-.142-.024-.142-.118,0-.165.212-.141.259-.024Z" transform="translate(-1030.42 -255.286)" fill-rule="evenodd"/>
  <path id="Path_289" data-name="Path 289" d="M1104.6,278.361a.375.375,0,0,1-.165.471.354.354,0,1,1-.306-.636.375.375,0,0,1,.471.165Z" transform="translate(-1029.974 -255.901)" fill-rule="evenodd"/>
  <path id="Path_290" data-name="Path 290" d="M1106.413,279.289c-.024.071-.071.165-.142.188a.249.249,0,0,1-.165-.141.156.156,0,0,1,.306-.047Z" transform="translate(-1030.966 -256.358)" fill-rule="evenodd"/>
  <path id="Path_291" data-name="Path 291" d="M1105.825,280.853a.4.4,0,0,1-.306.448.382.382,0,0,1-.448-.306.4.4,0,0,1,.306-.448.415.415,0,0,1,.448.306Z" transform="translate(-1030.496 -256.98)" fill-rule="evenodd"/>
  <path id="Path_292" data-name="Path 292" d="M1107.056,283.247a.432.432,0,0,1-.353.424.427.427,0,0,1-.424-.33.475.475,0,0,1,.354-.424.484.484,0,0,1,.424.33Z" transform="translate(-1031.044 -258.055)" fill-rule="evenodd"/>
  <path id="Path_293" data-name="Path 293" d="M999.264,308.021c0,.047-.047.071-.071.095-.047.024-.047-.048-.071-.048,0-.071.094-.141.141-.047Z" transform="translate(-982.512 -269.404)" fill-rule="evenodd"/>
  <path id="Path_294" data-name="Path 294" d="M1001.087,308.328a.383.383,0,0,1-.188.448c-.142.024-.377,0-.448-.189a.343.343,0,1,1,.636-.259Z" transform="translate(-983.11 -269.475)" fill-rule="evenodd"/>
  <path id="Path_295" data-name="Path 295" d="M1000.522,310.295c-.024.118-.071.259-.212.283-.118-.024-.259-.071-.283-.212.024-.118.071-.259.212-.283.118.023.259.071.283.212Z" transform="translate(-982.921 -270.359)" fill-rule="evenodd"/>
  <path id="Path_296" data-name="Path 296" d="M999.875,312.236c-.024.048-.024.142-.094.142-.047-.047-.142-.023-.142-.118,0-.188.212-.141.236-.023Z" transform="translate(-982.745 -271.287)" fill-rule="evenodd"/>
  <path id="Path_297" data-name="Path 297" d="M999.3,314.1a.051.051,0,0,1-.047.047c-.047.024-.071-.047-.024-.071.024-.024.047,0,.071.024Z" transform="translate(-982.549 -272.164)" fill-rule="evenodd"/>
  <path id="Path_298" data-name="Path 298" d="M1001.125,314.424a.276.276,0,0,1-.188.33.3.3,0,0,1-.353-.189.285.285,0,0,1,.212-.353.272.272,0,0,1,.33.212Z" transform="translate(-983.171 -272.227)" fill-rule="evenodd"/>
  <path id="Path_299" data-name="Path 299" d="M1000.467,316.514a.151.151,0,0,1-.212-.212.153.153,0,0,1,.212.212Z" transform="translate(-983.008 -273.163)" fill-rule="evenodd"/>
  <path id="Path_300" data-name="Path 300" d="M999.915,318.278a.082.082,0,0,1-.024.047c-.047.023-.094-.047-.023-.071.023-.024.023,0,.047.024Z" transform="translate(-982.833 -274.055)" fill-rule="evenodd"/>
  <path id="Path_301" data-name="Path 301" d="M1001.775,318.651a.356.356,0,0,1-.259.283.3.3,0,0,1-.282-.259.388.388,0,0,1,.259-.282.441.441,0,0,1,.283.259Z" transform="translate(-983.467 -274.122)" fill-rule="evenodd"/>
  <path id="Path_302" data-name="Path 302" d="M1001.157,320.582c0,.047,0,.118-.047.141-.071,0-.118,0-.142-.047-.047-.142.142-.212.189-.094Z" transform="translate(-983.344 -275.086)" fill-rule="evenodd"/>
  <path id="Path_303" data-name="Path 303" d="M1003.007,320.9a.412.412,0,0,1-.235.471.4.4,0,0,1-.471-.212.444.444,0,0,1,.235-.5.413.413,0,0,1,.471.236Z" transform="translate(-983.946 -275.146)" fill-rule="evenodd"/>
  <path id="Path_304" data-name="Path 304" d="M1002.355,322.9a.262.262,0,0,1-.094.259.238.238,0,0,1-.259-.118.253.253,0,0,1,.118-.259.239.239,0,0,1,.235.118Z" transform="translate(-983.813 -276.107)" fill-rule="evenodd"/>
  <path id="Path_305" data-name="Path 305" d="M1001.769,324.944c-.071.024-.094-.023-.071-.094.071,0,.094.024.071.094Z" transform="translate(-983.674 -277.047)" fill-rule="evenodd"/>
  <path id="Path_306" data-name="Path 306" d="M1003.618,325.2c.047.165-.094.283-.212.353-.165.047-.259-.094-.33-.212-.047-.141.094-.259.188-.329.165-.047.283.094.353.188Z" transform="translate(-984.298 -277.117)" fill-rule="evenodd"/>
  <path id="Path_307" data-name="Path 307" d="M1002.992,327.3c-.094.094-.212-.047-.141-.142.094-.071.235.071.141.142Z" transform="translate(-984.19 -278.083)" fill-rule="evenodd"/>
  <path id="Path_308" data-name="Path 308" d="M1004.818,327.584a.32.32,0,0,1-.283.353.339.339,0,0,1-.377-.283.334.334,0,0,1,.283-.353.358.358,0,0,1,.377.282Z" transform="translate(-984.791 -278.156)" fill-rule="evenodd"/>
  <path id="Path_309" data-name="Path 309" d="M1004.2,329.593c-.024.047-.024.142-.118.142-.047-.047-.118-.024-.141-.118,0-.165.212-.141.259-.024Z" transform="translate(-984.696 -279.152)" fill-rule="evenodd"/>
  <path id="Path_310" data-name="Path 310" d="M1006.04,329.851a.447.447,0,0,1-.188.495.376.376,0,0,1-.472-.165.406.406,0,0,1,.165-.495.414.414,0,0,1,.495.165Z" transform="translate(-985.33 -279.222)" fill-rule="evenodd"/>
  <path id="Path_311" data-name="Path 311" d="M1005.452,331.947c0,.071.024.165-.047.188-.071,0-.165.048-.212-.047.024-.071-.023-.165.071-.188.047,0,.141-.047.188.047Z" transform="translate(-985.261 -280.235)" fill-rule="evenodd"/>
  <path id="Path_312" data-name="Path 312" d="M1007.311,332.265a.427.427,0,0,1-.236.471.4.4,0,0,1-.471-.212.445.445,0,0,1,.212-.495.429.429,0,0,1,.495.236Z" transform="translate(-985.895 -280.293)" fill-rule="evenodd"/>
  <path id="Path_313" data-name="Path 313" d="M1006.648,334.315c-.024.071.023.165-.071.212-.071-.024-.165.023-.188-.071,0-.071-.047-.165.047-.188.071,0,.165-.047.212.047Z" transform="translate(-985.797 -281.307)" fill-rule="evenodd"/>
  <path id="Path_314" data-name="Path 314" d="M1008.454,334.63a.375.375,0,0,1-.165.471.414.414,0,0,1-.495-.165.385.385,0,0,1,.188-.471.375.375,0,0,1,.471.165Z" transform="translate(-986.425 -281.386)" fill-rule="evenodd"/>
  <path id="Path_315" data-name="Path 315" d="M1007.883,336.776c-.024.047-.024.141-.094.141-.047-.047-.142-.047-.142-.118,0-.188.212-.141.236-.024Z" transform="translate(-986.372 -282.401)" fill-rule="evenodd"/>
  <path id="Path_316" data-name="Path 316" d="M1009.725,337.185a.358.358,0,0,1-.282.377.383.383,0,0,1-.377-.283.343.343,0,0,1,.282-.377.358.358,0,0,1,.377.283Z" transform="translate(-987.014 -282.504)" fill-rule="evenodd"/>
  <path id="Path_317" data-name="Path 317" d="M1009.055,339.3c-.094.071-.235-.047-.141-.141.071-.094.212.047.141.141Z" transform="translate(-986.932 -283.514)" fill-rule="evenodd"/>
  <path id="Path_318" data-name="Path 318" d="M1010.9,339.637a.272.272,0,1,1-.283-.236.3.3,0,0,1,.283.236Z" transform="translate(-987.601 -283.637)" fill-rule="evenodd"/>
  <path id="Path_319" data-name="Path 319" d="M1010.293,341.691c-.071,0-.094-.024-.071-.094.071,0,.095.024.071.094Z" transform="translate(-987.535 -284.632)" fill-rule="evenodd"/>
  <path id="Path_320" data-name="Path 320" d="M1012.128,342.012a.237.237,0,0,1-.118.259.207.207,0,0,1-.236-.118.279.279,0,0,1,.095-.259c.118-.024.188.047.259.118Z" transform="translate(-988.239 -284.764)" fill-rule="evenodd"/>
  <path id="Path_321" data-name="Path 321" d="M1013.943,342.462a.388.388,0,0,1-.235.471.427.427,0,0,1-.471-.259.385.385,0,0,1,.259-.448.352.352,0,0,1,.447.236Z" transform="translate(-988.9 -284.908)" fill-rule="evenodd"/>
  <path id="Path_322" data-name="Path 322" d="M1013.34,344.561c.023.047,0,.094-.047.141-.047,0-.118,0-.141-.071-.047-.118.141-.189.188-.071Z" transform="translate(-988.862 -285.946)" fill-rule="evenodd"/>
  <path id="Path_323" data-name="Path 323" d="M1015.179,344.958c.024.118.024.283-.142.33-.118,0-.282,0-.329-.142,0-.141,0-.282.141-.329.142-.024.283-.024.33.141Z" transform="translate(-989.57 -286.085)" fill-rule="evenodd"/>
  <path id="Path_324" data-name="Path 324" d="M1014.542,347c0,.023-.023.048-.048.071a.05.05,0,0,1-.023-.094c.023,0,.047.024.071.024Z" transform="translate(-989.451 -287.069)" fill-rule="evenodd"/>
  <path id="Path_325" data-name="Path 325" d="M1016.327,347.609a.133.133,0,1,1-.188-.188c.118-.118.306.071.188.188Z" transform="translate(-990.2 -287.253)" fill-rule="evenodd"/>
  <path id="Path_326" data-name="Path 326" d="M1018.177,347.989a.336.336,0,0,1-.212.306.355.355,0,0,1-.33-.235.325.325,0,0,1,.236-.306.306.306,0,0,1,.306.236Z" transform="translate(-990.896 -287.42)" fill-rule="evenodd"/>
  <path id="Path_327" data-name="Path 327" d="M1017.575,350.007c.024.024,0,.024-.023.047-.047.023-.071-.047-.023-.071.023-.024.047,0,.047.024Z" transform="translate(-990.836 -288.426)" fill-rule="evenodd"/>
  <path id="Path_328" data-name="Path 328" d="M1019.4,350.517c-.047.047-.024.141-.118.141-.048-.047-.142-.023-.142-.118,0-.165.212-.142.259-.024Z" transform="translate(-991.579 -288.629)" fill-rule="evenodd"/>
  <path id="Path_329" data-name="Path 329" d="M1021.23,350.977a.332.332,0,0,1-.235.259c-.118.024-.236-.118-.259-.236,0-.118.141-.212.236-.235.118-.024.235.118.259.212Z" transform="translate(-992.3 -288.783)" fill-rule="evenodd"/>
  <path id="Path_330" data-name="Path 330" d="M1023.04,351.424a.344.344,0,0,1-.212.424.337.337,0,0,1-.424-.236.332.332,0,1,1,.636-.188Z" transform="translate(-993.051 -288.971)" fill-rule="evenodd"/>
  <path id="Path_331" data-name="Path 331" d="M1022.383,353.564c.023.023-.024.047-.047.071-.047.024-.071-.023-.094-.047,0-.071.118-.118.141-.023Z" transform="translate(-992.983 -290.028)" fill-rule="evenodd"/>
  <path id="Path_332" data-name="Path 332" d="M1024.214,354c-.024.071.023.165-.071.212-.071-.024-.165.023-.188-.071,0-.047-.047-.141.047-.188.07,0,.165-.024.212.047Z" transform="translate(-993.753 -290.225)" fill-rule="evenodd"/>
  <path id="Path_333" data-name="Path 333" d="M1026.019,354.563a.223.223,0,1,1-.283-.142.24.24,0,0,1,.283.142Z" transform="translate(-994.499 -290.437)" fill-rule="evenodd"/>
  <path id="Path_334" data-name="Path 334" d="M1027.864,355.049a.364.364,0,0,1-.235.377c-.165,0-.33-.071-.353-.235a.322.322,0,0,1,.212-.377.363.363,0,0,1,.377.235Z" transform="translate(-995.26 -290.618)" fill-rule="evenodd"/>
  <path id="Path_335" data-name="Path 335" d="M1029.655,355.513a.414.414,0,0,1-.212.471.445.445,0,0,1-.495-.212.43.43,0,0,1,.235-.495.4.4,0,0,1,.472.236Z" transform="translate(-996.014 -290.822)" fill-rule="evenodd"/>
  <path id="Path_336" data-name="Path 336" d="M1027.247,357.119c0,.024-.023.048-.023.071-.047,0-.094-.071-.047-.094.024,0,.047.024.071.024Z" transform="translate(-995.209 -291.651)" fill-rule="evenodd"/>
  <path id="Path_337" data-name="Path 337" d="M1029.057,357.635c0,.047.023.094-.024.118-.118.071-.141-.094-.094-.141.047.023.094-.024.118.023Z" transform="translate(-996.006 -291.885)" fill-rule="evenodd"/>
  <path id="Path_338" data-name="Path 338" d="M1037.974,357.894c-.094.024-.165.118-.235.189.094-.071-.259-.495.141-.33,0,.047.094.071.094.141Z" transform="translate(-999.977 -291.932)" fill-rule="evenodd"/>
  <path id="Path_339" data-name="Path 339" d="M1030.872,358.266c-.023.047-.023.141-.094.141-.047-.047-.141-.023-.141-.118,0-.165.212-.141.235-.023Z" transform="translate(-996.785 -292.139)" fill-rule="evenodd"/>
  <path id="Path_340" data-name="Path 340" d="M1039.8,358.5a1.013,1.013,0,0,0-.235.212c.118-.094-.236-.495.141-.353,0,.071.094.094.094.141Z" transform="translate(-1000.809 -292.211)" fill-rule="evenodd"/>
  <path id="Path_341" data-name="Path 341" d="M1032.685,358.759a.186.186,0,0,1-.118.188.177.177,0,0,1-.212-.094.19.19,0,0,1,.118-.212.206.206,0,0,1,.212.118Z" transform="translate(-997.561 -292.349)" fill-rule="evenodd"/>
  <path id="Path_342" data-name="Path 342" d="M1041.368,359.3c.118-.094-.236-.423.141-.4.33.212-.118.212-.141.4Z" transform="translate(-1001.628 -292.469)" fill-rule="evenodd"/>
  <path id="Path_343" data-name="Path 343" d="M1034.5,359.276c.024.118-.047.188-.118.259a.276.276,0,0,1-.259-.118.236.236,0,0,1,.118-.259c.118-.024.189.047.259.118Z" transform="translate(-998.359 -292.583)" fill-rule="evenodd"/>
  <path id="Path_344" data-name="Path 344" d="M1043.155,359.843c.165-.118-.306-.448.118-.424.283.165,0,.283-.118.424Z" transform="translate(-1002.425 -292.703)" fill-rule="evenodd"/>
  <path id="Path_345" data-name="Path 345" d="M1036.313,359.91a.215.215,0,0,1-.424.071.322.322,0,0,1,.165-.259.276.276,0,0,1,.259.189Z" transform="translate(-999.164 -292.84)" fill-rule="evenodd"/>
  <path id="Path_346" data-name="Path 346" d="M1038.122,360.408c0,.142,0,.259-.118.33-.118,0-.235,0-.306-.118,0-.118,0-.235.118-.306a.258.258,0,0,1,.306.094Z" transform="translate(-999.983 -293.103)" fill-rule="evenodd"/>
  <path id="Path_347" data-name="Path 347" d="M1039.934,361.029c-.023.118-.047.259-.189.283-.118-.023-.259-.071-.283-.188a.24.24,0,0,1,.472-.095Z" transform="translate(-1000.782 -293.347)" fill-rule="evenodd"/>
  <path id="Path_348" data-name="Path 348" d="M1041.733,361.623a.223.223,0,1,1-.283-.141.24.24,0,0,1,.283.141Z" transform="translate(-1001.616 -293.635)" fill-rule="evenodd"/>
  <path id="Path_349" data-name="Path 349" d="M1043.546,362.258a.226.226,0,0,1-.188.212.233.233,0,0,1-.236-.188.281.281,0,0,1,.188-.236.251.251,0,0,1,.236.212Z" transform="translate(-1002.439 -293.893)" fill-rule="evenodd"/>
  <path id="Path_350" data-name="Path 350" d="M1051.359,362.693a.382.382,0,0,1-.259.376.366.366,0,0,1-.4-.235.392.392,0,0,1,.259-.4.383.383,0,0,1,.4.259Z" transform="translate(-1005.871 -294.069)" fill-rule="evenodd"/>
  <path id="Path_351" data-name="Path 351" d="M1045.346,362.872c0,.095,0,.165-.094.212a.227.227,0,0,1-.236-.071c0-.094,0-.188.094-.236a.241.241,0,0,1,.236.094Z" transform="translate(-1003.297 -294.225)" fill-rule="evenodd"/>
  <path id="Path_352" data-name="Path 352" d="M1053.15,363.3c.023.118.023.283-.142.33-.118,0-.282,0-.329-.142,0-.141-.024-.282.141-.329.141-.023.283-.023.33.141Z" transform="translate(-1006.767 -294.391)" fill-rule="evenodd"/>
  <path id="Path_353" data-name="Path 353" d="M1047.066,363.624a.133.133,0,1,1-.188-.188c.118-.118.306.071.188.188Z" transform="translate(-1004.122 -294.506)" fill-rule="evenodd"/>
  <path id="Path_354" data-name="Path 354" d="M1054.951,363.976c-.024.094-.071.212-.165.212-.094-.023-.212-.071-.212-.165.024-.094.071-.212.188-.212.071.024.189.071.189.165Z" transform="translate(-1007.626 -294.693)" fill-rule="evenodd"/>
  <path id="Path_355" data-name="Path 355" d="M1048.877,364.193a.1.1,0,1,1-.141-.141c.071-.071.212.047.141.141Z" transform="translate(-1004.968 -294.792)" fill-rule="evenodd"/>
  <path id="Path_356" data-name="Path 356" d="M1056.691,364.681c.047.071-.071.165-.118.071-.071-.047,0-.141.07-.165.024,0,.048.046.048.094Z" transform="translate(-1008.518 -295.044)" fill-rule="evenodd"/>
  <path id="Path_357" data-name="Path 357" d="M1050.7,364.822c-.071.024-.118,0-.094-.071.071-.024.094,0,.094.071Z" transform="translate(-1005.827 -295.115)" fill-rule="evenodd"/>
  <path id="Path_358" data-name="Path 358" d="M1008.282,270.969c-2.068,0-5.241.881-5.241,4.672s3.173,4.672,5.241,4.672,4.541-.728,4.541-4.519S1010.344,270.969,1008.282,270.969Zm0,0c-2.068,0-5.241.881-5.241,4.672s3.173,4.672,5.241,4.672,4.541-.728,4.541-4.519S1010.344,270.969,1008.282,270.969Zm-1.236,19.181c-1.8,0-5.055.432-5.055,2.883,0,2.571,2.6,3.124,5.258,3.124,2.451,0,5.154-.843,5.154-2.861C1012.4,291.348,1010.651,290.15,1007.045,290.15Zm1.236-19.181c-2.068,0-5.241.881-5.241,4.672s3.173,4.672,5.241,4.672,4.541-.728,4.541-4.519S1010.344,270.969,1008.282,270.969Zm10.449-1.154v1.351h1.335A8.416,8.416,0,0,0,1018.731,269.815Zm21.659-1.953a.341.341,0,1,0-.656.186.377.377,0,0,0,.421.235A.341.341,0,0,0,1040.39,267.862Zm.049-.946c-.022-.044-.071-.022-.12-.022-.044.049-.022.186.1.142C1040.461,267.014,1040.44,266.965,1040.44,266.915Zm.542,1.182a.179.179,0,1,0,.142.328.179.179,0,0,0-.142-.328Zm.47.093c-.049-.12-.235-.049-.186.093a.16.16,0,0,0,.137.049C1041.452,268.283,1041.474,268.234,1041.452,268.19Zm-34.406,21.96c-1.8,0-5.055.432-5.055,2.883,0,2.571,2.6,3.124,5.258,3.124,2.451,0,5.154-.843,5.154-2.861C1012.4,291.348,1010.651,290.15,1007.045,290.15Zm34.406-21.96c-.049-.12-.235-.049-.186.093a.16.16,0,0,0,.137.049C1041.452,268.283,1041.474,268.234,1041.452,268.19Zm-.47-.093a.179.179,0,1,0,.142.328.179.179,0,0,0-.142-.328Zm-.542-1.182c-.022-.044-.071-.022-.12-.022-.044.049-.022.186.1.142C1040.461,267.014,1040.44,266.965,1040.44,266.915Zm-.049.946a.341.341,0,1,0-.656.186.377.377,0,0,0,.421.235A.341.341,0,0,0,1040.39,267.862Zm-21.659,1.953v1.351h1.335A8.416,8.416,0,0,0,1018.731,269.815Zm-10.449,1.154c-2.068,0-5.241.881-5.241,4.672s3.173,4.672,5.241,4.672,4.541-.728,4.541-4.519S1010.344,270.969,1008.282,270.969Zm-1.236,19.181c-1.8,0-5.055.432-5.055,2.883,0,2.571,2.6,3.124,5.258,3.124,2.451,0,5.154-.843,5.154-2.861C1012.4,291.348,1010.651,290.15,1007.045,290.15Zm1.236-19.181c-2.068,0-5.241.881-5.241,4.672s3.173,4.672,5.241,4.672,4.541-.728,4.541-4.519S1010.344,270.969,1008.282,270.969Zm9.519,19.706v.377h.317A4.838,4.838,0,0,0,1017.8,290.676Zm.93-20.861v1.351h1.335A8.416,8.416,0,0,0,1018.731,269.815Zm12.928,33.93.1-.635-2.084-.005-.487,3.02.952.005.186-1.122h1.072l.1-.635h-1.078l.1-.629Zm2.927-.624-.788,2.024h-.005l-.142-2.03h-1.45l-.487,3.02h.81l.367-2.27h.011l.213,2.27.925.005.99-2.27h.006l-.367,2.27h.881l.492-3.02Zm5.8-35.26a.341.341,0,1,0-.656.186.377.377,0,0,0,.421.235A.341.341,0,0,0,1040.39,267.862Zm.049-.946c-.022-.044-.071-.022-.12-.022-.044.049-.022.186.1.142C1040.461,267.014,1040.44,266.965,1040.44,266.915Zm.542,1.182a.179.179,0,1,0,.142.328.179.179,0,0,0-.142-.328Zm.47.093c-.049-.12-.235-.049-.186.093a.16.16,0,0,0,.137.049C1041.452,268.283,1041.474,268.234,1041.452,268.19ZM1017.8,290.676v.377h.317A4.838,4.838,0,0,0,1017.8,290.676Zm-10.756-.525c-1.8,0-5.055.432-5.055,2.883,0,2.571,2.6,3.124,5.258,3.124,2.451,0,5.154-.843,5.154-2.861C1012.4,291.348,1010.651,290.15,1007.045,290.15Zm27.54,12.971-.788,2.024h-.005l-.142-2.03h-1.45l-.487,3.02h.81l.367-2.27h.011l.213,2.27.925.005.99-2.27h.006l-.367,2.27h.881l.492-3.02Zm-2.927.624.1-.635-2.084-.005-.487,3.02.952.005.186-1.122h1.072l.1-.635h-1.078l.1-.629Zm9.793-35.555c-.049-.12-.235-.049-.186.093a.16.16,0,0,0,.137.049C1041.452,268.283,1041.474,268.234,1041.452,268.19Zm-.47-.093a.179.179,0,1,0,.142.328.179.179,0,0,0-.142-.328Zm-.662-1.2c-.044.049-.022.186.1.142.044-.022.022-.071.022-.12C1040.418,266.872,1040.368,266.894,1040.319,266.894Zm-.35.728a.338.338,0,0,0-.235.427.377.377,0,0,0,.421.235.341.341,0,0,0,.235-.421A.337.337,0,0,0,1039.969,267.621Zm-21.238,2.194v1.351h1.335A8.416,8.416,0,0,0,1018.731,269.815Zm-10.449,1.154c-2.068,0-5.241.881-5.241,4.672s3.173,4.672,5.241,4.672,4.541-.728,4.541-4.519S1010.344,270.969,1008.282,270.969Zm37.24,14.071h-8.89V273.6h7.479V264.18H1016.3v1.581s-1.324-1.581-7.922-1.581c-7.309,0-10.652,2.637-10.652,2.637v-2.462H986.141v5.9H983.46v-5.9H968.848l-.088,21.823H983.5v-6.685h2.6v6.691H997.81s-5.547,1.762-5.547,7.129c0,3.348,1.849,4.492,1.849,4.492H992.35s.618,3.786,1.5,5.192,3.611,4.579,12.939,4.579c9.355,0,12.889-4.01,13.759-5.263-.673,1.433-.821,5.175-.821,5.175h7.572s.968,3.168,5.635,3.168a5.976,5.976,0,0,0,5.739-6.1,5.91,5.91,0,0,0-3.009-5.345,33.155,33.155,0,0,1,9.858-6.778Zm-50.343-7.506v6.308h-6.592V277.1h-7.26c-.1.306-.186.618-.268.93v5.816h-9.705v-17.02h9.705v5.914h7.528v-5.914h6.592v6.926c1.138-4.185,6.111-7.019,13.1-7.019,4.464,0,8.1,1.154,10.449,3.086v-3.009H1039.3a.241.241,0,0,0,.153.016.05.05,0,0,0,.038-.016h1.072a.161.161,0,0,0-.027.159.181.181,0,0,0,.356-.071.116.116,0,0,0-.033-.088h.744v.082a.068.068,0,0,0-.033.005.407.407,0,0,0-.208.47.412.412,0,0,0,.241.23v1.751h-.005a.412.412,0,0,0-.142.35.693.693,0,0,0,.148.109v1.362h-7.375v12.66h-9.815v-12.66h-4.344a7.139,7.139,0,0,1,1.565,4.475c0,5.2-5.345,8.918-13.349,8.918C1001.29,284.559,996.317,281.72,995.179,277.534Zm41.6,27.015a4.226,4.226,0,1,1-4.218-4.234A4.231,4.231,0,0,1,1036.78,304.55Zm6.127-13.88c-2.3,1.2-7.008,3.884-10.088,7.758h-.58c-3.562,0-5.81,2.752-5.81,6.417h-3.7c.75-6.822,9.661-12.255,12.665-13.792h-17.277a7.919,7.919,0,0,1,1.494,5.1c0,6.6-6.51,8.742-12.917,8.742-6.056,0-10.411-1.68-11.013-4.393h6.959v.022c.4,1.176,1.953,1.68,4.1,1.68,2.905,0,5.81-1.176,5.859-4.754l-.1-.049c-1.6,1.154-4.355,1.444-6.762,1.444-6.806,0-10.761-2.478-10.761-5.334,0-4.185,5.154-6.127,12.112-6.127,5.947,0,9.065,1.483,10.707,3.288v-2.982h25.106Zm-1.455-22.48c-.049-.12-.235-.049-.186.093a.16.16,0,0,0,.137.049C1041.452,268.283,1041.474,268.234,1041.452,268.19Zm-.328.235a.179.179,0,0,0-.142-.328.179.179,0,1,0,.142.328Zm-.706-1.39c.044-.022.022-.071.022-.12-.022-.044-.071-.022-.12-.022C1040.275,266.943,1040.3,267.08,1040.418,267.036Zm-.263,1.247a.341.341,0,0,0,.235-.421.341.341,0,1,0-.656.186A.377.377,0,0,0,1040.155,268.283Zm-6.357,36.863h-.005l-.142-2.03h-1.45l-.487,3.02h.81l.367-2.27h.011l.213,2.27.925.005.99-2.27h.006l-.367,2.27h.881l.492-3.02h-1.455Zm-2.139-1.4.1-.635-2.084-.005-.487,3.02.952.005.186-1.122h1.072l.1-.635h-1.078l.1-.629Zm-11.593-32.579a8.416,8.416,0,0,0-1.335-1.351v1.351Zm-2.265,19.887h.317a4.838,4.838,0,0,0-.317-.377Zm-4.979-15.258c0-3.786-2.478-4.825-4.541-4.825s-5.241.881-5.241,4.672,3.173,4.672,5.241,4.672S1012.823,279.586,1012.823,275.795Zm-5.777,14.356c-1.8,0-5.055.432-5.055,2.883,0,2.571,2.6,3.124,5.258,3.124,2.451,0,5.154-.843,5.154-2.861C1012.4,291.348,1010.651,290.15,1007.045,290.15Zm1.236-19.181c-2.068,0-5.241.881-5.241,4.672s3.173,4.672,5.241,4.672,4.541-.728,4.541-4.519S1010.344,270.969,1008.282,270.969Zm10.449-1.154v1.351h1.335A8.416,8.416,0,0,0,1018.731,269.815Zm21.659-1.953a.341.341,0,1,0-.656.186.377.377,0,0,0,.421.235A.341.341,0,0,0,1040.39,267.862Zm.049-.946c-.022-.044-.071-.022-.12-.022-.044.049-.022.186.1.142C1040.461,267.014,1040.44,266.965,1040.44,266.915Zm.542,1.182a.179.179,0,1,0,.142.328.179.179,0,0,0-.142-.328Zm.47.093c-.049-.12-.235-.049-.186.093a.16.16,0,0,0,.137.049C1041.452,268.283,1041.474,268.234,1041.452,268.19Zm-34.406,21.96c-1.8,0-5.055.432-5.055,2.883,0,2.571,2.6,3.124,5.258,3.124,2.451,0,5.154-.843,5.154-2.861C1012.4,291.348,1010.651,290.15,1007.045,290.15Zm10.756.525v.377h.317A4.838,4.838,0,0,0,1017.8,290.676Zm23.651-22.485c-.049-.12-.235-.049-.186.093a.16.16,0,0,0,.137.049C1041.452,268.283,1041.474,268.234,1041.452,268.19Zm-.47-.093a.179.179,0,1,0,.142.328.179.179,0,0,0-.142-.328Zm-.542-1.182c-.022-.044-.071-.022-.12-.022-.044.049-.022.186.1.142C1040.461,267.014,1040.44,266.965,1040.44,266.915Zm-.049.946a.341.341,0,1,0-.656.186.377.377,0,0,0,.421.235A.341.341,0,0,0,1040.39,267.862Zm-21.659,1.953v1.351h1.335A8.416,8.416,0,0,0,1018.731,269.815Zm-.93,20.861v.377h.317A4.838,4.838,0,0,0,1017.8,290.676Zm-9.519-19.706c-2.068,0-5.241.881-5.241,4.672s3.173,4.672,5.241,4.672,4.541-.728,4.541-4.519S1010.344,270.969,1008.282,270.969Zm-1.236,19.181c-1.8,0-5.055.432-5.055,2.883,0,2.571,2.6,3.124,5.258,3.124,2.451,0,5.154-.843,5.154-2.861C1012.4,291.348,1010.651,290.15,1007.045,290.15Zm1.236-19.181c-2.068,0-5.241.881-5.241,4.672s3.173,4.672,5.241,4.672,4.541-.728,4.541-4.519S1010.344,270.969,1008.282,270.969Zm10.449-1.154v1.351h1.335A8.416,8.416,0,0,0,1018.731,269.815Zm21.659-1.953a.341.341,0,1,0-.656.186.377.377,0,0,0,.421.235A.341.341,0,0,0,1040.39,267.862Zm.049-.946c-.022-.044-.071-.022-.12-.022-.044.049-.022.186.1.142C1040.461,267.014,1040.44,266.965,1040.44,266.915Zm.542,1.182a.179.179,0,1,0,.142.328.179.179,0,0,0-.142-.328Zm.47.093c-.049-.12-.235-.049-.186.093a.16.16,0,0,0,.137.049C1041.452,268.283,1041.474,268.234,1041.452,268.19Zm0,0c-.049-.12-.235-.049-.186.093a.16.16,0,0,0,.137.049C1041.452,268.283,1041.474,268.234,1041.452,268.19Zm-.47-.093a.179.179,0,1,0,.142.328.179.179,0,0,0-.142-.328Zm-.542-1.182c-.022-.044-.071-.022-.12-.022-.044.049-.022.186.1.142C1040.461,267.014,1040.44,266.965,1040.44,266.915Zm-.049.946a.341.341,0,1,0-.656.186.377.377,0,0,0,.421.235A.341.341,0,0,0,1040.39,267.862Zm-21.659,1.953v1.351h1.335A8.416,8.416,0,0,0,1018.731,269.815Zm-10.449,1.154c-2.068,0-5.241.881-5.241,4.672s3.173,4.672,5.241,4.672,4.541-.728,4.541-4.519S1010.344,270.969,1008.282,270.969Z" transform="translate(-968.76 -249.569)" fill-rule="evenodd"/>
  <path id="Path_359" data-name="Path 359" d="M1058.717,312.987h-.317v-.378A4.814,4.814,0,0,1,1058.717,312.987Z" transform="translate(-1009.359 -271.503)" fill-rule="evenodd"/>
  <path id="Path_360" data-name="Path 360" d="M1061.435,275.831H1060.1V274.48A8.411,8.411,0,0,1,1061.435,275.831Z" transform="translate(-1010.129 -254.234)" fill-rule="evenodd"/>
  <path id="Path_361" data-name="Path 361" d="M1097.69,268.98h.192a.05.05,0,0,1-.038.016A.24.24,0,0,1,1097.69,268.98Z" transform="translate(-1027.154 -251.743)" fill-rule="evenodd"/>
  <path id="Path_362" data-name="Path 362" d="M1099.136,270.7a.341.341,0,0,1-.235.421.378.378,0,0,1-.421-.235.341.341,0,1,1,.656-.186Z" transform="translate(-1027.505 -252.409)" fill-rule="evenodd"/>
  <path id="Path_363" data-name="Path 363" d="M1099.663,269.157c0,.049.022.1-.022.12-.12.044-.142-.093-.1-.142C1099.592,269.135,1099.641,269.114,1099.663,269.157Z" transform="translate(-1027.984 -251.811)" fill-rule="evenodd"/>
  <path id="Path_364" data-name="Path 364" d="M1100.156,269.281a.154.154,0,0,1-.213-.142.16.16,0,0,1,.027-.159h.3a.116.116,0,0,1,.033.088A.154.154,0,0,1,1100.156,269.281Z" transform="translate(-1028.17 -251.743)" fill-rule="evenodd"/>
  <path id="Path_365" data-name="Path 365" d="M1100.928,271.433a.243.243,0,0,1-.093.235.179.179,0,1,1-.142-.328A.243.243,0,0,1,1100.928,271.433Z" transform="translate(-1028.472 -252.811)" fill-rule="evenodd"/>
  <path id="Path_366" data-name="Path 366" d="M1101.42,271.6a.16.16,0,0,1-.137-.049c-.049-.142.137-.213.186-.093C1101.491,271.5,1101.469,271.552,1101.42,271.6Z" transform="translate(-1028.778 -252.838)" fill-rule="evenodd"/>
  <path id="Path_367" data-name="Path 367" d="M1101.69,269.13v.706a.412.412,0,0,1-.241-.23.407.407,0,0,1,.208-.47A.07.07,0,0,1,1101.69,269.13Z" transform="translate(-1028.85 -251.811)" fill-rule="evenodd"/>
  <path id="Path_368" data-name="Path 368" d="M1101.77,273.62h.005v.46a.69.69,0,0,1-.148-.109A.412.412,0,0,1,1101.77,273.62Z" transform="translate(-1028.936 -253.844)" fill-rule="evenodd"/>
  <path id="Path_369" data-name="Path 369" d="M1060.1,274.48v1.351h1.335A8.411,8.411,0,0,0,1060.1,274.48Z" transform="translate(-1010.129 -254.234)" fill-rule="evenodd"/>
  <path id="Path_370" data-name="Path 370" d="M1058.4,312.61v.378h.317A4.814,4.814,0,0,0,1058.4,312.61Z" transform="translate(-1009.359 -271.503)" fill-rule="evenodd"/>
  <path id="Path_371" data-name="Path 371" d="M1034.012,353.023l-.023-.047h.047l-.023.047Z" transform="translate(-998.303 -289.785)" fill-rule="evenodd"/>
  <path id="Path_372" data-name="Path 372" d="M1035.781,353.512h.023v-.023h-.023v.023Z" transform="translate(-999.115 -290.018)" fill-rule="evenodd"/>
</svg>
