<svg xmlns="http://www.w3.org/2000/svg" width="300" height="300" viewBox="0 0 300 300">
  <g id="Group_4092" data-name="Group 4092" transform="translate(16935 21232)">
    <rect id="Rectangle_1793" data-name="Rectangle 1793" width="300" height="300" transform="translate(-16935 -21232)" fill="#682ace"/>
    <path id="Although_this_is_wel" data-name="Although this is wel" d="M191.542,44.877,183.309,31.01c-63.7,32.5-74.533,58.933-77.567,82.333-2.6,19.067,10.833,34.667,29.9,34.667s36.833-15.6,39.433-34.667c2.167-15.6-6.933-29.033-20.367-33.367C159.475,67.843,175.942,53.543,191.542,44.877Zm-91.867,0L91.442,31.01c-63.7,32.5-74.533,58.933-77.567,82.333-2.6,19.067,10.833,34.667,29.9,34.667s36.833-15.6,39.433-34.667c2.167-15.6-6.933-29.033-20.367-33.367C67.609,67.843,84.075,53.543,99.675,44.877Z" transform="translate(-16893.377 -21172.979)" fill="#fff"/>
  </g>
</svg>
