<svg id="Layer_1" data-name="Layer 1" xmlns="http://www.w3.org/2000/svg" viewBox="0 0 193.7 54.82"><defs><style>.cls-1{fill:#fff;}</style></defs><path class="cls-1" d="M51.67,28.66A5.41,5.41,0,0,0,52.28,32c.94,1.75,2.78,3.22,4.83,2.56,1.89-.61,3.52-2.21,5-3.49.27-.23.51-.48.76-.72a4.13,4.13,0,0,0,.15.5,4.94,4.94,0,0,0,2.74,3c1.29.43,2.37-.32,3.26-1.21a58.09,58.09,0,0,0,4.24-4.76l-.68,2.69a3.07,3.07,0,0,0,1.06,2.62c.35.36,1.56,1.36,1.94.5A36.62,36.62,0,0,1,80,25.88a36,36,0,0,1,2.75-3.18c.16-.17.76-.85,1.41-1.48-.05.19-.1.37-.16.56a27.81,27.81,0,0,1-1.47,3.41c-1,2-2.6,4.59-1.68,6.88a4.46,4.46,0,0,0,3,2.78c1.17.16,2.16-.67,3-1.37A34.94,34.94,0,0,0,90.38,30c0,.1,0,.2,0,.3.42,1.63,1.75,3.49,3.49,3.85s3-1.17,4-2.23S100,29.68,101,28.49a7.28,7.28,0,0,0,.67,3.41c.55,1.12,1.75,2.77,3.18,2.71,1.24,0,2.15-1.4,2.92-2.22.43-.45.84-.92,1.26-1.38,0,.09,0,.18,0,.27a5.6,5.6,0,0,0,3.52,3.93A4.48,4.48,0,0,0,116.68,34a40.71,40.71,0,0,0,3.88-3.56,4.62,4.62,0,0,0,2.79,3.2c1.29.34,2.29-.76,3.16-1.55a26,26,0,0,0,7.54-12.7c.17.11.33.24.51.35a14.57,14.57,0,0,0,1.81.79l0,0c-.24.62-.53,1.44-.58,1.57-.35.75-.72,1.47-1.09,2.21a21,21,0,0,0-1.89,4.7,4.75,4.75,0,0,0,1,4.44,2.6,2.6,0,0,0,3.83.64A28.81,28.81,0,0,0,143,30a5.46,5.46,0,0,0,2.86,3c2.45,1,4.21-1.07,5.61-3-.43,1.08-.86,2.16-1.31,3.25-.66.26-1.32.53-2,.83a38.48,38.48,0,0,0-6.51,3.86c-1.84,1.35-4.06,2.88-5.07,5-1.1,2.3.24,5,2.14,6.39a5,5,0,0,0,6,0c4.15-2.73,6.19-7.88,8.07-12.25l.12-.27a27,27,0,0,1,11.78-1.73c1,.08.27-1.68.09-2a3.13,3.13,0,0,0-2.21-1.77,25.8,25.8,0,0,0-7.6.51q2.49-6.25,4.58-12.66c.38-1.16-1.94-4.52-3-3.11l-5.22,6.92-2.53,3.37a10.52,10.52,0,0,1-2.54,2.86l-.17.06a.64.64,0,0,0,0-.07c.41-1.21.88-2.4,1.39-3.58a52.49,52.49,0,0,1,3.78-7.2c.7-1.14-2.12-4.42-3-3.08a53.31,53.31,0,0,0-4.47,8.86c-.49-.37-1-.52-1.22-.21a30.7,30.7,0,0,1-4.09,4.13c-.56.46-1.14.89-1.73,1.3.18-.39.36-.78.55-1.17A33.42,33.42,0,0,0,139.73,23c.59-2.05-.7-4-2.42-5a12.48,12.48,0,0,0-2.1-1c-.28-.11-.55-.21-.82-.33a2,2,0,0,1-.42-.24,4,4,0,0,0-1.27-1.38c-.28-.18-1.21-.64-1.34,0a25.11,25.11,0,0,1-5.22,11.11c-.57.67-1.17,1.32-1.8,1.93.26-1,.51-2,.77-3s-1.93-4.58-3-3.12a47.72,47.72,0,0,1-6.48,7.14c-.94.84-2.1,2.08-3.39,2.4a16.37,16.37,0,0,1,.65-1.9,18.26,18.26,0,0,1,4.92-6.92,12.54,12.54,0,0,1,3.6-2.34,4.89,4.89,0,0,1,2.24-.35c.22,0,.59.24.82.27a3.52,3.52,0,0,0,1.8,2c.67.24,1.1-.15.91-.88-.8-3.19-4-5.84-7.41-4.92-3.08.84-5.66,3.38-7.51,5.87l-.4.56c-.49-.37-1-.52-1.23-.21-1.34,1.56-2.71,3.11-4.1,4.63-.72.78-1.44,1.56-2.17,2.33l-.17.15a29.54,29.54,0,0,1,.8-4.25,33.61,33.61,0,0,1,2.1-5.84c.56-1.2-2.18-4.47-3-3.09a55.6,55.6,0,0,1-4.71,7,42.59,42.59,0,0,1-5.51,6,3.79,3.79,0,0,1-.39.31c.17-.91.45-1.81.67-2.69.75-3,1.64-5.94,2.65-8.85.3-.89-.47-2-1-2.59-.31-.31-1.61-1.37-1.91-.49q-1.55,4.42-2.69,9c-.55-.47-1.1-.69-1.38-.35a44.39,44.39,0,0,1-4.32,4.78l-.29.28c1.3-2.73,2.76-5.45,2.32-8.58-.24-1.71-1.73-4.48-3.85-4.11a4.39,4.39,0,0,0-2,1.31c-.83.76-1.61,1.56-2.37,2.39-.16.18-.31.37-.47.56.14-.57.27-1.14.42-1.71.27-1.09-2.1-4.55-3-3A62.85,62.85,0,0,1,69,26.15c-.67.78-1.35,1.53-2.06,2.27l-.58.61.77-3.15a2.92,2.92,0,0,0-.86-2.39c-.28-.32-1.45-1.51-2-.94a49.54,49.54,0,0,1-6.23,6.06,10.73,10.73,0,0,1-3.31,2.23,10.06,10.06,0,0,1,.37-1.18,14.67,14.67,0,0,1,4.18-6,15.52,15.52,0,0,1,3-2.05,14.38,14.38,0,0,1,1.71-.76,5.41,5.41,0,0,1,1.11-.32l.41-.06a4.31,4.31,0,0,0,1.12,1.32c.49.37,1.49.79,1.54-.18a5,5,0,0,0-3.9-4.76c-1.79-.3-3.93.76-5.43,1.65-2.3,1.37-7.28,5.62-7.28,10.19m94.25,13A12.78,12.78,0,0,1,141.55,46a3.74,3.74,0,0,1-2.11.42c0-.07,0-.11,0-.09a4.63,4.63,0,0,1,.83-1.4,23.78,23.78,0,0,1,4.9-4.09c.65-.45,1.32-.87,2-1.28C146.78,40.31,146.37,41,145.92,41.7Z"/><path class="cls-1" d="M56.45,10.17c1.06-1.1-1.2-3.68-2.39-3.65a23.1,23.1,0,0,0-12.45,4,13.87,13.87,0,0,0-4.5,4.32c-1.19,2.21.12,4.59,1.79,6.09.46.42,1.29.72,1.52,0a2.56,2.56,0,0,0-.69-2l.05-.3a3.17,3.17,0,0,1,.67-1.22,12.78,12.78,0,0,1,1.72-1.73,22,22,0,0,1,4.16-2.87,21.27,21.27,0,0,1,4.43-1.75,48.88,48.88,0,0,0-2.29,5.66A44.31,44.31,0,0,1,45,24.5,41.9,41.9,0,0,0,36.54,26a14.62,14.62,0,0,0-6.34,3.2c-1.77,1.79-1.45,4.08-.05,6A5.89,5.89,0,0,0,36,37.78a14.73,14.73,0,0,0,6.19-3.31,25.49,25.49,0,0,0,5.39-6.22,55.87,55.87,0,0,1,7.32,0c1,.06.27-1.67.09-2a3.12,3.12,0,0,0-2.22-1.77c-1-.07-2.06-.1-3.09-.12l.18-.37C51.92,19.35,52.81,13.94,56.45,10.17ZM34.08,34a4.78,4.78,0,0,1-1.6.13,1.41,1.41,0,0,1-.33-.11,1.63,1.63,0,0,1,.11-.42,3.6,3.6,0,0,1,1-1.2,15.35,15.35,0,0,1,5.8-2.74c.81-.22,1.64-.4,2.47-.57C39.49,31.28,36.87,33.33,34.08,34Z"/></svg>