<svg id="Layer_1" data-name="Layer 1" xmlns="http://www.w3.org/2000/svg" viewBox="0 0 193.7 54.82"><defs><style>.cls-1{fill:#fff;}</style></defs><path class="cls-1" d="M77.05,29.21a4.06,4.06,0,0,0,.45,3.58,4.25,4.25,0,0,0,4,2.24c2.77-.21,4.55-2.8,6-4.86l.15-.22a5,5,0,0,0,0,.55,5.22,5.22,0,0,0,2,3.56c2.11,1.64,4.69-.06,6.2-1.7A60.68,60.68,0,0,0,100,27.11c0,.09,0,.19-.08.28-.79,2.76-.6,5.57,1.84,7.48,2.85,2.24,6.58-1,8.84-2.72.81-.63,1.58-1.31,2.33-2a5.56,5.56,0,0,0,3,4.88c1.53.75,2.94,0,4.07-1.06A45,45,0,0,0,123.46,30c.78-1,1.53-1.94,2.27-2.93a42.85,42.85,0,0,1-1.6,6.8,35,35,0,0,0-12.6,9.51c-1.69,2.06-.85,4.48,1.15,6.07s4.15.71,6-.59a22.76,22.76,0,0,0,8-10.64c.11-.27.19-.54.29-.81a36.66,36.66,0,0,1,10.28-2.92c1.48-.19-.72-4-2.14-3.79a38.31,38.31,0,0,0-6.7,1.5,94.32,94.32,0,0,0,1.39-11.46c.08-1-2.19-4.28-3.07-2.81a71.61,71.61,0,0,1-4.84,7.1c-.87,1.11-1.76,2.19-2.69,3.25a15.69,15.69,0,0,1-2.8,2.84l-.37.22a16.58,16.58,0,0,1,1-3.09,42.56,42.56,0,0,1,3.88-7.68c.7-1.11-2.06-4.37-2.93-3.05s-1.64,2.65-2.36,4a.8.8,0,0,0-1,.2,33.79,33.79,0,0,1-10,9.14,10.29,10.29,0,0,1-1.46.79c-.07,0-.3.07-.52.12a11.26,11.26,0,0,1,.43-1.71c.5-1.74,1.06-3.45,1.67-5.15,3.93-.46,7.66-4.07,10.18-7,1.8-2.1,3.86-5,3.55-7.93-.25-2.38-3-6.33-5.82-4.89A12.36,12.36,0,0,0,109.48,8a32.18,32.18,0,0,0-2.61,3.31A40.63,40.63,0,0,0,102.76,19c-.33.8-.64,1.61-.94,2.42a4,4,0,0,1-2.2-.67c-.64-.43-1.19-.08-1.15.64a2.33,2.33,0,0,0,.1.5c-1.35,1.75-2.69,3.51-4,5.27a12.07,12.07,0,0,1-3.36,3.32c.27-.89.55-1.77.82-2.66q1-3.45,2.09-6.92c.34-1.14-2-4.53-3-3.09l-6.3,8.86A18.39,18.39,0,0,1,82,30a5.93,5.93,0,0,1-1.45,1h0c.09-.19.17-.38.25-.57l1.26-2.95,2.63-6.12c.43-1-2.37-4.64-3.9-3.11C79.36,22.52,77.05,29.21,77.05,29.21Zm34.39-17c.64-.76,1.31-1.49,2-2.18.37-.35.74-.72,1.14-1a2.5,2.5,0,0,1,.57-.39.83.83,0,0,1,.21-.06,24.58,24.58,0,0,1-1,2.78,15.89,15.89,0,0,1-2,3,31.78,31.78,0,0,1-5.33,4.9A34.08,34.08,0,0,1,111.44,12.21Zm3.87,33.55.35-.37a36,36,0,0,1,4.4-3.87c-.19.23-.37.47-.57.7A17.94,17.94,0,0,1,115.31,45.76Z"/><path class="cls-1" d="M81.79,10c1.06-1.09-1.19-3.68-2.38-3.65a23.14,23.14,0,0,0-12.46,4,13.94,13.94,0,0,0-4.49,4.32c-1.19,2.21.12,4.59,1.79,6.1.45.41,1.29.72,1.52,0a2.58,2.58,0,0,0-.7-2l.05-.3a3.65,3.65,0,0,1,.67-1.22,12.3,12.3,0,0,1,1.73-1.73,22,22,0,0,1,4.16-2.87A21.15,21.15,0,0,1,76.1,10.9a50.51,50.51,0,0,0-2.28,5.65,43.31,43.31,0,0,1-3.5,7.79,41.93,41.93,0,0,0-8.43,1.48A14.67,14.67,0,0,0,55.55,29c-1.78,1.79-1.46,4.08-.06,6a5.92,5.92,0,0,0,5.85,2.59,14.9,14.9,0,0,0,6.2-3.32,26.07,26.07,0,0,0,5.39-6.21,54.19,54.19,0,0,1,7.32,0c1,.07.27-1.67.08-2a3.11,3.11,0,0,0-2.22-1.77c-1-.07-2-.1-3.08-.12,0-.12.12-.24.17-.37C77.26,19.19,78.16,13.78,81.79,10ZM59.43,33.81a4.55,4.55,0,0,1-1.6.13,2.05,2.05,0,0,1-.34-.1,1.62,1.62,0,0,1,.12-.43,3.67,3.67,0,0,1,1-1.2,15.19,15.19,0,0,1,5.8-2.73c.82-.22,1.64-.41,2.47-.58C64.84,31.12,62.22,33.17,59.43,33.81Z"/></svg>