<svg id="Layer_1" data-name="Layer 1" xmlns="http://www.w3.org/2000/svg" viewBox="0 0 193.7 54.82"><defs><style>.cls-1{fill:#fff;}</style></defs><path class="cls-1" d="M80.14,34a4,4,0,0,0,.52,2.25,4.41,4.41,0,0,0,3.28,2.42c2.71.2,4.74-2.62,6.16-4.53l.57-.79c.2,2.22,1.56,4.62,3.84,5,1.73.27,3.32-1,4.6-2.4.33,1.42,2.28,3.64,2.94,2.42a40.15,40.15,0,0,1,7.23-9.6c.67-.64,1.35-1.26,2-1.86l.41-.33c0,.17-.09.34-.14.51-.29.94-.66,1.85-1,2.76a24.93,24.93,0,0,0-1.65,5.31A4.58,4.58,0,0,0,111.27,40a1.73,1.73,0,0,0,2-.4c.86-.74,1.65-1.61,2.46-2.41l2.11-2.07A8,8,0,0,0,119.3,37a6,6,0,0,0,5.85,1.5,16.18,16.18,0,0,0,6.21-3.78,30.52,30.52,0,0,0,5.52-5.78c.62-1-1.76-4.06-2.7-3.2-1.37,1.27-2.55,2.76-3.91,4.05a32.55,32.55,0,0,1-4.21,3.48A8.65,8.65,0,0,1,121.63,35a7.61,7.61,0,0,1-1.46-.17c0-.17,0-.32-.06-.49a6,6,0,0,1,.12-1.47h0c4.28,1.13,8.42-1.34,10.22-5.23a8.87,8.87,0,0,0,.88-2.93,5,5,0,0,0-2-4.09c-1.9-1.52-4.19-.75-6,.42a14.62,14.62,0,0,0-6,8.58L113.85,33l-.52.51a38.45,38.45,0,0,0,1.35-3.72,7.94,7.94,0,0,0,.35-4.12,4.85,4.85,0,0,0-3.29-3.56c-1.45-.28-2.7,1-3.68,1.87-.28.25-.55.51-.82.77-.07-1.36-2.14-3.83-3-2.63-1.54,2.12-3.1,4.24-4.66,6.35a27.56,27.56,0,0,1-4.17,5,7.42,7.42,0,0,1-1.31.9l-.23.11a11,11,0,0,1,.2-1.24q.92-3.76,2.16-7.45c.38-1.14-1.94-4.45-2.95-3.06l-4.51,6.21c-1.39,1.9-2.71,4-4.66,5.38-.13.09-.26.18-.4.26.17-.47.33-.93.52-1.39a29.2,29.2,0,0,1,2.35-4.59,20.46,20.46,0,0,0,1.37-2c.65-1.08-1.92-4.23-2.86-3-.38.52-4,5.09-4.93,10.44m43.59-7.77a10.7,10.7,0,0,1,3.62-2.59c.22-.09.44-.17.67-.24a7.78,7.78,0,0,1-.39,1.05,8.47,8.47,0,0,1-6.08,4.92A13.67,13.67,0,0,1,123.73,26.26Z"/><path class="cls-1" d="M83.75,15.93c1.06-1.1-1.19-3.68-2.38-3.66a23.31,23.31,0,0,0-12.46,4,14,14,0,0,0-4.49,4.32c-1.19,2.21.12,4.6,1.79,6.1.45.41,1.29.72,1.52,0a2.55,2.55,0,0,0-.7-2l0-.3a3.46,3.46,0,0,1,.67-1.22,12.3,12.3,0,0,1,1.73-1.73,22,22,0,0,1,4.16-2.88,21.72,21.72,0,0,1,4.42-1.74,49.91,49.91,0,0,0-2.28,5.66,43.63,43.63,0,0,1-3.5,7.79,41.91,41.91,0,0,0-8.43,1.47c-2.21.64-4.7,1.54-6.34,3.21s-1.46,4.08-.06,6a5.92,5.92,0,0,0,5.85,2.59,14.77,14.77,0,0,0,6.2-3.31A26.12,26.12,0,0,0,74.89,34a54.18,54.18,0,0,1,7.32,0c1,.06.27-1.68.08-2a3.12,3.12,0,0,0-2.22-1.78c-1-.06-2-.1-3.08-.11.05-.13.12-.25.17-.37C79.22,25.11,80.12,19.7,83.75,15.93ZM61.39,39.72a4.56,4.56,0,0,1-1.6.14,1.9,1.9,0,0,1-.34-.11,2.47,2.47,0,0,1,.11-.43,3.79,3.79,0,0,1,1-1.19,15.21,15.21,0,0,1,5.8-2.74c.82-.22,1.64-.4,2.47-.57C66.79,37,64.18,39.09,61.39,39.72Z"/></svg>