<svg xmlns="http://www.w3.org/2000/svg" width="355.414" height="160.959" viewBox="0 0 355.414 160.959"><g transform="translate(-316.47 -293.417)"><g transform="translate(436.106 346.541)"><g transform="translate(0 25.239)"><line x2="25.609" transform="translate(0 2.114)" fill="#ff7051"/><rect width="25.609" height="4.226" fill="#2b206a"/></g><g transform="translate(79.788 25.239)"><line x2="25.609" transform="translate(0 2.114)" fill="#ff7051"/><rect width="25.609" height="4.226" transform="translate(0.001)" fill="#2b206a"/></g><g transform="translate(23.497)"><path d="M402.877,370.246a27.058,27.058,0,0,1,0-50.747" transform="translate(-383.103 -317.517)" fill="#fff"/><path d="M403.259,373.272a29.17,29.17,0,0,1,0-54.711l1.462,3.964a24.944,24.944,0,0,0,0,46.781Z" transform="translate(-384.216 -318.561)" fill="#2b206a"/></g><g transform="translate(61.388)"><path d="M402.5,319.5a27.057,27.057,0,0,1,0,50.747" transform="translate(-401.765 -317.517)" fill="#fff"/><path d="M403.612,373.272l-1.462-3.966a24.944,24.944,0,0,0,0-46.781l1.462-3.964a29.17,29.17,0,0,1,0,54.711Z" transform="translate(-402.15 -318.561)" fill="#2b206a"/></g><g transform="translate(40.351 15.005)"><rect width="4.225" height="30.698" transform="matrix(0.707, -0.707, 0.707, 0.707, 0.001, 2.987)" fill="#ff7051"/><rect width="30.698" height="4.225" transform="translate(0 21.707) rotate(-45)" fill="#ff7051"/></g></g><g transform="translate(553.449 293.417)"><path d="M443.93,394.13h-8.738a2.111,2.111,0,0,1-2.113-2.113V333.964a2.111,2.111,0,0,1,2.113-2.113h8.738a2.111,2.111,0,0,1,2.113,2.113v58.053A2.111,2.111,0,0,1,443.93,394.13ZM437.3,389.9h4.513V336.077H437.3Z" transform="translate(-423.688 -250.648)" fill="#2b206a"/><path d="M484.96,394.13h-8.738a2.112,2.112,0,0,1-2.113-2.113V333.964a2.112,2.112,0,0,1,2.113-2.113h8.738a2.111,2.111,0,0,1,2.113,2.113v58.053A2.111,2.111,0,0,1,484.96,394.13Zm-6.626-4.226h4.513V336.077h-4.513Z" transform="translate(-378.03 -250.648)" fill="#2b206a"/><path d="M474.7,394.13h-8.736a2.111,2.111,0,0,1-2.113-2.113V333.964a2.111,2.111,0,0,1,2.113-2.113H474.7a2.111,2.111,0,0,1,2.113,2.113v58.053A2.111,2.111,0,0,1,474.7,394.13Zm-6.624-4.226h4.511V336.077h-4.511Z" transform="translate(-389.444 -250.648)" fill="#2b206a"/><path d="M464.444,394.13h-8.736a2.111,2.111,0,0,1-2.113-2.113V333.964a2.111,2.111,0,0,1,2.113-2.113h8.736a2.111,2.111,0,0,1,2.113,2.113v58.053A2.111,2.111,0,0,1,464.444,394.13Zm-6.624-4.226h4.511V336.077h-4.511Z" transform="translate(-400.858 -250.648)" fill="#2b206a"/><path d="M454.188,394.13H445.45a2.111,2.111,0,0,1-2.113-2.113V333.964a2.111,2.111,0,0,1,2.113-2.113h8.738a2.112,2.112,0,0,1,2.113,2.113v58.053A2.112,2.112,0,0,1,454.188,394.13Zm-6.626-4.226h4.513V336.077h-4.513Z" transform="translate(-412.273 -250.648)" fill="#2b206a"/><path d="M544.956,358.831H430.747a2.111,2.111,0,0,1-2.113-2.113V347.2a2.111,2.111,0,0,1,2.113-2.113h13.437a45.828,45.828,0,0,1,32.831-32.666v-4.933a2.111,2.111,0,0,1,2.113-2.113h18.521a2.111,2.111,0,0,1,2.113,2.113v4.935a45.829,45.829,0,0,1,32.831,32.664h12.364a2.111,2.111,0,0,1,2.113,2.113v9.522A2.111,2.111,0,0,1,544.956,358.831Zm-112.1-4.226H542.843v-5.3H530.931a2.112,2.112,0,0,1-2.062-1.652,41.57,41.57,0,0,0-31.669-31.5,2.114,2.114,0,0,1-1.665-2.066V309.6h-14.3v4.492a2.114,2.114,0,0,1-1.667,2.066,41.57,41.57,0,0,0-31.667,31.5,2.112,2.112,0,0,1-2.062,1.652H432.86Z" transform="translate(-428.634 -280.115)" fill="#2b206a"/><path d="M544.956,376.428H430.747a2.112,2.112,0,0,1-2.113-2.113v-8.739a2.111,2.111,0,0,1,2.113-2.113H544.956a2.111,2.111,0,0,1,2.113,2.113v8.739A2.112,2.112,0,0,1,544.956,376.428ZM432.86,372.2H542.843V367.69H432.86Z" transform="translate(-428.634 -215.469)" fill="#2b206a"/><path d="M457.775,322.9a2.111,2.111,0,0,1-2.113-2.113V295.53a2.113,2.113,0,0,1,4.226,0v25.256A2.111,2.111,0,0,1,457.775,322.9Z" transform="translate(-398.557 -293.417)" fill="#2b206a"/><path d="M480.749,312.457H457.775a2.111,2.111,0,0,1-2.113-2.113V296.869a2.111,2.111,0,0,1,2.113-2.113h22.975a2.111,2.111,0,0,1,2.113,2.113v13.475A2.111,2.111,0,0,1,480.749,312.457Zm-20.862-4.226h18.749v-9.25H459.888Z" transform="translate(-398.557 -291.927)" fill="#2b206a"/></g><g transform="translate(316.47 317.251)"><path d="M432.605,411.377c-3.514-4.562-64.99-106.679-64.99-106.679l-2.343,2.844-9.48,12.987s-10.955,12.558-10.6,23.794c.228,7.369,6.668,29.14-13.342,43.536,0,0,13.23-4.3,17.553-16.505,5.969-16.85-2.172-26.718,3.511-36.862a99.9,99.9,0,0,1,7.724-12.288s3.638-5.166,6.357-8.466c3.636,5.916,62.8,103.709,62.8,103.709h11.935v-2.592S436.112,415.943,432.605,411.377Z" transform="translate(-299.36 -304.698)" fill="#2b206a"/><path d="M342.149,335.852a23.6,23.6,0,0,0,12.637-10.177l48.292,80.688,6.529-.3-54.821-90.916Z" transform="translate(-287.895 -293.073)" fill="#2b206a"/><path d="M350.126,328.272s-18.259,5.265-18.259,24.574c0,17.236,2.461,25.983-6.668,38.62h6.668s4.217-1.756,5.62-14.745S332.222,341.963,350.126,328.272Z" transform="translate(-306.756 -278.465)" fill="#2b206a"/><path d="M338.773,346.716c-18.257,5.971-22.3,23.877-22.3,23.877h6.676C324.847,355.74,338.773,346.716,338.773,346.716Z" transform="translate(-316.47 -257.941)" fill="#2b206a"/><path d="M340.374,338.039c.131-.336.245-.657.365-.985l-6.687-2.189c-.412.97-.8,1.986-1.151,3.068l6.9,1.46C339.994,338.952,340.186,338.508,340.374,338.039Z" transform="translate(-298.186 -271.127)" fill="#2b206a"/><path d="M332.055,342.376l4.775-.8c.577-.767,1.168-1.631,1.76-2.6l-6.165.294Q332.184,340.764,332.055,342.376Z" transform="translate(-299.127 -266.563)" fill="#2b206a"/><path d="M340.6,334.2l-4.19-2.922c-.564.75-1.141,1.57-1.724,2.5l5.383,2.994C340.291,335.867,340.469,335,340.6,334.2Z" transform="translate(-296.199 -275.115)" fill="#2b206a"/><path d="M323.938,352.132c-.353.518-.708,1.052-1.063,1.627-.093.15-.177.323-.268.482l5.36,5.874a29.751,29.751,0,0,0,1.671-2.928Z" transform="translate(-309.641 -251.914)" fill="#2b206a"/><path d="M321.275,358.568l1.348,2.66,3.359,0c.021-.025.036-.047.059-.07l-3.811-6.007A30.56,30.56,0,0,0,321.275,358.568Z" transform="translate(-311.123 -248.559)" fill="#2b206a"/><path d="M324.534,351.431l4.965,3.163a26.14,26.14,0,0,0,.575-3.034l-3.778-2C325.745,350.1,325.155,350.721,324.534,351.431Z" transform="translate(-307.496 -254.775)" fill="#2b206a"/></g></g></svg>