<?xml version="1.0" encoding="utf-8"?>
<!-- Generator: Adobe Illustrator 21.0.0, SVG Export Plug-In . SVG Version: 6.00 Build 0)  -->
<svg version="1.1" id="Layer_1" xmlns="http://www.w3.org/2000/svg" xmlns:xlink="http://www.w3.org/1999/xlink" x="0px" y="0px"
	 viewBox="0 0 364.7 103.3" style="enable-background:new 0 0 364.7 103.3;" xml:space="preserve">
<style type="text/css">
	.st0{fill:#FFFFFF;}
	.st1{fill:#F9A61C;}
</style>
<title>logo</title>
<path class="st0" d="M30.6,68.1c0,0,9.1-2.9,12-11.3c4.1-11.5-1.5-18.3,2.4-25.2c1.6-2.9,3.3-5.7,5.3-8.4c0,0,2.5-3.5,4.3-5.8
	c2.5,4,43,70.9,43,70.9h8.2v-1.8c-2.4,0.4-4.7-0.5-6.2-2.4c-2.4-3.1-44.5-73-44.5-73l-1.6,1.9L47,22c0,0-7.5,8.6-7.3,16.3
	C39.9,43.3,44.3,58.2,30.6,68.1z"/>
<path class="st1" d="M87.2,88.7l4.5-0.2L54.2,26.3l-8.6,14.2c3.6-1.2,6.7-3.7,8.6-7L87.2,88.7z"/>
<path class="st1" d="M21,88.5h4.6c0,0,2.9-1.2,3.8-10.1c1-8.9-3.6-23.8,8.6-33.1c0,0-12.5,3.6-12.5,16.8
	C25.6,73.9,27.3,79.9,21,88.5z"/>
<path class="st0" d="M23.7,71.9C11.2,76,8.4,88.3,8.4,88.3H13C14.2,78.1,23.7,71.9,23.7,71.9z"/>
<path class="st0" d="M32.2,56.9l4.7,1c0.1-0.3,0.3-0.6,0.4-0.9c0.1-0.2,0.2-0.5,0.2-0.7L33,54.8C32.7,55.5,32.4,56.2,32.2,56.9z"/>
<path class="st0" d="M30.9,63.1l3.3-0.5c0.4-0.6,0.8-1.2,1.2-1.8l-4.2,0.2C31.1,61.6,31,62.3,30.9,63.1z"/>
<path class="st0" d="M34.8,51.3l3.7,2c0.2-0.6,0.3-1.2,0.4-1.8l-2.9-2C35.5,50.1,35.1,50.7,34.8,51.3z"/>
<path class="st0" d="M17.5,80.9c-0.1,0.1-0.1,0.2-0.2,0.3l3.7,4c0.4-0.6,0.8-1.3,1.1-2l-3.9-3.5C18,80.1,17.7,80.5,17.5,80.9z"/>
<path class="st0" d="M15.4,86.5l0.9,1.8l2.3,0c0,0,0,0,0,0L16,84.1C15.8,84.9,15.5,85.7,15.4,86.5z"/>
<path class="st0" d="M20.1,77.3l3.4,2.2c0.2-0.7,0.3-1.4,0.4-2.1L21.3,76C20.9,76.4,20.5,76.8,20.1,77.3z"/>
<path class="st0" d="M149.7,42.9c-0.9-0.2-2.1-0.8-3.7-4.6c-2.7-6.4-9.4-23.6-10.5-25.9c-0.4-1-0.7-1.4-1.1-1.4
	c-0.4,0-0.7,0.5-1.2,1.7l-10.6,26.5c-0.8,2.1-1.6,3.5-3.6,3.8c-0.4,0.1-0.9,0.1-1.3,0.1l-0.5,0.3c0,0.3,0.3,0.4,0.8,0.4
	c2.2,0,4.5-0.1,5-0.1c1.3,0,3.1,0.1,4.5,0.1c0.5,0,0.7-0.1,0.7-0.4c0-0.3-0.1-0.3-0.6-0.3h-0.6c-1.3,0-1.7-0.6-1.7-1.3
	c0.1-0.9,0.3-1.7,0.6-2.6l2.3-6l0.4-0.3h9.4l0.4,0.3l3.4,8.9c0.2,0.3,0.1,0.8-0.3,0.9c0,0-0.1,0-0.1,0c-0.4,0-0.6,0.1-0.6,0.4
	c0,0.3,0.5,0.3,1.3,0.3c3.4,0.1,6.5,0.1,8,0.1c1.6,0,1.9-0.1,1.9-0.4l-0.5-0.3C150.9,43,150.3,43,149.7,42.9z M137.3,30.7h-7.8
	l-0.2-0.3l3.9-10.4l0.3-0.4l0.2,0.4l3.8,10.4L137.3,30.7z"/>
<path class="st0" d="M172,16.6c-0.5,0.1-1,0.1-1.5,0.2c-0.9,0-9.1,0-10.5,0c-1.1,0-3.4-0.1-5.3-0.1c-0.6,0-0.9,0.1-0.9,0.3l0.6,0.4
	c0.5,0,1,0,1.5,0.1c1.2,0.3,1.5,0.7,1.6,1.9c0,1.1,0,2.2,0,7.6v6.3c0,3.5,0,6.1-0.2,7.6c-0.1,1-0.3,1.7-1.1,1.9
	c-0.4,0.1-0.9,0.1-1.3,0.1c-0.4,0-0.5,0.2-0.5,0.4c0,0.3,0.2,0.4,0.8,0.4c1.4,0,3.8-0.1,4.7-0.1s3.6,0.1,5.9,0.1
	c0.5,0,0.8-0.1,0.8-0.4c0-0.2-0.2-0.4-0.6-0.4c-0.6,0-1.2,0-1.8-0.1c-1.1-0.2-1.4-0.8-1.5-1.9c-0.2-1.5-0.2-4.1-0.2-7.5v-3l0.3-0.3
	c0.6,0,5,0,5.9,0.1c0.8,0,1.5,0.5,1.8,1.3c0.1,0.3,0.2,0.7,0.3,1.1l0.3,0.5c0.4,0,0.4-0.5,0.4-0.8c0-0.3,0-1.9,0.1-2.6
	c0.1-1.1,0.3-2.1,0.3-2.3l-0.2-0.3l-0.5,0.4c-0.4,0.4-1,0.7-1.6,0.6c-0.5,0-1.1,0-1.7,0l-5.2,0l-0.3-0.3v-8.7c0-0.4,0.1-0.5,0.3-0.5
	l6.2,0.1c0.9-0.1,1.8,0.3,2.4,1.1c0.2,0.4,0.3,0.9,0.2,1.4c0,0.4,0.2,0.6,0.5,0.6l0.4-0.7c0-0.4,0.1-2.5,0.2-2.9
	c0.1-0.9,0.3-1.4,0.3-1.6l-0.3-0.3L172,16.6z"/>
<path class="st0" d="M207,43c-0.6-0.1-1.9-0.3-4-2.4c-2.2-2.2-4.8-5.5-8.1-9.5c3.6-2.9,5.1-5.3,5.1-7.9c-0.1-2-1-3.8-2.6-4.9
	c-2-1.3-4.7-1.5-7-1.5c-1.1,0-4.5,0.1-5.8,0.1c-0.8,0-3.1-0.1-5.1-0.1c-0.5,0-0.8,0.1-0.8,0.3s0.3,0.4,0.6,0.4c0.5,0,1,0,1.5,0.1
	c1.2,0.3,1.5,0.7,1.6,1.9c0,1.1,0,2.2,0,7.6v6.3c0,3.3,0,6.1-0.2,7.6c-0.1,1-0.3,1.7-1.1,1.9c-0.4,0.1-0.9,0.1-1.3,0.1
	c-0.5,0-0.6,0.2-0.6,0.4c0,0.3,0.3,0.4,0.7,0.4c1.5,0,3.8-0.1,4.6-0.1c0.5,0,3.6,0.1,5.8,0.1c0.5,0,0.8-0.1,0.8-0.4l-0.5-0.4
	c-0.6,0-1.2,0-1.8-0.1c-1.1-0.2-1.3-0.8-1.4-1.9c-0.2-1.5-0.2-4.3-0.2-7.6v-0.5l0.3-0.3l3.3,0.1l0.7,0.3c0.5,0.6,2,3,3.5,4.9
	c2.1,2.8,3.5,4.5,5.1,5.3c1.3,0.6,2.7,0.8,4,0.7h3.5c0.5,0,0.7-0.1,0.7-0.4l-0.5-0.4C207.6,43.1,207.3,43,207,43z M193,30.2
	c-0.8,0.5-1.7,0.7-2.6,0.6c-1,0-1.9-0.1-2.8-0.3c-0.3-0.1-0.3-0.2-0.3-0.6V19.2l0.3-0.5c0.7-0.1,1.5-0.1,2.2-0.1
	c2.2,0,5.6,1.3,5.6,6.4C195.6,27,194.7,29,193,30.2z"/>
<path class="st0" d="M221.8,43c-0.6,0-1.3,0-1.9-0.1c-1.1-0.2-1.4-0.7-1.5-1.7c-0.2-1.5-0.2-4.4-0.2-7.8v-6.3c0-5.4,0-6.4,0.1-7.6
	c0.1-1.3,0.4-1.8,1.4-1.9c0.4-0.1,0.7-0.1,1.1-0.1c0.4,0,0.6-0.1,0.6-0.4c0-0.2-0.3-0.3-0.8-0.3c-1.4,0-3.8,0.1-4.8,0.1
	c-1.1,0-3.6-0.1-5-0.1c-0.6,0-0.9,0.1-0.9,0.3c0,0.3,0.2,0.4,0.6,0.4c0.5,0,0.9,0,1.4,0.2c0.8,0.3,1.2,0.7,1.3,1.9
	c0,1.1,0,2.2,0,7.6v6.3c0,3.5,0,6.3-0.2,7.8c-0.1,1.1-0.3,1.6-1.1,1.7c-0.4,0.1-0.9,0.1-1.3,0.1c-0.5,0-0.6,0.2-0.6,0.4
	c0,0.3,0.3,0.4,0.7,0.4c1.5,0,4-0.1,4.9-0.1c1,0,3.5,0.1,6,0.1c0.4,0,0.7-0.1,0.7-0.4C222.4,43.3,222.3,43,221.8,43z"/>
<path class="st0" d="M252.9,37.7c-0.2,0.9-0.7,1.7-1.3,2.4c-1.5,1.6-3.3,1.9-6.6,1.9c-5,0-11.6-4-11.6-12.6c0-3.5,0.7-6.9,3.4-9.3
	c1.7-1.4,3.8-2,7-2c3.4,0,5.9,0.9,7.2,2.1c0.9,0.9,1.4,2.1,1.4,3.3c0,0.5,0.1,0.8,0.4,0.8c0.3,0,0.5-0.4,0.5-0.9
	c0-0.7,0-2.7,0.1-3.9c0.1-1.3,0.2-1.7,0.2-2c0-0.2-0.1-0.4-0.5-0.4c-1.1-0.1-2.3-0.4-3.7-0.6c-1.8-0.3-3.6-0.4-5.4-0.4
	c-5.5,0-9.1,1.4-11.8,3.8c-2.8,2.5-4.3,6.1-4.3,9.8c-0.1,4.1,1.6,7.9,4.6,10.6c3.4,2.8,7.7,3.9,12.7,3.9c2.3,0.1,4.5-0.2,6.7-0.8
	c0.5-0.1,0.9-0.5,1-1c0.4-1.6,0.7-3.2,0.8-4.8l-0.4-0.6C253,37,253,37.2,252.9,37.7z"/>
<path class="st0" d="M284.3,42.9c-0.7-0.1-1.7-0.6-3.2-3.8c-2.4-5.4-8.6-20.1-9.4-22.1c-0.4-0.8-0.5-1.1-1.1-1.1
	c-0.4,0-0.7,0.4-1.1,1.4l-9.7,22.6c-0.8,1.8-1.4,2.9-3.1,3.2l-1.1,0l-0.4,0.4c0,0.3,0.2,0.4,0.7,0.4c1.9,0,3.9-0.1,4.3-0.1
	c1.2,0,2.9,0.1,4.1,0.1c0.4,0,0.6-0.1,0.6-0.4c0-0.2-0.1-0.4-0.5-0.4h-0.5c-1.1,0-1.5-0.4-1.5-1c0.1-0.8,0.2-1.5,0.5-2.2l2-4.8
	l0.3-0.3h8.7l0.4,0.3l2.9,7.2c0.1,0.3,0,0.6-0.2,0.8c0,0-0.1,0-0.1,0c-0.4,0-0.5,0.2-0.5,0.4c0,0.3,0.4,0.3,1.1,0.3
	c3.1,0.1,5.8,0.1,7.1,0.1c1.4,0,1.6-0.1,1.6-0.4l-0.5-0.4C285.2,43,284.7,43,284.3,42.9z M273.1,32.8h-7.2l-0.1-0.2l3.6-9.1l0.2-0.3
	l0.2,0.3l3.5,9.1L273.1,32.8z"/>
<path class="st0" d="M318.5,16.7c-1.8,0-3.2,0.1-3.6,0.1c-0.8,0-2.8-0.1-4.7-0.1c-0.5,0-0.9,0-0.9,0.3c0,0.2,0.1,0.4,0.6,0.4
	c0.7,0,1.3,0,1.9,0.2c0.9,0.3,1.2,1,1.3,3.2l0.4,15.9h-0.2c-0.6-0.5-5.5-5.6-8-8.1c-5.4-5.3-11-11-11.4-11.4
	c-0.6-0.6-1.1-1.2-1.6-1.2c-0.4,0-0.6,0.5-0.6,1.2l-0.3,21.3c0,3.1-0.2,4.1-1.1,4.3c-0.6,0.1-1.1,0.2-1.7,0.2l-0.6,0.4
	c0,0.3,0.3,0.4,0.8,0.4c1.9,0,3.7-0.1,4-0.1c0.7,0,2.4,0.1,4.8,0.1c0.5,0,0.8-0.1,0.8-0.4c0-0.2-0.2-0.4-0.6-0.4
	c-0.7,0-1.3-0.1-1.9-0.3c-0.7-0.3-1.2-1.1-1.3-3.9L294,24.3h0.1c0.7,0.6,4.6,5,8.7,8.8c3.9,3.8,8.5,8.2,10.8,10.3
	c0.4,0.4,0.9,0.7,1.5,0.8c0.3,0,0.6-0.3,0.6-1.1l0.4-22.6c0-2,0.3-2.7,1.3-3c0.4-0.1,0.8-0.1,1.1-0.1c0.4,0,0.6-0.2,0.6-0.4
	C319.3,16.7,319,16.7,318.5,16.7z"/>
<path class="st0" d="M148.9,87.5c-0.9-0.2-2.1-0.8-3.7-4.6c-2.7-6.4-9.4-23.6-10.4-25.9c-0.4-1-0.7-1.3-1.1-1.3
	c-0.4,0-0.7,0.5-1.2,1.7l-10.6,26.5c-0.8,2.1-1.7,3.5-3.6,3.8c-0.4,0.1-0.9,0.1-1.3,0.1l-0.5,0.3c0,0.3,0.3,0.4,0.8,0.4
	c2.2,0,4.5-0.1,5-0.1c1.3,0,3.1,0.1,4.5,0.1c0.5,0,0.7-0.1,0.7-0.4c0-0.3-0.1-0.3-0.6-0.3h-0.6c-1.3,0-1.7-0.6-1.7-1.3
	c0.1-0.9,0.3-1.7,0.6-2.6l2.3-6l0.4-0.3h9.4l0.4,0.3l3.4,8.9c0.2,0.3,0.1,0.8-0.3,0.9c0,0-0.1,0-0.1,0c-0.4,0-0.6,0.1-0.6,0.4
	c0,0.3,0.5,0.3,1.3,0.3c3.4,0.1,6.5,0.1,8,0.1c1.6,0,1.9-0.1,1.9-0.4l-0.5-0.3C150.1,87.7,149.5,87.6,148.9,87.5z M136.4,75.3h-7.8
	l-0.2-0.3l3.9-10.4l0.3-0.4l0.2,0.4l3.8,10.4L136.4,75.3z"/>
<path class="st0" d="M183.1,61.3c-1.8,0-3.2,0.1-3.6,0.1c-0.8,0-2.8-0.1-4.7-0.1c-0.5,0-0.9,0-0.9,0.3c0,0.2,0.1,0.4,0.6,0.4
	c0.7,0,1.3,0,1.9,0.2c0.9,0.3,1.2,1,1.3,3.2l0.4,15.9h-0.2c-0.5-0.5-5.5-5.6-8-8.1c-5.4-5.3-11-11-11.4-11.4
	c-0.6-0.6-1.1-1.2-1.6-1.2c-0.4,0-0.6,0.5-0.6,1.2l-0.3,21.3c0,3.1-0.2,4.1-1.1,4.3c-0.6,0.1-1.1,0.2-1.7,0.2l-0.6,0.4
	c0,0.3,0.3,0.4,0.8,0.4c1.9,0,3.7-0.1,4-0.1c0.7,0,2.4,0.1,4.8,0.1c0.5,0,0.8-0.1,0.8-0.4c0-0.2-0.2-0.4-0.6-0.4
	c-0.7,0-1.3-0.1-1.9-0.3c-0.7-0.3-1.2-1.1-1.3-3.9l-0.4-14.6h0.1c0.7,0.6,4.6,5,8.7,8.8c3.9,3.8,8.5,8.2,10.8,10.3
	c0.4,0.4,0.9,0.7,1.5,0.8c0.3,0,0.6-0.3,0.6-1.1l0.4-22.6c0-2,0.3-2.7,1.3-3c0.4-0.1,0.8-0.1,1.1-0.1c0.4,0,0.6-0.2,0.6-0.4
	C183.9,61.4,183.6,61.3,183.1,61.3z"/>
<path class="st0" d="M214.6,82.4c-0.2,0.9-0.7,1.7-1.3,2.4c-1.5,1.6-3.3,1.9-6.6,1.9c-5,0-11.5-4-11.5-12.6c0-3.5,0.7-6.9,3.4-9.3
	c1.7-1.4,3.8-2,7-2c3.4,0,5.9,0.9,7.2,2.1c0.9,0.9,1.4,2.1,1.4,3.3c0,0.5,0.1,0.8,0.4,0.8c0.3,0,0.5-0.4,0.5-0.9
	c0-0.7,0-2.7,0.1-3.9c0.1-1.3,0.2-1.7,0.2-2c0-0.2-0.1-0.4-0.5-0.4c-1.1-0.1-2.3-0.4-3.7-0.6c-1.8-0.3-3.6-0.4-5.4-0.4
	c-5.5,0-9.1,1.4-11.8,3.8c-5.6,5.2-5.8,14-0.6,19.6c0.3,0.3,0.6,0.6,0.9,0.8c3.4,2.8,7.7,3.9,12.7,3.9c2.3,0.1,4.5-0.2,6.7-0.8
	c0.6-0.3,0.8-0.4,1-1.1c0.4-1.6,0.7-3.2,0.8-4.8l-0.4-0.6C214.7,81.7,214.6,81.8,214.6,82.4z"/>
<path class="st0" d="M240.4,83.3c-0.3,1.5-0.7,2.2-1.6,2.7c-1.1,0.4-2.3,0.5-3.5,0.5c-3.8,0-4.9-0.6-5-3c0-1.1,0-4.1,0-5.3v-2.9
	l0.2-0.4c0.9,0,5.1,0.1,5.8,0.2c1.4,0.1,1.9,0.7,2.1,1.4c0.1,0.5,0.1,0.9,0.1,1.3l0.3,0.3l0.4-0.8c0-0.3,0.1-1.7,0.2-2.4
	c0.2-1.8,0.3-2.4,0.3-2.6l-0.3-0.4l-0.6,0.5c-0.3,0.4-0.9,0.5-1.8,0.5c-0.8,0.1-5.7,0.1-6.5,0.1l-0.3-0.4v-8.9l0.3-0.3
	c0.8,0,5.2,0.1,5.8,0.2c1.9,0.2,2.2,0.7,2.4,1.3c0.2,0.4,0.3,0.9,0.2,1.3l0.3,0.5l0.4-0.6c0.1-0.4,0.2-2,0.2-2.4
	c0-0.8,0.1-1.6,0.3-2.3L240,61l-0.6,0.2c-0.3,0-0.9,0.2-1.6,0.2c-0.7,0-8.9,0-10.1,0c-1.1,0-3.4-0.1-5.4-0.1c-0.5,0-0.8,0.1-0.8,0.3
	s0.3,0.4,0.6,0.4c0.5,0,1,0,1.5,0.1c1.2,0.3,1.5,0.7,1.6,1.9c0,1.1,0,2.2,0,7.6V78c0,3.3,0,6.1-0.2,7.6c-0.1,1-0.3,1.7-1.1,1.9
	c-0.4,0.1-0.9,0.1-1.3,0.1c-0.5,0-0.6,0.2-0.6,0.4c0,0.3,0.2,0.4,0.7,0.4c0.8,0,1.7,0,2.6-0.1c0.9,0,1.7,0,2.1,0
	c1.1,0,2.5,0,4.3,0.1c1.8,0.1,4,0.1,6.8,0.1c1.4,0,1.7,0,2-0.9c0.3-1.3,0.4-2.6,0.5-4c0-0.4,0-0.8-0.3-0.8
	C240.5,82.8,240.5,83,240.4,83.3z"/>
<path class="st0" d="M259,72l-1.5-0.8c-3.3-1.9-3.9-3.1-3.9-4.7c0-2.4,2.4-3.8,5.1-3.8c1.6-0.1,3.1,0.5,4.1,1.7
	c0.6,0.7,0.9,1.5,1,2.4c0,0.4,0.1,0.6,0.4,0.6c0.3,0,0.5-0.4,0.5-1.1c0-2.8,0.1-3.8,0.1-4.3l-0.5-0.5c-1.7-0.4-3.5-0.6-5.3-0.6
	c-5.1,0-9.4,2.8-9.4,7.2c0,3.2,1.4,5.6,5.8,8.1l2.2,1.3c3.3,1.9,3.7,3.5,3.7,5.1c0,2.5-1.9,4.6-5.1,4.6c-2.3,0-5.1-0.9-5.9-3.5
	c-0.2-0.6-0.3-1.2-0.3-1.9l-0.4-0.6c-0.3,0-0.5,0.4-0.5,0.9c0,0.6-0.2,2.8-0.2,4.8c0,0.8,0.1,1,0.7,1.2c1.9,0.7,4,1,6,0.9
	c2,0,4.4-0.2,6.2-1.5c2.3-1.4,3.8-4,3.7-6.7C265.4,77.5,263.9,74.7,259,72z"/>
<path class="st0" d="M295.7,61.1c-0.1,0-0.4,0.1-1,0.2c-0.8,0.1-1.7,0.2-2.5,0.2h-15.1c-1.2,0-2.5,0-3.7-0.2
	c-0.9-0.1-1.3-0.4-1.6-0.4c-0.2,0-0.3,0.2-0.4,0.7c-0.1,0.3-0.8,3.8-0.8,4.3c0,0.4,0.1,0.6,0.3,0.6l0.4-0.5c0.1-0.4,0.4-0.9,0.6-1.2
	c0.5-0.8,1.4-1.1,3.6-1.1l5.5-0.1V78c0,3.3,0,6.1-0.2,7.6c-0.1,1-0.3,1.7-1.1,1.9c-0.4,0.1-0.9,0.1-1.3,0.1c-0.5,0-0.6,0.2-0.6,0.4
	c0,0.3,0.2,0.4,0.7,0.4c1.5,0,4-0.1,4.9-0.1c1,0,3.5,0.1,6,0.1c0.4,0,0.7-0.1,0.7-0.4c0-0.2-0.2-0.4-0.6-0.4c-0.6,0-1.3,0-1.9-0.1
	c-1.1-0.2-1.3-0.8-1.4-1.9c-0.2-1.6-0.2-4.4-0.2-7.7V63.5l4.7,0.1c3.3,0,4.3,1.1,4.4,2.1l0,0.4c0,0.6,0.1,0.7,0.4,0.7
	c0.2,0,0.3-0.2,0.3-0.6c0-0.9,0.1-3.6,0.1-4.3C296,61.3,295.9,61.1,295.7,61.1z"/>
<path class="st0" d="M329.3,87.6c-0.6-0.1-1.9-0.3-4-2.4c-2.2-2.2-4.8-5.5-8.1-9.5c3.6-2.9,5.1-5.3,5.1-7.9c-0.1-2-1-3.8-2.6-4.9
	c-2-1.3-4.7-1.5-7-1.5c-1.1,0-4.5,0.1-5.8,0.1c-0.8,0-3.1-0.1-5.1-0.1c-0.6,0-0.8,0.1-0.8,0.3s0.3,0.4,0.6,0.4c0.5,0,1,0,1.5,0.1
	c1.2,0.3,1.5,0.7,1.6,1.9c0,1.1,0,2.2,0,7.6V78c0,3.3,0,6.1-0.2,7.6c-0.1,1-0.3,1.7-1.1,1.9c-0.4,0.1-0.9,0.1-1.3,0.1
	c-0.5,0-0.6,0.2-0.6,0.4c0,0.3,0.3,0.4,0.7,0.4c1.5,0,3.8-0.1,4.6-0.1c0.5,0,3.6,0.1,5.8,0.1c0.5,0,0.8-0.1,0.8-0.4l-0.5-0.4
	c-0.6,0-1.2,0-1.8-0.1c-1.1-0.2-1.3-0.8-1.4-1.9c-0.2-1.5-0.2-4.3-0.2-7.6v-0.5l0.3-0.3l3.3,0.1l0.7,0.3c0.5,0.6,2,3,3.5,4.9
	c2.1,2.8,3.5,4.5,5.1,5.3c1.3,0.6,2.7,0.8,4,0.7h3.5c0.5,0,0.7-0.1,0.7-0.4l-0.5-0.4C329.8,87.7,329.5,87.7,329.3,87.6z M315.2,74.9
	c-0.8,0.5-1.7,0.7-2.6,0.6c-1,0-1.9-0.1-2.8-0.3c-0.3-0.1-0.3-0.2-0.3-0.6V63.8l0.3-0.5c0.7-0.1,1.5-0.1,2.2-0.1
	c2.2,0,5.7,1.3,5.7,6.4C317.8,71.6,316.9,73.6,315.2,74.9z"/>
<path class="st0" d="M354.9,61.3c-0.7,0-3.2,0.1-4,0.1c-1.1,0-2.4-0.1-3.6-0.1c-0.4,0-0.6,0.1-0.6,0.3l0.7,0.4
	c0.6,0.1,0.8,0.5,0.8,0.8c0,0.7-0.2,1.3-0.6,1.9c-0.5,1.1-5.1,8.8-5.5,9.6c-0.6-1-5.5-9.4-6.2-10.5c-0.2-0.4-0.4-0.8-0.5-1.2
	l0.5-0.5c0.6-0.2,0.8-0.2,0.8-0.5l-0.6-0.3c-1.7,0-3.4,0.1-4.2,0.1c-1.2,0-4-0.1-4.6-0.1c-0.5,0-0.7,0.1-0.7,0.3l0.5,0.4
	c0.5,0,1.1,0.2,1.6,0.5c1,0.7,1.8,1.5,2.4,2.5c1.3,1.9,6.4,9.8,6.6,10.3c0.6,1.2,0.9,2.4,0.8,3.8v3c0,0.6,0,2.1-0.1,3.6
	c-0.1,1-0.4,1.7-1.1,1.9c-0.4,0.1-0.9,0.1-1.3,0.1c-0.4,0-0.6,0.2-0.6,0.4c0,0.3,0.3,0.4,0.8,0.4c1.4,0,3.9-0.1,4.8-0.1
	c1,0,3.5,0.1,5.8,0.1c0.5,0,0.8-0.1,0.8-0.4c0-0.2-0.2-0.4-0.6-0.4c-0.6,0-1.2,0-1.9-0.1c-1.1-0.2-1.4-0.8-1.5-1.9
	c-0.1-1.5-0.1-3-0.1-3.6v-2.9c-0.1-1.2,0.1-2.4,0.5-3.6c2.2-4,4.6-7.8,7.2-11.5c0.5-0.7,1.2-1.3,1.9-1.7c0.5-0.2,1-0.4,1.6-0.4
	c0.4,0,0.7-0.2,0.7-0.4C355.6,61.4,355.4,61.3,354.9,61.3z"/>
</svg>
