<svg id="Layer_1" data-name="Layer 1" xmlns="http://www.w3.org/2000/svg" viewBox="0 0 193.7 54.82"><defs><style>.cls-1{fill:#fff;}</style></defs><path class="cls-1" d="M143.05,35.17a12.47,12.47,0,0,1-1.84,2.54l-.13.12.12-.31c.48-1.36.91-2.74,1.33-4.12.36-1.21,1-2.65.53-3.9s-1.76-2.69-3.22-2.35a8.27,8.27,0,0,0-3.15,1.8A26.46,26.46,0,0,0,134,31.48c-1.37,1.47-2.69,3-4,4.55a49.57,49.57,0,0,1,1.07-5.4.92.92,0,0,0,.89,0,22.61,22.61,0,0,0,10.25-15.9c.13-.88-.83-2-1.44-2.51a4.67,4.67,0,0,0-6.69.74c-1.77,2.14-2.67,5.14-3.68,7.69a58.4,58.4,0,0,0-2.9,9.56.56.56,0,0,0-.56.09c-1.53,1.39-2.84,3-4.36,4.45-.75.7-1.52,1.38-2.31,2a8.66,8.66,0,0,1-2.55,1.75.9.9,0,0,1-.16,0,13.46,13.46,0,0,1,.23-2.21A15.55,15.55,0,0,1,120,30.86a7.41,7.41,0,0,1,2-2.28,1.32,1.32,0,0,1,.64-.22,4,4,0,0,0,1.3,1.74c.48.38,1.42.75,1.49-.18.19-2.7-3.14-6.41-5.93-4.87A8,8,0,0,0,117,27.9a15.42,15.42,0,0,0-1.41,2.85c-.52-.46-1.07-.7-1.41-.38-2.34,2.21-4.38,4.7-6.77,6.87-.49.45-1,1-1.58,1.48,1-2.28,3-5,2.49-7.59A6.1,6.1,0,0,0,106,27.57a8.77,8.77,0,0,0-1.65-1v0a2.85,2.85,0,0,0-.86-2.37c-.28-.33-1.43-1.51-1.94-.94a1.19,1.19,0,0,0-.16.23h0v0a2.26,2.26,0,0,0-.39,1.38,30.49,30.49,0,0,1-5.17,10c-.59.75-1.23,1.47-1.9,2.17l1.14-3.67a2.82,2.82,0,0,0-.87-2.38c-.27-.32-1.44-1.51-1.94-.94-2.06,2.33-4,4.81-6.22,7-.77.77-1.91,1.82-3.09,1.81v0a6,6,0,0,1,.23-1.68,14.73,14.73,0,0,1,4.09-6.86,7.55,7.55,0,0,1,3.52-2c.74-.14,2.28-.26,2.79.44.33.44,1.34,1.57,2,1.08s-.18-1.79-.47-2.21a6.55,6.55,0,0,0-9.54-1.6,14.39,14.39,0,0,0-4.08,4.84c-.48-.37-1-.51-1.23-.2q-2.31,2.57-4.67,5.09c1.07-6.23,2.76-12.36,3.3-18.67.08-.94-2.48-4.25-3-2.77a73.9,73.9,0,0,1-4.34,9.44,49.74,49.74,0,0,1-5.67,8.67A4,4,0,0,1,64,33.79a.76.76,0,0,1-.21,0,35.56,35.56,0,0,1,0-4.5L64,29a1.3,1.3,0,0,0,0-1A38.57,38.57,0,0,1,66.26,18c.49-1.28-2.39-4.36-2.91-3a38.83,38.83,0,0,0-2.64,11.58,53.18,53.18,0,0,1-5.43,7.17,44.21,44.21,0,0,1-7.34,6.25c-1.13.77,1.41,4.3,2.6,3.49A43.32,43.32,0,0,0,58.05,37c1-1.08,2-2.22,2.92-3.41.06.18.11.37.18.54.74,1.79,2.38,3.56,4.46,3.48,1.86-.08,3-1.71,4-3.07,1.26-1.72,2.45-3.51,3.55-5.34.06-.1.11-.2.16-.3a78.81,78.81,0,0,0-1.69,11.33c-.05.8,1.85,4,2.88,3,1.86-1.87,3.7-3.79,5.48-5.74.53,2.88,2.77,6,5.85,5,1.7-.5,2.89-1.87,4-3.16,0,.11.05.22.09.33a4.68,4.68,0,0,0,3,2.89c1.32.28,2.31-.66,3.17-1.52a31.33,31.33,0,0,0,7.45-12,3.19,3.19,0,0,0,.42.3c.12.07.71.42,1.21.68,0,0,0,.08,0,.12a10,10,0,0,1-.38,1.17c-.34.91-.77,1.77-1.19,2.64a14.53,14.53,0,0,0-1.82,4.9,4.75,4.75,0,0,0,2.84,4.55c1.37.51,2.67-.3,3.69-1.16a60,60,0,0,0,6.15-5.81,6.74,6.74,0,0,0,.89,3.4c.85,1.4,2.34,2.73,4.11,2.48a7.61,7.61,0,0,0,3.47-2q1.8-1.48,3.45-3.14l.19-.2c0,.83-.09,1.67-.1,2.52A3.64,3.64,0,0,0,128,42.17c.43.34,1.39.74,1.54,0,.28.11.52.11.67-.07q2.86-3.62,6-7A32.5,32.5,0,0,1,139,32.25l.3-.23c-.26.71-.52,1.43-.77,2.14-.66,1.82-1.88,3.8-1.05,5.74a4.26,4.26,0,0,0,2.85,2.62,3.64,3.64,0,0,0,2.42-.56,10.07,10.07,0,0,0,3.2-3.79C146.61,37.05,143.84,33.86,143.05,35.17Zm-7.35-17a7.1,7.1,0,0,1,2-2.66,4.72,4.72,0,0,1,1.08-.61,22.19,22.19,0,0,1-5.62,9.47C133.91,22.33,134.74,20.23,135.7,18.22Z"/></svg>