<svg id="Layer_1" data-name="Layer 1" xmlns="http://www.w3.org/2000/svg" viewBox="0 0 193.7 54.82"><defs><style>.cls-1{fill:#fff;}</style></defs><path class="cls-1" d="M130.5,29.88c-2.49.69-5,1.34-7.5,2.05,1.55-3.68,3-7.41,4.54-11.1.42-1-1.93-4.39-2.83-3.34l-5,5.83c-1.46,1.69-2.87,3.77-4.71,5.09.21-.49.44-1,.65-1.42,1-2.27,2.14-4.48,3.37-6.64.66-1.16-2.17-4.39-2.94-3.05a69.31,69.31,0,0,0-3.48,6.62.56.56,0,0,0-.51.15A40.22,40.22,0,0,1,106,29.45l-.24.16c.24-1,.5-2,.8-3.05a2.83,2.83,0,0,0-.86-2.39c-.27-.31-1.46-1.53-2-.94a35,35,0,0,1-7,6.39,13.81,13.81,0,0,1-2,1.14,4.59,4.59,0,0,1-1,.28,9.71,9.71,0,0,1,.43-1.39,15.77,15.77,0,0,1,5.1-6.42,12.57,12.57,0,0,1,3.84-2.35,4.49,4.49,0,0,1,1.82-.24c.28,0,.55.18.82.21l.07,0c.36.65,1.27,1.77,2.07,1.61s.31-1.47.08-1.92a6.09,6.09,0,0,0-7.56-3.21A17.44,17.44,0,0,0,93.4,23a15.61,15.61,0,0,0-1.48,2.25.64.64,0,0,0-.65.31,25.19,25.19,0,0,1-4.51,5.21.77.77,0,0,0,0-.15c.23-1.43.5-2.85.76-4.28Q89.07,17.62,90.61,9c.17-1-2.22-4.21-3.07-2.79C83.79,12.44,82.46,20.42,77,25.59a11.46,11.46,0,0,1-1.1.88s0-.07,0-.1a35.54,35.54,0,0,1,.19-6.19c.24-2.09.6-4.17,1-6.23s.91-4.07.23-6.21c-.09-.26-.53-.9-.9-.82C75.28,7.16,75.08,8,74.75,9c-.38,1.19-.68,2.42-1,3.64-.31,1.43-.57,2.87-.76,4.32a.57.57,0,0,0-.47.32A54.84,54.84,0,0,1,60.82,33.08c-.65.6.11,1.84.5,2.38s1.51,1.75,2.14,1.16a56.36,56.36,0,0,0,9.36-11.35A16,16,0,0,0,73.11,27c.39,1.76,2,4.33,4.15,3.82,1.7-.42,3.22-2.41,4.26-3.73A29.25,29.25,0,0,0,84.64,22c-.36,2.1-.71,4.19-1,6.29a7.82,7.82,0,0,0,.49,4.41c.55,1.22,1.94,3.11,3.51,2.79,1.26-.26,2.57-1.87,3.45-2.81A4.3,4.3,0,0,0,93.56,35a6.21,6.21,0,0,0,4.35-.87A22.28,22.28,0,0,0,102.34,31a4.41,4.41,0,0,0,3.47,3.2c1.67.12,3.39-1.52,4.61-2.48.54-.42,1.06-.87,1.58-1.33a4.8,4.8,0,0,0,2.09,2.19c2,1,3.77-.52,5.17-2.09-.05.12-.09.24-.14.35-.37.89-.75,1.79-1.14,2.68-.67.23-1.33.46-2,.71a28.59,28.59,0,0,0-6.11,3.11,13.5,13.5,0,0,0-4.49,4.56c-1.06,2.15,0,4.73,1.71,6.21,2,1.71,4.18.78,6.1-.6,3.45-2.48,5.67-6.32,7.42-10.1.06-.12.11-.24.16-.36,3.89-1.31,7.91-2.27,11.85-3.37C134.17,33.22,131.81,29.51,130.5,29.88ZM110.09,44.22a11.58,11.58,0,0,1-1.13.67l-.58.17a4.62,4.62,0,0,1,.55-.9,17.5,17.5,0,0,1,5.79-4.63c-.25.37-.52.74-.8,1.09A16.59,16.59,0,0,1,110.09,44.22Z"/></svg>