<?xml version="1.0" encoding="utf-8"?>
<!-- Generator: Adobe Illustrator 17.0.0, SVG Export Plug-In . SVG Version: 6.00 Build 0)  -->
<!DOCTYPE svg PUBLIC "-//W3C//DTD SVG 1.1//EN" "http://www.w3.org/Graphics/SVG/1.1/DTD/svg11.dtd">
<svg version="1.1" id="Layer_1" xmlns="http://www.w3.org/2000/svg" xmlns:xlink="http://www.w3.org/1999/xlink" x="0px" y="0px"
	 width="50px" height="11.417px" viewBox="0 19.083 50 11.417" enable-background="new 0 19.083 50 11.417" xml:space="preserve">
<title>logo</title>
<path fill="#4D4D4D" d="M4.195,27.255c0,0,1.248-0.398,1.645-1.549c0.562-1.577-0.206-2.509,0.329-3.455
	c0.219-0.398,0.452-0.781,0.727-1.152c0,0,0.343-0.48,0.59-0.795c0.343,0.548,5.895,9.72,5.895,9.72h1.124v-0.247
	c-0.329,0.055-0.644-0.069-0.85-0.329C13.326,29.023,7.554,19.44,7.554,19.44L7.335,19.7l-0.891,1.234c0,0-1.028,1.179-1.001,2.235
	C5.47,23.855,6.073,25.898,4.195,27.255z"/>
<path fill="#F9A61C" d="M11.955,30.08l0.617-0.027l-5.141-8.528l-1.179,1.947c0.494-0.165,0.919-0.507,1.179-0.96L11.955,30.08z"/>
<path fill="#F9A61C" d="M2.879,30.052H3.51c0,0,0.398-0.165,0.521-1.385c0.137-1.22-0.494-3.263,1.179-4.538
	c0,0-1.714,0.494-1.714,2.303C3.51,28.05,3.743,28.873,2.879,30.052z"/>
<path fill="#4D4D4D" d="M3.249,27.776c-1.714,0.562-2.098,2.248-2.098,2.248h0.631C1.947,28.626,3.249,27.776,3.249,27.776z"/>
<path fill="#4D4D4D" d="M4.415,25.72l0.644,0.137c0.014-0.041,0.041-0.082,0.055-0.123c0.014-0.027,0.027-0.069,0.027-0.096
	l-0.617-0.206C4.483,25.528,4.442,25.624,4.415,25.72z"/>
<path fill="#4D4D4D" d="M4.236,26.57l0.452-0.069c0.055-0.082,0.11-0.165,0.165-0.247l-0.576,0.027
	C4.264,26.364,4.25,26.46,4.236,26.57z"/>
<path fill="#4D4D4D" d="M4.771,24.952l0.507,0.274c0.027-0.082,0.041-0.165,0.055-0.247l-0.398-0.274
	C4.867,24.787,4.812,24.87,4.771,24.952z"/>
<path fill="#4D4D4D" d="M2.399,29.01c-0.014,0.014-0.014,0.027-0.027,0.041L2.879,29.6c0.055-0.082,0.11-0.178,0.151-0.274
	l-0.535-0.48C2.468,28.9,2.427,28.955,2.399,29.01z"/>
<path fill="#4D4D4D" d="M2.111,29.778l0.123,0.247H2.55l0,0l-0.356-0.576C2.166,29.559,2.125,29.668,2.111,29.778z"/>
<path fill="#4D4D4D" d="M2.756,28.517l0.466,0.302c0.027-0.096,0.041-0.192,0.055-0.288L2.92,28.338
	C2.865,28.393,2.811,28.448,2.756,28.517z"/>
<path fill="#333333" d="M20.524,23.8c-0.123-0.027-0.288-0.11-0.507-0.631c-0.37-0.877-1.289-3.236-1.44-3.551
	c-0.055-0.137-0.096-0.192-0.151-0.192c-0.055,0-0.096,0.069-0.165,0.233l-1.453,3.633c-0.11,0.288-0.219,0.48-0.494,0.521
	c-0.055,0.014-0.123,0.014-0.178,0.014l-0.069,0.041c0,0.041,0.041,0.055,0.11,0.055c0.302,0,0.617-0.014,0.685-0.014
	c0.178,0,0.425,0.014,0.617,0.014c0.069,0,0.096-0.014,0.096-0.055s-0.014-0.041-0.082-0.041h-0.082
	c-0.178,0-0.233-0.082-0.233-0.178c0.014-0.123,0.041-0.233,0.082-0.356l0.315-0.823l0.055-0.041h1.289l0.055,0.041l0.466,1.22
	c0.027,0.041,0.014,0.11-0.041,0.123h-0.014c-0.055,0-0.082,0.014-0.082,0.055s0.069,0.041,0.178,0.041
	c0.466,0.014,0.891,0.014,1.097,0.014c0.219,0,0.26-0.014,0.26-0.055l-0.069-0.041C20.688,23.814,20.606,23.814,20.524,23.8z
	 M18.824,22.128h-1.069l-0.027-0.041l0.535-1.426l0.041-0.055l0.027,0.055l0.521,1.426L18.824,22.128z"/>
<path fill="#333333" d="M23.581,20.195c-0.069,0.014-0.137,0.014-0.206,0.027c-0.123,0-1.248,0-1.44,0
	c-0.151,0-0.466-0.014-0.727-0.014c-0.082,0-0.123,0.014-0.123,0.041l0.082,0.055c0.069,0,0.137,0,0.206,0.014
	c0.165,0.041,0.206,0.096,0.219,0.26c0,0.151,0,0.302,0,1.042v0.864c0,0.48,0,0.836-0.027,1.042
	c-0.014,0.137-0.041,0.233-0.151,0.26C21.36,23.8,21.291,23.8,21.237,23.8c-0.055,0-0.069,0.027-0.069,0.055
	c0,0.041,0.027,0.055,0.11,0.055c0.192,0,0.521-0.014,0.644-0.014s0.494,0.014,0.809,0.014c0.069,0,0.11-0.014,0.11-0.055
	c0-0.027-0.027-0.055-0.082-0.055c-0.082,0-0.165,0-0.247-0.014c-0.151-0.027-0.192-0.11-0.206-0.26
	c-0.027-0.206-0.027-0.562-0.027-1.028v-0.411l0.041-0.041c0.082,0,0.685,0,0.809,0.014c0.11,0,0.206,0.069,0.247,0.178
	c0.014,0.041,0.027,0.096,0.041,0.151l0.041,0.069c0.055,0,0.055-0.069,0.055-0.11s0-0.26,0.014-0.356
	c0.014-0.151,0.041-0.288,0.041-0.315l-0.027-0.041l-0.069,0.055c-0.055,0.055-0.137,0.096-0.219,0.082c-0.069,0-0.151,0-0.233,0
	h-0.713l-0.041-0.041v-1.193c0-0.055,0.014-0.069,0.041-0.069l0.85,0.014c0.123-0.014,0.247,0.041,0.329,0.151
	c0.027,0.055,0.041,0.123,0.027,0.192c0,0.055,0.027,0.082,0.069,0.082l0.055-0.096c0-0.055,0.014-0.343,0.027-0.398
	c0.014-0.123,0.041-0.192,0.041-0.219l-0.041-0.041L23.581,20.195z"/>
<path fill="#333333" d="M28.379,23.814c-0.082-0.014-0.26-0.041-0.548-0.329c-0.302-0.302-0.658-0.754-1.111-1.302
	c0.494-0.398,0.699-0.727,0.699-1.083c-0.014-0.274-0.137-0.521-0.356-0.672c-0.274-0.178-0.644-0.206-0.96-0.206
	c-0.151,0-0.617,0.014-0.795,0.014c-0.11,0-0.425-0.014-0.699-0.014c-0.069,0-0.11,0.014-0.11,0.041s0.041,0.055,0.082,0.055
	c0.069,0,0.137,0,0.206,0.014c0.165,0.041,0.206,0.096,0.219,0.26c0,0.151,0,0.302,0,1.042v0.864c0,0.452,0,0.836-0.027,1.042
	c-0.014,0.137-0.041,0.233-0.151,0.26c-0.055,0.014-0.123,0.014-0.178,0.014c-0.069,0-0.082,0.027-0.082,0.055
	c0,0.041,0.041,0.055,0.096,0.055c0.206,0,0.521-0.014,0.631-0.014c0.069,0,0.494,0.014,0.795,0.014c0.069,0,0.11-0.014,0.11-0.055
	l-0.069-0.055c-0.082,0-0.165,0-0.247-0.014c-0.151-0.027-0.178-0.11-0.192-0.26c-0.027-0.206-0.027-0.59-0.027-1.042v-0.069
	l0.041-0.041l0.452,0.014l0.096,0.041c0.069,0.082,0.274,0.411,0.48,0.672c0.288,0.384,0.48,0.617,0.699,0.727
	c0.178,0.082,0.37,0.11,0.548,0.096h0.48c0.069,0,0.096-0.014,0.096-0.055l-0.069-0.055C28.462,23.828,28.421,23.814,28.379,23.814z
	 M26.46,22.059c-0.11,0.069-0.233,0.096-0.356,0.082c-0.137,0-0.26-0.014-0.384-0.041c-0.041-0.014-0.041-0.027-0.041-0.082v-1.467
	l0.041-0.069c0.096-0.014,0.206-0.014,0.302-0.014c0.302,0,0.768,0.178,0.768,0.877C26.817,21.621,26.693,21.895,26.46,22.059z"/>
<path fill="#333333" d="M30.409,23.814c-0.082,0-0.178,0-0.26-0.014c-0.151-0.027-0.192-0.096-0.206-0.233
	c-0.027-0.206-0.027-0.603-0.027-1.069v-0.864c0-0.74,0-0.877,0.014-1.042c0.014-0.178,0.055-0.247,0.192-0.26
	c0.055-0.014,0.096-0.014,0.151-0.014c0.055,0,0.082-0.014,0.082-0.055c0-0.027-0.041-0.041-0.11-0.041
	c-0.192,0-0.521,0.014-0.658,0.014c-0.151,0-0.494-0.014-0.685-0.014c-0.082,0-0.123,0.014-0.123,0.041
	c0,0.041,0.027,0.055,0.082,0.055c0.069,0,0.123,0,0.192,0.027c0.11,0.041,0.165,0.096,0.178,0.26c0,0.151,0,0.302,0,1.042v0.864
	c0,0.48,0,0.864-0.027,1.069c-0.014,0.151-0.041,0.219-0.151,0.233c-0.055,0.014-0.123,0.014-0.178,0.014
	c-0.069,0-0.082,0.027-0.082,0.055c0,0.041,0.041,0.055,0.096,0.055c0.206,0,0.548-0.014,0.672-0.014
	c0.137,0,0.48,0.014,0.823,0.014c0.055,0,0.096-0.014,0.096-0.055C30.491,23.855,30.477,23.814,30.409,23.814z"/>
<path fill="#333333" d="M34.672,23.087c-0.027,0.123-0.096,0.233-0.178,0.329c-0.206,0.219-0.452,0.26-0.905,0.26
	c-0.685,0-1.59-0.548-1.59-1.727c0-0.48,0.096-0.946,0.466-1.275c0.233-0.192,0.521-0.274,0.96-0.274
	c0.466,0,0.809,0.123,0.987,0.288c0.123,0.123,0.192,0.288,0.192,0.452c0,0.069,0.014,0.11,0.055,0.11s0.069-0.055,0.069-0.123
	c0-0.096,0-0.37,0.014-0.535c0.014-0.178,0.027-0.233,0.027-0.274c0-0.027-0.014-0.055-0.069-0.055
	c-0.151-0.014-0.315-0.055-0.507-0.082c-0.247-0.041-0.494-0.055-0.74-0.055c-0.754,0-1.248,0.192-1.618,0.521
	c-0.384,0.343-0.59,0.836-0.59,1.344c-0.014,0.562,0.219,1.083,0.631,1.453c0.466,0.384,1.056,0.535,1.741,0.535
	c0.315,0.014,0.617-0.027,0.919-0.11c0.069-0.014,0.123-0.069,0.137-0.137c0.055-0.219,0.096-0.439,0.11-0.658l-0.055-0.082
	C34.686,22.992,34.686,23.019,34.672,23.087z"/>
<path fill="#333333" d="M38.977,23.8c-0.096-0.014-0.233-0.082-0.439-0.521c-0.329-0.74-1.179-2.756-1.289-3.03
	c-0.055-0.11-0.069-0.151-0.151-0.151c-0.055,0-0.096,0.055-0.151,0.192l-1.33,3.098c-0.11,0.247-0.192,0.398-0.425,0.439h-0.151
	l-0.055,0.055c0,0.041,0.027,0.055,0.096,0.055c0.26,0,0.535-0.014,0.59-0.014c0.165,0,0.398,0.014,0.562,0.014
	c0.055,0,0.082-0.014,0.082-0.055c0-0.027-0.014-0.055-0.069-0.055H36.18c-0.151,0-0.206-0.055-0.206-0.137
	c0.014-0.11,0.027-0.206,0.069-0.302l0.274-0.658l0.041-0.041h1.193l0.055,0.041l0.398,0.987c0.014,0.041,0,0.082-0.027,0.11h-0.014
	c-0.055,0-0.069,0.027-0.069,0.055c0,0.041,0.055,0.041,0.151,0.041c0.425,0.014,0.795,0.014,0.973,0.014
	c0.192,0,0.219-0.014,0.219-0.055l-0.069-0.055C39.101,23.814,39.032,23.814,38.977,23.8z M37.442,22.416h-0.987l-0.014-0.027
	l0.494-1.248l0.027-0.041l0.027,0.041l0.48,1.248L37.442,22.416z"/>
<path fill="#333333" d="M43.666,20.208c-0.247,0-0.439,0.014-0.494,0.014c-0.11,0-0.384-0.014-0.644-0.014
	c-0.069,0-0.123,0-0.123,0.041c0,0.027,0.014,0.055,0.082,0.055c0.096,0,0.178,0,0.26,0.027c0.123,0.041,0.165,0.137,0.178,0.439
	l0.055,2.18h-0.027c-0.082-0.069-0.754-0.768-1.097-1.111c-0.74-0.727-1.508-1.508-1.563-1.563
	c-0.082-0.082-0.151-0.165-0.219-0.165c-0.055,0-0.082,0.069-0.082,0.165l-0.041,2.92c0,0.425-0.027,0.562-0.151,0.59
	c-0.082,0.014-0.151,0.027-0.233,0.027l-0.082,0.055c0,0.041,0.041,0.055,0.11,0.055c0.26,0,0.507-0.014,0.548-0.014
	c0.096,0,0.329,0.014,0.658,0.014c0.069,0,0.11-0.014,0.11-0.055c0-0.027-0.027-0.055-0.082-0.055c-0.096,0-0.178-0.014-0.26-0.041
	c-0.096-0.041-0.165-0.151-0.178-0.535l-0.082-1.988h0.014c0.096,0.082,0.631,0.685,1.193,1.206
	c0.535,0.521,1.165,1.124,1.481,1.412c0.055,0.055,0.123,0.096,0.206,0.11c0.041,0,0.082-0.041,0.082-0.151l0.055-3.098
	c0-0.274,0.041-0.37,0.178-0.411c0.055-0.014,0.11-0.014,0.151-0.014c0.055,0,0.082-0.027,0.082-0.055
	C43.776,20.208,43.735,20.208,43.666,20.208z"/>
<path fill="#333333" d="M20.414,29.915c-0.123-0.027-0.288-0.11-0.507-0.631c-0.37-0.877-1.289-3.236-1.426-3.551
	c-0.055-0.137-0.096-0.178-0.151-0.178c-0.055,0-0.096,0.069-0.165,0.233l-1.453,3.633c-0.11,0.288-0.233,0.48-0.494,0.521
	c-0.055,0.014-0.123,0.014-0.178,0.014l-0.069,0.041c0,0.041,0.041,0.055,0.11,0.055c0.302,0,0.617-0.014,0.685-0.014
	c0.178,0,0.425,0.014,0.617,0.014c0.069,0,0.096-0.014,0.096-0.055s-0.014-0.041-0.082-0.041h-0.082
	c-0.178,0-0.233-0.082-0.233-0.178c0.014-0.123,0.041-0.233,0.082-0.356l0.315-0.823l0.055-0.041h1.289l0.055,0.041l0.466,1.22
	c0.027,0.041,0.014,0.11-0.041,0.123H19.29c-0.055,0-0.082,0.014-0.082,0.055s0.069,0.041,0.178,0.041
	c0.466,0.014,0.891,0.014,1.097,0.014c0.219,0,0.26-0.014,0.26-0.055l-0.069-0.041C20.579,29.942,20.496,29.929,20.414,29.915z
	 M18.7,28.242h-1.069l-0.027-0.041l0.535-1.426l0.041-0.055l0.027,0.055l0.521,1.426L18.7,28.242z"/>
<path fill="#333333" d="M25.103,26.323c-0.247,0-0.439,0.014-0.494,0.014c-0.11,0-0.384-0.014-0.644-0.014
	c-0.069,0-0.123,0-0.123,0.041c0,0.027,0.014,0.055,0.082,0.055c0.096,0,0.178,0,0.26,0.027c0.123,0.041,0.165,0.137,0.178,0.439
	l0.055,2.18H24.39c-0.069-0.069-0.754-0.768-1.097-1.111c-0.74-0.727-1.508-1.508-1.563-1.563c-0.082-0.082-0.151-0.165-0.219-0.165
	c-0.055,0-0.082,0.069-0.082,0.165l-0.041,2.92c0,0.425-0.027,0.562-0.151,0.59c-0.082,0.014-0.151,0.027-0.233,0.027l-0.082,0.055
	c0,0.041,0.041,0.055,0.11,0.055c0.26,0,0.507-0.014,0.548-0.014c0.096,0,0.329,0.014,0.658,0.014c0.069,0,0.11-0.014,0.11-0.055
	c0-0.027-0.027-0.055-0.082-0.055c-0.096,0-0.178-0.014-0.26-0.041c-0.096-0.041-0.165-0.151-0.178-0.535l-0.055-2.002h0.014
	c0.096,0.082,0.631,0.685,1.193,1.206c0.535,0.521,1.165,1.124,1.481,1.412c0.055,0.055,0.123,0.096,0.206,0.11
	c0.041,0,0.082-0.041,0.082-0.151l0.055-3.098c0-0.274,0.041-0.37,0.178-0.411c0.055-0.014,0.11-0.014,0.151-0.014
	c0.055,0,0.082-0.027,0.082-0.055C25.213,26.337,25.171,26.323,25.103,26.323z"/>
<path fill="#333333" d="M29.421,29.216c-0.027,0.123-0.096,0.233-0.178,0.329c-0.206,0.219-0.452,0.26-0.905,0.26
	c-0.685,0-1.577-0.548-1.577-1.727c0-0.48,0.096-0.946,0.466-1.275c0.233-0.192,0.521-0.274,0.96-0.274
	c0.466,0,0.809,0.123,0.987,0.288c0.123,0.123,0.192,0.288,0.192,0.452c0,0.069,0.014,0.11,0.055,0.11s0.069-0.055,0.069-0.123
	c0-0.096,0-0.37,0.014-0.535c0.014-0.178,0.027-0.233,0.027-0.274c0-0.027-0.014-0.055-0.069-0.055
	c-0.151-0.014-0.315-0.055-0.507-0.082c-0.247-0.041-0.494-0.055-0.74-0.055c-0.754,0-1.248,0.192-1.618,0.521
	c-0.768,0.713-0.795,1.919-0.082,2.687c0.041,0.041,0.082,0.082,0.123,0.11c0.466,0.384,1.056,0.535,1.741,0.535
	c0.315,0.014,0.617-0.027,0.919-0.11c0.082-0.041,0.11-0.055,0.137-0.151c0.055-0.219,0.096-0.439,0.11-0.658l-0.055-0.082
	C29.435,29.12,29.421,29.134,29.421,29.216z"/>
<path fill="#333333" d="M32.959,29.339c-0.041,0.206-0.096,0.302-0.219,0.37c-0.151,0.055-0.315,0.069-0.48,0.069
	c-0.521,0-0.672-0.082-0.685-0.411c0-0.151,0-0.562,0-0.727v-0.398l0.027-0.055c0.123,0,0.699,0.014,0.795,0.027
	c0.192,0.014,0.26,0.096,0.288,0.192c0.014,0.069,0.014,0.123,0.014,0.178l0.041,0.041l0.055-0.11c0-0.041,0.014-0.233,0.027-0.329
	c0.027-0.247,0.041-0.329,0.041-0.356l-0.041-0.055l-0.082,0.069c-0.041,0.055-0.123,0.069-0.247,0.069
	c-0.11,0.014-0.781,0.014-0.891,0.014l-0.041-0.055v-1.22l0.041-0.041c0.11,0,0.713,0.014,0.795,0.027
	c0.26,0.027,0.302,0.096,0.329,0.178c0.027,0.055,0.041,0.123,0.027,0.178l0.041,0.069l0.055-0.082
	c0.014-0.055,0.027-0.274,0.027-0.329c0-0.11,0.014-0.219,0.041-0.315l-0.014-0.055l-0.082,0.027c-0.041,0-0.123,0.027-0.219,0.027
	s-1.22,0-1.385,0c-0.151,0-0.466-0.014-0.74-0.014c-0.069,0-0.11,0.014-0.11,0.041s0.041,0.055,0.082,0.055
	c0.069,0,0.137,0,0.206,0.014c0.165,0.041,0.206,0.096,0.219,0.26c0,0.151,0,0.302,0,1.042v0.877c0,0.452,0,0.836-0.027,1.042
	c-0.014,0.137-0.041,0.233-0.151,0.26c-0.055,0.014-0.123,0.014-0.178,0.014c-0.069,0-0.082,0.027-0.082,0.055
	c0,0.041,0.027,0.055,0.096,0.055c0.11,0,0.233,0,0.356-0.014c0.123,0,0.233,0,0.288,0c0.151,0,0.343,0,0.59,0.014
	c0.247,0.014,0.548,0.014,0.932,0.014c0.192,0,0.233,0,0.274-0.123c0.041-0.178,0.055-0.356,0.069-0.548c0-0.055,0-0.11-0.041-0.11
	C32.972,29.271,32.972,29.298,32.959,29.339z"/>
<path fill="#333333" d="M35.509,27.79l-0.206-0.11c-0.452-0.26-0.535-0.425-0.535-0.644c0-0.329,0.329-0.521,0.699-0.521
	c0.219-0.014,0.425,0.069,0.562,0.233c0.082,0.096,0.123,0.206,0.137,0.329c0,0.055,0.014,0.082,0.055,0.082
	s0.069-0.055,0.069-0.151c0-0.384,0.014-0.521,0.014-0.59l-0.069-0.069c-0.233-0.055-0.48-0.082-0.727-0.082
	c-0.699,0-1.289,0.384-1.289,0.987c0,0.439,0.192,0.768,0.795,1.111l0.302,0.178c0.452,0.26,0.507,0.48,0.507,0.699
	c0,0.343-0.26,0.631-0.699,0.631c-0.315,0-0.699-0.123-0.809-0.48c-0.027-0.082-0.041-0.165-0.041-0.26l-0.055-0.082
	c-0.041,0-0.069,0.055-0.069,0.123c0,0.082-0.027,0.384-0.027,0.658c0,0.11,0.014,0.137,0.096,0.165
	c0.26,0.096,0.548,0.137,0.823,0.123c0.274,0,0.603-0.027,0.85-0.206c0.315-0.192,0.521-0.548,0.507-0.919
	C36.386,28.544,36.18,28.16,35.509,27.79z"/>
<path fill="#333333" d="M40.54,26.296c-0.014,0-0.055,0.014-0.137,0.027c-0.11,0.014-0.233,0.027-0.343,0.027h-2.07
	c-0.165,0-0.343,0-0.507-0.027c-0.123-0.014-0.178-0.055-0.219-0.055c-0.027,0-0.041,0.027-0.055,0.096
	c-0.014,0.041-0.11,0.521-0.11,0.59c0,0.055,0.014,0.082,0.041,0.082l0.055-0.069c0.014-0.055,0.055-0.123,0.082-0.165
	c0.069-0.11,0.192-0.151,0.494-0.151l0.754-0.014v1.974c0,0.452,0,0.836-0.027,1.042c-0.014,0.137-0.041,0.233-0.151,0.26
	c-0.055,0.014-0.123,0.014-0.178,0.014c-0.069,0-0.082,0.027-0.082,0.055c0,0.041,0.027,0.055,0.096,0.055
	c0.206,0,0.548-0.014,0.672-0.014c0.137,0,0.48,0.014,0.823,0.014c0.055,0,0.096-0.014,0.096-0.055c0-0.027-0.027-0.055-0.082-0.055
	c-0.082,0-0.178,0-0.26-0.014c-0.151-0.027-0.178-0.11-0.192-0.26c-0.027-0.219-0.027-0.603-0.027-1.056v-1.974l0.644,0.014
	c0.452,0,0.59,0.151,0.603,0.288v0.055c0,0.082,0.014,0.096,0.055,0.096c0.027,0,0.041-0.027,0.041-0.082
	c0-0.123,0.014-0.494,0.014-0.59C40.581,26.323,40.568,26.296,40.54,26.296z"/>
<path fill="#333333" d="M45.147,29.929c-0.082-0.014-0.26-0.041-0.548-0.329c-0.302-0.302-0.658-0.754-1.111-1.302
	c0.494-0.398,0.699-0.727,0.699-1.083c-0.014-0.274-0.137-0.521-0.356-0.672c-0.274-0.178-0.644-0.206-0.96-0.206
	c-0.151,0-0.617,0.014-0.795,0.014c-0.11,0-0.425-0.014-0.699-0.014c-0.082,0-0.11,0.014-0.11,0.041s0.041,0.055,0.082,0.055
	c0.069,0,0.137,0,0.206,0.014c0.165,0.041,0.206,0.096,0.219,0.26c0,0.151,0,0.302,0,1.042v0.864c0,0.452,0,0.836-0.027,1.042
	c-0.014,0.137-0.041,0.233-0.151,0.26c-0.055,0.014-0.123,0.014-0.178,0.014c-0.069,0-0.082,0.027-0.082,0.055
	c0,0.041,0.041,0.055,0.096,0.055c0.206,0,0.521-0.014,0.631-0.014c0.069,0,0.494,0.014,0.795,0.014c0.069,0,0.11-0.014,0.11-0.055
	l-0.069-0.055c-0.082,0-0.165,0-0.247-0.014c-0.151-0.027-0.178-0.11-0.192-0.26c-0.027-0.206-0.027-0.59-0.027-1.042v-0.069
	l0.041-0.041l0.452,0.014l0.096,0.041c0.069,0.082,0.274,0.411,0.48,0.672c0.288,0.384,0.48,0.617,0.699,0.727
	c0.178,0.082,0.37,0.11,0.548,0.096h0.48c0.069,0,0.096-0.014,0.096-0.055l-0.069-0.055C45.215,29.942,45.174,29.942,45.147,29.929z
	 M43.214,28.188c-0.11,0.069-0.233,0.096-0.356,0.082c-0.137,0-0.26-0.014-0.384-0.041c-0.041-0.014-0.041-0.027-0.041-0.082v-1.481
	l0.041-0.069c0.096-0.014,0.206-0.014,0.302-0.014c0.302,0,0.781,0.178,0.781,0.877C43.57,27.735,43.447,28.009,43.214,28.188z"/>
<path fill="#333333" d="M48.656,26.323c-0.096,0-0.439,0.014-0.548,0.014c-0.151,0-0.329-0.014-0.494-0.014
	c-0.055,0-0.082,0.014-0.082,0.041l0.096,0.055c0.082,0.014,0.11,0.069,0.11,0.11c0,0.096-0.027,0.178-0.082,0.26
	c-0.069,0.151-0.699,1.206-0.754,1.316c-0.082-0.137-0.754-1.289-0.85-1.44c-0.027-0.055-0.055-0.11-0.069-0.165l0.069-0.069
	c0.082-0.027,0.11-0.027,0.11-0.069l-0.082-0.041c-0.233,0-0.466,0.014-0.576,0.014c-0.165,0-0.548-0.014-0.631-0.014
	c-0.069,0-0.096,0.014-0.096,0.041l0.069,0.055c0.069,0,0.151,0.027,0.219,0.069c0.137,0.096,0.247,0.206,0.329,0.343
	c0.178,0.26,0.877,1.344,0.905,1.412c0.082,0.165,0.123,0.329,0.11,0.521v0.411c0,0.082,0,0.288-0.014,0.494
	c-0.014,0.137-0.055,0.233-0.151,0.26c-0.055,0.014-0.123,0.014-0.178,0.014s-0.082,0.027-0.082,0.055
	c0,0.041,0.041,0.055,0.11,0.055c0.192,0,0.535-0.014,0.658-0.014c0.137,0,0.48,0.014,0.795,0.014c0.069,0,0.11-0.014,0.11-0.055
	c0-0.027-0.027-0.055-0.082-0.055c-0.082,0-0.165,0-0.26-0.014c-0.151-0.027-0.192-0.11-0.206-0.26
	c-0.014-0.206-0.014-0.411-0.014-0.494v-0.398c-0.014-0.165,0.014-0.329,0.069-0.494c0.302-0.548,0.631-1.069,0.987-1.577
	c0.069-0.096,0.165-0.178,0.26-0.233c0.069-0.027,0.137-0.055,0.219-0.055c0.055,0,0.096-0.027,0.096-0.055
	C48.752,26.337,48.725,26.323,48.656,26.323z"/>
</svg>
