<svg id="Layer_1" data-name="Layer 1" xmlns="http://www.w3.org/2000/svg" viewBox="0 0 193.7 54.82"><defs><style>.cls-1{fill:#fff;}</style></defs><path class="cls-1" d="M87.55,32.74c-.32-.81-1.18-2.07-2.13-2.23a12.47,12.47,0,0,1-3.93-1.22c.06-.17.13-.34.19-.52a24.06,24.06,0,0,0,.74-3A4.2,4.2,0,0,0,81.13,22a2.76,2.76,0,0,0-2.88-1,3,3,0,0,0-1.54,2.54,7.49,7.49,0,0,0,1,4.58l0,.08a22.93,22.93,0,0,1-5.38,7.44,15.06,15.06,0,0,1-1.76,1.43,4.08,4.08,0,0,1-.58.32c0-.21,0-.43.08-.65.13-.86.29-1.72.5-2.57s.44-1.63.7-2.43a9.65,9.65,0,0,0,1.13-.8c.43-.38.29-1.13-.11-1.86a31.32,31.32,0,0,1,3.09-5.58c.75-1.09-2-4.44-3-3.1a32.3,32.3,0,0,0-4,7.86,8.41,8.41,0,0,1-2.58.94,9.41,9.41,0,0,0-2.59-5.76c-1.41-1.47-4.26-3-6.15-1.44a3.31,3.31,0,0,0-.9,3.61.8.8,0,0,0-.55.09,18.22,18.22,0,0,0-6,5.44C48,33.5,47,35.94,48.46,38.59a7.14,7.14,0,0,0,6.36,3.82c2.68-.19,4.92-2.16,6.73-4a15.05,15.05,0,0,0,3.7-5.36,9.75,9.75,0,0,0,1.87,0l-.09.45c-.43,2.49-.36,4.82,1.57,6.71a3.31,3.31,0,0,0,3.28,1,7.86,7.86,0,0,0,2.87-1.86,24.3,24.3,0,0,0,5.82-7.87,13.78,13.78,0,0,0,6.33,2.62C87.86,34.38,87.8,33.39,87.55,32.74ZM59,34.75a14.93,14.93,0,0,1-4.61,3.48,4.87,4.87,0,0,1-2.41.41,3.4,3.4,0,0,1-1-.28l-.23-.11c0-.2,0-.53.08-.71a6.74,6.74,0,0,1,.67-1.5,15.6,15.6,0,0,1,1.74-2.61,17.76,17.76,0,0,1,4.88-4.08,11,11,0,0,0,3.18,2.53A16.33,16.33,0,0,1,59,34.75Zm3.49-5.53A7.27,7.27,0,0,1,61,28.75c-1-.44-2.27-1.16-1.79-2.44a2.06,2.06,0,0,1,3.1-.68,3.07,3.07,0,0,1,.37,1.53A6.81,6.81,0,0,1,62.51,29.22Z"/><path class="cls-1" d="M169.32,28.27a48.82,48.82,0,0,1-4.83,5.23c-.68.63-1.39,1.23-2.1,1.83.22-.47.44-.94.67-1.4.78-1.52,2-3.13,2-4.91a5.68,5.68,0,0,0-2.82-4.51,8.75,8.75,0,0,0-2.16-.85c-.31-.08-.62-.14-.92-.25l-.21-.09a3.81,3.81,0,0,0-1.32-1.88c-.45-.34-1.49-.78-1.49.18a14.58,14.58,0,0,1-3.74,9.77c-2.06,2.3-5.89,5.17-9.21,4.37-.14,0-.28-.1-.42-.13l-.06,0a3.91,3.91,0,0,1-.11-.43,6.15,6.15,0,0,1,.31-2.37c2.3.43,4.48.34,6.41-1.24a10.48,10.48,0,0,0,3.5-6.19c.46-2.65-2.09-6.09-5-5-2.34.85-4.32,3.35-5.65,5.35a16.71,16.71,0,0,0-1.81,3.43,8.44,8.44,0,0,1-1-.31,3.44,3.44,0,0,0-.51-.25.26.26,0,0,1-.13-.06,1.76,1.76,0,0,1,.14.28,2.38,2.38,0,0,0-.2-.34h0c-.61-.91-2.23-2.73-2.53-1.14a15.67,15.67,0,0,1-2.68,6.18c-1.15,1.58-3.12,3.88-5.26,4h-.46c0-.35-.09-.83-.1-.87a26,26,0,0,1,.19-3.18c.11-1,.28-2,.48-2.95A32.83,32.83,0,0,0,141,20a11.46,11.46,0,0,0,2.05-3.59A4.71,4.71,0,0,0,141.75,12c-1.86-2-4.31-1.48-6.4-.15-4.47,2.84-7.45,7.53-9,12.5-.31,1-.56,1.95-.78,2.94l-.14.06c-.34.15-.33.62-.12,1.16l-.15.92c-.41-.19-.79-.2-1,.16a42.41,42.41,0,0,1-3.77,4.68c-.65.69-1.32,1.36-2,2-.16.14-.32.31-.49.48a13.79,13.79,0,0,1,.56-2c.56-1.56,1.29-3,1.92-4.57a10.68,10.68,0,0,0,1.15-4.44,4.71,4.71,0,0,0-3.1-4c-1.51-.38-2.81.81-3.72,1.85A30.6,30.6,0,0,0,112,27l.18-1.25c.11-.89-1.35-3.22-2.45-2.91-3,.87-5.11,3.07-7,5.52a.1.1,0,0,1,0,0c.4-1.26.79-2.52,1.19-3.78a2.78,2.78,0,0,0-1-2.41c-.27-.28-1.51-1.29-1.78-.46q-1,3.15-2,6.3A32,32,0,0,1,92,35.31a13,13,0,0,1-4.8,2.09,5,5,0,0,1-2,0L85,37.37a1.36,1.36,0,0,1,0-.29,8.89,8.89,0,0,1,.46-2.47,1.17,1.17,0,0,0,.81.25A18.09,18.09,0,0,0,97.4,28.49a3.7,3.7,0,0,0,1.15-3.18A5,5,0,0,0,95.88,22c-2-.91-4.49-.27-6.34.65-4.06,2-6.61,6.68-7.37,11a6.42,6.42,0,0,0,2.92,6.59c1.84,1.11,4,.8,5.91.11a17.15,17.15,0,0,0,5.32-3.18l-.13.41C95.85,38.67,98,41.83,99,40.5c2.06-2.89,4.09-5.81,6.19-8.67a19.71,19.71,0,0,1,3.45-3.8c-.51,3.08-1.13,6.13-1.88,9.16a2.87,2.87,0,0,0,1,2.44c.33.34,1.44,1.26,1.8.46a76.44,76.44,0,0,1,4.67-9.26,28.33,28.33,0,0,1,3.15-4.23,8.47,8.47,0,0,1,.67-.67c-1,2.78-2.5,5.34-3.06,8.25a7.93,7.93,0,0,0,.27,4.65c.62,1.39,2.14,3,3.77,2.2a9.92,9.92,0,0,0,2.2-1.84c.69-.65,1.35-1.33,2-2s1.1-1.28,1.63-1.93a7.11,7.11,0,0,0,2.12,4.41c2.64,2.54,5.75.72,7.84-1.53a16.62,16.62,0,0,0,3.86-7,9,9,0,0,0,1.06.67,8.49,8.49,0,0,0,0,1.13,7,7,0,0,0,4.55,6.23c2.29.73,4.85-.22,6.85-1.35a16,16,0,0,0,7.8-11.7,7.15,7.15,0,0,0,1.62.79,13.93,13.93,0,0,0,1.58.5,2.78,2.78,0,0,1-.12.38,8.79,8.79,0,0,1-.5,1.08c-.38.75-.79,1.47-1.17,2.22a27.82,27.82,0,0,0-2.34,5.16c-.44,1.7.94,3.58,2.42,4.28s2.74-.36,3.86-1.25a48.34,48.34,0,0,0,7.59-7.61C172.72,30.47,170,27.39,169.32,28.27Zm-79.74-.65a9.66,9.66,0,0,1,4.69-2.39,5.77,5.77,0,0,1,.71-.1c-.12.16-.25.31-.38.46a17.36,17.36,0,0,1-7.43,5.07A12.62,12.62,0,0,1,89.58,27.62Zm46.06-10.86c1.21-1.06,2.84-2.45,4.54-2.65a7.06,7.06,0,0,1-.62,1.19,27.75,27.75,0,0,1-2.12,2.91A33.08,33.08,0,0,1,130,24.84,22.2,22.2,0,0,1,135.64,16.76ZM145.86,27.3a18.14,18.14,0,0,1,1.93-2,9.13,9.13,0,0,1,1.84-1.41,10.86,10.86,0,0,1-1.14,2.44,6.9,6.9,0,0,1-4.12,3.12A16.23,16.23,0,0,1,145.86,27.3Z"/><path class="cls-1" d="M138.68,28.49c-.07-.12-.09-.12-.06-.07h0A.17.17,0,0,0,138.68,28.49Z"/><path class="cls-1" d="M50.83,34.75a3.63,3.63,0,0,0-.68-.94,2.93,2.93,0,0,0-.91-.68c-.22-.09-.68-.27-.89-.07-1.17,1.12-2.19,2.35-3.32,3.48a7.17,7.17,0,0,1-1.7,1.32l-.13.06a60.66,60.66,0,0,0,6.83-22c.08-.78-.75-1.69-1.43-2.13-.5-.33-1.41-.64-1.5.16a59.64,59.64,0,0,1-8.31,24.31,27.15,27.15,0,0,1-1-8.15c0-4.35.15-8.7.37-13a2.77,2.77,0,0,0-1.25-2c-.29-.23-1.38-.91-1.62-.25Q32.69,22,29.43,29c-2,4.24-4,8.65-7.53,12.18-.93.93,1.71,3.57,2.46,2.82,3.53-3.56,5.66-7.87,7.7-12.16,1-2.07,1.91-4.17,2.81-6.28,0,1.22,0,2.43,0,3.64.09,4.27.78,8.46,3.11,12.28.27.44,1.86,2.11,2.48,1.16.45-.7.86-1.41,1.28-2.12a2.63,2.63,0,0,0,1,.55,4.48,4.48,0,0,0,2.71-.22,5.61,5.61,0,0,0,1.9-1.33c.58-.58,1.13-1.2,1.7-1.8s1.28-1.32,1.87-2C51.12,35.48,50.92,34.94,50.83,34.75Z"/></svg>