<svg id="Layer_1" data-name="Layer 1" xmlns="http://www.w3.org/2000/svg" viewBox="0 0 193.7 54.82"><defs><style>.cls-1{fill:#fff;}</style></defs><path class="cls-1" d="M55.11,36.35a16.84,16.84,0,0,0,6-1.21,6.42,6.42,0,0,0,2.72,4.67c1.5,1,3.1.75,4.71.16A19,19,0,0,0,72.7,37.8a30.1,30.1,0,0,0,3.88-3.25c0,.3-.09.61-.11.91a5.38,5.38,0,0,0,2.36,4.73,3.59,3.59,0,0,0,4-.15,29.73,29.73,0,0,0,5.07-3.72c.72,2.25,2.76,4.22,5.21,4,2.3-.21,4.51-1.84,6.13-3.37a22,22,0,0,0,4.53-6.08,8.42,8.42,0,0,0,1.12.07,13.18,13.18,0,0,0-.7,5c.23,2.55,2.25,5.44,5,5.45s5.24-2.46,6.89-4.33a39.3,39.3,0,0,0,4-5.79c.16.12.33.23.51.34a5,5,0,0,0,.89.38,11.19,11.19,0,0,0,0,1.83A7.09,7.09,0,0,0,127,39.92a8.28,8.28,0,0,0,6.68-1.48,17.43,17.43,0,0,0,5-6.2,23.76,23.76,0,0,0,2.2-6.2,11.33,11.33,0,0,0,2.26.69,11,11,0,0,1-.46,1.06l-1.89,3.77a29,29,0,0,0-1.74,3.7,4.25,4.25,0,0,0,.92,4.65,2.45,2.45,0,0,0,2,.91,4.67,4.67,0,0,0,1.54-.74,17.1,17.1,0,0,0,2.84-2.15,44.51,44.51,0,0,0,5.36-6.34c.2-.26,0-.95-.12-1.18a4.43,4.43,0,0,0-.94-1.44c-.48-.49-1.39-1.23-1.94-.49a48.85,48.85,0,0,1-4.1,5l-.46.45c.36-.73.73-1.46,1.1-2.19A11,11,0,0,0,146.43,29c.43-2.15-1.17-4.43-3.05-5.37a8.58,8.58,0,0,0-2.23-.67l-.13,0a5,5,0,0,0-1.3-1.59c-.5-.39-1.27-.69-1.53-.07-.51.12-.4.91-.25,1.39A22.57,22.57,0,0,1,133.89,32c-1.95,2.62-5.37,5.32-8.85,4.08a2.24,2.24,0,0,1-.37-.2,9.66,9.66,0,0,1,.26-2.46c0-.19.1-.38.15-.57a4.77,4.77,0,0,0,3.52.25,9.67,9.67,0,0,0,5.25-3.72,5.5,5.5,0,0,0-.18-6.46,4.71,4.71,0,0,0-3.34-2.1A4.93,4.93,0,0,0,127.21,22a14.94,14.94,0,0,0-4.87,6.76,1.33,1.33,0,0,0-.53-.12l-.84-.05h0c-.6-1.34-2.3-2.84-2.88-1.84-1.9,3.24-3.86,6.59-6.83,9a13.39,13.39,0,0,1-2.15,1.43,4.53,4.53,0,0,1-1.44.48l-.31,0c0-.68.15-1.61.17-1.72a26.65,26.65,0,0,1,.89-3.26,34.54,34.54,0,0,1,1.41-3.47l0,0a.83.83,0,0,0,.25-.5c4,1.51,8.47-2.94,10.42-6.07,1.32-2.11,2.34-4.63,1-7a4.88,4.88,0,0,0-3.08-2.56,4.72,4.72,0,0,0-3.56,1.22,21.69,21.69,0,0,0-5,6.17c-.88,1.42-1.72,2.88-2.48,4.37a.71.71,0,0,0-.22.43l-.24.49a6.9,6.9,0,0,1-2.26,1.15,7.45,7.45,0,0,0-1-3.54c-1.16-2-3.45-4-5.9-3.13-1.91.65-2.24,2.37-1.84,4a1.15,1.15,0,0,0-1-.14,13.66,13.66,0,0,0-5.8,5.25.56.56,0,0,0-.56.13,43.49,43.49,0,0,1-6.66,5.83,20,20,0,0,1-1.73,1.15l-.37.2c.11-.61.24-1.21.37-1.82a73.84,73.84,0,0,1,3-9.88,1.6,1.6,0,0,0,.23,0,32.41,32.41,0,0,0,3.91-.85c.67-.18,1.33-.39,2-.62.28-.09.56-.19.83-.3.1,0,.29-.14.48-.23a1.19,1.19,0,0,0,.74.19c1.83-.26-.63-4.49-2.5-4-.85.21-1.68.64-2.51.9-.4.13-.81.22-1.21.33.43-.94.87-1.87,1.34-2.78.62-1.22-2.27-4.45-3-3.09a71,71,0,0,0-3.09,6.83,35.66,35.66,0,0,1-7.23.23c-.94-.07-.26,1.64-.08,2a3.09,3.09,0,0,0,2.17,1.74,34.79,34.79,0,0,0,3.68.1c-.16.49-.31,1-.46,1.47a.61.61,0,0,0-.7.1C74.64,30.36,71.35,34,67,36a7.83,7.83,0,0,1-2.7.81,4.14,4.14,0,0,1,0-.71,15.22,15.22,0,0,1,2.89-6.31A8.51,8.51,0,0,1,70,27.09l.29-.11a.74.74,0,0,1,0,.14,2.92,2.92,0,0,0,1,2.52c.27.29,1.6,1.36,1.86.48A5.21,5.21,0,0,0,72,24.69a3.93,3.93,0,0,0-4.32-1.28,8.48,8.48,0,0,0-3.42,3.09A17.29,17.29,0,0,0,62.71,29a.84.84,0,0,0-.66,0,4.17,4.17,0,0,0-.88.74c-.31.27-.63.53-1,.77a25.94,25.94,0,0,1-2.69,1.16m69.32-2.91a11.79,11.79,0,0,1,3.53-3.64,4.12,4.12,0,0,1,1.13-.51.76.76,0,0,1,.16,0,6.72,6.72,0,0,1-3.27,3.87,8.78,8.78,0,0,1-1.9.92Zm-12.6-7.29a14.17,14.17,0,0,1,4.07-4.3,2.59,2.59,0,0,1,.59-.23,12.14,12.14,0,0,1-.74,1.59,15.33,15.33,0,0,1-4.22,4.87,16.35,16.35,0,0,1-1.65,1.12C112.92,23.53,113.57,22.51,114.24,21.52ZM96.63,33.38a13.39,13.39,0,0,1-4.36,2.89,5.36,5.36,0,0,1-1.1.27l-.34,0a4,4,0,0,1,0-.71,12,12,0,0,1,6.65-8.29.4.4,0,0,0,.16-.12,10.61,10.61,0,0,0,2.19,1.93A20.54,20.54,0,0,1,96.63,33.38ZM101.18,27a5.32,5.32,0,0,1-1.72-.77c-.32-.23-.49-.32-.56-.62a1.53,1.53,0,0,1,.91-1.52,2.81,2.81,0,0,1,1.69-.22h0c0,.09.08.28.1.37A5.19,5.19,0,0,1,101.18,27Z"/><path class="cls-1" d="M61.38,20.92a9.6,9.6,0,0,0-3-6.94c-2.13-1.77-4.5-.85-6.58.52a9.08,9.08,0,0,0-4.22,6.55,7.68,7.68,0,0,0,.53,3.64,33.49,33.49,0,0,0-3.51,5.94c-1.12,2.5-1.85,5.22-.49,7.79a5.73,5.73,0,0,0,2.81,2.77c1.21.44,2.39-.11,3.49-.63a17,17,0,0,0,5.81-4.65C59.45,31.91,61.7,26.15,61.38,20.92Zm-3.15-.63a22.86,22.86,0,0,1-3.89,11,17.54,17.54,0,0,1-3.63,3.87,16.34,16.34,0,0,1-2,1.33c-.74.42-1.56.65-2.31,1A6.22,6.22,0,0,1,46.72,36a20.89,20.89,0,0,1,1.21-3,30.45,30.45,0,0,1,2.55-4.34c.18.22.36.45.55.67.37.45,1.39,1.67,2.09,1.15s-.15-1.93-.49-2.34a17.91,17.91,0,0,1-1.11-1.44A3.6,3.6,0,0,0,50.75,25a4,4,0,0,1-.1-1.06,7.12,7.12,0,0,1,2.44-4.8,9.53,9.53,0,0,1,4.62-2.42H58L58,17A10.15,10.15,0,0,1,58.23,20.29Z"/></svg>