<svg id="OKAFRICA" xmlns="http://www.w3.org/2000/svg" width="299.805" height="55.326" viewBox="0 0 299.805 55.326">
  <g id="Group_31" data-name="Group 31" transform="translate(0 0)">
    <path id="Path_115" data-name="Path 115" d="M182.667,488.672c0-1.085-.142-2.169-.236-3.507-2.809.56-5.672-1.147-8.006,1.3-10.069-3.9-18.017-2.236-23.2,4.885a17.551,17.551,0,0,0,.867,21.267,17.2,17.2,0,0,0,21.693,3.961A32.689,32.689,0,0,0,177.4,517.6c.942.142,1.934-.058,2.885.053,1.787.2,2.449-.378,2.427-2.3C182.618,506.458,182.684,497.567,182.667,488.672ZM165.281,511.33a9.612,9.612,0,0,1-9.655-9.762c-.022-5.441,4.472-10.109,9.7-10.078a10.158,10.158,0,0,1,9.753,10.122A9.823,9.823,0,0,1,165.281,511.33Zm84.8-23.009c0-3.081-.009-3.187-3.116-3.076-1.694.062-3.739-.907-4.992,1.311-9.962-5.179-18.8-1-22.854,4.21a17.707,17.707,0,0,0,.1,21.445c5.081,6.619,13.043,8.073,22.067,4.365a27.867,27.867,0,0,0,3.476,1.022c1.014.151,2.08-.067,3.1.053,1.778.209,2.263-.507,2.249-2.24C250.036,506.383,250.076,497.354,250.076,488.321ZM232.5,511.308a9.49,9.49,0,0,1-9.353-9.771c0-5.5,4.45-10.118,9.686-10.051a9.971,9.971,0,0,1,9.629,10.167A9.578,9.578,0,0,1,232.5,511.308Zm142.928-24.374a2.177,2.177,0,0,0-.538-1.551c-1.085-.831-6.424.067-7.446,1.182-9.3-4.068-17.226-2.627-22.649,4.014a17.259,17.259,0,0,0-.791,20.667c5.054,7.366,12.22,8.913,23.178,5.179a8.323,8.323,0,0,0,2.316,1.151c1.463.169,2.961.009,4.441.067,1.165.044,1.529-.453,1.525-1.583C375.441,506.351,375.463,496.643,375.432,486.934Zm-17.324,24.4a9.959,9.959,0,0,1-9.686-9.869c.027-5.21,4.628-9.935,9.713-9.975A9.881,9.881,0,0,1,367.9,501.5,9.54,9.54,0,0,1,358.108,511.335ZM104.184,484.182c-9.842-.009-17.524,7.45-17.564,17.052a17.221,17.221,0,1,0,34.438.378C121.063,491.8,113.7,484.191,104.184,484.182Zm-.4,27.108a9.627,9.627,0,0,1-9.642-9.78c-.022-5.4,4.61-10.149,9.793-10.042a10.007,10.007,0,0,1,9.606,9.975A9.5,9.5,0,0,1,103.779,511.29Zm36.714-7.646c-1.445-1.8-1.378-2.956.058-4.721,3.485-4.294,6.721-8.793,10.438-13.705-2.863,0-5.081-.142-7.268.062a4.274,4.274,0,0,0-2.7,1.387c-3.01,3.85-5.859,7.824-8.784,11.74-.32.431-.733.787-1.6,1.685v-25.9h-7.357v43.338h7.464V503.133c.2-.036.4-.067.609-.1,3.138,4.285,6.268,8.584,9.438,12.852.462.627,1.094,1.543,1.7,1.578,2.676.173,5.37.076,8.513.076C147.281,512.584,144.01,508.018,140.493,503.644ZM209.286,485.3c-.507.031-1.165.818-1.409,1.4-1.538,3.681-2.97,7.41-4.454,11.113-.867,2.156-1.774,4.294-2.934,7.095-.6-1.343-.956-2.023-1.227-2.734-1.929-5.041-3.81-10.1-5.792-15.123-.284-.711-1.009-1.7-1.6-1.751-2.392-.2-4.81-.084-7.535-.084.4,1.116.654,1.863.947,2.592,3.365,8.362,6.788,16.706,10.051,25.108a5.619,5.619,0,0,1-.08,3.7c-1.463,3.863-3.174,7.633-5,11.927,2.236,0,4.072-.12,5.881.036,1.68.142,2.481-.52,3.125-2.036,4.21-9.935,8.522-19.826,12.785-29.744,1.591-3.7,3.138-7.424,4.885-11.567C214.091,485.236,211.682,485.156,209.286,485.3Zm121.643,22.16a2.636,2.636,0,0,0-1.671.822,8.876,8.876,0,0,1-7.5,3.049,9.616,9.616,0,0,1-8.864-7.095c-1.178-4.85.711-9.535,4.69-11.656a9.647,9.647,0,0,1,11.38,1.929,3.491,3.491,0,0,0,1.916,1.231c2.418.151,4.854.058,7.308.058-1.054-6.766-9.171-12.1-17.373-11.585A17.015,17.015,0,0,0,305.021,500.5c-.249,9.731,6.152,17.3,15.643,18.3,8.82.934,16.537-5.552,17.568-11.371C335.779,507.427,333.352,507.374,330.929,507.463Zm-61.435-26.788v-3.659c0-3.823-.431-4.174-4.179-3.414a6.532,6.532,0,0,0-.645.169c-4.641,1.489-6.726,4.97-7.53,9.522-.12.671-.738,1.809-1.08,1.792-2.085-.093-2.018,1.187-1.974,2.6.044,1.311.009,2.632.009,4.25,3.121-.8,2.947,1.08,2.93,3.01-.053,5.77-.018,11.545-.018,17.315,0,5.686,0,5.632,5.619,5.539,1.583-.027,2.009-.587,1.992-2.1-.067-6.437-.022-12.874-.027-19.315,0-4.214-.013-4.214,4.13-4.628.124-.013.236-.151.467-.307.027-.578.08-1.231.084-1.885.053-4.072.049-4.068-3.859-4.4a1.734,1.734,0,0,1-.565-.284C264.76,482.089,265.044,481.826,269.494,480.675Zm18.835,3.641c-2.347.591-4.663,1.3-7.13,2-.293-.253-.742-.974-1.245-1.009a43.715,43.715,0,0,0-5.761-.013c-.311.018-.822.827-.822,1.276q-.067,14.89.018,29.775a1.843,1.843,0,0,0,1.182,1.338c1.974.147,3.965.062,6.264.062v-2.587c0-4.592-.036-9.189.013-13.781a9.539,9.539,0,0,1,6.05-8.993c3.467-1.383,3.467-1.383,3.463-5.321a5.924,5.924,0,0,1,0-.889C290.618,484.516,289.8,483.942,288.329,484.316Zm6.41,1.031c-.133.262-.253.391-.253.52-.036,10.2-.071,20.409-.036,30.611a1.661,1.661,0,0,0,1.085,1.214c2.045.124,4.1.058,6.277.058v-32.4ZM386.4,513.793c.036-3.779.009-3.779-3.712-3.774-4.53.076-3.885-.613-3.89,3.819,0,4.281-.64,3.783,3.7,3.783C387.114,517.625,386.358,518.109,386.4,513.793Zm-91.859-39.657v6.744H301.8v-6.744Z" transform="translate(-86.62 -473.276)"/>
    <path id="Path_116" data-name="Path 116" d="M259.43,502.58c0-1.085-.142-2.169-.236-3.507-2.81.56-5.672-1.147-8.006,1.3-10.069-3.9-18.017-2.236-23.2,4.885a17.551,17.551,0,0,0,.867,21.267,17.2,17.2,0,0,0,21.693,3.961,32.662,32.662,0,0,0,3.614,1.022c.942.142,1.934-.058,2.885.053,1.787.2,2.449-.378,2.427-2.3C259.381,520.366,259.448,511.475,259.43,502.58Zm-17.386,22.658a9.612,9.612,0,0,1-9.655-9.762c-.022-5.441,4.472-10.109,9.7-10.078a10.158,10.158,0,0,1,9.753,10.122A9.823,9.823,0,0,1,242.044,525.238Z" transform="translate(-163.383 -487.184)"/>
    <path id="Path_117" data-name="Path 117" d="M411.178,501.953c0-3.081-.009-3.187-3.116-3.076-1.694.062-3.739-.907-4.992,1.311-9.962-5.179-18.8-1-22.854,4.21a17.707,17.707,0,0,0,.1,21.445c5.081,6.619,13.043,8.073,22.067,4.365a27.876,27.876,0,0,0,3.476,1.022c1.014.151,2.08-.067,3.1.053,1.778.209,2.263-.507,2.249-2.24C411.138,520.015,411.178,510.986,411.178,501.953ZM393.605,524.94a9.49,9.49,0,0,1-9.353-9.771c0-5.5,4.45-10.118,9.687-10.051a9.971,9.971,0,0,1,9.629,10.167A9.578,9.578,0,0,1,393.605,524.94Z" transform="translate(-247.721 -486.908)"/>
    <path id="Path_118" data-name="Path 118" d="M693.228,500.7a2.177,2.177,0,0,0-.538-1.551c-1.085-.831-6.424.067-7.446,1.182-9.3-4.068-17.226-2.627-22.649,4.014a17.259,17.259,0,0,0-.791,20.667c5.054,7.366,12.22,8.913,23.178,5.179a8.327,8.327,0,0,0,2.316,1.151c1.463.169,2.961.009,4.441.067,1.165.044,1.529-.453,1.525-1.583C693.237,520.122,693.259,510.413,693.228,500.7Zm-17.324,24.4a9.959,9.959,0,0,1-9.686-9.869c.027-5.21,4.628-9.935,9.713-9.975a9.881,9.881,0,0,1,9.762,10.007A9.541,9.541,0,0,1,675.9,525.105Z" transform="translate(-404.416 -487.046)"/>
    <path id="Path_119" data-name="Path 119" d="M104.184,497.81c-9.842-.009-17.524,7.45-17.564,17.052a17.221,17.221,0,1,0,34.438.378C121.063,505.429,113.7,497.819,104.184,497.81Zm-.4,27.108a9.628,9.628,0,0,1-9.642-9.78c-.022-5.4,4.61-10.149,9.793-10.042a10.007,10.007,0,0,1,9.606,9.975A9.5,9.5,0,0,1,103.779,524.918Z" transform="translate(-86.62 -486.904)"/>
    <path id="Path_120" data-name="Path 120" d="M196.8,486.357c-3.716,4.916-6.952,9.412-10.438,13.706-1.435,1.767-1.5,2.927-.055,4.725,3.513,4.372,6.785,8.938,10.506,13.895-3.142,0-5.835.1-8.512-.075-.6-.039-1.235-.954-1.7-1.58-3.168-4.268-6.3-8.565-9.435-12.853l-.611.1v14.394h-7.463V475.331h7.358v25.9c.861-.9,1.278-1.257,1.6-1.685,2.922-3.919,5.771-7.893,8.785-11.739a4.259,4.259,0,0,1,2.7-1.389C191.715,486.219,193.933,486.357,196.8,486.357Z" transform="translate(-132.427 -474.417)"/>
    <path id="Path_121" data-name="Path 121" d="M312.347,543.432c1.827-4.3,3.537-8.064,5-11.926a5.628,5.628,0,0,0,.08-3.7c-3.262-8.4-6.685-16.747-10.051-25.11-.293-.729-.541-1.475-.947-2.59,2.726,0,5.145-.117,7.537.083.589.049,1.317,1.043,1.6,1.754,1.985,5.019,3.865,10.08,5.793,15.123.272.711.621,1.391,1.227,2.735,1.159-2.8,2.067-4.941,2.933-7.1,1.487-3.7,2.917-7.431,4.454-11.114.244-.583.9-1.371,1.409-1.4,2.4-.148,4.806-.066,7.641-.066-1.747,4.14-3.293,7.864-4.885,11.567-4.262,9.915-8.573,19.808-12.786,29.744-.642,1.515-1.443,2.177-3.122,2.035C316.416,543.314,314.581,543.432,312.347,543.432Z" transform="translate(-208.715 -488.161)"/>
    <path id="Path_122" data-name="Path 122" d="M611.081,509.435c-2.456,0-4.889.09-7.308-.059a3.486,3.486,0,0,1-1.916-1.234,9.648,9.648,0,0,0-11.381-1.926c-3.979,2.117-5.866,6.805-4.69,11.654a9.618,9.618,0,0,0,8.867,7.1,8.875,8.875,0,0,0,7.5-3.05,2.622,2.622,0,0,1,1.672-.824c2.422-.09,4.849-.038,7.3-.038-1.033,5.819-8.749,12.306-17.569,11.374-9.492-1-15.894-8.57-15.641-18.3a17.011,17.011,0,0,1,15.794-16.279C601.911,497.337,610.026,502.666,611.081,509.435Z" transform="translate(-359.512 -486.907)"/>
    <path id="Path_123" data-name="Path 123" d="M463.336,491.933c0-1.618.033-2.935-.009-4.249-.045-1.413-.114-2.694,1.971-2.6.344.016.963-1.122,1.081-1.793.8-4.551,2.89-8.033,7.532-9.52a6.024,6.024,0,0,1,.641-.17c3.749-.76,4.178-.409,4.18,3.413,0,1.24,0,2.481,0,3.662-4.448,1.147-4.733,1.412-4.645,4.2a1.742,1.742,0,0,0,.565.282c3.905.333,3.909.329,3.859,4.4-.008.654-.059,1.307-.086,1.882-.231.157-.342.3-.466.308-4.143.414-4.135.412-4.131,4.629.006,6.438-.037,12.876.028,19.314.016,1.51-.413,2.071-1.993,2.1-5.617.093-5.617.146-5.618-5.537,0-5.772-.034-11.544.018-17.316C466.281,493.016,466.455,491.137,463.336,491.933Z" transform="translate(-295.858 -473.276)"/>
    <path id="Path_124" data-name="Path 124" d="M514.142,531.4c-2.3,0-4.291.083-6.264-.064A1.833,1.833,0,0,1,506.7,530q-.1-14.888-.018-29.778c0-.445.512-1.255.821-1.273a43.209,43.209,0,0,1,5.763.011c.5.038.951.759,1.245,1.012,2.464-.7,4.781-1.406,7.127-2,1.48-.372,2.29.2,2.038,1.854a5.906,5.906,0,0,0-.006.888c.008,3.942.008,3.942-3.46,5.321a9.543,9.543,0,0,0-6.053,9c-.049,4.593-.01,9.185-.01,13.778Z" transform="translate(-319.926 -486.934)"/>
    <path id="Path_125" data-name="Path 125" d="M561.484,532.832c-2.182,0-4.235.068-6.276-.057a1.672,1.672,0,0,1-1.087-1.214c-.036-10.2,0-20.407.036-30.61,0-.129.122-.257.255-.521h7.073Z" transform="translate(-346.29 -488.358)"/>
    <path id="Path_126" data-name="Path 126" d="M747.74,555.929c3.717,0,3.747,0,3.708,3.776-.044,4.317.712,3.83-3.9,3.828-4.346,0-3.705.5-3.7-3.786C743.85,555.317,743.206,556.005,747.74,555.929Z" transform="translate(-451.666 -519.186)"/>
    <path id="Path_127" data-name="Path 127" d="M554.353,475.211h7.254v6.742h-7.254Z" transform="translate(-346.428 -474.351)"/>
  </g>
</svg>
