<svg xmlns="http://www.w3.org/2000/svg" width="132.807" height="42.411" viewBox="0 0 132.807 42.411">
  <g id="ONE_TV" data-name="ONE TV" transform="translate(0)">
    <g id="Group_28" data-name="Group 28" transform="translate(0 0)">
      <path id="Path_95" data-name="Path 95" d="M262.741,591.955a21.126,21.126,0,0,1-21.528,21.119c-11.477-.006-20.842-9.6-20.828-21.348a21.178,21.178,0,1,1,42.356.229Zm-21.179,14.56a14.627,14.627,0,1,0-14.623-14.7A14.641,14.641,0,0,0,241.562,606.515Z" transform="translate(-220.385 -570.663)"/>
      <path id="Path_96" data-name="Path 96" d="M476.647,580.043c3.179,0,6.087-.017,8.995.026a1.406,1.406,0,0,1,.874.588q10.795,14.218,21.561,28.458,3.238,4.278,6.479,8.554c.185.245.355.5.645.911h-3.618c-1.678,0-3.357.036-5.032-.027a1.7,1.7,0,0,1-1.151-.571q-12.759-16.78-25.468-33.6Z" transform="translate(-427.985 -578.259)"/>
      <path id="Path_97" data-name="Path 97" d="M759.867,580.425v7.408H722.4v-7.408Z" transform="translate(-627.068 -578.571)"/>
      <path id="Path_98" data-name="Path 98" d="M722.107,669.661v-7.356h37.518v7.356Z" transform="translate(-626.834 -644.903)"/>
      <path id="Path_99" data-name="Path 99" d="M722.209,751.175V743.79h37.515v7.385Z" transform="translate(-626.917 -710.915)"/>
      <path id="Path_100" data-name="Path 100" d="M647.438,609.452c-1.583-2.086-2.994-3.943-4.4-5.8a25.026,25.026,0,0,0-1.669-2.183,5.5,5.5,0,0,1-1.438-4.2c.094-5.216.035-10.435.035-15.653v-1.189h7.476Z" transform="translate(-560.258 -578.568)"/>
      <path id="Path_101" data-name="Path 101" d="M484.614,659.547h-7.366V630.666c.238.259.435.44.593.649,2.123,2.8,4.252,5.593,6.346,8.413A2.339,2.339,0,0,1,484.67,641c.031,5.952.022,11.9.018,17.857A6.663,6.663,0,0,1,484.614,659.547Z" transform="translate(-428.472 -619.272)"/>
      <path id="Path_102" data-name="Path 102" d="M291.812,659.114v7.208h-2.671v-7.189h-2.752V656.69c.364-.017.7-.046,1.036-.047,2.624,0,5.249.037,7.872-.025a1.183,1.183,0,0,1,1.368,1.022,51.831,51.831,0,0,0,2.038,5.591l.765-2.285c.4-1.2.836-2.387,1.192-3.6a.844.844,0,0,1,1.013-.716c.624.043,1.254.01,1.949.01a3.771,3.771,0,0,1-.1.61c-1.024,2.82-2.065,5.635-3.076,8.46a.875.875,0,0,1-.939.7c-2.49.05-2.489.069-3.338-2.266-.5-1.365-1.043-2.715-1.473-4.1-.227-.733-.57-1.048-1.342-.944A12.494,12.494,0,0,1,291.812,659.114Z" transform="translate(-273.855 -640.295)"/>
    </g>
  </g>
</svg>
