<svg id="ONE_TV" data-name="ONE TV" xmlns="http://www.w3.org/2000/svg" width="127.718" height="40.791" viewBox="0 0 127.718 40.791">
  <g id="Group_28" data-name="Group 28" transform="translate(0 0)">
    <path id="Path_95" data-name="Path 95" d="M261.118,591.139a20.367,20.367,0,1,1-20.256-20.477,20.315,20.315,0,0,1,20.256,20.477Zm-20.367,14a14.08,14.08,0,1,0-9.965-4.15,14.067,14.067,0,0,0,9.965,4.15Z" transform="translate(-220.385 -570.662)" fill="#877b8d"/>
    <path id="Path_96" data-name="Path 96" d="M476.647,580.043c3.057,0,5.854-.016,8.65.025a1.352,1.352,0,0,1,.841.565Q496.519,594.307,506.873,608q3.114,4.114,6.231,8.226c.178.236.341.481.62.876h-3.479c-1.614,0-3.228.035-4.839-.026a1.635,1.635,0,0,1-1.107-.549q-12.27-16.137-24.492-32.312Z" transform="translate(-429.85 -578.327)" fill="#877b8d"/>
    <path id="Path_97" data-name="Path 97" d="M758.431,580.425v7.124H722.4v-7.124Z" transform="translate(-630.721 -578.641)" fill="#877b8d"/>
    <path id="Path_98" data-name="Path 98" d="M722.107,669.379V662.3h36.08v7.074Z" transform="translate(-630.485 -645.569)" fill="#877b8d"/>
    <path id="Path_99" data-name="Path 99" d="M722.209,750.892v-7.1h36.077v7.1Z" transform="translate(-630.569 -712.174)" fill="#877b8d"/>
    <path id="Path_100" data-name="Path 100" d="M647.15,608.34c-1.522-2.006-2.879-3.792-4.231-5.578a24.07,24.07,0,0,0-1.605-2.1,5.289,5.289,0,0,1-1.383-4.039c.09-5.016.034-10.035.034-15.053v-1.143h7.19Z" transform="translate(-563.31 -578.639)" fill="#877b8d"/>
    <path id="Path_101" data-name="Path 101" d="M484.332,658.44h-7.084V630.666c.229.249.418.423.57.624,2.042,2.693,4.089,5.379,6.1,8.091a2.25,2.25,0,0,1,.465,1.223c.03,5.724.021,11.444.017,17.173A6.385,6.385,0,0,1,484.332,658.44Z" transform="translate(-430.341 -619.708)" fill="#877b8d"/>
    <path id="Path_102" data-name="Path 102" d="M291.6,659.018v6.932h-2.569v-6.914h-2.647v-2.349c.35-.016.673-.044,1-.045,2.523,0,5.048.036,7.57-.024a1.138,1.138,0,0,1,1.316.983,49.855,49.855,0,0,0,1.96,5.377l.736-2.2c.385-1.154.8-2.3,1.146-3.462a.812.812,0,0,1,.974-.689c.6.041,1.206.01,1.874.01a3.628,3.628,0,0,1-.1.587c-.985,2.712-1.986,5.419-2.958,8.136a.841.841,0,0,1-.9.673c-2.395.048-2.394.066-3.21-2.179-.481-1.313-1-2.611-1.417-3.943-.218-.7-.548-1.008-1.291-.908a12.034,12.034,0,0,1-1.483.013Z" transform="translate(-274.335 -640.919)" fill="#877b8d"/>
  </g>
</svg>
