<svg id="PBS" xmlns="http://www.w3.org/2000/svg" width="86.811" height="43.502" viewBox="0 0 86.811 43.502">
  <path id="Path_103" data-name="Path 103" d="M574.5,180.3a21.751,21.751,0,1,1,21.75,21.747A21.752,21.752,0,0,1,574.5,180.3m34.222.155h2.351l-5.282-12.046h-3.462l5.3,12.046h-2.414v3.2c.008,1.937-.807,2.766-3.441,2.729v6.17H605.2v-6.17h1.133a2.376,2.376,0,0,0,2.38-2.37v-3.558Zm-16.616-12.046c-5.3,0-9.658,3.7-9.658,9.185,0,4.616,2.78,7.908,6.924,8.539v6.419H598v-6.17h1.2a2.393,2.393,0,0,0,2.363-2.359v-3.569h2.351l-5.348-12.046Zm4.764,10.451a2.223,2.223,0,1,0-1.575-.651,2.224,2.224,0,0,0,1.575.651" transform="translate(-574.5 -158.549)" fill="#877b8d"/>
  <path id="Path_104" data-name="Path 104" d="M782.456,219.38h-2v-2.469h6.6c3.577,0,5.627,1.844,5.627,4.747,0,2.956-2.143,4.757-5.535,4.757h-1.809v3.756h2.337v2.483h-7.244v-2.483h2.019Zm2.885,4.555h1.923a2.292,2.292,0,1,0,0-4.559h-1.923Z" transform="translate(-731.457 -203.027)" fill="#877b8d"/>
  <path id="Path_105" data-name="Path 105" d="M837.326,219.38h-1.812v-2.469h6.326c3.918,0,5.164,2.344,5.164,4.053a3.443,3.443,0,0,1-1.9,3.166,4.135,4.135,0,0,1,2.471,3.712c0,3.43-2.693,4.808-5.271,4.808h-7v-2.478h2.019V219.38Zm2.885,10.792h1.838a2.256,2.256,0,1,0,0-4.476h-1.838Zm0-6.959h1.725a1.932,1.932,0,1,0,0-3.833h-1.724Z" transform="translate(-773.279 -203.027)" fill="#877b8d"/>
  <path id="Path_106" data-name="Path 106" d="M901.859,218.641a5.356,5.356,0,0,0-1.867-.378c-1.929,0-2.545,1.118-2.545,1.992,0,1.138.738,1.474,1.654,1.72l1.666.469c2.051.583,4.317,1.339,4.317,4.581,0,2.972-1.79,5.139-5.748,5.139a13.821,13.821,0,0,1-4.992-.866v-4.135h2.905v2.054a5.53,5.53,0,0,0,2.347.408c1.709,0,2.465-.92,2.465-2.105,0-.8-.4-1.383-2.267-1.919l-1.533-.447c-2.865-.825-3.836-2.08-3.836-4.49,0-2.487,1.551-4.673,5.487-4.673a12.106,12.106,0,0,1,4.575.825v3.734h-2.626v-1.9Z" transform="translate(-818.273 -202.323)" fill="#877b8d"/>
</svg>
