<svg id="Group_1387" data-name="Group 1387" xmlns="http://www.w3.org/2000/svg" width="222.02" height="83.996" viewBox="0 0 222.02 83.996">
  <path id="Path_921" data-name="Path 921" d="M73.139,112.679Z" transform="translate(-31.972 -58.096)" fill="#fff"/>
  <path id="Path_922" data-name="Path 922" d="M73.1,112.642Z" transform="translate(-31.92 -58.059)" fill="#fff"/>
  <path id="Path_923" data-name="Path 923" d="M155.988,109.39a10.2,10.2,0,0,0-3.326-3.739,16.945,16.945,0,0,0,.828-4.54,12.071,12.071,0,0,0-3.243-8.141c-1.656-1.932-4.029-4.015-6.706-4.14a4.664,4.664,0,0,0-4.692,3.96,8.279,8.279,0,0,0,.469,4.512,26.494,26.494,0,0,0-19.47,12.584,28.24,28.24,0,0,0-2.663,5.63,14.857,14.857,0,0,0-1.877,1.021c-1.614,1.063-3.229,2.125-4.9,3.118a42.631,42.631,0,0,1-10.625,5.106,14.479,14.479,0,0,1-4.485.538,5.576,5.576,0,0,1-.828-.124,26.245,26.245,0,0,1,1.132-6.113,1.222,1.222,0,0,0,.317,0c7.81-2.07,16.145-4.554,22.078-10.294,3.077-2.967,5.685-6.734,3.45-11.039a12.425,12.425,0,0,0-5.906-5.671,11.262,11.262,0,0,0-6.444-.331c-8.555,1.683-14.42,8.679-17.731,16.338-.455,1.049-.925,2.166-1.38,3.326a89.81,89.81,0,0,1-7.52,6.651A24.471,24.471,0,0,1,77.79,121.3a6.461,6.461,0,0,1-2.484.566,4.132,4.132,0,0,1-1.09-.083l-.373-.1h0c-.731-.552-2.76-1.628-2.539.193a8.44,8.44,0,0,0,3.312,4.705,8.279,8.279,0,0,0,6.541,1.835,14.416,14.416,0,0,0,5.726-2.925c.759-.552,1.476-1.131,2.208-1.711a13.8,13.8,0,0,0,8.845,8.058c4.83,1.118,9.77-.994,13.937-3.243,2.042-1.118,4-2.373,5.933-3.684a13.385,13.385,0,0,0,3.657,4c2.346,1.711,4.705,1.38,7.327.7a34.681,34.681,0,0,0,19.87-15.689c.745-1.228,1.5-2.539,2.194-3.919a22.464,22.464,0,0,0,4.512,1.932C157.216,112.523,156.443,110.218,155.988,109.39ZM109.941,99.9a17.622,17.622,0,0,1,4.471-1.38c.414,0,.828-.083,1.228-.11a8.786,8.786,0,0,1-.773,1.228,24.412,24.412,0,0,1-3.477,3.684,40.6,40.6,0,0,1-11.936,6.775A24.637,24.637,0,0,1,109.941,99.9Zm30.054,11.743A32.794,32.794,0,0,1,124.444,122.6c-.511.152-1.021.276-1.532.4a.82.82,0,0,1,.11-.5,23.61,23.61,0,0,1,4.264-8.624,25.98,25.98,0,0,1,16.3-9.8c.235.276.483.566.745.842A37.5,37.5,0,0,1,139.995,111.639Zm6.9-13.343a27.307,27.307,0,0,1-1.214,3.519,3.764,3.764,0,0,1-.345-.511l-.11-.221a3.975,3.975,0,0,1,0-3.574,3.7,3.7,0,0,1,1.559-1.545,1.879,1.879,0,0,1,.511-.138,12.65,12.65,0,0,1-.345,2.47Z" transform="translate(-32.607 -67.102)" fill="#fff"/>
  <path id="Path_924" data-name="Path 924" d="M230.685,118.366a34.969,34.969,0,0,1-17.235,10.942,16.677,16.677,0,0,1-5,.787,10.13,10.13,0,0,1-4.981-2.18,8.08,8.08,0,0,1-1.2-.869h0a3.568,3.568,0,0,1-.235-1.007c.869-.787,1.711-1.587,2.539-2.415a.967.967,0,0,0,.248-.58,9.034,9.034,0,0,0,2.76.773,16.155,16.155,0,0,0,6.665-.925A33.806,33.806,0,0,0,225.8,116.6a22.085,22.085,0,0,0,4.554-4.788,6.35,6.35,0,0,0,.124-6.789c-2.5-4.8-7.382-7.865-12.764-6.4-7.838,2.139-15.648,7.148-19.553,14.42a15.316,15.316,0,0,0-1.987,7.148,52,52,0,0,1-8.279,5.768,43.955,43.955,0,0,1-6.223,3.008,11.811,11.811,0,0,1-1.38.331v-.152a97.871,97.871,0,0,1,4.333-13.164,112.612,112.612,0,0,0,8.679-7.534A73.775,73.775,0,0,0,204.2,95.2c2.87-4.54,6.306-9.852,3.767-15.179-2.194-4.65-7.893-9.535-12.778-5.34-2.125,1.821-3.284,4.912-4.471,7.369-1.6,3.27-3.16,6.554-4.65,9.88q-4.14,9.051-7.465,18.38c-2.677,2.111-5.451,4.14-8.279,6.085a14.479,14.479,0,0,0,.69-5.519,10.887,10.887,0,0,0-7.12-8.279c-2.856-.759-5.161.883-7.286,2.608l-5.423,4.4a79.433,79.433,0,0,1,9.563-14.033c1.587-1.835-4.305-8.017-5.589-6.554-15.841,18.021-19.636,43.328-35.656,61.183-1.642,1.835,4.347,8.155,5.685,6.651,6.665-7.41,11.2-16.117,15.372-25.045a.172.172,0,0,1,.1-.138,22.766,22.766,0,0,1,4.14-6,13.474,13.474,0,0,0,6.127,7.106,8,8,0,0,0,8.031-.179,18.278,18.278,0,0,0,3.877-2.994,1.614,1.614,0,0,0,1.614.207c3.326-2.056,6.623-4.14,9.88-6.32a11.438,11.438,0,0,0-.248,4.057,12.113,12.113,0,0,0,4.981,7.506c2.636,1.877,5.188,1.642,8.072.5a47.832,47.832,0,0,0,12.115-7.106,26.339,26.339,0,0,0,10.584,7.934c4.609,1.849,10.142-.248,14.378-2.249a35.622,35.622,0,0,0,11.936-9.176C237.722,123,231.9,116.917,230.685,118.366ZM197.857,85.387c1.09-2.153,2.346-4.595,4.774-5.423l.331-.083a13.512,13.512,0,0,1-1.38,3.864,60.669,60.669,0,0,1-9.535,14.061C193.911,93.583,195.8,89.416,197.857,85.387ZM164.575,109.8a27.231,27.231,0,0,1-5.768,11.412,20.434,20.434,0,0,1-5.423,4.733,6.7,6.7,0,0,1-3.519.938,10.561,10.561,0,0,0-2.76-3.146l-.248-.179c.828-.759,1.7-1.5,2.594-2.222,3.877-3.118,7.879-6.1,11.8-9.176a25.179,25.179,0,0,1,3.408-2.5A.879.879,0,0,0,164.575,109.8Zm51.055-1.656c2.76-1.476,6.154-3.215,9.369-3.284a1.255,1.255,0,0,1-.083.193A15.749,15.749,0,0,1,221.453,109a34.688,34.688,0,0,1-9.8,6.265,24.119,24.119,0,0,1-5.754,1.752l-.787.11a29.494,29.494,0,0,1,10.487-8.983Z" transform="translate(-14.397 -73.084)" fill="#fff"/>
  <path id="Path_925" data-name="Path 925" d="M103.617,84.289A19.554,19.554,0,0,0,93.3,75.071c-4.291-1.38-8.942-.58-13.192.552A58.081,58.081,0,0,0,53.942,90.884c-1.656,1.614,3.933,7.824,5.4,6.444A58.132,58.132,0,0,1,77.4,85.144c-.8,2.677-1.628,5.34-2.663,7.962a116.1,116.1,0,0,1-8.279,16.9c-1.09,1.821-2.235,3.588-3.408,5.354a20.765,20.765,0,0,1-7.727-3.974c-.9-.731-2.76-1.6-2.677.207s2.222,3.919,3.491,4.968a28.46,28.46,0,0,0,4.14,2.76,126.971,126.971,0,0,1-16.724,18.711c-1.614,1.476,3.836,7.782,5.52,6.375a114.31,114.31,0,0,0,19.318-21.9,28.2,28.2,0,0,0,11.481.193,33.119,33.119,0,0,0,20.243-13.688C105.246,101.73,108.2,92.582,103.617,84.289ZM99.2,92.347a31.042,31.042,0,0,1-5.009,10.239,32.694,32.694,0,0,1-16.793,12.5,27.736,27.736,0,0,1-4.885.938,1.179,1.179,0,0,0,.1-.138A123.02,123.02,0,0,0,80.573,99.84,79.01,79.01,0,0,0,86.01,82.3c1.132-.262,2.263-.5,3.395-.676a20.547,20.547,0,0,1,5.285-.207,10.3,10.3,0,0,1,2.649.635,5.86,5.86,0,0,1,.98.469l.262.152c1.946,2.442,1.269,6.955.58,9.673Z" transform="translate(-43.256 -72.606)" fill="#fff"/>
</svg>
