<svg xmlns="http://www.w3.org/2000/svg" width="206.257" height="207.545" viewBox="0 0 206.257 207.545"><g transform="translate(-88.834 -276.141)"><g transform="translate(145.432 291.855)"><rect width="146.099" height="188.274" transform="translate(1.78 1.778)" fill="#fff"/><path d="M268.524,476.8h-146.1a1.779,1.779,0,0,1-1.779-1.779V286.752a1.779,1.779,0,0,1,1.779-1.779h146.1a1.779,1.779,0,0,1,1.779,1.779V475.025A1.779,1.779,0,0,1,268.524,476.8ZM124.2,473.245H266.745V288.531H124.2Z" transform="translate(-120.645 -284.973)" fill="#2b206a"/></g><g transform="translate(131.528 276.145)"><path d="M259.933,326.077V465.421H113.83V277.143H211Z" transform="translate(-112.051 -275.364)" fill="#fff"/><path d="M260.713,467.981h-146.1a1.778,1.778,0,0,1-1.779-1.779V277.922a1.778,1.778,0,0,1,1.779-1.779h97.168a1.774,1.774,0,0,1,1.258.521L261.97,325.6a1.785,1.785,0,0,1,.521,1.258V466.2A1.779,1.779,0,0,1,260.713,467.981Zm-144.324-3.558H258.933V327.594L211.041,279.7H116.388Z" transform="translate(-112.83 -276.143)" fill="#2b206a"/></g><g transform="translate(228.696 276.141)"><path d="M217.377,326.077H168.443V277.143Z" transform="translate(-166.663 -275.36)" fill="#cbc5ce"/><path d="M218.158,328.637H169.222a1.779,1.779,0,0,1-1.779-1.779V277.924a1.779,1.779,0,0,1,3.037-1.258L219.416,325.6a1.779,1.779,0,0,1-1.258,3.037ZM171,325.078h42.861L171,282.219Z" transform="translate(-167.443 -276.141)" fill="#2b206a"/></g><g transform="translate(88.834 313.837)"><g transform="translate(12.234)"><path d="M150.288,377.305H104.05a7.337,7.337,0,0,1-7.339-7.339v-41.18a30.458,30.458,0,0,1,60.917,0v41.18A7.339,7.339,0,0,1,150.288,377.305Zm-38.9-14.678h31.56V328.786a15.78,15.78,0,0,0-31.56,0Z" transform="translate(-94.93 -296.549)" fill="#cbc5ce"/><path d="M151.068,379.864H104.83a9.13,9.13,0,0,1-9.12-9.118v-41.18a32.238,32.238,0,0,1,64.477,0v41.18A9.129,9.129,0,0,1,151.068,379.864Zm-23.119-78.977a28.713,28.713,0,0,0-28.681,28.679v41.18a5.568,5.568,0,0,0,5.562,5.56h46.238a5.568,5.568,0,0,0,5.56-5.56v-41.18A28.713,28.713,0,0,0,127.949,300.886Zm15.78,64.3h-31.56a1.779,1.779,0,0,1-1.779-1.779V329.565a17.559,17.559,0,1,1,35.118,0v33.841A1.779,1.779,0,0,1,143.729,365.185Zm-29.78-3.558h28V329.565a14,14,0,1,0-28,0Z" transform="translate(-95.71 -297.328)" fill="#2b206a"/></g><g transform="translate(0 44.34)"><rect width="85.384" height="85.384" rx="5.367" transform="translate(1.78 1.779)" fill="#cbc5ce"/><path d="M166.448,411.19H100.164a11.342,11.342,0,0,1-11.33-11.328V333.577a11.342,11.342,0,0,1,11.33-11.328h66.284a11.342,11.342,0,0,1,11.33,11.328v66.284A11.342,11.342,0,0,1,166.448,411.19Zm-66.284-85.383a7.78,7.78,0,0,0-7.772,7.77v66.284a7.78,7.78,0,0,0,7.772,7.77h66.284a7.78,7.78,0,0,0,7.772-7.77V333.577a7.78,7.78,0,0,0-7.772-7.77Z" transform="translate(-88.834 -322.249)" fill="#2b206a"/></g><g transform="translate(29.745 65.763)"><path d="M132.738,348.383a13.093,13.093,0,1,0-19.379,11.487v17.958h12.57V359.87A13.089,13.089,0,0,0,132.738,348.383Z" transform="translate(-104.773 -333.511)" fill="#ff7051"/><path d="M126.709,380.386h-12.57a1.779,1.779,0,0,1-1.779-1.779V361.66a14.873,14.873,0,1,1,16.129,0v16.947A1.778,1.778,0,0,1,126.709,380.386Zm-10.791-3.558h9.012V360.649a1.781,1.781,0,0,1,.923-1.56,11.313,11.313,0,1,0-10.859,0,1.781,1.781,0,0,1,.923,1.56Z" transform="translate(-105.552 -334.29)" fill="#2b206a"/></g></g><g transform="translate(145.432 291.855)"><line x2="16.553" transform="translate(1.78 1.778)" fill="#fff"/><path d="M138.978,288.531H122.424a1.779,1.779,0,1,1,0-3.558h16.554a1.779,1.779,0,0,1,0,3.558Z" transform="translate(-120.645 -284.973)" fill="#2b206a"/></g><g transform="translate(171.704 291.855)"><line x2="42.292" transform="translate(1.779 1.778)" fill="#fff"/><path d="M179.482,288.531H137.19a1.779,1.779,0,1,1,0-3.558h42.292a1.779,1.779,0,0,1,0,3.558Z" transform="translate(-135.411 -284.973)" fill="#2b206a"/></g><g transform="translate(145.432 302.845)"><line x2="68.563" transform="translate(1.78 1.78)" fill="#fff"/><path d="M190.988,294.708H122.424a1.779,1.779,0,1,1,0-3.558h68.564a1.779,1.779,0,1,1,0,3.558Z" transform="translate(-120.645 -291.15)" fill="#2b206a"/></g><g transform="translate(194.416 341.096)"><line x2="68.563" transform="translate(1.778 1.78)" fill="#fff"/><path d="M218.517,316.207H149.955a1.779,1.779,0,0,1,0-3.558h68.562a1.779,1.779,0,0,1,0,3.558Z" transform="translate(-148.176 -312.649)" fill="#2b206a"/></g><g transform="translate(194.416 353.325)"><line x2="68.563" transform="translate(1.778 1.78)" fill="#fff"/><path d="M218.517,323.08H149.955a1.779,1.779,0,1,1,0-3.558h68.562a1.779,1.779,0,1,1,0,3.558Z" transform="translate(-148.176 -319.522)" fill="#2b206a"/></g><g transform="translate(194.416 365.555)"><line x2="68.563" transform="translate(1.778 1.779)" fill="#fff"/><path d="M218.517,329.954H149.955a1.779,1.779,0,1,1,0-3.558h68.562a1.779,1.779,0,1,1,0,3.558Z" transform="translate(-148.176 -326.396)" fill="#2b206a"/></g><g transform="translate(194.416 390.016)"><line x2="10.164" transform="translate(1.778 1.778)" fill="#fff"/><path d="M160.118,343.7H149.955a1.779,1.779,0,1,1,0-3.558h10.163a1.779,1.779,0,1,1,0,3.558Z" transform="translate(-148.176 -340.144)" fill="#2b206a"/></g><g transform="translate(213.4 390.016)"><line x2="10.164" transform="translate(1.779 1.778)" fill="#fff"/><path d="M170.79,343.7H160.625a1.779,1.779,0,1,1,0-3.558H170.79a1.779,1.779,0,1,1,0,3.558Z" transform="translate(-158.846 -340.144)" fill="#2b206a"/></g><g transform="translate(233.347 390.016)"><line x2="24.9" transform="translate(1.779 1.778)" fill="#fff"/><path d="M196.734,343.7h-24.9a1.779,1.779,0,1,1,0-3.558h24.9a1.779,1.779,0,1,1,0,3.558Z" transform="translate(-170.057 -340.144)" fill="#2b206a"/></g><g transform="translate(213.996 406.031)"><line x2="44.25" transform="translate(1.779 1.781)" fill="#fff"/><path d="M205.209,352.7H160.96a1.779,1.779,0,1,1,0-3.558h44.249a1.779,1.779,0,1,1,0,3.558Z" transform="translate(-159.181 -349.145)" fill="#2b206a"/></g></g></svg>