<svg xmlns="http://www.w3.org/2000/svg" width="216.423" height="70.511" viewBox="0 0 216.423 70.511">
  <g id="Group_1388" data-name="Group 1388" transform="translate(0 0.001)">
    <path id="Path_926" data-name="Path 926" d="M301.829,90.278a22.56,22.56,0,0,0-22.271-13.109c-5.52.442-10.6,2.622-15.537,4.857-5.519,2.47-10.942,5-16.407,7.507-1.463.676,3.16,7.507,5.52,6.458,6.817-3.022,13.633-6.527,20.7-9.107q-7.093,13.537-14.737,26.769c-.8,1.38-1.614,2.76-2.429,4.14a11.379,11.379,0,0,1-5.147-2.76c-.662-.649-2.76-2.553-3.5-1.076s1.918,4.14,2.691,4.885a22.483,22.483,0,0,0,3.574,2.76,67.873,67.873,0,0,1-15.33,17.455c-1.683,1.283,3.767,8.017,5.63,6.6,7.382-5.63,12.736-13.123,17.538-20.946,11.522,2.346,24.838-3.629,32.8-12C300.614,106.767,305.692,98.529,301.829,90.278ZM289.41,105.718a40.387,40.387,0,0,1-17.138,10.9,42.289,42.289,0,0,1-6.154,1.38q9.217-15.855,17.442-32.234a1.741,1.741,0,0,0-.083-1.38,24.187,24.187,0,0,1,4.8-.152c2.594.207,6.541.925,8.017,3.381C299.855,93.41,293.135,101.8,289.41,105.718Z" transform="translate(-238.629 -75.338)" fill="#fff"/>
    <path id="Path_927" data-name="Path 927" d="M437.891,115.628a22.753,22.753,0,0,1-7.12,10.611,11.351,11.351,0,0,0,.469-1.38c1.725-7.782-4.36-14.364-5.423-21.692-.207-1.38-4.664-7.6-5.961-5.161a75.573,75.573,0,0,1-15.179,19.608,77.284,77.284,0,0,1-9.728,7.713,24.808,24.808,0,0,1-5.52,2.967,12.068,12.068,0,0,1-2.856.635,7.93,7.93,0,0,1-1.145,0H385.3a2.973,2.973,0,0,1,0-.607,16.076,16.076,0,0,1,.552-2.76c.193-.7.428-1.38.676-2.111l.4-.4a21.083,21.083,0,0,0,20.7-11.039,10,10,0,0,0-1.7-12.419c-3.684-3.864-8.127-2.76-12.419-.262a27.6,27.6,0,0,0-9.825,10.873,54.377,54.377,0,0,0-2.856,5.975c-.662.1-.676.731-.511,1.38h0c-1.67,1.283-3.256,2.76-4.954,3.974a43.825,43.825,0,0,1-7.134,4.347,24.988,24.988,0,0,1-8.114,2.373,18.758,18.758,0,0,1-3.836,0c.1-.469.193-.938.317-1.38a32.216,32.216,0,0,1,1.3-3.574,30.77,30.77,0,0,1,1.463-2.856l.179-.166a.969.969,0,0,0,.276-.649c.607-1.007,1.256-2,1.959-2.953a50.579,50.579,0,0,1,4.843-5.616,25.383,25.383,0,0,1,5.133-4.278,55.038,55.038,0,0,1-5.119,6.6c-1.559,1.711,4.14,7.755,5.409,6.32a52.134,52.134,0,0,0,6.761-8.942,5.518,5.518,0,0,0,1.145-3.988,11.1,11.1,0,0,0-4.264-6.1c-6.306-4.871-12.667,1.38-16.793,6.044a42.6,42.6,0,0,0-5.52,7.644c-2.608,2.415-5.313,4.747-8.086,6.968-1.38,1.049-2.677,2.084-4.057,3.077.166-.469.3-.938.455-1.38,1.145-3.394,2.415-6.734,3.836-10.032.718-1.642-4.305-7.493-5.671-6.016a147.991,147.991,0,0,1-13.688,13.8,57.188,57.188,0,0,1-7.838,5.63l-.483.276a37.248,37.248,0,0,1,10.28-15.179,28.1,28.1,0,0,1,7.162-5.106,15.711,15.711,0,0,1,4.581-1.38,13.441,13.441,0,0,1,1.49-.1c1.532,2.1,4.278,4.14,4.733,2.76,1.076-3.188-2.58-7.093-5.064-8.514-2.76-1.559-6.223-1.256-9.121-.29-6.182,2.056-11.149,7.106-14.972,12.212l-1.076,1.49a.939.939,0,0,0-.869.138,79.2,79.2,0,0,1-11.274,8.721c-2.015,1.269-4.14,2.456-6.182,3.574-.386.207-1.38.773-2.36,1.3a2.373,2.373,0,0,1,.1-.29q1.008-3.173,2.111-6.292c.331-.911.676-1.808,1.007-2.76a25.6,25.6,0,0,1,3.063-1.187c10.211-3.864,19.194-16.558,18.421-27.6a14.905,14.905,0,0,0-2.9-7.976c-1.38-1.794-3.946-4.678-6.527-4.36s-3.74,4.264-4.747,6.113q-2.4,4.374-4.581,8.831-4.485,9.149-8.086,18.711c-.193.511-.359,1.035-.552,1.559a8.351,8.351,0,0,0-1.656,1.38c-3.036,3.491-5.837,7.093-9.19,10.308s-7.617,6.527-12.419,5.519c-1.725-.386-1.035,1.559-.58,2.442.718,1.38,2.4,3.56,4.071,3.946,6.14,1.38,11.177-2.332,15.358-6.43.262-.262.524-.552.787-.828a11.344,11.344,0,0,0,6.251,6.389c2.76.925,5.726-.856,8.114-2.125a64.8,64.8,0,0,0,8.114-5.216,9.356,9.356,0,0,0,.455,1.614c1.187,3.008,4.429,6.9,7.989,6.9,3.05,0,6.43-3.008,8.748-4.747,1.752-1.38,3.422-2.76,5.037-4.14a6.3,6.3,0,0,0,0,1.021,10.116,10.116,0,0,0,4.029,6.292,4.458,4.458,0,0,0,5.34.58,50.5,50.5,0,0,0,5.52-3.905c.814-.607,1.559-1.269,2.346-1.89a12.787,12.787,0,0,0,5.727,6.14,15.927,15.927,0,0,0,10,.9,31.092,31.092,0,0,0,11.163-4.65c.856-.552,1.725-1.132,2.594-1.739a12.949,12.949,0,0,0,7.106,6.734c4.954,1.711,9.949-1.228,13.909-3.96a78.334,78.334,0,0,0,21.83-23.154,21.312,21.312,0,0,1,2.208,9.011,8.622,8.622,0,0,1-11.039,8.058c-2.76-.842.179,3.836.648,4.388,4.14,4.761,10.1,7.589,16.393,5.685s10.349-7.907,12.419-13.95C444.694,119.23,438.623,113.559,437.891,115.628ZM313.33,84.733a6.148,6.148,0,0,1,.649-.814,18.426,18.426,0,0,1-.483,4.567,28.483,28.483,0,0,1-5.216,10.832,38.668,38.668,0,0,1-4.9,5.409A204.4,204.4,0,0,1,313.33,84.733Zm88.8,19.787.469-.166a15.2,15.2,0,0,1-.994,2.153,20.049,20.049,0,0,1-11.536,9.176,32.414,32.414,0,0,1,3.45-4.871A21.767,21.767,0,0,1,402.125,104.52Z" transform="translate(-227.431 -75.823)" fill="#fff"/>
  </g>
</svg>
