<?xml version="1.0" encoding="utf-8"?>
<!-- Generator: Adobe Illustrator 25.3.1, SVG Export Plug-In . SVG Version: 6.00 Build 0)  -->
<svg version="1.1" id="Layer_1" xmlns="http://www.w3.org/2000/svg" xmlns:xlink="http://www.w3.org/1999/xlink" x="0px" y="0px"
	 viewBox="0 0 1923.5 801.8" style="enable-background:new 0 0 1923.5 801.8;" xml:space="preserve">
<style type="text/css">
	.st0{fill:#F6F7FA;}
	.st1{opacity:0.1;fill:#433E52;enable-background:new    ;}
</style>
<path class="st0" d="M0,0h1923.5v626.7l-1216,175.2L0,670.1V0z"/>
<path class="st1" d="M314.6,659.1c0-20.9,17-37.9,37.9-37.9c20.9,0,37.9,17,37.9,37.9c0,20.9-17,37.9-37.9,37.9
	C331.5,697,314.6,680,314.6,659.1L314.6,659.1L314.6,659.1z M231.2,659.1c0-20.9,17-37.9,37.9-37.9c20.9,0,37.9,17,37.9,37.9
	c0,20.9-17,37.9-37.9,37.9l0,0C248.2,697,231.2,680,231.2,659.1C231.2,659.1,231.2,659.1,231.2,659.1z M55,650.8l15.7-20H38.4v-21.8
	h33.3l-52.8-67.2h162.5l-52.8,67.2h42.8v21.7H127l35.2,44.8L55,650.8z M314.5,578.3c0-20.9,17-37.9,37.9-37.9
	c20.9,0,37.9,17,37.9,37.9c0,20.9-17,37.9-37.9,37.9C331.5,616.2,314.6,599.2,314.5,578.3z M231.2,578.3c0-20.9,17-37.9,37.9-37.9
	c20.9,0,37.9,17,37.9,37.9s-17,37.9-37.9,37.9l0,0l0,0C248.2,616.2,231.2,599.2,231.2,578.3C231.2,578.3,231.2,578.3,231.2,578.3
	L231.2,578.3z M1751.4,553.9l63.4,49.8l-63.4,11.3V553.9z M1817.9,567.8h21.2v31.6l-21.2,3.8V567.8z M1904.5,555.1v32.6l-53.8,9.6
	L1904.5,555.1z M1858.2,535.2l-26.7-28.3l-26.7,28.3h-54.2c0-41.1,31.1-75.5,72-79.7c-40.9-4.2-72-38.6-72-79.7h52.6l26.7,28.3
	l26.7-28.3h54.2c0,41.1-31.1,75.5-72,79.7c40.9,4.2,72,38.6,72,79.7L1858.2,535.2z M128.6,465.5c0-23.7,24.5-43.4,29.7-47.3
	c-5.3-4-29.7-23.7-29.7-47.3c0-26.5,30.7-48.1,30.7-48.1s30.8,21.5,30.8,48.1c0,23.7-24.5,43.4-29.8,47.3c5.3,4,29.8,23.6,29.8,47.3
	c0,26.5-30.8,48.1-30.8,48.1S128.6,492.1,128.6,465.5L128.6,465.5z M325.3,507.9v-29.4h-27.2v29.4h-65v-65h24.4v-31.6h-24.4v-65h65
	v30.9h27.2v-30.9h65v65h-31.4v31.6h31.4v65H325.3z M0.5,334.7l6.2-6.3l-6.2-6.3V156.4L109,265.8l-65.2,65.7l60.1,60.6L0.5,496.4
	V334.7z M1858.2,364.8l-26.7-28.3l-26.7,28.3h-54.2c0-41.1,31.1-75.5,72-79.7c-40.9-4.1-72-38.6-72-79.7h52.6l26.7,28.3l26.7-28.3
	h54.2c0,41.1-31.1,75.5-72,79.7c40.9,4.1,72,38.6,72,79.7L1858.2,364.8z M290.5,323.4v-23.3h-52.9l74.5-74.5l-74.5-74.5h52.9v-29.4
	h46.7v29.4h54.8l-74.5,74.5l74.5,74.5h-54.8v23.3H290.5z M296.4,269.8c0,9.2,7.5,16.7,16.7,16.7s16.7-7.5,16.7-16.7
	c0-9.2-7.5-16.7-16.7-16.7c0,0,0,0,0,0l0,0C303.9,253.2,296.4,260.6,296.4,269.8C296.4,269.8,296.4,269.8,296.4,269.8L296.4,269.8
	L296.4,269.8z M296.4,183.2c0,9.2,7.5,16.7,16.7,16.7c9.2,0,16.7-7.5,16.7-16.7c0-9.2-7.5-16.7-16.7-16.7l0,0
	C303.9,166.5,296.4,173.9,296.4,183.2C296.4,183.1,296.4,183.1,296.4,183.2L296.4,183.2z M129,274.2c0-23.7,24.5-43.4,29.8-47.3
	c-5.3-4-29.8-23.7-29.8-47.3c0-26.5,30.8-48.1,30.8-48.1s30.7,21.5,30.7,48.1c0,23.7-24.5,43.4-29.8,47.3c5.3,4,29.8,23.6,29.8,47.3
	c0,26.5-30.7,48.1-30.7,48.1S129,300.7,129,274.2z M1827.3,141.3c0-20,16.2-36.3,36.3-36.3s36.3,16.2,36.3,36.3
	s-16.2,36.3-36.3,36.3S1827.3,161.3,1827.3,141.3C1827.3,141.3,1827.3,141.3,1827.3,141.3z M1747.5,141.3c0-20,16.2-36.3,36.3-36.3
	c20,0,36.3,16.2,36.3,36.3c0,20-16.2,36.3-36.3,36.3c0,0,0,0,0,0C1763.7,177.6,1747.5,161.3,1747.5,141.3z M1827.3,63.9
	c0-20,16.2-36.3,36.3-36.3s36.3,16.2,36.3,36.3s-16.2,36.3-36.3,36.3S1827.3,83.9,1827.3,63.9C1827.3,63.9,1827.3,63.9,1827.3,63.9z
	 M1747.5,63.9c0-20,16.2-36.3,36.3-36.3c20,0,36.3,16.2,36.3,36.3c0,20-16.2,36.3-36.3,36.3c0,0,0,0,0,0
	C1763.7,100.2,1747.5,83.9,1747.5,63.9z M326.9,85.7c-13.4,9.9-32.3,7-42.2-6.4c-1.8-2.4-3.2-5-4.2-7.8h-16.4V50.2h16.8
	c21.5-5.5,42.8-11.8,63.9-19c12.3,0,23.4,7.5,28,19h21.5v21.3h-21.1c-5.6,15.7-22.9,24-38.6,18.4C331.9,88.8,329.2,87.5,326.9,85.7z
	 M180,85.7c-13.4,9.9-32.3,7-42.2-6.4c-1.8-2.4-3.2-5-4.2-7.8h-16.4V50.2H134c21.5-5.5,42.8-11.8,63.9-19c12.3,0,23.4,7.5,28,19
	h21.6v21.3h-21.1c-5.6,15.7-22.9,23.9-38.6,18.4C185,88.8,182.4,87.4,180,85.7z M28.4,85.7c-8,5.9-18.4,7.5-27.9,4.2V32.9
	c14.6,6.8,31.6,6.1,45.7-1.7c12.3,0,23.4,7.5,28,19h21.6v21.3H74.7c-5.6,15.7-22.9,24-38.6,18.4C33.3,88.8,30.7,87.5,28.4,85.7
	L28.4,85.7z"/>
</svg>
