<svg xmlns="http://www.w3.org/2000/svg" width="91" height="112" viewBox="0 0 91 112" fill="none">
  <path d="M89.8892 33.551V95.6491H14.3516V0.867188H57.2206L76.3228 19.9859L89.8892 33.551Z" fill="#CBC5CE"/>
  <path d="M89.8896 96.5145H14.352C14.1224 96.5145 13.9022 96.4233 13.7399 96.261C13.5776 96.0987 13.4863 95.8784 13.4863 95.6488V0.865638C13.4863 0.636053 13.5776 0.415832 13.7399 0.253491C13.9022 0.0911498 14.1224 0 14.352 0H57.221C57.3346 0.000159103 57.447 0.0227004 57.5518 0.0664646C57.6566 0.110229 57.7517 0.174349 57.8317 0.255005L90.5004 32.9388C90.6627 33.1011 90.7539 33.3213 90.7539 33.5508V95.6488C90.7539 95.8782 90.6629 96.0982 90.5009 96.2605C90.3388 96.4228 90.119 96.5141 89.8896 96.5145ZM15.219 94.7846H89.0309V33.9092L56.8709 1.72985H15.219V94.7846Z" fill="#6132C6"/>
  <path d="M76.3217 19.9859H14.3477V0.867188H57.2166L76.3217 19.9859Z" fill="#CBC5CE"/>
  <path d="M76.3249 20.8514H14.3481C14.1185 20.8514 13.8983 20.7602 13.736 20.5979C13.5737 20.4355 13.4824 20.2153 13.4824 19.9857V0.865638C13.4824 0.636053 13.5737 0.415832 13.736 0.253491C13.8983 0.0911498 14.1185 0 14.3481 0H57.2171C57.3307 0.000159103 57.4431 0.0227004 57.5479 0.0664646C57.6526 0.110229 57.7478 0.174349 57.8278 0.255005L76.9299 19.3738C77.0509 19.4947 77.1333 19.6488 77.1667 19.8165C77.2001 19.9843 77.1831 20.1583 77.1178 20.3164C77.0525 20.4745 76.9417 20.6097 76.7996 20.7049C76.6575 20.8001 76.4904 20.8511 76.3193 20.8514H76.3249ZM15.2193 19.1214H74.2448L56.8766 1.73128H15.2193V19.1214Z" fill="#6132C6"/>
  <path d="M41.0069 79.9834H12.8085C11.6214 79.9834 10.483 79.5118 9.64359 78.6725C8.80422 77.8331 8.33272 76.6947 8.33272 75.5077V50.3941C8.31159 47.9414 8.77645 45.5087 9.70046 43.2366C10.6245 40.9644 11.9893 38.8977 13.7163 37.1558C15.4432 35.4139 17.498 34.0313 19.7621 33.0878C22.0262 32.1442 24.4548 31.6584 26.9076 31.6584C29.3605 31.6584 31.7891 32.1442 34.0532 33.0878C36.3173 34.0313 38.3721 35.4139 40.0991 37.1558C41.826 38.8977 43.1909 40.9644 44.1149 43.2366C45.0389 45.5087 45.5038 47.9414 45.4826 50.3941V75.5063C45.4828 76.0942 45.3672 76.6763 45.1423 77.2195C44.9175 77.7627 44.5878 78.2563 44.1722 78.672C43.7566 79.0878 43.2631 79.4176 42.72 79.6426C42.1769 79.8676 41.5948 79.9834 41.0069 79.9834ZM17.2856 71.0333H36.5311V50.3941C36.5311 47.842 35.5173 45.3945 33.7127 43.5898C31.9081 41.7852 29.4605 40.7713 26.9084 40.7713C24.3563 40.7713 21.9086 41.7852 20.104 43.5898C18.2994 45.3945 17.2856 47.842 17.2856 50.3941V71.0333Z" fill="white"/>
  <path d="M41.0135 80.8502H12.8082C11.3921 80.8484 10.0346 80.2851 9.03326 79.2837C8.03195 78.2824 7.46862 76.9249 7.4668 75.5088V50.3939C7.4668 45.2378 9.51509 40.2928 13.161 36.6469C16.807 33.0009 21.752 30.9526 26.9081 30.9526C32.0643 30.9526 37.0092 33.0009 40.6552 36.6469C44.3011 40.2928 46.3494 45.2378 46.3494 50.3939V75.5088C46.3476 76.9239 45.785 78.2807 44.7849 79.2818C43.7848 80.283 42.4286 80.8469 41.0135 80.8502ZM26.9122 32.6853C22.2173 32.6908 17.7162 34.5583 14.3964 37.8781C11.0765 41.1979 9.2091 45.699 9.20363 50.3939V75.5088C9.20436 76.4664 9.58506 77.3846 10.2622 78.0617C10.9393 78.7388 11.8575 79.1195 12.8151 79.1203H41.0135C41.971 79.1192 42.8889 78.7383 43.566 78.0613C44.243 77.3843 44.6239 76.4663 44.625 75.5088V50.3939C44.6191 45.6972 42.7501 41.1947 39.4279 37.8746C36.1058 34.5546 31.6021 32.6883 26.9053 32.6853H26.9122ZM36.5377 71.8973H17.284C17.1702 71.8975 17.0576 71.8752 16.9525 71.8318C16.8474 71.7884 16.7518 71.7246 16.6714 71.6442C16.591 71.5638 16.5272 71.4683 16.4838 71.3632C16.4403 71.2581 16.418 71.1454 16.4182 71.0317V50.3939C16.4182 49.0166 16.6896 47.6527 17.2166 46.3802C17.7437 45.1076 18.5163 43.9515 19.4902 42.9775C20.4642 42.0036 21.6205 41.231 22.893 40.7039C24.1655 40.1768 25.5293 39.9055 26.9067 39.9055C28.284 39.9055 29.648 40.1768 30.9205 40.7039C32.193 41.231 33.3492 42.0036 34.3231 42.9775C35.2971 43.9515 36.0697 45.1076 36.5968 46.3802C37.1239 47.6527 37.3951 49.0166 37.3951 50.3939V71.0317C37.3951 71.2611 37.3041 71.481 37.1421 71.6433C36.98 71.8056 36.7602 71.897 36.5308 71.8973H36.5377ZM18.1551 70.1674H35.6721V50.3939C35.6721 48.071 34.7494 45.8433 33.1068 44.2007C31.4643 42.5582 29.2365 41.6354 26.9136 41.6354C24.5907 41.6354 22.363 42.5582 20.7204 44.2007C19.0779 45.8433 18.1551 48.071 18.1551 50.3939V70.1674Z" fill="#6132C6"/>
  <path d="M48.3027 58.8601H5.51087C2.94839 58.8601 0.871094 60.9374 0.871094 63.4999V106.292C0.871094 108.854 2.94839 110.931 5.51087 110.931H48.3027C50.8652 110.931 52.9425 108.854 52.9425 106.292V63.4999C52.9425 60.9374 50.8652 58.8601 48.3027 58.8601Z" fill="white"/>
  <path d="M47.1188 111.797H6.68953C4.91604 111.795 3.21585 111.09 1.9618 109.835C0.707749 108.581 0.0021886 106.881 0 105.108V64.6853C0.0021886 62.9118 0.707749 61.2116 1.9618 59.9576C3.21585 58.7035 4.91604 57.998 6.68953 57.9958H47.1188C48.8924 57.9977 50.5928 58.703 51.8469 59.9571C53.1011 61.2113 53.8064 62.9117 53.8082 64.6853V105.109C53.8057 106.882 53.1 108.582 51.846 109.836C50.592 111.09 48.892 111.795 47.1188 111.797ZM6.68953 59.7258C5.37344 59.7258 4.11124 60.2485 3.18063 61.1792C2.25001 62.1098 1.72724 63.372 1.72724 64.6881V105.112C1.72724 105.763 1.85553 106.409 2.10491 107.011C2.35429 107.613 2.71983 108.16 3.18063 108.621C3.64142 109.081 4.18844 109.447 4.7905 109.696C5.39256 109.946 6.03787 110.074 6.68953 110.074H47.1188C47.7704 110.074 48.4157 109.946 49.0177 109.696C49.6198 109.447 50.1669 109.081 50.6277 108.621C51.0885 108.16 51.4539 107.613 51.7033 107.011C51.9527 106.409 52.0811 105.763 52.0811 105.112V64.6853C52.0811 63.3692 51.5583 62.1071 50.6277 61.1765C49.6971 60.2459 48.4349 59.723 47.1188 59.723L6.68953 59.7258Z" fill="#6132C6"/>
  <path d="M26.995 87.8967C31.4051 87.8967 34.9802 84.3216 34.9802 79.9115C34.9802 75.5014 31.4051 71.9263 26.995 71.9263C22.5849 71.9263 19.0098 75.5014 19.0098 79.9115C19.0098 84.3216 22.5849 87.8967 26.995 87.8967Z" fill="#6132C6"/>
  <path d="M30.8275 79.9805H23.1621V97.8683H30.8275V79.9805Z" fill="#6132C6"/>
  <path d="M24.9335 14.0572C26.9387 14.0572 28.5643 12.4316 28.5643 10.4264C28.5643 8.42121 26.9387 6.79565 24.9335 6.79565C22.9283 6.79565 21.3027 8.42121 21.3027 10.4264C21.3027 12.4316 22.9283 14.0572 24.9335 14.0572Z" fill="#6132C6"/>
  <path d="M34.6132 14.0572C36.6184 14.0572 38.244 12.4316 38.244 10.4264C38.244 8.42121 36.6184 6.79565 34.6132 6.79565C32.608 6.79565 30.9824 8.42121 30.9824 10.4264C30.9824 12.4316 32.608 14.0572 34.6132 14.0572Z" fill="#6132C6"/>
  <path d="M44.2909 14.0572C46.2961 14.0572 47.9217 12.4316 47.9217 10.4264C47.9217 8.42121 46.2961 6.79565 44.2909 6.79565C42.2857 6.79565 40.6602 8.42121 40.6602 10.4264C40.6602 12.4316 42.2857 14.0572 44.2909 14.0572Z" fill="#6132C6"/>
  <path d="M89.8913 33.551H57.2227V0.867188L76.3249 19.9859L89.8913 33.551Z" fill="#CBC5CE"/>
  <path d="M89.8898 34.4165H57.2211C57.1074 34.4167 56.9947 34.3944 56.8896 34.3509C56.7845 34.3075 56.689 34.2437 56.6086 34.1633C56.5282 34.0829 56.4644 33.9874 56.421 33.8823C56.3776 33.7772 56.3553 33.6646 56.3555 33.5508V0.865649C56.3554 0.694572 56.4061 0.52733 56.5011 0.385085C56.5962 0.242841 56.7313 0.13195 56.8894 0.06656C57.0475 0.00116978 57.2214 -0.015776 57.3891 0.0177632C57.5569 0.0513025 57.7109 0.13387 57.8317 0.255017L90.5004 32.9389C90.6214 33.0598 90.7038 33.2139 90.7372 33.3816C90.7706 33.5494 90.7536 33.7234 90.6882 33.8815C90.6229 34.0396 90.5122 34.1748 90.3701 34.27C90.228 34.3652 90.0609 34.4162 89.8898 34.4165ZM58.0881 32.6865H87.8015L58.0881 2.95811V32.6865Z" fill="#6132C6"/>
</svg>