<svg xmlns="http://www.w3.org/2000/svg" width="48" height="47" viewBox="0 0 48 47" fill="none">
  <path d="M10.571 19.8705C8.70174 19.701 7.00245 19.1923 5.47309 18.0054C4.28359 22.9226 4.79338 28.1789 6.66259 33.7744C8.70174 39.5394 11.4206 43.9479 14.9891 47C9.72131 43.4393 5.64302 38.3525 3.09409 31.5701C0.545155 24.9573 -0.474418 18.6836 0.205298 12.7491C1.05494 6.81449 2.92416 3.08419 6.15281 1.38859C8.02203 0.371243 10.2311 -0.137427 12.6101 0.0321285C18.0478 0.540804 21.9562 5.28846 21.4464 10.8839C20.7667 16.4794 16.1786 20.3792 10.571 19.8705ZM47.9553 10.8839C47.2756 16.4794 42.5176 20.3792 37.0799 19.8705C35.2106 19.701 33.3414 19.0227 31.8121 17.8358C30.7925 22.753 31.3023 28.1789 33.1715 33.7744C35.0407 39.5394 37.7596 43.9479 41.3281 47C37.0799 44.1175 33.5114 39.8785 30.9624 34.6222C28.4135 29.3659 26.8841 24.2791 26.7142 19.3619C26.5443 14.4447 27.224 10.2057 28.5834 6.30582C29.0932 5.1189 29.4331 4.44066 29.9428 3.93199C30.6226 2.74508 31.4722 1.89728 32.6617 1.38859C34.5309 0.371246 36.74 -0.137425 39.119 0.0321308C44.5567 0.540806 48.4651 5.28846 47.9553 10.8839Z" fill="#FF7051"/>
</svg>