<svg xmlns="http://www.w3.org/2000/svg" width="418.346" height="585.816" viewBox="0 0 418.346 585.816">
  <g id="Group_1329" data-name="Group 1329" transform="translate(-1205.067 -105.997)">
    <path id="Path_763" data-name="Path 763" d="M1267.728,959.623c-.715-.176-1.7-.648-2.99-3.7-2.173-5.163-7.606-19.019-8.416-20.888-.344-.783-.547-1.087-.857-1.087-.337,0-.54.378-.945,1.357L1246,956.64c-.682,1.694-1.33,2.855-2.889,3.051a10.372,10.372,0,0,1-1.053.067l-.4.27c0,.277.2.344.641.344,1.768,0,3.638-.1,4.009-.1,1.053,0,2.51.1,3.6.1.378,0,.581-.068.581-.344,0-.2-.1-.27-.513-.27h-.506c-1.053,0-1.363-.439-1.363-1.053a6.632,6.632,0,0,1,.513-2.065l1.836-4.866.3-.27h7.572l.338.236,2.72,7.2a.555.555,0,0,1-.3.783c-.344.034-.479.1-.479.3,0,.243.412.243,1.019.277,2.72.068,5.2.068,6.418.068,1.262,0,1.566-.068,1.566-.344l-.445-.27A7.52,7.52,0,0,1,1267.728,959.623Zm-10.049-9.813h-6.25l-.142-.236,3.131-8.355.2-.31.169.31,3.051,8.389Z" transform="translate(-11.893 -269.167)" fill="#fff"/>
    <path id="Path_764" data-name="Path 764" d="M1299.822,940.561a9.261,9.261,0,0,1-1.225.136c-.713.036-7.335,0-8.49,0-.847,0-2.751-.071-4.279-.071-.476,0-.712.071-.712.274l.51.306a5.549,5.549,0,0,1,1.188.1c.95.238,1.219.58,1.288,1.561.034.921.034,1.734.034,6.115v5.089c0,2.787,0,4.928-.134,6.154-.1.844-.271,1.386-.883,1.525a4.4,4.4,0,0,1-1.052.1c-.34,0-.442.168-.442.3,0,.242.2.306.609.306,1.12,0,3.024-.1,3.806-.1s2.885.1,4.787.1c.441,0,.645-.1.645-.306,0-.136-.135-.3-.51-.3a10.581,10.581,0,0,1-1.458-.1c-.884-.14-1.089-.681-1.191-1.525-.135-1.226-.168-3.265-.168-6.05V951.8l.2-.232c.508,0,4.038.036,4.786.1a1.517,1.517,0,0,1,1.428,1.054,2.672,2.672,0,0,1,.206.878l.269.411c.307,0,.339-.411.339-.645,0-.207.033-1.531.1-2.111.1-.911.236-1.7.236-1.864l-.169-.272-.406.308a1.529,1.529,0,0,1-1.259.5c-.439.038-.849.038-1.357.038l-4.176.033-.2-.277v-6.991c0-.339.1-.406.269-.406l4.959.1a2.05,2.05,0,0,1,1.9.881,2.273,2.273,0,0,1,.171,1.09c0,.337.167.473.374.473l.305-.579c.033-.337.1-2.036.135-2.341.1-.748.237-1.088.237-1.294l-.2-.269Z" transform="translate(-26.024 -271.261)" fill="#fff"/>
    <path id="Path_765" data-name="Path 765" d="M1337.692,961.9a5.58,5.58,0,0,1-3.2-1.91c-1.8-1.8-3.9-4.407-6.553-7.667,2.922-2.342,4.144-4.245,4.144-6.385a5.059,5.059,0,0,0-2.106-3.975,10.507,10.507,0,0,0-5.669-1.221c-.918,0-3.631.067-4.65.067-.614,0-2.517-.067-4.076-.067-.439,0-.682.067-.682.27s.209.31.513.31a5.541,5.541,0,0,1,1.188.1c.952.27,1.222.58,1.289,1.559.034.925.034,1.734.034,6.115v5.089c0,2.652,0,4.927-.135,6.155-.1.844-.27,1.39-.884,1.525a4.433,4.433,0,0,1-1.053.1c-.371,0-.472.169-.472.3,0,.209.2.31.574.31,1.188,0,3.091-.1,3.671-.1.439,0,2.922.1,4.65.1.371,0,.614-.1.614-.31l-.378-.3a11.358,11.358,0,0,1-1.458-.1c-.918-.135-1.053-.682-1.154-1.525-.135-1.228-.176-3.469-.176-6.155v-.4l.243-.243,2.679.067.547.2c.371.445,1.626,2.382,2.814,3.941,1.667,2.234,2.787,3.6,4.077,4.245a6.45,6.45,0,0,0,3.266.58h2.848c.371,0,.58-.067.58-.31l-.378-.3A2.771,2.771,0,0,1,1337.692,961.9Zm-11.311-10.252a3.02,3.02,0,0,1-2.106.479,7.993,7.993,0,0,1-2.274-.283c-.2-.1-.277-.2-.277-.506v-8.591l.277-.4a11.8,11.8,0,0,1,1.768-.1c1.762,0,4.549,1.046,4.549,5.129A4.9,4.9,0,0,1,1326.38,951.646Z" transform="translate(-35.707 -271.375)" fill="#fff"/>
    <path id="Path_766" data-name="Path 766" d="M1361.76,961.968a11.2,11.2,0,0,1-1.526-.1c-.884-.14-1.089-.58-1.191-1.358-.137-1.225-.137-3.534-.137-6.322V949.1c0-4.381,0-5.194.068-6.115.069-1.018.308-1.425,1.122-1.561a4.15,4.15,0,0,1,.883-.1c.3,0,.476-.074.476-.34,0-.169-.236-.24-.612-.24-1.153,0-3.09.071-3.837.071-.848,0-2.888-.071-4.008-.071-.475,0-.711.071-.711.24,0,.267.169.34.472.34a3.808,3.808,0,0,1,1.09.136c.646.2.948.545,1.017,1.526.035.921.035,1.734.035,6.115v5.089c0,2.787,0,5.1-.135,6.286-.1.851-.27,1.254-.882,1.394a4.432,4.432,0,0,1-1.056.1c-.372,0-.475.168-.475.3,0,.206.207.306.578.306,1.188,0,3.229-.1,3.906-.1.814,0,2.855.1,4.823.1.338,0,.577-.1.577-.306C1362.236,962.136,1362.1,961.968,1361.76,961.968Z" transform="translate(-47.861 -271.374)" fill="#fff"/>
    <path id="Path_767" data-name="Path 767" d="M1393.675,957.492a4.664,4.664,0,0,1-1.02,1.937c-1.188,1.323-2.652,1.528-5.3,1.528-4.005,0-9.3-3.258-9.3-10.123,0-2.815.543-5.6,2.75-7.5,1.359-1.157,3.021-1.631,5.638-1.631,2.753,0,4.754.711,5.772,1.695a4.082,4.082,0,0,1,1.156,2.681c0,.379.066.613.306.613.271,0,.373-.3.4-.713.039-.578.039-2.17.1-3.122.068-1.021.135-1.359.135-1.6,0-.17-.1-.306-.437-.344-.885-.1-1.869-.3-2.991-.467a30.2,30.2,0,0,0-4.348-.308c-4.445,0-7.3,1.149-9.474,3.051a11.148,11.148,0,0,0,.238,16.44c2.719,2.271,6.181,3.128,10.255,3.128a17.385,17.385,0,0,0,5.4-.65,1.013,1.013,0,0,0,.78-.846,25.649,25.649,0,0,0,.646-3.84l-.34-.513C1393.81,956.912,1393.741,957.053,1393.675,957.492Z" transform="translate(-54.78 -271.18)" fill="#fff"/>
    <path id="Path_768" data-name="Path 768" d="M1429.552,961.536c-.54-.1-1.39-.479-2.544-3.091-1.9-4.38-6.891-16.2-7.606-17.79-.3-.648-.445-.925-.884-.925-.3,0-.54.344-.884,1.154l-7.815,18.168c-.608,1.464-1.114,2.349-2.47,2.551l-.884.034-.344.3c0,.243.169.31.547.31,1.559,0,3.152-.1,3.462-.1.952,0,2.349.1,3.327.1.3,0,.479-.067.479-.31,0-.169-.074-.3-.445-.3h-.439c-.918,0-1.188-.31-1.188-.817a5.294,5.294,0,0,1,.439-1.768l1.6-3.867.27-.2h7.032l.3.2,2.308,5.811a.453.453,0,0,1-.27.641c-.31.034-.378.135-.378.3,0,.209.337.209.884.243,2.511.067,4.684.067,5.737.067,1.12,0,1.289-.067,1.289-.31l-.4-.3A7.3,7.3,0,0,1,1429.552,961.536Zm-9-8.153h-5.777l-.094-.2,2.882-7.3.169-.277.135.27,2.821,7.336Z" transform="translate(-65.362 -271.046)" fill="#fff"/>
    <path id="Path_769" data-name="Path 769" d="M1469.738,940.495c-1.46,0-2.581.071-2.919.071-.649,0-2.241-.071-3.8-.071-.441,0-.743.034-.743.274,0,.173.1.306.473.306a5.1,5.1,0,0,1,1.56.167c.713.274.986.789,1.02,2.55l.306,12.833h-.133c-.444-.4-4.415-4.479-6.455-6.484-4.347-4.237-8.833-8.828-9.2-9.2-.509-.512-.916-.954-1.293-.954-.3,0-.51.412-.51.982l-.269,17.119c-.034,2.51-.134,3.289-.916,3.5a6,6,0,0,1-1.358.14l-.474.3c0,.269.273.306.678.306,1.529,0,2.954-.1,3.227-.1.543,0,1.934.1,3.873.1.406,0,.679-.065.679-.306,0-.174-.17-.3-.51-.3a5.118,5.118,0,0,1-1.564-.2c-.577-.2-.949-.885-1.018-3.122l-.339-11.788h.1c.584.511,3.738,4.005,7,7.126,3.121,3.032,6.859,6.594,8.728,8.325a1.744,1.744,0,0,0,1.221.611c.236,0,.475-.271.475-.92l.34-18.2c.036-1.628.272-2.139,1.084-2.376a3.08,3.08,0,0,1,.917-.1c.344,0,.511-.134.511-.306C1470.417,940.529,1470.145,940.495,1469.738,940.495Z" transform="translate(-78.008 -271.13)" fill="#fff"/>
    <path id="Path_770" data-name="Path 770" d="M1526.961,959.846c-.715-.175-1.714-.655-3.017-3.725-2.187-5.21-7.667-19.187-8.49-21.077-.344-.79-.547-1.093-.857-1.093-.337,0-.547.378-.958,1.37l-8.592,21.516c-.688,1.707-1.343,2.882-2.916,3.077a10.458,10.458,0,0,1-1.06.074l-.412.27c0,.277.2.344.648.344,1.782,0,3.665-.1,4.043-.1,1.06,0,2.537.1,3.631.1.378,0,.58-.067.58-.344,0-.209-.1-.27-.513-.27h-.513c-1.066,0-1.37-.452-1.37-1.066a6.538,6.538,0,0,1,.513-2.085l1.849-4.907.311-.27h7.64l.338.236,2.74,7.262a.555.555,0,0,1-.3.79c-.344.041-.479.1-.479.311,0,.243.412.243,1.026.277,2.74.067,5.237.067,6.472.067,1.269,0,1.579-.067,1.579-.344l-.445-.27A7.723,7.723,0,0,1,1526.961,959.846Zm-10.137-9.894h-6.3l-.135-.243,3.152-8.429.2-.311.176.311,3.084,8.463Z" transform="translate(-96.097 -269.167)" fill="#fff"/>
    <path id="Path_771" data-name="Path 771" d="M1568.734,940.552c-1.473,0-2.6.072-2.945.072-.655,0-2.259-.072-3.84-.072-.445,0-.748.034-.748.276,0,.175.1.31.477.31a5.127,5.127,0,0,1,1.574.168c.721.275,1,.8,1.029,2.573l.31,12.943h-.138c-.441-.408-4.452-4.518-6.507-6.541-4.383-4.274-8.9-8.9-9.286-9.279-.51-.516-.925-.962-1.3-.962-.307,0-.514.416-.514.991l-.274,17.267c-.036,2.532-.132,3.318-.925,3.526a6.012,6.012,0,0,1-1.369.141l-.477.306c0,.271.271.309.684.309,1.539,0,2.981-.1,3.25-.1.553,0,1.957.1,3.909.1.41,0,.686-.065.686-.309,0-.175-.172-.306-.516-.306a5.123,5.123,0,0,1-1.574-.206c-.582-.206-.96-.893-1.031-3.15l-.34-11.89h.1c.579.516,3.769,4.041,7.055,7.187,3.154,3.058,6.919,6.652,8.8,8.4a1.766,1.766,0,0,0,1.234.617c.243,0,.479-.274.479-.929l.344-18.357c.034-1.641.273-2.158,1.095-2.4a3.094,3.094,0,0,1,.925-.1c.343,0,.514-.135.514-.31C1569.418,940.585,1569.143,940.552,1568.734,940.552Z" transform="translate(-110.122 -271.147)" fill="#fff"/>
    <path id="Path_772" data-name="Path 772" d="M1608.886,957.7a4.644,4.644,0,0,1-1.025,1.954c-1.2,1.334-2.675,1.541-5.348,1.541-4.041,0-9.38-3.286-9.38-10.211,0-2.839.543-5.645,2.771-7.563,1.369-1.167,3.05-1.645,5.69-1.645,2.774,0,4.792.717,5.822,1.71a4.117,4.117,0,0,1,1.164,2.705c0,.382.066.618.307.618.273,0,.379-.3.414-.719.033-.584.033-2.189.1-3.149.069-1.031.138-1.371.138-1.611,0-.171-.105-.308-.445-.347-.892-.1-1.882-.3-3.017-.472a30.4,30.4,0,0,0-4.381-.311c-4.489,0-7.367,1.16-9.557,3.077a11.244,11.244,0,0,0,.241,16.583c2.738,2.291,6.234,3.154,10.34,3.154a17.541,17.541,0,0,0,5.448-.655c.514-.208.652-.339.786-.853a25.463,25.463,0,0,0,.653-3.873l-.341-.518C1609.025,957.11,1608.953,957.253,1608.886,957.7Z" transform="translate(-124.689 -271.198)" fill="#fff"/>
    <path id="Path_773" data-name="Path 773" d="M1642.683,958.119c-.206,0-.274.141-.346.451-.2,1.2-.545,1.811-1.3,2.157a8.274,8.274,0,0,1-2.846.378c-3.079,0-4.008-.448-4.081-2.432-.032-.861,0-3.328,0-4.321v-2.328l.175-.307c.753,0,4.178.065,4.728.134,1.128.1,1.5.552,1.68,1.134.063.376.063.754.1,1.053l.271.244.308-.643c0-.213.069-1.377.136-1.957.171-1.475.241-1.954.241-2.123l-.241-.31-.476.377c-.279.309-.721.376-1.44.442-.684.072-4.591.072-5.277.072l-.209-.308v-7.192l.209-.279c.615,0,4.216.07,4.728.142,1.509.137,1.75.55,1.99,1.059a2.8,2.8,0,0,1,.2,1.06l.238.38.344-.482c.067-.339.135-1.61.172-1.919a12.769,12.769,0,0,1,.242-1.884l-.208-.271-.483.141c-.238.03-.716.13-1.268.167-.58.036-7.26,0-8.22,0-.856,0-2.774-.072-4.349-.072-.444,0-.682.072-.682.276s.2.31.515.31a5.6,5.6,0,0,1,1.2.1c.956.275,1.23.586,1.3,1.575.032.929.032,1.749.032,6.168v5.134c0,2.676,0,4.97-.136,6.207-.1.852-.272,1.4-.889,1.539a4.473,4.473,0,0,1-1.061.1c-.377,0-.479.169-.479.306,0,.208.2.309.582.309.616,0,1.37-.038,2.086-.065.721,0,1.371-.036,1.716-.036.889,0,2.02.036,3.492.063,1.472.075,3.287.1,5.55.1,1.129,0,1.4,0,1.608-.752a19.422,19.422,0,0,0,.412-3.221C1642.955,958.5,1642.921,958.119,1642.683,958.119Z" transform="translate(-137.18 -271.279)" fill="#fff"/>
    <path id="Path_774" data-name="Path 774" d="M1668.082,949.308l-1.233-.69c-2.7-1.505-3.185-2.534-3.185-3.837,0-1.984,1.953-3.111,4.111-3.111a4.052,4.052,0,0,1,3.356,1.368,3.3,3.3,0,0,1,.788,1.915c0,.346.1.512.309.512.24,0,.375-.31.375-.924,0-2.291.1-3.115.1-3.489l-.41-.379a17.93,17.93,0,0,0-4.281-.478c-4.178,0-7.6,2.293-7.6,5.862,0,2.561,1.166,4.518,4.724,6.607l1.749,1.023c2.674,1.576,2.98,2.844,2.98,4.111,0,2.058-1.575,3.7-4.181,3.7-1.883,0-4.144-.72-4.791-2.879a5.379,5.379,0,0,1-.277-1.513l-.308-.478c-.24,0-.375.315-.375.759-.037.477-.176,2.3-.176,3.87,0,.651.1.782.58.991a12.76,12.76,0,0,0,4.9.758,8.774,8.774,0,0,0,5.035-1.2,6.222,6.222,0,0,0,3.015-5.45C1673.289,953.722,1672.057,951.5,1668.082,949.308Z" transform="translate(-147.82 -271.198)" fill="#fff"/>
    <path id="Path_775" data-name="Path 775" d="M1706.459,940.4c-.1,0-.341.068-.825.136a13.65,13.65,0,0,1-2.051.137h-12.231a29.163,29.163,0,0,1-3.01-.137c-.756-.105-1.064-.341-1.305-.341-.173,0-.273.169-.339.545-.072.237-.655,3.051-.655,3.523,0,.315.069.487.278.487l.34-.378a3.335,3.335,0,0,1,.516-.993c.443-.652,1.166-.86,2.911-.891l4.487-.1v11.779c0,2.676,0,4.97-.136,6.207-.1.852-.275,1.4-.89,1.539a4.29,4.29,0,0,1-1.061.1c-.382,0-.478.169-.478.306,0,.208.2.309.574.309,1.2,0,3.258-.1,3.946-.1.852,0,2.877.1,4.86.1.342,0,.58-.1.58-.309,0-.138-.135-.306-.479-.306a11.5,11.5,0,0,1-1.543-.1c-.885-.141-1.058-.688-1.161-1.509-.14-1.267-.173-3.561-.173-6.237V942.387l3.8.071c2.706.032,3.493.923,3.561,1.679l.034.3c.036.447.1.584.343.584.173,0,.239-.168.274-.482,0-.749.07-2.91.07-3.525C1706.7,940.57,1706.665,940.4,1706.459,940.4Z" transform="translate(-156.365 -271.198)" fill="#fff"/>
    <path id="Path_776" data-name="Path 776" d="M1745.62,962.14a5.659,5.659,0,0,1-3.219-1.923c-1.816-1.815-3.935-4.448-6.607-7.734,2.943-2.362,4.177-4.286,4.177-6.438a5.09,5.09,0,0,0-2.126-4.009,10.559,10.559,0,0,0-5.717-1.235c-.925,0-3.665.068-4.7.068-.614,0-2.531-.068-4.1-.068-.452,0-.688.068-.688.277s.2.31.513.31a5.669,5.669,0,0,1,1.2.1c.958.27,1.228.58,1.3,1.573.034.931.034,1.748.034,6.169v5.129c0,2.679,0,4.974-.135,6.209-.1.85-.27,1.4-.891,1.539a4.406,4.406,0,0,1-1.059.108c-.378,0-.479.169-.479.3,0,.209.209.311.58.311,1.2,0,3.118-.1,3.705-.1.446,0,2.943.1,4.684.1.378,0,.621-.1.621-.311l-.378-.3a11.628,11.628,0,0,1-1.471-.108c-.931-.142-1.066-.688-1.168-1.539-.135-1.235-.169-3.5-.169-6.209v-.4l.236-.243,2.706.068.547.2c.378.452,1.647,2.4,2.848,3.975,1.681,2.254,2.808,3.631,4.11,4.279a6.494,6.494,0,0,0,3.287.587h2.882c.371,0,.58-.068.58-.311l-.378-.3A2.642,2.642,0,0,1,1745.62,962.14Zm-11.406-10.346a2.985,2.985,0,0,1-2.126.486,8.419,8.419,0,0,1-2.295-.277c-.2-.108-.27-.209-.27-.52v-8.666l.27-.4a10.95,10.95,0,0,1,1.782-.108c1.782,0,4.6,1.059,4.6,5.176A4.918,4.918,0,0,1,1734.214,951.794Z" transform="translate(-168.263 -271.394)" fill="#fff"/>
    <path id="Path_777" data-name="Path 777" d="M1776.56,940.8c-.583,0-2.567.072-3.219.072-.888,0-1.951-.072-2.947-.072-.339,0-.511.072-.511.276l.549.344c.514.1.649.374.649.653a3.782,3.782,0,0,1-.448,1.542c-.443.886-4.106,7.122-4.484,7.806-.516-.82-4.455-7.639-5-8.527a2.316,2.316,0,0,1-.379-1l.412-.443c.477-.143.687-.143.687-.379l-.447-.276c-1.371,0-2.775.072-3.425.072-.991,0-3.253-.072-3.769-.072-.377,0-.582.072-.582.276l.444.31a2.955,2.955,0,0,1,1.269.377,6.711,6.711,0,0,1,1.951,2.053c1.06,1.538,5.174,7.952,5.38,8.394a5.816,5.816,0,0,1,.682,3.046v2.4c0,.476,0,1.675-.1,2.912-.067.852-.307,1.4-.922,1.539a4.725,4.725,0,0,1-1.061.1c-.344,0-.481.169-.481.306,0,.244.24.309.647.309,1.134,0,3.154-.1,3.909-.1.822,0,2.84.1,4.728.1.409,0,.647-.1.647-.309,0-.138-.17-.306-.512-.306a11.721,11.721,0,0,1-1.507-.1c-.891-.141-1.166-.688-1.234-1.539-.072-1.237-.072-2.436-.072-2.912v-2.332a6.737,6.737,0,0,1,.382-2.91,95.927,95.927,0,0,1,5.857-9.322,4.06,4.06,0,0,1,1.574-1.368,3.717,3.717,0,0,1,1.3-.341c.346,0,.585-.135.585-.344C1777.112,940.87,1776.9,940.8,1776.56,940.8Z" transform="translate(-178.343 -271.393)" fill="#fff"/>
    <rect id="Rectangle_1159" data-name="Rectangle 1159" width="369.014" height="6.115" transform="translate(1229.755 651.916)" fill="#fff"/>
    <path id="Path_778" data-name="Path 778" d="M1279.241,384.841l23.142-71.715,24.026,71.715H1348.5l35.075-108.011,3.422-3.422,3.246,3.246v92.232l-15.961,15.955h64.878L1423.2,368.887V326.1H1456v42.789l-15.962,15.955h64.878l-15.955-15.955V276.655l15.955-15.955h-64.878L1456,276.655V310.67H1423.2V276.655l15.954-15.955h-87.676l15.779,15.779-21.037,69.258-20.166-69.258,15.779-15.779h-67.51l15.961,15.955,4.029,11.926-17.359,57.157-20.166-69.258L1272.58,260.7h-67.51l16.13,16.13,35.945,108.011Z" transform="translate(-0.001 -50.294)" fill="#fff"/>
    <path id="Path_779" data-name="Path 779" d="M1252.59,479.29l16.13,16.13,31.383,53.83v38.226l-15.955,15.955h64.878l-15.955-15.955V549.6L1362,495.245l15.955-15.955h-49.1l15.786,15.779-18.411,35.77-19.289-35.77,15.779-15.779Z" transform="translate(-15.45 -121.357)" fill="#fff"/>
    <path id="Path_780" data-name="Path 780" d="M1473.6,474.17c-33.624,1.417-57.852,31.633-57.852,65.526,0,32.28,21.981,61.234,53.128,65.128-1.525-2.713-3.111-5.595-4.751-8.72-13.525-25.721,6.58-45.6,7.221-46.224-9.941,21.5-1.464,39.92,7.168,55.342,33.63-1.4,57.873-31.626,57.873-65.526,0-32.281-21.981-61.234-53.121-65.128,1.5,2.706,3.091,5.581,4.738,8.713,13.525,25.727-6.58,45.617-7.228,46.224C1490.745,508,1482.241,489.6,1473.6,474.17Zm7.41,31.167-10.589,1.789c-.074-.533-.162-1.033-.216-1.593-.074-.763-.128-1.5-.182-2.234l10.38-2.936C1480.689,502.084,1480.885,503.731,1481.013,505.337Zm-4.6-18.425c.641,1.505,1.215,3.01,1.714,4.475l-8.139,4.778a44.486,44.486,0,0,1,.533-4.778Zm-5.892,74.064,5.892-4.495q.962,2.288,1.714,4.495l-8.139,4.772A44.351,44.351,0,0,1,1470.525,560.976Zm-.317,14.146c-.074-.769-.128-1.5-.182-2.234l10.38-2.936c.283,1.721.479,3.368.607,4.974l-10.589,1.788C1470.349,576.181,1470.262,575.675,1470.208,575.122Zm2.571,12.168c-.391-1.181-.769-2.47-1.107-3.867l9.408.216c-.122,1.681-.317,3.2-.553,4.616ZM1488,552.87c13.525,25.72-6.58,45.616-7.228,46.224,10-21.577,1.417-40.015-7.262-55.49-2.774-5.028-5.973-10.5-9.388-16.994-13.525-25.727,6.58-45.617,7.221-46.224-9.982,21.556-1.411,40.015,7.269,55.49C1481.384,540.9,1484.59,546.357,1488,552.87Zm-7.478-34.2-7.748-.965c-.391-1.181-.769-2.47-1.107-3.867l9.408.236C1480.959,515.73,1480.763,517.256,1480.527,518.666Z" transform="translate(-68.493 -119.693)" fill="#fff"/>
    <path id="Path_781" data-name="Path 781" d="M1656.268,479.29H1591.39l15.955,15.955v73.294c0,27.88,25.424,38.4,50.678,38.4,20.868,0,41.027-13.849,41.027-38.4V495.245l15.962-15.955h-49.1l15.955,15.955v73.294c0,13.68-9.118,22.1-20.341,22.1-11.392,0-21.212-7.539-21.212-22.1V495.245Z" transform="translate(-125.593 -121.357)" fill="#fff"/>
    <path id="Path_782" data-name="Path 782" d="M1578.471,708.118l19.464,19.464V692.69H1500.79l15.955,15.955v92.232l-13.323,13.329h0l-13.329-13.329-24.546-44.361c12.621-5.089,21.914-15.084,21.914-28.933,0-27.354-28.933-34.892-53.3-34.892h-60.5l15.962,15.955v92.232L1378.188,812.3h0l-11.6-11.6L1327.132,692.69h-23.844L1264.71,800.7l-16.13,16.13h48.215l-15.779-15.779,5.791-16.657h36.823l4.731,16.657-15.779,15.779h125.957l-15.955-15.955v-38.4h12.276l25.95,54.356h137.126V781.939L1578.471,801.4h-28.757V758.095h19.113l15.955,15.955V726.7l-15.955,15.955h-19.113V708.118ZM1292.415,768.96l14.375-40.852,12.276,40.852Zm141.743-21.914h-11.575V708.118h11.575c10,0,17.709,7.539,17.709,19.464S1444.153,747.046,1434.157,747.046Z" transform="translate(-14.146 -190.734)" fill="#fff"/>
    <path id="Path_783" data-name="Path 783" d="M1209.064,178.956a60.4,60.4,0,0,0,24.236-27.219c.162.27.3.54.473.8,2.166,3.28,5.554,4.029,9.165,4.036-4.832,8.564-12.418,15.7-14.274,25.687-.371,1.977,1.647,6.918,3.692,7.606,3.51,1.174,6.364-.52,9.165-2.578,3.624-2.659,7.141-5.487,10.664-8.281,1.114-.884,2.382-2.139,3.725-3.321a18.306,18.306,0,0,0,1.8,4.157c3.01,5.109,8.1,7.566,13.943,6.108,7.964-1.984,15.664-8.558,22.015-13.518,2.106-1.647,4.137-3.375,6.128-5.143-.149.533-.317,1.066-.452,1.606-1.39,5.507,1.033,15.523,7.545,16.879a.4.4,0,0,0,.594-.29,121.973,121.973,0,0,1,15.266-20.072,91.19,91.19,0,0,1,7.6-7.431c.142.121.236.2.29.25a.254.254,0,0,0,.034.027l.013.014.02.013c.054.047.148.128.3.25q-5.669,10.245-11.332,20.5c-.864,1.559,3.483,8.956,4.313,8.133q9.334-9.263,18.647-18.546a101.749,101.749,0,0,1,7.917-7.437,38.6,38.6,0,0,1,4.2-3c-.391.6-.79,1.208-1.168,1.815-2.173,3.469-4.312,6.952-6.466,10.434-1.626,2.619-4.373,5.71-4.427,8.929-.047,2.821,1.525,5.946,3.206,8.133,3.908,5.082,9.685.466,13.775-2.119s8.072-5.386,11.9-8.355c1.208,5.2,4.461,11.406,9.759,13.208,5.811,1.984,12.567-.344,17.635-3.233,6.877-3.928,12.783-9.59,18.5-15,.128-.115.243-.236.364-.358a19,19,0,0,0,6.263,12.378c1.174,2,2.72,3.692,3.057,2.855,1.734-4.286,3.516-8.564,7-11.615,5.474-4.805,9.685-11.48,15.2-16.751a43.077,43.077,0,0,1,4.454-3.746q-1.5,3.351-3,6.7-3.25,7.259-6.479,14.524c-.634,1.444,1,4.171,1.7,5.365.257.439,2.1,3.449,2.679,2.207a65.955,65.955,0,0,1,18-23.25,59.162,59.162,0,0,1,5.595-4.07c-2.22,4.522-4.88,8.9-7.221,13.329-2.362,4.461-4.353,7.734-2.308,12.7,1.647,4.009,4.09,7.822,8.659,5.386a91.847,91.847,0,0,0,18.458-13.431c-.169,4.866,1.64,10.873,5.939,12.911,3.523,1.681,7.755-1.289,10.745-2.943a89.681,89.681,0,0,0,10.852-7.086,87.194,87.194,0,0,0,12.506-11.858c.169.364.317.729.506,1.093a15.1,15.1,0,0,0,5.035,5.588,18.232,18.232,0,0,0,.088,3.833c1.012,4.637,4.09,9.435,8.436,11.534,5.129,2.47,11.21,1.174,16.123-1.181,12.843-6.162,20.794-18.378,29.27-29.243a7.985,7.985,0,0,0,1.768,1.485,10.112,10.112,0,0,0,4.589,1.147c-.256.283-.513.56-.763.85q-2.612,3.007-5.042,6.169c-2.477,3.233-5.953,6.911-7.161,10.852-1.073,3.523.9,7.748,2.949,10.562a6.846,6.846,0,0,0,7.667,2.787c4.1-.891,8.146-3.59,11.595-5.885a54.075,54.075,0,0,0,11.5-10.339c1.323-1.566-2.969-8.4-3.739-7.694a80.563,80.563,0,0,1-19.761,13.795,19.444,19.444,0,0,1-3.435,1.276,17.555,17.555,0,0,1,.931-1.586q2.146-3.138,4.481-6.142c2.376-3.057,5.251-5.784,7.539-8.882,1.8-2.436,1.107-4.927-.047-7.539s-2.848-5.224-5.635-6.236a12.45,12.45,0,0,0-3.955-.513,19.6,19.6,0,0,1-2.355-.128c-2.976-.459-1.3-1.593-.29,3.455-.317-1.181-3.28-8.031-4.407-6.351-6.627,9.86-14.652,19.869-24.573,26.578-4.684,3.165-10.488,6.007-16.306,5.46a12.661,12.661,0,0,1-3.82-.958,8.316,8.316,0,0,1-.965-.526c0-.094.014-.162.014-.263a27.8,27.8,0,0,1,2.166-5.757c.776,1.66,1.782,3.057,2.727,2.909a36.761,36.761,0,0,0,15.907-6.337c3.9-2.8,9.26-7.518,10.65-12.357,1.12-3.894-2.133-10.069-5.554-11.952-4.643-2.551-10.839,1.525-14.6,4.11a41.144,41.144,0,0,0-11.264,11.7c-.52.817-1.066,1.714-1.593,2.646a.15.15,0,0,0-.088.04,5.3,5.3,0,0,1-2.963,1.262,6.366,6.366,0,0,1-2.673-.763,10.065,10.065,0,0,1,.472-1.755,10.551,10.551,0,0,1,1.134-2.173c.574-.722,1.168-1.424,1.734-2.166,1.255-1.633-2.747-7.917-3.847-7.917-1.863,0-2.976,2.558-2.976,4.016a88.347,88.347,0,0,1-25.828,21.59c-2.4,1.35-5.109,3.084-7.822,3.685a3.82,3.82,0,0,1-.945.094c.25-1.12.493-2.241.837-3.341a140.247,140.247,0,0,1,5.656-14.6c.385.364.722.54.945.4a119.251,119.251,0,0,0,33.617-32.348c3.456-5.015,9.132-11.453,6.594-17.865-.817-2.065-2.288-4.934-4.724-5.318-3.489-.54-8.024,2.956-10.549,4.961-11.993,9.536-21.239,24.04-28.008,37.592-1.836,3.685-3.645,7.518-5.224,11.433-.263-.216-.5-.351-.628-.236-1.782,1.552-16.785,14.173-24.539,18.924.891-1.7,1.788-3.4,2.679-5.1,2.018-3.86,4.124-7.7,6.013-11.622a9.947,9.947,0,0,0,.209-8.774c-.925-2.288-2.713-6.027-5.5-6.425-2.666-.378-6.115,2.976-8.065,4.475-1.235.958-2.43,1.977-3.6,3.017a10.552,10.552,0,0,0-.81-3.557c-.992-2.443-2.8-5.939-5.906-5.588-3.226.358-6.54,3.638-8.74,5.791q-.7.678-1.357,1.4a202.635,202.635,0,0,0-19.667,25.626,3.729,3.729,0,0,0-1.06-.81,4.109,4.109,0,0,1-.756-.459,34.343,34.343,0,0,1,.553-3.59c1.822-5.581,6.837-9.854,8.49-14.531.9-2.524,3.064-4.137,5.177-5.784,1.505-1.174-3.266-8.463-3.941-7.782-8.416,8.564-16.845,17.149-25.957,24.985-7.147,6.155-17.811,15.1-28.1,12.108a26.145,26.145,0,0,1-2.76-1.417c-.034-.391-.108-.8-.1-1.181a16.643,16.643,0,0,1,2.544-7.863c.135-.115.27-.223.4-.344a1.028,1.028,0,0,0,.263-.459c12.358,6.432,24.863-4.475,31.9-13.943,1.708-2.3,2.295-3.928,1.377-6.729-.8-2.45-2.369-5.818-5.042-6.7-2.261-.756-4.859.061-7.039.709a48.966,48.966,0,0,0-8.8,3.543c-6.223,3.273-13.491,9.01-17.345,15.9-4.286,3.5-8.652,6.884-13.221,10a99.176,99.176,0,0,1-8.754,5.912c-.56-.614,0,0-.553-.614q4.181-6.732,8.335-13.491c1.276-2.079,2.929-4.171,3.172-6.682.3-3.159-1.829-8.463-4.67-10.117-3.753-2.187-9.408,2.335-12.141,4.583-2.072,1.708-4.07,3.523-6.054,5.372a11.853,11.853,0,0,0,1-7.647c-.365-1.431-2.167-7.248-4.3-6.857-5.689,1.046-10.144,4.9-14.207,8.855a124.873,124.873,0,0,0-13.356,15.206c-1.181,1.6-2.335,3.233-3.435,4.893-.432.661-.857,1.323-1.276,1.991.331-1.114.7-2.22,1.073-3.3a97.555,97.555,0,0,1,9.408-19.673c1.046-1.68-3.422-8.45-4.2-7.275-.391.587-.776,1.188-1.154,1.782-.1-.054-.209-.121-.243-.074a138.509,138.509,0,0,1-20.611,19.052,141.81,141.81,0,0,1-12.695,8.389c-3.327,1.991-6.945,3.982-10.812,4.245-1.579.108-4.373-.027-5.615-1.249-.432-.425-.263-.4.31-1.519a26.374,26.374,0,0,0,1.073-2.828,4.544,4.544,0,0,1,1.114-.169,28.693,28.693,0,0,0,10.117-1.944c8.693-3.334,24.762-17.433,14.78-27.273-3.908-3.847-12.337,1.95-15.779,4.34a42.646,42.646,0,0,0-12.81,14.072,28.547,28.547,0,0,0-1.647,3.455,6.47,6.47,0,0,0-1.816,1.033c-2.814,2.058-5.595,4.157-8.375,6.27-3.24,2.463-6.4,5.021-9.637,7.478h-.007c4.825-8,12.2-14.726,14.267-24.067.418-1.876-2.052-8.45-4.434-8.355-3.455.128-7.073.688-10.528.425a3.962,3.962,0,0,1-.634-.02c.2-1.026.283-2.22.547-3.1.473-1.579-.884-3.908-1.647-5.21-.2-.344-2.193-3.381-2.6-2.146a65.283,65.283,0,0,1-26.436,34.049C1203.922,172.389,1207.836,179.671,1209.064,178.956Zm344.928-21.01a39.465,39.465,0,0,1,6.756-4.3,20.292,20.292,0,0,1,3.307-1.39,8.155,8.155,0,0,1,1.876-.358c-.115.209-.2.378-.243.432a32.67,32.67,0,0,1-3.422,4.171,37.609,37.609,0,0,1-6.175,5.149,36.749,36.749,0,0,1-10.09,4.7A41.422,41.422,0,0,1,1553.993,157.946Zm-29.149-33.327a53.952,53.952,0,0,1,6.985-6.729,32.888,32.888,0,0,1,3.975-2.659,8.856,8.856,0,0,1,1.343-.553c-.4.628-.817,1.249-1.215,1.869q-2.8,4.353-5.953,8.483a124.2,124.2,0,0,1-21.07,21.475A140.438,140.438,0,0,1,1524.844,124.62ZM1388.7,159.829a47.6,47.6,0,0,1,12.742-7.275c1.033-.385,2.139-.817,3.26-1.154-5.541,6.4-12.762,12.27-20.949,12.938A50.129,50.129,0,0,1,1388.7,159.829Zm-120.834,1.721a43.25,43.25,0,0,1,8.855-7.593,48.335,48.335,0,0,1,6.985-3.928,27.936,27.936,0,0,1-1.566,2.355,32.16,32.16,0,0,1-5.332,5.379,32.7,32.7,0,0,1-10.414,5.575C1266.876,162.731,1267.356,162.124,1267.868,161.55Z" fill="#fff"/>
    <path id="Path_784" data-name="Path 784" d="M1706.582,255.63c-34.872,0-60.282,30.843-60.282,65.533s25.41,65.54,60.282,65.54,60.275-30.843,60.275-65.54S1741.448,255.63,1706.582,255.63Zm0,115.651c-20.854,0-22.953-28.386-22.953-50.118s2.1-50.111,22.953-50.111,22.953,28.386,22.953,50.111S1727.43,371.281,1706.582,371.281Z" transform="translate(-143.445 -48.646)" fill="#fff"/>
  </g>
</svg>
