<svg id="Component_22_1" data-name="Component 22 – 1" xmlns="http://www.w3.org/2000/svg" width="208.431" height="291.868" viewBox="0 0 208.431 291.868">
  <path id="Path_763" data-name="Path 763" d="M1254.643,946.741c-.356-.087-.847-.323-1.49-1.843-1.083-2.572-3.79-9.476-4.193-10.407-.172-.39-.272-.541-.427-.541s-.269.188-.471.676l-4.247,10.629c-.34.844-.662,1.422-1.439,1.52a5.167,5.167,0,0,1-.525.034l-.2.135c0,.138.1.172.319.172.881,0,1.813-.05,2-.05.525,0,1.251.05,1.792.05.188,0,.289-.034.289-.172,0-.1-.051-.135-.256-.135h-.252c-.525,0-.679-.219-.679-.525a3.307,3.307,0,0,1,.256-1.029l.915-2.424.151-.134h3.773l.168.118,1.355,3.588a.276.276,0,0,1-.151.39c-.171.017-.239.05-.239.151,0,.121.205.121.508.138,1.355.034,2.589.034,3.2.034.629,0,.78-.034.78-.172l-.222-.135A3.748,3.748,0,0,1,1254.643,946.741Zm-5.007-4.889h-3.114l-.071-.118,1.56-4.163.1-.155.084.155,1.52,4.18Z" transform="translate(-1229.349 -655.549)"/>
  <path id="Path_764" data-name="Path 764" d="M1292.444,940.476a4.61,4.61,0,0,1-.61.068c-.355.018-3.654,0-4.23,0-.422,0-1.371-.035-2.132-.035-.237,0-.355.035-.355.136l.254.153a2.765,2.765,0,0,1,.592.05c.473.118.607.289.642.778.017.459.017.864.017,3.047v2.536c0,1.389,0,2.455-.067,3.066-.052.421-.135.69-.44.76a2.191,2.191,0,0,1-.524.051c-.169,0-.22.084-.22.152,0,.12.1.153.3.153.558,0,1.507-.05,1.9-.05s1.437.05,2.385.05c.219,0,.321-.05.321-.153,0-.068-.067-.152-.254-.152a5.269,5.269,0,0,1-.727-.051c-.441-.07-.543-.339-.593-.76-.068-.611-.084-1.626-.084-3.014v-1.186l.1-.116c.253,0,2.012.018,2.384.05a.756.756,0,0,1,.712.525,1.332,1.332,0,0,1,.1.438l.134.2c.153,0,.169-.2.169-.321s.017-.763.052-1.052c.05-.454.117-.846.117-.928l-.084-.135-.2.153a.762.762,0,0,1-.627.251c-.219.019-.423.019-.676.019l-2.081.016-.1-.138v-3.483c0-.169.05-.2.134-.2l2.471.051a1.021,1.021,0,0,1,.947.439,1.133,1.133,0,0,1,.085.543c0,.168.083.236.186.236l.152-.289c.016-.168.051-1.014.068-1.166.05-.373.118-.542.118-.645l-.1-.134Z" transform="translate(-1258.2 -659.824)"/>
  <path id="Path_765" data-name="Path 765" d="M1326.255,951.281a2.78,2.78,0,0,1-1.594-.952c-.894-.895-1.944-2.2-3.265-3.82,1.456-1.167,2.065-2.115,2.065-3.181a2.52,2.52,0,0,0-1.049-1.981,5.234,5.234,0,0,0-2.824-.609c-.457,0-1.809.034-2.317.034-.306,0-1.254-.034-2.031-.034-.219,0-.34.034-.34.135s.1.155.255.155a2.761,2.761,0,0,1,.592.05c.474.135.609.289.642.777.017.461.017.864.017,3.046v2.535c0,1.322,0,2.455-.067,3.067-.051.42-.135.693-.441.76a2.2,2.2,0,0,1-.524.05c-.185,0-.235.084-.235.151,0,.1.1.155.286.155.592,0,1.54-.05,1.829-.05.219,0,1.456.05,2.317.05.185,0,.306-.05.306-.155l-.188-.151a5.651,5.651,0,0,1-.726-.05c-.457-.067-.524-.34-.575-.76-.067-.612-.087-1.728-.087-3.067v-.2l.121-.121,1.335.034.272.1c.185.222.81,1.187,1.4,1.964a6.825,6.825,0,0,0,2.031,2.115,3.213,3.213,0,0,0,1.627.289h1.419c.185,0,.289-.034.289-.155l-.188-.151A1.381,1.381,0,0,1,1326.255,951.281Zm-5.636-5.108a1.505,1.505,0,0,1-1.049.239,3.983,3.983,0,0,1-1.133-.141c-.1-.051-.138-.1-.138-.252v-4.281l.138-.2a5.885,5.885,0,0,1,.881-.05,2.26,2.26,0,0,1,2.266,2.556A2.439,2.439,0,0,1,1320.62,946.174Z" transform="translate(-1277.968 -660.056)"/>
  <path id="Path_766" data-name="Path 766" d="M1357.007,951.316a5.57,5.57,0,0,1-.76-.051c-.441-.07-.542-.289-.593-.677-.068-.61-.068-1.761-.068-3.15V944.9c0-2.183,0-2.588.034-3.046.034-.507.153-.71.559-.778a2.065,2.065,0,0,1,.44-.05c.152,0,.237-.037.237-.169,0-.084-.118-.12-.3-.12-.575,0-1.539.035-1.912.035-.422,0-1.439-.035-2-.035-.237,0-.354.035-.354.12,0,.133.084.169.235.169a1.9,1.9,0,0,1,.543.068c.322.1.472.272.507.76.017.459.017.864.017,3.046v2.536c0,1.389,0,2.539-.067,3.132-.052.424-.135.625-.44.694a2.205,2.205,0,0,1-.526.051c-.185,0-.237.084-.237.152,0,.1.1.153.288.153.592,0,1.609-.05,1.946-.05.406,0,1.422.05,2.4.05.168,0,.288-.05.288-.153C1357.244,951.4,1357.177,951.316,1357.007,951.316Z" transform="translate(-1302.784 -660.055)"/>
  <path id="Path_767" data-name="Path 767" d="M1383.586,948.787a2.325,2.325,0,0,1-.508.965c-.592.659-1.321.761-2.641.761a4.8,4.8,0,0,1-4.635-5.043,4.66,4.66,0,0,1,1.37-3.735,4,4,0,0,1,2.809-.813,4.212,4.212,0,0,1,2.876.844,2.034,2.034,0,0,1,.576,1.336c0,.189.033.305.152.305.135,0,.186-.15.2-.355.019-.288.019-1.081.051-1.556.034-.509.067-.677.067-.8,0-.085-.051-.153-.218-.172-.441-.049-.931-.15-1.49-.233a15.049,15.049,0,0,0-2.167-.153,6.714,6.714,0,0,0-4.72,1.52,5.554,5.554,0,0,0,.118,8.191,7.661,7.661,0,0,0,5.109,1.558,8.662,8.662,0,0,0,2.691-.324.5.5,0,0,0,.389-.421,12.78,12.78,0,0,0,.322-1.913l-.169-.256C1383.653,948.5,1383.619,948.568,1383.586,948.787Z" transform="translate(-1316.909 -659.659)"/>
  <path id="Path_768" data-name="Path 768" d="M1417.795,950.594c-.269-.05-.693-.239-1.268-1.54-.948-2.182-3.433-8.07-3.79-8.864-.151-.323-.222-.461-.441-.461-.151,0-.269.171-.44.575l-3.894,9.052c-.3.73-.555,1.17-1.231,1.271l-.44.017-.172.151c0,.121.084.155.272.155.777,0,1.57-.05,1.725-.05.474,0,1.17.05,1.658.05.151,0,.239-.034.239-.155,0-.084-.037-.151-.222-.151h-.219c-.457,0-.592-.155-.592-.407a2.641,2.641,0,0,1,.219-.881l.8-1.927.134-.1h3.5l.151.1,1.15,2.9a.226.226,0,0,1-.135.319c-.155.017-.188.067-.188.151,0,.1.168.1.44.121,1.251.034,2.334.034,2.858.034.558,0,.642-.034.642-.155l-.2-.151A3.639,3.639,0,0,1,1417.795,950.594Zm-4.482-4.062h-2.878l-.047-.1,1.436-3.635.084-.138.067.134,1.406,3.655Z" transform="translate(-1338.515 -659.385)"/>
  <path id="Path_769" data-name="Path 769" d="M1457.334,940.24c-.728,0-1.286.035-1.454.035-.323,0-1.117-.035-1.9-.035-.22,0-.37.017-.37.137,0,.086.048.153.236.153a2.543,2.543,0,0,1,.777.083c.355.137.491.393.508,1.271l.152,6.393h-.066c-.221-.2-2.2-2.232-3.216-3.231-2.166-2.111-4.4-4.4-4.586-4.583-.254-.255-.457-.475-.644-.475-.15,0-.254.205-.254.489l-.134,8.529c-.017,1.251-.067,1.639-.457,1.741a2.99,2.99,0,0,1-.677.07l-.236.152c0,.134.136.153.338.153.762,0,1.472-.05,1.608-.05.271,0,.964.05,1.929.05.2,0,.338-.032.338-.153,0-.087-.085-.152-.254-.152a2.552,2.552,0,0,1-.779-.1c-.287-.1-.473-.441-.507-1.556l-.169-5.873h.049c.291.255,1.862,2,3.488,3.55,1.555,1.51,3.417,3.286,4.348,4.148a.869.869,0,0,0,.608.3c.118,0,.237-.135.237-.458l.17-9.067c.018-.811.135-1.066.54-1.184a1.534,1.534,0,0,1,.457-.05c.171,0,.255-.067.255-.153C1457.672,940.257,1457.537,940.24,1457.334,940.24Z" transform="translate(-1364.333 -659.557)"/>
  <path id="Path_770" data-name="Path 770" d="M1513.764,946.852c-.356-.087-.854-.326-1.5-1.856-1.09-2.6-3.82-9.56-4.23-10.5-.171-.393-.272-.545-.427-.545s-.272.188-.477.683l-4.281,10.72c-.343.851-.669,1.436-1.453,1.533a5.229,5.229,0,0,1-.528.037l-.205.135c0,.138.1.171.323.171.888,0,1.826-.05,2.014-.05.528,0,1.264.05,1.809.05.188,0,.289-.034.289-.171,0-.1-.05-.135-.255-.135h-.256c-.531,0-.682-.225-.682-.531a3.258,3.258,0,0,1,.255-1.039l.921-2.445.155-.135h3.806l.168.118,1.365,3.618a.277.277,0,0,1-.151.393c-.171.02-.239.05-.239.155,0,.121.205.121.511.138,1.365.034,2.609.034,3.225.034.632,0,.787-.034.787-.171l-.222-.135A3.848,3.848,0,0,1,1513.764,946.852Zm-5.051-4.929h-3.141l-.067-.121,1.57-4.2.1-.155.087.155,1.537,4.217Z" transform="translate(-1401.266 -655.549)"/>
  <path id="Path_771" data-name="Path 771" d="M1556.222,940.295c-.734,0-1.3.036-1.467.036-.327,0-1.125-.036-1.913-.036-.222,0-.373.017-.373.138,0,.087.05.154.238.154a2.554,2.554,0,0,1,.784.084c.359.137.5.4.513,1.282l.154,6.449h-.069c-.22-.2-2.218-2.251-3.242-3.259-2.184-2.129-4.437-4.437-4.626-4.623-.254-.257-.461-.479-.648-.479-.153,0-.256.207-.256.494l-.136,8.6c-.018,1.261-.066,1.653-.461,1.757a3,3,0,0,1-.682.07l-.238.153c0,.135.135.154.341.154.767,0,1.485-.05,1.619-.05.276,0,.975.05,1.948.05.2,0,.342-.032.342-.154,0-.087-.086-.153-.257-.153a2.552,2.552,0,0,1-.784-.1c-.29-.1-.479-.445-.513-1.569l-.169-5.924h.051c.288.257,1.878,2.013,3.515,3.581,1.571,1.524,3.447,3.314,4.386,4.184a.88.88,0,0,0,.615.307c.121,0,.239-.137.239-.463l.171-9.146c.017-.818.136-1.075.545-1.194a1.542,1.542,0,0,1,.461-.05c.171,0,.256-.067.256-.154C1556.563,940.312,1556.426,940.295,1556.222,940.295Z" transform="translate(-1429.899 -659.591)"/>
  <path id="Path_772" data-name="Path 772" d="M1598.712,948.915a2.313,2.313,0,0,1-.511.973c-.6.665-1.333.768-2.664.768a4.836,4.836,0,0,1-4.674-5.087,4.7,4.7,0,0,1,1.38-3.768,4.043,4.043,0,0,1,2.835-.82,4.254,4.254,0,0,1,2.9.852,2.052,2.052,0,0,1,.58,1.348c0,.19.033.308.153.308.136,0,.189-.151.206-.358.016-.291.016-1.091.05-1.569.035-.513.069-.683.069-.8,0-.085-.052-.154-.222-.173-.445-.05-.937-.152-1.5-.235a15.146,15.146,0,0,0-2.183-.155,6.767,6.767,0,0,0-4.761,1.533,5.6,5.6,0,0,0,.12,8.262,7.719,7.719,0,0,0,5.152,1.572,8.74,8.74,0,0,0,2.715-.326c.256-.1.325-.169.391-.425a12.686,12.686,0,0,0,.325-1.93l-.17-.258C1598.781,948.623,1598.745,948.694,1598.712,948.915Z" transform="translate(-1459.642 -659.694)"/>
  <path id="Path_773" data-name="Path 773" d="M1634.829,949.252c-.1,0-.136.07-.172.225-.1.6-.272.9-.646,1.075a4.123,4.123,0,0,1-1.418.188c-1.534,0-2-.223-2.033-1.212-.016-.429,0-1.658,0-2.153v-1.16l.087-.153c.375,0,2.081.032,2.356.067.562.05.749.275.837.565.032.187.032.376.051.525l.135.121.153-.32c0-.106.034-.686.068-.975.085-.735.12-.973.12-1.058l-.12-.154-.237.188c-.139.154-.359.187-.718.22-.341.036-2.287.036-2.629.036l-.1-.153V941.54l.1-.139c.306,0,2.1.035,2.355.071.752.068.872.274.991.528a1.4,1.4,0,0,1,.1.528l.119.189.172-.24c.033-.169.067-.8.085-.956a6.358,6.358,0,0,1,.121-.939l-.1-.135-.24.07c-.119.015-.357.065-.632.083s-3.617,0-4.1,0c-.427,0-1.382-.036-2.167-.036-.221,0-.34.036-.34.138s.1.154.256.154a2.791,2.791,0,0,1,.6.05c.476.137.613.292.648.784.016.463.016.872.016,3.073v2.558c0,1.333,0,2.476-.068,3.092-.052.424-.135.7-.443.767a2.231,2.231,0,0,1-.529.051c-.188,0-.239.084-.239.153,0,.1.1.154.29.154.307,0,.683-.019,1.039-.032s.683-.018.855-.018c.443,0,1.006.018,1.74.032.733.037,1.637.052,2.765.052.563,0,.7,0,.8-.375a9.676,9.676,0,0,0,.205-1.6C1634.964,949.441,1634.947,949.252,1634.829,949.252Z" transform="translate(-1485.144 -659.861)"/>
  <path id="Path_774" data-name="Path 774" d="M1663.905,944.736l-.614-.344c-1.347-.75-1.587-1.262-1.587-1.912,0-.989.973-1.55,2.048-1.55a2.019,2.019,0,0,1,1.672.682,1.645,1.645,0,0,1,.393.954c0,.173.05.255.154.255s.187-.154.187-.46c0-1.142.051-1.552.051-1.738l-.2-.189a8.932,8.932,0,0,0-2.133-.238c-2.082,0-3.789,1.143-3.789,2.92,0,1.276.581,2.251,2.353,3.292l.871.509c1.332.785,1.485,1.417,1.485,2.048a1.884,1.884,0,0,1-2.083,1.845,2.319,2.319,0,0,1-2.387-1.434,2.68,2.68,0,0,1-.138-.754l-.153-.238c-.119,0-.187.157-.187.378-.019.238-.087,1.144-.087,1.928,0,.325.051.39.289.494a6.358,6.358,0,0,0,2.442.378,4.372,4.372,0,0,0,2.508-.6,3.1,3.1,0,0,0,1.5-2.715C1666.5,946.935,1665.885,945.827,1663.905,944.736Z" transform="translate(-1506.867 -659.694)"/>
  <path id="Path_775" data-name="Path 775" d="M1696.215,940.3c-.051,0-.17.034-.411.068a6.8,6.8,0,0,1-1.022.068h-6.094a14.535,14.535,0,0,1-1.5-.068c-.377-.052-.53-.17-.65-.17-.086,0-.136.084-.169.272-.036.118-.326,1.52-.326,1.755,0,.157.035.242.139.242l.169-.188a1.66,1.66,0,0,1,.257-.495c.221-.325.581-.428,1.45-.444l2.235-.051v5.869c0,1.333,0,2.476-.068,3.092-.051.424-.137.7-.443.767a2.139,2.139,0,0,1-.529.051c-.19,0-.238.084-.238.153,0,.1.1.154.286.154.6,0,1.623-.05,1.966-.05.424,0,1.433.05,2.421.05.17,0,.289-.05.289-.154,0-.069-.068-.153-.239-.153a5.735,5.735,0,0,1-.769-.051c-.441-.07-.527-.343-.579-.752-.07-.632-.086-1.774-.086-3.108v-5.869l1.9.035c1.348.016,1.74.46,1.774.836l.017.151c.018.223.052.291.171.291.086,0,.119-.084.136-.24,0-.373.035-1.45.035-1.756C1696.335,940.383,1696.318,940.3,1696.215,940.3Z" transform="translate(-1524.313 -659.694)"/>
  <path id="Path_776" data-name="Path 776" d="M1734.089,951.432a2.82,2.82,0,0,1-1.6-.958c-.9-.9-1.96-2.216-3.292-3.853,1.466-1.177,2.081-2.135,2.081-3.208a2.536,2.536,0,0,0-1.059-2,5.261,5.261,0,0,0-2.848-.615c-.461,0-1.826.034-2.34.034-.306,0-1.261-.034-2.044-.034-.225,0-.343.034-.343.138s.1.155.256.155a2.824,2.824,0,0,1,.6.05c.478.135.612.289.646.783.017.464.017.871.017,3.073v2.556c0,1.335,0,2.478-.067,3.094-.05.424-.135.7-.444.767a2.195,2.195,0,0,1-.528.054c-.188,0-.239.084-.239.151,0,.1.1.155.289.155.6,0,1.553-.051,1.846-.051.222,0,1.466.051,2.334.051.188,0,.309-.051.309-.155l-.188-.151a5.8,5.8,0,0,1-.733-.054c-.464-.071-.531-.343-.582-.767-.067-.615-.084-1.745-.084-3.094v-.2l.118-.121,1.348.034.272.1c.188.225.821,1.2,1.419,1.98a6.822,6.822,0,0,0,2.048,2.132,3.236,3.236,0,0,0,1.638.293h1.436c.185,0,.289-.034.289-.155l-.188-.151A1.318,1.318,0,0,1,1734.089,951.432Zm-5.683-5.155a1.487,1.487,0,0,1-1.059.242,4.192,4.192,0,0,1-1.143-.138c-.1-.054-.135-.1-.135-.259v-4.318l.135-.2a5.447,5.447,0,0,1,.888-.054,2.282,2.282,0,0,1,2.29,2.579A2.45,2.45,0,0,1,1728.407,946.277Z" transform="translate(-1548.604 -660.096)"/>
  <path id="Path_777" data-name="Path 777" d="M1765.063,940.8c-.291,0-1.279.036-1.6.036-.443,0-.972-.036-1.468-.036-.169,0-.255.036-.255.138l.273.171c.256.051.323.186.323.325a1.884,1.884,0,0,1-.223.768c-.221.442-2.046,3.548-2.234,3.889-.257-.409-2.22-3.806-2.491-4.248a1.154,1.154,0,0,1-.189-.5l.205-.221c.238-.071.342-.071.342-.189l-.223-.138c-.683,0-1.383.036-1.706.036-.494,0-1.621-.036-1.878-.036-.188,0-.29.036-.29.138l.221.154a1.473,1.473,0,0,1,.632.188,3.345,3.345,0,0,1,.972,1.023c.528.766,2.578,3.962,2.681,4.182a2.9,2.9,0,0,1,.34,1.518v1.2c0,.237,0,.835-.051,1.451-.033.424-.153.7-.459.767a2.355,2.355,0,0,1-.529.051c-.172,0-.24.084-.24.153,0,.122.119.154.323.154.565,0,1.571-.05,1.948-.05.41,0,1.415.05,2.355.05.2,0,.323-.05.323-.154,0-.069-.085-.153-.255-.153a5.842,5.842,0,0,1-.751-.051c-.444-.07-.581-.343-.615-.767-.036-.616-.036-1.214-.036-1.451v-1.162a3.356,3.356,0,0,1,.19-1.45,47.774,47.774,0,0,1,2.918-4.644,2.024,2.024,0,0,1,.784-.682,1.851,1.851,0,0,1,.648-.17c.172,0,.292-.067.292-.171C1765.338,940.834,1765.235,940.8,1765.063,940.8Z" transform="translate(-1569.186 -660.094)"/>
  <rect id="Rectangle_1159" data-name="Rectangle 1159" width="183.852" height="3.047" transform="translate(12.3 271.99)"/>
  <path id="Path_778" data-name="Path 778" d="M1242.024,322.55l11.53-35.73,11.971,35.73h11.006l17.475-53.814,1.7-1.7,1.617,1.617V314.6l-7.952,7.949H1321.7l-7.949-7.949V293.283h16.339V314.6l-7.953,7.949h32.324l-7.949-7.949V268.649l7.949-7.949h-32.324l7.953,7.949V285.6H1313.75V268.649l7.949-7.949h-43.683l7.862,7.862L1275.4,303.068l-10.047-34.506,7.861-7.862h-33.635l7.952,7.949,2.008,5.942-8.648,28.477-10.047-34.506,7.865-7.862H1205.07l8.036,8.036,17.909,53.814Z" transform="translate(-1205.069 -208.681)"/>
  <path id="Path_779" data-name="Path 779" d="M1252.59,479.29l8.037,8.036,15.636,26.819v19.045l-7.949,7.949h32.324l-7.949-7.949v-18.87l14.415-27.082,7.949-7.949H1290.59l7.865,7.862-9.173,17.821-9.61-17.821,7.862-7.862Z" transform="translate(-1236.61 -353.77)"/>
  <path id="Path_780" data-name="Path 780" d="M1444.573,474.17c-16.752.706-28.823,15.76-28.823,32.647,0,16.083,10.952,30.508,26.47,32.448-.76-1.352-1.55-2.788-2.367-4.344-6.739-12.815,3.279-22.717,3.6-23.03-4.953,10.713-.73,19.889,3.571,27.573,16.755-.7,28.833-15.757,28.833-32.647,0-16.083-10.952-30.508-26.466-32.448.746,1.348,1.54,2.781,2.36,4.341,6.738,12.818-3.278,22.727-3.6,23.03C1453.114,491.026,1448.877,481.86,1444.573,474.17Zm3.692,15.528-5.276.891c-.037-.266-.081-.514-.108-.794-.037-.38-.064-.746-.091-1.113l5.172-1.463C1448.1,488.077,1448.2,488.9,1448.266,489.7Zm-2.29-9.18c.32.75.605,1.5.854,2.229l-4.055,2.381a22.147,22.147,0,0,1,.266-2.381Zm-2.935,36.9,2.935-2.239q.479,1.14.854,2.239l-4.055,2.377A22.08,22.08,0,0,1,1443.04,517.419Zm-.158,7.048c-.037-.383-.064-.746-.091-1.113l5.172-1.463c.141.857.239,1.678.3,2.478l-5.276.891C1442.953,524.995,1442.909,524.742,1442.882,524.467Zm1.281,6.063c-.2-.588-.383-1.231-.552-1.927l4.687.108c-.061.837-.158,1.594-.276,2.3Zm7.586-17.149c6.738,12.815-3.278,22.727-3.6,23.03,4.983-10.75.706-19.936-3.618-27.647-1.382-2.505-2.976-5.232-4.677-8.467-6.739-12.818,3.279-22.727,3.6-23.03-4.973,10.74-.7,19.936,3.621,27.647C1448.45,507.419,1450.048,510.136,1451.749,513.38Zm-3.726-17.041-3.86-.481c-.2-.588-.383-1.231-.552-1.927l4.687.118C1448.239,494.876,1448.141,495.636,1448.023,496.339Z" transform="translate(-1344.907 -350.371)"/>
  <path id="Path_781" data-name="Path 781" d="M1623.714,479.29H1591.39l7.949,7.949v36.517c0,13.891,12.667,19.133,25.249,19.133,10.4,0,20.441-6.9,20.441-19.133V487.239l7.952-7.949h-24.462l7.949,7.949v36.517c0,6.816-4.543,11.009-10.135,11.009-5.676,0-10.568-3.756-10.568-11.009V487.239Z" transform="translate(-1461.488 -353.77)"/>
  <path id="Path_782" data-name="Path 782" d="M1412.94,700.377l9.7,9.7V692.69h-48.4l7.949,7.949v45.952l-6.638,6.641h0l-6.641-6.641-12.229-22.1c6.288-2.535,10.918-7.515,10.918-14.415,0-13.628-14.415-17.384-26.557-17.384H1310.9l7.952,7.949v45.952l-5.7,5.693h0l-5.78-5.78-19.657-53.814h-11.88l-19.22,53.814-8.036,8.036H1272.6l-7.862-7.862,2.885-8.3h18.346l2.357,8.3-7.862,7.862h62.755l-7.949-7.949V727.458h6.116l12.929,27.082h68.32V737.156l-9.7,9.7h-14.328V725.276h9.523l7.949,7.949V709.637l-7.949,7.949h-9.523V700.377ZM1270.42,730.69l7.162-20.353,6.116,20.353Zm70.62-10.918h-5.767v-19.4h5.767c4.98,0,8.823,3.756,8.823,9.7S1346.019,719.772,1341.039,719.772Z" transform="translate(-1233.949 -495.413)"/>
  <path id="Path_783" data-name="Path 783" d="M1207.059,142.347a30.092,30.092,0,0,0,12.075-13.561c.081.134.148.269.236.4,1.079,1.634,2.767,2.007,4.566,2.011-2.407,4.267-6.187,7.821-7.112,12.8-.185.985.82,3.447,1.839,3.79,1.749.585,3.171-.259,4.566-1.284,1.806-1.325,3.558-2.734,5.313-4.126.555-.44,1.187-1.066,1.856-1.654a9.119,9.119,0,0,0,.9,2.071,6.049,6.049,0,0,0,6.947,3.043c3.968-.989,7.8-4.264,10.969-6.735,1.049-.82,2.061-1.681,3.053-2.562-.074.266-.158.531-.225.8-.693,2.744.515,7.734,3.759,8.41a.2.2,0,0,0,.3-.145,60.779,60.779,0,0,1,7.606-10,45.436,45.436,0,0,1,3.786-3.7c.071.061.118.1.145.124a.119.119,0,0,0,.017.013l.007.007.01.007c.027.024.074.064.148.124q-2.824,5.1-5.646,10.212c-.43.777,1.735,4.462,2.149,4.052q4.65-4.615,9.291-9.24a50.7,50.7,0,0,1,3.944-3.705,19.228,19.228,0,0,1,2.095-1.493c-.195.3-.393.6-.582.9-1.083,1.728-2.149,3.463-3.221,5.2-.81,1.3-2.179,2.845-2.206,4.449a7.07,7.07,0,0,0,1.6,4.052c1.947,2.532,4.825.232,6.863-1.056s4.022-2.683,5.928-4.163c.6,2.589,2.223,5.683,4.862,6.58,2.9.989,6.261-.171,8.786-1.611a50.294,50.294,0,0,0,9.217-7.472c.064-.057.121-.118.182-.178a9.465,9.465,0,0,0,3.12,6.167c.585,1,1.355,1.839,1.523,1.422.864-2.135,1.752-4.267,3.487-5.787,2.727-2.394,4.825-5.72,7.572-8.346a21.484,21.484,0,0,1,2.219-1.866q-.746,1.669-1.5,3.339-1.619,3.616-3.228,7.236c-.316.72.5,2.078.847,2.673.128.219,1.046,1.718,1.335,1.1a32.863,32.863,0,0,1,8.968-11.584,29.494,29.494,0,0,1,2.788-2.028c-1.106,2.253-2.431,4.435-3.6,6.641-1.177,2.223-2.169,3.853-1.15,6.328.82,2,2.038,3.9,4.314,2.683a45.758,45.758,0,0,0,9.2-6.691c-.084,2.424.817,5.417,2.959,6.432,1.755.837,3.864-.642,5.353-1.466a44.675,44.675,0,0,0,5.407-3.531,43.449,43.449,0,0,0,6.231-5.908c.084.182.158.363.252.545a7.522,7.522,0,0,0,2.509,2.784,9.079,9.079,0,0,0,.044,1.91,8.486,8.486,0,0,0,4.2,5.747c2.555,1.231,5.585.585,8.033-.588,6.4-3.07,10.36-9.156,14.583-14.57a3.977,3.977,0,0,0,.881.74,5.037,5.037,0,0,0,2.286.572c-.128.141-.256.279-.38.424q-1.3,1.5-2.512,3.073c-1.234,1.611-2.966,3.443-3.568,5.407-.535,1.755.451,3.86,1.469,5.262a3.411,3.411,0,0,0,3.82,1.389,18.318,18.318,0,0,0,5.777-2.932,26.94,26.94,0,0,0,5.73-5.151c.659-.78-1.479-4.183-1.863-3.833a40.14,40.14,0,0,1-9.845,6.873,9.691,9.691,0,0,1-1.712.636,8.751,8.751,0,0,1,.464-.79q1.069-1.564,2.233-3.06c1.184-1.523,2.616-2.882,3.756-4.425.9-1.214.552-2.455-.024-3.756a5.348,5.348,0,0,0-2.808-3.107,6.2,6.2,0,0,0-1.97-.256,9.772,9.772,0,0,1-1.174-.064c-1.483-.229-.646-.794-.145,1.722-.158-.588-1.634-4-2.2-3.164-3.3,4.913-7.3,9.9-12.243,13.242-2.333,1.577-5.225,2.993-8.124,2.72a6.307,6.307,0,0,1-1.9-.477,4.135,4.135,0,0,1-.481-.262c0-.047.007-.081.007-.131a13.855,13.855,0,0,1,1.079-2.868c.387.827.888,1.523,1.359,1.449a18.315,18.315,0,0,0,7.925-3.157c1.944-1.4,4.613-3.746,5.306-6.157.558-1.94-1.062-5.017-2.767-5.955-2.313-1.271-5.4.76-7.273,2.048a20.5,20.5,0,0,0-5.612,5.827c-.259.407-.531.854-.794,1.318a.075.075,0,0,0-.044.02,2.64,2.64,0,0,1-1.476.629,3.171,3.171,0,0,1-1.332-.38,5.014,5.014,0,0,1,.235-.874,5.257,5.257,0,0,1,.565-1.083c.286-.36.582-.71.864-1.079.625-.814-1.368-3.944-1.917-3.944-.928,0-1.483,1.274-1.483,2a44.018,44.018,0,0,1-12.868,10.757,15.4,15.4,0,0,1-3.9,1.836,1.9,1.9,0,0,1-.471.047c.124-.558.245-1.116.417-1.664a69.888,69.888,0,0,1,2.818-7.273c.192.182.36.269.471.2a59.413,59.413,0,0,0,16.749-16.117c1.722-2.5,4.55-5.706,3.285-8.9-.407-1.029-1.14-2.458-2.354-2.65-1.738-.269-4,1.473-5.255,2.471-5.975,4.751-10.582,11.977-13.954,18.729-.915,1.836-1.816,3.746-2.6,5.7-.131-.108-.249-.175-.313-.118-.888.773-8.363,7.061-12.226,9.429q.666-1.271,1.335-2.542c1.005-1.923,2.054-3.837,3-5.79a4.956,4.956,0,0,0,.1-4.371c-.461-1.14-1.352-3-2.74-3.2-1.328-.188-3.046,1.483-4.018,2.229-.615.477-1.211.985-1.792,1.5a5.258,5.258,0,0,0-.4-1.772c-.494-1.217-1.4-2.959-2.942-2.784-1.607.178-3.258,1.812-4.354,2.885q-.348.338-.676.7a100.96,100.96,0,0,0-9.8,12.768,1.857,1.857,0,0,0-.528-.4,2.041,2.041,0,0,1-.377-.229,17.1,17.1,0,0,1,.276-1.789c.908-2.781,3.406-4.909,4.23-7.24a6.852,6.852,0,0,1,2.579-2.882c.75-.585-1.627-4.217-1.964-3.877-4.193,4.267-8.393,8.544-12.932,12.448-3.561,3.067-8.874,7.522-14,6.032a13.027,13.027,0,0,1-1.375-.706c-.017-.2-.054-.4-.051-.588a8.292,8.292,0,0,1,1.268-3.917c.067-.057.135-.111.2-.171a.512.512,0,0,0,.131-.229c6.157,3.2,12.388-2.229,15.891-6.947A3.181,3.181,0,0,0,1308.2,128c-.4-1.221-1.18-2.9-2.512-3.339a6.048,6.048,0,0,0-3.507.353,24.4,24.4,0,0,0-4.385,1.765,21.937,21.937,0,0,0-8.642,7.922c-2.135,1.742-4.311,3.43-6.587,4.983a49.4,49.4,0,0,1-4.361,2.946c-.279-.306,0,0-.276-.306q2.083-3.354,4.153-6.722a8.229,8.229,0,0,0,1.58-3.329c.151-1.574-.911-4.217-2.327-5.04-1.87-1.089-4.687,1.163-6.049,2.283-1.032.851-2.028,1.755-3.016,2.677a5.905,5.905,0,0,0,.5-3.81c-.182-.713-1.079-3.611-2.142-3.416-2.835.521-5.054,2.441-7.078,4.412a62.21,62.21,0,0,0-6.654,7.576c-.589.8-1.164,1.611-1.712,2.438-.215.33-.427.659-.635.992.165-.555.35-1.106.535-1.644a48.6,48.6,0,0,1,4.687-9.8c.521-.837-1.7-4.21-2.095-3.625-.2.293-.387.592-.575.888-.05-.027-.1-.061-.121-.037a69.009,69.009,0,0,1-10.269,9.492,70.675,70.675,0,0,1-6.325,4.18,12.578,12.578,0,0,1-5.387,2.115,4.136,4.136,0,0,1-2.8-.622c-.215-.212-.131-.2.155-.757a13.107,13.107,0,0,0,.535-1.409,2.264,2.264,0,0,1,.555-.084,14.3,14.3,0,0,0,5.04-.968c4.331-1.661,12.337-8.685,7.364-13.588-1.947-1.917-6.147.972-7.862,2.162a21.246,21.246,0,0,0-6.382,7.011,14.233,14.233,0,0,0-.821,1.722,3.226,3.226,0,0,0-.9.514c-1.4,1.026-2.787,2.071-4.173,3.124-1.614,1.227-3.187,2.5-4.8,3.726h0c2.4-3.988,6.076-7.337,7.108-11.991.208-.935-1.022-4.21-2.209-4.163a47.179,47.179,0,0,1-5.246.212,1.973,1.973,0,0,1-.316-.01c.1-.511.141-1.106.272-1.543.235-.787-.44-1.947-.82-2.6-.1-.171-1.093-1.685-1.295-1.069a32.526,32.526,0,0,1-13.171,16.964C1204.5,139.075,1206.447,142.7,1207.059,142.347Zm171.852-10.468a19.661,19.661,0,0,1,3.366-2.142,10.1,10.1,0,0,1,1.648-.693,4.064,4.064,0,0,1,.935-.178c-.057.1-.1.188-.121.215a16.273,16.273,0,0,1-1.7,2.078,18.737,18.737,0,0,1-3.077,2.566,18.309,18.309,0,0,1-5.027,2.344A20.643,20.643,0,0,1,1378.91,131.879Zm-14.523-16.6a26.882,26.882,0,0,1,3.48-3.352,16.385,16.385,0,0,1,1.98-1.325,4.42,4.42,0,0,1,.669-.276c-.2.313-.407.622-.605.931q-1.4,2.169-2.966,4.227a61.871,61.871,0,0,1-10.5,10.7A69.984,69.984,0,0,1,1364.388,115.275Zm-67.829,17.542a23.714,23.714,0,0,1,6.348-3.625c.515-.192,1.066-.407,1.624-.575-2.761,3.191-6.359,6.113-10.437,6.446A24.969,24.969,0,0,1,1296.559,132.818Zm-60.2.857a21.549,21.549,0,0,1,4.412-3.783,24.089,24.089,0,0,1,3.48-1.957,13.927,13.927,0,0,1-.78,1.174,16.023,16.023,0,0,1-2.656,2.68,16.291,16.291,0,0,1-5.188,2.777C1235.862,134.263,1236.1,133.961,1236.356,133.675Z" transform="translate(-1205.067 -105.997)"/>
  <path id="Path_784" data-name="Path 784" d="M1676.334,255.63c-17.374,0-30.034,15.367-30.034,32.65s12.66,32.654,30.034,32.654,30.031-15.367,30.031-32.654S1693.7,255.63,1676.334,255.63Zm0,57.62c-10.39,0-11.436-14.143-11.436-24.97s1.046-24.967,11.436-24.967,11.436,14.143,11.436,24.967S1686.721,313.25,1676.334,313.25Z" transform="translate(-1497.934 -205.315)"/>
</svg>
