<?xml version="1.0" encoding="utf-8"?>
<!-- Generator: Adobe Illustrator 25.3.1, SVG Export Plug-In . SVG Version: 6.00 Build 0)  -->
<svg version="1.1" id="Layer_1" xmlns="http://www.w3.org/2000/svg" xmlns:xlink="http://www.w3.org/1999/xlink" x="0px" y="0px"
	 viewBox="0 0 1924 860.9" style="enable-background:new 0 0 1924 860.9;" xml:space="preserve">
<style type="text/css">
	.st0{fill:url(#SVGID_1_);}
	.st1{opacity:0.25;fill:#2B206A;enable-background:new    ;}
</style>
<g transform="translate(0.5 0.498)">
	
		<linearGradient id="SVGID_1_" gradientUnits="userSpaceOnUse" x1="1.999" y1="903.0449" x2="1.999" y2="902.0449" gradientTransform="matrix(1922.976 0 0 -995.828 -2882.4639 899141.9375)">
		<stop  offset="0" style="stop-color:#2A2266"/>
		<stop  offset="1" style="stop-color:#6132C6"/>
	</linearGradient>
	<path class="st0" d="M0-135.4h1923v778.3L707.3,860.4L0,696.8V-135.4z"/>
	<path class="st1" d="M27.4,703.1c26.9-1.6,47.3-24.8,45.7-51.6s-24.8-47.3-51.6-45.7c-7.6,0.5-14.9,2.7-21.5,6.5v-32.6
		c41.3-13.5,85.7,9,99.2,50.3c9.9,30.3,0.6,63.5-23.7,84.2L27.4,703.1z M0,696.8v-0.1c0.1,0.1,0.3,0.2,0.4,0.2L0,696.8z M0,663.9
		v-18.8c5.2-13.5,20.4-20.3,33.9-15.1s20.3,20.4,15.1,33.9S28.6,684.2,15.1,679C8.1,676.3,2.7,670.8,0,663.9z M34,531.8
		c-3,3.9-16.8,21.2-34,23.6v-48.8c17.2,2.4,31.1,19.7,34,23.6c3.2-4.2,19-23.9,38-23.9c21.3,0,38.6,24.7,38.6,24.7
		S93.4,555.7,72,555.7C53,555.7,37.2,536,34,531.8L34,531.8z M27.1,441c0-18.8,15.2-33.9,34-33.9c18.8,0,33.9,15.2,33.9,34
		c0,18.7-15.2,33.9-33.9,33.9C42.3,475,27.1,459.8,27.1,441L27.1,441L27.1,441z M0,409.9c17.2,7.5,25,27.6,17.5,44.7
		c-3.4,7.8-9.7,14.1-17.5,17.5V409.9z M27.1,368.6c0-18.8,15.2-33.9,33.9-33.9S95,349.9,95,368.6s-15.2,33.9-33.9,33.9
		S27.1,387.4,27.1,368.6L27.1,368.6L27.1,368.6z M0,337.5c17.2,7.5,25,27.6,17.5,44.7C14.1,390,7.8,396.3,0,399.7V337.5z
		 M36.8,305.5v-26.3H12.4v26.3H0V160.6h12.4v27.7h24.4v-27.7H95v58.3H66.9v28.4H95v58.3H36.8z M5.5,140.1v-20.9H0V77.4l24.9-24.9
		L0,27.6v-41.9h5.5v-26.4h41.8v26.4h49.1L29.7,52.5l66.8,66.8H47.4v20.9L5.5,140.1z M10.8,92.1c0,8.3,6.7,14.9,14.9,14.9
		c8.3,0,14.9-6.7,14.9-14.9c0-8.3-6.7-14.9-14.9-14.9S10.8,83.9,10.8,92.1L10.8,92.1z M10.8,14.4c0,8.3,6.7,14.9,14.9,14.9
		c8.3,0,14.9-6.7,14.9-14.9c0-8.3-6.7-14.9-14.9-14.9C17.5-0.5,10.8,6.2,10.8,14.4L10.8,14.4z M38.2-72.9c-12,8.9-29,6.3-37.8-5.7
		c-0.1-0.1-0.2-0.3-0.3-0.4v-31.2c18.6-0.9,36.9-4.8,54.2-11.4c11.1,0,21,6.7,25.1,17h19.3v19.1H79.7c-5,14.1-20.5,21.5-34.5,16.5
		C42.7-70.1,40.3-71.3,38.2-72.9z"/>
	<path class="st1" d="M1791.1,623.2l-24.5-0.1l0.1-38.8l24.5,0.1l0.1-45.5l61.8,62.2l62.1-61.8l-0.1,45.5l7.9,0v38.8l-8,0l-0.1,20.7
		l-19.7,3.5l-42.2-42.4l-61.3,60.9l-0.9,0.2L1791.1,623.2z M1876,604.6L1876,604.6c0,7.7,6.2,13.9,13.9,13.9s13.9-6.2,13.9-13.9
		c0-7.6-6.2-13.8-13.8-13.9h0C1882.2,590.8,1876,597,1876,604.6z M1803.9,604.4L1803.9,604.4c0,7.7,6.2,13.9,13.9,13.9
		c7.7,0,13.9-6.2,13.9-13.9c0-7.6-6.2-13.8-13.8-13.9h0C1810.1,590.6,1803.9,596.8,1803.9,604.4z M1716.2,666.4v-11.1h-10.3v11.1
		h-24.6v-24.6h9.3v-12h-9.3v-24.6h24.6v11.7h10.3v-11.7h24.6v24.6h-11.9v12h11.9v24.6H1716.2z M1645.1,666.4v-11.1h-10.3v11.1h-24.6
		v-24.6h9.3v-12h-9.3v-24.6h24.6v11.7h10.3v-11.7h24.6v24.6h-11.9v12h11.9v24.6H1645.1z M1677.3,556.9c0-17.8,14.4-32.3,32.3-32.3
		c17.8,0,32.3,14.4,32.3,32.3c0,17.8-14.4,32.3-32.3,32.3c0,0,0,0,0,0C1691.7,589.2,1677.3,574.7,1677.3,556.9z M1608.4,556.9
		c0-17.8,14.4-32.3,32.3-32.3c17.8,0,32.3,14.4,32.3,32.3c0,17.8-14.4,32.3-32.3,32.3c0,0,0,0,0,0
		C1622.9,589.2,1608.4,574.7,1608.4,556.9z M1677.3,485.9c0-17.8,14.5-32.3,32.3-32.3s32.3,14.5,32.3,32.3
		c0,17.8-14.4,32.3-32.3,32.3C1691.7,518.2,1677.3,503.7,1677.3,485.9C1677.3,485.9,1677.3,485.9,1677.3,485.9z M1608.4,485.9
		c0-17.8,14.5-32.3,32.3-32.3c17.8,0,32.3,14.5,32.3,32.3c0,17.8-14.5,32.3-32.3,32.3C1622.9,518.2,1608.4,503.7,1608.4,485.9
		C1608.4,485.9,1608.4,485.9,1608.4,485.9z M1837.2,485.2c0,0,17.3-24.7,38.6-24.7c18.1,0,33.3,17.8,37.5,23.2
		c2.9-3.7,6.2-7.2,9.7-10.4v23.8c-3.5-3.2-6.8-6.7-9.7-10.4c-4.2,5.4-19.4,23.2-37.5,23.2C1854.5,509.9,1837.2,485.2,1837.2,485.2
		L1837.2,485.2z M1759.5,484.8c0,0,17.3-24.7,38.6-24.7s38.6,24.7,38.6,24.7s-17.3,24.7-38.6,24.7S1759.5,484.8,1759.5,484.8z
		 M1687.4,398.7v31.5h-19v-33.4l-59.6,46.8V301.3l59.6,46.8v-34.4h19v34.6l58.6-46v142.3L1687.4,398.7z M1841.4,395.5
		c0-18.8,15.2-34,33.9-34s34,15.2,34,33.9s-15.2,34-33.9,34c0,0,0,0,0,0C1856.6,429.5,1841.4,414.3,1841.4,395.5z M1766.7,395.5
		c0-18.8,15.2-34,33.9-34s34,15.2,34,33.9s-15.2,34-33.9,34C1781.9,429.5,1766.7,414.3,1766.7,395.5
		C1766.7,395.5,1766.7,395.5,1766.7,395.5L1766.7,395.5z M1841.4,323.1c0-18.8,15.2-34,34-34s34,15.2,34,34s-15.2,34-34,34
		C1856.6,357.1,1841.4,341.9,1841.4,323.1L1841.4,323.1L1841.4,323.1z M1766.7,323.1c0-18.8,15.2-33.9,34-33.9
		c18.8,0,33.9,15.2,33.9,34c0,18.7-15.2,33.9-33.9,33.9C1781.9,357.1,1766.7,341.9,1766.7,323.1
		C1766.7,323.1,1766.7,323.1,1766.7,323.1L1766.7,323.1z M1704.5,284.5l-23.9-25.4l-23.9,25.4h-48.6c39.4-4,68.2-39.2,64.1-78.7
		c-3.4-33.9-30.2-60.7-64.1-64.1h47.1l23.9,25.4l23.9-25.4h48.6c-39.4,4-68.2,39.2-64.1,78.7c3.4,33.9,30.2,60.7,64.1,64.1H1704.5z
		 M1779.1,156.2l58.9-59.4L1774.5,33l121.7-122.7l26.7,27V85.8l-20.1-20.3l-33.3,33.6l33.3,33.6l20.1-20.3v144.9l-21.8,21.9
		L1779.1,156.2z M1704.5,131.7l-23.9-25.4l-23.9,25.4h-48.6c39.4-4,68.2-39.2,64.1-78.7c-3.4-33.9-30.2-60.7-64.1-64.1h47.1
		l23.9,25.4l23.9-25.4h48.6c-39.4,4-68.2,39.2-64.1,78.7c3.4,33.9,30.2,60.7,64.1,64.1H1704.5z M1676.8-68.6
		c0-18,14.6-32.5,32.5-32.5c18,0,32.5,14.6,32.5,32.5c0,18-14.6,32.5-32.5,32.5S1676.8-50.6,1676.8-68.6L1676.8-68.6z M1605.3-68.6
		c0-18,14.6-32.5,32.5-32.5c18,0,32.5,14.6,32.5,32.5c0,18-14.6,32.5-32.5,32.5C1619.9-36,1605.3-50.6,1605.3-68.6
		C1605.3-68.6,1605.3-68.6,1605.3-68.6L1605.3-68.6z M1676.9-135.4h64.8c-1.4,17.9-17.1,31.3-35,29.9
		C1690.9-106.8,1678.2-119.5,1676.9-135.4z M1605.4-135.4h64.8c-1.4,17.9-17.1,31.3-35,29.9C1619.3-106.8,1606.6-119.5,1605.4-135.4
		z M1823.9-118.4c-12,8.9-29,6.3-37.8-5.7c-1.6-2.1-2.8-4.5-3.7-7h-14.7v-4.2h116.7v4.2h-18.9c-5,14.1-20.5,21.5-34.5,16.5
		C1828.4-115.6,1826.1-116.8,1823.9-118.4z M1914-131.2h-14.7v-4.2h23.6v16.6C1918.9-122,1915.7-126.3,1914-131.2L1914-131.2z"/>
</g>
</svg>
