<svg xmlns="http://www.w3.org/2000/svg" xmlns:xlink="http://www.w3.org/1999/xlink" width="416.011" height="499.463" viewBox="0 0 416.011 499.463"><defs><linearGradient id="a" x1="0.5" x2="0.5" y2="1" gradientUnits="objectBoundingBox"><stop offset="0" stop-color="#2a2266"/><stop offset="1" stop-color="#6132c6"/></linearGradient></defs><g transform="translate(0.499)"><path d="M0-363.225H415.013V93.891L0,136.158Z" transform="translate(0 363.225)" fill="url(#a)"/><path d="M9306.619,24391.113h-4.634v-15.055h14.032v7.154h6.308v-7.154h15.05v13.719l-30.756,3.133Zm37.787-15.055h15.056v7.154h6.309v-7.154h15.05v9.295l-36.414,3.709Zm52.248-12.732,14.952.043.079-27.832,37.774,37.982,37.983-37.768-.073,27.832,11.85.035-.027,9.678-18.781,1.914a8.475,8.475,0,0,0-16.931.547v.025a8.483,8.483,0,0,0,.077,1.143l-12.167,1.24-1.937-1.949-2.4,2.391-11.78,1.2a8.476,8.476,0,1,0-15.867-4.172v.025a8.441,8.441,0,0,0,2.073,5.553l-24.88,2.533Zm119.613-.189,7.16-6.75-7.16-6.756v-13.707a20.264,20.264,0,0,0,40.318,0v13.3l-7.166,6.756,7.166,6.754v4.721l-15.652,1.6a6.791,6.791,0,1,0-9.9,1.008l-14.765,1.5Zm-174.282-16.559a19.727,19.727,0,1,1,19.727,19.727A19.729,19.729,0,0,1,9341.985,24346.578Zm-40,8.834v-17.668a19.727,19.727,0,1,1,0,17.668Zm266.408,7.725,7.16-6.75-7.16-6.756v-13.707a20.261,20.261,0,0,0,40.313,0v13.3l-7.16,6.756,6.6,6.225-18.112,1.844a3.2,3.2,0,1,0-3.1.316l-18.538,1.889Zm98.9-32.8a48.031,48.031,0,0,1,40.227,21.74l-22.611,2.3a29.794,29.794,0,0,0-39.71,4.045l-22.622,2.3A48.093,48.093,0,0,1,9667.292,24330.34Zm-325.307-27.158a19.727,19.727,0,1,1,19.727,19.721A19.73,19.73,0,0,1,9341.985,24303.182Zm-40,8.832v-17.668a19.723,19.723,0,1,1,0,17.668Zm371.149-8.6c-1.949,2.594-11.611,14.6-23.24,14.6-13.032,0-23.595-15.086-23.595-15.086s10.563-15.1,23.595-15.1c11.629,0,21.291,12.01,23.24,14.607,1.949-2.6,11.61-14.607,23.233-14.607,8.868,0,16.6,6.99,20.628,11.459v7.277c-4.032,4.463-11.76,11.449-20.628,11.449C9684.745,24318.018,9675.084,24306.008,9673.135,24303.414Zm-186.881.252c-2.544,3.279-11.837,14.168-22.908,14.168-13.027,0-23.6-15.094-23.6-15.094s10.568-15.092,23.6-15.092c11.071,0,20.364,10.893,22.908,14.172,2.544-3.279,11.838-14.172,22.909-14.172,11.941,0,21.812,12.678,23.381,14.8,1.452-1.986,11.384-14.842,23.411-14.842,11.623,0,21.284,12.008,23.233,14.6,1.956-2.594,11.617-14.6,23.24-14.6,13.032,0,23.595,15.092,23.595,15.092s-10.562,15.094-23.595,15.094c-11.623,0-21.284-12.01-23.24-14.6-1.949,2.594-11.61,14.6-23.233,14.6-11.941,0-21.817-12.678-23.381-14.793-1.459,1.98-11.384,14.836-23.411,14.836C9498.092,24317.834,9488.8,24306.945,9486.254,24303.666Zm-93.971-1.152s10.563-15.092,23.6-15.092,23.6,15.092,23.6,15.092-10.568,15.094-23.6,15.094S9392.283,24302.514,9392.283,24302.514Zm-44.07-52.646v19.236h-11.629v-20.383l-34.6,27.152v-84.109l34.6,27.152v-21h11.629v21.148l35.795-28.1v86.994Zm158.051,19.654,29.105-37.082h-17.753v-11.9h18.213l-28.9-36.824h89.018l-28.9,36.824h23.424v11.9h-24.288l29.106,37.082Zm162.659-21.578a20.751,20.751,0,1,1,20.751,20.75A20.747,20.747,0,0,1,9668.923,24247.943Zm-45.651,0a20.75,20.75,0,1,1,20.75,20.75A20.747,20.747,0,0,1,9623.271,24247.943Zm-180.953,0a20.751,20.751,0,1,1,20.751,20.75A20.751,20.751,0,0,1,9442.318,24247.943Zm-45.651,0a20.751,20.751,0,1,1,20.751,20.75A20.747,20.747,0,0,1,9396.667,24247.943Zm272.256-44.273a20.751,20.751,0,1,1,20.751,20.75A20.746,20.746,0,0,1,9668.923,24203.67Zm-45.651,0a20.75,20.75,0,1,1,20.75,20.75A20.746,20.746,0,0,1,9623.271,24203.67Zm-180.953,0a20.751,20.751,0,1,1,20.751,20.75A20.751,20.751,0,0,1,9442.318,24203.67Zm-45.651,0a20.751,20.751,0,1,1,20.751,20.75A20.746,20.746,0,0,1,9396.667,24203.67Zm-38.014-23.6-14.621-15.51-14.627,15.51h-27.42v-13.961a30.438,30.438,0,1,0,0-59.373v-13.961h26.538l14.62,15.51,14.621-15.51h29.688a43.874,43.874,0,0,0,0,87.295Zm45.565-78.4,35.991-36.285-38.756-39.068,74.372-74.979,80.472,81.127-35.7,36,32.932,33.209-74.647,75.26Zm55.3-34.9,20.377,20.543,20.377-20.543-20.377-20.543Zm107.512,75.119c0-12.977,13.4-23.76,16.294-25.936-2.894-2.178-16.294-12.961-16.294-25.932,0-14.547,16.84-26.336,16.84-26.336s16.846,11.789,16.846,26.336c0,12.971-13.406,23.754-16.3,25.932,2.894,2.176,16.3,12.959,16.3,25.936,0,14.541-16.846,26.33-16.846,26.33S9567.032,24156.436,9567.032,24141.895Zm107.788,23.2V24149H9659.9v16.092h-35.6v-35.609h13.376v-17.338h-13.376v-35.6h35.6v16.914h14.921v-16.914h35.6v35.6h-17.208v17.338h17.208v35.609Zm-316.167-78.387-14.621-15.51-14.627,15.51h-27.42v-13.961a30.438,30.438,0,1,0,0-59.373v-13.961h26.538l14.62,15.51,14.621-15.51h29.688a43.874,43.874,0,0,0,0,87.295Zm297.065-22.682v-12.77h-28.972l40.815-40.814-40.815-40.811h28.972v-16.109h25.569v16.109h30l-40.815,40.811,40.815,40.814h-30v12.77Zm3.249-29.334a9.134,9.134,0,1,0,9.134-9.133A9.133,9.133,0,0,0,9658.968,24034.689Zm0-47.5a9.134,9.134,0,1,0,9.134-9.129A9.132,9.132,0,0,0,9658.968,23987.193Zm-91.685,49.857c0-12.973,13.407-23.756,16.3-25.932-2.894-2.176-16.3-12.959-16.3-25.932,0-14.547,16.847-26.336,16.847-26.336s16.84,11.789,16.84,26.336c0,12.973-13.4,23.756-16.295,25.932,2.894,2.176,16.295,12.959,16.295,25.932,0,14.547-16.84,26.334-16.84,26.334S9567.283,24051.6,9567.283,24037.051ZM9711.283,24051.254Zm-369.556-86.988a19.88,19.88,0,1,1,19.88,19.875A19.877,19.877,0,0,1,9341.728,23964.266Zm-39.742,11.939v-23.879a19.875,19.875,0,1,1,0,23.879Zm39.742-54.342a19.88,19.88,0,1,1,19.88,19.873A19.881,19.881,0,0,1,9341.728,23921.863Zm-39.742,11.939v-23.881a19.874,19.874,0,1,1,0,23.881Zm373.675,0a16.545,16.545,0,0,1-25.41-7.8h-8.962v-11.652h9.2a451.138,451.138,0,0,0,35-10.4,16.53,16.53,0,0,1,15.356,10.4h11.807v11.652h-11.567a16.551,16.551,0,0,1-25.416,7.8Zm-80.478,0a16.545,16.545,0,0,1-25.41-7.8h-8.962v-11.652h9.2a451.138,451.138,0,0,0,35-10.4,16.544,16.544,0,0,1,15.362,10.4h11.8v11.652H9620.6a16.551,16.551,0,0,1-25.416,7.8Zm-83.071,0a16.551,16.551,0,0,1-25.416-7.8h-8.962v-11.652h9.2a449.1,449.1,0,0,0,34.991-10.4,16.544,16.544,0,0,1,15.362,10.4h11.8v11.652h-11.567a16.545,16.545,0,0,1-25.41,7.8Zm-80.478,0a16.551,16.551,0,0,1-25.416-7.8h-8.963v-11.652h9.2a448.395,448.395,0,0,0,35-10.4,16.544,16.544,0,0,1,15.362,10.4h11.8v11.652h-11.567a16.545,16.545,0,0,1-25.41,7.8Z" transform="translate(-9301.984 -23894)" fill="#2b206a" stroke="rgba(0,0,0,0)" stroke-miterlimit="10" stroke-width="1" opacity="0.25"/></g></svg>