<svg xmlns="http://www.w3.org/2000/svg" width="234.486" height="74.104" viewBox="0 0 234.486 74.104">
  <path id="Path_928" data-name="Path 928" d="M653.309,113.863c-.538-.5-3.063-2.677-3.519-1.076-1.38,4.981-5.326,8.624-9.659,11.163q-.8.47-1.656.911a9.768,9.768,0,0,0,.248-4.5c-.662-3.67-2.76-6.8-4.347-10.087a27.461,27.461,0,0,1-2.567-10.818c-.083-1.573-1.78-3.381-2.884-4.319-.318-.262-2.87-2.1-2.884-.676v.7a.8.8,0,0,0-.552.442,90.112,90.112,0,0,1-14.433,21.885c-4.816,5.3-11.4,10.846-18.9,11.039a16.585,16.585,0,0,1-3.822-.593c0-.925-.138-2.58-.1-2.912a20.686,20.686,0,0,1,.5-2.594l1.3-1.214a3.766,3.766,0,0,0,1.739.676,20.588,20.588,0,0,0,13.647-3.519c3.615-2.525,7.23-6.9,6.748-11.563-.51-4.968-5.52-11.039-10.818-10.832-4.54.179-8.9,3.284-11.756,6.6A34.186,34.186,0,0,0,583.2,114.4c-.179.538-.317,1.076-.455,1.6a75,75,0,0,1-7.134,5.74c-4.278,3.008-9.2,6.306-14.5,7.037a10.754,10.754,0,0,1-3.519,0,4.156,4.156,0,0,1-.676-.207,3.656,3.656,0,0,1,0-.952,13.729,13.729,0,0,1,.441-1.835c.4-1.3.925-2.567,1.38-3.822A43.529,43.529,0,0,1,567.011,108a23.342,23.342,0,0,1,7.382-5.257,30.9,30.9,0,0,1-7.714,11.136c-.428.4-.166,1.256,0,1.683a9.089,9.089,0,0,0,1.656,2.649,8.957,8.957,0,0,0,2.346,2.042c.442.221,1.214.662,1.67.248a32.612,32.612,0,0,0,10.087-18.187,2.553,2.553,0,0,0-.221-1.38c.649-.649-.731-2.981-1.007-3.367-.883-1.269-2.539-3.312-4.291-3.339-9.507-.152-15.965,6.223-20.422,13.8-.869-.566-1.642-.8-1.973-.373a103.551,103.551,0,0,1-9.466,10.791,42.885,42.885,0,0,1-3.96,3.284l.1-.179,4.76-9.328c.869-1.711-4.512-7.81-5.947-6.306-4.926,5.175-9.866,10.363-15.11,15.179a41.232,41.232,0,0,1-3.712,3.243,6.982,6.982,0,0,1-2.663,1.2,14.337,14.337,0,0,1,1.752-4.857,35.328,35.328,0,0,1,9.176-11.77,35.825,35.825,0,0,1,7.01-4.623,17.69,17.69,0,0,1,3.974-1.545,9.419,9.419,0,0,1,1.642-.235,6.137,6.137,0,0,1,1.007,0l.317.11c.828.745,2.456,1.932,3.008.718s-1.821-3.85-2.553-4.623c-4.512-4.733-10.032-3.063-15.041-.166a36.192,36.192,0,0,0-12.419,12,29.116,29.116,0,0,0-3.753,7.934,71.154,71.154,0,0,1-7.548,4.5,20.518,20.518,0,0,0,3.615-4.54,7.947,7.947,0,0,0,.248-8.141,15.384,15.384,0,0,0-7.4-7.327,8.763,8.763,0,0,0-5.52-.29,102.615,102.615,0,0,1,6.9-8.666c1.38-1.628-3.822-7.4-5.161-6.044-5.961,6.044-12.157,11.908-18.3,17.759-3.464,3.312-8.017,8.9-13.164,10.639a10.371,10.371,0,0,0-1.518-2.912c-3.091-4.25-8.279-6.444-13.164-7.92s-9.659-2.222-14.3-3.864l-.952-.359a4.212,4.212,0,0,1,.124-.938,9.747,9.747,0,0,1,.828-1.78,18.268,18.268,0,0,1,4.609-5.2,38.281,38.281,0,0,1,15.772-6.982,49.321,49.321,0,0,1,8.638-1.076h0L451.185,93.33c-1.532.814,3.257,7.575,5.52,6.43l17.566-9c1.711-.869,4.8-1.642,4.4-4.14s-2.87-5.119-4.954-6.5a13.983,13.983,0,0,0-7.12-1.752,49.413,49.413,0,0,0-25.114,4.9,22.578,22.578,0,0,0-10.542,9.659c-2.663,5.3,1.049,10.666,5.589,13.55s10.073,3.67,15.1,4.94a52.769,52.769,0,0,1,7.231,2.235,11.344,11.344,0,0,1,1.38.814,6.767,6.767,0,0,1-1.035,1.946c-3.491,4.719-9.659,7.438-15.248,8.445a38.991,38.991,0,0,1-10.059.373c-1.007-.1-2-.221-2.994-.373a37.329,37.329,0,0,1,4.14-2.925c1.67-1.049-3.6-8.072-5.754-6.72a35.422,35.422,0,0,0-6.154,4.761c-1.739,1.739-2.07,3.2-.8,5.423,2.829,5,8.058,5.7,13.247,6.472,9.659,1.38,20.546.083,27.874-7.01a15.026,15.026,0,0,0,1.476-1.711c5.037,1.3,9.218-1.214,12.9-4.5-3.933,9.549-6.679,20.174-15.11,26.852-1.7,1.38,3.85,8.1,5.671,6.651,7.507-5.961,10.68-15.179,14.006-23.83a6.96,6.96,0,0,0,1.007.414,5.1,5.1,0,0,0,2.553,1.752c6.306,1.38,13,2.76,19.318,1.1a34.047,34.047,0,0,0,8.776-3.808,11.3,11.3,0,0,0,6.472,4.968c2.884.621,5.437-.869,7.548-2.677,1.283-1.1,2.525-2.263,3.767-3.422a9.46,9.46,0,0,0,.855,1.532c1.38,2.07,3.864,4.623,6.651,4.222a16.015,16.015,0,0,0,5.713-2.76,39.434,39.434,0,0,0,5.409-4.291,1.883,1.883,0,0,0,.235-.235,9.183,9.183,0,0,0,.483,1.752,15.432,15.432,0,0,0,7.893,8.086c5.975,2.58,12.281-.331,17.456-3.394a69.694,69.694,0,0,0,6.8-4.664,15.468,15.468,0,0,0,2.042,3.215c6.665,8,16.752,5.947,24.341.483,8.058-5.8,14.171-14.558,18.891-23.458,1.007,2.111,2.208,4.14,3.1,6.292a7.673,7.673,0,0,1-.745,7.962,7.327,7.327,0,0,1-8.279,2.442c-2.415-.828-.511,2.981,0,3.56,2.525,3.256,5.671,6.044,9.866,6.761a17.932,17.932,0,0,0,10.584-2c5.754-2.677,11.039-7.065,12.833-13.371C656.483,117.133,654.344,114.856,653.309,113.863Zm-54.74-7.658a16.749,16.749,0,0,1,4.554-2.525,10.71,10.71,0,0,1,2.76-.635h0c-.317,3.712-3.933,7.093-6.789,8.969a18.778,18.778,0,0,1-6.154,2.622c-.207-.317-.428-.649-.676-.966A24.668,24.668,0,0,1,598.569,106.2Zm-95.087,4.816a16.008,16.008,0,0,1-3.312,4.54,22.513,22.513,0,0,1-9.149,5.74,25.237,25.237,0,0,1-6.251,1.173c.759-1.766,1.559-3.5,2.415-5.216l1.09-.883a55.138,55.138,0,0,1,5.519-3.767,29.532,29.532,0,0,1,6.113-3.063,10.456,10.456,0,0,1,3.05-.5,6.911,6.911,0,0,1,.952.138A4.635,4.635,0,0,1,503.482,111.02Z" transform="translate(-421.564 -78.254)" fill="#fff"/>
</svg>
