<svg width="238" height="34" viewBox="0 0 238 34" fill="none" xmlns="http://www.w3.org/2000/svg">
<g id="Group 2897">
<path id="Vector" d="M233.423 0H4.57692C2.04916 0 0 2.04916 0 4.57692V28.6304C0 31.1582 2.04916 33.2073 4.57692 33.2073H233.423C235.951 33.2073 238 31.1582 238 28.6304V4.57692C238 2.04916 235.951 0 233.423 0Z" fill="#2A2266"/>
<path id="Vector_2" d="M24.7815 21.6794C23.9897 21.6794 23.3327 21.5686 22.8103 21.347C22.2878 21.1173 21.8919 20.8204 21.6229 20.4564C21.3537 20.0922 21.2112 19.7043 21.1953 19.2926C21.1953 19.2294 21.2191 19.1739 21.2666 19.1264C21.3221 19.071 21.3853 19.0433 21.4566 19.0433H22.9527C23.0636 19.0433 23.1467 19.0631 23.2022 19.1027C23.2654 19.1423 23.3209 19.1937 23.3684 19.257C23.4317 19.3758 23.5187 19.4906 23.6296 19.6014C23.7483 19.7122 23.8988 19.8032 24.0808 19.8745C24.2709 19.9378 24.5044 19.9695 24.7815 19.9695C25.2406 19.9695 25.585 19.8982 25.8145 19.7558C26.052 19.6133 26.1707 19.4193 26.1707 19.1739C26.1707 18.9997 26.1073 18.8573 25.9807 18.7464C25.854 18.6277 25.6482 18.5248 25.3632 18.4376C25.0862 18.3427 24.7142 18.2477 24.2471 18.1527C23.6455 18.026 23.1309 17.8638 22.7035 17.6658C22.2838 17.46 21.9632 17.1948 21.7416 16.8702C21.5199 16.5378 21.4091 16.1261 21.4091 15.6353C21.4091 15.1525 21.5437 14.7211 21.8128 14.341C22.0899 13.9611 22.4738 13.6642 22.9646 13.4505C23.4555 13.2367 24.0373 13.1299 24.7102 13.1299C25.2564 13.1299 25.7353 13.2012 26.1469 13.3436C26.5666 13.486 26.9188 13.6761 27.2038 13.9136C27.4888 14.1511 27.7025 14.4044 27.845 14.6735C27.9954 14.9348 28.0746 15.192 28.0825 15.4454C28.0825 15.5087 28.0587 15.568 28.0112 15.6234C27.9637 15.671 27.9044 15.6947 27.8331 15.6947H26.2657C26.1786 15.6947 26.1035 15.6789 26.0401 15.6472C25.9768 15.6155 25.9213 15.5642 25.8738 15.4929C25.8264 15.3188 25.6997 15.1683 25.4939 15.0417C25.296 14.9071 25.0348 14.8397 24.7102 14.8397C24.3618 14.8397 24.0887 14.9031 23.8909 15.0298C23.7009 15.1485 23.6059 15.3345 23.6059 15.5878C23.6059 15.7462 23.6573 15.8847 23.7602 16.0035C23.8711 16.1222 24.0491 16.2251 24.2945 16.3122C24.548 16.3992 24.8922 16.4903 25.3276 16.5853C26.0481 16.7199 26.6298 16.89 27.0732 17.0959C27.5165 17.2938 27.8411 17.555 28.0469 17.8796C28.2527 18.1962 28.3556 18.596 28.3556 19.0789C28.3556 19.6172 28.2013 20.0842 27.8925 20.4801C27.5917 20.868 27.1721 21.1648 26.6339 21.3706C26.0956 21.5765 25.4781 21.6794 24.7815 21.6794ZM29.8411 21.5607C29.7541 21.5607 29.6829 21.533 29.6274 21.4775C29.5721 21.4221 29.5444 21.3508 29.5444 21.2638V13.5454C29.5444 13.4583 29.5721 13.3872 29.6274 13.3317C29.6829 13.2763 29.7541 13.2486 29.8411 13.2486H33.166C33.823 13.2486 34.393 13.3515 34.8759 13.5573C35.3668 13.7552 35.7467 14.056 36.0159 14.4598C36.2929 14.8635 36.4314 15.3741 36.4314 15.9916C36.4314 16.6012 36.2929 17.1038 36.0159 17.4996C35.7467 17.8955 35.3668 18.1884 34.8759 18.3783C34.393 18.5683 33.823 18.6633 33.166 18.6633H31.7529V21.2638C31.7529 21.3508 31.7213 21.4221 31.658 21.4775C31.6026 21.533 31.5313 21.5607 31.4442 21.5607H29.8411ZM31.7173 17.0247H33.1066C33.4471 17.0247 33.7162 16.9375 33.9141 16.7634C34.1199 16.5893 34.2229 16.3241 34.2229 15.9678C34.2229 15.667 34.1357 15.4137 33.9616 15.2079C33.7875 15.0021 33.5025 14.8991 33.1066 14.8991H31.7173V17.0247ZM37.8656 21.5607C37.7786 21.5607 37.7074 21.533 37.6519 21.4775C37.5965 21.4221 37.5689 21.3508 37.5689 21.2638V13.5454C37.5689 13.4583 37.5965 13.3872 37.6519 13.3317C37.7074 13.2763 37.7786 13.2486 37.8656 13.2486H43.411C43.4981 13.2486 43.5694 13.2763 43.6247 13.3317C43.6801 13.3872 43.7079 13.4583 43.7079 13.5454V14.6617C43.7079 14.7488 43.6801 14.8199 43.6247 14.8754C43.5694 14.9308 43.4981 14.9585 43.411 14.9585H39.6231V16.5616H43.1497C43.2369 16.5616 43.3081 16.5933 43.3636 16.6565C43.4189 16.7119 43.4466 16.7832 43.4466 16.8702V17.9034C43.4466 17.9825 43.4189 18.0538 43.3636 18.1171C43.3081 18.1724 43.2369 18.2003 43.1497 18.2003H39.6231V19.8507H43.506C43.5931 19.8507 43.6643 19.8784 43.7197 19.9339C43.7752 19.9893 43.8029 20.0605 43.8029 20.1476V21.2638C43.8029 21.3508 43.7752 21.4221 43.7197 21.4775C43.6643 21.533 43.5931 21.5607 43.506 21.5607H37.8656ZM48.491 21.6794C47.739 21.6794 47.0938 21.5567 46.5555 21.3113C46.0252 21.0658 45.6095 20.7057 45.3087 20.2308C45.0158 19.7558 44.8535 19.166 44.8218 18.4614C44.8139 18.1369 44.81 17.7886 44.81 17.4166C44.81 17.0445 44.8139 16.6882 44.8218 16.3479C44.8535 15.6591 45.0197 15.0772 45.3205 14.6023C45.6214 14.1194 46.0409 13.7552 46.5792 13.5098C47.1175 13.2565 47.7548 13.1299 48.491 13.1299C49.0135 13.1299 49.4964 13.1972 49.9396 13.3317C50.383 13.4583 50.7709 13.6484 51.1034 13.9017C51.4359 14.1471 51.6932 14.4479 51.8752 14.8041C52.0652 15.1524 52.1641 15.5483 52.1721 15.9916C52.18 16.0629 52.1562 16.1222 52.1008 16.1697C52.0534 16.2172 51.994 16.2409 51.9227 16.2409H50.3197C50.2167 16.2409 50.1376 16.2212 50.0822 16.1816C50.0267 16.134 49.9792 16.051 49.9396 15.9322C49.8289 15.5127 49.6468 15.2277 49.3935 15.0772C49.148 14.9189 48.8433 14.8397 48.4791 14.8397C48.0438 14.8397 47.6994 14.9625 47.4461 15.2079C47.1928 15.4454 47.0543 15.8451 47.0305 16.4072C47.0067 17.0563 47.0067 17.7212 47.0305 18.4021C47.0543 18.9642 47.1928 19.3679 47.4461 19.6133C47.6994 19.8507 48.0438 19.9695 48.4791 19.9695C48.8433 19.9695 49.1521 19.8903 49.4054 19.732C49.6587 19.5737 49.8368 19.2887 49.9396 18.8771C49.9713 18.7583 50.0149 18.6792 50.0703 18.6396C50.1337 18.5921 50.2167 18.5683 50.3197 18.5683H51.9227C51.994 18.5683 52.0534 18.5921 52.1008 18.6396C52.1562 18.6871 52.18 18.7464 52.1721 18.8177C52.1641 19.2609 52.0652 19.6608 51.8752 20.0169C51.6932 20.3653 51.4359 20.6661 51.1034 20.9194C50.7709 21.1648 50.383 21.3548 49.9396 21.4894C49.4964 21.616 49.0135 21.6794 48.491 21.6794ZM53.7175 21.5607C53.6305 21.5607 53.5592 21.533 53.5038 21.4775C53.4483 21.4221 53.4206 21.3508 53.4206 21.2638V13.5454C53.4206 13.4583 53.4483 13.3872 53.5038 13.3317C53.5592 13.2763 53.6305 13.2486 53.7175 13.2486H55.3086C55.3958 13.2486 55.4669 13.2763 55.5224 13.3317C55.5778 13.3872 55.6055 13.4583 55.6055 13.5454V21.2638C55.6055 21.3508 55.5778 21.4221 55.5224 21.4775C55.4669 21.533 55.3958 21.5607 55.3086 21.5607H53.7175ZM57.5674 21.5607C57.4804 21.5607 57.4091 21.533 57.3537 21.4775C57.2982 21.4221 57.2705 21.3508 57.2705 21.2638V13.5454C57.2705 13.4583 57.2982 13.3872 57.3537 13.3317C57.4091 13.2763 57.4804 13.2486 57.5674 13.2486H63.0177C63.1048 13.2486 63.1761 13.2763 63.2315 13.3317C63.2948 13.3872 63.3264 13.4583 63.3264 13.5454V14.7448C63.3264 14.8318 63.2948 14.9031 63.2315 14.9585C63.1761 15.014 63.1048 15.0417 63.0177 15.0417H59.3604V16.7872H62.7802C62.8673 16.7872 62.9386 16.8189 62.9939 16.8821C63.0573 16.9375 63.089 17.0088 63.089 17.0959V18.2833C63.089 18.3625 63.0573 18.4338 62.9939 18.497C62.9386 18.5525 62.8673 18.5802 62.7802 18.5802H59.3604V21.2638C59.3604 21.3508 59.3327 21.4221 59.2773 21.4775C59.2219 21.533 59.1506 21.5607 59.0635 21.5607H57.5674ZM64.8961 21.5607C64.8091 21.5607 64.7378 21.533 64.6824 21.4775C64.6269 21.4221 64.5992 21.3508 64.5992 21.2638V13.5454C64.5992 13.4583 64.6269 13.3872 64.6824 13.3317C64.7378 13.2763 64.8091 13.2486 64.8961 13.2486H66.4873C66.5744 13.2486 66.6455 13.2763 66.701 13.3317C66.7564 13.3872 66.7841 13.4583 66.7841 13.5454V21.2638C66.7841 21.3508 66.7564 21.4221 66.701 21.4775C66.6455 21.533 66.5744 21.5607 66.4873 21.5607H64.8961ZM71.8571 21.6794C71.105 21.6794 70.4599 21.5567 69.9216 21.3113C69.3912 21.0658 68.9755 20.7057 68.6747 20.2308C68.3819 19.7558 68.2196 19.166 68.1879 18.4614C68.18 18.1369 68.176 17.7886 68.176 17.4166C68.176 17.0445 68.18 16.6882 68.1879 16.3479C68.2196 15.6591 68.3859 15.0772 68.6866 14.6023C68.9874 14.1194 69.407 13.7552 69.9454 13.5098C70.4837 13.2565 71.1209 13.1299 71.8571 13.1299C72.3795 13.1299 72.8624 13.1972 73.3058 13.3317C73.7491 13.4583 74.137 13.6484 74.4694 13.9017C74.8019 14.1471 75.0592 14.4479 75.2412 14.8041C75.4313 15.1524 75.5302 15.5483 75.5381 15.9916C75.546 16.0629 75.5223 16.1222 75.4668 16.1697C75.4194 16.2172 75.36 16.2409 75.2888 16.2409H73.6857C73.5829 16.2409 73.5037 16.2212 73.4482 16.1816C73.3928 16.134 73.3454 16.051 73.3058 15.9322C73.1949 15.5127 73.0129 15.2277 72.7595 15.0772C72.5142 14.9189 72.2094 14.8397 71.8452 14.8397C71.4098 14.8397 71.0654 14.9625 70.8121 15.2079C70.5588 15.4454 70.4203 15.8451 70.3965 16.4072C70.3728 17.0563 70.3728 17.7212 70.3965 18.4021C70.4203 18.9642 70.5588 19.3679 70.8121 19.6133C71.0654 19.8507 71.4098 19.9695 71.8452 19.9695C72.2094 19.9695 72.5181 19.8903 72.7714 19.732C73.0247 19.5737 73.2028 19.2887 73.3058 18.8771C73.3375 18.7583 73.3809 18.6792 73.4363 18.6396C73.4997 18.5921 73.5829 18.5683 73.6857 18.5683H75.2888C75.36 18.5683 75.4194 18.5921 75.4668 18.6396C75.5223 18.6871 75.546 18.7464 75.5381 18.8177C75.5302 19.2609 75.4313 19.6608 75.2412 20.0169C75.0592 20.3653 74.8019 20.6661 74.4694 20.9194C74.137 21.1648 73.7491 21.3548 73.3058 21.4894C72.8624 21.616 72.3795 21.6794 71.8571 21.6794ZM78.5381 21.5607C78.4749 21.5607 78.4155 21.5369 78.36 21.4894C78.3125 21.434 78.2888 21.3746 78.2888 21.3113C78.2888 21.2717 78.2927 21.2361 78.3007 21.2044L81.0912 13.5811C81.1148 13.494 81.1624 13.4188 81.2336 13.3555C81.3128 13.2842 81.4196 13.2486 81.5543 13.2486H83.3116C83.4463 13.2486 83.5491 13.2842 83.6204 13.3555C83.6996 13.4188 83.7511 13.494 83.7747 13.5811L86.5534 21.2044C86.5692 21.2361 86.5771 21.2717 86.5771 21.3113C86.5771 21.3746 86.5494 21.434 86.494 21.4894C86.4465 21.5369 86.3872 21.5607 86.3159 21.5607H84.8553C84.7366 21.5607 84.6455 21.533 84.5822 21.4775C84.5269 21.4142 84.4912 21.3589 84.4754 21.3113L84.0123 20.1001H80.8418L80.3905 21.3113C80.3747 21.3589 80.3392 21.4142 80.2837 21.4775C80.2283 21.533 80.1333 21.5607 79.9987 21.5607H78.5381ZM81.3287 18.3902H83.5372L82.4211 15.2554L81.3287 18.3902ZM87.8099 21.5607C87.7229 21.5607 87.6516 21.533 87.5962 21.4775C87.5407 21.4221 87.513 21.3508 87.513 21.2638V13.5454C87.513 13.4583 87.5407 13.3872 87.5962 13.3317C87.6516 13.2763 87.7229 13.2486 87.8099 13.2486H93.2603C93.3473 13.2486 93.4186 13.2763 93.474 13.3317C93.5374 13.3872 93.569 13.4583 93.569 13.5454V14.7448C93.569 14.8318 93.5374 14.9031 93.474 14.9585C93.4186 15.014 93.3473 15.0417 93.2603 15.0417H89.603V16.7872H93.0227C93.1098 16.7872 93.1811 16.8189 93.2365 16.8821C93.2998 16.9375 93.3315 17.0088 93.3315 17.0959V18.2833C93.3315 18.3625 93.2998 18.4338 93.2365 18.497C93.1811 18.5525 93.1098 18.5802 93.0227 18.5802H89.603V21.2638C89.603 21.3508 89.5753 21.4221 89.5198 21.4775C89.4644 21.533 89.3931 21.5607 89.306 21.5607H87.8099ZM95.1386 21.5607C95.0516 21.5607 94.9803 21.533 94.9249 21.4775C94.8694 21.4221 94.8417 21.3508 94.8417 21.2638V13.5454C94.8417 13.4583 94.8694 13.3872 94.9249 13.3317C94.9803 13.2763 95.0516 13.2486 95.1386 13.2486H98.3684C99.3896 13.2486 100.193 13.486 100.779 13.9611C101.373 14.4281 101.67 15.0931 101.67 15.956C101.67 16.518 101.531 16.993 101.254 17.3809C100.985 17.7688 100.629 18.0617 100.185 18.2596L101.824 21.1807C101.848 21.2282 101.859 21.2717 101.859 21.3113C101.859 21.3746 101.832 21.434 101.776 21.4894C101.729 21.5369 101.67 21.5607 101.598 21.5607H100.031C99.8804 21.5607 99.7697 21.5251 99.6984 21.4538C99.6271 21.3746 99.5756 21.3034 99.5441 21.2401L98.1904 18.6277H96.9672V21.2638C96.9672 21.3508 96.9395 21.4221 96.8842 21.4775C96.8288 21.533 96.7575 21.5607 96.6705 21.5607H95.1386ZM96.9672 16.9534H98.3447C98.7168 16.9534 98.9939 16.8624 99.1759 16.6803C99.3659 16.4982 99.4609 16.2489 99.4609 15.9322C99.4609 15.6234 99.3698 15.3741 99.1878 15.1841C99.0137 14.9942 98.7326 14.8991 98.3447 14.8991H96.9672V16.9534ZM103.349 21.5607C103.262 21.5607 103.19 21.533 103.135 21.4775C103.079 21.4221 103.052 21.3508 103.052 21.2638V13.5454C103.052 13.4583 103.079 13.3872 103.135 13.3317C103.19 13.2763 103.262 13.2486 103.349 13.2486H104.94C105.027 13.2486 105.098 13.2763 105.154 13.3317C105.209 13.3872 105.237 13.4583 105.237 13.5454V21.2638C105.237 21.3508 105.209 21.4221 105.154 21.4775C105.098 21.533 105.027 21.5607 104.94 21.5607H103.349ZM110.31 21.6794C109.558 21.6794 108.912 21.5567 108.374 21.3113C107.844 21.0658 107.428 20.7057 107.127 20.2308C106.834 19.7558 106.672 19.166 106.64 18.4614C106.633 18.1369 106.629 17.7886 106.629 17.4166C106.629 17.0445 106.633 16.6882 106.64 16.3479C106.672 15.6591 106.838 15.0772 107.139 14.6023C107.44 14.1194 107.859 13.7552 108.398 13.5098C108.936 13.2565 109.573 13.1299 110.31 13.1299C110.832 13.1299 111.315 13.1972 111.758 13.3317C112.202 13.4583 112.589 13.6484 112.922 13.9017C113.254 14.1471 113.512 14.4479 113.694 14.8041C113.884 15.1524 113.983 15.5483 113.991 15.9916C113.999 16.0629 113.975 16.1222 113.919 16.1697C113.872 16.2172 113.813 16.2409 113.741 16.2409H112.138C112.035 16.2409 111.956 16.2212 111.901 16.1816C111.845 16.134 111.798 16.051 111.758 15.9322C111.647 15.5127 111.465 15.2277 111.212 15.0772C110.967 14.9189 110.662 14.8397 110.298 14.8397C109.862 14.8397 109.518 14.9625 109.265 15.2079C109.011 15.4454 108.873 15.8451 108.849 16.4072C108.825 17.0563 108.825 17.7212 108.849 18.4021C108.873 18.9642 109.011 19.3679 109.265 19.6133C109.518 19.8507 109.862 19.9695 110.298 19.9695C110.662 19.9695 110.971 19.8903 111.224 19.732C111.477 19.5737 111.655 19.2887 111.758 18.8771C111.79 18.7583 111.833 18.6792 111.889 18.6396C111.952 18.5921 112.035 18.5683 112.138 18.5683H113.741C113.813 18.5683 113.872 18.5921 113.919 18.6396C113.975 18.6871 113.999 18.7464 113.991 18.8177C113.983 19.2609 113.884 19.6608 113.694 20.0169C113.512 20.3653 113.254 20.6661 112.922 20.9194C112.589 21.1648 112.202 21.3548 111.758 21.4894C111.315 21.616 110.832 21.6794 110.31 21.6794ZM114.66 21.5607C114.597 21.5607 114.537 21.5369 114.482 21.4894C114.434 21.434 114.411 21.3746 114.411 21.3113C114.411 21.2717 114.414 21.2361 114.422 21.2044L117.213 13.5811C117.237 13.494 117.284 13.4188 117.355 13.3555C117.434 13.2842 117.541 13.2486 117.676 13.2486H119.433C119.568 13.2486 119.671 13.2842 119.742 13.3555C119.821 13.4188 119.873 13.494 119.896 13.5811L122.675 21.2044C122.692 21.2361 122.699 21.2717 122.699 21.3113C122.699 21.3746 122.671 21.434 122.616 21.4894C122.568 21.5369 122.509 21.5607 122.438 21.5607H120.977C120.858 21.5607 120.767 21.533 120.704 21.4775C120.649 21.4142 120.613 21.3589 120.597 21.3113L120.134 20.1001H116.963L116.512 21.3113C116.496 21.3589 116.461 21.4142 116.405 21.4775C116.35 21.533 116.255 21.5607 116.12 21.5607H114.66ZM117.45 18.3902H119.659L118.543 15.2554L117.45 18.3902ZM123.931 21.5607C123.845 21.5607 123.773 21.533 123.718 21.4775C123.663 21.4221 123.635 21.3508 123.635 21.2638V13.5454C123.635 13.4583 123.663 13.3872 123.718 13.3317C123.773 13.2763 123.845 13.2486 123.931 13.2486H125.191C125.325 13.2486 125.42 13.2802 125.476 13.3436C125.539 13.399 125.578 13.4426 125.594 13.4743L128.491 18.0458V13.5454C128.491 13.4583 128.519 13.3872 128.575 13.3317C128.629 13.2763 128.701 13.2486 128.788 13.2486H130.213C130.3 13.2486 130.372 13.2763 130.427 13.3317C130.482 13.3872 130.51 13.4583 130.51 13.5454V21.2638C130.51 21.3429 130.482 21.4142 130.427 21.4775C130.372 21.533 130.3 21.5607 130.213 21.5607H128.943C128.816 21.5607 128.72 21.529 128.657 21.4657C128.603 21.4023 128.566 21.3589 128.55 21.3351L125.653 16.9415V21.2638C125.653 21.3508 125.625 21.4221 125.571 21.4775C125.515 21.533 125.443 21.5607 125.357 21.5607H123.931ZM136.544 21.5607C136.458 21.5607 136.386 21.533 136.33 21.4775C136.276 21.4221 136.248 21.3508 136.248 21.2638V15.1129H134.134C134.048 15.1129 133.976 15.0851 133.92 15.0298C133.865 14.9664 133.837 14.8952 133.837 14.816V13.5454C133.837 13.4583 133.865 13.3872 133.92 13.3317C133.976 13.2763 134.048 13.2486 134.134 13.2486H140.522C140.61 13.2486 140.681 13.2763 140.736 13.3317C140.792 13.3872 140.82 13.4583 140.82 13.5454V14.816C140.82 14.8952 140.792 14.9664 140.736 15.0298C140.681 15.0851 140.61 15.1129 140.522 15.1129H138.409V21.2638C138.409 21.3508 138.381 21.4221 138.325 21.4775C138.271 21.533 138.199 21.5607 138.112 21.5607H136.544ZM142.195 21.5607C142.108 21.5607 142.038 21.533 141.982 21.4775C141.926 21.4221 141.899 21.3508 141.899 21.2638V13.5454C141.899 13.4583 141.926 13.3872 141.982 13.3317C142.038 13.2763 142.108 13.2486 142.195 13.2486H145.425C146.447 13.2486 147.25 13.486 147.836 13.9611C148.43 14.4281 148.726 15.0931 148.726 15.956C148.726 16.518 148.587 16.993 148.311 17.3809C148.042 17.7688 147.685 18.0617 147.242 18.2596L148.881 21.1807C148.904 21.2282 148.916 21.2717 148.916 21.3113C148.916 21.3746 148.889 21.434 148.833 21.4894C148.785 21.5369 148.726 21.5607 148.655 21.5607H147.088C146.937 21.5607 146.827 21.5251 146.755 21.4538C146.683 21.3746 146.632 21.3034 146.601 21.2401L145.247 18.6277H144.024V21.2638C144.024 21.3508 143.996 21.4221 143.942 21.4775C143.886 21.533 143.814 21.5607 143.728 21.5607H142.195ZM144.024 16.9534H145.401C145.774 16.9534 146.051 16.8624 146.233 16.6803C146.422 16.4982 146.518 16.2489 146.518 15.9322C146.518 15.6234 146.427 15.3741 146.245 15.1841C146.07 14.9942 145.79 14.8991 145.401 14.8991H144.024V16.9534ZM150.405 21.5607C150.319 21.5607 150.247 21.533 150.191 21.4775C150.137 21.4221 150.109 21.3508 150.109 21.2638V13.5454C150.109 13.4583 150.137 13.3872 150.191 13.3317C150.247 13.2763 150.319 13.2486 150.405 13.2486H151.997C152.083 13.2486 152.155 13.2763 152.211 13.3317C152.265 13.3872 152.293 13.4583 152.293 13.5454V21.2638C152.293 21.3508 152.265 21.4221 152.211 21.4775C152.155 21.533 152.083 21.5607 151.997 21.5607H150.405ZM154.256 21.5607C154.168 21.5607 154.097 21.533 154.042 21.4775C153.986 21.4221 153.958 21.3508 153.958 21.2638V13.5454C153.958 13.4583 153.986 13.3872 154.042 13.3317C154.097 13.2763 154.168 13.2486 154.256 13.2486H157.877C158.558 13.2486 159.116 13.3436 159.551 13.5336C159.987 13.7235 160.308 13.9966 160.513 14.3529C160.727 14.7013 160.833 15.1168 160.833 15.5997C160.833 15.8847 160.779 16.138 160.667 16.3596C160.565 16.5735 160.434 16.7515 160.276 16.894C160.126 17.0365 159.982 17.1395 159.849 17.2027C160.149 17.3453 160.415 17.5788 160.644 17.9034C160.881 18.2279 161 18.6079 161 19.0433C161 19.5657 160.881 20.0169 160.644 20.397C160.415 20.7691 160.073 21.058 159.623 21.2638C159.18 21.4617 158.633 21.5607 157.984 21.5607H154.256ZM156.084 20.0169H157.747C158.087 20.0169 158.344 19.918 158.518 19.7202C158.693 19.5222 158.78 19.2966 158.78 19.0433C158.78 18.7662 158.689 18.5327 158.507 18.3427C158.332 18.1527 158.079 18.0577 157.747 18.0577H156.084V20.0169ZM156.084 16.5497H157.64C157.964 16.5497 158.206 16.4665 158.364 16.3003C158.53 16.134 158.614 15.9203 158.614 15.6591C158.614 15.4058 158.53 15.2 158.364 15.0417C158.206 14.8754 157.964 14.7922 157.64 14.7922H156.084V16.5497ZM162.616 21.5607C162.529 21.5607 162.458 21.533 162.402 21.4775C162.346 21.4221 162.32 21.3508 162.32 21.2638V13.5454C162.32 13.4583 162.346 13.3872 162.402 13.3317C162.458 13.2763 162.529 13.2486 162.616 13.2486H168.162C168.249 13.2486 168.32 13.2763 168.375 13.3317C168.43 13.3872 168.458 13.4583 168.458 13.5454V14.6617C168.458 14.7488 168.43 14.8199 168.375 14.8754C168.32 14.9308 168.249 14.9585 168.162 14.9585H164.373V16.5616H167.901C167.987 16.5616 168.058 16.5933 168.114 16.6565C168.169 16.7119 168.197 16.7832 168.197 16.8702V17.9034C168.197 17.9825 168.169 18.0538 168.114 18.1171C168.058 18.1724 167.987 18.2003 167.901 18.2003H164.373V19.8507H168.256C168.344 19.8507 168.414 19.8784 168.47 19.9339C168.526 19.9893 168.554 20.0605 168.554 20.1476V21.2638C168.554 21.3508 168.526 21.4221 168.47 21.4775C168.414 21.533 168.344 21.5607 168.256 21.5607H162.616ZM172.727 21.5607C172.641 21.5607 172.57 21.533 172.514 21.4775C172.459 21.4221 172.431 21.3508 172.431 21.2638V13.5454C172.431 13.4583 172.459 13.3872 172.514 13.3317C172.57 13.2763 172.641 13.2486 172.727 13.2486H175.957C176.979 13.2486 177.782 13.486 178.368 13.9611C178.962 14.4281 179.259 15.0931 179.259 15.956C179.259 16.518 179.121 16.993 178.844 17.3809C178.574 17.7688 178.218 18.0617 177.774 18.2596L179.413 21.1807C179.436 21.2282 179.448 21.2717 179.448 21.3113C179.448 21.3746 179.421 21.434 179.366 21.4894C179.319 21.5369 179.259 21.5607 179.187 21.5607H177.62C177.469 21.5607 177.359 21.5251 177.288 21.4538C177.217 21.3746 177.164 21.3034 177.133 21.2401L175.78 18.6277H174.556V21.2638C174.556 21.3508 174.529 21.4221 174.474 21.4775C174.418 21.533 174.347 21.5607 174.26 21.5607H172.727ZM174.556 16.9534H175.934C176.306 16.9534 176.583 16.8624 176.765 16.6803C176.956 16.4982 177.05 16.2489 177.05 15.9322C177.05 15.6234 176.959 15.3741 176.777 15.1841C176.603 14.9942 176.322 14.8991 175.934 14.8991H174.556V16.9534ZM180.938 21.5607C180.851 21.5607 180.779 21.533 180.725 21.4775C180.669 21.4221 180.641 21.3508 180.641 21.2638V13.5454C180.641 13.4583 180.669 13.3872 180.725 13.3317C180.779 13.2763 180.851 13.2486 180.938 13.2486H186.483C186.57 13.2486 186.642 13.2763 186.697 13.3317C186.752 13.3872 186.78 13.4583 186.78 13.5454V14.6617C186.78 14.7488 186.752 14.8199 186.697 14.8754C186.642 14.9308 186.57 14.9585 186.483 14.9585H182.695V16.5616H186.222C186.309 16.5616 186.381 16.5933 186.435 16.6565C186.491 16.7119 186.519 16.7832 186.519 16.8702V17.9034C186.519 17.9825 186.491 18.0538 186.435 18.1171C186.381 18.1724 186.309 18.2003 186.222 18.2003H182.695V19.8507H186.579C186.665 19.8507 186.737 19.8784 186.792 19.9339C186.847 19.9893 186.875 20.0605 186.875 20.1476V21.2638C186.875 21.3508 186.847 21.4221 186.792 21.4775C186.737 21.533 186.665 21.5607 186.579 21.5607H180.938ZM191.324 21.6794C190.532 21.6794 189.876 21.5686 189.353 21.347C188.83 21.1173 188.434 20.8204 188.166 20.4564C187.896 20.0922 187.754 19.7043 187.738 19.2926C187.738 19.2294 187.761 19.1739 187.809 19.1264C187.865 19.071 187.928 19.0433 187.999 19.0433H189.495C189.606 19.0433 189.69 19.0631 189.744 19.1027C189.808 19.1423 189.863 19.1937 189.911 19.257C189.974 19.3758 190.061 19.4906 190.172 19.6014C190.291 19.7122 190.441 19.8032 190.624 19.8745C190.813 19.9378 191.047 19.9695 191.324 19.9695C191.783 19.9695 192.128 19.8982 192.358 19.7558C192.594 19.6133 192.713 19.4193 192.713 19.1739C192.713 18.9997 192.65 18.8573 192.524 18.7464C192.396 18.6277 192.191 18.5248 191.906 18.4376C191.629 18.3427 191.257 18.2477 190.79 18.1527C190.188 18.026 189.674 17.8638 189.247 17.6658C188.826 17.46 188.506 17.1948 188.285 16.8702C188.063 16.5378 187.952 16.1261 187.952 15.6353C187.952 15.1525 188.087 14.7211 188.355 14.341C188.632 13.9611 189.017 13.6642 189.508 13.4505C189.998 13.2367 190.58 13.1299 191.253 13.1299C191.799 13.1299 192.277 13.2012 192.689 13.3436C193.109 13.486 193.461 13.6761 193.747 13.9136C194.032 14.1511 194.246 14.4044 194.388 14.6735C194.538 14.9348 194.617 15.192 194.625 15.4454C194.625 15.5087 194.602 15.568 194.554 15.6234C194.507 15.671 194.447 15.6947 194.376 15.6947H192.808C192.722 15.6947 192.647 15.6789 192.582 15.6472C192.519 15.6155 192.464 15.5642 192.417 15.4929C192.368 15.3188 192.242 15.1683 192.037 15.0417C191.839 14.9071 191.578 14.8397 191.253 14.8397C190.904 14.8397 190.631 14.9031 190.434 15.0298C190.243 15.1485 190.149 15.3345 190.149 15.5878C190.149 15.7462 190.2 15.8847 190.303 16.0035C190.413 16.1222 190.592 16.2251 190.837 16.3122C191.091 16.3992 191.435 16.4903 191.871 16.5853C192.591 16.7199 193.172 16.89 193.616 17.0959C194.059 17.2938 194.384 17.555 194.589 17.8796C194.796 18.1962 194.898 18.596 194.898 19.0789C194.898 19.6172 194.744 20.0842 194.435 20.4801C194.134 20.868 193.715 21.1648 193.176 21.3706C192.638 21.5765 192.021 21.6794 191.324 21.6794ZM199.567 21.6794C198.854 21.6794 198.229 21.5647 197.689 21.3351C197.16 21.0975 196.748 20.7374 196.455 20.2545C196.162 19.7636 196.016 19.1423 196.016 18.3902V13.5454C196.016 13.4583 196.043 13.3872 196.099 13.3317C196.155 13.2763 196.225 13.2486 196.312 13.2486H197.845C197.931 13.2486 198.003 13.2763 198.059 13.3317C198.113 13.3872 198.141 13.4583 198.141 13.5454V18.3783C198.141 18.8929 198.264 19.2807 198.509 19.542C198.763 19.7953 199.115 19.922 199.567 19.922C200.01 19.922 200.354 19.7953 200.599 19.542C200.853 19.2807 200.979 18.8929 200.979 18.3783V13.5454C200.979 13.4583 201.007 13.3872 201.063 13.3317C201.126 13.2763 201.198 13.2486 201.276 13.2486H202.82C202.899 13.2486 202.967 13.2763 203.021 13.3317C203.085 13.3872 203.116 13.4583 203.116 13.5454V18.3902C203.116 19.1423 202.97 19.7636 202.678 20.2545C202.384 20.7374 201.972 21.0975 201.443 21.3351C200.912 21.5647 200.287 21.6794 199.567 21.6794ZM204.989 21.5607C204.901 21.5607 204.829 21.533 204.775 21.4775C204.719 21.4221 204.691 21.3508 204.691 21.2638V13.5454C204.691 13.4583 204.719 13.3872 204.775 13.3317C204.829 13.2763 204.901 13.2486 204.989 13.2486H206.555C206.635 13.2486 206.702 13.2763 206.758 13.3317C206.821 13.3872 206.852 13.4583 206.852 13.5454V19.7677H210.438C210.526 19.7677 210.597 19.7993 210.652 19.8626C210.715 19.918 210.747 19.9893 210.747 20.0763V21.2638C210.747 21.3508 210.715 21.4221 210.652 21.4775C210.597 21.533 210.526 21.5607 210.438 21.5607H204.989ZM212.626 21.5607C212.539 21.5607 212.469 21.533 212.413 21.4775C212.357 21.4221 212.33 21.3508 212.33 21.2638V15.1129H210.216C210.129 15.1129 210.058 15.0851 210.002 15.0298C209.946 14.9664 209.919 14.8952 209.919 14.816V13.5454C209.919 13.4583 209.946 13.3872 210.002 13.3317C210.058 13.2763 210.129 13.2486 210.216 13.2486H216.604C216.692 13.2486 216.762 13.2763 216.818 13.3317C216.874 13.3872 216.901 13.4583 216.901 13.5454V14.816C216.901 14.8952 216.874 14.9664 216.818 15.0298C216.762 15.0851 216.692 15.1129 216.604 15.1129H214.49V21.2638C214.49 21.3508 214.462 21.4221 214.408 21.4775C214.352 21.533 214.281 21.5607 214.194 21.5607H212.626Z" fill="white"/>
</g>
</svg>