<svg xmlns="http://www.w3.org/2000/svg" xmlns:xlink="http://www.w3.org/1999/xlink" width="740.327" height="406.165" viewBox="0 0 740.327 406.165">
  <defs>
    <clipPath id="clip-path">
      <rect id="Rectangle_1566" data-name="Rectangle 1566" width="173.944" height="105.118" fill="none"/>
    </clipPath>
  </defs>
  <g id="Group_1506" data-name="Group 1506" transform="translate(-60.462 -88.02)">
    <g id="Group_1449" data-name="Group 1449" transform="translate(60.462 88.02)">
      <path id="Path_931" data-name="Path 931" d="M686.076,458.678V109.292A21.271,21.271,0,0,0,664.8,88.02H132.633a21.271,21.271,0,0,0-21.271,21.272V458.686Z" transform="translate(-28.557 -88.02)" fill="#1a2833"/>
      <path id="Path_932" data-name="Path 932" d="M765.29,351.366H95.961a35.5,35.5,0,0,1-35.5-35.5H800.789A35.5,35.5,0,0,1,765.29,351.366Z" transform="translate(-60.462 54.799)" fill="#2e3941"/>
    </g>
    <rect id="Rectangle_1560" data-name="Rectangle 1560" width="173.944" height="105.118" transform="translate(343.654 117.887)" fill="#d1dee5"/>
    <rect id="Rectangle_1561" data-name="Rectangle 1561" width="173.944" height="105.118" transform="translate(691.599 223.006) rotate(180)" fill="#0557fa"/>
    <rect id="Rectangle_1562" data-name="Rectangle 1562" width="173.944" height="105.118" transform="translate(343.654 223.006)" fill="#0557fa"/>
    <rect id="Rectangle_1563" data-name="Rectangle 1563" width="173.944" height="105.118" transform="translate(517.655 223.006)" fill="#d1dee5"/>
    <path id="Path_933" data-name="Path 933" d="M128.094,106.268V421.624H302.038V106.268Z" transform="translate(42.393 11.439)"/>
    <rect id="Rectangle_1564" data-name="Rectangle 1564" width="173.944" height="105.118" transform="translate(343.654 328.124)" fill="#ff7051"/>
    <rect id="Rectangle_1565" data-name="Rectangle 1565" width="173.944" height="105.118" transform="translate(517.655 328.124)" fill="#682ace"/>
    <g id="Group_1458" data-name="Group 1458" transform="translate(517.778 117.716)">
      <g id="Group_1457" data-name="Group 1457">
        <g id="Group_1456" data-name="Group 1456" clip-path="url(#clip-path)">
          <g id="Group_1455" data-name="Group 1455" transform="translate(26.584 9.582)">
            <path id="Path_934" data-name="Path 934" d="M375.481,240.234l2.138-15.609q1.037.366,2.152.646l1.04,14.964h74.982l1.039-14.964q1.115-.281,2.152-.646l2.138,15.609H478.69l-.251-22.51c-.3-27.218-7.156-42.078-16.1-50.575-9.323-9.977-25.554-13.363-44.035-13.363s-34.71,3.385-44.033,13.363c-8.948,8.5-15.8,23.356-16.1,50.575l-.251,22.51Z" transform="translate(-357.913 -86.074)" fill="#edf0f2"/>
            <path id="Path_935" data-name="Path 935" d="M400.291,181.55h0A13.647,13.647,0,0,0,413.938,167.9V142.34H386.645V167.9A13.646,13.646,0,0,0,400.291,181.55Z" transform="translate(-339.903 -93.249)" fill="#8e5b2d"/>
            <g id="Group_1454" data-name="Group 1454" transform="translate(34.957)">
              <g id="Group_1453" data-name="Group 1453">
                <g id="Group_1452" data-name="Group 1452">
                  <path id="Path_936" data-name="Path 936" d="M415.42,138.678c0-5.02-2.785-9.091-6.221-9.091s-6.219,4.07-6.219,9.091,2.785,9.091,6.219,9.091,6.221-4.07,6.221-9.091" transform="translate(-364.621 -101.243)" fill="#8e5b2d"/>
                  <path id="Path_937" data-name="Path 937" d="M391.841,138.678c0-5.02-2.783-9.091-6.219-9.091s-6.221,4.07-6.221,9.091,2.785,9.091,6.221,9.091,6.219-4.07,6.219-9.091" transform="translate(-379.401 -101.243)" fill="#8e5b2d"/>
                  <path id="Path_938" data-name="Path 938" d="M381.785,133.685v22.629c0,12.066,9.873,27.427,21.936,27.2,11.694-.221,21.106-15.025,21.106-26.771V133.685a21.522,21.522,0,0,0-21.521-21.521h0A21.522,21.522,0,0,0,381.785,133.685Z" transform="translate(-377.907 -112.164)" fill="#8e5b2d"/>
                  <g id="Group_1450" data-name="Group 1450" transform="translate(3.961)">
                    <path id="Path_939" data-name="Path 939" d="M395.042,112.164h0l-.072,0h.085Z" transform="translate(-373.603 -112.164)" fill="none"/>
                    <path id="Path_940" data-name="Path 940" d="M407.592,146.753h0a7.049,7.049,0,0,0-8.634,0,7.051,7.051,0,0,1-8.5.1l-8.624-6.387c.94,11.72,10.408,25.533,21.853,25.317,11.223-.211,20.342-13.859,21.056-25.341l-8.655,6.411A7.05,7.05,0,0,1,407.592,146.753Z" transform="translate(-381.836 -94.438)" fill="#1a2833"/>
                  </g>
                  <g id="Group_1451" data-name="Group 1451" transform="translate(7.396 29.4)">
                    <path id="Path_941" data-name="Path 941" d="M412.019,137.941a7.705,7.705,0,1,0-7.706,7.7A7.705,7.705,0,0,0,412.019,137.941Z" transform="translate(-376.011 -130.236)" fill="none" stroke="#fff" stroke-linecap="round" stroke-linejoin="round" stroke-width="1"/>
                    <path id="Path_942" data-name="Path 942" d="M399.358,137.941a7.705,7.705,0,1,0-7.7,7.7A7.7,7.7,0,0,0,399.358,137.941Z" transform="translate(-383.947 -130.236)" fill="none" stroke="#fff" stroke-linecap="round" stroke-linejoin="round" stroke-width="1"/>
                    <line id="Line_3" data-name="Line 3" x1="4.987" transform="translate(15.511 5.423)" fill="none" stroke="#fff" stroke-linecap="round" stroke-linejoin="round" stroke-width="1"/>
                  </g>
                  <path id="Path_943" data-name="Path 943" d="M403.073,147.705a3.435,3.435,0,0,1-3.3,2.056h-5.032a3.434,3.434,0,0,1-3.3-2.056Z" transform="translate(-371.856 -89.886)" fill="#fff"/>
                </g>
              </g>
            </g>
          </g>
        </g>
      </g>
    </g>
    <g id="Group_1465" data-name="Group 1465" transform="translate(343.311 117.883)">
      <g id="Group_1464" data-name="Group 1464" clip-path="url(#clip-path)">
        <g id="Group_1463" data-name="Group 1463" transform="translate(26.585 6.431)">
          <path id="Path_944" data-name="Path 944" d="M268.236,240.337l2.138-15.609q1.037.364,2.152.646l1.041,14.964h74.98l1.041-14.964q1.113-.281,2.151-.646l2.139,15.609h17.566l-.249-22.51c-.3-27.218-7.156-42.078-16.105-50.575-9.322-9.979-25.554-13.363-44.033-13.363s-34.711,3.384-44.035,13.363c-8.947,8.5-15.8,23.356-16.1,50.575l-.249,22.51Z" transform="translate(-250.67 -83.026)" fill="#00b2a5"/>
          <path id="Path_945" data-name="Path 945" d="M293.048,181.653h0a13.646,13.646,0,0,0,13.646-13.647V142.443H279.4v25.562A13.648,13.648,0,0,0,293.048,181.653Z" transform="translate(-232.661 -90.201)" fill="#9b6451"/>
          <g id="Group_1462" data-name="Group 1462" transform="translate(34.957)">
            <g id="Group_1461" data-name="Group 1461">
              <g id="Group_1460" data-name="Group 1460">
                <path id="Path_946" data-name="Path 946" d="M274.541,133.788v22.629c0,12.064,9.875,27.425,21.938,27.2,11.692-.221,21.1-15.025,21.1-26.773V133.788a21.521,21.521,0,0,0-21.521-21.521h0A21.522,21.522,0,0,0,274.541,133.788Z" transform="translate(-270.664 -109.116)" fill="#b57a61"/>
                <g id="Group_1459" data-name="Group 1459" transform="translate(2.004)">
                  <path id="Path_947" data-name="Path 947" d="M287.8,112.267h0l-.072,0,.085,0Z" transform="translate(-264.404 -109.116)" fill="none"/>
                  <path id="Path_948" data-name="Path 948" d="M275.167,148.464a1.66,1.66,0,0,0,1.659-1.661v-9.3a14.991,14.991,0,0,1,3.5-10.109,7.025,7.025,0,0,1,10.3-.483,8.615,8.615,0,0,0,12.385,0,7.025,7.025,0,0,1,10.3.483,14.991,14.991,0,0,1,3.5,10.109v9.3a1.66,1.66,0,0,0,1.659,1.659h.05a1.66,1.66,0,0,0,1.661-1.659V133.725a23.4,23.4,0,0,0-23.4-23.4h0a23.4,23.4,0,0,0-23.394,23.4V146.8a1.661,1.661,0,0,0,1.661,1.661Z" transform="translate(-273.39 -110.33)" fill="#333"/>
                </g>
                <path id="Path_949" data-name="Path 949" d="M308.176,138.834c0-4.892-2.785-8.856-6.219-8.856s-6.221,3.965-6.221,8.856,2.785,8.856,6.221,8.856,6.219-3.965,6.219-8.856" transform="translate(-257.379 -98.014)" fill="#b57a61"/>
                <path id="Path_950" data-name="Path 950" d="M284.6,138.834c0-4.892-2.785-8.856-6.221-8.856s-6.219,3.965-6.219,8.856,2.785,8.856,6.219,8.856,6.221-3.965,6.221-8.856" transform="translate(-272.158 -98.014)" fill="#b57a61"/>
                <path id="Path_951" data-name="Path 951" d="M309.935,147.535a7.236,7.236,0,0,1-8.721-.106h0a7.237,7.237,0,0,0-8.86,0,7.236,7.236,0,0,1-8.721.106l-10.242-8.17v.8c0,13.115,10.732,29.813,23.846,29.564,12.71-.241,22.943-16.332,22.943-29.1v-1.267Z" transform="translate(-271.386 -92.13)" fill="#333"/>
                <path id="Path_952" data-name="Path 952" d="M295.829,147.808a3.431,3.431,0,0,1-3.3,2.056h-5.033a3.434,3.434,0,0,1-3.3-2.056Z" transform="translate(-264.614 -86.838)" fill="#fff"/>
              </g>
            </g>
          </g>
        </g>
      </g>
    </g>
    <g id="Group_1476" data-name="Group 1476" transform="translate(517.655 223.006)">
      <g id="Group_1475" data-name="Group 1475">
        <g id="Group_1474" data-name="Group 1474" clip-path="url(#clip-path)">
          <g id="Group_1473" data-name="Group 1473" transform="translate(26.585 -16.263)">
            <path id="Path_953" data-name="Path 953" d="M375.4,305.235l2.138-15.609q1.037.364,2.152.646l1.041,14.964h74.98l1.041-14.964c.743-.187,1.459-.4,2.152-.646l2.138,15.609h17.566l-.249-22.51c-.3-27.218-7.156-42.078-16.106-50.575-9.322-9.979-25.554-13.363-44.033-13.363s-34.711,3.384-44.035,13.363c-8.947,8.5-15.8,23.356-16.1,50.575l-.249,22.51Z" transform="translate(-357.838 -124.775)" fill="#fff70f"/>
            <g id="Group_1466" data-name="Group 1466" transform="translate(49.755 76.524)">
              <path id="Path_954" data-name="Path 954" d="M399.875,242.368h0a11.453,11.453,0,0,0,11.453-11.453V208.037H388.422v22.878A11.453,11.453,0,0,0,399.875,242.368Z" transform="translate(-388.422 -208.037)" fill="#bb7230"/>
            </g>
            <g id="Group_1472" data-name="Group 1472" transform="translate(36.149 0)">
              <circle id="Ellipse_30" data-name="Ellipse 30" cx="11.951" cy="11.951" r="11.951" transform="translate(9.432 9.188) rotate(-22.607)" fill="#1a2833"/>
              <g id="Group_1467" data-name="Group 1467" transform="translate(2.604 23.673)">
                <path id="Path_955" data-name="Path 955" d="M426.569,198.005h0a22.455,22.455,0,0,0-22.455-22.455h0a22.455,22.455,0,0,0-22.455,22.455h0a17.886,17.886,0,0,0,17.885,17.887h9.139A17.886,17.886,0,0,0,426.569,198.005Z" transform="translate(-381.659 -175.55)" fill="#1a2833"/>
              </g>
              <g id="Group_1468" data-name="Group 1468" transform="translate(4.733 28.884)">
                <path id="Path_956" data-name="Path 956" d="M403.294,237.271h0a20.326,20.326,0,0,0,20.325-20.326V199.079a20.326,20.326,0,0,0-20.325-20.325h0a20.326,20.326,0,0,0-20.326,20.325v17.867A20.326,20.326,0,0,0,403.294,237.271Z" transform="translate(-382.968 -178.753)" fill="#c88d57"/>
              </g>
              <path id="Path_957" data-name="Path 957" d="M385.785,214.782V200.767a18.339,18.339,0,0,1,18.339-18.339h0a18.339,18.339,0,0,1,18.339,18.339v14.015h4.142V199.8c0-11.469-11.012-22.481-22.481-22.481h0c-11.469,0-22.481,11.012-22.481,22.481v14.981Z" transform="translate(-379.065 -150.767)" fill="#1a2833"/>
              <g id="Group_1470" data-name="Group 1470" transform="translate(0 59.049)">
                <ellipse id="Ellipse_31" data-name="Ellipse 31" cx="5.461" cy="7.138" rx="5.461" ry="7.138" fill="#c88d57"/>
                <ellipse id="Ellipse_32" data-name="Ellipse 32" cx="5.461" cy="7.138" rx="5.461" ry="7.138" transform="translate(39.197)" fill="#c88d57"/>
                <g id="Group_1469" data-name="Group 1469" transform="translate(0.566 12.253)">
                  <path id="Path_958" data-name="Path 958" d="M411.868,210.612c0,3.2-.791,5.785-1.765,5.785s-1.764-2.59-1.764-5.785.789-5.785,1.764-5.785S411.868,207.419,411.868,210.612Z" transform="translate(-362.897 -204.827)" fill="#ff7051"/>
                  <path id="Path_959" data-name="Path 959" d="M383.933,210.612c0,3.2-.789,5.785-1.763,5.785s-1.763-2.59-1.763-5.785.789-5.785,1.763-5.785S383.933,207.419,383.933,210.612Z" transform="translate(-380.406 -204.827)" fill="#ff7051"/>
                </g>
              </g>
              <path id="Path_960" data-name="Path 960" d="M424.985,199.041c0-8.978-9.523-20.288-21.272-20.288s-21.272,11.31-21.272,20.288Z" transform="translate(-378.566 -149.869)" fill="#1a2833"/>
              <g id="Group_1471" data-name="Group 1471" transform="translate(19.601 77.651)">
                <path id="Path_961" data-name="Path 961" d="M392.107,208.73a3.273,3.273,0,0,0,3.148,1.96h4.8a3.272,3.272,0,0,0,3.146-1.96Z" transform="translate(-392.107 -208.73)" fill="#edf0f2"/>
              </g>
            </g>
          </g>
        </g>
      </g>
    </g>
    <g id="Group_1489" data-name="Group 1489" transform="translate(343.718 328.16)">
      <g id="Group_1488" data-name="Group 1488" clip-path="url(#clip-path)">
        <g id="Group_1487" data-name="Group 1487" transform="translate(23.751 4.752)">
          <path id="Path_962" data-name="Path 962" d="M325.919,316.545H271.232V265.9a27.343,27.343,0,0,1,27.344-27.344h0A27.343,27.343,0,0,1,325.919,265.9Z" transform="translate(-235.354 -238.554)" fill="#1a2833"/>
          <path id="Path_963" data-name="Path 963" d="M268.486,369.873l2.138-15.609c.693.242,1.409.459,2.152.646l1.041,14.964H348.8l1.041-14.964c.743-.187,1.459-.4,2.152-.646l2.138,15.609H371.7l-.249-22.51c-.3-27.218-7.156-42.078-16.105-50.575-9.322-9.979-25.554-13.363-44.033-13.363s-34.712,3.384-44.035,13.363c-8.947,8.5-15.8,23.356-16.1,50.575l-.249,22.51Z" transform="translate(-248.086 -210.428)" fill="#edf0f2"/>
          <rect id="Rectangle_1569" data-name="Rectangle 1569" width="15.892" height="38.252" transform="translate(35.878 65.354)" fill="#1a2833"/>
          <g id="Group_1485" data-name="Group 1485" transform="translate(38.163 4.83)">
            <g id="Group_1484" data-name="Group 1484">
              <g id="Group_1483" data-name="Group 1483">
                <g id="Group_1482" data-name="Group 1482">
                  <g id="Group_1477" data-name="Group 1477" transform="translate(13.606 50.679)">
                    <path id="Path_964" data-name="Path 964" d="M292.453,307.006h0a11.453,11.453,0,0,0,11.453-11.453V272.675H281v22.878A11.453,11.453,0,0,0,292.453,307.006Z" transform="translate(-281 -272.675)" fill="#bb7230"/>
                  </g>
                  <g id="Group_1478" data-name="Group 1478" transform="translate(4.733 3.039)">
                    <path id="Path_965" data-name="Path 965" d="M295.872,301.909h0A20.326,20.326,0,0,0,316.2,281.584V263.717a20.326,20.326,0,0,0-20.325-20.326h0a20.326,20.326,0,0,0-20.326,20.326v17.867A20.326,20.326,0,0,0,295.872,301.909Z" transform="translate(-275.546 -243.391)" fill="#c88d57"/>
                  </g>
                  <g id="Group_1479" data-name="Group 1479" transform="translate(0 33.204)">
                    <ellipse id="Ellipse_33" data-name="Ellipse 33" cx="5.461" cy="7.138" rx="5.461" ry="7.138" fill="#c88d57"/>
                    <ellipse id="Ellipse_34" data-name="Ellipse 34" cx="5.461" cy="7.138" rx="5.461" ry="7.138" transform="translate(39.197)" fill="#c88d57"/>
                  </g>
                  <g id="Group_1480" data-name="Group 1480" transform="translate(19.601 51.806)">
                    <path id="Path_966" data-name="Path 966" d="M284.685,273.368a3.273,3.273,0,0,0,3.148,1.96h4.8a3.272,3.272,0,0,0,3.146-1.96Z" transform="translate(-284.685 -273.368)" fill="#edf0f2"/>
                  </g>
                  <g id="Group_1481" data-name="Group 1481" transform="translate(24.956)">
                    <path id="Path_967" data-name="Path 967" d="M288.049,241.523h0l-.072,0,.083,0Z" transform="translate(-287.977 -241.523)" fill="none"/>
                  </g>
                </g>
              </g>
            </g>
          </g>
          <g id="Group_1486" data-name="Group 1486" transform="translate(0 70.412)">
            <path id="Path_968" data-name="Path 968" d="M249.178,313.3" transform="translate(-249.178 -262.112)" fill="none" stroke="#fff" stroke-linecap="round" stroke-linejoin="round" stroke-width="1"/>
            <path id="Path_969" data-name="Path 969" d="M249.178,281.836" transform="translate(-249.178 -281.836)" fill="none" stroke="#fff" stroke-linecap="round" stroke-linejoin="round" stroke-width="1"/>
          </g>
        </g>
      </g>
    </g>
    <g id="Group_1496" data-name="Group 1496" transform="translate(517.474 328.237)">
      <g id="Group_1495" data-name="Group 1495" transform="translate(0 0)" clip-path="url(#clip-path)">
        <g id="Group_1494" data-name="Group 1494" transform="translate(26.585 6.853)">
          <path id="Path_970" data-name="Path 970" d="M375.293,369.641l2.138-15.609c.693.242,1.409.459,2.152.646l1.041,14.964H455.6l1.041-14.964c.743-.187,1.459-.4,2.152-.646l2.138,15.609H478.5l-.249-22.51c-.3-27.218-7.156-42.078-16.1-50.575-9.323-9.979-25.556-13.363-44.035-13.363s-34.711,3.384-44.035,13.363c-8.948,8.5-15.8,23.356-16.1,50.575l-.249,22.51Z" transform="translate(-357.727 -212.752)" fill="#313e47"/>
          <path id="Path_971" data-name="Path 971" d="M400.105,310.957h0a13.648,13.648,0,0,0,13.647-13.647V271.747H386.458v25.562A13.648,13.648,0,0,0,400.105,310.957Z" transform="translate(-339.718 -219.926)" fill="#bb7230"/>
          <g id="Group_1493" data-name="Group 1493" transform="translate(34.866)">
            <g id="Group_1490" data-name="Group 1490" transform="translate(4.82 13.07)">
              <path id="Path_972" data-name="Path 972" d="M402.823,304.108h0a20.7,20.7,0,0,0,20.7-20.7v-18.2c0-11.433-9.268-17.283-20.7-17.283h0c-11.433,0-20.7,5.85-20.7,17.283v18.2A20.7,20.7,0,0,0,402.823,304.108Z" transform="translate(-382.122 -247.927)" fill="#c88d57"/>
            </g>
            <g id="Group_1491" data-name="Group 1491" transform="translate(19.873 57.197)">
              <path id="Path_973" data-name="Path 973" d="M402.672,275.052a3.333,3.333,0,0,1-3.206,2H394.58a3.332,3.332,0,0,1-3.2-2Z" transform="translate(-391.375 -275.052)" fill="#edf0f2"/>
            </g>
            <path id="Path_974" data-name="Path 974" d="M420.082,253.065a6.128,6.128,0,0,0,.078-.888,8.083,8.083,0,0,0-8.084-8.084,8.182,8.182,0,0,0-1.6.161,8.017,8.017,0,0,0-14.238-.062,7.8,7.8,0,0,0-9.065,7.984,7.281,7.281,0,0,0,.106,1.088,15.637,15.637,0,0,0-6.511,12.611v13.376a2.108,2.108,0,0,0,2.108,2.108h0a2.109,2.109,0,0,0,2.11-2.108V270.2a13.728,13.728,0,0,1,4.643-10.807c2.977,2.226,8.145,3.7,14.035,3.7s11.058-1.477,14.035-3.7a13.728,13.728,0,0,1,4.643,10.807v9.055a2.108,2.108,0,0,0,2.11,2.108h0a2.108,2.108,0,0,0,2.108-2.108V265.877A15.583,15.583,0,0,0,420.082,253.065Z" transform="translate(-378.147 -239.893)" fill="#1a2833"/>
            <g id="Group_1492" data-name="Group 1492" transform="translate(0 35.248)">
              <path id="Path_975" data-name="Path 975" d="M390.282,268.83c0-4.017-2.489-7.27-5.56-7.27s-5.562,3.254-5.562,7.27,2.491,7.269,5.562,7.269S390.282,272.845,390.282,268.83Z" transform="translate(-379.159 -261.56)" fill="#c88d57"/>
              <path id="Path_976" data-name="Path 976" d="M414.821,268.83c0-4.017-2.491-7.27-5.562-7.27s-5.56,3.254-5.56,7.27,2.489,7.269,5.56,7.269S414.821,272.845,414.821,268.83Z" transform="translate(-363.777 -261.56)" fill="#c88d57"/>
            </g>
          </g>
        </g>
      </g>
    </g>
    <g id="Group_1505" data-name="Group 1505" transform="translate(344.625 222.946)">
      <g id="Group_1504" data-name="Group 1504" clip-path="url(#clip-path)">
        <g id="Group_1503" data-name="Group 1503" transform="translate(26.527 -21.732)">
          <circle id="Ellipse_35" data-name="Ellipse 35" cx="51.557" cy="51.557" r="51.557" transform="translate(8.831)" fill="#1a2833"/>
          <path id="Path_977" data-name="Path 977" d="M269.01,305.2l2.138-15.609q1.037.366,2.152.646l1.04,14.963h74.982l1.04-14.963q1.115-.281,2.152-.646l2.138,15.609h17.568l-.251-22.51c-.3-27.218-7.156-42.078-16.1-50.575-9.323-9.977-25.554-13.363-44.035-13.363s-34.711,3.385-44.033,13.363c-8.949,8.5-15.8,23.356-16.106,50.575l-.249,22.51Z" transform="translate(-251.442 -119.269)" fill="#edf0f2"/>
          <g id="Group_1497" data-name="Group 1497" transform="translate(48.936 81.994)">
            <path id="Path_978" data-name="Path 978" d="M292.974,242.33h0a11.453,11.453,0,0,0,11.453-11.453V208h-22.9v22.876A11.453,11.453,0,0,0,292.974,242.33Z" transform="translate(-281.523 -208.001)" fill="#814916"/>
          </g>
          <g id="Group_1502" data-name="Group 1502" transform="translate(34.407 25.705)">
            <g id="Group_1498" data-name="Group 1498" transform="translate(5.655 8.648)">
              <path id="Path_979" data-name="Path 979" d="M296.393,237.234h0a20.325,20.325,0,0,0,20.326-20.326V199.042a20.325,20.325,0,0,0-20.326-20.326h0a20.326,20.326,0,0,0-20.326,20.326v17.867A20.326,20.326,0,0,0,296.393,237.234Z" transform="translate(-276.068 -178.716)" fill="#8e5b2d"/>
            </g>
            <path id="Path_980" data-name="Path 980" d="M324.554,186.127c-4.54-9.722-21.544-16.7-35.465-10.2s-19.488,24.017-14.947,33.74Z" transform="translate(-272.592 -173.4)" fill="#1a2833"/>
            <g id="Group_1500" data-name="Group 1500" transform="translate(0.922 38.813)">
              <ellipse id="Ellipse_36" data-name="Ellipse 36" cx="5.461" cy="7.138" rx="5.461" ry="7.138" fill="#8e5b2d"/>
              <ellipse id="Ellipse_37" data-name="Ellipse 37" cx="5.461" cy="7.138" rx="5.461" ry="7.138" transform="translate(39.197)" fill="#8e5b2d"/>
              <g id="Group_1499" data-name="Group 1499" transform="translate(0.573 12.039)">
                <path id="Path_981" data-name="Path 981" d="M304.972,210.444c0,3.2-.789,5.785-1.764,5.785s-1.763-2.59-1.763-5.785.789-5.785,1.763-5.785S304.972,207.249,304.972,210.444Z" transform="translate(-256.001 -204.659)" fill="#f1bfa6"/>
                <path id="Path_982" data-name="Path 982" d="M277.04,210.444c0,3.2-.789,5.785-1.763,5.785s-1.765-2.59-1.765-5.785.791-5.785,1.765-5.785S277.04,207.249,277.04,210.444Z" transform="translate(-273.511 -204.659)" fill="#f1bfa6"/>
              </g>
            </g>
            <g id="Group_1501" data-name="Group 1501" transform="translate(20.434 57.415)">
              <path id="Path_983" data-name="Path 983" d="M285.153,208.693a3.275,3.275,0,0,0,3.148,1.96h4.8a3.272,3.272,0,0,0,3.146-1.96Z" transform="translate(-285.153 -208.693)" fill="#edf0f2"/>
            </g>
          </g>
        </g>
      </g>
    </g>
    <g id="Group_1331" data-name="Group 1331" transform="translate(186.967 181.625)">
      <path id="Path_763" data-name="Path 763" d="M151.892,267.854c-.236-.059-.563-.215-.991-1.225-.719-1.711-2.518-6.3-2.788-6.921-.114-.259-.181-.36-.283-.36s-.179.125-.314.449l-2.824,7.067c-.225.561-.439.947-.957,1.012-.116.013-.233.019-.348.021l-.135.091c0,.091.067.114.213.114.586,0,1.205-.034,1.327-.034.35,0,.831.034,1.192.034.124,0,.194-.023.194-.114,0-.068-.034-.091-.171-.091h-.168c-.348,0-.451-.145-.451-.348a2.217,2.217,0,0,1,.169-.685l.608-1.612.1-.089h2.509l.112.078.9,2.386a.183.183,0,0,1-.076.247l-.024.011c-.114.011-.159.034-.159.1s.137.08.338.091c.9.023,1.723.023,2.126.023s.519-.023.519-.114l-.145-.089A2.613,2.613,0,0,1,151.892,267.854Zm-3.328-3.252h-2.071l-.049-.078,1.038-2.767.067-.1.057.1,1.01,2.779Z" transform="translate(-135.073 -74.232)" fill="#fff"/>
      <path id="Path_764" data-name="Path 764" d="M154.1,260.292a3.062,3.062,0,0,1-.405.046c-.238.011-2.43,0-2.811,0-.28,0-.911-.024-1.417-.024-.158,0-.236.024-.236.091l.169.1a1.784,1.784,0,0,1,.394.034c.316.078.4.194.426.516.011.306.011.574.011,2.025v1.687c0,.922,0,1.632-.044,2.038-.034.28-.089.459-.291.506a1.471,1.471,0,0,1-.348.033c-.112,0-.146.057-.146.1,0,.081.068.1.2.1.371,0,1-.034,1.259-.034s.957.034,1.586.034c.145,0,.213-.034.213-.1,0-.044-.044-.1-.169-.1a3.7,3.7,0,0,1-.483-.033c-.291-.049-.361-.226-.4-.506-.046-.407-.055-1.082-.055-2v-.789l.067-.076c.169,0,1.339.011,1.586.033a.507.507,0,0,1,.473.35.9.9,0,0,1,.068.291l.088.137c.1,0,.114-.137.114-.215s.01-.508.033-.7c.034-.3.078-.561.078-.617l-.055-.09-.135.1a.5.5,0,0,1-.416.168c-.146.013-.281.013-.451.013l-1.383.011-.067-.093v-2.315c0-.112.033-.135.089-.135l1.641.034a.68.68,0,0,1,.631.291.782.782,0,0,1,.057.361c0,.111.055.156.124.156l.1-.194c.011-.112.034-.675.046-.776.033-.247.078-.361.078-.429l-.067-.088Z" transform="translate(-131.327 -73.679)" fill="#fff"/>
      <path id="Path_765" data-name="Path 765" d="M160.87,267.294a1.852,1.852,0,0,1-1.059-.634c-.6-.594-1.293-1.459-2.172-2.539.97-.774,1.373-1.4,1.373-2.115a1.671,1.671,0,0,0-.7-1.316,3.471,3.471,0,0,0-1.877-.405c-.3,0-1.2.021-1.541.021-.2,0-.835-.021-1.35-.021-.146,0-.226.021-.226.089s.07.1.171.1a1.756,1.756,0,0,1,.392.034c.316.089.405.194.428.516.011.306.011.574.011,2.025v1.685c0,.88,0,1.633-.046,2.04-.033.28-.089.46-.29.506a1.491,1.491,0,0,1-.35.033c-.124,0-.156.055-.156.1,0,.07.067.1.19.1.394,0,1.023-.033,1.215-.033.146,0,.97.033,1.541.033.124,0,.2-.033.2-.1l-.125-.1a3.689,3.689,0,0,1-.483-.033c-.3-.046-.35-.226-.382-.506-.046-.407-.059-1.15-.059-2.04V264.6l.08-.08.888.023.181.067c.124.145.54.789.932,1.306a4.544,4.544,0,0,0,1.352,1.4,2.137,2.137,0,0,0,1.082.2h.944c.122,0,.194-.023.194-.1l-.125-.1A.9.9,0,0,1,160.87,267.294Zm-3.747-3.4a1.008,1.008,0,0,1-.7.159,2.68,2.68,0,0,1-.753-.094c-.067-.034-.091-.065-.091-.168v-2.845l.091-.133a3.919,3.919,0,0,1,.586-.034,1.5,1.5,0,0,1,1.506,1.7,1.621,1.621,0,0,1-.641,1.419Z" transform="translate(-128.762 -73.651)" fill="#fff"/>
      <path id="Path_766" data-name="Path 766" d="M161.6,267.315a3.746,3.746,0,0,1-.5-.034c-.291-.049-.361-.194-.4-.449-.046-.407-.046-1.171-.046-2.1v-1.685c0-1.451,0-1.721.023-2.025.023-.34.1-.472.373-.517a1.328,1.328,0,0,1,.29-.033c.1,0,.158-.024.158-.114,0-.055-.078-.08-.2-.08-.382,0-1.023.024-1.271.024-.281,0-.957-.024-1.329-.024-.156,0-.234.024-.234.08,0,.088.055.114.156.114a1.227,1.227,0,0,1,.361.044c.213.067.314.181.338.506.011.3.011.574.011,2.025v1.685c0,.924,0,1.689-.044,2.084-.034.283-.089.415-.291.462a1.392,1.392,0,0,1-.35.034c-.122,0-.158.055-.158.1,0,.068.07.1.2.1.392,0,1.069-.033,1.293-.033.27,0,.945.033,1.6.033.112,0,.192-.033.192-.1C161.754,267.37,161.712,267.315,161.6,267.315Z" transform="translate(-125.541 -73.648)" fill="#fff"/>
      <path id="Path_767" data-name="Path 767" d="M168.046,265.95a1.557,1.557,0,0,1-.34.641c-.394.436-.878.508-1.755.508a3.188,3.188,0,0,1-3.084-3.289l0-.065a3.1,3.1,0,0,1,.911-2.484,2.67,2.67,0,0,1,1.868-.54,2.8,2.8,0,0,1,1.913.561,1.349,1.349,0,0,1,.382.888c0,.125.023.2.1.2s.124-.1.135-.236c.013-.194.013-.719.034-1.035.021-.338.044-.451.044-.529,0-.057-.033-.1-.145-.114-.293-.033-.62-.1-.991-.155a10.19,10.19,0,0,0-1.441-.1,4.466,4.466,0,0,0-3.138,1.012,3.693,3.693,0,0,0-.155,5.22c.075.078.153.153.233.224a5.1,5.1,0,0,0,3.4,1.036,5.788,5.788,0,0,0,1.789-.215.337.337,0,0,0,.259-.28,8.658,8.658,0,0,0,.213-1.272l-.112-.171C168.09,265.76,168.067,265.806,168.046,265.95Z" transform="translate(-123.709 -73.703)" fill="#fff"/>
      <path id="Path_768" data-name="Path 768" d="M173.618,267.367c-.179-.033-.46-.159-.843-1.023-.631-1.451-2.284-5.367-2.52-5.894-.1-.215-.146-.306-.291-.306-.1,0-.179.114-.291.382l-2.588,6.019c-.2.485-.369.778-.818.844l-.291.011-.114.1c0,.08.055.1.181.1.517,0,1.044-.033,1.147-.033.316,0,.779.033,1.1.033.1,0,.159-.023.159-.1,0-.057-.024-.1-.146-.1h-.145c-.3,0-.394-.1-.394-.27a1.743,1.743,0,0,1,.146-.586l.529-1.282.091-.067h2.33l.1.067.765,1.926a.151.151,0,0,1-.065.2l-.024.01c-.1.011-.125.044-.125.1s.111.07.29.08c.833.023,1.552.023,1.9.023.371,0,.426-.023.426-.1l-.133-.1A2.474,2.474,0,0,1,173.618,267.367Zm-2.98-2.7h-1.915l-.031-.067.955-2.417.055-.091.046.089.934,2.431Z" transform="translate(-120.901 -73.734)" fill="#fff"/>
      <path id="Path_769" data-name="Path 769" d="M179.393,260.347c-.485,0-.856.024-.97.024-.215,0-.742-.024-1.259-.024-.146,0-.247.011-.247.091,0,.057.033.1.158.1a1.669,1.669,0,0,1,.516.055c.236.091.327.26.34.844l.1,4.252h-.044c-.146-.135-1.463-1.484-2.139-2.149-1.44-1.406-2.925-2.923-3.049-3.047-.169-.169-.3-.316-.428-.316-.1,0-.169.137-.169.325l-.089,5.67c-.011.831-.046,1.09-.3,1.158a1.987,1.987,0,0,1-.449.047l-.158.1c0,.089.091.1.225.1.508,0,.979-.034,1.069-.034.181,0,.641.034,1.284.034.133,0,.225-.023.225-.1,0-.057-.057-.1-.169-.1a1.7,1.7,0,0,1-.519-.067c-.19-.067-.314-.291-.338-1.035l-.112-3.9h.033c.194.169,1.238,1.326,2.318,2.361,1.035,1,2.273,2.183,2.892,2.757a.578.578,0,0,0,.4.2c.078,0,.158-.089.158-.3l.112-6.029c.013-.54.091-.709.36-.787a1.067,1.067,0,0,1,.3-.034c.114,0,.169-.044.169-.1C179.618,260.358,179.53,260.347,179.393,260.347Z" transform="translate(-117.553 -73.712)" fill="#fff"/>
      <path id="Path_770" data-name="Path 770" d="M187.562,267.929c-.238-.059-.568-.218-1-1.235-.726-1.726-2.539-6.356-2.811-6.982-.114-.262-.181-.363-.285-.363s-.181.125-.317.454l-2.845,7.129c-.228.565-.446.955-.966,1.017-.117.015-.234.023-.351.026l-.135.09c0,.091.067.114.215.114.589,0,1.214-.034,1.339-.034.351,0,.841.034,1.2.034.125,0,.194-.023.194-.114,0-.07-.033-.09-.169-.09h-.171c-.353,0-.454-.15-.454-.355a2.159,2.159,0,0,1,.171-.69l.612-1.625.1-.091h2.531l.112.078.908,2.406a.185.185,0,0,1-.075.251l-.026.011c-.114.013-.158.033-.158.1s.135.081.338.091c.908.023,1.736.023,2.144.023s.524-.023.524-.114l-.146-.09A2.681,2.681,0,0,1,187.562,267.929Zm-3.358-3.278h-2.089l-.046-.081,1.044-2.792.067-.1.059.1,1.022,2.8Z" transform="translate(-112.758 -74.232)" fill="#fff"/>
      <path id="Path_771" data-name="Path 771" d="M193.039,260.355c-.488,0-.861.024-.974.024-.218,0-.748-.024-1.272-.024-.146,0-.249.011-.249.093,0,.057.034.1.158.1a1.714,1.714,0,0,1,.522.055c.239.091.33.264.338.852l.1,4.288h-.046c-.145-.135-1.474-1.5-2.156-2.167-1.454-1.415-2.949-2.949-3.076-3.073-.169-.171-.306-.319-.429-.319-.1,0-.171.137-.171.327l-.091,5.718c-.011.839-.042,1.1-.306,1.168a1.94,1.94,0,0,1-.454.049l-.158.1c0,.089.089.1.226.1.511,0,.987-.034,1.077-.034.184,0,.649.034,1.295.034.137,0,.228-.021.228-.1,0-.059-.057-.1-.171-.1a1.712,1.712,0,0,1-.522-.068c-.194-.068-.319-.3-.338-1.043l-.114-3.94h.034c.194.172,1.248,1.339,2.338,2.382,1.044,1.014,2.292,2.2,2.917,2.782a.583.583,0,0,0,.408.2c.08,0,.158-.091.158-.307l.114-6.081c.011-.545.091-.716.363-.8a1.026,1.026,0,0,1,.306-.033c.114,0,.171-.046.171-.1C193.267,260.366,193.176,260.355,193.039,260.355Z" transform="translate(-109.043 -73.707)" fill="#fff"/>
      <path id="Path_772" data-name="Path 772" d="M197.654,266.008a1.544,1.544,0,0,1-.34.647c-.4.443-.887.511-1.772.511a3.216,3.216,0,0,1-3.111-3.317l0-.065a3.12,3.12,0,0,1,.918-2.505,2.68,2.68,0,0,1,1.885-.545,2.829,2.829,0,0,1,1.928.566,1.365,1.365,0,0,1,.389.9c0,.125.021.2.1.2s.125-.1.137-.239c.011-.194.011-.727.034-1.043.023-.34.046-.456.046-.534,0-.057-.036-.1-.145-.114-.3-.034-.623-.1-1-.156a10.075,10.075,0,0,0-1.451-.1,4.507,4.507,0,0,0-3.166,1.018,3.725,3.725,0,0,0-.155,5.266c.075.08.153.155.234.228a5.131,5.131,0,0,0,3.426,1.044,5.825,5.825,0,0,0,1.8-.216c.171-.07.216-.112.26-.283a8.358,8.358,0,0,0,.216-1.284l-.112-.171C197.7,265.815,197.675,265.862,197.654,266.008Z" transform="translate(-105.181 -73.698)" fill="#fff"/>
      <path id="Path_773" data-name="Path 773" d="M201.4,266.1c-.068,0-.091.049-.114.15-.068.4-.181.6-.429.714a2.772,2.772,0,0,1-.944.125c-1.018,0-1.327-.15-1.352-.805-.011-.286,0-1.1,0-1.432v-.771l.059-.1c.249,0,1.383.021,1.567.046.373.033.5.182.556.374.02.125.02.25.034.35l.089.081.1-.213c0-.072.023-.456.046-.649.057-.488.08-.647.08-.7l-.08-.1-.158.124c-.093.1-.239.125-.477.146s-1.521.023-1.749.023l-.068-.1v-2.383l.068-.093c.2,0,1.4.023,1.567.049.5.046.582.182.659.351a.926.926,0,0,1,.068.351l.078.125.114-.159c.023-.112.046-.532.057-.636a4.217,4.217,0,0,1,.081-.623l-.07-.089-.159.047c-.08.011-.237.044-.42.057s-2.406,0-2.723,0c-.283,0-.921-.024-1.441-.024-.145,0-.224.024-.224.091s.067.1.169.1a1.8,1.8,0,0,1,.4.033c.317.091.408.194.431.522.01.307.01.581.01,2.043v1.7c0,.887,0,1.648-.044,2.056-.034.283-.091.464-.294.511a1.6,1.6,0,0,1-.351.034c-.125,0-.159.055-.159.1,0,.068.067.1.194.1.2,0,.454-.013.691-.021s.454-.013.568-.013c.294,0,.67.013,1.157.021.488.024,1.09.036,1.84.036.374,0,.464,0,.532-.249a6.205,6.205,0,0,0,.137-1.067C201.492,266.222,201.482,266.1,201.4,266.1Z" transform="translate(-101.873 -73.672)" fill="#fff"/>
      <path id="Path_774" data-name="Path 774" d="M203.473,263.226l-.408-.228c-.9-.5-1.056-.839-1.056-1.272,0-.657.647-1.031,1.363-1.031a1.346,1.346,0,0,1,1.111.454,1.1,1.1,0,0,1,.262.634c0,.116.033.169.1.169s.124-.1.124-.306c0-.758.034-1.031.034-1.155l-.137-.125a5.936,5.936,0,0,0-1.419-.159c-1.383,0-2.518.76-2.518,1.942,0,.848.387,1.5,1.563,2.188l.582.34c.885.522.987.942.987,1.362a1.253,1.253,0,0,1-1.272,1.233c-.037,0-.076,0-.114-.007a1.542,1.542,0,0,1-1.586-.953,1.758,1.758,0,0,1-.093-.5l-.1-.159c-.08,0-.124.1-.124.252s-.059.761-.059,1.282c0,.216.034.26.194.329a4.213,4.213,0,0,0,1.624.25,2.892,2.892,0,0,0,1.667-.4,2.059,2.059,0,0,0,1-1.806C205.2,264.689,204.789,263.952,203.473,263.226Z" transform="translate(-99.052 -73.695)" fill="#fff"/>
      <path id="Path_775" data-name="Path 775" d="M211.091,260.275c-.033,0-.112.023-.273.046a4.5,4.5,0,0,1-.678.046h-4.051a9.711,9.711,0,0,1-1-.046c-.251-.036-.353-.112-.433-.112-.057,0-.091.055-.112.181-.024.078-.218,1.01-.218,1.166,0,.1.024.161.093.161l.112-.125a1.092,1.092,0,0,1,.171-.329c.145-.216.387-.285.965-.3l1.485-.034v3.9c0,.887,0,1.648-.044,2.056-.034.281-.091.464-.3.509a1.409,1.409,0,0,1-.351.036c-.125,0-.158.055-.158.1,0,.068.067.1.19.1.4,0,1.079-.034,1.308-.034.283,0,.953.034,1.611.034.112,0,.194-.034.194-.1,0-.046-.046-.1-.158-.1a3.578,3.578,0,0,1-.512-.036c-.293-.047-.35-.228-.384-.5-.049-.42-.057-1.179-.057-2.066v-3.9l1.259.024c.9.01,1.157.306,1.179.555l.011.1c.011.15.034.2.114.2.057,0,.078-.057.089-.159,0-.249.024-.965.024-1.168C211.172,260.332,211.159,260.275,211.091,260.275Z" transform="translate(-96.789 -73.694)" fill="#fff"/>
      <path id="Path_776" data-name="Path 776" d="M216.97,267.363a1.876,1.876,0,0,1-1.066-.636c-.6-.6-1.3-1.474-2.188-2.564.974-.783,1.383-1.419,1.383-2.131a1.686,1.686,0,0,0-.7-1.329,3.5,3.5,0,0,0-1.894-.408c-.306,0-1.214.023-1.555.023-.2,0-.838-.023-1.36-.023-.15,0-.228.023-.228.091s.068.1.171.1a1.8,1.8,0,0,1,.4.034c.317.089.407.194.43.521.011.309.011.579.011,2.043v1.7c0,.888,0,1.648-.044,2.056-.034.281-.089.464-.3.511a1.5,1.5,0,0,1-.351.036c-.125,0-.158.055-.158.1,0,.068.068.1.194.1.4,0,1.033-.034,1.227-.034.146,0,.976.034,1.552.034.124,0,.2-.034.2-.1l-.125-.1a4.1,4.1,0,0,1-.488-.036c-.307-.049-.353-.229-.387-.511-.044-.408-.055-1.16-.055-2.056v-.132l.078-.08.9.023.182.067c.124.15.545.8.944,1.318A4.51,4.51,0,0,0,215.1,267.4a2.157,2.157,0,0,0,1.088.194h.955c.122,0,.194-.023.194-.1l-.125-.1A.872.872,0,0,1,216.97,267.363Zm-3.779-3.428a.983.983,0,0,1-.7.161,2.782,2.782,0,0,1-.76-.091c-.068-.036-.089-.07-.089-.172v-2.87l.089-.135a3.767,3.767,0,0,1,.591-.036,1.518,1.518,0,0,1,1.523,1.715,1.629,1.629,0,0,1-.647,1.428Z" transform="translate(-93.636 -73.645)" fill="#fff"/>
      <path id="Path_777" data-name="Path 777" d="M221.21,260.291c-.194,0-.851.023-1.066.023-.294,0-.646-.023-.976-.023-.112,0-.169.023-.169.091l.182.114c.169.034.215.124.215.216a1.254,1.254,0,0,1-.15.511c-.145.294-1.36,2.359-1.485,2.585-.171-.272-1.476-2.53-1.656-2.824a.758.758,0,0,1-.125-.33l.137-.145c.158-.049.228-.049.228-.125l-.148-.093c-.456,0-.921.024-1.136.024-.327,0-1.077-.024-1.248-.024-.125,0-.194.024-.194.093l.145.1a.954.954,0,0,1,.42.125,2.222,2.222,0,0,1,.647.678c.35.509,1.713,2.634,1.781,2.78a1.927,1.927,0,0,1,.226,1.009v.8c0,.158,0,.555-.034.965-.023.283-.1.464-.306.511a1.589,1.589,0,0,1-.351.034c-.114,0-.159.055-.159.1,0,.081.08.1.215.1.376,0,1.046-.033,1.295-.033.273,0,.942.033,1.567.033.135,0,.215-.033.215-.1,0-.046-.057-.1-.169-.1a4.266,4.266,0,0,1-.5-.034c-.3-.049-.387-.228-.41-.511-.023-.41-.023-.807-.023-.965V265.1a2.212,2.212,0,0,1,.127-.965,31.806,31.806,0,0,1,1.938-3.089,1.336,1.336,0,0,1,.522-.452,1.2,1.2,0,0,1,.429-.112c.115,0,.2-.046.2-.114S221.324,260.291,221.21,260.291Z" transform="translate(-90.965 -73.642)" fill="#fff"/>
      <rect id="Rectangle_1159" data-name="Rectangle 1159" width="122.248" height="2.026" transform="translate(8.18 180.854)" fill="#fff"/>
      <path id="Path_778" data-name="Path 778" d="M162.8,207.947l7.666-23.758,7.96,23.758h7.317l11.62-35.784,1.132-1.132,1.075,1.075v30.555l-5.287,5.286h21.492l-5.282-5.286V188.485h10.864v14.176l-5.29,5.286h21.492l-5.284-5.286V172.107l5.284-5.286H216.065l5.287,5.286v11.267H210.491V172.107l5.282-5.286H186.728l5.227,5.227-6.969,22.945L178.3,172.048l5.227-5.227H161.167l5.287,5.286,1.336,3.95-5.751,18.936-6.68-22.945,5.229-5.227H138.226l5.344,5.342,11.907,35.784Z" transform="translate(-138.223 -132.231)" fill="#fff"/>
      <path id="Path_779" data-name="Path 779" d="M144.756,196.863l5.344,5.342,10.4,17.833V232.7l-5.286,5.285h21.494L171.42,232.7V220.156L181,202.147l5.286-5.284H170.025l5.229,5.227-6.1,11.85-6.39-11.85,5.227-5.227Z" transform="translate(-134.13 -113.4)" fill="#fff"/>
      <path id="Path_780" data-name="Path 780" d="M186.346,196.159c-11.139.47-19.166,10.478-19.166,21.71,0,10.693,7.282,20.285,17.6,21.575-.506-.9-1.031-1.853-1.575-2.889-4.48-8.52,2.182-15.105,2.393-15.312-3.3,7.122-.485,13.224,2.375,18.333,11.14-.462,19.172-10.477,19.172-21.708,0-10.695-7.283-20.286-17.6-21.577.5.9,1.023,1.85,1.57,2.888,4.48,8.523-2.182,15.112-2.395,15.313C192.025,207.368,189.207,201.272,186.346,196.159Zm2.455,10.325-3.507.592c-.024-.177-.054-.342-.072-.527-.024-.254-.042-.5-.06-.74l3.441-.973c.091.569.156,1.116.2,1.648Zm-1.523-6.105c.213.5.4,1,.568,1.482l-2.7,1.583a14.765,14.765,0,0,1,.177-1.583Zm-1.952,24.536,1.952-1.49q.32.759.568,1.49l-2.7,1.58a14.675,14.675,0,0,1,.177-1.578Zm-.1,4.685c-.026-.254-.044-.5-.062-.739l3.441-.973c.094.569.159,1.114.2,1.648l-3.507.592c-.026-.176-.055-.343-.073-.525Zm.851,4.031c-.129-.39-.254-.818-.366-1.28l3.117.072c-.041.556-.106,1.059-.184,1.529Zm5.045-11.4c4.48,8.521-2.182,15.112-2.395,15.313,3.314-7.148.47-13.257-2.406-18.383-.921-1.666-1.978-3.48-3.11-5.63-4.48-8.523,2.182-15.112,2.393-15.313-3.307,7.142-.467,13.257,2.408,18.385.918,1.667,1.98,3.473,3.111,5.63ZM188.639,210.9l-2.569-.32c-.129-.39-.254-.818-.366-1.28l3.117.078a15.085,15.085,0,0,1-.182,1.524Z" transform="translate(-120.074 -113.841)" fill="#fff"/>
      <path id="Path_781" data-name="Path 781" d="M212.813,196.863H191.319l5.287,5.286v24.279c0,9.235,8.422,12.722,16.789,12.722,6.914,0,13.592-4.589,13.592-12.722V202.149l5.284-5.286H216.006l5.286,5.284v24.28c0,4.531-3.021,7.319-6.738,7.319-3.774,0-7.026-2.5-7.026-7.319V202.149Z" transform="translate(-104.943 -113.4)" fill="#fff"/>
      <path id="Path_782" data-name="Path 782" d="M253.493,231.3l6.447,6.449V226.192H227.757l5.287,5.286v30.555l-4.414,4.417h0l-4.415-4.417-8.132-14.7c4.181-1.687,7.261-5,7.261-9.585,0-9.061-9.585-11.56-17.659-11.56H185.642l5.287,5.286v30.555l-3.787,3.786h0l-3.844-3.843-13.07-35.784h-7.9l-12.779,35.784-5.344,5.342h15.972l-5.227-5.227,1.918-5.518h12.2l1.567,5.518-5.227,5.227h41.726l-5.284-5.286V249.311h4.067l8.6,18.007H259.94V255.756l-6.449,6.447h-9.527V247.856H250.3l5.286,5.286V237.459l-5.286,5.286h-6.332V231.3Zm-94.766,20.156,4.762-13.534,4.067,13.534Zm46.955-7.261h-3.834V231.3h3.834c3.312,0,5.868,2.5,5.868,6.449s-2.556,6.447-5.866,6.447Z" transform="translate(-134.475 -95.016)" fill="#fff"/>
      <path id="Path_783" data-name="Path 783" d="M139.55,169.729a20.015,20.015,0,0,0,8.03-9.016c.054.089.1.177.156.265a3.317,3.317,0,0,0,3.036,1.337c-1.6,2.837-4.114,5.2-4.729,8.51a3.061,3.061,0,0,0,1.223,2.52,3.242,3.242,0,0,0,3.037-.854c1.2-.882,2.365-1.819,3.532-2.744.369-.29.789-.708,1.235-1.1a6.091,6.091,0,0,0,.6,1.378,4.023,4.023,0,0,0,4.619,2.024c2.639-.657,5.19-2.836,7.293-4.479.7-.547,1.371-1.119,2.03-1.7-.049.177-.106.355-.15.534-.46,1.825.342,5.142,2.5,5.591a.134.134,0,0,0,.182-.052.117.117,0,0,0,.015-.044,40.537,40.537,0,0,1,5.058-6.65,30.494,30.494,0,0,1,2.52-2.461c.049.041.078.065.1.083l.011.008,0,0,.007,0,.1.083q-1.879,3.392-3.755,6.789c-.286.517,1.155,2.967,1.43,2.7q3.092-3.07,6.177-6.145a33.815,33.815,0,0,1,2.622-2.465,12.873,12.873,0,0,1,1.393-.992c-.13.2-.262.4-.387.6-.721,1.15-1.428,2.3-2.143,3.457-.538.867-1.448,1.89-1.466,2.956a4.693,4.693,0,0,0,1.062,2.694c1.295,1.684,3.208.155,4.563-.7s2.673-1.785,3.942-2.769c.4,1.723,1.477,3.781,3.232,4.376,1.925.657,4.163-.114,5.842-1.07a33.463,33.463,0,0,0,6.128-4.968c.044-.039.081-.078.12-.119a6.294,6.294,0,0,0,2.076,4.1c.387.662.9,1.223,1.012.947a9.638,9.638,0,0,1,2.32-3.849c1.812-1.591,3.208-3.8,5.035-5.549a14.529,14.529,0,0,1,1.476-1.241q-.5,1.11-.994,2.221-1.079,2.406-2.147,4.812c-.21.478.332,1.381.564,1.776.085.146.695,1.144.887.732a21.84,21.84,0,0,1,5.964-7.7,19.589,19.589,0,0,1,1.853-1.349c-.735,1.5-1.617,2.949-2.393,4.417s-1.441,2.562-.765,4.207c.547,1.329,1.357,2.592,2.87,1.785a30.489,30.489,0,0,0,6.115-4.449c-.057,1.612.543,3.6,1.967,4.277,1.166.556,2.569-.428,3.559-.976a29.709,29.709,0,0,0,3.6-2.348,28.947,28.947,0,0,0,4.144-3.929c.055.122.1.242.168.363a5,5,0,0,0,1.667,1.851,5.927,5.927,0,0,0,.029,1.271,5.636,5.636,0,0,0,2.795,3.82,6.28,6.28,0,0,0,5.341-.39c4.254-2.042,6.888-6.089,9.7-9.688a2.621,2.621,0,0,0,.587.491,3.342,3.342,0,0,0,1.519.381c-.085.094-.169.185-.252.281q-.864,1-1.671,2.043a13.007,13.007,0,0,0-2.374,3.6,4.354,4.354,0,0,0,.976,3.5,2.269,2.269,0,0,0,2.541.922,12.188,12.188,0,0,0,3.841-1.949,17.921,17.921,0,0,0,3.81-3.426c.436-.517-.984-2.78-1.24-2.548a26.659,26.659,0,0,1-6.546,4.57,6.537,6.537,0,0,1-1.137.423,5.841,5.841,0,0,1,.307-.525q.713-1.039,1.485-2.035c.787-1.014,1.739-1.916,2.5-2.943a2.306,2.306,0,0,0-.015-2.5,3.555,3.555,0,0,0-1.868-2.066,4.138,4.138,0,0,0-1.308-.171,6.273,6.273,0,0,1-.781-.042c-.986-.151-.429-.527-.1,1.145-.106-.392-1.087-2.661-1.461-2.105a32.018,32.018,0,0,1-8.141,8.806,8.663,8.663,0,0,1-5.4,1.809,4.2,4.2,0,0,1-1.266-.317,2.9,2.9,0,0,1-.32-.176c0-.031,0-.054,0-.086a9.217,9.217,0,0,1,.717-1.908c.257.55.591,1.014.9.965a12.159,12.159,0,0,0,5.269-2.1c1.293-.927,3.068-2.491,3.529-4.093a4.168,4.168,0,0,0-1.842-3.96c-1.537-.844-3.59.506-4.835,1.362a13.622,13.622,0,0,0-3.732,3.877c-.172.27-.353.568-.527.877a.06.06,0,0,0-.029.013,1.767,1.767,0,0,1-.983.421,2.1,2.1,0,0,1-.885-.252,3.276,3.276,0,0,1,.156-.582,3.437,3.437,0,0,1,.376-.719c.19-.241.387-.473.574-.719.415-.54-.911-2.622-1.275-2.622-.617,0-.986.848-.986,1.331a29.284,29.284,0,0,1-8.555,7.153,10.288,10.288,0,0,1-2.592,1.22,1.27,1.27,0,0,1-.314.031c.083-.371.164-.742.278-1.106a46.333,46.333,0,0,1,1.872-4.837c.129.12.241.179.314.132a39.5,39.5,0,0,0,11.137-10.716c1.144-1.661,3.024-3.8,2.183-5.918-.27-.685-.756-1.635-1.565-1.762-1.155-.179-2.658.979-3.494,1.643-3.973,3.159-7.036,7.963-9.278,12.453-.608,1.222-1.209,2.491-1.731,3.787-.088-.072-.166-.116-.208-.078a92.993,92.993,0,0,1-8.129,6.27q.444-.847.888-1.69c.669-1.279,1.367-2.552,1.991-3.851a3.29,3.29,0,0,0,.07-2.907c-.306-.758-.9-2-1.822-2.128-.883-.125-2.025.986-2.671,1.482-.41.317-.805.656-1.192,1a3.46,3.46,0,0,0-.268-1.178c-.329-.81-.927-1.968-1.955-1.851-1.069.119-2.167,1.205-2.9,1.918-.155.15-.3.3-.449.462a67.232,67.232,0,0,0-6.515,8.49,1.225,1.225,0,0,0-.351-.268,1.415,1.415,0,0,1-.251-.153,11.343,11.343,0,0,1,.184-1.189c.6-1.85,2.265-3.263,2.809-4.814a4.56,4.56,0,0,1,1.716-1.916c.5-.387-1.083-2.8-1.306-2.577-2.788,2.837-5.58,5.681-8.6,8.276-2.367,2.04-5.9,5-9.307,4.012a8.362,8.362,0,0,1-.914-.47,3.621,3.621,0,0,1-.034-.39,5.5,5.5,0,0,1,.843-2.6c.044-.037.089-.073.133-.114a.329.329,0,0,0,.088-.153c4.095,2.133,8.238-1.482,10.566-4.619a2.114,2.114,0,0,0,.457-2.229c-.265-.812-.786-1.928-1.671-2.221a4.016,4.016,0,0,0-2.331.234,16.227,16.227,0,0,0-2.917,1.175,14.581,14.581,0,0,0-5.746,5.266c-1.42,1.158-2.866,2.281-4.379,3.314a32.816,32.816,0,0,1-2.9,1.959c-.185-.2,0,0-.182-.2q1.384-2.228,2.762-4.469a5.488,5.488,0,0,0,1.049-2.214,4.147,4.147,0,0,0-1.547-3.351c-1.243-.724-3.117.776-4.022,1.518-.687.566-1.349,1.168-2.006,1.78a3.916,3.916,0,0,0,.33-2.533c-.12-.473-.717-2.4-1.423-2.271a9.507,9.507,0,0,0-4.706,2.933,41.369,41.369,0,0,0-4.425,5.04c-.39.529-.774,1.07-1.137,1.62-.146.22-.285.436-.423.659.109-.368.233-.735.356-1.093a32.316,32.316,0,0,1,3.117-6.517c.347-.556-1.134-2.8-1.393-2.411-.13.2-.259.394-.382.591-.034-.018-.07-.039-.081-.024a45.887,45.887,0,0,1-6.828,6.312,47.43,47.43,0,0,1-4.205,2.779,8.347,8.347,0,0,1-3.582,1.406,2.743,2.743,0,0,1-1.859-.413c-.146-.142-.088-.135.1-.5a8.309,8.309,0,0,0,.355-.935,1.492,1.492,0,0,1,.369-.057,9.451,9.451,0,0,0,3.351-.644c2.88-1.1,8.2-5.775,4.9-9.034-1.295-1.275-4.088.646-5.229,1.436a14.153,14.153,0,0,0-4.243,4.662,9.583,9.583,0,0,0-.545,1.145,2.1,2.1,0,0,0-.6.342c-.932.682-1.853,1.376-2.775,2.076-1.072.817-2.12,1.664-3.192,2.478h0c1.6-2.652,4.039-4.879,4.726-7.973.14-.621-.678-2.8-1.467-2.767a31.243,31.243,0,0,1-3.49.142,1.293,1.293,0,0,1-.21-.008c.067-.338.093-.735.181-1.025.156-.524-.291-1.295-.545-1.728-.067-.114-.727-1.119-.861-.709a21.628,21.628,0,0,1-8.759,11.279C137.846,167.554,139.143,169.966,139.55,169.729Zm114.268-6.96a13.026,13.026,0,0,1,2.238-1.423,6.682,6.682,0,0,1,1.1-.46,2.608,2.608,0,0,1,.621-.119c-.037.068-.067.124-.08.145a10.867,10.867,0,0,1-1.134,1.381A12.453,12.453,0,0,1,254.514,164a12.147,12.147,0,0,1-3.343,1.559A13.7,13.7,0,0,1,253.818,162.769Zm-9.655-11.041a17.939,17.939,0,0,1,2.313-2.229,10.8,10.8,0,0,1,1.318-.88,2.938,2.938,0,0,1,.444-.184c-.133.208-.27.413-.4.62q-.93,1.442-1.972,2.81a41.214,41.214,0,0,1-6.979,7.116A46.538,46.538,0,0,1,244.162,151.728Zm-45.1,11.666a15.813,15.813,0,0,1,4.222-2.411c.342-.127.709-.27,1.08-.382-1.835,2.121-4.228,4.065-6.94,4.287A16.738,16.738,0,0,1,199.06,163.394Zm-40.03.569a14.21,14.21,0,0,1,2.933-2.515,15.906,15.906,0,0,1,2.313-1.3,9.263,9.263,0,0,1-.519.779,10.591,10.591,0,0,1-1.767,1.783,10.827,10.827,0,0,1-3.446,1.848C158.7,164.354,158.86,164.154,159.031,163.963Z" transform="translate(-138.224 -145.559)" fill="#fff"/>
      <path id="Path_784" data-name="Path 784" d="M218.837,166.124c-11.552,0-19.971,10.218-19.971,21.71s8.417,21.712,19.971,21.712S238.8,199.327,238.8,187.834,230.387,166.124,218.837,166.124Zm0,38.313c-6.909,0-7.6-9.4-7.6-16.6s.695-16.6,7.6-16.6,7.6,9.4,7.6,16.6S225.743,204.437,218.837,204.437Z" transform="translate(-100.213 -132.668)" fill="#fff"/>
    </g>
  </g>
</svg>
