<svg id="THEBREAKFASTCLUB" xmlns="http://www.w3.org/2000/svg" width="210.511" height="55.326" viewBox="0 0 210.511 55.326">
  <g id="Group_33" data-name="Group 33" transform="translate(0 0)">
    <path id="Path_373" data-name="Path 373" d="M586.1,527.405c.013.219.039.438.039.658q0,13.481,0,26.962-.007,9.757-.038,19.515c0,.234,0,.468,0,.759h7.675c.013.246.032.438.033.63,0,1.281.018,2.563,0,3.843-.015.837-.064,1.675-.149,2.508-.016.158-.264.306-.429.426-.065.048-.195.009-.295.009-4.19,0-8.38-.011-12.57.013-.592,0-.738-.187-.739-.753q-.055-21.307-.142-42.614c0-.137-.014-.273-.033-.609-.223.313-.362.481-.473.666q-4.516,7.48-9.018,14.968a1.054,1.054,0,0,1-1.045.6c-2.125-.029-4.25-.012-6.375-.012h-.651l1-1.516-1.164-.1c.9-1.314,1.755-2.561,2.611-3.808q7.462-10.864,14.922-21.729a4.688,4.688,0,0,0,.228-.413Z" transform="translate(-470.14 -527.405)"/>
    <path id="Path_374" data-name="Path 374" d="M289.1,527.405c.744.119,1.49.23,2.233.358a8.017,8.017,0,0,1,6.636,7.373,13.671,13.671,0,0,1-.628,6.213,7.08,7.08,0,0,1-4.237,4.32c-.108.043-.211.1-.418.2l5.949,7.482-1.313.09,1.085,1.48c-.22.021-.37.049-.521.049-2.084,0-4.169.014-6.253-.013a1.058,1.058,0,0,1-.753-.335q-4.406-6.074-8.768-12.18a1.123,1.123,0,0,1-.071-.163l.863-.13-1.181-1.679h.721c1.6,0,3.207.027,4.81-.013a10.272,10.272,0,0,0,2.012-.289,3.188,3.188,0,0,0,1.08-.507c1.293-.906,2-2.761.011-4.1a4.759,4.759,0,0,0-2.677-.758c-1.723-.015-3.447,0-5.171,0-1.079,0-1.079,0-1.265-1.086v2.633q0,7.894-.006,15.788c0,.814-.065,1.631-.145,2.441a.559.559,0,0,1-.388.378q-2.8.038-5.591,0c-.137,0-.379-.277-.388-.436-.077-1.312-.15-2.627-.152-3.941q-.02-11.286-.007-22.571c0-.2-.014-.4-.021-.6Z" transform="translate(-217.528 -527.405)"/>
    <path id="Path_375" data-name="Path 375" d="M113.3,527.405c.807.116,1.621.2,2.419.353a6.369,6.369,0,0,1,5.4,7.072c-.054.717-.1,1.437-.2,2.149a5.839,5.839,0,0,1-1.48,3.02c.118.063.208.1.292.156a5.4,5.4,0,0,1,2.638,4.283,12.634,12.634,0,0,1-.664,5.718c-.958,2.523-3.033,3.789-5.525,4.439a10.234,10.234,0,0,1-2.376.259c-3.243.06-6.487.071-9.731.127-.543.01-.722-.133-.723-.7q-.023-13.02-.084-26.04c0-.279.029-.557.044-.836Zm-3.612,20.144c1.241,0,2.42.047,3.593-.021a4.545,4.545,0,0,0,1.66-.456,2.359,2.359,0,0,0,.859-.869.7.7,0,0,0-.233-1.076,4.1,4.1,0,0,0-1.437-.675c-1.332-.122-2.678-.1-4.018-.114-.14,0-.4.191-.4.3C109.679,545.594,109.693,546.549,109.693,547.549Zm0-10.325c1.083,0,2.1.017,3.107-.01a2.737,2.737,0,0,0,.926-.218,1.224,1.224,0,0,0,.918-1.073c0-.574-.526-.737-.986-.894a1.51,1.51,0,0,0-.4-.107c-1.074-.045-2.148-.091-3.222-.1-.112,0-.318.228-.325.358C109.672,535.835,109.69,536.493,109.69,537.224Z" transform="translate(-66.872 -527.405)"/>
    <path id="Path_376" data-name="Path 376" d="M1066.919,527.405q.005,12.814.007,25.629c0,.5-.056,1-.058,1.5,0,.346-.163.447-.483.446-1.844-.007-3.687-.015-5.531,0-.537.006-.5-.32-.5-.673q-.023-7.381-.053-14.761a1.31,1.31,0,0,0-.135-.676c-.138.2-.286.4-.413.613q-4.523,7.5-9.052,15a.954.954,0,0,1-.609.464c-2.422.033-4.845.021-7.4.021l.964-1.511-1.107-.118c.169-.253.3-.447.426-.637q8.51-12.4,17.02-24.791c.111-.162.2-.338.3-.508Z" transform="translate(-893.097 -527.405)"/>
    <path id="Path_377" data-name="Path 377" d="M1273.095,527.405c-.019,2.079-.054,4.159-.045,6.238,0,.523-.146.69-.679.685-2.665-.024-5.33-.006-7.995-.013a2.583,2.583,0,0,0-1.842.743c-.333.314-.405.675,0,.963a15.23,15.23,0,0,0,1.91,1.225c1.446.727,2.962,1.323,4.381,2.1a12.171,12.171,0,0,1,2.555,1.86,5.633,5.633,0,0,1,1.7,4.285,12.914,12.914,0,0,1-.641,4.9,6.813,6.813,0,0,1-5.89,4.317c-2.157.249-4.35.206-6.528.263-1.222.032-2.444,0-3.667.006-.272,0-.532.008-.544-.379-.064-2.151-.134-4.3-.2-6.549h.8q3.877,0,7.755,0a2.5,2.5,0,0,0,2.126-1.035c.419-.564.44-.856-.1-1.285a9.652,9.652,0,0,0-1.822-1.132c-1.459-.7-2.971-1.3-4.419-2.019a6.84,6.84,0,0,1-3.813-4.036,9.995,9.995,0,0,1-.255-5.211c.656-2.791,2.628-4.4,5.228-5.308.8-.281,1.657-.414,2.488-.615Z" transform="translate(-1080.508 -527.405)"/>
    <path id="Path_378" data-name="Path 378" d="M499.741,527.405c.024.356.074.713.068,1.069-.032,1.935-.09,3.87-.11,5.806,0,.449-.2.527-.588.525-2.164-.011-4.328-.005-6.492-.005h-.772v2.463h4.1v7.392h-1.5c-.721,0-1.443.01-2.164,0-.347-.006-.508.1-.5.48.023.779.007,1.558.007,2.4h5.181l-1.108,1.716.863.1-2.624,3.837a2.477,2.477,0,0,0-.273.394A2.322,2.322,0,0,1,491.148,555c-1.614-.119-3.244-.052-4.866-.016-.562.012-.711-.169-.713-.716q-.054-13.432-.143-26.864Z" transform="translate(-403.026 -527.405)"/>
    <path id="Path_379" data-name="Path 379" d="M993.579,527.405c-.019,2.3-.047,4.6-.048,6.9,0,.473-.247.5-.609.5-2.224-.008-4.448.013-6.672-.015-.56-.007-.746.168-.7.718s.01,1.113.01,1.733h4.234c.013.253.03.445.03.637,0,1.04.019,2.081,0,3.121-.024,1.074-.1,2.148-.127,3.222-.01.356-.186.434-.5.432-1.022-.008-2.044.016-3.065-.011-.453-.012-.584.151-.58.591q.026,3.331,0,6.661c-.005.877-.067,1.754-.082,2.631-.006.341-.15.454-.475.453q-2.615-.011-5.229,0c-.337,0-.454-.138-.462-.466-.036-1.434-.128-2.867-.131-4.3q-.021-11.1-.007-22.205c0-.2-.014-.4-.022-.6Z" transform="translate(-837.32 -527.405)"/>
    <path id="Path_380" data-name="Path 380" d="M1426.739,534.851c-1.241-.017-2.481-.041-3.722-.05-1.156-.009-1.157,0-1.361-1.107V536.1q0,7.955-.006,15.91c0,.854-.068,1.71-.148,2.561a.559.559,0,0,1-.385.381c-1.864.025-3.728.014-5.592.02-.371,0-.411-.217-.417-.51-.04-1.935-.12-3.87-.128-5.8-.02-4.423,0-8.846-.011-13.269,0-.567-.062-1.135-.1-1.775-.1,1.184-.1,1.184-1.241,1.184-1.022,0-2.045-.021-3.066.009-.48.014-.617-.156-.616-.623,0-2.26-.028-4.52-.047-6.78h16.841Z" transform="translate(-1216.228 -527.405)"/>
    <path id="Path_381" data-name="Path 381" d="M853.213,527.405l-.962,1.69.818.08c-.441.678-.855,1.322-1.277,1.961-2.063,3.123-4.12,6.252-6.2,9.36a.861.861,0,0,0,.028,1.157q3.933,5.566,7.823,11.163c.111.158.208.326.342.539l-1.11.091.973,1.525H852.41c-1.9,0-3.809-.01-5.713.008a.9.9,0,0,1-.871-.482q-3.678-5.878-7.392-11.734a.775.775,0,0,1-.066-.919c.1-.188-.073-.524-.11-.8-.031-.23-.148-.527-.049-.684q4.053-6.493,8.148-12.961Z" transform="translate(-713.313 -527.405)"/>
    <path id="Path_382" data-name="Path 382" d="M782.707,527.405q-.005,12.541-.016,25.081a18,18,0,0,1-.14,2.085.567.567,0,0,1-.392.382q-2.764.038-5.529,0c-.14,0-.383-.279-.395-.442-.083-1.112-.157-2.228-.159-3.342q-.019-11.461-.006-22.922c0-.28.014-.559.021-.839Z" transform="translate(-658.687 -527.405)"/>
    <path id="Path_383" data-name="Path 383" d="M-94,527.405q.008,7.745.013,15.489a10.838,10.838,0,0,1-.087,1.552.611.611,0,0,1-.408.417c-1,.037-2,.011-3.006.023-.412,0-.43-.242-.436-.551-.035-1.736-.094-3.471-.115-5.207,0-.428-.116-.615-.574-.609q-1.984.029-3.969,0c-.442-.007-.6.141-.584.59.03.92.028,1.841,0,2.761-.024.874-.077,1.749-.161,2.62a.559.559,0,0,1-.391.374c-.981.033-1.964.012-2.946.02-.426,0-.409-.279-.413-.571-.047-3.075-.11-6.15-.14-9.225-.026-2.561-.014-5.122-.019-7.683h4.09v5.859h5.1c0-1.511-.006-2.971,0-4.432,0-.476.048-.952.074-1.428Z" transform="translate(118.302 -527.405)"/>
    <path id="Path_384" data-name="Path 384" d="M18.479,527.405c0,.82.014,1.64-.011,2.46-.023.755-.1,1.508-.131,2.262-.016.4-.259.442-.567.442-1.182,0-2.364.013-3.546,0-.574-.008-.772.218-.578.83h2.479c0,1.233.007,2.4,0,3.572,0,.335-.1.67-.086,1,.016.435-.135.628-.585.606s-.921.006-1.382,0-.5.255-.5.626c-.007.407.2.448.523.446,1.222-.011,2.444,0,3.666,0h.636c0,1.274,0,2.484,0,3.693,0,.2-.045.4-.049.595-.016.955-.013.955-1,.955H10.672c-.837,0-.836,0-.843-.811q-.065-8.334-.131-16.667Z" transform="translate(15.443 -527.405)"/>
    <path id="Path_385" data-name="Path 385" d="M-188.958,527.405q-.046,1.937-.091,3.875c0,.08-.026.159-.022.238.058,1.2-.122,1.046-1.116,1.049-1.844.006-1.844,0-1.844,1.867,0,2.359.01,4.719,0,7.078-.006.976-.049,1.953-.12,2.926a.6.6,0,0,1-.4.425c-1.1.036-2.2.02-3.319.02-.07-.814-.187-1.581-.192-2.348-.022-3.079-.027-6.158.007-9.237.007-.611-.215-.762-.757-.735s-1.083-.019-1.621.013c-.51.03-.708-.135-.7-.676.015-1.5-.026-3-.045-4.495Z" transform="translate(199.183 -527.405)"/>
    <path id="Path_386" data-name="Path 386" d="M1056.365,770.831a5.328,5.328,0,0,1,2.839,4.127,23.318,23.318,0,0,1-.013,3.344,10.075,10.075,0,0,1-.123,1.129c-.505,3.676-3.816,5.708-6.492,6.1a25.332,25.332,0,0,1-3.4.241c-2.785.033-5.57,0-8.356.018-.429,0-.6-.112-.6-.573q-.009-13.292-.041-26.584c0-.1.016-.2.029-.338.183-.013.358-.036.532-.035,3.345.026,6.691.015,10.034.1a7.831,7.831,0,0,1,5.2,1.86,6.1,6.1,0,0,1,2.088,4.789,10.9,10.9,0,0,1-.189,2.624,16.614,16.614,0,0,1-1.085,2.631A3.393,3.393,0,0,1,1056.365,770.831Zm-9.765,7.5c1.354,0,2.669.015,3.984-.011a2.922,2.922,0,0,0,.924-.239c.793-.3,1.4-.949,1.294-1.48a1.554,1.554,0,0,0-1.467-1.23c-1.563-.144-3.139-.149-4.734-.211Zm-.039-10.254c.754,0,1.431.031,2.1-.009a6.491,6.491,0,0,0,1.935-.269,1.658,1.658,0,0,0,.919-1.044c.1-.532-.5-.823-.969-.874-1.225-.135-2.46-.18-3.693-.232-.094,0-.277.222-.283.347C1046.546,766.656,1046.561,767.314,1046.561,768.08Z" transform="translate(-891.003 -730.477)"/>
    <path id="Path_387" data-name="Path 387" d="M850.14,758.541h5.895v.674q0,12.34-.006,24.68a12.472,12.472,0,0,1-.155,1.782c-.019.133-.227.276-.38.34a1.3,1.3,0,0,1-.476.014q-6.045,0-12.089,0a15.332,15.332,0,0,1-4.548-.691,8.45,8.45,0,0,1-5.741-7.17c-.144-2.193-.239-4.392-.261-6.59-.041-4.083-.012-8.167-.012-12.25v-.769h6.627v.72c0,4.724-.009,9.448.009,14.172a15.311,15.311,0,0,0,.193,2.446,3,3,0,0,0,3.285,2.741c2.524,0,5.048,0,7.659,0Z" transform="translate(-708.201 -730.721)"/>
    <path id="Path_388" data-name="Path 388" d="M505.968,768.36l-.506.132c.044.185.079.355.126.522.248.888.217.933-.676.933-1.6,0-3.208-.021-4.811.012a1.035,1.035,0,0,1-1.107-.66,6.52,6.52,0,0,0-4.47-3.611c-3.992-.929-8.225,2.57-7.906,6.592a6.8,6.8,0,0,0,6.364,6.45,5.887,5.887,0,0,0,5.653-3.187,1.791,1.791,0,0,1,1.92-1.04c1.54.074,3.086.02,4.63.02h.681a3.708,3.708,0,0,1-.027.416c-.1.519-.5,1-.158,1.577.058.1-.05.306-.1.456a12.353,12.353,0,0,1-10.018,8.709,12.863,12.863,0,0,1-14.939-9.724c-.817-3.68-.873-7.366,1.058-10.8a12.541,12.541,0,0,1,10.339-6.679,12.812,12.812,0,0,1,9.786,2.961A12.355,12.355,0,0,1,505.968,768.36Z" transform="translate(-398.329 -730.604)"/>
  </g>
</svg>
