<svg id="USATODAY" xmlns="http://www.w3.org/2000/svg" width="181.482" height="81.205" viewBox="0 0 181.482 81.205">
  <path id="Path_427" data-name="Path 427" d="M1391.883,295.92v-2.21h-.826v-.295h1.987v.295h-.831v2.21h-.33" transform="translate(-1214.655 -241.956)"/>
  <path id="Path_428" data-name="Path 428" d="M1394.918,295.92v-2.505h.5l.591,1.774c.057.164.1.289.12.371.031-.091.074-.226.135-.4l.6-1.742h.446v2.505h-.318v-2.1l-.729,2.1h-.3l-.725-2.132v2.132h-.319" transform="translate(-1216.2 -241.956)"/>
  <path id="Path_429" data-name="Path 429" d="M1178.212,248.24a40.6,40.6,0,1,1-40.6-40.6,40.6,40.6,0,0,1,40.6,40.6" transform="translate(-1097.008 -207.637)"/>
  <path id="Path_430" data-name="Path 430" d="M1245.114,239.177V226.888h5.524v10.694c0,2.116.222,4.18,3,4.18s3-2.063,3-4.18V226.888h5.525v12.289c0,4.756-3.052,7.4-8.524,7.4-5.634,0-8.521-2.64-8.521-7.4" transform="translate(-1156.264 -215.339)"/>
  <path id="Path_431" data-name="Path 431" d="M1276.006,243.509l2.668-3.683a6.108,6.108,0,0,0,4.536,2.255c1.428,0,2.282-.6,2.282-1.733,0-1.347-1.237-1.732-3.328-2.364-2.8-.853-5.277-2.31-5.277-5.637,0-3.656,2.995-6.1,7.229-6.1a9.415,9.415,0,0,1,6.571,2.229l-2.5,3.683a5.073,5.073,0,0,0-3.792-1.677c-1.43,0-2.036.577-2.036,1.347,0,1.209,1.457,1.538,3.053,2.035,3.132.989,5.552,2.419,5.552,5.965,0,3.711-2.667,6.489-7.479,6.489a10.541,10.541,0,0,1-7.478-2.805" transform="translate(-1168.624 -215.081)"/>
  <path id="Path_432" data-name="Path 432" d="M1308.529,226.888h6.075l7.175,19.3h-5.746l-.907-2.777h-7.285l-.88,2.777h-5.608l7.176-19.3m5.2,12.125-1.485-4.646a17.222,17.222,0,0,1-.66-2.887h-.166a17.192,17.192,0,0,1-.657,2.887l-1.487,4.646Z" transform="translate(-1178.765 -215.339)"/>
  <path id="Path_433" data-name="Path 433" d="M1250.009,269.952h-4.757v-4.482h15.037v4.482h-4.756v14.818h-5.525V269.952" transform="translate(-1156.319 -230.776)"/>
  <path id="Path_434" data-name="Path 434" d="M1270.964,274.892c0-4.756,3.408-10.062,10.584-10.062,7.2,0,10.614,5.306,10.614,10.062,0,4.729-3.41,10.008-10.614,10.008-7.176,0-10.584-5.279-10.584-10.008m15.506,0c0-3.464-2.255-5.25-4.948-5.25-2.641,0-4.895,1.786-4.895,5.25,0,3.437,2.254,5.2,4.895,5.2C1284.215,280.089,1286.47,278.329,1286.47,274.892Z" transform="translate(-1166.607 -230.52)"/>
  <path id="Path_435" data-name="Path 435" d="M1309.6,265.473h7.12c6.819,0,10.723,3.628,10.723,9.649,0,5.911-4.015,9.649-10.723,9.649h-7.12v-19.3m5.526,14.845h1.182c3.546,0,5.443-1.7,5.443-5.2s-1.9-5.2-5.443-5.2h-1.182Z" transform="translate(-1182.066 -230.777)"/>
  <path id="Path_436" data-name="Path 436" d="M1345.24,265.471h6.076l7.174,19.3h-5.744l-.908-2.776h-7.286l-.879,2.776h-5.609l7.176-19.3m5.2,12.125-1.484-4.647a17.456,17.456,0,0,1-.661-2.887h-.164a17.1,17.1,0,0,1-.66,2.887l-1.484,4.647Z" transform="translate(-1193.453 -230.776)"/>
  <path id="Path_437" data-name="Path 437" d="M1373,277.9l-7.2-12.426h6.048l2.613,4.755a14.041,14.041,0,0,1,1.485,3.574h.112a14.03,14.03,0,0,1,1.484-3.574l2.613-4.755h5.882l-7.2,12.426v6.874H1373V277.9" transform="translate(-1204.547 -230.777)"/>
</svg>
