<?xml version="1.0" encoding="utf-8"?>
<!-- Generator: Adobe Illustrator 25.2.0, SVG Export Plug-In . SVG Version: 6.00 Build 0)  -->
<svg version="1.1" id="Layer_1" xmlns="http://www.w3.org/2000/svg" xmlns:xlink="http://www.w3.org/1999/xlink" x="0px" y="0px"
	 viewBox="0 0 494.5 580.5" style="enable-background:new 0 0 494.5 580.5;" xml:space="preserve">
<style type="text/css">
	.st0{enable-background:new    ;}
	.st1{fill:#FFFFFF;}
	.st2{fill:#FF7051;}
	.st3{fill:none;stroke:#FFFFFF;stroke-width:3;}
</style>
<g id="Group_101" transform="translate(0 -44)">
	<g class="st0">
		<path class="st1" d="M87.2,182H69.4l4.6-4.5v-26.3l-4.6-4.6h16.5c7.1,0,13.7,2.5,13.7,8.7c0,3.8-3.2,6.8-7,7.9
			c4.6,0.8,8.8,4.3,8.8,9.1C101.4,179.8,93.6,182,87.2,182z M85.7,151h-2.3v10.7h2.3c2.7,0,4.3-1.7,4.3-5.4S88.3,151,85.7,151z
			 M86.9,166.1h-3.6v11.5h3.6c2,0,4.8-1.6,4.8-5.8C91.7,167.6,89.6,166.1,86.9,166.1z"/>
		<path class="st1" d="M133,151.1V172c0,7-5.7,11-11.7,11c-7.2,0-14.5-3-14.5-11v-20.9l-4.6-4.6h18.5l-4.6,4.6V172
			c0,4.1,2.8,6.3,6.1,6.3c3.2,0,5.8-2.4,5.8-6.3v-20.9l-4.6-4.6h14L133,151.1z"/>
		<path class="st1" d="M167.5,151.1l-8.3,15.5v10.8l4.6,4.5h-18.5l4.6-4.5v-10.9l-9-15.4l-4.6-4.6h20l-4.5,4.5l5.5,10.2l5.3-10.2
			l-4.5-4.5h14L167.5,151.1z"/>
		<path class="st1" d="M202.3,183c-10,0-17.2-8.8-17.2-18.7s7.3-18.7,17.2-18.7s17.2,8.8,17.2,18.7S212.2,183,202.3,183z M202.3,150
			c-6,0-6.6,8.1-6.6,14.3s0.6,14.3,6.6,14.3s6.6-8.1,6.6-14.3S208.2,150,202.3,150z"/>
		<path class="st1" d="M250.1,151.1v34.5l-20.5-26.5v18.3l4.6,4.5h-14l4.6-4.5v-26.3l-4.6-4.6H232l13.2,17.9v-13.4l-4.6-4.6h14
			L250.1,151.1z"/>
		<path class="st1" d="M254.9,182l4.6-4.5v-26.3l-4.6-4.6h27.7v10L277,151h-8.2v9.9h5.5l4.6-4.5v13.5l-4.6-4.5h-5.5v12.4h8.2
			l5.6-5.5v10H254.9z"/>
		<path class="st1" d="M287.7,190.4v-12.6c0-2.6,2.3-4.8,4.7-4.8c4.2,0,6.1,4.7,4,7.2L287.7,190.4z"/>
		<path class="st1" d="M347.1,166.6v13.6c-4.4,1.8-7.4,2.5-12.5,2.5c-9.6,0-19.5-7.8-19.5-18.5c0-11,9.9-18.5,19.5-18.5
			c4.3,0,7.1,0.6,11,2.6v10.4l-6.4-6.4c-1.5-1.5-2.6-2.2-4.6-2.2c-6.8,0-8.8,7.5-8.8,14.1s1,14.1,8.8,14.1c1.3,0,2.2-0.5,3.1-1
			v-10.7l-4.6-4.6h18.5L347.1,166.6z"/>
		<path class="st1" d="M351.5,182l4.6-4.5v-26.3l-4.6-4.6h27.7v10l-5.6-5.6h-8.2v9.9h5.5l4.6-4.5v13.5l-4.6-4.5h-5.5v12.4h8.2
			l5.6-5.5v10H351.5z"/>
		<path class="st1" d="M404.9,151h-4.5v26.5l4.6,4.5h-18.5l4.6-4.5V151h-4.5l-5.6,5.6v-10h29.4v10L404.9,151z"/>
	</g>
	<g class="st0">
		<path class="st1" d="M100.6,233c-10,0-17.2-8.8-17.2-18.7s7.3-18.7,17.2-18.7s17.2,8.8,17.2,18.7S110.6,233,100.6,233z M100.6,200
			c-6,0-6.6,8.1-6.6,14.3s0.6,14.3,6.6,14.3s6.6-8.1,6.6-14.3S106.6,200,100.6,200z"/>
		<path class="st1" d="M148.4,201.1v34.5l-20.5-26.5v18.3l4.6,4.5h-14l4.6-4.5v-26.3l-4.6-4.6h11.9l13.2,17.9v-13.4l-4.6-4.6h14
			L148.4,201.1z"/>
		<path class="st1" d="M153.2,232l4.6-4.5v-26.3l-4.6-4.6h27.7v10l-5.6-5.6h-8.2v9.9h5.5l4.6-4.5v13.5l-4.6-4.5h-5.5v12.4h8.2
			l5.6-5.5v10H153.2z"/>
		<path class="st1" d="M196.7,232v-4.3l10.8-8.9c1.7-1.4,2.4-2.8,2.4-4.5c0-2.4-2.1-3.2-3.7-3.2c-2.5,0-5.9,1.5-7.7,2.7l-1.5-2.8
			c2.9-2.3,8.5-5,13.4-5c6.4,0,9.2,3.2,9.2,7c0,3.2-2,5.2-4,6.4l-10.9,6.6H216l4.3-4.3V232H196.7z"/>
		<path class="st1" d="M238.4,232.7c-7.8,0-14.7-5.5-14.7-13.4c0-7.8,6.9-13.4,14.7-13.4c7.8,0,14.7,5.5,14.7,13.4
			C253.1,227.1,246.2,232.7,238.4,232.7z M238.4,209.6c-4,0-4,5.4-4,9.7c0,4.4,0,9.7,4,9.7c4,0,4.1-5.4,4.1-9.7
			C242.5,214.9,242.4,209.6,238.4,209.6z"/>
		<path class="st1" d="M264.2,228.8v3.2h-3.7v-8.2l16.1-23.6h-6.7c0.8,1,1,2,1,3.3c0,4-3.5,7-7.5,7s-7.5-3-7.5-7c0-4,3.5-7,7.5-7
			h18.2v7L264.2,228.8z M263.5,198.5c-1.9,0-1.8,2.8-1.8,5c0,2.3-0.1,5.1,1.8,5.1c1.9,0,1.8-2.8,1.8-5.1
			C265.3,201.3,265.4,198.5,263.5,198.5z M278,232c-4,0-7.5-3-7.5-7s3.5-7,7.5-7s7.5,3,7.5,7S281.9,232,278,232z M278,220
			c-1.9,0-1.8,2.8-1.8,5.1s-0.1,5,1.8,5c1.9,0,1.8-2.8,1.8-5S279.9,220,278,220z"/>
		<path class="st1" d="M318.5,233c-10,0-17.2-8.8-17.2-18.7s7.3-18.7,17.2-18.7s17.2,8.8,17.2,18.7S328.4,233,318.5,233z M318.5,200
			c-6,0-6.6,8.1-6.6,14.3s0.6,14.3,6.6,14.3s6.6-8.1,6.6-14.3S324.4,200,318.5,200z"/>
		<path class="st1" d="M358.5,201h-8.2v9.9h5.5l4.6-4.5v13.5l-4.6-4.5h-5.5v12.2l4.6,4.5h-18.5l4.6-4.5v-26.3l-4.6-4.6H364v10
			L358.5,201z"/>
		<path class="st1" d="M387,201h-8.2v9.9h5.5l4.6-4.5v13.5l-4.6-4.5h-5.5v12.2l4.6,4.5h-18.5l4.6-4.5v-26.3l-4.6-4.6h27.7v10
			L387,201z"/>
	</g>
	<g class="st0">
		<path class="st1" d="M77.2,282.7c-7.8,0-14.7-5.5-14.7-13.4c0-7.8,6.9-13.4,14.7-13.4c7.8,0,14.7,5.5,14.7,13.4
			C91.9,277.1,85,282.7,77.2,282.7z M77.2,259.6c-4,0-4,5.4-4,9.7c0,4.4,0,9.7,4,9.7c4,0,4.1-5.4,4.1-9.7
			C81.3,264.9,81.2,259.6,77.2,259.6z"/>
		<path class="st1" d="M114,282v-18.1c0-1-0.6-1.9-1.6-1.9c-0.8,0-1.7,0.7-2.6,1.5l-2.4,2.4v11.8l4.3,4.3h-18l4.3-4.3v-13.1
			l-4.2-4.2l13.6-4.5v5.9l2.2-2.2c2.4-2.3,4.8-3.8,7.7-3.8c2.9,0,6.1,2,6.1,5.9v15.9l4.3,4.3H114z"/>
		<path class="st1" d="M157.4,282v-3.2l-3.5,2.3c-1.6,1-2.9,1.5-4.7,1.5c-3.7,0-6.9-2.6-6.9-6.9c0-6.3,5.4-8.7,12.2-8.7h2.8v-4.5
			c0-1.7-1-2.7-2.7-2.7c-1.5,0-2.9,0.5-4.5,2.1l-5.6,5.6V258c3.1-1.2,8.2-2.1,11-2.1c7.9,0,11.2,2.5,11.2,7.6v14.2l4.3,4.3H157.4z
			 M157.4,270h-1.5c-3.4,0-4.8,1.2-4.8,4.8c0,1.8,0.9,2.7,1.9,2.7c0.6,0,1.3-0.3,2.1-0.9l2.4-1.5V270z"/>
		<path class="st1" d="M191.3,282v-18.1c0-1-0.6-1.9-1.6-1.9c-0.8,0-1.7,0.7-2.6,1.5l-2.4,2.4v11.8l4.3,4.3h-18l4.3-4.3v-13.1
			l-4.2-4.2l13.6-4.5v5.9l2.2-2.2c2.4-2.3,4.8-3.8,7.7-3.8c2.9,0,6.1,2,6.1,5.9v15.9l4.3,4.3H191.3z"/>
		<path class="st1" d="M230.2,260.9l-11.7,26.9l4.2,4.3h-14.6l5.6-4.3l2.5-5.7l-9.7-21.2l-4.3-4.3h18.3l-4.2,4.2l4.7,10.5l4.5-10.5
			l-4.2-4.2h13.3L230.2,260.9z"/>
		<path class="st1" d="M259.5,260.5v17.4c2.2,0.4,3.6-0.3,5.3-1.8l2.2,2.2c-2.1,2.9-4.9,4.2-7.8,4.2c-5.7,0-9.2-3-9.2-8.5v-11.3
			h-4.6l14-14v7.8h7.3v3.9H259.5z"/>
		<path class="st1" d="M279.7,269.8v1.5c0,5.7,2.6,7.2,5.4,7.2c2.9,0,5.1-1.4,7.2-3.4l2.5,2.6c-3.5,3.4-7.6,5-12.1,5
			c-7.8,0-13.7-6-13.7-13.4c0-7.5,5.8-13.4,14-13.4c7.4,0,14,6.2,12,13.9H279.7z M279.7,265.9h5.7c1.2-1.9,0.5-6.1-2.4-6.1
			C280.9,259.8,279.7,261.8,279.7,265.9z"/>
		<path class="st1" d="M308.6,282.7c-1.3,0-2.9-0.2-4-0.5l-7.3-1.8l4.1-6.9l3.6,3.6c0.9,0.9,2.2,1.9,3.6,1.9c1.8,0,2.6-1,2.6-2.3
			c0-0.8-0.6-1.4-1.4-1.8L303,271c-2.5-1.4-4.5-4-4.5-6.9c0-5.9,5.1-8.2,9.7-8.2c1.3,0,2.7,0.2,3.9,0.5l6.8,1.8l-3.6,6.2l-3-3
			c-1.2-1.2-2.7-1.9-3.6-1.9c-1.7,0-2.4,0.7-2.4,1.8c0,0.8,0.6,1.2,1.4,1.7l6.5,3.8c2.9,1.6,4.6,3.8,4.6,7.2
			C318.8,278.6,315.9,282.7,308.6,282.7z"/>
		<path class="st1" d="M333.3,260.5v17.4c2.2,0.4,3.6-0.3,5.3-1.8l2.2,2.2c-2.1,2.9-4.9,4.2-7.8,4.2c-5.7,0-9.2-3-9.2-8.5v-11.3
			h-4.6l14-14v7.8h7.3v3.9H333.3z"/>
		<path class="st1" d="M376.8,282v-3.4l-8.6-8.6v7.7l4.3,4.3h-18l4.3-4.3v-25.3l-4.2-4.2l13.6-4.2V269l9-9l-3.5-3.5h14.8L377,268
			l14,14H376.8z"/>
		<path class="st1" d="M390.5,282l4.3-4.3v-13.1l-4.2-4.2l13.6-4.5v21.8l4.3,4.3H390.5z M399.2,254.2c-2.6,0-4.7-2.1-4.7-4.7
			c0-2.6,2.1-4.7,4.7-4.7s4.7,2.1,4.7,4.7C403.9,252.1,401.8,254.2,399.2,254.2z"/>
		<path class="st1" d="M422,260.5v17.4c2.2,0.4,3.6-0.3,5.3-1.8l2.2,2.2c-2.1,2.9-4.9,4.2-7.8,4.2c-5.7,0-9.2-3-9.2-8.5v-11.3H408
			l14-14v7.8h7.3v3.9H422z"/>
	</g>
	<g class="st0">
		<path class="st1" d="M99.9,309.5v13.3c0,1.6,0.3,2.9,0.9,3.9c0.9,1.6,2.4,2.3,4.4,2.3c2.5,0,4.2-0.8,5.1-2.5
			c0.5-0.9,0.7-2.2,0.7-3.7v-13.3h2.9v12.1c0,2.6-0.4,4.7-1.1,6.1c-1.3,2.6-3.8,3.9-7.4,3.9c-3.6,0-6.1-1.3-7.4-3.9
			c-0.7-1.4-1.1-3.5-1.1-6.1v-12.1H99.9z"/>
		<path class="st1" d="M119.7,326.1c0.1,0.9,0.3,1.6,0.7,2c0.7,0.8,1.9,1.3,3.5,1.3c1,0,1.9-0.2,2.6-0.6c0.8-0.4,1.1-1.1,1.1-2
			c0-0.7-0.3-1.2-0.9-1.5c-0.4-0.2-1.2-0.5-2.3-0.7l-2.1-0.5c-1.4-0.3-2.4-0.7-3-1.1c-1.2-0.7-1.7-1.7-1.7-3c0-1.5,0.5-2.7,1.6-3.6
			s2.5-1.4,4.4-1.4c2.4,0,4.1,0.7,5.2,2.1c0.7,0.9,1,1.8,1,2.8h-2.5c-0.1-0.6-0.3-1.1-0.6-1.6c-0.6-0.7-1.7-1-3.2-1
			c-1,0-1.8,0.2-2.3,0.6c-0.5,0.4-0.8,0.9-0.8,1.5c0,0.7,0.3,1.2,1,1.6c0.4,0.2,1,0.5,1.8,0.6l1.8,0.4c1.9,0.5,3.2,0.9,3.9,1.3
			c1,0.7,1.5,1.7,1.5,3.2c0,1.4-0.5,2.6-1.6,3.6c-1.1,1-2.7,1.5-4.9,1.5c-2.4,0-4-0.5-5-1.6c-1-1.1-1.5-2.4-1.6-3.9H119.7z"/>
		<path class="st1" d="M142.8,315.7c1,0.5,1.8,1.2,2.4,2c0.5,0.8,0.9,1.7,1,2.8c0.2,0.7,0.2,1.9,0.2,3.5H135c0,1.6,0.4,2.9,1.1,3.8
			c0.7,1,1.8,1.4,3.2,1.4c1.4,0,2.5-0.5,3.3-1.4c0.5-0.5,0.8-1.1,1-1.8h2.6c-0.1,0.6-0.3,1.2-0.7,1.9c-0.4,0.7-0.8,1.3-1.3,1.7
			c-0.8,0.8-1.8,1.3-3,1.6c-0.6,0.2-1.3,0.2-2.1,0.2c-1.9,0-3.6-0.7-4.9-2.1c-1.3-1.4-2-3.4-2-6c0-2.5,0.7-4.6,2-6.1
			s3.1-2.4,5.3-2.4C140.7,315,141.8,315.2,142.8,315.7z M143.7,321.9c-0.1-1.1-0.4-2.1-0.7-2.7c-0.7-1.3-1.9-1.9-3.6-1.9
			c-1.2,0-2.2,0.4-3,1.3c-0.8,0.9-1.2,2-1.3,3.3H143.7z"/>
		<path class="st1" d="M168.5,316.1c1.1,0.9,1.8,2.3,2,4.4h-2.6c-0.2-1-0.5-1.8-1.1-2.4s-1.5-1-2.7-1c-1.7,0-2.9,0.8-3.6,2.5
			c-0.5,1.1-0.7,2.4-0.7,3.9c0,1.6,0.3,2.9,1,4s1.7,1.6,3.1,1.6c1.1,0,2-0.3,2.6-1c0.6-0.7,1.1-1.6,1.3-2.7h2.6
			c-0.3,2.1-1,3.6-2.2,4.6s-2.7,1.4-4.5,1.4c-2.1,0-3.7-0.7-4.9-2.2c-1.2-1.5-1.8-3.4-1.8-5.6c0-2.8,0.7-4.9,2-6.4s3-2.3,5.1-2.3
			C165.9,314.9,167.4,315.3,168.5,316.1z"/>
		<path class="st1" d="M184.5,316.9c1.4,1.3,2.1,3.3,2.1,5.9c0,2.5-0.6,4.6-1.8,6.3c-1.2,1.6-3.1,2.5-5.7,2.5
			c-2.1,0-3.8-0.7-5.1-2.2c-1.3-1.5-1.9-3.4-1.9-5.9c0-2.6,0.7-4.7,2-6.3s3.1-2.3,5.4-2.3C181.4,314.9,183.1,315.5,184.5,316.9z
			 M182.9,327.3c0.6-1.3,1-2.8,1-4.4c0-1.5-0.2-2.7-0.7-3.6c-0.7-1.4-2-2.2-3.8-2.2c-1.6,0-2.8,0.6-3.5,1.8
			c-0.7,1.2-1.1,2.7-1.1,4.4c0,1.7,0.4,3.1,1.1,4.2c0.7,1.1,1.9,1.7,3.4,1.7C181,329.3,182.2,328.6,182.9,327.3z"/>
		<path class="st1" d="M198.4,315.8c0.5,0.3,1,0.8,1.6,1.5v-7.9h2.5V331h-2.4v-2.2c-0.6,1-1.3,1.7-2.2,2.1c-0.8,0.4-1.8,0.6-2.9,0.6
			c-1.7,0-3.2-0.7-4.5-2.2c-1.3-1.5-1.9-3.4-1.9-5.9c0-2.3,0.6-4.3,1.7-5.9c1.2-1.7,2.8-2.5,5-2.5
			C196.6,315,197.6,315.3,198.4,315.8z M192.6,327.6c0.7,1.1,1.8,1.7,3.4,1.7c1.2,0,2.2-0.5,3-1.6c0.8-1,1.2-2.6,1.2-4.5
			c0-2-0.4-3.5-1.2-4.4c-0.8-1-1.8-1.4-3-1.4c-1.3,0-2.4,0.5-3.2,1.5c-0.8,1-1.2,2.5-1.2,4.5C191.5,325,191.8,326.4,192.6,327.6z"/>
		<path class="st1" d="M216.2,315.7c1,0.5,1.8,1.2,2.4,2c0.5,0.8,0.9,1.7,1,2.8c0.2,0.7,0.2,1.9,0.2,3.5h-11.4
			c0,1.6,0.4,2.9,1.1,3.8c0.7,1,1.8,1.4,3.2,1.4c1.4,0,2.5-0.5,3.3-1.4c0.5-0.5,0.8-1.1,1-1.8h2.6c-0.1,0.6-0.3,1.2-0.7,1.9
			c-0.4,0.7-0.8,1.3-1.3,1.7c-0.8,0.8-1.8,1.3-3,1.6c-0.6,0.2-1.3,0.2-2.1,0.2c-1.9,0-3.6-0.7-4.9-2.1c-1.3-1.4-2-3.4-2-6
			c0-2.5,0.7-4.6,2-6.1s3.1-2.4,5.3-2.4C214.1,315,215.2,315.2,216.2,315.7z M217.1,321.9c-0.1-1.1-0.4-2.1-0.7-2.7
			c-0.7-1.3-1.9-1.9-3.6-1.9c-1.2,0-2.2,0.4-3,1.3c-0.8,0.9-1.2,2-1.3,3.3H217.1z"/>
		<path class="st1" d="M224.6,315.5h3.1v3.2h-3.1V315.5z M224.6,327.8h3.1v3.2h-3.1V327.8z"/>
	</g>
	<g class="st0">
		<path class="st2" d="M256.3,311.7c0.7,0.9,1,2,1,3.3c0,1.3-0.3,2.4-1,3.2c-0.4,0.4-0.9,0.9-1.6,1.2c1.1,0.4,1.9,1,2.5,1.9
			c0.6,0.9,0.8,1.9,0.8,3.2c0,1.3-0.3,2.4-1,3.4c-0.4,0.7-0.9,1.2-1.5,1.7c-0.7,0.5-1.5,0.9-2.4,1.1s-2,0.3-3.1,0.3h-9.7v-21.6h10.4
			C253.3,309.4,255.2,310.2,256.3,311.7z M244.6,313.2v4.8h5.2c0.9,0,1.7-0.2,2.3-0.5c0.6-0.4,0.9-1,0.9-1.9c0-1-0.4-1.7-1.2-2
			c-0.7-0.2-1.5-0.3-2.6-0.3H244.6z M244.6,321.5v5.8h5.2c0.9,0,1.7-0.1,2.2-0.4c0.9-0.5,1.4-1.4,1.4-2.7c0-1.1-0.5-1.9-1.4-2.3
			c-0.5-0.2-1.2-0.4-2.2-0.4H244.6z"/>
		<path class="st2" d="M278.5,329.1c-1.6,1.7-4,2.5-7.1,2.5s-5.4-0.8-7.1-2.5c-2.2-2.1-3.3-5-3.3-8.9c0-4,1.1-6.9,3.3-8.9
			c1.6-1.7,4-2.5,7.1-2.5s5.4,0.8,7.1,2.5c2.2,2,3.3,5,3.3,8.9C281.8,324.1,280.7,327,278.5,329.1z M275.7,325.8
			c1-1.3,1.6-3.2,1.6-5.6c0-2.4-0.5-4.3-1.6-5.6c-1-1.3-2.5-2-4.3-2s-3.2,0.7-4.3,2s-1.6,3.2-1.6,5.6s0.5,4.3,1.6,5.6s2.5,2,4.3,2
			S274.6,327.1,275.7,325.8z"/>
		<path class="st2" d="M299.7,316.1c-0.3-1.5-1.2-2.5-2.5-3.1c-0.7-0.3-1.6-0.5-2.5-0.5c-1.7,0-3.2,0.7-4.3,2
			c-1.1,1.3-1.7,3.3-1.7,5.9c0,2.7,0.6,4.5,1.8,5.6s2.6,1.7,4.1,1.7c1.5,0,2.8-0.4,3.7-1.3c1-0.9,1.6-2,1.8-3.4h-5v-3.6h9V331h-3
			l-0.5-2.7c-0.9,1-1.7,1.7-2.3,2.2c-1.2,0.7-2.7,1.1-4.4,1.1c-2.9,0-5.2-1-7-3c-1.9-2-2.9-4.7-2.9-8.2c0-3.5,1-6.3,2.9-8.4
			c1.9-2.1,4.5-3.2,7.6-3.2c2.7,0,4.9,0.7,6.6,2.1c1.7,1.4,2.6,3.1,2.9,5.2H299.7z"/>
		<path class="st2" d="M325.2,329.1c-1.6,1.7-4,2.5-7.1,2.5s-5.4-0.8-7.1-2.5c-2.2-2.1-3.3-5-3.3-8.9c0-4,1.1-6.9,3.3-8.9
			c1.6-1.7,4-2.5,7.1-2.5s5.4,0.8,7.1,2.5c2.2,2,3.3,5,3.3,8.9C328.4,324.1,327.3,327,325.2,329.1z M322.3,325.8
			c1-1.3,1.6-3.2,1.6-5.6c0-2.4-0.5-4.3-1.6-5.6c-1-1.3-2.5-2-4.3-2s-3.2,0.7-4.3,2s-1.6,3.2-1.6,5.6s0.5,4.3,1.6,5.6s2.5,2,4.3,2
			S321.3,327.1,322.3,325.8z"/>
		<path class="st2" d="M331.5,326.8c0.6-1.4,2-2.9,4.2-4.5c1.9-1.4,3.2-2.4,3.7-3c0.9-0.9,1.3-1.9,1.3-3c0-0.9-0.2-1.6-0.7-2.2
			s-1.2-0.9-2.1-0.9c-1.3,0-2.1,0.5-2.6,1.4c-0.3,0.5-0.4,1.4-0.5,2.6h-4.1c0.1-1.8,0.4-3.3,1-4.4c1.1-2.1,3.1-3.2,5.9-3.2
			c2.2,0,4,0.6,5.4,1.9c1.3,1.2,2,2.9,2,4.9c0,1.6-0.5,3-1.4,4.2c-0.6,0.8-1.6,1.7-3,2.7l-1.7,1.2c-1,0.7-1.8,1.3-2.1,1.6
			s-0.7,0.7-1,1.2h9.3v3.7h-14.5C330.6,329.5,330.9,328.1,331.5,326.8z"/>
		<path class="st2" d="M360.2,312.5c1.1,1.9,1.6,4.6,1.6,8.1s-0.5,6.2-1.6,8.1s-3,2.8-5.7,2.8s-4.6-0.9-5.7-2.8s-1.6-4.6-1.6-8.1
			s0.5-6.2,1.6-8.1s3-2.9,5.7-2.9S359.1,310.6,360.2,312.5z M352.1,326.2c0.4,1.3,1.2,1.9,2.5,1.9s2.1-0.6,2.4-1.9
			c0.4-1.3,0.6-3.2,0.6-5.6c0-2.6-0.2-4.5-0.6-5.7s-1.2-1.8-2.4-1.8s-2.1,0.6-2.5,1.8s-0.6,3.1-0.6,5.7
			C351.5,323,351.7,324.9,352.1,326.2z"/>
	</g>
</g>
<g id="Group_102" transform="translate(0 -3)">
	<g class="st0">
		<path class="st1" d="M94.4,452.5h-8.2v9.9h5.5l4.6-4.5v13.5l-4.6-4.5h-5.5V479l4.6,4.5H72.2l4.6-4.5v-26.3l-4.6-4.6h27.7v10
			L94.4,452.5z"/>
		<path class="st1" d="M125.6,483.5l-7.4-15.5h-3.5v11l4.6,4.5h-18.5l4.6-4.5v-26.3l-4.6-4.6H118c7,0,15.2,2.2,15.2,10
			c0,4-2.7,6.8-6.3,8.2l7,12.7l4.6,4.5H125.6z M118,452.5h-3.3v11.1h3.3c2.9,0,5.1-2.2,5.1-5.5C123,454.6,120.8,452.5,118,452.5z"/>
		<path class="st1" d="M137,483.5l4.6-4.5v-26.3l-4.6-4.6h27.7v10l-5.6-5.6h-8.2v9.9h5.5l4.6-4.5v13.5l-4.6-4.5h-5.5v12.4h8.2
			l5.6-5.5v10H137z"/>
		<path class="st1" d="M166.5,483.5l4.6-4.5v-26.3l-4.6-4.6h27.7v10l-5.6-5.6h-8.2v9.9h5.5l4.6-4.5v13.5l-4.6-4.5h-5.5v12.4h8.2
			l5.6-5.5v10H166.5z"/>
		<path class="st1" d="M233,452.5h-4.5V479l4.6,4.5h-18.5l4.6-4.5v-26.5h-4.5l-5.6,5.6v-10h29.4v10L233,452.5z"/>
		<path class="st1" d="M238.1,471.1V466H254v5.1H238.1z"/>
		<path class="st1" d="M268.7,484.3c-1.5,0-3.1-0.1-4.6-0.4l-7.3-1.3l4.1-8l3.6,4.5c1.1,1.2,2.6,1.6,4,1.6c2.6,0,4.8-1.7,4.8-4.7
			c0-2-1.1-3-2.6-4l-6.7-4.7c-3.2-2.3-5.7-5.5-5.7-9.5c0-4.8,3.1-10.6,11.7-10.6c1.7,0,3.4,0.2,4.9,0.5l7.1,1.3l-4.1,7.6l-3.4-4.2
			c-0.9-0.8-1.8-1.4-3.3-1.4c-1.8,0-4,0.9-4,4c0,1.4,0.8,2.5,2,3.3l7.4,5.1c1.7,1.1,5.3,4,5.3,8.7
			C281.8,479.1,277.8,484.3,268.7,484.3z"/>
		<path class="st1" d="M302.3,483.5l4.6-4.5v-12.2h-9.4V479l4.6,4.5h-18.5l4.6-4.5v-26.3l-4.6-4.6H302l-4.6,4.6v9.7h9.4v-9.7
			l-4.6-4.6h18.5l-4.6,4.6V479l4.6,4.5H302.3z"/>
		<path class="st1" d="M321.5,483.5l4.6-4.5v-26.3l-4.6-4.6H340l-4.6,4.6V479l4.6,4.5H321.5z"/>
		<path class="st1" d="M365.6,483.5l-7.4-15.5h-3.5v11l4.6,4.5h-18.5l4.6-4.5v-26.3l-4.6-4.6H358c7,0,15.2,2.2,15.2,10
			c0,4-2.7,6.8-6.3,8.2l7,12.7l4.6,4.5H365.6z M358,452.5h-3.3v11.1h3.3c2.9,0,5.1-2.2,5.1-5.5C363.1,454.6,360.9,452.5,358,452.5z"
			/>
		<path class="st1" d="M399.2,452.5h-4.5V479l4.6,4.5h-18.5l4.6-4.5v-26.5h-4.5l-5.6,5.6v-10h29.4v10L399.2,452.5z"/>
	</g>
	<g class="st0">
		<path class="st1" d="M80.4,512.4l-9,21.1h-5.8L59,518l-6.6,15.5h-5.8l-9-21.1l-4.3-4.3h18.1l-4.2,4.2l5,11.8l4.9-11.8l-4.2-4.2
			h17.7l-4.3,4.2l5,11.8l4.9-11.8l-4.3-4.2h13L80.4,512.4z"/>
		<path class="st1" d="M83.5,533.5l4.3-4.3v-13.1l-4.2-4.2l13.6-4.5v21.8l4.3,4.3H83.5z M92.2,505.7c-2.6,0-4.7-2.1-4.7-4.7
			c0-2.6,2.1-4.7,4.7-4.7s4.7,2.1,4.7,4.7C96.9,503.6,94.8,505.7,92.2,505.7z"/>
		<path class="st1" d="M115,512v17.4c2.2,0.4,3.6-0.3,5.3-1.8l2.2,2.2c-2.1,2.9-4.9,4.2-7.8,4.2c-5.7,0-9.2-3-9.2-8.5v-11.3H101
			l14-14v7.8h7.3v3.9H115z"/>
		<path class="st1" d="M143.2,533.5v-18.1c0-1-0.6-1.9-1.6-1.9c-0.8,0-1.7,0.7-2.6,1.5l-2.4,2.4v11.8l4.3,4.3h-18l4.3-4.3v-25.3
			l-4.2-4.2l13.6-4.2v17.9l2.2-2.2c2.4-2.3,4.8-3.8,7.7-3.8c2.9,0,6.1,2,6.1,5.9v15.9l4.3,4.3H143.2z"/>
		<path class="st1" d="M186.6,533.5v-3.2l-3.5,2.3c-1.6,1-2.9,1.5-4.7,1.5c-3.7,0-6.9-2.6-6.9-6.9c0-6.3,5.4-8.7,12.2-8.7h2.8V514
			c0-1.7-1-2.7-2.7-2.7c-1.5,0-2.9,0.5-4.5,2.1l-5.6,5.6v-9.5c3-1.2,8.2-2.1,11-2.1c7.9,0,11.2,2.5,11.2,7.6v14.2l4.3,4.3H186.6z
			 M186.6,521.5H185c-3.4,0-4.8,1.2-4.8,4.8c0,1.8,0.8,2.7,1.9,2.7c0.6,0,1.3-0.3,2.1-0.9l2.4-1.5V521.5z"/>
		<path class="st1" d="M220.5,533.5v-18.1c0-1-0.6-1.9-1.6-1.9c-0.8,0-1.7,0.7-2.6,1.5l-2.4,2.4v11.8l4.3,4.3h-18l4.3-4.3v-13.1
			l-4.2-4.2l13.6-4.5v5.9l2.2-2.2c2.4-2.3,4.8-3.8,7.7-3.8c2.9,0,6.1,2,6.1,5.9v15.9l4.3,4.3H220.5z"/>
		<path class="st1" d="M259.4,512.4l-11.7,26.9l4.2,4.3h-14.6l5.6-4.3l2.5-5.7l-9.7-21.2l-4.3-4.3h18.3l-4.2,4.2l4.7,10.5l4.5-10.5
			l-4.2-4.2h13.3L259.4,512.4z"/>
		<path class="st1" d="M288.7,512v17.4c2.2,0.4,3.6-0.3,5.3-1.8l2.2,2.2c-2.1,2.9-4.9,4.2-7.8,4.2c-5.7,0-9.2-3-9.2-8.5v-11.3h-4.6
			l14-14v7.8h7.3v3.9H288.7z"/>
		<path class="st1" d="M308.9,521.3v1.5c0,5.7,2.6,7.2,5.4,7.2c2.9,0,5.1-1.4,7.2-3.4l2.5,2.6c-3.5,3.4-7.6,5-12.1,5
			c-7.8,0-13.7-6-13.7-13.4c0-7.5,5.8-13.4,14-13.4c7.4,0,14,6.2,12,13.9H308.9z M308.9,517.4h5.7c1.2-1.9,0.5-6.1-2.4-6.1
			C310.1,511.3,308.9,513.3,308.9,517.4z"/>
		<path class="st1" d="M337.8,534.2c-1.3,0-2.9-0.2-4-0.5l-7.3-1.8l4.1-6.9l3.6,3.6c0.9,0.9,2.2,1.9,3.6,1.9c1.8,0,2.6-1,2.6-2.3
			c0-0.8-0.6-1.4-1.4-1.8l-6.7-3.8c-2.5-1.4-4.5-4-4.5-6.9c0-5.9,5.1-8.2,9.7-8.2c1.3,0,2.7,0.2,3.9,0.5l6.8,1.8l-3.6,6.2l-3-3
			c-1.2-1.2-2.7-1.9-3.6-1.9c-1.7,0-2.4,0.7-2.4,1.8c0,0.8,0.6,1.2,1.4,1.7l6.5,3.8c2.9,1.6,4.6,3.8,4.6,7.2
			C348,530.1,345.1,534.2,337.8,534.2z"/>
		<path class="st1" d="M362.5,512v17.4c2.2,0.4,3.6-0.3,5.3-1.8l2.2,2.2c-2.1,2.9-4.9,4.2-7.8,4.2c-5.7,0-9.2-3-9.2-8.5v-11.3h-4.6
			l14-14v7.8h7.3v3.9H362.5z"/>
		<path class="st1" d="M406,533.5v-3.4l-8.6-8.6v7.7l4.3,4.3h-18l4.3-4.3v-25.3l-4.2-4.2l13.6-4.2v25.1l9-9l-3.5-3.5h14.8
			l-11.5,11.5l14,14H406z"/>
		<path class="st1" d="M419.7,533.5l4.3-4.3v-13.1l-4.2-4.2l13.6-4.5v21.8l4.3,4.3H419.7z M428.4,505.7c-2.6,0-4.7-2.1-4.7-4.7
			c0-2.6,2.1-4.7,4.7-4.7c2.6,0,4.7,2.1,4.7,4.7C433.1,503.6,431,505.7,428.4,505.7z"/>
		<path class="st1" d="M451.2,512v17.4c2.2,0.4,3.7-0.3,5.3-1.8l2.3,2.2c-2.1,2.9-4.9,4.2-7.8,4.2c-5.7,0-9.2-3-9.2-8.5v-11.3h-4.6
			l14-14v7.8h7.2v3.9H451.2z"/>
	</g>
	<g class="st0">
		<path class="st1" d="M90,555v13.3c0,1.6,0.3,2.9,0.9,3.9c0.9,1.6,2.4,2.3,4.4,2.3c2.5,0,4.2-0.8,5.1-2.5c0.5-0.9,0.7-2.2,0.7-3.7
			V555h2.9v12.1c0,2.6-0.4,4.7-1.1,6.1c-1.3,2.6-3.8,3.9-7.4,3.9c-3.6,0-6.1-1.3-7.4-3.9c-0.7-1.4-1.1-3.5-1.1-6.1V555H90z"/>
		<path class="st1" d="M109.7,571.6c0.1,0.9,0.3,1.6,0.7,2c0.7,0.8,1.9,1.3,3.5,1.3c1,0,1.9-0.2,2.6-0.6c0.8-0.4,1.1-1.1,1.1-2
			c0-0.7-0.3-1.2-0.9-1.5c-0.4-0.2-1.2-0.5-2.3-0.7l-2.1-0.5c-1.4-0.3-2.4-0.7-3-1.1c-1.2-0.7-1.7-1.7-1.7-3c0-1.5,0.5-2.7,1.6-3.6
			s2.5-1.4,4.4-1.4c2.4,0,4.1,0.7,5.2,2.1c0.7,0.9,1,1.8,1,2.8h-2.5c-0.1-0.6-0.3-1.1-0.6-1.6c-0.6-0.7-1.7-1-3.2-1
			c-1,0-1.8,0.2-2.3,0.6c-0.5,0.4-0.8,0.9-0.8,1.5c0,0.7,0.3,1.2,1,1.6c0.4,0.2,1,0.5,1.8,0.6l1.8,0.4c1.9,0.5,3.2,0.9,3.9,1.3
			c1,0.7,1.5,1.7,1.5,3.2c0,1.4-0.5,2.6-1.6,3.6s-2.7,1.5-4.9,1.5c-2.4,0-4-0.5-5-1.6c-1-1.1-1.5-2.4-1.6-3.9H109.7z"/>
		<path class="st1" d="M132.9,561.2c1,0.5,1.8,1.2,2.4,2c0.5,0.8,0.9,1.7,1,2.8c0.2,0.7,0.2,1.9,0.2,3.5h-11.4
			c0,1.6,0.4,2.9,1.1,3.8c0.7,1,1.8,1.4,3.2,1.4c1.4,0,2.5-0.5,3.3-1.4c0.5-0.5,0.8-1.1,1-1.8h2.6c-0.1,0.6-0.3,1.2-0.7,1.9
			c-0.4,0.7-0.8,1.3-1.3,1.7c-0.8,0.8-1.8,1.3-3,1.6c-0.6,0.2-1.3,0.2-2.1,0.2c-1.9,0-3.6-0.7-4.9-2.1c-1.3-1.4-2-3.4-2-6
			c0-2.5,0.7-4.6,2-6.1s3.1-2.4,5.3-2.4C130.8,560.5,131.8,560.7,132.9,561.2z M133.8,567.4c-0.1-1.1-0.4-2.1-0.7-2.7
			c-0.7-1.3-1.9-1.9-3.6-1.9c-1.2,0-2.2,0.4-3,1.3c-0.8,0.9-1.2,2-1.3,3.3H133.8z"/>
		<path class="st1" d="M158.6,561.6c1.1,0.9,1.8,2.3,2,4.4H158c-0.2-1-0.5-1.8-1.1-2.4s-1.5-1-2.7-1c-1.7,0-2.9,0.8-3.6,2.5
			c-0.5,1.1-0.7,2.4-0.7,3.9c0,1.6,0.3,2.9,1,4s1.7,1.6,3.1,1.6c1.1,0,2-0.3,2.6-1c0.6-0.7,1.1-1.6,1.3-2.7h2.6
			c-0.3,2.1-1,3.6-2.2,4.6s-2.7,1.4-4.5,1.4c-2.1,0-3.7-0.7-4.9-2.2c-1.2-1.5-1.8-3.4-1.8-5.6c0-2.8,0.7-4.9,2-6.4s3-2.3,5.1-2.3
			C156,560.4,157.5,560.8,158.6,561.6z"/>
		<path class="st1" d="M174.6,562.4c1.4,1.3,2.1,3.3,2.1,5.9c0,2.5-0.6,4.6-1.8,6.3c-1.2,1.6-3.1,2.5-5.7,2.5
			c-2.1,0-3.8-0.7-5.1-2.2c-1.3-1.5-1.9-3.4-1.9-5.9c0-2.6,0.7-4.7,2-6.3s3.1-2.3,5.4-2.3C171.5,560.4,173.2,561,174.6,562.4z
			 M172.9,572.8c0.6-1.3,1-2.8,1-4.4c0-1.5-0.2-2.7-0.7-3.6c-0.7-1.4-2-2.2-3.8-2.2c-1.6,0-2.8,0.6-3.5,1.8
			c-0.7,1.2-1.1,2.7-1.1,4.4c0,1.7,0.4,3.1,1.1,4.2c0.7,1.1,1.9,1.7,3.4,1.7C171.1,574.8,172.3,574.1,172.9,572.8z"/>
		<path class="st1" d="M188.5,561.3c0.5,0.3,1,0.8,1.6,1.5v-7.9h2.5v21.6h-2.4v-2.2c-0.6,1-1.3,1.7-2.2,2.1
			c-0.8,0.4-1.8,0.6-2.9,0.6c-1.7,0-3.2-0.7-4.5-2.2c-1.3-1.5-1.9-3.4-1.9-5.9c0-2.3,0.6-4.3,1.7-5.9c1.2-1.7,2.8-2.5,5-2.5
			C186.7,560.5,187.7,560.8,188.5,561.3z M182.6,573.1c0.7,1.1,1.8,1.7,3.4,1.7c1.2,0,2.2-0.5,3-1.6c0.8-1,1.2-2.6,1.2-4.5
			c0-2-0.4-3.5-1.2-4.4c-0.8-1-1.8-1.4-3-1.4c-1.3,0-2.4,0.5-3.2,1.5c-0.8,1-1.2,2.5-1.2,4.5C181.6,570.5,181.9,571.9,182.6,573.1z"
			/>
		<path class="st1" d="M206.3,561.2c1,0.5,1.8,1.2,2.4,2c0.5,0.8,0.9,1.7,1,2.8c0.2,0.7,0.2,1.9,0.2,3.5h-11.4
			c0,1.6,0.4,2.9,1.1,3.8c0.7,1,1.8,1.4,3.2,1.4c1.4,0,2.5-0.5,3.3-1.4c0.5-0.5,0.8-1.1,1-1.8h2.6c-0.1,0.6-0.3,1.2-0.7,1.9
			c-0.4,0.7-0.8,1.3-1.3,1.7c-0.8,0.8-1.8,1.3-3,1.6c-0.6,0.2-1.3,0.2-2.1,0.2c-1.9,0-3.6-0.7-4.9-2.1c-1.3-1.4-2-3.4-2-6
			c0-2.5,0.7-4.6,2-6.1s3.1-2.4,5.3-2.4C204.1,560.5,205.2,560.7,206.3,561.2z M207.2,567.4c-0.1-1.1-0.4-2.1-0.7-2.7
			c-0.7-1.3-1.9-1.9-3.6-1.9c-1.2,0-2.2,0.4-3,1.3c-0.8,0.9-1.2,2-1.3,3.3H207.2z"/>
		<path class="st1" d="M214.6,561h3.1v3.2h-3.1V561z M214.6,573.3h3.1v3.2h-3.1V573.3z"/>
	</g>
	<g class="st0">
		<path class="st2" d="M230.3,554.9h15.4v3.8h-10.9v5h9.6v3.8h-9.6v9.1h-4.5V554.9z"/>
		<path class="st2" d="M262.4,555.5c0.8,0.3,1.5,0.8,2,1.5c0.5,0.5,0.8,1.2,1.1,1.8s0.4,1.4,0.4,2.3c0,1-0.3,2-0.8,3
			s-1.4,1.7-2.6,2.1c1,0.4,1.7,1,2.1,1.7s0.6,1.9,0.6,3.4v1.5c0,1,0,1.7,0.1,2c0.1,0.6,0.4,1,0.8,1.2v0.5h-5
			c-0.1-0.5-0.2-0.9-0.3-1.2c-0.1-0.6-0.2-1.2-0.2-1.9l0-2c0-1.4-0.3-2.3-0.7-2.8c-0.5-0.5-1.3-0.7-2.6-0.7h-4.4v8.5h-4.4v-21.6H259
			C260.5,554.9,261.6,555.1,262.4,555.5z M253.1,558.7v5.8h4.9c1,0,1.7-0.1,2.2-0.4c0.9-0.4,1.3-1.2,1.3-2.4c0-1.3-0.4-2.2-1.2-2.6
			c-0.5-0.3-1.2-0.4-2.1-0.4H253.1z"/>
		<path class="st2" d="M286.2,558.7h-11.4v4.6h10.5v3.8h-10.5v5.6h12v3.9h-16.4v-21.6h15.8V558.7z"/>
		<path class="st2" d="M306.2,558.7h-11.4v4.6h10.5v3.8h-10.5v5.6h12v3.9h-16.4v-21.6h15.8V558.7z"/>
		<path class="st2" d="M326,554.9v3.8h-6.5v17.8H315v-17.8h-6.5v-3.8H326z"/>
		<path class="st2" d="M344.6,558.7h-11.4v4.6h10.5v3.8h-10.5v5.6h12v3.9h-16.4v-21.6h15.8V558.7z"/>
		<path class="st2" d="M364.6,558.7h-11.4v4.6h10.5v3.8h-10.5v5.6h12v3.9h-16.4v-21.6h15.8V558.7z"/>
	</g>
</g>
<g class="st0">
	<path class="st1" d="M85.3,1.5h14.9v2.6h-12v6.5h10.6v2.6H88.2V23h-2.9V1.5z"/>
	<path class="st1" d="M109.6,1.5h15.6v2.6h-12.8v6.5h11.8v2.5h-11.8v7.3h13V23h-15.8V1.5z"/>
	<path class="st1" d="M135.2,1.5h9.3c2.5,0,4.3,0.8,5.4,2.3c0.6,0.9,0.9,1.9,0.9,3.1c0,1.4-0.4,2.5-1.2,3.3c-0.4,0.5-1,0.9-1.7,1.3
		c1.1,0.4,1.9,0.9,2.5,1.4c1,0.9,1.5,2.2,1.5,3.9c0,1.4-0.4,2.6-1.3,3.8c-1.3,1.7-3.4,2.5-6.2,2.5h-9.2V1.5z M143.5,10.6
		c1.2,0,2.2-0.2,2.9-0.5c1.1-0.5,1.6-1.5,1.6-2.9c0-1.4-0.6-2.4-1.7-2.8c-0.7-0.3-1.6-0.4-2.9-0.4h-5.3v6.7H143.5z M144.4,20.5
		c1.8,0,3.1-0.5,3.9-1.6c0.5-0.7,0.7-1.4,0.7-2.4c0-1.6-0.7-2.6-2.1-3.2c-0.7-0.3-1.7-0.5-3-0.5h-5.8v7.6H144.4z"/>
	<path class="st1" d="M161.7,1.5h9.8c1.6,0,2.9,0.2,4,0.7c2,0.9,3,2.6,3,5.1c0,1.3-0.3,2.3-0.8,3.2s-1.3,1.5-2.2,2
		c0.8,0.3,1.5,0.8,1.9,1.3s0.7,1.5,0.7,2.7l0.1,2.9c0,0.8,0.1,1.4,0.2,1.8c0.2,0.7,0.5,1.1,0.9,1.3V23h-3.6
		c-0.1-0.2-0.2-0.4-0.2-0.7s-0.1-0.9-0.1-1.7l-0.2-3.6c-0.1-1.4-0.6-2.3-1.5-2.8c-0.5-0.3-1.4-0.4-2.5-0.4h-6.4V23h-2.9V1.5z
		 M171.1,11.3c1.3,0,2.4-0.3,3.2-0.8s1.2-1.5,1.2-3c0-1.5-0.5-2.6-1.6-3.1c-0.6-0.3-1.4-0.4-2.3-0.4h-6.9v7.4H171.1z"/>
	<path class="st1" d="M192.1,1.5v13.3c0,1.6,0.3,2.9,0.9,3.9c0.9,1.6,2.4,2.3,4.4,2.3c2.5,0,4.2-0.8,5.1-2.5
		c0.5-0.9,0.7-2.2,0.7-3.7V1.5h2.9v12.1c0,2.6-0.4,4.7-1.1,6.1c-1.3,2.6-3.8,3.9-7.4,3.9c-3.6,0-6.1-1.3-7.4-3.9
		c-0.7-1.4-1.1-3.5-1.1-6.1V1.5H192.1z"/>
	<path class="st1" d="M222.9,1.5h3.3L234,23h-3.2l-2.2-6.4h-8.5l-2.3,6.4h-3L222.9,1.5z M227.7,14.2l-3.3-9.5l-3.5,9.5H227.7z"/>
	<path class="st1" d="M243,1.5h9.8c1.6,0,2.9,0.2,4,0.7c2,0.9,3,2.6,3,5.1c0,1.3-0.3,2.3-0.8,3.2s-1.3,1.5-2.2,2
		c0.8,0.3,1.5,0.8,1.9,1.3s0.7,1.5,0.7,2.7l0.1,2.9c0,0.8,0.1,1.4,0.2,1.8c0.2,0.7,0.5,1.1,0.9,1.3V23H257c-0.1-0.2-0.2-0.4-0.2-0.7
		s-0.1-0.9-0.1-1.7l-0.2-3.6c-0.1-1.4-0.6-2.3-1.5-2.8c-0.5-0.3-1.4-0.4-2.5-0.4h-6.4V23H243V1.5z M252.5,11.3
		c1.3,0,2.4-0.3,3.2-0.8s1.2-1.5,1.2-3c0-1.5-0.5-2.6-1.6-3.1c-0.6-0.3-1.4-0.4-2.3-0.4h-6.9v7.4H252.5z"/>
	<path class="st1" d="M268.1,1.5h3.4l6.2,10.3l6.2-10.3h3.4l-8.1,12.8V23h-2.9v-8.7L268.1,1.5z"/>
	<path class="st1" d="M310.2,8.1v-2c1.9-0.2,3.2-0.5,4-0.9s1.3-1.5,1.7-3.1h2.1V23h-2.8V8.1H310.2z"/>
	<path class="st1" d="M333.7,17.7c0.2,1.5,0.9,2.5,2.1,3.1c0.6,0.3,1.3,0.4,2.2,0.4c1.6,0,2.7-0.5,3.5-1.5s1.1-2.1,1.1-3.3
		c0-1.5-0.4-2.6-1.3-3.4s-2-1.2-3.2-1.2c-0.9,0-1.7,0.2-2.3,0.5s-1.2,0.8-1.7,1.5l-2.3-0.1l1.6-11.3h10.9v2.5h-8.9l-0.9,5.8
		c0.5-0.4,1-0.6,1.4-0.8c0.8-0.3,1.7-0.5,2.7-0.5c1.9,0,3.6,0.6,4.9,1.9s2,2.8,2,4.7c0,2-0.6,3.7-1.8,5.2s-3.2,2.3-5.9,2.3
		c-1.7,0-3.2-0.5-4.5-1.4c-1.3-1-2-2.4-2.2-4.4H333.7z"/>
	<path class="st1" d="M354,13.3h7.4V16H354V13.3z"/>
	<path class="st1" d="M370.8,18.3c0.6-1.3,1.9-2.6,3.8-3.6l2.8-1.6c1.3-0.7,2.1-1.4,2.7-1.9c0.8-0.8,1.2-1.7,1.2-2.8
		c0-1.2-0.4-2.2-1.1-2.9c-0.7-0.7-1.7-1.1-2.9-1.1c-1.8,0-3.1,0.7-3.8,2.1c-0.4,0.7-0.6,1.8-0.6,3.1h-2.7c0-1.8,0.4-3.3,1-4.5
		c1.1-2,3.2-3,6-3c2.4,0,4.2,0.6,5.3,1.9s1.7,2.7,1.7,4.3c0,1.7-0.6,3.1-1.8,4.3c-0.7,0.7-1.9,1.5-3.7,2.5l-2,1.1
		c-1,0.5-1.7,1-2.3,1.5c-1,0.8-1.6,1.8-1.8,2.8H384V23h-14.4C369.7,21.2,370.1,19.6,370.8,18.3z"/>
	<path class="st1" d="M394.2,10.7c-0.8-0.8-1.2-1.8-1.2-3c0-1.6,0.6-2.9,1.7-4c1.1-1.1,2.7-1.7,4.8-1.7c2,0,3.6,0.5,4.7,1.6
		s1.7,2.3,1.7,3.7c0,1.3-0.3,2.4-1,3.2c-0.4,0.5-0.9,0.9-1.7,1.3c0.9,0.4,1.6,0.9,2.1,1.4c0.9,1,1.4,2.2,1.4,3.8
		c0,1.8-0.6,3.4-1.9,4.7c-1.2,1.3-3,1.9-5.3,1.9c-2,0-3.8-0.6-5.2-1.7c-1.4-1.1-2.1-2.7-2.1-4.8c0-1.2,0.3-2.3,0.9-3.2
		c0.6-0.9,1.5-1.6,2.7-2.1C395.2,11.5,394.6,11.1,394.2,10.7z M402.7,20.2c0.8-0.7,1.2-1.6,1.2-3c0-1.4-0.4-2.4-1.2-3.1
		s-1.9-1.1-3.2-1.1c-1.3,0-2.3,0.4-3.1,1.1c-0.8,0.7-1.2,1.7-1.2,3c0,1.1,0.4,2,1.1,2.8c0.7,0.8,1.9,1.2,3.4,1.2
		C400.9,21.2,401.9,20.9,402.7,20.2z M402.3,9.8c0.7-0.7,1-1.4,1-2.3c0-0.8-0.3-1.5-0.9-2.2c-0.6-0.7-1.6-1-2.9-1
		c-1.3,0-2.2,0.3-2.7,1c-0.6,0.7-0.8,1.4-0.8,2.3c0,1,0.4,1.8,1.1,2.3c0.7,0.6,1.6,0.8,2.6,0.8C400.7,10.8,401.6,10.5,402.3,9.8z"/>
</g>
<g class="st0">
	<path class="st1" d="M240.7,358.6c1.4,1.9,2.1,4.3,2.1,7.3c0,3.2-0.8,5.9-2.4,8c-1.9,2.5-4.6,3.8-8.2,3.8c-3.3,0-5.9-1.1-7.8-3.3
		c-1.7-2.1-2.5-4.8-2.5-8c0-2.9,0.7-5.4,2.2-7.5c1.9-2.7,4.6-4,8.2-4C236,354.9,238.8,356.1,240.7,358.6z M238.1,372.3
		c1.1-1.8,1.7-4,1.7-6.4c0-2.5-0.7-4.6-2-6.1s-3.1-2.3-5.4-2.3c-2.2,0-4,0.8-5.4,2.3c-1.4,1.5-2.1,3.8-2.1,6.8c0,2.4,0.6,4.4,1.8,6
		c1.2,1.6,3.2,2.5,5.9,2.5C235.1,375,236.9,374.1,238.1,372.3z"/>
	<path class="st1" d="M252.6,355.5h9.8c1.6,0,2.9,0.2,4,0.7c2,0.9,3,2.6,3,5.1c0,1.3-0.3,2.3-0.8,3.2s-1.3,1.5-2.2,2
		c0.8,0.3,1.5,0.8,1.9,1.3s0.7,1.5,0.7,2.7l0.1,2.9c0,0.8,0.1,1.4,0.2,1.8c0.2,0.7,0.5,1.1,0.9,1.3v0.5h-3.6
		c-0.1-0.2-0.2-0.4-0.2-0.7s-0.1-0.9-0.1-1.7l-0.2-3.6c-0.1-1.4-0.6-2.3-1.5-2.8c-0.5-0.3-1.4-0.4-2.5-0.4h-6.4v9.2h-2.9V355.5z
		 M262.1,365.3c1.3,0,2.4-0.3,3.2-0.8s1.2-1.5,1.2-3c0-1.5-0.5-2.6-1.6-3.1c-0.6-0.3-1.4-0.4-2.3-0.4h-6.9v7.4H262.1z"/>
</g>
<g>
	<line id="Line_1" class="st3" x1="29" y1="373.5" x2="201" y2="373.5"/>
	<line id="Line_2" class="st3" x1="293" y1="373.5" x2="463" y2="373.5"/>
</g>
</svg>
