<svg id="WSJ" xmlns="http://www.w3.org/2000/svg" width="432.548" height="44.052" viewBox="0 0 432.548 44.052">
  <path id="Path_438" data-name="Path 438" d="M984.478,297.431c.456.153.759.3.607.912-.152,1.064-1.827.608-2.734.912-2.278.759-1.519,3.8-1.827,5.923v30.076c0,1.215-.152,2.582.76,3.038.608.911,2.429.3,3.645.456,1.827-.3,2.582-2.278,3.8-3.189.456-1.671,1.215-3.038,1.519-4.712.911-3.038.456-6.987,1.519-10.025.607-.152.759.3.912.759v16.861c.3.455-.153,1.214-.153,1.67l-1.367.3H974.3c-.609-.152-1.519,0-1.827-.608.153-1.671,2.885-.912,2.885-2.885V315.506c-.152-2.734,0-6.228,0-8.81s.76-6.076-1.063-7.442c-.76-.76-3.19.456-2.885-1.216a1.074,1.074,0,0,1,.76-.609Z" transform="translate(-913.429 -297.429)" fill="#877b8d" fill-rule="evenodd"/>
  <path id="Path_439" data-name="Path 439" d="M1050.466,299.71c.607.456,1.367,0,1.67-.153.608-.607,0-2.126,1.216-1.973l.759.152v15.948c-.3.152,0,1.063-.456,1.063h-.912c-.3-5.77-.758-11.7-5.011-14.425a5.126,5.126,0,0,0-2.582-.76c-1.827.153-2.885,1.52-3.646,2.885-1.064,1.671-.759,4.86.152,6.38,2.278,3.189,5.924,5.012,8.655,7.6,2.734,2.885,5.923,5.924,6.075,10.784.456,5.316-1.367,9.721-4.86,12.607a8.2,8.2,0,0,1-7.291.608l-3.191-2.126c-.758-.3-.911.456-1.215.76,0,.911-.152,1.519-.759,1.822l-1.064-.3-.152-8.81v-9.878a2.108,2.108,0,0,1,1.368,0c.3,6.228.456,12.76,5.012,15.948a5.722,5.722,0,0,0,5.012,1.063c2.885-1.215,3.95-4.4,3.95-7.9a9.617,9.617,0,0,0-3.646-6.987c-2.885-3.494-7.137-5.316-9.872-9.114-.759-.912-.759-2.125-1.367-3.189a13.609,13.609,0,0,1,3.342-13.064,7.116,7.116,0,0,1,5.316-1.063,9.011,9.011,0,0,1,3.494,2.126Z" transform="translate(-918.358 -297.43)" fill="#877b8d" fill-rule="evenodd"/>
  <path id="Path_440" data-name="Path 440" d="M920.747,297.6c.3.152.759.152.911.759-.456,1.064-1.827,1.064-2.278,1.974a5.941,5.941,0,0,0-.152,3.645l1.827,10.784c.76,3.493,1.518,7.139,2.43,10.632h.456c1.215-5.164,2.126-10.329,3.038-15.494-.911-3.949-.152-9.266-3.8-11.088-.3-.759.152-1.215.911-1.215,2.126.152,8.962,0,10.632.152a1.671,1.671,0,0,1,0,1.216c-1.214.456-2.582.3-3.34,1.367-1.671,2.734.606,5.62.456,8.81l1.822,9.569c.457,2.126.457,4.712,1.671,6.38h.152l2.278-9.874c1.215-4.1,1.827-8.505,2.734-12.759a2.5,2.5,0,0,0-1.063-2.885c-.608-.607-1.671-.456-2.583-.607a1.689,1.689,0,0,1,0-1.216c2.279,0,9.266-.152,10.177,0,.456.152.3.911.152,1.216-1.367.3-2.734.607-3.493,1.518a67.36,67.36,0,0,0-1.975,7.442l-2.581,11.848c-1.52,6.531-3.191,13.214-4.712,19.9a.976.976,0,0,1-1.368.153c-.912-1.216-.912-3.19-1.367-4.86L929.408,321.9l-1.215-5.468h-.3l-1.827,8.962c-.912,4.405-1.827,8.81-2.734,13.367a1.419,1.419,0,0,1-1.974,1.216c-1.064-.3-.607-1.671-.911-2.582l-.759-4.86-2.278-12-1.519-8.655c-.457-3.494-1.368-6.987-2.126-10.328-.152-.912-1.063-1.519-1.671-2.126-1.063-.3-1.974.151-3.039-.456-.3-.3-.456-1.216.153-1.367Z" transform="translate(-908.785 -297.441)" fill="#877b8d" fill-rule="evenodd"/>
  <path id="Path_441" data-name="Path 441" d="M968.488,338.9a3.23,3.23,0,0,1-2.879-2.425c-.916-3.194-1.222-6.685-1.981-10.184l-3.185-15.637c-.611-4.258-1.827-7.906-2.435-12.008.306-1.667-2.583-1.213-2.731-.454-.759,3.8-1.213,7.6-1.971,11.239l-1.518,8.814-1.676,10.628c-.759,2.741-.759,5.777-1.827,8.2a4.5,4.5,0,0,1-3.793,1.678c-.306.306-.454,1.667.454,1.361l8.655-.148.158-.907c-.454-.463-1.675-.306-2.277-.759-1.675-2.741.306-5.777.454-8.508l.611-.306h6.073c1.518,1.065.907,3.648,1.667,5.166.158.907.463,2.425-.3,3.185-.306,1.675-3.648-.148-3.194,2.129.611.454,2.129,0,2.425.454h8.971l.454-.454C968.941,339.661,968.488,339.357,968.488,338.9Zm-14.729-11.091-1.213-.148.148-1.971,1.37-8.655,1.065-5.62.3.148,1.675,7.591,1.518,8.2c-1.065,1.212-3.195,0-4.861.453Z" transform="translate(-911.417 -297.435)" fill="#877b8d" fill-rule="evenodd"/>
  <path id="Path_442" data-name="Path 442" d="M1009.871,297.6c.152.3.456.911.152,1.215-1.368.609-3.646,0-3.95,1.671-.3,4.712-.3,8.2-.3,12.911l-.152,18.53h-.152c.911,2.279-1.216,6.836,2.126,6.987a5.239,5.239,0,0,0,3.038-.3c3.039-2.43,3.95-6.531,4.556-10.632.456-2.126.152-4.712.759-6.836a1.669,1.669,0,0,1,1.216,0v18.53l-.153.76c-2.429,0-5.011,0-6.835.152l-8.655-.152h-4.712c-.759,0-.456-1.063-.3-1.519,1.519-.152,3.342,0,4.1-1.215.607-2.278.152-5.316.456-7.746-.3-2.126.152-4.405-.152-6.837l.152-1.973V301.7A4.7,4.7,0,0,0,1000,299.57c-.911-1.063-4.555.457-3.19-1.973Z" transform="translate(-915.279 -297.441)" fill="#877b8d" fill-rule="evenodd"/>
  <path id="Path_443" data-name="Path 443" d="M1078.786,297.75l.3.759v17.468a1.25,1.25,0,0,1-.759.759l-.76-.3a41.222,41.222,0,0,0-2.126-14.734,3.862,3.862,0,0,0-1.975-2.126c-.759,0-1.518,0-1.822.609v32.353h-.152c.152,2.278-.3,5.164,1.367,6.227,1.063.76,2.885-.456,3.038,1.216,0,1.216-1.671.3-2.431.759h-3.34v-.152c-1.064.456-2.126-.3-3.039.152a35.732,35.732,0,0,0-4.254-.152c-.456-.152-.3-1.063-.152-1.368,1.671-.3,3.494-.456,4.1-2.277V300.486a1.62,1.62,0,0,0-1.366-1.063c-2.278.608-2.885,3.038-3.494,5.316a34.723,34.723,0,0,0-1.064,10.784c-.3.456,0,1.215-.759,1.215l-.911-.3V298.053c1.973-.608,14.885-.456,19.593-.3Z" transform="translate(-919.945 -297.443)" fill="#877b8d" fill-rule="evenodd"/>
  <path id="Path_444" data-name="Path 444" d="M1108.062,331.329c-.306-.611-.759.306-1.213,0a20.537,20.537,0,0,0-.306,4.25c-.306.454-.454,1.213-1.213,1.37a1.4,1.4,0,0,1-.917-.916c-.6-2.277-.148-5.157-.3-7.74-.463,0-.76-.306-.611-.759.148-.306.454,0,.454.3,0-2.731-.306-6.221-2.425-7.74-.611-.916-1.676-.916-1.37-1.981a13.828,13.828,0,0,0,3.953-3.943c2.116-2.885,1.519-8.35.454-11.693a9.713,9.713,0,0,0-5.925-4.712h-14.73c-.611.148-.759.611-.611,1.213.306.759,1.667.306,2.425.611,1.222.454,1.518,1.827,1.827,3.185-.148,1.527,0,3.805-.148,5.323.148,2.425.148,5.62.148,7.9-.148,3.185,0,6.685,0,10.323l-.148,8.814c.306.759-.158,1.667-.158,2.425-.454.463-.907,1.222-1.667,1.37-.611.454-1.972-.306-1.972.759-.611,1.827,1.972.454,2.731,1.065.148-.306.611,0,.907,0l7.906-.148.3-.463c.158-1.213-.907-1.058-1.667-1.213-.759-.306-1.065-1.065-1.37-1.972V320.09l.306-.611c.759-.611,2.277-.306,3.194,0,2.116.611,2.583,2.885,3.037,5.018v10.933l.454,2.885a5.771,5.771,0,0,0,3.342,2.573,4.328,4.328,0,0,0,3.185-.759C1108.219,338.468,1108.367,334.823,1108.062,331.329Zm-8.2-17.618a6.119,6.119,0,0,1-2.129,3.342c-1.213.759-3.8.6-5.008.148l-.148-15.489c.148-1.065.6-2.129,1.972-2.129.907-.306,1.827.148,2.885.148,4.253,2.587,2.587,9.12,2.429,13.98Z" transform="translate(-921.729 -297.453)" fill="#877b8d" fill-rule="evenodd"/>
  <path id="Path_445" data-name="Path 445" d="M1132.766,297.76c1.063.456.456,2.582.608,3.645.456,2.43-.3,5.164.151,7.29-.456.912.153,1.519,0,2.431-.3,1.063,0,2.582-.3,3.493-2.126.152-1.063-2.582-1.367-3.949-.456-4.712-2.126-8.963-6.075-10.936-1.368-.456-3.646-.456-4.557.608-.911,2.734-.456,7.29-.456,9.873-.3.912.152,1.216,0,2.278v4.251c.152.456-.152,1.671.911,1.518,3.646-1.67,4.1-5.923,4.1-10.176,0-.608.3-.912,1.214-.76l.153.911c-.3,1.974.3,4.405-.153,6.532,0,2.126,0,5.013.153,7.29a68.157,68.157,0,0,0,0,7.9.806.806,0,0,1-.912.911c-1.063-.911-.3-3.494-.76-4.86-.607-2.582-1.214-5.62-4.1-6.227l-.456.3a86.681,86.681,0,0,0-.152,8.81c0,2.734.152,6.228,0,8.962.911,1.822,3.189,1.063,5.316,1.063,3.8-1.67,5.164-6.228,5.924-10.482l1.827.456v11.24l-.456.456-17.62.152c-1.215-.3-3.341.152-4.557-.3-.456-2.43,2.43-.76,3.343-1.671a3.031,3.031,0,0,0,1.215-1.519V301.4a3.438,3.438,0,0,0-1.368-1.827c-1.063-.456-3.341.457-3.19-1.366l.3-.456Z" transform="translate(-923.8 -297.453)" fill="#877b8d" fill-rule="evenodd"/>
  <path id="Path_446" data-name="Path 446" d="M1156.784,297.758c.76.456,2.885-.3,3.342.608,0,5.62.152,10.482,0,15.948-.152.456-.911.456-1.216.152-.607-5.923-.456-12.911-5.923-15.037-1.214-.456-2.582.151-3.8.151a3.384,3.384,0,0,0-1.367,2.583V316.9c.152.456.3.76.759.76,4.1-1.064,3.8-6.076,4.405-10.177.152-.3.911-.3,1.215,0v6.228c.3.3,0,.3,0,.911.3,1.368,0,2.43.153,4.1v4.1c-.457,2.278.152,5.164-.457,7.29a.673.673,0,0,1-1.063-.3c-.3-3.494-.3-8.051-3.038-10.177a1.635,1.635,0,0,0-1.67,0l-.3,1.064v9.872h.152c.152,2.431-.911,6.381.911,7.9a7.143,7.143,0,0,0,4.406.455c3.342-1.063,4.253-4.556,5.469-7.6-.3-1.216.456-2.43.456-3.8l.3-4.86a.733.733,0,0,1,1.063-.151l.3.3c-.456,2.278.912,5.923-1.215,6.835-.152.608-.911.608-.911,1.367a13.529,13.529,0,0,0,1.974-2.126h.3l-.152,8.81c-.3,1.063.457,2.734-.759,3.038a63.424,63.424,0,0,1-7.6.152c-4.86-.3-9.417-.152-14.125-.152-.456-.152-.456-1.064-.152-1.367,1.367-.457,3.189-.153,4.1-1.519,1.367-1.063.607-4.1.76-6.076.152-3.341-.3-7.746,0-10.784l-.153-8.655V301.556a3.094,3.094,0,0,0-2.885-2.278c-.912,0-1.975.152-1.672-1.064.152-.608,15.948-.456,18.379-.456Z" transform="translate(-925.795 -297.452)" fill="#877b8d" fill-rule="evenodd"/>
  <path id="Path_447" data-name="Path 447" d="M1243.938,312.643c-.917-3.8-1.518-7.749-3.49-10.482a12.776,12.776,0,0,0-3.953-4.1c-2.435-.759-5.314-.306-6.828,1.361-3.8,4.406-5.777,10.637-6.083,17.164-.148,9.721,1.222,18.08,6.99,23.395,1.213,1.213,3.953,1.065,5.777.611a13.441,13.441,0,0,0,4.86-5.166C1244.243,329.65,1245,320.54,1243.938,312.643Zm-5.925,22.022a11.019,11.019,0,0,1-1.827,3.8,3.706,3.706,0,0,1-3.943.148c-2.287-1.518-2.741-4.4-2.583-6.981-.158-2.129.6-3.953,0-5.925.148-2.277,0-4.86.3-7.3-.3-.148,0-1.065-.3-1.213.6-.759-.158-1.213,0-1.972.148-3.8,0-6.685,0-11.091.6-1.972,1.519-4.25,3.638-4.712,2.287-.148,3.5,1.222,4.406,2.885l.306,2.885v9.573l.148.148Z" transform="translate(-932.141 -297.449)" fill="#877b8d" fill-rule="evenodd"/>
  <path id="Path_448" data-name="Path 448" d="M1185.411,298.23l.3.456.152,11.7c-.456,1.974,0,4.4-.3,6.38-.457.456-.911,0-1.215-.152l-.456-7.442c-.607-3.494-1.214-6.684-3.19-9.114a1.381,1.381,0,0,0-1.827,0l-.608.608v36.91c.3,2.125,3.341.912,4.557,1.827a1.025,1.025,0,0,1-.76,1.367c-3.95.457-7.9-.3-11.848,0-.911.152-.911-.911-.607-1.367,1.367-.3,3.039-.153,3.494-1.519l.151-17.011V300.812a2.1,2.1,0,0,0-1.214-1.063c-2.734.3-2.885,3.038-3.646,5.012l-1.214,8.2c-.3,1.368.3,3.189-.456,3.95l-.912-.152-.151-8.506c0-3.038-.152-6.836.151-9.873,1.063-.759,17.012-.3,19.594-.152Z" transform="translate(-927.841 -297.467)" fill="#877b8d" fill-rule="evenodd"/>
  <path id="Path_449" data-name="Path 449" d="M1221,298.064c.759-.152.911.608.608,1.063-1.52.3-3.038.3-3.95,1.367-1.063,2.43.152,5.62-.3,8.2.152.457-.152,1.367,0,2.126.152,1.975,0,4.253,0,6.076V333.91c-.911,3.039-2.278,6.076-5.316,6.836a6.063,6.063,0,0,1-6.38-2.126c-1.671-2.43-3.494-5.62-2.126-9.266a3.661,3.661,0,0,1,3.191-2.278c.759.3,1.672.608,1.973,1.367-.151,1.368.76,2.885-.151,3.8-.152,1.216-1.827,1.216-1.827,2.583.152,1.822.911,3.341,2.429,3.949a2.83,2.83,0,0,0,2.885-1.063c1.063-3.038.456-7.9.456-11.24l.152-8.809V302.014a5.578,5.578,0,0,0-1.368-2.431c-.911-.759-3.038.3-3.493-.911l.456-.911c4.712,0,8.05.456,12.76.3Z" transform="translate(-930.618 -297.453)" fill="#877b8d" fill-rule="evenodd"/>
  <path id="Path_450" data-name="Path 450" d="M1257.537,298.232c.608-.3,1.827-.456,2.278.3.152.912-.456,1.063-1.063,1.216a3.408,3.408,0,0,0-2.126.911,8.654,8.654,0,0,0-.609,4.1v17.315l-.152.152c.3,4.557,0,7.6.3,12.3a6.777,6.777,0,0,0,3.19,4.4c1.366.3,3.19.153,4.1-.911,1.52-1.063,1.827-2.734,2.126-4.405V318.434l-.152-.912.152-13.367a5.9,5.9,0,0,0-.911-3.95c-.759-.608-2.126-.608-3.039-.759l.153-1.064,8.05-.152a.814.814,0,0,1,.759.76c0,.759-1.215.3-1.52.607a1.772,1.772,0,0,0-1.518,1.52l-.456,2.429v30.378a9.736,9.736,0,0,1-3.646,6.228c-1.215,1.064-3.645.608-5.012.911a8.531,8.531,0,0,1-6.531-5.62c-1.823-3.8-.607-10.025-1.063-14.126V301.725a3.352,3.352,0,0,0-1.519-1.973c-.759-.3-2.126,0-2.126-.912-.151-.911.912-.456,1.368-.759l8.962.152Z" transform="translate(-933.893 -297.469)" fill="#877b8d" fill-rule="evenodd"/>
  <path id="Path_451" data-name="Path 451" d="M1298.6,331.966a.982.982,0,0,0-.907,0c-.306,1.981.148,4.712-1.675,5.324-1.37-.611-1.213-2.885-1.213-4.258l-.306-7.74a8.132,8.132,0,0,0-1.213-3.953c-.611-1.065-2.129-1.37-2.129-2.731,2.731-1.222,3.8-4.258,5.166-6.685a12.093,12.093,0,0,0-1.37-9.573c-1.827-3.648-6.379-4.554-10.933-3.943-2.583,0-4.407,0-6.685-.158-1.065.454-1.972-.454-2.425.611,0,1.065,1.361.6,2.116.907.917.454,1.065,1.37,1.37,2.277v34.94l-.454,1.518a4.355,4.355,0,0,1-3.194,1.213c-.306.158-.306.917,0,1.213l4.406.306,8.054-.148c-.158-.454,0-.916-.158-1.213a14.58,14.58,0,0,0-2.425-.306c-1.065-.454-1.222-1.518-1.37-2.435.148-6.221-.611-11.081,0-17.007l.306-.454a4.784,4.784,0,0,1,4.555.6c1.518,1.065,1.667,3.342,1.827,5.314V334.4l.454,4.406c.907.759.907,2.277,2.277,2.277,1.213.454,2.583-.158,3.648-.611C1298.295,338.5,1299.054,335.309,1298.6,331.966Zm-9.721-14.581a10.934,10.934,0,0,1-5.472,0c-.148-5.77-.148-10.175-.148-15.943a2.5,2.5,0,0,1,1.667-1.827c2.885-.611,4.406.907,5.777,2.583a15.173,15.173,0,0,1,.6,3.648l-.148,8.045C1290.7,315.415,1290.249,316.783,1288.88,317.385Z" transform="translate(-935.922 -297.489)" fill="#877b8d" fill-rule="evenodd"/>
  <path id="Path_452" data-name="Path 452" d="M1308.32,298.249c.3.3.912.456,1.064.911,3.039,8.506,5.316,17.316,8.81,25.519.911-.153-.305-1.064.3-1.52-.152-3.189.152-6.227-.152-9.569.3-1.822,0-3.189.152-5.164-.456-.3.3-.759-.152-.911.3-1.827-.152-4.4-.152-6.532-.76-1.063-2.126-1.367-3.645-1.367,0-.151-.3-1.063.3-1.215h8.81c.607.152.3.759.3,1.215-.911.457-2.278.3-2.885,1.216l-.608,1.519-.152,8.2v25.973c-.152,1.216.152,3.189-.152,4.4a1.154,1.154,0,0,1-1.367.152c-1.063-1.367-.912-3.645-1.974-5.012-1.67-4.1-2.582-8.809-4.253-12.759l-3.038-8.655c-.456-1.519-1.216-2.734-1.672-4.1l-.3.153a11.846,11.846,0,0,0-.153,5.164l-.152,8.2V337.59a3.614,3.614,0,0,0,1.368,1.974c.759.456,2.582-.456,2.582.911l-.152.608-8.506.153c-.608-.153-1.367-.153-1.367-.912.608-1.215,3.189,0,3.8-1.519a10.721,10.721,0,0,0,.607-4.556l-.151-17.468V302.2c-.3-2.126-2.431-2.278-4.1-2.734-.456-.3,0-.76,0-1.064a53.1,53.1,0,0,1,6.988-.152Z" transform="translate(-937.895 -297.486)" fill="#877b8d" fill-rule="evenodd"/>
  <path id="Path_453" data-name="Path 453" d="M1348.48,339.581c-2.885-1.518-2.741-5.472-3.648-8.508l-2.741-12.61c-.454-4.406-1.815-8.2-2.425-12.452L1338,298.568l-1.981-.148c-1.065,1.815-1.361,4.4-1.827,6.675l-1.361,7.6-2.277,13.063-1.827,10.323a5,5,0,0,1-2.277,3.5c-.463.306-1.981-.306-1.981.6-.454,1.519,1.222.916,1.981,1.222a44.2,44.2,0,0,0,7.74-.306c1.064-2.277-1.973-.916-2.731-1.675-1.827-1.518-.611-4.25-.306-6.073a6.6,6.6,0,0,1,.916-3.185,40.2,40.2,0,0,1,7.443-.158c.907,1.675,1.213,3.953,1.667,6.073.158,1.37,0,2.583-.76,3.194-.907.611-3.49-.306-2.731,1.827a76.844,76.844,0,0,0,11.841.148l.157-.306C1350.146,339.729,1349.239,339.729,1348.48,339.581Zm-9.425-11.239-6.073.148-.76-.454a35.143,35.143,0,0,1,.917-5.314l1.213-8.054a26.233,26.233,0,0,1,.907-3.648l.611.158c.907,5.77,2.731,10.933,3.49,16.859Z" transform="translate(-939.621 -297.503)" fill="#877b8d" fill-rule="evenodd"/>
  <path id="Path_454" data-name="Path 454" d="M1364.86,298.416c.608.152,1.214.3,1.214,1.064-.3,1.063-2.277.456-3.038,1.063-1.063.456-1.063,1.827-1.366,2.734v33.871c-.457,1.064.3,1.827.911,2.431,1.216.759,3.95.608,5.469.151,2.429-1.518,2.885-4.555,3.949-7.29l1.063-7.9c.153-.3.76-.3,1.216,0v14.126h-.152a8.294,8.294,0,0,1-.152,2.734c-.759.3-1.974,0-2.583.153l-.456-.153-8.2.153c-3.189-.153-6.684.3-9.266-.457-.3-.152-.3-.759-.152-1.063.912-.608,2.885.152,3.341-1.216l.153-1.518V301.454c-.761-1.518-2.431-1.67-3.95-1.67,0-.609-.3-1.216.3-1.368Z" transform="translate(-941.729 -297.502)" fill="#877b8d" fill-rule="evenodd"/>
</svg>
